<svg width="153" height="153" viewBox="0 0 153 153" fill="none" xmlns="http://www.w3.org/2000/svg">
<path d="M98.3433 3.51197C99.4106 3.86389 100.478 4.2158 101.578 4.57838C109.186 7.28419 115.75 10.8671 122.343 15.512C123.084 16.0147 123.826 16.5174 124.589 17.0354C126.343 18.512 126.343 18.512 127.343 21.512C128.213 21.918 128.213 21.918 129.101 22.3323C132.276 24.0028 134.1 26.5762 136.218 29.387C136.657 29.9678 137.096 30.5486 137.549 31.147C144.646 40.7757 148.523 50.9274 151.343 62.512C151.537 63.3009 151.73 64.0898 151.929 64.9026C154.841 83.2512 150.447 103.237 140.093 118.637C138.868 120.281 137.617 121.906 136.343 123.512C135.686 124.346 135.028 125.18 134.351 126.039C121.172 141.705 102.245 150.748 82.0347 152.74C62.4252 154.072 43.8855 148.318 28.4058 136.137C13.9073 123.397 1.7195 105.871 0.149896 86.073C-1.01843 62.9562 4.58152 44.2458 19.1089 25.9612C21.3433 23.512 21.3433 23.512 24.3433 22.512C24.6733 32.412 25.0033 42.312 25.3433 52.512C25.2878 50.1504 25.2324 47.7888 25.1753 45.3557C25.1591 43.0453 25.1618 40.7356 25.1663 38.4251C25.1593 36.8305 25.133 35.2358 25.0862 33.6419C24.7192 20.4624 24.7192 20.4624 28.6435 15.7495C31.4538 13.6678 34.2049 12.0462 37.3433 10.512C37.985 10.147 38.6267 9.78204 39.2878 9.40602C56.6807 -0.265924 79.444 -2.91688 98.3433 3.51197ZM24.3433 53.512C24.0133 54.172 23.6833 54.832 23.3433 55.512C24.0033 55.512 24.6633 55.512 25.3433 55.512C25.0133 54.852 24.6833 54.192 24.3433 53.512Z" fill="#140F0D"/>
<path d="M128.343 22.512C132.217 23.8033 133.777 26.1835 136.156 29.3245C136.821 30.2024 136.821 30.2024 137.5 31.0981C144.627 40.7417 148.516 50.8976 151.343 62.512C151.537 63.3009 151.73 64.0898 151.929 64.9026C154.841 83.2512 150.448 103.237 140.093 118.637C138.868 120.281 137.617 121.906 136.343 123.512C135.686 124.346 135.028 125.18 134.351 126.039C121.172 141.705 102.245 150.748 82.0347 152.74C62.4252 154.072 43.8855 148.318 28.4058 136.137C13.9073 123.397 1.71956 105.871 0.149954 86.073C-1.0219 62.8864 4.6259 44.1856 19.2066 25.8635C19.9117 25.0875 20.6168 24.3115 21.3433 23.512C22.0033 23.512 22.6633 23.512 23.3433 23.512C23.4673 27.6928 23.5578 31.8726 23.618 36.0547C23.643 37.4758 23.6771 38.8967 23.7205 40.3174C23.7815 42.3656 23.8096 44.4122 23.8316 46.4612C23.8578 47.6918 23.884 48.9225 23.9109 50.1904C23.1875 54.4236 21.3282 55.5363 18.3433 58.512C17.4164 63.02 17.4985 67.5325 17.5267 72.1216C17.5308 74.3106 17.4658 76.4903 17.396 78.678C17.1955 86.2785 17.1955 86.2785 20.1509 93.0977C22.2937 95.1604 22.2937 95.1604 24.5369 96.9292C26.3433 98.512 26.3433 98.512 27.2105 101.602C27.2144 103.011 27.2144 103.011 27.2183 104.449C27.7553 109.874 29.2862 112.07 33.3433 115.699C35.6304 117.544 37.7178 119.199 40.3433 120.512C41.0549 122.214 41.0549 122.214 41.7808 123.949C43.0452 127.703 43.0452 127.703 46.3433 129.512C48.923 129.603 48.923 129.603 51.7183 129.387C55.6072 129.31 57.0229 129.326 60.4683 131.324C62.3433 133.512 62.3433 133.512 63.3433 136.512C65.6364 137.659 67.1424 137.709 69.6949 137.828C70.5457 137.87 71.3964 137.912 72.273 137.955C73.1625 137.995 74.0519 138.034 74.9683 138.074C76.3141 138.139 76.3141 138.139 77.6871 138.205C79.9057 138.312 82.1244 138.414 84.3433 138.512C84.3433 137.852 84.3433 137.192 84.3433 136.512C83.2231 136.524 82.1029 136.535 80.9488 136.547C79.4761 136.556 78.0035 136.566 76.5308 136.574C75.7928 136.583 75.0548 136.591 74.2945 136.6C71.0441 136.615 68.4493 136.547 65.3433 135.512C63.7183 132.949 63.7183 132.949 63.3433 129.512C65.3366 126.495 67.7418 124.012 70.3433 121.512C67.0263 122.072 65.6316 122.913 63.5933 125.574C62.4796 127.029 62.4796 127.029 61.3433 128.512C60.3533 128.182 59.3633 127.852 58.3433 127.512C60.8538 122.677 62.8752 119.772 67.3433 116.512C67.6733 115.852 68.0033 115.192 68.3433 114.512C70.6285 114.098 70.6285 114.098 73.4058 113.887C74.7845 113.775 74.7845 113.775 76.191 113.66C77.2564 113.587 77.2564 113.587 78.3433 113.512C70.7676 112.72 70.7676 112.72 64.2808 116.012C63.6414 116.837 63.0021 117.662 62.3433 118.512C61.6833 118.512 61.0233 118.512 60.3433 118.512C59.9102 117.563 59.4771 116.614 59.0308 115.637C57.5503 112.312 57.5503 112.312 54.3433 110.512C52.3536 110.122 50.3531 109.78 48.3433 109.512C48.1925 108.694 48.1925 108.694 48.0386 107.86C46.1099 100.132 41.4172 96.3397 35.3433 91.512C34.0436 90.7881 34.0436 90.7881 32.7176 90.0496C29.006 86.0827 29.6831 82.1078 29.7847 76.8674C29.7871 75.8243 29.7894 74.7811 29.7918 73.7064C29.8015 71.4998 29.8233 69.2933 29.8563 67.0869C29.9055 63.7224 29.9177 60.3593 29.9234 56.9944C29.9375 54.8479 29.9537 52.7014 29.9722 50.5549C29.9776 49.5537 29.9829 48.5524 29.9885 47.5208C30.2013 34.909 30.2013 34.909 34.9683 29.5745C35.7521 28.8938 36.5358 28.2132 37.3433 27.512C40.0964 36.1384 40.4967 44.5625 40.4058 53.5745C40.4013 54.4401 40.3968 55.3057 40.3921 56.1975C40.3805 58.3024 40.3626 60.4072 40.3433 62.512C38.6933 62.182 37.0433 61.852 35.3433 61.512C34.432 75.7203 34.432 75.7203 38.2847 88.9924C41.5569 91.8857 44.2254 93.5298 48.6675 93.4924C51.398 92.7739 53.7769 91.6938 56.3433 90.512C58.3882 89.7129 60.4439 88.9479 62.503 88.1863C63.9135 87.6626 65.3203 87.1287 66.7227 86.5837C75.8718 83.0462 75.8718 83.0462 79.8238 84.2971C80.7171 84.7186 81.6104 85.1402 82.5308 85.5745C87.9616 87.9942 93.444 89.9725 99.0933 91.8245C99.9044 92.0907 100.715 92.357 101.551 92.6313C103.481 93.2618 105.412 93.8874 107.343 94.512C107.55 93.7695 107.756 93.027 107.968 92.262C109.343 89.512 109.343 89.512 112.414 87.9651C115.538 85.8521 115.538 85.8521 115.924 82.9514C116.16 79.71 116.226 76.5118 116.218 73.262C116.239 72.1353 116.26 71.0087 116.281 69.8479C116.328 67.0685 116.348 64.2917 116.343 61.512C114.693 61.842 113.043 62.172 111.343 62.512C110.769 34.6605 110.769 34.6605 114.343 27.512C115.003 27.512 115.663 27.512 116.343 27.512C121.735 33.271 122.207 39.6601 122.359 47.2112C122.402 48.8792 122.402 48.8792 122.445 50.581C122.492 52.9265 122.525 55.2723 122.544 57.6182C122.593 61.1766 122.748 64.7206 122.906 68.2756C123.313 86.0991 123.313 86.0991 117.986 91.7371C115.402 94.0345 112.691 95.8699 109.776 97.7144C106.553 99.8727 105.708 101.573 104.872 105.351C104.665 106.733 104.478 108.12 104.343 109.512C103.25 109.636 102.157 109.759 101.031 109.887C97.2695 110.267 97.2695 110.267 94.3433 112.512C95.1026 112.5 95.8618 112.489 96.6441 112.477C97.638 112.468 98.6318 112.459 99.6558 112.449C100.642 112.438 101.628 112.426 102.644 112.414C105.343 112.512 105.343 112.512 108.343 113.512C108.013 112.192 107.683 110.872 107.343 109.512C108.313 109.038 109.282 108.563 110.281 108.074C113.5 105.955 113.5 105.955 113.648 103.524C113.651 102.777 113.653 102.031 113.656 101.262C113.72 98.9478 113.72 98.9478 114.343 96.512C116.342 94.8958 116.342 94.8958 118.82 93.2776C122.636 90.0602 123.924 87.7019 124.358 82.6879C124.5 78.9571 124.477 75.244 124.406 71.512C124.409 69.9586 124.416 68.4052 124.427 66.8518C124.446 63.0703 124.41 59.2929 124.343 55.512C128.154 56.0563 130.015 57.4677 132.343 60.512C133.257 65.2379 133.084 70.0198 133.093 74.8245C133.142 76.1309 133.191 77.4374 133.242 78.7834C133.3 88.3157 133.3 88.3157 130.544 91.7615C129.12 92.9098 127.659 94.0139 126.161 95.0635C124.005 96.494 124.005 96.494 123.406 99.7932C123.385 100.855 123.365 101.918 123.343 103.012C122.875 108.024 122.212 110.445 118.406 113.824C115.682 115.927 114.85 116.512 111.343 116.512C111.673 117.832 112.003 119.152 112.343 120.512C119.967 115.779 119.967 115.779 124.238 108.301C124.58 104.991 124.58 104.991 124.511 101.821C125.485 97.9487 126.35 97.5487 129.359 95.1292C132.783 91.9426 133.858 89.6234 134.134 84.9226C134.178 81.3402 134.062 77.7779 133.906 74.1995C133.874 72.7197 133.846 71.2399 133.822 69.76C133.804 62.5285 133.804 62.5285 132.343 55.512C131.023 54.852 129.703 54.192 128.343 53.512C128.343 43.282 128.343 33.052 128.343 22.512Z" fill="#717172"/>
<path d="M98.3432 3.51197C99.4106 3.86389 100.478 4.2158 101.578 4.57838C109.144 7.26928 115.866 10.7497 122.343 15.512C122.878 15.8815 123.414 16.2511 123.965 16.6318C126.127 19.5819 125.711 22.7292 125.636 26.2424C125.632 26.9929 125.628 27.7433 125.623 28.5164C125.607 30.9112 125.569 33.305 125.531 35.6995C125.516 37.3238 125.502 38.9482 125.49 40.5725C125.457 44.5527 125.405 48.5322 125.343 52.512C125.013 52.512 124.683 52.512 124.343 52.512C124.317 51.4498 124.292 50.3876 124.265 49.2932C123.933 39.9217 123.135 33.489 117.343 25.887C102.298 13.9765 82.8647 11.8103 64.3432 13.512C59.1479 14.2933 54.2854 15.7237 49.3432 17.512C47.953 18.0147 47.953 18.0147 46.5346 18.5276C40.8757 20.7739 40.8757 20.7739 37.3432 25.512C37.5604 27.72 37.5604 27.72 38.3432 29.512C37.3532 29.512 36.3632 29.512 35.3432 29.512C29.218 37.7575 30.7144 49.9583 30.4988 59.7378C30.4371 61.9506 30.3485 64.1629 30.2322 66.3736C29.1799 78.4607 29.1799 78.4607 32.7174 89.663C35.9781 93.2536 39.7204 95.8074 43.799 98.3791C46.0803 100.053 47.1982 101.959 48.3432 104.512C48.5307 107.324 48.5307 107.324 48.3432 109.512C49.2301 109.429 50.117 109.347 51.0307 109.262C55.1254 109.571 56.5454 110.554 59.3432 113.512C60.1557 116.262 60.1557 116.262 60.3432 118.512C60.7209 118.079 61.0986 117.646 61.4878 117.199C64.2029 114.453 66.1888 112.695 70.0815 112.078C74.6426 112.072 78.8874 112.539 83.3432 113.512C83.3432 113.842 83.3432 114.172 83.3432 114.512C78.3932 114.512 73.4432 114.512 68.3432 114.512C67.6832 115.832 67.0232 117.152 66.3432 118.512C64.6766 120.179 63.0099 121.845 61.3432 123.512C60.048 125.678 60.048 125.678 59.3432 127.512C60.0032 127.512 60.6632 127.512 61.3432 127.512C62.1098 126.356 62.8565 125.187 63.5932 124.012C65.961 121.055 67.0176 120.555 70.851 120.047C74.3711 120.072 77.8367 120.209 81.3432 120.512C81.3432 120.842 81.3432 121.172 81.3432 121.512C80.6188 121.503 79.8943 121.494 79.1479 121.485C73.3866 121.615 73.3866 121.615 68.2417 123.926C66.5014 125.798 65.2912 127.129 64.3432 129.512C64.6732 131.492 65.0032 133.472 65.3432 135.512C71.6132 135.842 77.8832 136.172 84.3432 136.512C84.3432 137.172 84.3432 137.832 84.3432 138.512C81.2391 138.57 78.1352 138.606 75.0307 138.637C73.7091 138.662 73.7091 138.662 72.3608 138.688C71.5133 138.694 70.6657 138.701 69.7925 138.707C69.0122 138.718 68.2319 138.728 67.428 138.739C65.3432 138.512 65.3432 138.512 62.3432 136.512C61.6766 135.179 61.0099 133.845 60.3432 132.512C56.9029 130.218 55.9527 130.386 51.9682 130.637C48.2158 130.697 46.6122 130.652 43.2182 128.887C40.9849 126.058 40.8769 124.019 40.3432 120.512C38.5218 119.478 38.5218 119.478 36.3432 118.512C31.3871 114.884 27.5186 111.781 26.3432 105.512C26.302 104.398 26.2607 103.284 26.2182 102.137C25.2103 97.9615 24.5802 97.7752 21.3393 95.2971C17.4247 91.5083 16.5489 88.2144 16.3862 82.9065C16.3686 80.771 16.397 78.6457 16.4651 76.5112C16.531 74.317 16.5266 72.1309 16.5132 69.9358C16.6357 59.2135 16.6357 59.2135 19.8608 56.0159C22.6529 53.6821 22.6529 53.6821 22.9109 50.0986C22.8847 48.8261 22.8585 47.5536 22.8315 46.2424C22.8244 45.5614 22.8174 44.8804 22.8101 44.1788C22.7822 42.0179 22.7195 39.8596 22.6557 37.6995C22.6306 36.2288 22.6078 34.7581 22.5874 33.2874C22.5324 29.6947 22.4463 26.1036 22.3432 22.512C23.0032 22.512 23.6632 22.512 24.3432 22.512C24.6732 32.412 25.0032 42.312 25.3432 52.512C25.2878 50.1504 25.2324 47.7888 25.1753 45.3557C25.159 43.0453 25.1618 40.7356 25.1662 38.4251C25.1593 36.8305 25.1329 35.2358 25.0862 33.6419C24.7191 20.4624 24.7191 20.4624 28.6435 15.7495C31.4537 13.6678 34.2049 12.0462 37.3432 10.512C37.9849 10.147 38.6267 9.78204 39.2878 9.40602C56.6807 -0.265924 79.4439 -2.91688 98.3432 3.51197ZM24.3432 53.512C24.0132 54.172 23.6832 54.832 23.3432 55.512C24.0032 55.512 24.6632 55.512 25.3432 55.512C25.0132 54.852 24.6832 54.192 24.3432 53.512Z" fill="#151411"/>
<path d="M52.3433 19.512C53.1575 28.9456 53.6138 38.3613 53.9058 47.8245C53.9492 49.1624 53.9928 50.5003 54.0367 51.8381C54.1415 55.0627 54.2436 58.2873 54.3433 61.512C57.5638 62.8874 60.7958 64.2335 64.0308 65.5745C64.9428 65.9644 65.8548 66.3543 66.7945 66.7561C68.1238 67.3023 68.1238 67.3023 69.48 67.8596C70.2917 68.2 71.1035 68.5404 71.9398 68.8911C76.1406 69.9762 79.6225 68.5314 83.5152 66.9182C84.2616 66.6101 85.0079 66.302 85.7769 65.9846C86.5413 65.6636 87.3057 65.3427 88.0933 65.012C88.8732 64.691 89.6531 64.37 90.4566 64.0393C94.1677 62.7111 94.1677 62.7111 97.3433 60.512C97.5752 57.4855 97.7473 54.4769 97.8785 51.4456C97.9215 50.5369 97.9644 49.6283 98.0087 48.6922C98.1455 45.7781 98.2757 42.8638 98.4058 39.9495C98.4972 37.9787 98.589 36.008 98.6812 34.0374C98.9069 29.1958 99.1266 24.354 99.3433 19.512C103.902 20.1695 107.289 21.2915 111.343 23.512C110.636 37.2042 109.528 50.8535 108.343 64.512C107.803 64.7135 107.263 64.9151 106.707 65.1228C104.27 66.0369 101.838 66.9618 99.4058 67.887C98.5557 68.2041 97.7055 68.5212 96.8297 68.8479C96.0208 69.1573 95.2119 69.4667 94.3785 69.7854C93.6296 70.0682 92.8807 70.351 92.1092 70.6423C90.1557 71.3832 90.1557 71.3832 89.3433 73.512C90.4893 73.102 91.6353 72.6921 92.816 72.2698C94.3459 71.7254 95.8758 71.1811 97.4058 70.637C98.158 70.3675 98.9102 70.0981 99.6851 69.8206C104.202 68.2171 108.72 66.7769 113.343 65.512C114.411 73.9312 114.411 73.9312 111.89 77.6643C109.215 80.3225 106.483 82.419 103.343 84.512C97.618 84.2158 91.4479 83.2549 86.3433 80.512C85.0855 78.4065 85.0855 78.4065 84.3433 76.512C83.6833 76.512 83.0233 76.512 82.3433 76.512C83.2561 79.6624 83.736 81.159 86.6285 82.8401C89.5207 83.8001 92.4031 84.7097 95.3433 85.512C96.1619 85.7363 96.9804 85.9606 97.8238 86.1917C101.267 86.8672 103.345 87.1398 106.386 85.2268C108.289 83.6153 108.289 83.6153 109.933 81.8596C111.343 80.512 111.343 80.512 113.343 80.512C113.266 83.2237 112.843 84.9614 111 86.9924C107.632 89.7251 106.227 90.547 101.699 90.3674C95.9184 89.4498 90.6351 87.1212 85.2339 84.9514C76.5452 81.5779 71.4062 82.5533 62.9058 85.9495C57.3782 88.1423 52.3113 90.0884 46.3433 90.512C45.6833 90.182 45.0233 89.852 44.3433 89.512C43.1677 89.3263 43.1677 89.3263 41.9683 89.137C38.9578 88.4202 37.5597 87.6652 35.3433 85.512C34.8892 82.9683 34.8892 82.9683 34.9527 79.969C34.9656 78.8958 34.9785 77.8227 34.9918 76.717C35.0253 75.5975 35.0588 74.4779 35.0933 73.3245C35.1114 72.1933 35.1294 71.0622 35.148 69.8967C35.1952 67.101 35.261 64.3069 35.3433 61.512C35.6733 61.512 36.0033 61.512 36.3433 61.512C36.6733 67.122 37.0033 72.732 37.3433 78.512C38.6559 77.4264 38.6559 77.4264 38.441 74.7893C38.4294 73.6872 38.4178 72.585 38.4058 71.4495C38.3923 69.7924 38.3923 69.7924 38.3785 68.1018C38.3669 67.2472 38.3553 66.3925 38.3433 65.512C45.4611 67.55 52.4104 69.9154 59.3433 72.512C56.7721 69.3653 54.0437 68.5576 50.2183 67.387C44.4267 65.5953 44.4267 65.5953 43.3433 64.512C43.2101 63.1162 43.1399 61.7142 43.0972 60.3127C43.0656 59.4394 43.0339 58.5661 43.0013 57.6663C42.954 56.2596 42.954 56.2596 42.9058 54.8245C42.6067 47.2115 42.008 39.8432 40.7457 32.3245C40.3628 29.6485 40.145 27.2082 40.3433 24.512C43.6546 21.2007 47.6883 19.512 52.3433 19.512Z" fill="#CF2D30"/>
<path d="M36.3433 27.512C41.5294 32.6981 40.4493 44.2335 40.4795 51.2876C40.4633 55.03 40.4151 58.7702 40.3433 62.512C38.6933 62.182 37.0433 61.852 35.3433 61.512C34.432 75.7203 34.432 75.7203 38.2847 88.9924C41.5568 91.8857 44.2253 93.5298 48.6675 93.4924C51.398 92.7739 53.7769 91.6938 56.3433 90.512C58.3881 89.7129 60.4438 88.9479 62.5029 88.1863C63.9134 87.6626 65.3202 87.1287 66.7227 86.5837C75.8717 83.0462 75.8717 83.0462 79.8237 84.2971C80.7171 84.7186 81.6104 85.1402 82.5308 85.5745C87.9616 87.9942 93.4439 89.9725 99.0933 91.8245C99.9043 92.0907 100.715 92.357 101.551 92.6313C103.481 93.2618 105.412 93.8874 107.343 94.512C107.55 93.7695 107.756 93.027 107.968 92.262C109.343 89.512 109.343 89.512 112.414 87.9651C115.538 85.8521 115.538 85.8521 115.924 82.9514C116.16 79.71 116.226 76.5118 116.218 73.262C116.239 72.1353 116.26 71.0087 116.281 69.8479C116.328 67.0685 116.348 64.2917 116.343 61.512C114.693 61.842 113.043 62.172 111.343 62.512C110.769 34.6605 110.769 34.6605 114.343 27.512C115.003 27.512 115.663 27.512 116.343 27.512C121.735 33.271 122.207 39.6601 122.359 47.2112C122.402 48.8792 122.402 48.8792 122.445 50.581C122.492 52.9265 122.525 55.2723 122.544 57.6182C122.593 61.1766 122.748 64.7206 122.906 68.2756C123.313 86.0991 123.313 86.0991 117.986 91.7371C115.402 94.0345 112.691 95.8699 109.776 97.7144C106.553 99.8727 105.708 101.573 104.872 105.351C104.665 106.733 104.478 108.12 104.343 109.512C103.271 109.594 102.198 109.677 101.093 109.762C96.9924 110.582 95.8449 111.269 93.3433 114.512C92.1081 116.645 92.1081 116.645 91.3433 118.512C88.1821 117.142 87.3506 116.523 85.3433 113.512C82.3138 113.153 79.561 113.002 76.5308 113.012C75.7232 112.984 74.9156 112.955 74.0835 112.926C69.5972 112.911 67.9211 113.016 64.394 116.043C63.7173 116.858 63.0405 117.673 62.3433 118.512C61.6833 118.512 61.0233 118.512 60.3433 118.512C59.9101 117.563 59.477 116.614 59.0308 115.637C57.5502 112.312 57.5502 112.312 54.3433 110.512C52.3536 110.122 50.3531 109.78 48.3433 109.512C48.1924 108.694 48.1924 108.694 48.0386 107.86C46.1099 100.132 41.4172 96.3397 35.3433 91.512C34.4768 91.0294 33.6103 90.5468 32.7175 90.0496C29.006 86.0827 29.6831 82.1078 29.7847 76.8674C29.787 75.8243 29.7893 74.7811 29.7917 73.7064C29.8015 71.4998 29.8233 69.2933 29.8562 67.0869C29.9054 63.7224 29.9177 60.3593 29.9233 56.9944C29.9374 54.8479 29.9536 52.7014 29.9722 50.5549C29.9802 49.053 29.9802 49.053 29.9884 47.5208C30.1228 39.5555 30.7724 33.6399 36.3433 27.512Z" fill="#ADAEAF"/>
<path d="M74.7183 15.262C76.1646 15.2504 76.1646 15.2504 77.6401 15.2385C84.3978 15.2566 90.7401 16.0948 97.3433 17.512C97.3706 19.3869 97.3898 21.2619 97.4058 23.137C97.4174 24.1811 97.429 25.2252 97.4409 26.301C97.3433 29.512 97.3433 29.512 96.8569 32.3479C96.3649 35.3789 96.1422 38.2818 96.0269 41.3479C95.964 42.9431 95.964 42.9431 95.8999 44.5706C95.8606 45.665 95.8213 46.7594 95.7808 47.887C95.716 49.5634 95.716 49.5634 95.6499 51.2737C95.5443 54.0197 95.4422 56.7657 95.3433 59.512C93.2815 60.4719 91.2188 61.4298 89.1558 62.387C88.0072 62.9206 86.8587 63.4543 85.6753 64.0042C84.5757 64.5017 83.4762 64.9993 82.3433 65.512C81.5015 65.927 80.6597 66.3421 79.7925 66.7698C74.2019 68.4639 69.115 65.7787 64.0308 63.512C63.3985 63.2387 62.7662 62.9654 62.1147 62.6838C57.4949 60.6636 57.4949 60.6636 56.3433 59.512C56.1966 57.6899 56.1157 55.8625 56.062 54.0354C56.0252 52.8956 55.9884 51.7559 55.9504 50.5815C55.9151 49.3623 55.8797 48.1431 55.8433 46.887C55.5239 37.076 55.1137 27.2982 54.3433 17.512C61.2583 15.7155 67.5885 15.2052 74.7183 15.262Z" fill="#ACADAE"/>
<path d="M124.343 55.512C128.154 56.0563 130.015 57.4677 132.343 60.512C133.257 65.2379 133.084 70.0198 133.093 74.8245C133.142 76.1309 133.191 77.4374 133.242 78.7834C133.3 88.3157 133.3 88.3157 130.544 91.7615C129.12 92.9098 127.659 94.0139 126.161 95.0635C124.005 96.494 124.005 96.494 123.406 99.7932C123.385 100.855 123.365 101.918 123.343 103.012C122.875 108.024 122.212 110.445 118.406 113.824C115.682 115.927 114.85 116.512 111.343 116.512C111.448 117.399 111.448 117.399 111.554 118.305C111.867 122.865 111.855 124.852 108.968 128.574C105.344 131.123 101.946 130.662 97.6792 130.438C95.1083 130.331 95.1083 130.331 92.4058 132.262C90.3285 134.441 90.3285 134.441 88.7183 136.762C88.2645 137.339 87.8108 137.917 87.3433 138.512C86.3533 138.512 85.3633 138.512 84.3433 138.512C84.3433 137.852 84.3433 137.192 84.3433 136.512C83.2231 136.524 82.1029 136.535 80.9487 136.547C79.4761 136.556 78.0034 136.566 76.5308 136.574C75.7928 136.583 75.0548 136.591 74.2944 136.6C71.044 136.615 68.4492 136.547 65.3433 135.512C63.7183 132.949 63.7183 132.949 63.3433 129.512C65.3365 126.495 67.7418 124.012 70.3433 121.512C67.0263 122.072 65.6315 122.913 63.5933 125.574C62.4795 127.029 62.4795 127.029 61.3433 128.512C60.3533 128.182 59.3633 127.852 58.3433 127.512C60.8537 122.677 62.8752 119.772 67.3433 116.512C67.6733 115.852 68.0033 115.192 68.3433 114.512C70.6284 114.098 70.6284 114.098 73.4058 113.887C74.3249 113.812 75.244 113.737 76.1909 113.66C76.9012 113.611 77.6115 113.562 78.3433 113.512C78.3433 113.182 78.3433 112.852 78.3433 112.512C81.5308 112.199 81.5308 112.199 85.3433 112.512C88.2808 115.012 88.2808 115.012 90.3433 117.512C90.962 116.553 90.962 116.553 91.5933 115.574C93.6451 113.156 94.2414 112.847 97.3433 112.512C101.202 112.34 104.632 112.275 108.343 113.512C107.848 111.532 107.848 111.532 107.343 109.512C108.313 109.038 109.282 108.563 110.281 108.074C113.5 105.955 113.5 105.955 113.648 103.524C113.651 102.777 113.653 102.031 113.656 101.262C113.72 98.9478 113.72 98.9478 114.343 96.512C116.342 94.8958 116.342 94.8958 118.82 93.2776C122.636 90.0602 123.923 87.7019 124.358 82.6879C124.5 78.9571 124.477 75.244 124.406 71.512C124.409 69.9586 124.416 68.4052 124.427 66.8518C124.446 63.0703 124.41 59.2929 124.343 55.512Z" fill="#13110F"/>
<path d="M98.3433 3.51195C99.4106 3.86386 100.478 4.21578 101.578 4.57835C109.144 7.26925 115.866 10.7497 122.343 15.5119C122.878 15.8815 123.414 16.2511 123.965 16.6318C126.127 19.5818 125.711 22.7292 125.636 26.2424C125.632 26.9928 125.628 27.7433 125.623 28.5164C125.607 30.9111 125.569 33.305 125.531 35.6994C125.516 37.3238 125.502 38.9481 125.49 40.5725C125.457 44.5526 125.405 48.5321 125.343 52.5119C125.013 52.5119 124.683 52.5119 124.343 52.5119C124.317 51.4498 124.292 50.3876 124.265 49.2932C123.933 39.9217 123.135 33.4889 117.343 25.8869C102.264 13.9491 82.8927 11.8626 64.3433 13.5119C53.7734 14.9842 41.2898 18.8737 33.7808 26.8244C28.1046 34.4873 27.7576 43.2678 27.3433 52.5119C27.0133 52.5119 26.6833 52.5119 26.3433 52.5119C26.0695 47.8168 25.871 43.1263 25.739 38.425C25.684 36.8298 25.6091 35.2351 25.5134 33.6418C24.7422 20.4611 24.7422 20.4611 28.6123 15.7495C31.432 13.6607 34.1905 12.0436 37.3433 10.5119C37.9856 10.147 38.628 9.78202 39.2898 9.40599C56.6737 -0.272855 79.4512 -2.91446 98.3433 3.51195Z" fill="#707071"/>
<path d="M35.3433 61.512C35.6733 61.512 36.0033 61.512 36.3433 61.512C36.6733 67.122 37.0033 72.732 37.3433 78.512C38.6559 77.4264 38.6559 77.4264 38.441 74.7893C38.4294 73.6872 38.4178 72.585 38.4058 71.4495C38.3923 69.7924 38.3923 69.7924 38.3785 68.1018C38.3669 67.2472 38.3553 66.3925 38.3433 65.512C45.4611 67.55 52.4104 69.9154 59.3433 72.512C59.3433 71.852 59.3433 71.192 59.3433 70.512C63.3433 71.8453 67.3433 73.1786 71.3433 74.512C77.9087 74.9727 83.1496 73.6442 89.3433 71.512C89.3433 72.172 89.3433 72.832 89.3433 73.512C90.4893 73.102 91.6353 72.6921 92.816 72.2698C94.3459 71.7254 95.8758 71.1811 97.4058 70.637C98.158 70.3675 98.9102 70.0981 99.6851 69.8206C104.202 68.2171 108.72 66.7769 113.343 65.512C114.411 73.9312 114.411 73.9312 111.89 77.6643C109.215 80.3225 106.483 82.419 103.343 84.512C97.618 84.2158 91.4479 83.2549 86.3433 80.512C85.0855 78.4065 85.0855 78.4065 84.3433 76.512C83.6833 76.512 83.0233 76.512 82.3433 76.512C83.2561 79.6624 83.736 81.159 86.6285 82.8401C89.5207 83.8001 92.4031 84.7097 95.3433 85.512C96.1619 85.7363 96.9804 85.9606 97.8238 86.1917C101.267 86.8672 103.345 87.1398 106.386 85.2268C108.289 83.6153 108.289 83.6153 109.933 81.8596C111.343 80.512 111.343 80.512 113.343 80.512C113.266 83.2237 112.843 84.9614 111 86.9924C107.632 89.7251 106.227 90.547 101.699 90.3674C95.9184 89.4498 90.6351 87.1212 85.2339 84.9514C76.5452 81.5779 71.4062 82.5533 62.9058 85.9495C57.3782 88.1423 52.3113 90.0884 46.3433 90.512C45.6833 90.182 45.0233 89.852 44.3433 89.512C43.5596 89.3882 42.7758 89.2645 41.9683 89.137C38.9578 88.4202 37.5597 87.6652 35.3433 85.512C34.8892 82.9683 34.8892 82.9683 34.9527 79.969C34.9656 78.8958 34.9785 77.8227 34.9918 76.717C35.0253 75.5975 35.0588 74.4779 35.0933 73.3245C35.1114 72.1933 35.1294 71.0622 35.148 69.8967C35.1952 67.101 35.261 64.3069 35.3433 61.512Z" fill="#241A17"/>
<path d="M125.343 18.512C126.003 19.502 126.663 20.492 127.343 21.512C128.003 21.842 128.663 22.172 129.343 22.512C129.317 23.4249 129.291 24.3378 129.264 25.2783C129.178 28.6797 129.116 32.0799 129.069 35.4819C129.044 36.9515 129.009 38.421 128.966 39.8901C128.905 42.0079 128.877 44.124 128.855 46.2424C128.829 47.515 128.803 48.7875 128.776 50.0986C129.493 54.4124 131.299 55.4939 134.343 58.512C135.27 63.02 135.188 67.5325 135.16 72.1216C135.156 74.3106 135.221 76.4903 135.291 78.678C135.421 88.9826 135.421 88.9826 132.533 93.0801C131.115 94.402 129.653 95.6792 128.145 96.8979C126.018 98.5003 126.018 98.5003 125.511 101.821C125.518 102.853 125.524 103.886 125.531 104.949C125.146 109.252 124.785 111.02 121.863 114.278C119.097 116.496 116.282 118.53 113.343 120.512C112.353 121.502 112.353 121.502 111.343 122.512C110.218 118.762 110.218 118.762 111.343 116.512C113.002 115.498 114.67 114.501 116.343 113.512C120.386 110.9 120.386 110.9 121.988 106.524C122.099 104.316 122.204 102.107 122.3 99.8987C123.494 96.0232 124.194 95.7363 127.371 93.512C130.288 91.1614 131.231 90.01 132.063 86.3062C132.275 82.451 132.238 78.6824 132.093 74.8245C132.091 73.5064 132.088 72.1883 132.085 70.8303C132.282 64.0414 132.282 64.0414 129.489 58.1689C127.355 56.3327 127.355 56.3327 124.343 55.512C124.39 56.4697 124.438 57.4275 124.486 58.4143C124.65 61.9993 124.753 65.584 124.838 69.1716C124.883 70.7181 124.944 72.2642 125.022 73.8093C125.662 86.7597 125.662 86.7597 122.326 91.1926C119.855 93.2776 119.855 93.2776 117.365 94.8958C115.127 96.3578 115.127 96.3578 114.688 98.9478C114.625 100.472 114.587 101.998 114.574 103.524C114.343 105.512 114.343 105.512 111.906 108.074C109.343 109.512 109.343 109.512 107.343 109.512C107.673 110.832 108.003 112.152 108.343 113.512C103.393 113.512 98.4433 113.512 93.3433 113.512C97.3433 109.512 97.3433 109.512 101.093 109.262C102.166 109.344 103.238 109.427 104.343 109.512C104.22 108.501 104.096 107.491 103.968 106.449C104.472 101.156 106.468 98.9971 110.343 95.512C111.169 95.1097 111.995 94.7074 112.845 94.293C116.356 92.3866 118.088 90.8542 120.343 87.512C122.244 79.4107 121.603 70.7719 121.468 62.512C121.466 60.1877 121.469 57.8635 121.476 55.5393C121.484 49.8624 121.435 44.1881 121.343 38.512C122.003 38.512 122.663 38.512 123.343 38.512C123.673 40.822 124.003 43.132 124.343 45.512C124.673 36.602 125.003 27.692 125.343 18.512Z" fill="#222221"/>
<path d="M99.3433 19.512C104.342 20.3451 107.061 21.1669 111.343 23.512C110.636 37.2042 109.528 50.8535 108.343 64.512C106.409 65.3518 104.47 66.1836 102.531 67.012C101.452 67.476 100.373 67.9401 99.2612 68.4182C96.3433 69.512 96.3433 69.512 93.3433 69.512C93.3433 67.202 93.3433 64.892 93.3433 62.512C94.6633 61.852 95.9833 61.192 97.3433 60.512C98.0033 46.982 98.6633 33.452 99.3433 19.512Z" fill="#D22D2D"/>
<path d="M74.7183 15.262C76.1646 15.2504 76.1646 15.2504 77.6401 15.2385C84.4297 15.2567 90.6938 16.1407 97.3433 17.512C97.3433 21.472 97.3433 25.432 97.3433 29.512C94.1206 30.5862 93.4905 30.4599 90.3823 29.5862C84.8056 28.2445 79.4291 28.2538 73.7183 28.3245C72.7205 28.3251 71.7228 28.3258 70.6948 28.3264C65.4767 28.3575 60.4847 28.6119 55.3433 29.512C55.0133 25.552 54.6833 21.592 54.3433 17.512C61.2583 15.7155 67.5885 15.2052 74.7183 15.262Z" fill="#B1B3B4"/>
<path d="M124.343 55.512C128.154 56.0563 130.015 57.4677 132.343 60.512C133.257 65.2379 133.084 70.0198 133.093 74.8245C133.142 76.1309 133.191 77.4374 133.242 78.7834C133.3 88.3157 133.3 88.3157 130.544 91.7615C129.12 92.9098 127.659 94.0139 126.161 95.0635C124.005 96.494 124.005 96.494 123.406 99.7932C123.385 100.855 123.365 101.918 123.343 103.012C122.875 108.024 122.212 110.445 118.406 113.824C115.682 115.927 114.85 116.512 111.343 116.512C107.343 112.169 107.343 112.169 107.343 109.512C108.313 108.996 109.282 108.481 110.281 107.949C113.505 105.949 113.505 105.949 113.648 103.531C113.652 102.408 113.652 102.408 113.656 101.262C113.72 98.9473 113.72 98.9473 114.343 96.512C116.342 94.8958 116.342 94.8958 118.82 93.2776C122.636 90.0602 123.923 87.7019 124.358 82.6879C124.5 78.9571 124.477 75.244 124.406 71.512C124.409 69.9586 124.416 68.4052 124.427 66.8518C124.446 63.0703 124.41 59.2929 124.343 55.512Z" fill="#AAABAC"/>
<path d="M27.3433 55.512C27.3264 56.4697 27.3096 57.4275 27.2922 58.4143C27.2412 62.0007 27.2501 65.585 27.2761 69.1716C27.2792 70.7176 27.2665 72.2637 27.2371 73.8093C26.8358 83.0297 26.8358 83.0297 30.3938 91.1926C32.7924 93.3008 32.7924 93.3008 35.3447 94.8958C37.3433 96.512 37.3433 96.512 37.9663 98.9478C38.0088 100.473 38.0333 101.998 38.0386 103.524C38.187 105.955 38.187 105.955 41.4058 108.074C42.3751 108.549 43.3445 109.023 44.3433 109.512C43.0099 112.179 41.6766 114.845 40.3433 117.512C36.0574 115.449 32.1587 113.455 29.3433 109.512C28.9208 106.466 28.8992 103.677 29.0972 100.61C28.1867 96.8688 27.4109 96.7159 24.355 94.6135C21.3297 92.171 20.4417 90.9745 19.6208 87.1162C19.4475 83.7027 19.3986 80.3708 19.52 76.959C19.5935 74.8178 19.6021 72.6836 19.6011 70.5413C19.7483 60.2925 19.7483 60.2925 22.1978 57.0791C24.3433 55.512 24.3433 55.512 27.3433 55.512Z" fill="#B0B0B1"/>
<path d="M113.343 65.512C114.41 73.9312 114.41 73.9312 111.89 77.6643C109.215 80.3225 106.483 82.419 103.343 84.512C97.2903 84.1989 92.008 82.5969 86.3433 80.512C86.0133 78.862 85.6833 77.212 85.3433 75.512C89.0078 74.0835 92.674 72.6595 96.3418 71.2395C98.2039 70.5175 100.065 69.7921 101.925 69.0667C103.092 68.6155 104.258 68.1643 105.46 67.6995C106.539 67.2805 107.618 66.8616 108.729 66.4299C111.343 65.512 111.343 65.512 113.343 65.512Z" fill="#CF2E2C"/>
<path d="M38.3433 65.512C44.8669 67.195 51.1458 69.4803 57.4058 71.9495C58.1682 72.2376 58.9306 72.5258 59.7161 72.8228C61.8784 73.6956 61.8784 73.6956 65.3433 75.512C66.0598 77.6255 66.0598 77.6255 66.3433 79.512C52.8296 84.7659 52.8296 84.7659 48.3433 84.512C45.3416 82.4888 42.8506 80.1115 40.3433 77.512C39.6833 76.852 39.0233 76.192 38.3433 75.512C38.1479 73.1292 38.1479 73.1292 38.2183 70.387C38.2363 69.4769 38.2544 68.5668 38.2729 67.6292C38.2962 66.9305 38.3194 66.2318 38.3433 65.512Z" fill="#CF2B2C"/>
<path d="M82.3433 122.512C85.7827 124.827 86.8465 126.314 88.4058 130.074C88.3433 132.512 88.3433 132.512 86.8433 134.645C83.412 137.207 80.3828 136.991 76.2808 136.824C75.2008 136.81 75.2008 136.81 74.0991 136.795C70.9444 136.728 68.3519 136.515 65.3433 135.512C63.7808 132.887 63.7808 132.887 63.3433 129.512C66.6086 121.096 74.4667 121.051 82.3433 122.512Z" fill="#ADADAD"/>
<path d="M55.3433 62.512C61.0436 64.3295 66.527 66.3792 71.9839 68.8401C77.7993 70.4961 83.3686 66.8736 88.6011 64.5706C91.3433 63.512 91.3433 63.512 94.3433 63.512C94.0133 65.822 93.6833 68.132 93.3433 70.512C91.1829 71.3615 89.0146 72.1909 86.8433 73.012C85.6367 73.476 84.4301 73.9401 83.187 74.4182C75.6263 76.5696 70.3925 75.6307 63.4058 72.5745C62.7348 72.2967 62.0639 72.0189 61.3726 71.7327C56.5334 69.7021 56.5334 69.7021 55.3433 68.512C55.3025 66.5124 55.3007 64.5115 55.3433 62.512Z" fill="#ACACAB"/>
<path d="M73.2612 77.1213C74.3401 77.1677 75.4191 77.2142 76.5307 77.262C77.6174 77.2981 78.7041 77.3342 79.8237 77.3713C81.0709 77.4409 81.0709 77.4409 82.3432 77.512C82.5688 78.1268 82.7944 78.7417 83.0268 79.3752C85.9171 84.0665 92.7852 84.807 97.8237 86.1956C101.267 86.8653 103.346 87.1395 106.386 85.2268C108.289 83.6153 108.289 83.6153 109.933 81.8596C111.343 80.512 111.343 80.512 113.343 80.512C113.266 83.2237 112.843 84.9614 110.999 86.9924C107.632 89.7251 106.227 90.547 101.699 90.3674C95.9183 89.4498 90.635 87.1212 85.2339 84.9514C76.5451 81.5779 71.4061 82.5533 62.9057 85.9495C48.7809 91.5528 48.7809 91.5528 43.9096 89.4729C43.2483 88.9495 42.5871 88.4262 41.9057 87.887C41.2264 87.3791 40.5471 86.8712 39.8471 86.3479C37.8984 83.9689 38.052 82.5064 38.3432 79.512C39.6565 80.4902 40.9688 81.4695 42.2807 82.4495C43.0116 82.9947 43.7425 83.54 44.4956 84.1018C46.3432 85.512 46.3432 85.512 47.3432 86.512C52.2085 86.8901 55.9609 85.8881 60.5307 84.262C61.7412 83.8443 62.9516 83.4267 64.1987 82.9963C67.4058 81.7952 67.4058 81.7952 68.8823 79.3557C70.3432 77.512 70.3432 77.512 73.2612 77.1213Z" fill="#B72324"/>
<path d="M78.3433 112.512C80.0153 112.817 81.6844 113.142 83.3433 113.512C83.3433 113.842 83.3433 114.172 83.3433 114.512C78.3933 114.512 73.4433 114.512 68.3433 114.512C67.6833 115.832 67.0233 117.152 66.3433 118.512C64.6766 120.179 63.0099 121.845 61.3433 123.512C60.0481 125.678 60.0481 125.678 59.3433 127.512C60.0033 127.512 60.6633 127.512 61.3433 127.512C62.1099 126.356 62.8565 125.187 63.5933 124.012C65.961 121.055 67.0176 120.555 70.8511 120.047C74.3711 120.072 77.8367 120.209 81.3433 120.512C81.3433 120.842 81.3433 121.172 81.3433 121.512C80.2566 121.498 80.2566 121.498 79.1479 121.485C73.3866 121.615 73.3866 121.615 68.2417 123.926C66.5014 125.798 65.2912 127.129 64.3433 129.512C64.6733 131.492 65.0033 133.472 65.3433 135.512C71.6133 135.842 77.8833 136.172 84.3433 136.512C84.3433 137.172 84.3433 137.832 84.3433 138.512C81.2392 138.57 78.1352 138.606 75.0308 138.637C73.7092 138.662 73.7092 138.662 72.3608 138.688C71.5133 138.694 70.6657 138.701 69.7925 138.707C68.6221 138.723 68.6221 138.723 67.428 138.739C65.3433 138.512 65.3433 138.512 62.3433 136.512C61.6766 135.179 61.0099 133.845 60.3433 132.512C57.308 130.488 56.149 130.191 52.6558 129.887C51.8475 129.812 51.0393 129.737 50.2065 129.66C49.5917 129.611 48.9768 129.562 48.3433 129.512C51.3433 127.512 51.3433 127.512 53.8433 126.324C57.1498 123.927 57.7676 121.211 59.3433 117.512C61.2808 116.824 61.2808 116.824 63.3433 116.512C63.8589 115.831 64.3745 115.151 64.9058 114.449C68.8849 111.287 73.4463 112.088 78.3433 112.512Z" fill="#0D0C0C"/>
<path d="M22.3432 22.512C23.0032 22.512 23.6632 22.512 24.3432 22.512C24.536 26.8531 24.7146 31.1946 24.8803 35.5369C24.9386 37.0133 25.0008 38.4895 25.0668 39.9656C25.1613 42.0901 25.2418 44.2149 25.3198 46.3401C25.3721 47.6179 25.4245 48.8957 25.4785 50.2122C25.3505 53.3343 25.0121 54.926 23.3432 57.512C22.6832 57.512 22.0232 57.512 21.3432 57.512C21.1443 62.0832 20.9998 66.652 20.9038 71.2266C20.8637 72.7797 20.8092 74.3326 20.7397 75.8848C20.0224 84.8698 20.0224 84.8698 23.1289 92.9128C25.2741 94.6961 25.2741 94.6961 27.5219 96.1562C29.3432 97.512 29.3432 97.512 30.2729 100.715C30.2549 101.721 30.2368 102.726 30.2182 103.762C30.1243 108.432 30.1243 108.432 32.3432 112.512C31.3532 112.512 30.3632 112.512 29.3432 112.512C26.3179 109.487 26.8014 106.003 26.4917 101.848C25.2093 98.123 24.2729 97.5218 21.3081 95.1252C17.9405 91.9618 16.8185 89.6113 16.4505 84.974C16.3626 82.1477 16.3749 79.3374 16.465 76.5112C16.5309 74.317 16.5266 72.1308 16.5131 69.9358C16.6357 59.2135 16.6356 59.2135 19.8608 56.0159C22.6528 53.6821 22.6528 53.6821 22.9108 50.0986C22.8847 48.8261 22.8585 47.5535 22.8315 46.2424C22.8244 45.5614 22.8173 44.8804 22.8101 44.1788C22.7822 42.0179 22.7195 39.8596 22.6557 37.6995C22.6306 36.2288 22.6078 34.7581 22.5874 33.2874C22.5324 29.6947 22.4462 26.1036 22.3432 22.512Z" fill="#242423"/>
<path d="M103.402 112.133C105.343 112.512 105.343 112.512 107.843 114.074C109.927 117.461 109.901 119.606 109.343 123.512C107.781 125.949 107.781 125.949 105.343 127.512C101.403 128.075 99.2854 128.116 95.9058 125.949C93.7545 122.593 93.8538 120.428 94.3433 116.512C96.1512 112.105 98.8092 111.871 103.402 112.133Z" fill="#BE2C2B"/>
<path d="M53.3433 112.512C55.7808 113.449 55.7808 113.449 57.3433 115.512C57.9033 118.612 57.9033 121.412 57.3433 124.512C55.0946 127.48 53.5269 127.486 49.8433 128.012C46.3433 127.512 46.3433 127.512 43.9058 125.387C42.0749 122.018 41.7008 120.287 42.3433 116.512C45.297 112.022 48.1999 111.869 53.3433 112.512Z" fill="#CC2B2D"/>
<path d="M55.3433 32.512C55.6733 32.512 56.0033 32.512 56.3433 32.512C56.6733 41.422 57.0033 50.332 57.3433 59.512C60.0451 60.6876 62.747 61.8632 65.5308 63.0745C66.3728 63.449 67.2148 63.8236 68.0823 64.2095C73.586 66.5509 73.586 66.5509 79.3433 65.512C79.9321 65.2947 80.521 65.0774 81.1277 64.8535C83.1531 64.0865 85.1535 63.2751 87.1558 62.4495C89.5276 61.4801 91.8995 60.5107 94.3433 59.512C94.6733 51.592 95.0033 43.672 95.3433 35.512C95.6733 35.512 96.0033 35.512 96.3433 35.512C96.8383 44.422 96.8383 44.422 97.3433 53.512C97.6733 53.512 98.0033 53.512 98.3433 53.512C98.6558 56.8245 98.6558 56.8245 98.3433 60.512C94.4318 63.4096 89.7748 65.2751 85.3433 67.262C84.2953 67.755 84.2953 67.755 83.2261 68.2581C77.1417 70.9788 74.0573 70.1688 67.9175 67.8831C66.2866 67.2435 64.6581 66.598 63.0308 65.9495C60.1639 64.8151 57.297 63.6807 54.3433 62.512C54.6733 52.612 55.0033 42.712 55.3433 32.512Z" fill="#171716"/>
<path d="M132.343 60.512C133.003 60.512 133.663 60.512 134.343 60.512C134.543 64.6373 134.687 68.7608 134.783 72.8899C134.823 74.2908 134.877 75.6913 134.947 77.0911C135.517 88.8523 135.517 88.8523 132.555 93.0396C131.131 94.3641 129.665 95.6461 128.156 96.8738C126.021 98.4982 126.021 98.4982 125.511 101.821C125.518 102.853 125.524 103.886 125.531 104.949C125.146 109.252 124.785 111.02 121.863 114.278C119.097 116.496 116.282 118.53 113.343 120.512C112.683 121.172 112.023 121.832 111.343 122.512C110.218 118.762 110.218 118.762 111.343 116.512C113.002 115.498 114.67 114.501 116.343 113.512C120.386 110.9 120.386 110.9 121.988 106.524C122.099 104.316 122.204 102.107 122.3 99.8987C123.493 96.0258 124.181 95.747 127.355 93.5276C130.305 91.1548 131.235 89.9832 132.093 86.2417C132.353 82.3411 132.403 78.4797 132.343 74.5745C132.351 73.2092 132.363 71.844 132.378 70.4788C132.402 67.155 132.389 63.8354 132.343 60.512Z" fill="#0E0F0E"/>
<path d="M75.2808 23.262C76.2057 23.2542 77.1306 23.2465 78.0835 23.2385C84.3842 23.2562 90.2172 24.0518 96.3433 25.512C96.3433 27.162 96.3433 28.812 96.3433 30.512C95.3566 30.2987 95.3566 30.2987 94.3501 30.0811C87.353 28.6744 80.7181 28.2348 73.5933 28.3245C72.6046 28.3251 71.6158 28.3258 70.5972 28.3264C65.4115 28.3576 60.4529 28.6199 55.3433 29.512C55.3433 28.192 55.3433 26.872 55.3433 25.512C62.1176 23.7646 68.2987 23.2038 75.2808 23.262Z" fill="#F9F9F9"/>
<path d="M76.2183 114.699C77.2751 114.708 77.2751 114.708 78.3533 114.716C83.0935 114.959 85.8643 115.926 89.2808 119.199C91.8565 122.205 92.802 124.6 93.3433 128.512C92.3533 128.842 91.3633 129.172 90.3433 129.512C89.7451 128.584 89.147 127.656 88.5308 126.699C86.2746 123.233 86.2746 123.233 83.3433 120.512C77.5135 119.506 70.8127 118.771 65.8003 122.305C64.0902 124.297 62.6484 126.237 61.3433 128.512C60.3533 128.182 59.3633 127.852 58.3433 127.512C62.4735 119.41 66.608 114.539 76.2183 114.699Z" fill="#676868"/>
<path d="M40.3433 45.512C41.0033 45.842 41.6633 46.172 42.3433 46.512C42.7539 48.2778 42.7539 48.2778 42.9761 50.5471C43.0599 51.356 43.1437 52.1649 43.23 52.9983C43.3086 53.8484 43.3872 54.6986 43.4683 55.5745C43.5546 56.4285 43.641 57.2825 43.73 58.1624C43.9427 60.2781 44.1441 62.3949 44.3433 64.512C45.1747 64.7775 46.0062 65.0431 46.8628 65.3167C48.4928 65.8465 48.4928 65.8465 50.1558 66.387C51.2347 66.735 52.3137 67.0831 53.4253 67.4417C56.3433 68.512 56.3433 68.512 59.3433 70.512C59.3433 71.172 59.3433 71.832 59.3433 72.512C54.3185 71.8937 50.0961 70.3822 45.4683 68.4495C44.7799 68.1678 44.0915 67.8861 43.3823 67.5959C41.7004 66.9068 40.0215 66.2102 38.3433 65.512C38.6733 69.802 39.0033 74.092 39.3433 78.512C38.6833 78.512 38.0233 78.512 37.3433 78.512C37.3433 80.162 37.3433 81.812 37.3433 83.512C37.0133 83.512 36.6833 83.512 36.3433 83.512C36.3433 76.252 36.3433 68.992 36.3433 61.512C37.6633 61.842 38.9833 62.172 40.3433 62.512C40.3433 56.902 40.3433 51.292 40.3433 45.512Z" fill="#0A0807"/>
<path d="M37.3433 22.512C38.0033 22.842 38.6633 23.172 39.3433 23.512C38.6833 24.172 38.0233 24.832 37.3433 25.512C37.6618 27.6202 37.6618 27.6202 38.3433 29.512C37.3533 29.512 36.3633 29.512 35.3433 29.512C30.9154 35.4725 31.1007 42.199 30.7378 49.3362C30.4465 54.4087 30.4465 54.4087 29.3433 55.512C29.1835 57.9581 29.084 60.3793 29.0269 62.8284C29.0061 63.5594 28.9853 64.2905 28.9639 65.0437C28.8983 67.3872 28.8395 69.7308 28.7808 72.0745C28.7376 73.6598 28.694 75.245 28.6499 76.8303C28.5426 80.7241 28.4414 84.618 28.3433 88.512C28.0133 88.512 27.6833 88.512 27.3433 88.512C27.3433 77.622 27.3433 66.732 27.3433 55.512C26.6833 55.512 26.0233 55.512 25.3433 55.512C25.6733 54.522 26.0033 53.532 26.3433 52.512C26.5331 50.4263 26.7205 48.3403 26.8877 46.2527C28.0771 32.2025 28.0771 32.2025 33.3433 26.512C34.1064 25.687 34.8695 24.862 35.6558 24.012C36.2126 23.517 36.7695 23.022 37.3433 22.512Z" fill="#262726"/>
<path d="M110.031 98.262C110.794 98.3445 111.557 98.427 112.343 98.512C112.546 102.157 112.191 104.361 110.343 107.512C110.013 108.172 109.683 108.832 109.343 109.512C108.683 109.512 108.023 109.512 107.343 109.512C107.673 110.832 108.003 112.152 108.343 113.512C103.393 113.512 98.4433 113.512 93.3433 113.512C97.3433 109.512 97.3433 109.512 101.093 109.262C102.166 109.344 103.238 109.427 104.343 109.512C104.281 108.439 104.22 107.367 104.156 106.262C104.343 102.512 104.343 102.512 105.531 100.074C107.343 98.512 107.343 98.512 110.031 98.262Z" fill="#1F1B17"/>
<path d="M94.3433 15.512C102.093 16.387 102.093 16.387 104.343 17.512C104.343 18.172 104.343 18.832 104.343 19.512C102.693 19.512 101.043 19.512 99.3433 19.512C99.3549 20.3743 99.3665 21.2367 99.3784 22.1252C99.4338 29.624 99.2904 37.0846 98.9058 44.5745C98.8665 45.3709 98.8273 46.1673 98.7869 46.9878C98.5533 51.228 98.1393 55.3313 97.3433 59.512C97.0133 59.512 96.6833 59.512 96.3433 59.512C96.3182 55.4592 96.3002 51.4065 96.2883 47.3538C96.2834 45.9807 96.2766 44.6077 96.2678 43.2346C96.2142 34.6018 96.4453 26.1009 97.3433 17.512C96.3533 17.182 95.3633 16.852 94.3433 16.512C94.3433 16.182 94.3433 15.852 94.3433 15.512Z" fill="#0C0A08"/>
<path d="M29.3432 54.512C29.6732 54.512 30.0032 54.512 30.3432 54.512C30.3316 55.475 30.32 56.438 30.3081 57.4302C30.2754 61.0296 30.2955 64.6272 30.331 68.2266C30.3391 69.7793 30.3332 71.3322 30.3125 72.8848C29.9229 81.948 29.9229 81.948 33.1909 90.0623C35.3346 91.9683 35.3346 91.9683 37.6284 93.3809C38.1943 93.7541 38.7602 94.1274 39.3432 94.512C39.3432 95.172 39.3432 95.832 39.3432 96.512C35.4773 95.6891 32.7585 94.5453 29.7964 91.8972C26.3876 86.3018 27.6227 78.546 27.8432 72.1995C27.8698 70.5973 27.8933 68.9951 27.9136 67.3928C28.1143 55.7409 28.1143 55.7409 29.3432 54.512Z" fill="#0C0C0B"/>
<path d="M84.3433 75.512C84.6584 76.4324 84.6584 76.4324 84.98 77.3713C86.8907 80.3716 88.7999 80.7192 92.1558 81.762C93.1935 82.0971 94.2312 82.4323 95.3003 82.7776C98.1871 83.4743 100.399 83.8501 103.343 83.512C105.114 82.4748 105.114 82.4748 106.531 81.012C109.343 78.512 109.343 78.512 111.343 78.512C111.104 81.747 110.046 82.8462 107.843 85.3245C105.199 87.3597 103.477 87.8368 100.156 87.5745C94.1642 86.5147 86.721 84.8897 82.3433 80.512C82.3433 79.192 82.3433 77.872 82.3433 76.512C83.0033 76.182 83.6633 75.852 84.3433 75.512Z" fill="#130A07"/>
<path d="M46.3433 19.512C46.3433 20.172 46.3433 20.832 46.3433 21.512C43.8433 23.137 43.8433 23.137 41.3433 24.512C41.9648 31.874 41.9648 31.874 42.9058 39.1995C43.8077 45.8937 43.4169 52.7731 43.3433 59.512C43.0133 59.512 42.6833 59.512 42.3433 59.512C42.2698 58.1565 42.2698 58.1565 42.1948 56.7737C42.1201 55.5942 42.0453 54.4147 41.9683 53.1995C41.8638 51.4418 41.8638 51.4418 41.7573 49.6487C41.5571 46.355 41.5571 46.355 39.3433 43.512C39.0244 41.6108 39.0244 41.6108 38.9292 39.5002C38.8712 38.3643 38.8712 38.3643 38.812 37.2053C38.7656 36.0268 38.7656 36.0268 38.7183 34.8245C38.6603 33.6285 38.6603 33.6285 38.6011 32.4084C38.5069 30.4433 38.424 28.4777 38.3433 26.512C37.6833 26.182 37.0233 25.852 36.3433 25.512C40.9586 19.512 40.9586 19.512 46.3433 19.512Z" fill="#0E0907"/>
<path d="M78.3433 112.512C80.0153 112.817 81.6844 113.142 83.3433 113.512C83.3433 113.842 83.3433 114.172 83.3433 114.512C78.3933 114.512 73.4433 114.512 68.3433 114.512C67.6833 115.832 67.0233 117.152 66.3433 118.512C64.721 120.222 63.0491 121.885 61.3433 123.512C60.4564 124.419 59.5695 125.327 58.6558 126.262C55.8296 129.012 55.1638 129.496 51.2183 129.574C50.2695 129.554 49.3208 129.533 48.3433 129.512C51.3433 127.512 51.3433 127.512 53.8433 126.324C57.1498 123.927 57.7676 121.211 59.3433 117.512C61.2808 116.824 61.2808 116.824 63.3433 116.512C63.8589 115.831 64.3745 115.151 64.9058 114.449C68.8849 111.287 73.4463 112.088 78.3433 112.512Z" fill="#060706"/>
<path d="M101.218 112.137C104.196 112.229 105.239 112.447 107.843 114.074C109.848 117.332 109.632 119.76 109.343 123.512C108.023 123.842 106.703 124.172 105.343 124.512C104.112 122.049 104.272 120.232 104.343 117.512C103.023 117.182 101.703 116.852 100.343 116.512C99.0233 118.162 97.7033 119.812 96.3433 121.512C95.7183 118.137 95.7183 118.137 95.3433 114.512C97.3433 112.512 97.3433 112.512 101.218 112.137Z" fill="#CA322E"/>
<path d="M68.3433 119.512C81.4291 118.299 81.4291 118.299 85.9331 121.153C87.8195 123.236 89.2465 124.921 90.3433 127.512C89.9995 129.778 89.9995 129.778 89.3433 131.512C90.3333 131.842 91.3233 132.172 92.3433 132.512C88.73 137.199 88.73 137.199 87.3433 138.512C86.3533 138.512 85.3633 138.512 84.3433 138.512C84.3433 137.522 84.3433 136.532 84.3433 135.512C84.8589 135.058 85.3745 134.604 85.9058 134.137C87.6218 132.569 87.6218 132.569 87.2808 130.074C86.1318 126.934 84.9445 125.61 82.3433 123.512C79.3734 122.928 79.3734 122.928 76.2183 122.949C73.0229 122.883 73.0229 122.883 70.3433 122.512C69.6833 121.522 69.0233 120.532 68.3433 119.512Z" fill="#171716"/>
<path d="M132.343 60.512C133.003 60.512 133.663 60.512 134.343 60.512C134.442 64.7111 134.515 68.9096 134.563 73.1096C134.583 74.5375 134.61 75.9652 134.645 77.3928C134.694 79.4484 134.716 81.5028 134.734 83.5588C134.755 84.7947 134.776 86.0306 134.797 87.304C134.266 91.0602 133.267 92.1956 130.343 94.512C129.683 94.182 129.023 93.852 128.343 93.512C128.828 92.9909 129.312 92.4698 129.811 91.9329C131.82 88.7584 131.773 86.5194 131.855 82.7776C131.89 81.4821 131.926 80.1866 131.962 78.8518C131.986 77.4885 132.008 76.1252 132.031 74.762C132.064 73.383 132.098 72.0041 132.134 70.6252C132.217 67.2542 132.286 63.8835 132.343 60.512Z" fill="#070707"/>
<path d="M64.3433 12.512C67.8224 12.4531 71.3013 12.4181 74.7808 12.387C75.7546 12.3702 76.7285 12.3534 77.7319 12.3362C83.9317 12.2947 89.3433 12.936 95.3433 14.512C95.3433 15.502 95.3433 16.492 95.3433 17.512C86.7633 16.852 78.1833 16.192 69.3433 15.512C69.3433 15.182 69.3433 14.852 69.3433 14.512C67.6933 14.182 66.0433 13.852 64.3433 13.512C64.3433 13.182 64.3433 12.852 64.3433 12.512Z" fill="#1D1D1D"/>
<path d="M39.3433 95.512C43.1758 96.7895 45.0723 99.2678 47.3433 102.512C47.3433 103.172 47.3433 103.832 47.3433 104.512C46.6833 104.512 46.0233 104.512 45.3433 104.512C45.0133 105.502 44.6833 106.492 44.3433 107.512C41.5594 105.806 40.4894 105.036 39.5933 101.824C39.5108 101.061 39.4283 100.298 39.3433 99.512C39.0133 101.492 38.6833 103.472 38.3433 105.512C38.0133 105.512 37.6833 105.512 37.3433 105.512C37.3433 102.542 37.3433 99.572 37.3433 96.512C38.0033 96.182 38.6633 95.852 39.3433 95.512Z" fill="#272726"/>
<path d="M38.3433 79.512C39.6565 80.4902 40.9688 81.4695 42.2808 82.4495C43.0117 82.9947 43.7426 83.54 44.4956 84.1018C46.3433 85.512 46.3433 85.512 47.3433 86.512C49.0294 86.584 50.7183 86.5958 52.4058 86.5745C53.3249 86.5654 54.244 86.5564 55.1909 86.5471C55.9012 86.5355 56.6115 86.5239 57.3433 86.512C56.3433 88.512 56.3433 88.512 53.5933 89.6995C49.4154 90.7439 47.2584 90.5497 43.4761 88.5002C39.772 86.1424 39.772 86.1424 38.3433 84.512C38.144 81.8401 38.144 81.8401 38.3433 79.512Z" fill="#D4292B"/>
<path d="M47.3433 104.512C47.6733 104.512 48.0033 104.512 48.3433 104.512C48.3433 106.162 48.3433 107.812 48.3433 109.512C49.6736 109.388 49.6736 109.388 51.0308 109.262C55.1033 109.569 56.5263 110.615 59.3433 113.512C60.699 116.314 60.4218 117.281 59.4058 120.262C59.0551 121.004 58.7045 121.747 58.3433 122.512C58.0133 122.512 57.6833 122.512 57.3433 122.512C57.2401 121.398 57.137 120.284 57.0308 119.137C56.8039 117.941 56.577 116.744 56.3433 115.512C53.0586 113.322 50.1363 112.514 46.3433 111.512C46.6733 109.202 47.0033 106.892 47.3433 104.512Z" fill="#29211E"/>
<path d="M45.3432 115.512C45.6732 115.512 46.0032 115.512 46.3432 115.512C46.5289 116.626 46.7145 117.739 46.9057 118.887C47.3801 120.083 47.8545 121.279 48.3432 122.512C51.8573 124.053 51.8573 124.053 55.3432 124.512C55.3432 125.172 55.3432 125.832 55.3432 126.512C52.2934 128.037 49.7009 127.748 46.3432 127.512C44.4057 126.387 44.4057 126.387 43.3432 124.512C42.9185 120.434 43.0304 118.981 45.3432 115.512Z" fill="#DC3331"/>
<path d="M117.578 91.8284C118.16 92.054 118.743 92.2796 119.343 92.512C118.704 92.9864 118.065 93.4607 117.406 93.9495C114.495 97.5662 114.537 100.984 114.343 105.512C112.693 106.172 111.043 106.832 109.343 107.512C110.333 104.542 111.323 101.572 112.343 98.512C111.023 98.182 109.703 97.852 108.343 97.512C109.412 96.4761 110.499 95.4587 111.593 94.4495C112.197 93.881 112.8 93.3125 113.421 92.7268C115.343 91.512 115.343 91.512 117.578 91.8284Z" fill="#0E0F0E"/>
<path d="M110.031 98.262C110.794 98.3445 111.557 98.427 112.343 98.512C112.718 100.762 112.718 100.762 112.343 103.512C109.468 105.699 109.468 105.699 106.343 107.512C105.683 108.172 105.023 108.832 104.343 109.512C103.982 103.253 103.982 103.253 105.531 100.074C107.343 98.512 107.343 98.512 110.031 98.262Z" fill="#20211F"/>
<path d="M42.3433 64.512C44.9878 64.8674 44.9878 64.8674 48.1558 65.6995C49.7123 66.092 49.7123 66.092 51.3003 66.4924C54.3347 67.5091 56.7425 68.6515 59.3433 70.512C59.3433 71.172 59.3433 71.832 59.3433 72.512C54.7391 71.9032 50.7784 70.6647 46.4683 68.9495C45.3158 68.4944 44.1634 68.0394 42.9761 67.5706C42.1072 67.2212 41.2384 66.8719 40.3433 66.512C41.0033 65.852 41.6633 65.192 42.3433 64.512Z" fill="#1A0E09"/>
<path d="M100.343 115.512C103.879 116.048 103.879 116.048 105.343 117.512C105.468 120.012 105.468 120.012 105.343 122.512C104.343 123.512 104.343 123.512 101.843 123.637C99.3433 123.512 99.3433 123.512 98.3433 122.512C98.1558 120.074 98.1558 120.074 98.3433 117.512C99.0033 116.852 99.6633 116.192 100.343 115.512Z" fill="#461C16"/>
<path d="M89.3433 71.512C89.6733 72.502 90.0033 73.492 90.3433 74.512C83.7932 77.209 78.4584 79.049 71.3433 78.512C73.9746 75.2204 76.9402 74.4809 80.9058 73.3245C82.0621 72.9803 83.2183 72.6361 84.4097 72.2815C87.3433 71.512 87.3433 71.512 89.3433 71.512Z" fill="#191614"/>
<path d="M69.3433 79.512C72.072 79.5448 74.6399 80.0759 77.3433 80.512C77.3433 80.842 77.3433 81.172 77.3433 81.512C67.3433 84.512 67.3433 84.512 57.3433 87.512C56.6833 86.852 56.0233 86.192 55.3433 85.512C56.1863 85.2464 57.0294 84.9809 57.8979 84.7073C58.9937 84.3541 60.0894 84.0009 61.2183 83.637C62.3088 83.2889 63.3994 82.9409 64.5229 82.5823C67.4285 81.7002 67.4285 81.7002 69.3433 79.512Z" fill="#BC1D1F"/>
<path d="M55.3433 32.512C55.6733 32.512 56.0033 32.512 56.3433 32.512C56.6733 41.422 57.0033 50.332 57.3433 59.512C58.6633 60.172 59.9833 60.832 61.3433 61.512C61.3433 62.172 61.3433 62.832 61.3433 63.512C59.0333 63.182 56.7233 62.852 54.3433 62.512C54.6733 52.612 55.0033 42.712 55.3433 32.512Z" fill="#323030"/>
<path d="M95.3433 35.512C95.6733 35.512 96.0033 35.512 96.3433 35.512C96.6733 41.452 97.0033 47.392 97.3433 53.512C97.6733 53.512 98.0033 53.512 98.3433 53.512C98.6558 56.8245 98.6558 56.8245 98.3433 60.512C95.8433 62.4495 95.8433 62.4495 93.3433 63.512C93.3433 60.512 93.3433 60.512 94.3433 59.512C94.5009 57.7333 94.5943 55.9488 94.6597 54.1643C94.7016 53.0847 94.7435 52.0051 94.7866 50.8928C94.8259 49.7565 94.8653 48.6202 94.9058 47.4495C94.9489 46.3093 94.9921 45.1691 95.0366 43.9944C95.1431 41.167 95.2451 38.3396 95.3433 35.512Z" fill="#3A2F2D"/>
<path d="M113.343 80.512C113.281 82.6995 113.281 82.6995 112.343 85.512C109.776 87.8982 106.954 90.512 103.343 90.512C103.905 86.9748 105.039 85.5193 107.781 83.262C108.398 82.7412 109.016 82.2204 109.652 81.6838C111.343 80.512 111.343 80.512 113.343 80.512Z" fill="#D43631"/>
<path d="M41.3433 35.512C41.6733 35.512 42.0033 35.512 42.3433 35.512C43.6724 43.4869 43.4313 51.4538 43.3433 59.512C43.0133 59.512 42.6833 59.512 42.3433 59.512C42.2698 58.1565 42.2698 58.1565 42.1948 56.7737C42.1201 55.5942 42.0453 54.4147 41.9683 53.1995C41.8987 52.0277 41.829 50.8559 41.7573 49.6487C41.5571 46.355 41.5571 46.355 39.3433 43.512C39.2183 40.8245 39.2183 40.8245 39.3433 38.512C40.0033 38.512 40.6633 38.512 41.3433 38.512C41.3433 37.522 41.3433 36.532 41.3433 35.512Z" fill="#351513"/>
<path d="M104.343 114.512C106.818 115.502 106.818 115.502 109.343 116.512C109.343 118.822 109.343 121.132 109.343 123.512C108.023 123.842 106.703 124.172 105.343 124.512C103.736 121.297 104.286 118.076 104.343 114.512Z" fill="#CF3933"/>
<path d="M84.3433 75.512C84.6217 76.4401 84.6217 76.4401 84.9058 77.387C87.0576 80.568 89.7186 80.7065 93.3433 81.512C92.3533 82.007 92.3533 82.007 91.3433 82.512C91.3433 83.172 91.3433 83.832 91.3433 84.512C84.5933 82.762 84.5933 82.762 82.3433 80.512C82.3433 79.192 82.3433 77.872 82.3433 76.512C83.0033 76.182 83.6633 75.852 84.3433 75.512Z" fill="#1E0F0B"/>
<path d="M97.3433 60.512C98.3433 63.512 98.3433 63.512 98.3433 66.512C99.3333 66.842 100.323 67.172 101.343 67.512C98.4373 68.7686 96.5472 69.512 93.3433 69.512C93.3433 67.202 93.3433 64.892 93.3433 62.512C94.6633 61.852 95.9833 61.192 97.3433 60.512Z" fill="#C02E2F"/>
<path d="M123.343 73.512C123.673 73.512 124.003 73.512 124.343 73.512C124.479 75.9305 124.577 78.3415 124.656 80.762C124.719 81.7848 124.719 81.7848 124.783 82.8284C124.832 84.8401 124.832 84.8401 124.343 88.512C121.824 90.9963 121.824 90.9963 119.343 92.512C118.353 91.852 117.363 91.192 116.343 90.512C121.093 86.512 121.093 86.512 123.343 86.512C123.343 82.222 123.343 77.932 123.343 73.512Z" fill="#1D1D1C"/>
<path d="M53.3433 18.512C53.6733 18.512 54.0033 18.512 54.3433 18.512C55.4455 22.9211 55.4198 26.9958 55.3433 31.512C54.3533 31.842 53.3633 32.172 52.3433 32.512C52.3164 30.3662 52.2969 28.2203 52.2808 26.0745C52.2692 24.8795 52.2576 23.6845 52.2456 22.4534C52.3433 19.512 52.3433 19.512 53.3433 18.512Z" fill="#1F1916"/>
<path d="M48.3433 116.512C50.0187 116.798 51.6871 117.13 53.3433 117.512C53.0133 118.502 52.6833 119.492 52.3433 120.512C52.3433 119.852 52.3433 119.192 52.3433 118.512C51.3533 119.502 50.3633 120.492 49.3433 121.512C50.6633 121.842 51.9833 122.172 53.3433 122.512C50.9683 123.137 50.9683 123.137 48.3433 123.512C47.6833 122.852 47.0233 122.192 46.3433 121.512C46.879 117.976 46.879 117.976 48.3433 116.512Z" fill="#100E08"/>
<path d="M50.3433 89.5119C52.3433 90.5119 52.3433 90.5119 53.3433 92.5119C51.0333 93.1719 48.7233 93.8319 46.3433 94.5119C44.6933 92.8619 43.0433 91.2119 41.3433 89.5119C44.8518 88.3424 46.7705 88.7518 50.3433 89.5119Z" fill="#1F1311"/>
<path d="M59.3433 70.512C62.3133 71.502 65.2833 72.492 68.3433 73.512C68.0133 75.162 67.6833 76.812 67.3433 78.512C62.8433 75.512 62.8433 75.512 58.3433 72.512C58.6733 71.852 59.0033 71.192 59.3433 70.512Z" fill="#261813"/>
<path d="M132.343 94.512C131.284 97.9151 130.334 100.525 128.343 103.512C127.683 103.512 127.023 103.512 126.343 103.512C125.978 98.0337 125.978 98.0337 127.656 95.637C129.343 94.512 129.343 94.512 132.343 94.512Z" fill="#979898"/>
<path d="M112.343 84.512C113.333 84.842 114.323 85.172 115.343 85.512C112.518 88.4417 109.555 91.0137 106.343 93.512C106.013 92.852 105.683 92.192 105.343 91.512C106.692 87.4655 108.692 86.5569 112.343 84.512Z" fill="#100D0B"/>
<path d="M117.343 112.512C118.003 112.842 118.663 113.172 119.343 113.512C117.76 117.786 114.838 119.777 111.343 122.512C110.218 118.762 110.218 118.762 111.343 116.512C112.991 115.482 114.658 114.481 116.343 113.512C116.673 113.182 117.003 112.852 117.343 112.512Z" fill="#1C1C1A"/>
<path d="M54.3433 111.512C56.2183 111.699 56.2183 111.699 58.3433 112.512C59.7183 114.762 59.7183 114.762 60.3433 117.512C59.4683 120.324 59.4683 120.324 58.3433 122.512C58.0133 122.512 57.6833 122.512 57.3433 122.512C57.2195 121.439 57.0958 120.367 56.9683 119.262C56.4468 116.133 55.9424 114.177 54.3433 111.512Z" fill="#211312"/>
<path d="M114.343 86.512C115.663 87.172 116.983 87.832 118.343 88.512C118.343 89.172 118.343 89.832 118.343 90.512C116.531 92.1995 116.531 92.1995 114.343 93.512C113.353 93.182 112.363 92.852 111.343 92.512C111.343 91.852 111.343 91.192 111.343 90.512C112.003 90.512 112.663 90.512 113.343 90.512C113.673 89.192 114.003 87.872 114.343 86.512Z" fill="#B4B4B5"/>
<path d="M108.343 53.512C108.673 53.512 109.003 53.512 109.343 53.512C109.343 57.472 109.343 61.432 109.343 65.512C110.003 65.842 110.663 66.172 111.343 66.512C109.033 67.172 106.723 67.832 104.343 68.512C104.343 67.522 104.343 66.532 104.343 65.512C105.663 65.182 106.983 64.852 108.343 64.512C108.343 60.882 108.343 57.252 108.343 53.512Z" fill="#411511"/>
<path d="M50.3433 118.512C51.6633 118.512 52.9833 118.512 54.3433 118.512C54.3433 119.832 54.3433 121.152 54.3433 122.512C55.3333 122.842 56.3233 123.172 57.3433 123.512C56.6833 124.172 56.0233 124.832 55.3433 125.512C52.2183 125.137 52.2183 125.137 49.3433 124.512C50.3333 123.852 51.3233 123.192 52.3433 122.512C51.3533 122.182 50.3633 121.852 49.3433 121.512C49.6733 120.522 50.0033 119.532 50.3433 118.512Z" fill="#A0282B"/>
<path d="M113.343 65.512C113.673 65.512 114.003 65.512 114.343 65.512C114.343 71.452 114.343 77.392 114.343 83.512C114.013 82.522 113.683 81.532 113.343 80.512C112.683 80.512 112.023 80.512 111.343 80.512C111.013 79.522 110.683 78.532 110.343 77.512C111.003 76.852 111.663 76.192 112.343 75.512C112.805 73.0794 112.805 73.0794 112.968 70.387C113.043 69.4769 113.118 68.5668 113.195 67.6292C113.244 66.9305 113.293 66.2318 113.343 65.512Z" fill="#311211"/>
<path d="M113.343 96.512C113.673 96.512 114.003 96.512 114.343 96.512C114.343 99.482 114.343 102.452 114.343 105.512C112.693 106.172 111.043 106.832 109.343 107.512C109.821 106.053 110.3 104.595 110.781 103.137C111.048 102.325 111.314 101.513 111.589 100.676C112.343 98.512 112.343 98.512 113.343 96.512Z" fill="#070706"/>
<path d="M21.3433 95.512C25.2183 97.387 25.2183 97.387 26.3433 98.512C26.3842 100.845 26.3857 103.179 26.3433 105.512C24.3433 104.512 24.3433 104.512 23.4917 102.446C23.2365 101.622 22.9812 100.798 22.7183 99.9495C22.4579 99.1232 22.1975 98.2969 21.9292 97.4456C21.7358 96.8075 21.5425 96.1694 21.3433 95.512Z" fill="#939494"/>
<path d="M28.3433 101.512C28.6733 101.512 29.0033 101.512 29.3433 101.512C29.5386 103.498 29.7339 105.483 29.9292 107.469C30.2699 109.812 30.2699 109.812 32.3433 112.512C31.3533 112.512 30.3633 112.512 29.3433 112.512C27.3433 110.512 27.3433 110.512 27.1558 107.012C27.3433 103.512 27.3433 103.512 28.3433 101.512Z" fill="#060606"/>
<path d="M84.3433 114.512C87.3433 114.512 87.3433 114.512 88.9058 116.012C89.3801 116.507 89.8545 117.002 90.3433 117.512C91.0033 117.512 91.6633 117.512 92.3433 117.512C92.3433 118.172 92.3433 118.832 92.3433 119.512C91.6833 119.512 91.0233 119.512 90.3433 119.512C90.0133 120.172 89.6833 120.832 89.3433 121.512C87.6344 119.889 85.9688 118.219 84.3433 116.512C84.3433 115.852 84.3433 115.192 84.3433 114.512Z" fill="#141413"/>
<path d="M36.3433 83.512C39.7092 84.9545 41.8537 86.8446 44.3433 89.512C40.9686 88.9647 39.2609 88.4571 36.3433 86.512C36.3433 85.522 36.3433 84.532 36.3433 83.512Z" fill="#13100E"/>
<path d="M81.3433 74.512C81.6733 75.502 82.0033 76.492 82.3433 77.512C79.5925 78.4289 77.9838 78.6208 75.1558 78.5745C73.2686 78.5435 73.2686 78.5435 71.3433 78.512C74.1598 75.1024 77.0169 74.512 81.3433 74.512Z" fill="#442522"/>
<path d="M22.3433 53.512C23.0033 53.842 23.6633 54.172 24.3433 54.512C24.0133 55.502 23.6833 56.492 23.3433 57.512C22.6833 57.512 22.0233 57.512 21.3433 57.512C21.0133 58.502 20.6833 59.492 20.3433 60.512C19.3533 60.512 18.3633 60.512 17.3433 60.512C18.6363 57.6276 20.0027 55.6398 22.3433 53.512Z" fill="#111111"/>
<path d="M70.3433 77.512C73.3133 77.842 76.2833 78.172 79.3433 78.512C79.6733 79.502 80.0033 80.492 80.3433 81.512C77.3733 81.182 74.4033 80.852 71.3433 80.512C71.0133 79.522 70.6833 78.532 70.3433 77.512Z" fill="#DD2F29"/>
<path d="M27.3433 22.512C27.6733 22.512 28.0033 22.512 28.3433 22.512C28.3433 25.152 28.3433 27.792 28.3433 30.512C29.0033 30.512 29.6633 30.512 30.3433 30.512C29.6833 32.822 29.0233 35.132 28.3433 37.512C28.0133 37.512 27.6833 37.512 27.3433 37.512C27.3433 32.562 27.3433 27.612 27.3433 22.512Z" fill="#7A7B7D"/>
<path d="M61.3433 122.512C62.3333 122.512 63.3233 122.512 64.3433 122.512C63.6833 124.162 63.0233 125.812 62.3433 127.512C61.0233 127.512 59.7033 127.512 58.3433 127.512C59.6558 125.012 59.6558 125.012 61.3433 122.512Z" fill="#616162"/>
<path d="M98.3433 117.512C99.9933 117.512 101.643 117.512 103.343 117.512C102.353 117.842 101.363 118.172 100.343 118.512C100.61 120.497 100.61 120.497 101.343 122.512C102.333 122.842 103.323 123.172 104.343 123.512C102.677 123.555 101.009 123.553 99.3433 123.512C98.3433 122.512 98.3433 122.512 98.2808 119.949C98.3014 119.145 98.322 118.341 98.3433 117.512Z" fill="#1F0F07"/>
<path d="M73.5308 79.8245C74.7889 80.0513 76.047 80.2782 77.3433 80.512C77.3433 80.842 77.3433 81.172 77.3433 81.512C69.9147 83.9405 69.9147 83.9405 66.3433 82.512C68.3797 79.3301 70.0336 79.3664 73.5308 79.8245Z" fill="#C52420"/>
<path d="M79.3433 77.512C80.3333 77.512 81.3233 77.512 82.3433 77.512C83.0033 79.162 83.6633 80.812 84.3433 82.512C83.3533 82.842 82.3633 83.172 81.3433 83.512C80.3533 82.852 79.3633 82.192 78.3433 81.512C78.6733 80.192 79.0033 78.872 79.3433 77.512Z" fill="#C22A26"/>
<path d="M88.3433 13.512C90.6533 13.842 92.9633 14.172 95.3433 14.512C95.3433 15.502 95.3433 16.492 95.3433 17.512C92.3733 17.182 89.4033 16.852 86.3433 16.512C87.0033 15.522 87.6633 14.532 88.3433 13.512Z" fill="#222020"/>
<path d="M64.3433 133.512C64.6733 134.172 65.0033 134.832 65.3433 135.512C66.1683 135.677 66.9933 135.842 67.8433 136.012C68.6683 136.177 69.4933 136.342 70.3433 136.512C70.6733 137.172 71.0033 137.832 71.3433 138.512C68.4683 138.637 68.4683 138.637 65.3433 138.512C64.6833 137.852 64.0233 137.192 63.3433 136.512C63.6733 135.522 64.0033 134.532 64.3433 133.512Z" fill="#1B1919"/>
<path d="M40.3433 99.512C43.142 102.04 44.801 103.716 45.3433 107.512C42.8433 106.324 42.8433 106.324 40.3433 104.512C40.0308 101.824 40.0308 101.824 40.3433 99.512Z" fill="#979899"/>
<path d="M98.3433 84.512C100.983 84.512 103.623 84.512 106.343 84.512C105.353 85.997 105.353 85.997 104.343 87.512C101.373 87.017 101.373 87.017 98.3433 86.512C98.3433 85.852 98.3433 85.192 98.3433 84.512Z" fill="#050403"/>
<path d="M110.343 99.512C110.673 99.512 111.003 99.512 111.343 99.512C111.343 101.162 111.343 102.812 111.343 104.512C109.363 105.502 109.363 105.502 107.343 106.512C108.093 101.762 108.093 101.762 110.343 99.512Z" fill="#ACACAE"/>
<path d="M26.3433 97.512C27.3333 97.512 28.3233 97.512 29.3433 97.512C28.5933 103.262 28.5933 103.262 26.3433 105.512C26.3433 102.872 26.3433 100.232 26.3433 97.512Z" fill="#171716"/>
<path d="M128.343 91.512C128.673 92.832 129.003 94.152 129.343 95.512C128.023 96.502 126.703 97.492 125.343 98.512C124.683 97.852 124.023 97.192 123.343 96.512C124.993 94.862 126.643 93.212 128.343 91.512Z" fill="#1A1B19"/>
<path d="M112.343 71.512C112.968 73.387 112.968 73.387 113.343 75.512C112.683 76.172 112.023 76.832 111.343 77.512C109.218 77.137 109.218 77.137 107.343 76.512C108.993 74.862 110.643 73.212 112.343 71.512Z" fill="#DE342F"/>
<path d="M91.3433 63.512C92.3333 63.512 93.3233 63.512 94.3433 63.512C94.0133 65.822 93.6833 68.132 93.3433 70.512C92.6833 70.512 92.0233 70.512 91.3433 70.512C90.2183 65.762 90.2183 65.762 91.3433 63.512Z" fill="#AA8F89"/>
<path d="M55.3433 124.512C55.3433 125.172 55.3433 125.832 55.3433 126.512C52.3866 127.99 49.601 127.572 46.3433 127.512C50.8433 124.512 50.8433 124.512 55.3433 124.512Z" fill="#C82B2C"/>
<path d="M54.3433 116.512C55.3333 116.512 56.3233 116.512 57.3433 116.512C57.3433 118.822 57.3433 121.132 57.3433 123.512C56.3533 123.182 55.3633 122.852 54.3433 122.512C54.3433 120.532 54.3433 118.552 54.3433 116.512Z" fill="#DE2F36"/>
<path d="M91.3433 60.512C92.0033 60.842 92.6633 61.172 93.3433 61.512C92.0536 62.8876 90.7164 64.2196 89.3433 65.512C88.6833 65.512 88.0233 65.512 87.3433 65.512C87.0133 64.522 86.6833 63.532 86.3433 62.512C88.7183 61.4495 88.7183 61.4495 91.3433 60.512Z" fill="#1C1C1C"/>
<path d="M63.3433 14.512C63.3433 15.172 63.3433 15.832 63.3433 16.512C61.3633 16.842 59.3833 17.172 57.3433 17.512C57.3433 16.852 57.3433 16.192 57.3433 15.512C56.6833 15.182 56.0233 14.852 55.3433 14.512C58.3959 13.5308 60.2906 13.5308 63.3433 14.512Z" fill="#212120"/>
</svg>
