<svg width="154" height="152" viewBox="0 0 154 152" fill="none" xmlns="http://www.w3.org/2000/svg">
<path d="M76.2129 0.00513907C77.3514 0.0134374 78.49 0.0217358 79.6631 0.0302856C98.3089 0.403361 114.507 6.91204 128.4 19.4426C129.085 20.0343 129.769 20.626 130.475 21.2356C138.774 28.8828 145.781 39.7667 149.4 50.4426C149.845 51.7265 149.845 51.7265 150.299 53.0364C154.37 67.231 154.62 85.5875 149.4 99.4426C149.048 100.429 148.697 101.415 148.334 102.431C140.785 122.037 126.943 136.659 107.867 145.238C89.2651 153.186 67.7143 154.155 48.7754 146.755C27.3975 137.879 13.3279 122.303 4.43162 101.138C-2.05019 83.4426 -1.3793 63.4441 6.166 46.263C15.7207 25.8003 30.183 11.648 51.4004 3.44264C59.697 0.81547 67.536 -0.0770231 76.2129 0.00513907Z" fill="#6D3B87"/>
<path d="M33.4004 16.4426C36.5812 17.9521 38.6991 19.522 41.1504 22.0676C42.0707 23.0151 42.0707 23.0151 43.0097 23.9817C43.6981 24.7049 43.6981 24.7049 44.4004 25.4426C45.3079 25.1333 46.2154 24.8239 47.1504 24.5051C49.5693 23.7143 51.9324 23.0382 54.4004 22.4426C54.9068 24.6703 55.4053 26.8999 55.9004 29.1301C56.1788 30.3715 56.4572 31.6129 56.7441 32.8918C57.2939 35.8666 57.5383 38.4363 57.4004 41.4426C58.0604 41.4426 58.7204 41.4426 59.4004 41.4426C59.3282 40.7646 59.256 40.0865 59.1816 39.3879C58.5492 33.0465 58.276 26.8138 58.4004 20.4426C71.605 16.5093 82.1378 16.8489 95.4004 20.4426C95.2589 23.1721 95.1124 25.9011 94.9629 28.6301C94.9235 29.3991 94.8842 30.168 94.8437 30.9602C94.6253 34.8751 94.3134 38.6138 93.4004 42.4426C94.0604 42.4426 94.7204 42.4426 95.4004 42.4426C95.586 40.5245 95.586 40.5245 95.7754 38.5676C96.9365 28.2649 96.9365 28.2649 98.4004 23.4426C99.0604 23.1126 99.7204 22.7826 100.4 22.4426C101.349 22.9376 102.298 23.4326 103.275 23.9426C106.116 25.6279 106.116 25.6279 108.334 25.2903C111.075 24.1658 112.566 22.5314 114.588 20.3801C115.844 19.0538 117.111 17.7374 118.4 16.4426C118.73 16.4426 119.06 16.4426 119.4 16.4426C119.493 24.927 119.564 33.4112 119.608 41.8959C119.628 45.8362 119.657 49.7762 119.702 53.7163C119.746 57.5224 119.77 61.3282 119.78 65.1345C119.787 66.5829 119.802 68.0313 119.823 69.4796C120.023 83.4071 120.023 83.4071 115.4 89.4426C113.36 92.5036 113.07 93.7037 112.682 97.2317C110.389 114.856 110.389 114.856 104.775 119.88C103.023 121.125 101.23 122.314 99.4004 123.443C97.5656 124.774 95.7322 126.107 93.9004 127.443C85.4745 133.202 75.3811 132.807 65.4004 131.443C60.8194 129.529 57.9437 126.847 54.4004 123.443C52.9386 122.553 52.9386 122.553 51.4472 121.646C46.1882 118.314 43.4088 115.381 41.8222 109.341C40.421 102.753 39.4004 96.1832 39.4004 89.4426C38.7404 89.4426 38.0804 89.4426 37.4004 89.4426C33.4534 84.0747 33.2736 78.5482 33.2868 72.0701C33.2869 70.8292 33.287 69.5884 33.2871 68.31C33.2922 66.9714 33.2974 65.6328 33.3027 64.2942C33.3046 62.9127 33.306 61.5312 33.307 60.1497C33.3108 56.5297 33.3206 52.9098 33.3317 49.2898C33.342 45.5894 33.3465 41.8891 33.3515 38.1887C33.3622 30.94 33.3793 23.6913 33.4004 16.4426Z" fill="#020102"/>
<path d="M119.4 37.4426C120.06 37.4426 120.72 37.4426 121.4 37.4426C131.57 49.4412 136.519 64.4581 135.873 80.1497C134.84 92.5994 129.642 104.155 121.4 113.443C120.441 114.547 120.441 114.547 119.463 115.673C112.85 122.78 104.69 127.672 95.4004 130.443C94.4104 130.113 93.4204 129.783 92.4004 129.443C94.7532 126.278 96.6501 123.905 100.041 121.814C105.656 118.218 108.383 115.741 109.826 109.216C110.351 106.289 110.768 103.381 111.098 100.425C111.854 93.9195 113.245 90.5209 117.4 85.4426C118.33 82.6549 118.549 80.8603 118.606 77.9712C118.626 77.0705 118.646 76.1698 118.666 75.2418C118.683 74.2729 118.7 73.3041 118.717 72.3059C118.738 71.3113 118.758 70.3168 118.78 69.292C118.845 66.1131 118.904 62.9342 118.963 59.7551C119.006 57.6008 119.05 55.4465 119.094 53.2922C119.201 48.0091 119.303 42.7259 119.4 37.4426Z" fill="#7E5492"/>
<path d="M32.4004 36.4426C32.7304 36.4426 33.0604 36.4426 33.4004 36.4426C33.4202 37.673 33.4401 38.9034 33.4605 40.1711C33.5369 44.7635 33.6256 49.3555 33.7178 53.9475C33.7559 55.9299 33.7908 57.9123 33.8223 59.8948C33.8683 62.7547 33.9262 65.6142 33.9864 68.4739C33.9979 69.3513 34.0095 70.2287 34.0214 71.1327C34.1756 77.6541 35.332 83.2375 37.4004 89.4426C38.0604 89.4426 38.7204 89.4426 39.4004 89.4426C39.5019 90.4765 39.5019 90.4765 39.6055 91.5312C41.1611 107.774 41.1611 107.774 50.1817 120.655C52.893 122.667 55.6221 124.569 58.5225 126.3C60.4004 127.443 60.4004 127.443 63.3184 129.72C67.4947 132.054 71.0646 132.11 75.7754 132.193C76.6069 132.222 77.4383 132.252 78.2949 132.282C80.3296 132.353 82.365 132.4 84.4004 132.443C84.4004 132.773 84.4004 133.103 84.4004 133.443C72.6397 134.001 63.1481 133.888 52.4004 128.443C51.4362 127.985 50.472 127.527 49.4785 127.056C34.7836 119.648 25.3431 107.483 20.0567 92.0403C15.7093 74.832 18.221 59.0828 26.9434 43.802C28.576 41.1584 30.2805 38.7195 32.4004 36.4426Z" fill="#7D5491"/>
<path d="M43.4004 93.4426C45.0711 94.0991 46.737 94.7679 48.4004 95.4426C49.188 95.7546 49.9756 96.0665 50.7871 96.3879C53.5909 97.8255 55.3466 99.0248 57.4004 101.443C59.2687 108.338 59.4976 115.315 59.4004 122.443C54.1507 119.962 48.002 116.791 45.4082 111.368C44.8651 109.041 44.5874 106.825 44.4004 104.443C44.2947 103.446 44.189 102.45 44.0801 101.423C43.8138 98.7642 43.5897 96.1079 43.4004 93.4426Z" fill="#75438C"/>
<path d="M109.4 93.4426C109.168 96.1269 108.926 98.8086 108.658 101.49C108.369 104.325 108.369 104.325 108.393 106.708C108.306 109.859 107.793 111.986 105.732 114.384C102.204 117.555 98.4979 120.057 94.4004 122.443C94.3731 120.255 94.3539 118.068 94.3379 115.88C94.3263 114.662 94.3147 113.444 94.3027 112.189C94.4925 104.911 94.4925 104.911 95.4004 101.443C98.0527 99.009 98.0527 99.009 101.338 97.0051C102.419 96.3258 103.501 95.6465 104.615 94.9465C107.4 93.4426 107.4 93.4426 109.4 93.4426Z" fill="#744487"/>
<path d="M107.4 65.4426C107.906 70.7491 106.707 73.3094 103.4 77.4426C100.899 79.8647 99.6914 80.4163 96.1661 80.7356C95.0059 80.7008 93.8458 80.666 92.6504 80.6301C91.48 80.6031 90.3095 80.576 89.1036 80.5481C88.2115 80.5133 87.3195 80.4785 86.4004 80.4426C86.3067 77.7473 86.3067 77.7473 87.4004 74.4426C90.3365 72.3151 93.5735 70.9791 96.9004 69.5676C98.2404 68.9643 98.2404 68.9643 99.6075 68.3489C106.122 65.4426 106.122 65.4426 107.4 65.4426Z" fill="#EFEFF0"/>
<path d="M45.4004 66.4426C50.3604 67.059 54.3371 69.241 58.7129 71.5051C59.4535 71.8822 60.194 72.2592 60.957 72.6477C62.7743 73.5739 64.5877 74.5075 66.4004 75.4426C66.4004 77.0926 66.4004 78.7426 66.4004 80.4426C55.7145 81.0651 55.7145 81.0651 50.8379 78.7551C47.5117 75.5995 45.5238 73.2937 45.2129 68.6301C45.2748 67.9083 45.3366 67.1864 45.4004 66.4426Z" fill="#EEEFF0"/>
<path d="M43.4004 98.4426C43.7304 98.4426 44.0604 98.4426 44.4004 98.4426C44.4868 99.3231 44.5732 100.203 44.6621 101.111C45.4153 108.325 45.4153 108.325 48.7754 114.568C49.6417 115.186 50.5079 115.805 51.4004 116.443C52.1635 117.041 52.9267 117.639 53.7129 118.255C54.2698 118.647 54.8267 119.039 55.4004 119.443C55.0704 120.763 54.7404 122.083 54.4004 123.443C44.3285 116.773 44.3285 116.773 42.1543 111.314C41.2776 106.386 40.6983 102.835 43.4004 98.4426Z" fill="#0C0B0E"/>
<path d="M108.4 98.4426C108.73 99.4326 109.06 100.423 109.4 101.443C110.06 101.443 110.72 101.443 111.4 101.443C111.197 107.427 110.948 112.562 107.041 117.31C104.571 119.494 102.083 121.527 99.4004 123.443C98.7404 122.783 98.0804 122.123 97.4004 121.443C99.432 118.734 101.134 116.621 103.963 114.724C107.21 111.685 107.268 109.558 107.713 105.193C107.853 103.929 107.994 102.666 108.139 101.365C108.268 99.9182 108.268 99.9182 108.4 98.4426Z" fill="#0D0910"/>
<path d="M93.4004 126.443C94.0604 126.773 94.7204 127.103 95.4004 127.443C94.6191 129.361 94.6191 129.361 93.4004 131.443C84.7606 134.683 75.418 133.162 66.4004 132.443C66.4004 132.113 66.4004 131.783 66.4004 131.443C67.0051 131.433 67.6099 131.424 68.2329 131.414C70.9979 131.36 73.7612 131.277 76.5254 131.193C77.4767 131.178 78.428 131.164 79.4082 131.15C85.3423 130.944 88.8193 130.299 93.4004 126.443Z" fill="#6B497F"/>
<path d="M95.4004 109.443C95.7304 109.443 96.0604 109.443 96.4004 109.443C97.4004 117.068 97.4004 117.068 97.4004 120.443C95.9154 121.433 95.9154 121.433 94.4004 122.443C94.7304 118.153 95.0604 113.863 95.4004 109.443Z" fill="#814C95"/>
<path d="M43.4004 98.4426C43.7304 98.4426 44.0604 98.4426 44.4004 98.4426C44.7304 101.743 45.0604 105.043 45.4004 108.443C44.4104 108.773 43.4204 109.103 42.4004 109.443C41.1696 103.043 41.1696 103.043 42.3379 100.005C42.6885 99.4895 43.0392 98.9739 43.4004 98.4426Z" fill="#151217"/>
<path d="M101.4 116.443C102.06 116.773 102.72 117.103 103.4 117.443C102.088 119.943 102.088 119.943 100.4 122.443C99.4104 122.443 98.4204 122.443 97.4004 122.443C98.7204 120.463 100.04 118.483 101.4 116.443Z" fill="#140F17"/>
</svg>
