<svg width="153" height="154" viewBox="0 0 153 154" fill="none" xmlns="http://www.w3.org/2000/svg">
<path d="M121.647 15.6213C128.971 21.4469 128.971 21.4469 130.225 25.2073C128.905 25.5373 127.585 25.8673 126.225 26.2073C125.908 25.711 125.591 25.2147 125.264 24.7034C118.504 14.8631 109.19 10.2956 98.2248 6.20726C99.7732 9.30417 102.831 10.0529 105.85 11.4573C113.909 15.3564 119.744 19.2794 124.225 27.2073C124.975 29.5823 124.975 29.5823 125.225 31.2073C126.153 30.3616 127.081 29.516 128.037 28.6448C129.619 27.2034 129.619 27.2034 131.225 26.2073C132.215 26.5373 133.205 26.8673 134.225 27.2073C135.412 29.7698 135.412 29.7698 136.225 32.2073C135.42 32.6404 134.616 33.0735 133.787 33.5198C130.946 35.012 130.946 35.012 130.225 38.2073C132.535 36.8873 134.845 35.5673 137.225 34.2073C137.555 35.1973 137.885 36.1873 138.225 37.2073C139.215 37.2073 140.205 37.2073 141.225 37.2073C150.967 56.505 155.999 78.6634 149.162 100.02C141.079 121.575 127.171 137.662 106.228 147.33C88.0769 155.276 67.9137 155.946 49.2248 149.207C40.6895 145.759 33.2147 141.199 26.2248 135.207C25.6357 134.761 25.0466 134.315 24.4396 133.856C11.8852 124.075 3.5252 107.668 0.662261 92.1604C0.0953475 87.0379 0.0405874 81.9821 0.0372606 76.8323C0.0250145 75.8423 0.0127684 74.8523 0.000151253 73.8323C-0.017217 65.0555 1.46076 57.6355 4.66226 49.4573C5.07347 48.3899 5.48468 47.3226 5.90835 46.2229C7.16466 43.3449 8.38175 40.7526 10.2248 38.2073C11.2148 38.2073 12.2048 38.2073 13.2248 38.2073C13.5548 36.8873 13.8848 35.5673 14.2248 34.2073C16.8914 35.5406 19.5581 36.8739 22.2248 38.2073C21.4204 37.4648 20.616 36.7223 19.7873 35.9573C16.3296 32.2466 16.3296 32.2466 16.2248 29.2073C16.8848 28.5473 17.5448 27.8873 18.2248 27.2073C19.2148 27.2073 20.2048 27.2073 21.2248 27.2073C21.2957 26.4712 21.3666 25.7351 21.4396 24.9768C23.3177 18.3521 31.2567 14.2462 37.0216 10.9885C64.3439 -3.65442 96.2079 -3.01683 121.647 15.6213Z" fill="#1B70BA"/>
<path d="M139.225 37.2073C139.885 37.2073 140.545 37.2073 141.225 37.2073C150.967 56.505 155.999 78.6634 149.162 100.02C141.079 121.575 127.171 137.662 106.228 147.33C88.0769 155.276 67.9137 155.946 49.2248 149.207C40.6895 145.759 33.2147 141.199 26.2248 135.207C25.6357 134.761 25.0466 134.315 24.4396 133.856C11.8852 124.075 3.5252 107.668 0.662261 92.1604C0.0953475 87.0379 0.0405874 81.9821 0.0372606 76.8323C0.0188915 75.3473 0.0188915 75.3473 0.000151253 73.8323C-0.017217 65.0555 1.46076 57.6356 4.66226 49.4573C5.07347 48.3899 5.48468 47.3226 5.90835 46.2229C7.14962 43.3794 8.56322 40.8231 10.2248 38.2073C14.138 39.5117 15.6594 40.9668 18.2248 44.2073C18.6121 46.5192 18.725 48.774 18.8459 51.1135C19.0816 53.5508 19.0816 53.5508 21.7873 55.7698C22.5916 56.2442 23.396 56.7185 24.2248 57.2073C23.936 57.7642 23.6473 58.321 23.3498 58.8948C19.3639 67.0879 19.1272 75.6806 20.8498 84.6448C22.8321 89.781 25.7787 93.4546 30.2692 96.6721C33.5308 99.0519 35.8446 100.859 36.9655 104.834C37.2332 107.797 37.2828 110.671 37.2248 113.645C37.2364 114.662 37.248 115.68 37.2599 116.729C37.2833 119.224 37.2707 121.713 37.2248 124.207C37.908 124.456 38.5912 124.705 39.2951 124.961C43.3614 126.691 47.0835 128.951 50.8771 131.198C59.0214 135.95 65.4633 137.766 74.9123 137.707C75.9872 137.701 77.0621 137.694 78.1696 137.688C86.2446 137.501 92.181 136.244 99.2248 132.207C100.482 131.691 101.744 131.186 103.01 130.692C107.08 128.964 110.041 127.341 113.225 124.207C114.711 119.968 114.518 115.661 114.303 111.231C114.139 107.446 114.541 104.678 116.225 101.207C118.721 98.6096 118.721 98.6096 121.662 96.1448C127.959 91.0703 127.959 91.0703 130.483 83.7061C130.593 80.6583 130.584 77.6316 130.537 74.5823C130.54 73.533 130.544 72.4837 130.547 71.4026C130.673 65.4596 130.673 65.4596 128.225 60.2073C128.463 57.6672 128.824 56.5608 130.752 54.8596C132.639 52.743 132.553 51.5636 132.6 48.7698C132.918 44.4985 132.918 44.4985 135.725 41.8323C136.55 41.296 137.375 40.7598 138.225 40.2073C138.555 39.2173 138.885 38.2273 139.225 37.2073Z" fill="#1B6EB8"/>
<path d="M26.2247 26.2073C29.4088 30.9834 28.5966 36.4461 28.5953 42.0312C28.5997 44.1344 28.636 46.2354 28.674 48.3381C28.6798 49.6786 28.6838 51.0191 28.6857 52.3596C28.6939 53.5764 28.7021 54.7932 28.7106 56.0469C28.1318 59.8116 27.0416 60.7702 24.2247 63.2073C23.0173 66.8297 23.0023 70.1843 22.9747 73.9573C22.9541 74.6482 22.9335 75.3392 22.9122 76.051C22.864 82.463 24.5461 87.4864 28.7911 92.4026C29.7782 93.3909 30.7771 94.3675 31.7872 95.3323C32.2623 95.8505 32.7373 96.3687 33.2267 96.9026C34.9002 98.6336 34.9002 98.6336 38.2247 100.207C41.8089 99.8775 44.9101 98.5572 48.2247 97.2073C50.2904 96.4396 52.3568 95.674 54.424 94.9104C57.6924 93.679 60.9566 92.44 64.2111 91.1721C65.2713 90.7764 66.3316 90.3806 67.424 89.9729C68.371 89.6097 69.3181 89.2465 70.2938 88.8723C76.2245 87.5266 81.5011 89.4806 87.0763 91.4924C88.3523 91.9449 89.6284 92.3974 90.9044 92.8499C92.8844 93.561 94.8634 94.2747 96.8419 94.9897C98.772 95.6847 100.705 96.3701 102.639 97.0549C104.355 97.6738 104.355 97.6738 106.106 98.3052C109.058 99.1591 111.184 99.554 114.225 99.2073C117.125 97.2456 117.125 97.2456 119.85 94.5823C120.791 93.7238 121.732 92.8652 122.701 91.9807C127.781 86.3975 128.697 81.5936 128.912 74.3323C128.946 73.5485 128.981 72.7648 129.016 71.9573C129.098 70.0411 129.163 68.1242 129.225 66.2073C129.885 66.2073 130.545 66.2073 131.225 66.2073C131.401 69.3732 131.506 72.5379 131.6 75.7073C131.65 76.5942 131.7 77.481 131.752 78.3948C131.886 84.4752 130.821 87.8916 126.851 92.532C124.105 95.3613 121.16 97.7997 118.08 100.25C115.773 102.684 115.482 103.876 115.225 107.207C115.329 109.133 115.329 109.133 115.436 111.098C116.001 122.076 116.001 122.076 112.903 125.793C109.351 128.688 105.337 130.57 101.144 132.361C99.0288 133.251 99.0288 133.251 96.4044 134.852C86.4454 140.247 71.5299 140.574 60.7316 137.497C57.1274 136.097 53.873 134.349 50.5997 132.301C47.3806 130.135 47.3806 130.135 44.0997 129.114C40.7636 127.862 39.3001 127.142 37.2247 124.207C36.4343 119.72 36.4513 115.156 36.3385 110.61C35.9915 104.423 35.1078 100.894 30.5541 96.5769C28.8019 95.1453 27.0216 93.7823 25.1935 92.4495C21.3912 89.5777 20.5997 87.9379 19.6154 83.3948C19.1966 79.9778 19.02 76.6497 18.9747 73.2073C18.949 72.0317 18.9232 70.856 18.8966 69.6448C19.3744 64.6393 21.4771 61.3287 24.2247 57.2073C23.2966 56.7742 23.2966 56.7742 22.3497 56.3323C20.2247 55.2073 20.2247 55.2073 18.2247 53.2073C17.9865 51.219 17.9865 51.219 17.9122 48.8948C17.588 45.0287 17.3073 44.3059 14.6622 41.1448C13.8579 40.5054 13.0535 39.866 12.2247 39.2073C12.8847 37.8873 13.5447 36.5673 14.2247 35.2073C14.5547 36.1973 14.8847 37.1873 15.2247 38.2073C16.2147 38.7229 17.2047 39.2385 18.2247 39.7698C21.2247 42.2073 21.2247 42.2073 21.7716 44.6174C21.9048 46.397 21.9898 48.1809 22.0216 49.9651C22.0019 52.4114 22.0019 52.4114 24.2247 54.2073C24.2247 53.496 24.2247 52.7846 24.2247 52.0518C24.2247 43.7703 24.2247 35.4888 24.2247 27.2073C24.8847 26.8773 25.5447 26.5473 26.2247 26.2073Z" fill="#0C141B"/>
<path d="M81.2247 92.2073C82.3343 92.5462 83.444 92.8851 84.5873 93.2344C88.4738 94.4885 92.3171 95.833 96.1622 97.2073C97.5011 97.6769 98.8403 98.1456 100.18 98.6135C109.766 101.978 109.766 101.978 112.225 103.207C112.7 106.979 112.918 110.455 112.225 114.207C109.923 116.699 107.29 117.843 104.225 119.207C103.317 119.847 102.41 120.486 101.475 121.145C99.2247 122.207 99.2247 122.207 97.1466 121.578C95.2247 120.207 95.2247 120.207 94.5372 117.965C94.3825 116.662 94.3825 116.662 94.2247 115.332C93.6969 110.912 92.7289 109.012 89.2247 106.207C86.3013 105.61 86.3013 105.61 83.0685 105.711C81.8812 105.711 80.694 105.71 79.4708 105.709C77.6165 105.739 77.6165 105.739 75.7247 105.77C73.8704 105.759 73.8704 105.759 71.9786 105.748C64.4196 105.478 64.4196 105.478 58.2247 109.207C57.0939 112.376 57.0939 112.376 56.4747 115.895C56.2324 117.074 55.99 118.254 55.7403 119.469C55.5702 120.373 55.4 121.276 55.2247 122.207C51.1541 121.597 48.0024 120.341 44.4122 118.332C42.9485 117.563 42.9485 117.563 41.4552 116.778C38.2887 113.129 38.8195 110.151 39.0423 105.468C39.1025 104.722 39.1627 103.976 39.2247 103.207C43.7505 101.455 48.2852 99.7291 52.8294 98.0254C54.3711 97.4434 55.9103 96.8546 57.4466 96.2588C73.9114 89.8834 73.9115 89.8834 81.2247 92.2073Z" fill="#93684B"/>
<path d="M66.2247 29.2073C72.1647 29.2073 78.1047 29.2073 84.2247 29.2073C85.4967 32.3735 86.7673 35.5402 88.0372 38.7073C88.3937 39.5942 88.7501 40.481 89.1173 41.3948C90.1598 43.9963 91.193 46.6014 92.2247 49.2073C92.6857 50.3462 92.6857 50.3462 93.1559 51.5081C94.5355 55.0053 95.2247 57.3928 95.2247 61.2073C91.605 62.5235 89.1291 63.2073 85.2247 63.2073C84.2347 60.5673 83.2447 57.9273 82.2247 55.2073C77.6047 55.2073 72.9847 55.2073 68.2247 55.2073C67.2347 57.8473 66.2447 60.4873 65.2247 63.2073C62.2547 62.5473 59.2847 61.8873 56.2247 61.2073C56.788 54.1517 59.3387 47.8654 61.7872 41.2698C62.212 40.109 62.6367 38.9482 63.0743 37.7522C64.1184 34.9016 65.1707 32.0542 66.2247 29.2073Z" fill="#F4F5F5"/>
<path d="M40.2247 118.207C41.8301 118.996 43.434 119.789 45.0372 120.582C45.9306 121.023 46.8239 121.464 47.7443 121.918C50.2247 123.207 50.2247 123.207 53.2247 125.207C54.2147 125.207 55.2047 125.207 56.2247 125.207C56.8847 123.887 57.5447 122.567 58.2247 121.207C63.1726 121.133 68.1202 121.079 73.0685 121.042C74.7525 121.027 76.4364 121.007 78.1202 120.981C80.538 120.945 82.9552 120.928 85.3732 120.914C86.1284 120.899 86.8837 120.883 87.6618 120.867C89.7848 120.867 89.7848 120.867 93.2247 121.207C93.8847 122.197 94.5447 123.187 95.2247 124.207C101.252 123.731 105.992 121.01 111.225 118.207C110.925 121.323 110.737 122.777 108.291 124.832C107.465 125.286 106.639 125.74 105.787 126.207C104.441 126.956 104.441 126.956 103.068 127.719C102.13 128.21 101.192 128.701 100.225 129.207C99.3069 129.688 98.3891 130.169 97.4435 130.664C86.3751 136.312 72.8396 137.848 60.6437 134.498C55.8292 132.628 51.4886 130.1 47.2247 127.207C46.57 126.797 45.9154 126.386 45.2408 125.963C43.2911 124.688 43.2911 124.688 40.2247 122.207C40.2247 120.887 40.2247 119.567 40.2247 118.207Z" fill="#8E6343"/>
<path d="M121.647 15.6213C128.971 21.4469 128.971 21.4469 130.225 25.2073C128.905 25.5373 127.585 25.8673 126.225 26.2073C125.908 25.711 125.591 25.2147 125.264 24.7034C118.504 14.8631 109.19 10.2956 98.2247 6.20726C98.2247 6.86726 98.2247 7.52726 98.2247 8.20726C97.6472 8.06651 97.0696 7.92576 96.4745 7.78074C89.5286 6.22449 82.8901 5.87314 75.7872 5.89476C74.7321 5.87864 73.677 5.86253 72.59 5.84593C62.2241 5.83955 53.1993 8.23043 43.9747 12.8948C43.2894 13.2378 42.6041 13.5809 41.8981 13.9343C36.4635 16.794 32.7561 20.1591 29.2247 25.2073C27.2247 27.2073 27.2247 27.2073 24.2247 29.2073C24.5547 29.5373 24.8847 29.8673 25.2247 30.2073C25.3121 32.061 25.3317 33.9179 25.3224 35.7737C25.3192 36.8984 25.3159 38.0231 25.3126 39.1819C25.3042 40.3659 25.2959 41.5499 25.2872 42.7698C25.2827 43.9576 25.2782 45.1455 25.2736 46.3694C25.2617 49.3154 25.2452 52.2613 25.2247 55.2073C23.2496 53.8535 23.2496 53.8535 21.2247 52.2073C20.8263 49.8674 20.8263 49.8674 20.8497 47.2698C20.7728 44.616 20.7728 44.616 20.2247 42.2073C17.2853 39.802 17.2853 39.802 14.2247 38.2073C14.2247 36.8873 14.2247 35.5673 14.2247 34.2073C16.8914 35.5406 19.5581 36.8739 22.2247 38.2073C21.4204 37.4648 20.616 36.7223 19.7872 35.9573C16.3295 32.2466 16.3295 32.2466 16.2247 29.2073C16.8847 28.5473 17.5447 27.8873 18.2247 27.2073C19.2147 27.2073 20.2047 27.2073 21.2247 27.2073C21.3311 26.1032 21.3311 26.1032 21.4396 24.9768C23.3177 18.3521 31.2566 14.2462 37.0216 10.9885C64.3439 -3.65442 96.2079 -3.01683 121.647 15.6213Z" fill="#040E14"/>
<path d="M129.225 66.2073C129.885 66.2073 130.545 66.2073 131.225 66.2073C131.401 69.3732 131.506 72.5379 131.6 75.7073C131.65 76.5942 131.7 77.481 131.752 78.3948C131.886 84.4752 130.821 87.8916 126.851 92.532C124.105 95.3613 121.16 97.7997 118.08 100.25C115.773 102.684 115.482 103.876 115.225 107.207C115.329 109.133 115.329 109.133 115.436 111.098C116.001 122.076 116.001 122.076 112.903 125.793C109.356 128.683 105.348 130.571 101.161 132.361C99.0154 133.262 99.0154 133.262 96.2638 134.852C87.1073 139.614 77.2514 138.653 67.2247 138.207C67.2247 137.547 67.2247 136.887 67.2247 136.207C68.3011 136.193 69.3775 136.179 70.4865 136.164C85.3783 135.765 98.3711 131.481 110.225 122.207C110.225 121.217 110.225 120.227 110.225 119.207C109.465 119.652 108.706 120.097 107.924 120.555C106.93 121.121 105.936 121.687 104.912 122.27C103.926 122.838 102.94 123.407 101.924 123.992C99.2247 125.207 99.2247 125.207 96.2247 124.207C96.2247 123.547 96.2247 122.887 96.2247 122.207C97.2238 121.714 98.2228 121.22 99.2521 120.711C100.556 120.064 101.859 119.417 103.162 118.77C103.822 118.444 104.481 118.119 105.16 117.783C108.408 116.316 108.408 116.316 111.225 114.207C111.458 112.358 111.638 110.502 111.787 108.645C111.933 106.832 112.079 105.02 112.225 103.207C111.566 103.04 110.906 102.873 110.227 102.7C105.206 101.384 100.304 99.9347 95.4357 98.1292C94.474 97.7734 93.5124 97.4176 92.5216 97.051C90.5617 96.3174 88.6059 95.5724 86.6544 94.8167C75.6781 90.8038 68.4762 93.1404 57.8497 97.2698C55.906 98.0149 53.9608 98.756 52.0138 99.4924C51.1651 99.8212 50.3164 100.15 49.442 100.489C47.2247 101.207 47.2247 101.207 44.2247 101.207C44.5547 100.217 44.8847 99.2273 45.2247 98.2073C48.9752 96.3495 52.9318 95.0398 56.8785 93.6536C58.8286 92.9647 60.7665 92.2477 62.7052 91.5276C63.9414 91.0867 65.1776 90.6459 66.4513 90.1917C67.5813 89.7866 68.7113 89.3815 69.8756 88.9641C76.0601 87.5665 81.2468 89.3888 87.0763 91.4924C88.3523 91.9449 89.6284 92.3974 90.9044 92.8499C92.8844 93.561 94.8634 94.2747 96.8419 94.9897C98.772 95.6847 100.705 96.3701 102.639 97.0549C103.783 97.4675 104.927 97.8801 106.106 98.3052C109.058 99.1591 111.184 99.554 114.225 99.2073C117.125 97.2456 117.125 97.2456 119.85 94.5823C120.791 93.7238 121.732 92.8652 122.701 91.9807C127.781 86.3975 128.697 81.5936 128.912 74.3323C128.946 73.5485 128.981 72.7648 129.016 71.9573C129.098 70.0411 129.163 68.1242 129.225 66.2073Z" fill="#090C0F"/>
<path d="M65.2247 26.2073C72.1547 26.2073 79.0847 26.2073 86.2247 26.2073C87.7816 30.1879 89.3324 34.1698 90.8695 38.158C91.3929 39.5111 91.9196 40.863 92.4496 42.2136C97.8678 56.0324 97.8678 56.0324 98.2247 63.2073C96.6671 63.7426 95.1034 64.2599 93.5372 64.7698C92.6671 65.0598 91.797 65.3499 90.9005 65.6487C87.9784 66.2587 86.0807 65.9843 83.2247 65.2073C82.5647 62.2373 81.9047 59.2673 81.2247 56.2073C77.5947 56.2073 73.9647 56.2073 70.2247 56.2073C69.2347 59.5073 68.2447 62.8073 67.2247 66.2073C61.5637 65.7107 57.348 64.6622 52.2247 62.2073C54.386 54.5543 57.0265 47.1387 59.8497 39.7073C60.2571 38.6245 60.6644 37.5417 61.0841 36.426C64.0694 28.5179 64.0694 28.5179 65.2247 26.2073ZM66.2247 29.2073C64.7929 32.9582 63.3663 36.7106 61.9523 40.4683C61.4702 41.7448 60.9852 43.0202 60.4972 44.2944C59.7944 46.1309 59.1032 47.9718 58.4122 49.8127C57.7838 51.4702 57.7838 51.4702 57.1427 53.1611C56.2735 56.0456 56.0304 58.2217 56.2247 61.2073C59.1947 61.8673 62.1647 62.5273 65.2247 63.2073C66.2147 60.5673 67.2047 57.9273 68.2247 55.2073C72.8447 55.2073 77.4647 55.2073 82.2247 55.2073C83.2147 57.8473 84.2047 60.4873 85.2247 63.2073C88.6941 62.7491 91.8987 62.316 95.2247 61.2073C94.736 54.0423 91.8819 47.8502 89.1622 41.2698C88.6898 40.109 88.2173 38.9482 87.7306 37.7522C86.569 34.901 85.3978 32.0537 84.2247 29.2073C78.2847 29.2073 72.3447 29.2073 66.2247 29.2073Z" fill="#0A0E12"/>
<path d="M131.225 26.2073C132.215 26.5373 133.205 26.8673 134.225 27.2073C135.412 29.7698 135.412 29.7698 136.225 32.2073C135.018 32.857 135.018 32.857 133.787 33.5198C130.946 35.012 130.946 35.012 130.225 38.2073C132.535 36.8873 134.845 35.5673 137.225 34.2073C139.225 37.2073 139.225 37.2073 139.1 39.2073C138.225 41.2073 138.225 41.2073 136.225 42.3948C133.363 44.9883 133.805 47.3409 133.576 51.0627C133.086 54.051 131.381 55.1945 129.225 57.2073C129.316 59.7468 129.316 59.7468 130.225 62.2073C130.41 62.9704 130.596 63.7335 130.787 64.5198C130.932 65.0767 131.076 65.6335 131.225 66.2073C130.565 66.2073 129.905 66.2073 129.225 66.2073C129.225 71.8173 129.225 77.4273 129.225 83.2073C128.895 83.2073 128.565 83.2073 128.225 83.2073C128.199 81.8937 128.173 80.5802 128.147 79.2268C128.09 77.4911 128.033 75.7554 127.975 74.0198C127.961 73.1555 127.946 72.2911 127.932 71.4006C127.9 70.5595 127.867 69.7184 127.834 68.8518C127.813 68.082 127.792 67.3122 127.771 66.519C127.364 64.0059 127.364 64.0059 125.211 61.8577C122.638 58.4241 122.762 56.4084 122.834 52.1565C122.84 51.4977 122.845 50.8389 122.851 50.1601C122.874 48.0709 122.924 45.9835 122.975 43.8948C122.995 42.4723 123.013 41.0497 123.029 39.6272C123.073 36.1533 123.142 32.6805 123.225 29.2073C123.885 29.8673 124.545 30.5273 125.225 31.2073C126.153 30.3617 127.081 29.516 128.037 28.6448C129.619 27.2034 129.619 27.2034 131.225 26.2073Z" fill="#111D28"/>
<path d="M17.2248 66.2073C17.8848 66.2073 18.5448 66.2073 19.2248 66.2073C19.2644 66.7817 19.3041 67.3562 19.3449 67.948C19.5367 70.5778 19.7555 73.2047 19.9748 75.8323C20.0367 76.7359 20.0985 77.6395 20.1623 78.5706C20.6511 84.1512 21.4275 87.8443 25.2248 92.2073C27.1158 93.6784 29.0338 95.1154 30.9748 96.5198C34.6379 99.6867 36.5007 101.837 36.9396 106.633C37.0295 110.862 36.707 115.008 36.2248 119.207C27.8951 115.806 24.0417 105.224 20.4865 97.5784C17.6771 90.0722 16.9389 83.1213 17.0998 75.1448C17.1088 74.2792 17.1178 73.4136 17.1271 72.5217C17.1504 70.4168 17.1863 68.312 17.2248 66.2073Z" fill="#3F85C2"/>
<path d="M75.0372 106.957C76.1439 106.937 77.2506 106.916 78.3907 106.895C79.9889 106.887 79.9889 106.887 81.6193 106.879C82.5974 106.87 83.5756 106.86 84.5834 106.851C87.6425 107.264 89.0267 108.069 91.2247 110.207C91.2247 110.867 91.2247 111.527 91.2247 112.207C87.5947 112.207 83.9647 112.207 80.2247 112.207C80.2247 113.197 80.2247 114.187 80.2247 115.207C86.6597 114.712 86.6597 114.712 93.2247 114.207C93.2247 115.527 93.2247 116.847 93.2247 118.207C82.0047 118.207 70.7847 118.207 59.2247 118.207C59.2247 117.217 59.2247 116.227 59.2247 115.207C63.5147 115.207 67.8047 115.207 72.2247 115.207C72.2247 114.217 72.2247 113.227 72.2247 112.207C68.2647 112.207 64.3047 112.207 60.2247 112.207C63.7091 105.239 67.7112 106.991 75.0372 106.957Z" fill="#EAEBEC"/>
<path d="M130.225 86.2073C130.885 86.5373 131.545 86.8673 132.225 87.2073C131.587 99.9655 126.247 110.202 117.225 119.207C115.74 119.702 115.74 119.702 114.225 120.207C114.17 118.166 114.132 116.124 114.1 114.082C114.077 112.945 114.053 111.808 114.029 110.637C114.324 105.471 115.089 102.39 118.721 98.6096C119.691 97.7962 120.662 96.9828 121.662 96.1448C125.317 93.0641 127.99 90.4563 130.225 86.2073Z" fill="#3F82BD"/>
<path d="M115.225 68.2073C115.944 75.0397 115.944 75.0397 113.959 78.262C111.879 80.6954 110.108 82.7657 107.225 84.2073C105.123 84.3306 103.017 84.3829 100.912 84.3948C99.7817 84.409 98.6512 84.4231 97.4865 84.4377C94.2927 84.2121 92.0971 83.5707 89.2247 82.2073C89.9113 79.8699 90.7688 78.5088 92.8092 77.1594C94.8614 76.0751 96.9354 75.0668 99.0372 74.0823C99.7494 73.7355 100.462 73.3888 101.195 73.0315C111.186 68.2073 111.186 68.2073 115.225 68.2073Z" fill="#F4F4F5"/>
<path d="M36.2247 68.2073C41.6626 68.7856 45.9807 70.6909 50.8497 73.0198C51.5999 73.3633 52.3502 73.7068 53.1231 74.0608C57.119 75.9489 60.4202 77.6682 63.2247 81.2073C63.2247 81.8673 63.2247 82.5273 63.2247 83.2073C46.8429 85.68 46.8429 85.68 41.2247 82.5198C37.009 77.6454 35.8392 74.7615 36.2247 68.2073Z" fill="#F5F6F7"/>
<path d="M118.225 64.2073C118.968 71.5683 118.348 76.2564 114.026 82.3323C111.133 85.3441 108.609 87.0275 104.428 87.5706C98.0682 87.4612 92.3764 86.8477 86.2247 85.2073C86.5916 78.8481 86.5916 78.8481 89.1427 76.2659C93.3271 73.471 97.7454 71.5247 102.35 69.5198C103.256 69.1169 104.162 68.7141 105.096 68.2991C114.349 64.2073 114.349 64.2073 118.225 64.2073ZM103.35 71.9573C102.547 72.3053 101.744 72.6534 100.916 73.012C96.5213 74.9668 92.8409 76.9571 89.2247 80.2073C89.5547 81.1973 89.8847 82.1873 90.2247 83.2073C95.3728 85.2617 101.826 84.8176 107.225 84.2073C110.984 82.4074 112.928 79.6524 115.225 76.2073C115.465 74.1502 115.465 74.1502 115.35 72.0198C115.308 70.7617 115.267 69.5035 115.225 68.2073C110.781 68.2073 107.361 70.159 103.35 71.9573Z" fill="#10161B"/>
<path d="M33.2248 64.2073C38.908 65.4914 44.0365 67.2072 49.3498 69.5823C50.0265 69.8736 50.7033 70.1649 51.4005 70.4651C56.5003 72.7141 61.2435 75.2261 65.2248 79.2073C65.3498 82.3323 65.3498 82.3323 65.2248 85.2073C47.6625 88.5355 47.6625 88.5355 41.4748 86.1448C37.4028 82.6384 34.1671 78.588 33.2248 73.2073C33.1593 71.6252 33.139 70.0406 33.1623 68.4573C33.1713 67.6581 33.1803 66.8588 33.1896 66.0354C33.2012 65.4321 33.2128 64.8288 33.2248 64.2073ZM36.2248 68.2073C35.6601 73.7407 36.5873 76.4609 39.838 80.7268C41.9257 82.9556 43.5794 84.1458 46.6427 84.4377C52.2515 84.3507 57.6761 84.0448 63.2248 83.2073C59.7614 75.1601 49.852 72.5857 42.299 69.344C39.3021 68.0339 39.3021 68.0339 36.2248 68.2073Z" fill="#171B1F"/>
<path d="M68.424 105.012C69.6324 105.018 70.8409 105.025 72.0861 105.031C73.98 105.057 73.98 105.057 75.9122 105.082C77.1865 105.091 78.4607 105.1 79.7736 105.11C82.9241 105.133 86.0743 105.166 89.2247 105.207C89.2247 106.197 89.2247 107.187 89.2247 108.207C88.4528 108.186 87.6809 108.165 86.8856 108.144C83.3946 108.061 79.9038 108.009 76.4122 107.957C75.1973 107.924 73.9823 107.89 72.7306 107.856C71.5672 107.843 70.4038 107.83 69.2052 107.817C68.1317 107.796 67.0581 107.775 65.952 107.753C62.6792 107.976 62.6792 107.976 60.2247 112.207C64.1847 112.207 68.1447 112.207 72.2247 112.207C72.2247 113.197 72.2247 114.187 72.2247 115.207C67.9347 115.207 63.6447 115.207 59.2247 115.207C59.2247 116.197 59.2247 117.187 59.2247 118.207C60.0468 118.202 60.8688 118.197 61.7157 118.191C65.4479 118.171 69.18 118.158 72.9122 118.145C74.2058 118.136 75.4994 118.128 76.8322 118.119C78.7029 118.115 78.7029 118.115 80.6115 118.11C81.7583 118.104 82.9052 118.099 84.0868 118.094C86.9274 118.197 89.4652 118.554 92.2247 119.207C92.2247 119.537 92.2247 119.867 92.2247 120.207C80.3447 120.537 68.4647 120.867 56.2247 121.207C56.2247 110.874 56.2247 110.874 59.2247 107.207C62.7649 104.847 64.236 104.973 68.424 105.012Z" fill="#0A0807"/>
<path d="M89.2247 106.207C91.5092 107.121 92.9456 107.825 94.4122 109.832C95.3773 112.653 95.6971 115.344 96.006 118.301C96.2388 120.33 96.653 122.247 97.2247 124.207C96.2347 124.207 95.2447 124.207 94.2247 124.207C93.7297 123.217 93.7297 123.217 93.2247 122.207C75.8997 121.712 75.8997 121.712 58.2247 121.207C57.2347 123.682 57.2347 123.682 56.2247 126.207C52.5372 125.709 50.6198 125.107 48.2247 122.207C51.235 121.273 52.0912 121.163 55.2247 122.207C55.5547 121.547 55.8847 120.887 56.2247 120.207C71.5697 119.712 71.5697 119.712 87.2247 119.207C87.2247 118.877 87.2247 118.547 87.2247 118.207C89.2047 118.207 91.1847 118.207 93.2247 118.207C93.2247 116.887 93.2247 115.567 93.2247 114.207C92.5647 114.537 91.9047 114.867 91.2247 115.207C89.3509 115.278 87.4747 115.292 85.5997 115.27C84.5968 115.261 83.594 115.252 82.5607 115.242C81.7898 115.231 81.019 115.219 80.2247 115.207C80.2247 114.217 80.2247 113.227 80.2247 112.207C83.8547 112.207 87.4847 112.207 91.2247 112.207C90.5647 111.217 89.9047 110.227 89.2247 109.207C89.2247 108.217 89.2247 107.227 89.2247 106.207Z" fill="#29231D"/>
<path d="M134.225 27.2073C135.412 29.7698 135.412 29.7698 136.225 32.2073C135.018 32.857 135.018 32.857 133.787 33.5198C130.946 35.012 130.946 35.012 130.225 38.2073C132.535 36.8873 134.845 35.5673 137.225 34.2073C137.037 36.5198 137.037 36.5198 136.225 39.2073C135.4 39.5992 134.575 39.991 133.725 40.3948C131 41.9293 131 41.9293 130.815 44.5081C130.715 46.2808 130.661 48.0568 130.658 49.8323C130.225 52.2073 130.225 52.2073 128.198 53.8557C127.547 54.3017 126.895 54.7478 126.225 55.2073C126.08 51.1243 125.991 47.042 125.912 42.9573C125.87 41.7984 125.828 40.6396 125.785 39.4456C125.662 30.8976 125.662 30.8976 128.557 27.3479C131.225 26.2073 131.225 26.2073 134.225 27.2073Z" fill="#EBEBEB"/>
<path d="M18.2247 27.2073C21.2378 27.5961 22.6216 28.4718 25.2247 30.2073C25.5653 32.7292 25.5653 32.7292 25.5177 35.8713C25.508 36.9928 25.4984 38.1143 25.4884 39.2698C25.4633 40.4454 25.4381 41.621 25.4122 42.8323C25.3987 44.0156 25.3852 45.199 25.3712 46.4182C25.3358 49.3484 25.2864 52.2776 25.2247 55.2073C23.2496 53.8535 23.2496 53.8535 21.2247 52.2073C20.8263 49.8674 20.8263 49.8674 20.8497 47.2698C20.7728 44.616 20.7728 44.616 20.2247 42.2073C17.2853 39.8021 17.2853 39.8021 14.2247 38.2073C14.2247 36.8873 14.2247 35.5673 14.2247 34.2073C16.8914 35.5406 19.5581 36.8739 22.2247 38.2073C21.4204 37.4648 20.616 36.7223 19.7872 35.9573C16.3295 32.2466 16.3295 32.2466 16.2247 29.2073C16.8847 28.5473 17.5447 27.8873 18.2247 27.2073Z" fill="#EFEFF0"/>
<path d="M98.2247 6.20728C108.788 7.8517 117.713 14.1173 124.662 21.9573C126.225 24.2073 126.225 24.2073 126.225 26.2073C127.545 25.8773 128.865 25.5473 130.225 25.2073C129.912 27.0823 129.912 27.0823 129.225 29.2073C128.235 29.8673 127.245 30.5273 126.225 31.2073C125.715 33.8192 125.715 33.8192 125.713 36.8713C125.678 37.9928 125.642 39.1143 125.606 40.2698C125.583 41.4454 125.56 42.621 125.537 43.8323C125.503 45.0156 125.469 46.199 125.434 47.4182C125.351 50.3478 125.282 53.2771 125.225 56.2073C124.895 56.2073 124.565 56.2073 124.225 56.2073C124.231 55.3759 124.237 54.5445 124.244 53.688C124.251 50.5617 124.227 47.4375 124.182 44.3115C124.163 42.3101 124.179 40.3084 124.195 38.3069C124.062 30.7208 123.439 25.6557 118.201 19.9624C115.335 17.4172 112.455 15.4882 109.037 13.7698C108.435 13.4456 107.832 13.1214 107.211 12.7874C104.246 11.2022 101.239 9.69592 98.2247 8.20728C98.2247 7.54728 98.2247 6.88728 98.2247 6.20728Z" fill="#040B10"/>
<path d="M92.4279 1.82445C105.783 5.33398 119.503 12.2902 129.225 22.2073C129.72 23.6923 129.72 23.6923 130.225 25.2073C128.905 25.5373 127.585 25.8673 126.225 26.2073C125.908 25.711 125.591 25.2147 125.264 24.7034C116.561 12.0337 102.357 6.4283 87.67 3.69945C78.6216 2.48703 69.3284 2.9759 60.2247 3.20726C67.8706 -1.89001 83.5815 0.232826 92.4279 1.82445Z" fill="#105089"/>
<path d="M65.2247 26.2073C71.4947 26.2073 77.7647 26.2073 84.2247 26.2073C83.8947 26.8673 83.5647 27.5273 83.2247 28.2073C80.5103 28.5197 77.8856 28.7206 75.1622 28.8323C74.4036 28.8709 73.645 28.9096 72.8634 28.9495C70.9843 29.044 69.1045 29.1267 67.2247 29.2073C65.814 32.9591 64.4083 36.7128 63.0072 40.4683C62.5304 41.7442 62.0522 43.0196 61.5726 44.2944C60.8815 46.1325 60.1956 47.9726 59.5099 49.8127C59.0962 50.9177 58.6825 52.0227 58.2562 53.1611C57.3462 55.8485 56.6996 58.4148 56.2247 61.2073C55.8947 60.5473 55.5647 59.8873 55.2247 59.2073C54.5647 59.2073 53.9047 59.2073 53.2247 59.2073C55.2537 52.0602 57.6676 45.1336 60.3497 38.2073C60.7094 37.2675 61.069 36.3278 61.4396 35.3596C64.0632 28.5304 64.0632 28.5304 65.2247 26.2073Z" fill="#13161A"/>
<path d="M84.2247 26.2073C84.8847 26.2073 85.5447 26.2073 86.2247 26.2073C87.7847 30.1864 89.3325 34.17 90.8695 38.158C91.3929 39.5111 91.9196 40.863 92.4496 42.2136C97.8678 56.0324 97.8678 56.0324 98.2247 63.2073C97.5647 63.2073 96.9047 63.2073 96.2247 63.2073C95.8612 62.1541 95.4977 61.1009 95.1232 60.0159C92.0818 51.2702 88.8652 42.6432 85.3263 34.0862C84.2247 31.2073 84.2247 31.2073 84.2247 29.2073C78.6147 29.2073 73.0047 29.2073 67.2247 29.2073C67.2247 28.8773 67.2247 28.5473 67.2247 28.2073C68.3681 28.1467 69.5115 28.0861 70.6896 28.0237C72.1805 27.9393 73.6714 27.8546 75.1622 27.7698C75.917 27.7305 76.6717 27.6911 77.4493 27.6506C81.1442 27.7669 81.1442 27.7669 84.2247 26.2073Z" fill="#10161B"/>
<path d="M87.2247 78.2073C87.8847 78.2073 88.5447 78.2073 89.2247 78.2073C89.5547 79.5273 89.8847 80.8473 90.2247 82.2073C93.9787 83.4112 97.5569 83.3061 101.475 83.2698C102.738 83.2608 104.001 83.2517 105.303 83.2424C106.749 83.225 106.749 83.225 108.225 83.2073C108.555 84.1973 108.885 85.1873 109.225 86.2073C102.652 89.4938 92.9892 87.0111 86.2247 85.2073C86.5547 82.8973 86.8847 80.5873 87.2247 78.2073Z" fill="#161F25"/>
<path d="M52.2247 6.20729C51.1393 6.72679 50.054 7.24628 48.9357 7.78151C47.4901 8.4855 46.0448 9.18996 44.5997 9.89479C43.5305 10.4043 43.5305 10.4043 42.4396 10.9241C36.3607 13.9078 31.1831 17.2697 27.3497 23.0198C26.6485 24.0717 25.9472 25.1235 25.2247 26.2073C23.9047 25.8773 22.5847 25.5473 21.2247 25.2073C24.7155 16.9029 34.0033 12.5356 41.6622 8.64479C42.3604 8.28611 43.0586 7.92743 43.778 7.55788C48.8477 5.08163 48.8477 5.08163 52.2247 6.20729Z" fill="#135997"/>
<path d="M13.2247 35.2073C14.3694 36.3829 14.3694 36.3829 15.5372 37.5823C18.1336 40.2799 18.1336 40.2799 21.2247 42.2073C21.6661 44.5198 21.6661 44.5198 21.7872 47.2073C21.8374 51.1839 21.8374 51.1839 24.2247 54.2073C24.2247 55.1973 24.2247 56.1873 24.2247 57.2073C21.7567 56.0555 20.1769 55.1594 18.2247 53.2073C17.9865 51.219 17.9865 51.219 17.9122 48.8948C17.5203 44.1 15.7568 42.4605 12.2247 39.2073C12.4122 36.8948 12.4122 36.8948 13.2247 35.2073Z" fill="#13191C"/>
<path d="M68.5216 104.914C69.7269 104.924 70.9322 104.934 72.174 104.944C73.4282 104.969 74.6825 104.994 75.9747 105.02C77.2445 105.033 78.5142 105.047 79.8224 105.061C82.9569 105.096 86.0906 105.146 89.2247 105.207C89.2247 106.197 89.2247 107.187 89.2247 108.207C88.4528 108.197 87.6809 108.186 86.8856 108.176C83.3945 108.134 79.9035 108.108 76.4122 108.082C75.1973 108.066 73.9823 108.049 72.7306 108.032C70.9855 108.022 70.9855 108.022 69.2052 108.012C68.1317 108.002 67.0581 107.991 65.952 107.98C63.0054 108.004 63.0054 108.004 60.2247 110.207C59.5647 109.547 58.9047 108.887 58.2247 108.207C61.6206 105.075 63.9699 104.85 68.5216 104.914Z" fill="#090807"/>
<path d="M57.2248 109.207C58.2148 109.207 59.2048 109.207 60.2248 109.207C60.2248 110.197 60.2248 111.187 60.2248 112.207C64.1848 112.207 68.1448 112.207 72.2248 112.207C72.2248 113.197 72.2248 114.187 72.2248 115.207C67.9348 115.207 63.6448 115.207 59.2248 115.207C59.2248 116.197 59.2248 117.187 59.2248 118.207C60.2148 118.537 61.2048 118.867 62.2248 119.207C60.9048 119.207 59.5848 119.207 58.2248 119.207C55.6579 115.357 56.3919 113.622 57.2248 109.207Z" fill="#262525"/>
<path d="M37.2247 103.207C37.5547 103.207 37.8847 103.207 38.2247 103.207C38.1693 103.848 38.1139 104.489 38.0568 105.149C38.0343 108.161 38.2141 110.354 39.2247 113.207C42.5784 116.17 46.2292 118.219 50.2247 120.207C49.8947 120.867 49.5647 121.527 49.2247 122.207C45.738 121.098 42.4499 119.944 39.2247 118.207C39.2247 119.197 39.2247 120.187 39.2247 121.207C38.5647 121.207 37.9047 121.207 37.2247 121.207C37.2247 115.267 37.2247 109.327 37.2247 103.207Z" fill="#080706"/>
<path d="M84.2247 26.2073C84.8847 26.2073 85.5447 26.2073 86.2247 26.2073C86.9023 27.7651 87.5663 29.3288 88.2247 30.8948C88.596 31.7649 88.9672 32.635 89.3497 33.5315C90.2434 36.2645 90.3892 38.3543 90.2247 41.2073C89.5647 41.2073 88.9047 41.2073 88.2247 41.2073C87.5539 39.584 86.8882 37.9586 86.2247 36.3323C85.8535 35.4274 85.4822 34.5224 85.0997 33.5901C84.2247 31.2073 84.2247 31.2073 84.2247 29.2073C78.6147 29.2073 73.0047 29.2073 67.2247 29.2073C67.2247 28.8773 67.2247 28.5473 67.2247 28.2073C68.3681 28.1467 69.5115 28.0861 70.6896 28.0237C72.1805 27.9393 73.6714 27.8546 75.1622 27.7698C75.917 27.7305 76.6717 27.6911 77.4493 27.6506C81.1442 27.7669 81.1442 27.7669 84.2247 26.2073Z" fill="#2F3134"/>
<path d="M93.2247 114.207C93.2247 115.527 93.2247 116.847 93.2247 118.207C83.3247 118.207 73.4247 118.207 63.2247 118.207C63.2247 117.877 63.2247 117.547 63.2247 117.207C69.4947 117.207 75.7647 117.207 82.2247 117.207C82.2247 116.547 82.2247 115.887 82.2247 115.207C83.6829 115.039 85.1413 114.873 86.5997 114.707C87.4118 114.614 88.224 114.522 89.0607 114.426C91.2247 114.207 91.2247 114.207 93.2247 114.207Z" fill="#D8D9DB"/>
<path d="M81.2247 57.2073C82.2147 57.2073 83.2047 57.2073 84.2247 57.2073C84.5547 59.1873 84.8847 61.1673 85.2247 63.2073C86.8724 62.9262 88.5179 62.6321 90.1622 62.3323C91.0788 62.1699 91.9953 62.0074 92.9396 61.8401C93.6937 61.6313 94.4478 61.4224 95.2247 61.2073C95.5547 60.5473 95.8847 59.8873 96.2247 59.2073C96.2247 60.8573 96.2247 62.5073 96.2247 64.2073C87.7962 66.6358 87.7962 66.6358 83.2247 65.2073C82.5647 62.5673 81.9047 59.9273 81.2247 57.2073Z" fill="#191D20"/>
<path d="M74.2247 37.2073C75.2147 37.2073 76.2047 37.2073 77.2247 37.2073C79.0825 40.3423 79.4261 42.582 79.2247 46.2073C76.5847 46.2073 73.9447 46.2073 71.2247 46.2073C72.2147 43.2373 73.2047 40.2673 74.2247 37.2073Z" fill="#222324"/>
<path d="M129.225 56.2073C135.83 64.224 134.46 75.3848 134.225 85.2073C133.895 85.2073 133.565 85.2073 133.225 85.2073C132.037 80.0586 131.919 74.9438 131.701 69.6799C131.191 65.9633 129.974 63.4925 128.225 60.2073C128.537 57.8323 128.537 57.8323 129.225 56.2073Z" fill="#3885C3"/>
<path d="M25.2247 54.2073C26.3497 55.9573 26.3497 55.9573 27.2247 58.2073C26.4747 60.2073 26.4747 60.2073 25.2247 62.2073C23.5181 65.2501 22.7308 68.0314 22.0997 71.4573C21.9322 72.3493 21.7646 73.2413 21.5919 74.1604C21.4707 74.8359 21.3496 75.5113 21.2247 76.2073C20.8947 76.2073 20.5647 76.2073 20.2247 76.2073C20.1435 74.1246 20.0854 72.041 20.0372 69.9573C20.0024 68.7971 19.9676 67.637 19.9318 66.4417C20.2512 62.9146 20.92 61.7885 23.2247 59.2073C23.9364 57.5593 24.6151 55.8956 25.2247 54.2073Z" fill="#05090C"/>
<path d="M33.2248 64.2073C34.5448 64.5373 35.8648 64.8673 37.2248 65.2073C37.2248 65.8673 37.2248 66.5273 37.2248 67.2073C36.5648 67.2073 35.9048 67.2073 35.2248 67.2073C37.3433 75.0822 37.3433 75.0822 41.2248 82.2073C38.5223 81.8345 37.4254 81.4228 35.5373 79.3948C33.3783 75.7964 33.1013 72.606 33.1623 68.4573C33.1713 67.6581 33.1803 66.8588 33.1896 66.0354C33.2012 65.4321 33.2128 64.8288 33.2248 64.2073Z" fill="#0E0E10"/>
<path d="M39.2247 82.2073C45.1647 82.8673 51.1047 83.5273 57.2247 84.2073C57.2247 84.8673 57.2247 85.5273 57.2247 86.2073C51.7667 87.742 46.3971 88.1826 41.1622 85.8323C40.5229 85.296 39.8835 84.7598 39.2247 84.2073C39.2247 83.5473 39.2247 82.8873 39.2247 82.2073Z" fill="#0F161B"/>
<path d="M98.2247 5.20729C98.2247 6.19729 98.2247 7.18729 98.2247 8.20729C96.3375 7.74323 96.3375 7.74323 94.4122 7.26979C86.1385 5.58152 77.639 5.53557 69.2247 5.20729C69.2247 4.87729 69.2247 4.54729 69.2247 4.20729C88.5043 2.66965 88.5043 2.66966 98.2247 5.20729Z" fill="#081826"/>
<path d="M75.4122 2.01978C76.4979 2.00141 76.4979 2.00141 77.6056 1.98267C79.4801 1.97744 81.3542 2.08479 83.2247 2.20728C83.8847 2.86728 84.5447 3.52728 85.2247 4.20728C77.6347 4.53728 70.0447 4.86728 62.2247 5.20728C62.2247 4.54728 62.2247 3.88728 62.2247 3.20728C66.6143 2.12928 70.9177 2.02384 75.4122 2.01978Z" fill="#010406"/>
<path d="M65.2247 26.2073C71.4947 26.2073 77.7647 26.2073 84.2247 26.2073C83.8947 26.8673 83.5647 27.5273 83.2247 28.2073C79.79 28.5387 76.3978 28.673 72.9513 28.7737C71.0386 28.8531 69.1302 29.0234 67.2247 29.2073C66.8947 29.8673 66.5647 30.5273 66.2247 31.2073C65.5647 31.2073 64.9047 31.2073 64.2247 31.2073C64.5547 29.5573 64.8847 27.9073 65.2247 26.2073Z" fill="#060606"/>
<path d="M44.2247 99.2073C44.2247 100.197 44.2247 101.187 44.2247 102.207C42.5747 102.537 40.9247 102.867 39.2247 103.207C39.2595 103.894 39.2943 104.581 39.3302 105.289C39.3573 106.19 39.3843 107.091 39.4122 108.02C39.4644 109.36 39.4644 109.36 39.5177 110.727C39.2247 113.207 39.2247 113.207 36.2247 116.207C36.2247 111.587 36.2247 106.967 36.2247 102.207C42.2247 99.2073 42.2247 99.2073 44.2247 99.2073Z" fill="#141C21"/>
<path d="M129.225 66.2073C129.885 66.2073 130.545 66.2073 131.225 66.2073C131.305 69.1662 131.365 72.1228 131.412 75.0823C131.45 76.3449 131.45 76.3449 131.488 77.6331C131.498 78.4387 131.508 79.2444 131.518 80.0745C131.533 80.8181 131.549 81.5617 131.565 82.3279C131.397 83.2582 131.397 83.2582 131.225 84.2073C129.74 85.1973 129.74 85.1973 128.225 86.2073C128.555 79.6073 128.885 73.0073 129.225 66.2073Z" fill="#010304"/>
<path d="M60.2247 134.207C68.1447 134.537 76.0647 134.867 84.2247 135.207C84.2247 135.537 84.2247 135.867 84.2247 136.207C78.6147 136.207 73.0047 136.207 67.2247 136.207C67.2247 136.867 67.2247 137.527 67.2247 138.207C64.9147 137.877 62.6047 137.547 60.2247 137.207C60.2247 136.217 60.2247 135.227 60.2247 134.207Z" fill="#221E1C"/>
<path d="M55.2247 120.207C57.5347 120.207 59.8447 120.207 62.2247 120.207C61.606 120.269 60.9872 120.331 60.3497 120.395C57.9471 121.036 57.9471 121.036 56.9747 123.77C56.7272 124.574 56.4797 125.379 56.2247 126.207C52.5372 125.709 50.6198 125.107 48.2247 122.207C51.235 121.273 52.0912 121.163 55.2247 122.207C55.2247 121.547 55.2247 120.887 55.2247 120.207Z" fill="#1C1512"/>
<path d="M28.2247 17.2073C29.2147 17.5373 30.2047 17.8673 31.2247 18.2073C28.2547 22.1673 28.2547 22.1673 25.2247 26.2073C23.9047 25.8773 22.5847 25.5473 21.2247 25.2073C22.7125 21.4201 24.8446 19.4332 28.2247 17.2073Z" fill="#1F71B6"/>
<path d="M106.225 117.207C106.885 117.537 107.545 117.867 108.225 118.207C107.225 121.207 107.225 121.207 105.483 122.41C104.779 122.756 104.075 123.101 103.35 123.457C102.651 123.813 101.952 124.169 101.233 124.535C99.2247 125.207 99.2247 125.207 96.2247 124.207C96.2247 123.547 96.2247 122.887 96.2247 122.207C97.8447 121.344 99.4709 120.492 101.1 119.645C102.005 119.169 102.91 118.693 103.842 118.203C105.021 117.71 105.021 117.71 106.225 117.207Z" fill="#0D0A09"/>
<path d="M62.2247 3.20728C62.5547 4.19728 62.8847 5.18728 63.2247 6.20728C59.9247 6.53728 56.6247 6.86728 53.2247 7.20728C52.8947 6.21728 52.5647 5.22728 52.2247 4.20728C55.698 3.04953 58.5854 3.13861 62.2247 3.20728Z" fill="#071E32"/>
<path d="M86.2247 92.2073C87.6627 92.5178 89.1001 92.8308 90.5372 93.1448C91.3377 93.3188 92.1382 93.4928 92.963 93.6721C95.2247 94.2073 95.2247 94.2073 98.2247 95.2073C98.2247 95.8673 98.2247 96.5273 98.2247 97.2073C89.6533 96.3501 89.6533 96.3501 86.2247 94.2073C86.2247 93.5473 86.2247 92.8873 86.2247 92.2073Z" fill="#090A0B"/>
<path d="M68.2247 54.2073C72.8447 54.2073 77.4647 54.2073 82.2247 54.2073C82.5547 55.1973 82.8847 56.1873 83.2247 57.2073C78.2747 56.8773 73.3247 56.5473 68.2247 56.2073C68.2247 55.5473 68.2247 54.8873 68.2247 54.2073Z" fill="#060607"/>
<path d="M114.225 76.2073C115.215 76.5373 116.205 76.8673 117.225 77.2073C116.489 78.3623 115.735 79.506 114.975 80.6448C114.557 81.2829 114.139 81.9209 113.709 82.5784C111.952 84.5063 110.764 84.8221 108.225 85.2073C109.752 81.7713 111.824 79.0882 114.225 76.2073Z" fill="#0A0E10"/>
<path d="M93.2247 51.2073C94.2147 51.5373 95.2047 51.8673 96.2247 52.2073C97.848 55.9664 98.4647 59.1281 98.2247 63.2073C97.5647 63.2073 96.9047 63.2073 96.2247 63.2073C95.7191 61.7717 95.2205 60.3338 94.7247 58.8948C94.4463 58.0943 94.1679 57.2938 93.881 56.469C93.2247 54.2073 93.2247 54.2073 93.2247 51.2073Z" fill="#080D12"/>
<path d="M40.2247 118.207C43.6897 119.692 43.6897 119.692 47.2247 121.207C46.5647 122.527 45.9047 123.847 45.2247 125.207C42.7247 123.957 42.7247 123.957 40.2247 122.207C40.2247 120.887 40.2247 119.567 40.2247 118.207Z" fill="#855F43"/>
<path d="M67.2247 55.2073C68.2147 55.2073 69.2047 55.2073 70.2247 55.2073C69.5647 58.1773 68.9047 61.1473 68.2247 64.2073C66.9047 63.8773 65.5847 63.5473 64.2247 63.2073C65.2147 60.5673 66.2047 57.9273 67.2247 55.2073Z" fill="#21272B"/>
<path d="M39.2247 11.2073C39.8847 11.5373 40.5447 11.8673 41.2247 12.2073C38.372 15.1393 35.5739 17.8504 32.2247 20.2073C33.7797 16.3904 36.2607 14.0153 39.2247 11.2073Z" fill="#010608"/>
<path d="M124.225 21.2073C126.7 21.7023 126.7 21.7023 129.225 22.2073C129.555 23.1973 129.885 24.1873 130.225 25.2073C128.905 25.5373 127.585 25.8673 126.225 26.2073C125.565 24.5573 124.905 22.9073 124.225 21.2073Z" fill="#2071B9"/>
<path d="M102.225 127.207C102.885 127.537 103.545 127.867 104.225 128.207C103.895 129.197 103.565 130.187 103.225 131.207C100.662 132.395 100.662 132.395 98.2247 133.207C98.2247 131.887 98.2247 130.567 98.2247 129.207C100.1 128.145 100.1 128.145 102.225 127.207Z" fill="#101419"/>
<path d="M61.2247 62.2073C63.6997 63.1973 63.6997 63.1973 66.2247 64.2073C66.5547 63.5473 66.8847 62.8873 67.2247 62.2073C67.2247 63.5273 67.2247 64.8473 67.2247 66.2073C64.5847 65.8773 61.9447 65.5473 59.2247 65.2073C59.8847 64.8773 60.5447 64.5473 61.2247 64.2073C61.2247 63.5473 61.2247 62.8873 61.2247 62.2073Z" fill="#0D181F"/>
<path d="M74.2247 37.2073C75.2147 37.2073 76.2047 37.2073 77.2247 37.2073C78.3497 40.9573 78.3497 40.9573 77.2247 43.2073C76.5647 43.2073 75.9047 43.2073 75.2247 43.2073C75.2247 42.2173 75.2247 41.2273 75.2247 40.2073C74.5647 40.2073 73.9047 40.2073 73.2247 40.2073C73.5547 39.2173 73.8847 38.2273 74.2247 37.2073Z" fill="#131517"/>
<path d="M136.225 34.2073C136.555 35.5273 136.885 36.8473 137.225 38.2073C135.245 39.1973 135.245 39.1973 133.225 40.2073C132.895 39.2173 132.565 38.2273 132.225 37.2073C133.545 36.2173 134.865 35.2273 136.225 34.2073Z" fill="#E0DFE1"/>
<path d="M17.2247 33.2073C19.1622 34.0198 19.1622 34.0198 21.2247 35.2073C21.5547 36.1973 21.8847 37.1873 22.2247 38.2073C20.3497 37.8948 20.3497 37.8948 18.2247 37.2073C17.5647 36.2173 16.9047 35.2273 16.2247 34.2073C16.5547 33.8773 16.8847 33.5473 17.2247 33.2073Z" fill="#282827"/>
</svg>
