<svg width="152" height="152" viewBox="0 0 152 152" fill="none" xmlns="http://www.w3.org/2000/svg">
<path d="M122.535 15.4629C123.525 16.9479 123.525 16.9479 124.535 18.4629C123.545 19.1229 122.555 19.7829 121.535 20.4629C123.515 20.7929 125.495 21.1229 127.535 21.4629C127.535 24.7629 127.535 28.0629 127.535 31.4629C128.195 31.4629 128.855 31.4629 129.535 31.4629C129.865 29.1529 130.195 26.8429 130.535 24.4629C134.629 27.4108 137.371 30.6707 140.035 34.9004C140.423 35.5129 140.812 36.1255 141.213 36.7566C148.856 49.1827 151.893 61.9033 151.847 76.3379C151.863 77.3498 151.879 78.3617 151.896 79.4043C151.908 98.4888 143.003 116.2 129.847 129.713C114.965 144.366 94.7561 151.588 74.0347 151.9C56.431 151.735 38.5525 144.318 25.5347 132.463C24.778 131.786 24.0214 131.109 23.2417 130.412C8.86877 116.858 0.703385 97.6573 0.0090811 78.0159C-0.127123 66.967 1.24817 57.6349 5.53472 47.4629C5.98073 46.3994 6.42675 45.3359 6.88628 44.2402C10.3793 36.6784 15.0062 29.699 20.5347 23.4629C21.1947 23.4629 21.8547 23.4629 22.5347 23.4629C22.8647 25.7729 23.1947 28.0829 23.5347 30.4629C23.6559 29.7526 23.7771 29.0423 23.9019 28.3105C24.0695 27.3914 24.2371 26.4723 24.4097 25.5254C24.5721 24.6089 24.7346 23.6923 24.9019 22.748C25.1107 21.9939 25.3196 21.2398 25.5347 20.4629C26.1947 20.1329 26.8547 19.8029 27.5347 19.4629C27.5347 18.8029 27.5347 18.1429 27.5347 17.4629C54.4192 -6.08378 94.2708 -4.25182 122.535 15.4629Z" fill="#110D09"/>
<path d="M20.5347 23.4629C21.1947 23.4629 21.8547 23.4629 22.5347 23.4629C22.6211 24.4787 22.7075 25.4945 22.7964 26.541C23.5986 34.7364 24.8995 41.5281 28.6089 49.0098C29.6473 51.7612 29.6566 52.7864 28.5347 55.4629C27.8747 56.3291 27.2147 57.1954 26.5347 58.0879C24.4207 61.6553 24.4573 62.3328 24.5972 66.2129C24.4612 69.009 24.1498 70.7728 22.2613 72.8916C12.7182 81.4629 12.7182 81.4629 8.53472 81.4629C8.53472 82.4529 8.53472 83.4429 8.53472 84.4629C9.27722 84.731 10.0197 84.9991 10.7847 85.2754C13.4011 86.4052 15.3366 87.6718 17.5347 89.4629C17.041 89.8612 16.5473 90.2595 16.0386 90.6699C15.398 91.1997 14.7573 91.7295 14.0972 92.2754C13.4591 92.7975 12.821 93.3195 12.1636 93.8574C10.2799 95.4712 10.2799 95.4712 9.53472 98.4629C10.2927 98.6743 11.0507 98.8857 11.8316 99.1035C17.0587 101.022 21.8657 103.617 26.7847 106.213C28.2639 106.982 28.2639 106.982 29.773 107.768C48.0789 117.367 48.0789 117.367 53.0972 122.963C60.0247 130.058 64.8299 134.022 74.9722 134.15C83.6505 133.938 89.8697 132.252 96.066 125.846C96.9934 124.843 97.9205 123.841 98.8472 122.838C105.899 115.232 114.667 111.17 123.909 106.728C127.196 105.144 130.451 103.5 133.708 101.854C136.642 100.375 139.588 98.9177 142.535 97.4629C139.957 94.8154 137.618 92.5186 134.535 90.4629C135.535 87.4629 135.535 87.4629 138.472 85.7754C141.535 84.4629 141.535 84.4629 143.535 84.4629C143.535 83.4729 143.535 82.4829 143.535 81.4629C142.818 81.1935 142.101 80.9241 141.363 80.6465C136.516 78.6182 132.191 76.2893 128.535 72.4629C127.789 69.5541 127.721 67.0409 127.742 64.0449C127.505 61.0963 126.921 60.1864 124.91 58.0879C123.734 56.7885 123.734 56.7885 122.535 55.4629C122.886 51.9278 124.093 48.8655 125.41 45.5879C127.99 38.7035 129.249 31.6832 130.535 24.4629C134.629 27.4109 137.371 30.6707 140.035 34.9004C140.423 35.5129 140.812 36.1255 141.213 36.7566C148.856 49.1827 151.893 61.9034 151.847 76.3379C151.863 77.3498 151.879 78.3617 151.896 79.4043C151.908 98.4888 143.003 116.2 129.847 129.713C114.965 144.366 94.7561 151.588 74.0347 151.9C56.431 151.735 38.5525 144.318 25.5347 132.463C24.778 131.786 24.0214 131.109 23.2417 130.412C8.86877 116.858 0.703385 97.6573 0.0090811 78.0159C-0.127123 66.9671 1.24817 57.6349 5.53472 47.4629C5.98073 46.3994 6.42675 45.3359 6.88628 44.2402C10.3793 36.6785 15.0062 29.699 20.5347 23.4629Z" fill="#825B3C"/>
<path d="M45.7847 52.5254C46.9616 52.5157 48.1385 52.506 49.3511 52.4961C56.7245 52.6314 61.3392 53.9666 67.421 58.1072C71.9295 60.9988 76.4697 60.3543 81.5347 59.4629C84.1073 58.1326 84.1073 58.1326 86.5855 56.4707C92.9879 52.8361 98.5313 52.4957 105.785 52.5879C107.482 52.5279 107.482 52.5279 109.214 52.4668C114.832 52.4734 118.7 52.772 122.789 56.8574C126.307 61.7209 126.485 66.1836 126.222 72.0254C126.224 72.9322 126.226 73.8391 126.228 74.7734C126.102 80.7763 125.217 84.6634 121.535 89.4629C118.8 91.1348 118.8 91.1348 115.785 92.2129C114.197 92.7968 114.197 92.7968 112.578 93.3926C111.574 93.7458 110.569 94.099 109.535 94.4629C108.055 95.0875 106.576 95.7125 105.097 96.3379C101.311 97.5334 100.225 97.5536 96.5347 96.4629C94.4773 95.3841 92.4571 94.2324 90.4722 93.0254C81.6422 87.6123 81.6422 87.6123 71.5347 87.4629C68.4847 88.8434 65.8415 90.6829 63.0972 92.5879C54.0745 98.3161 54.0745 98.3161 49.3472 97.4004C47.7245 96.8027 46.1215 96.1503 44.5347 95.4629C43.3552 95.12 42.1757 94.7771 40.9605 94.4238C31.3683 91.5255 31.3683 91.5255 28.1597 87.4355C25.8681 82.8056 25.8734 78.1669 25.9097 73.0879C25.8775 72.1933 25.8453 71.2987 25.8121 70.3769C25.8035 64.5162 26.8341 59.9057 30.3946 55.1592C34.8853 51.5998 40.3166 52.3037 45.7847 52.5254Z" fill="#E74D2A"/>
<path d="M73.9294 27.0718C75.9659 27.0878 78.0003 27.0719 80.0366 27.0527C92.3638 27.0889 101.41 28.2555 110.429 37.0449C113.916 41.0492 116.535 44.9924 116.535 50.4629C115.83 50.4618 115.125 50.4606 114.398 50.4595C111.151 50.4717 107.906 50.5295 104.66 50.5879C103.551 50.5853 102.442 50.5827 101.3 50.5801C94.0584 50.7505 89.6671 52.0491 83.6748 56.105C80.9122 57.8578 78.7914 58.2684 75.5347 58.2129C74.6272 58.2284 73.7197 58.2438 72.7847 58.2598C69.4541 57.4431 67.7852 56.3694 64.98 54.4707C58.9197 50.6532 53.4272 50.5716 46.4097 50.5879C45.2624 50.5673 44.1151 50.5466 42.9331 50.5254C40.1329 50.4787 37.3352 50.4584 34.5347 50.4629C37.1913 42.0761 40.376 36.7179 47.7651 31.7871C56.381 27.6675 64.4286 26.9828 73.9294 27.0718Z" fill="#8B6241"/>
<path d="M122.535 15.4629C123.525 16.9479 123.525 16.9479 124.535 18.4629C122.798 18.9521 122.798 18.9521 121.027 19.4512C119.488 19.8923 117.949 20.3337 116.41 20.7754C115.269 21.0954 115.269 21.0954 114.105 21.4219C109.627 22.715 105.707 24.3555 101.535 26.4629C98.26 26.6927 95.4458 26.6644 92.2407 25.9556C89.0495 25.3746 86.0442 25.3332 82.8003 25.3301C80.8551 25.3282 80.8551 25.3282 78.8706 25.3262C77.8627 25.3293 77.8627 25.3293 76.8345 25.3325C74.8048 25.3379 72.7753 25.3326 70.7456 25.3262C62.6234 25.3215 62.6234 25.3215 54.5581 26.1465C50.078 26.7339 46.9348 25.5393 42.9097 23.6504C38.1701 21.5434 33.5489 19.7841 28.5347 18.4629C36.207 7.60477 51.6032 3.25247 64.1162 0.837911C84.5653 -2.33288 105.672 3.70072 122.535 15.4629Z" fill="#835C3C"/>
<path d="M65.5346 93.4629C66.7783 95.3283 68.0098 97.202 69.2221 99.0879C71.4251 101.729 71.4251 101.729 74.9721 102.525C78.5617 102.75 78.5617 102.75 81.3471 100.838C83.5682 98.4265 84.5836 96.5754 85.5346 93.4629C89.0309 94.8211 92.4178 96.3097 95.7846 97.9629C97.0918 98.5971 97.0918 98.5971 98.4253 99.2441C100.535 100.463 100.535 100.463 101.535 102.463C101.658 104.398 101.71 106.337 101.722 108.275C101.736 109.313 101.751 110.351 101.765 111.42C101.23 118.491 97.6205 121.989 92.5346 126.463C92.0048 126.977 91.475 127.492 90.9292 128.021C85.2608 132.6 78.0299 132.585 71.0425 132.209C63.1073 131.285 58.2628 126.38 52.9175 120.764C49.1832 115.652 50.0237 108.452 50.5346 102.463C52.142 99.2482 55.4756 98.3392 58.5971 96.8379C59.2604 96.513 59.9236 96.1882 60.6069 95.8535C62.2469 95.0512 63.8904 94.2564 65.5346 93.4629Z" fill="#8A6140"/>
<path d="M27.5347 17.4629C30.0571 18.229 32.5776 19.0006 35.0972 19.7754C36.154 20.0954 36.154 20.0954 37.232 20.4219C40.6788 21.4861 43.7543 22.5726 46.9996 24.1934C50.6996 25.5221 52.9889 25.3964 56.8219 24.7998C62.1047 24.1437 67.4401 24.3157 72.7564 24.3325C74.7946 24.3379 76.8325 24.3325 78.8707 24.3262C80.8159 24.3281 80.8159 24.3281 82.8004 24.3301C83.9737 24.3312 85.1471 24.3323 86.356 24.3335C89.2173 24.45 91.751 24.8313 94.5348 25.4629C100.759 26.2251 105.021 24.117 110.578 21.6426C114.322 20.1489 117.531 19.6939 121.535 19.4629C121.535 19.7929 121.535 20.1229 121.535 20.4629C124.505 20.9579 124.505 20.9579 127.535 21.4629C127.241 31.4037 126.029 40.4743 121.535 49.4629C120.875 49.4629 120.215 49.4629 119.535 49.4629C118.545 47.1529 117.555 44.8429 116.535 42.4629C115.545 42.4629 114.555 42.4629 113.535 42.4629C111.957 40.8535 111.957 40.8535 110.285 38.7129C105.142 32.6101 99.4823 29.709 91.5348 28.4629C87.0994 28.1921 82.6775 28.133 78.2359 28.1472C76.1709 28.1504 74.1074 28.1269 72.0426 28.1016C59.9422 28.0437 51.4793 29.8734 41.9722 37.5254C38.4899 41.7221 36.5986 46.4481 34.5347 51.4629C34.0397 49.9779 34.0397 49.9779 33.5347 48.4629C32.5447 48.7929 31.5547 49.1229 30.5347 49.4629C29.8864 47.7138 29.2412 45.9636 28.5972 44.2129C28.2376 43.2384 27.878 42.2638 27.5074 41.2598C25.8021 36.3561 25.4237 32.4561 25.4723 27.2129C25.4813 25.9496 25.4903 24.6863 25.4996 23.3848C25.5112 22.4205 25.5228 21.4563 25.5348 20.4629C26.1948 20.1329 26.8547 19.8029 27.5347 19.4629C27.5347 18.8029 27.5347 18.1429 27.5347 17.4629Z" fill="#0E0B07"/>
<path d="M56.5347 60.4629C61.1273 61.8654 63.9436 63.3651 66.5347 67.4629C67.865 72.4327 67.959 76.5073 66.5347 81.4629C63.9097 84.4002 61.0927 85.8652 57.5347 87.4629C56.5447 88.1229 55.5547 88.7829 54.5347 89.4629C47.887 89.2254 41.5153 87.3827 35.5347 84.4629C32.9816 80.6333 33.2036 77.4623 33.2222 73.0254C33.2061 72.2616 33.19 71.4978 33.1734 70.7109C33.1706 67.5208 33.3448 64.9762 34.4566 61.9707C40.0431 57.9173 50.0223 59.5508 56.5347 60.4629Z" fill="#F2B125"/>
<path d="M115.535 60.4629C118.051 63.0203 118.915 64.9065 118.933 68.4668C118.939 69.5777 118.939 69.5777 118.945 70.711C118.933 71.4747 118.922 72.2385 118.91 73.0254C118.921 73.793 118.933 74.5607 118.945 75.3516C118.916 80.8179 118.916 80.8179 117.437 83.3184C114.64 85.001 111.791 86.1019 108.722 87.2129C106.918 87.8858 106.918 87.8858 105.078 88.5723C99.3023 90.0241 95.2015 88.7808 90.1598 85.7754C86.8788 83.3707 85.7105 82.0747 84.5777 78.1309C84.2726 73.2746 84.5363 69.3463 86.8394 65.002C93.2318 58.5035 107.042 58.2047 115.535 60.4629Z" fill="#F2B226"/>
<path d="M92.5347 53.4629C96.7212 53.2293 100.906 53.0881 105.097 52.9629C106.279 52.8959 107.46 52.8288 108.677 52.7598C117.068 52.5717 117.068 52.5717 120.912 54.908C124.432 58.4402 125.914 61.6364 126.359 66.5918C126.35 68.4036 126.304 70.2155 126.222 72.0254C126.224 72.9323 126.226 73.8391 126.228 74.7735C126.102 80.7764 125.217 84.6634 121.535 89.4629C118.8 91.1348 118.8 91.1348 115.785 92.2129C114.197 92.7969 114.197 92.7969 112.578 93.3926C111.573 93.7458 110.569 94.099 109.535 94.4629C108.055 95.0876 106.576 95.7125 105.097 96.3379C100.306 97.8509 97.9964 97.212 93.562 94.9395C92.5424 94.3285 91.5227 93.7174 90.4722 93.0879C88.9388 92.1791 88.9388 92.1791 87.3745 91.252C84.9929 89.7516 82.7503 88.1951 80.5347 86.4629C85.2847 87.3379 85.2847 87.3379 87.5347 88.4629C86.8629 85.364 86.8629 85.364 84.5269 84.2559C82.0241 82.0034 81.8662 80.2067 81.6729 76.9146C81.6167 67.8038 81.6167 67.8038 84.4253 63.7012C89.8672 59.0721 95.4675 57.0644 102.535 56.4629C102.535 55.8029 102.535 55.1429 102.535 54.4629C99.2347 54.4629 95.9347 54.4629 92.5347 54.4629C92.5347 54.1329 92.5347 53.8029 92.5347 53.4629ZM86.8394 65.002C83.9879 70.3805 83.8733 75.6788 85.5347 81.4629C89.0781 85.6543 93.1487 87.7481 98.3511 89.3067C102.681 89.5191 105.873 88.2523 109.847 86.6504C110.575 86.3765 111.303 86.1026 112.052 85.8203C116.009 84.516 116.009 84.516 118.535 81.4629C118.686 78.6577 118.766 75.894 118.785 73.0879C118.805 72.3196 118.826 71.5513 118.847 70.7598C118.852 70.0147 118.857 69.2696 118.863 68.502C118.872 67.8234 118.881 67.1449 118.891 66.4458C118.405 63.7398 117.46 62.4121 115.535 60.4629C107.042 58.2047 93.2317 58.5035 86.8394 65.002Z" fill="#E04529"/>
<path d="M23.5347 75.4629C23.621 76.1036 23.7074 76.7442 23.7964 77.4043C23.9369 78.2693 24.0774 79.1342 24.2222 80.0254C24.3498 80.8723 24.4774 81.7192 24.6089 82.5918C26.1218 87.2836 28.1541 91.1915 32.6296 93.5818C35.0142 94.4792 37.3931 95.2166 39.8472 95.9004C41.1011 96.2823 41.1011 96.2823 42.3804 96.6719C44.4252 97.2912 46.4791 97.8802 48.5347 98.4629C48.2047 103.743 47.8747 109.023 47.5347 114.463C36.0195 109.108 24.6698 103.571 13.5347 97.4629C14.8694 93.4588 17.0947 92.7562 20.5347 90.4629C20.8647 89.4729 21.1947 88.4829 21.5347 87.4629C20.7922 87.1948 20.0497 86.9266 19.2847 86.6504C16.658 85.5161 14.7755 84.2105 12.5347 82.4629C13.9883 81.2904 15.4477 80.1251 16.9097 78.9629C18.1278 77.9884 18.1278 77.9884 19.3706 76.9941C21.5347 75.4629 21.5347 75.4629 23.5347 75.4629Z" fill="#875F3E"/>
<path d="M128.535 75.4629C130.043 76.3874 131.541 77.328 133.035 78.2754C133.87 78.7975 134.705 79.3195 135.566 79.8574C136.216 80.3872 136.865 80.917 137.535 81.4629C137.535 82.4529 137.535 83.4429 137.535 84.4629C135.555 85.4529 133.575 86.4429 131.535 87.4629C131.582 89.3417 131.582 89.3417 132.535 91.4629C134.51 92.8332 136.509 94.1696 138.535 95.4629C138.535 96.1229 138.535 96.7829 138.535 97.4629C127.201 103.13 115.868 108.796 104.535 114.463C104.205 109.183 103.875 103.903 103.535 98.4629C105.522 97.8267 105.522 97.8267 107.55 97.1777C109.296 96.5866 111.04 95.9941 112.785 95.4004C113.657 95.1252 114.53 94.85 115.429 94.5664C119.667 93.0946 122.709 91.9847 125.066 88.0254C126.255 85.1418 127.221 82.5788 127.785 79.5254C127.934 78.7532 128.084 77.9811 128.238 77.1855C128.336 76.6171 128.434 76.0486 128.535 75.4629Z" fill="#885F40"/>
<path d="M24.5347 62.4629C24.8647 62.4629 25.1947 62.4629 25.5347 62.4629C25.602 63.3778 25.602 63.3778 25.6707 64.3113C25.8828 67.0922 26.1148 69.8711 26.3472 72.6504C26.4174 73.6101 26.4877 74.5698 26.5601 75.5586C26.9994 80.637 27.4449 84.2388 30.5347 88.4629C30.5347 89.1229 30.5347 89.7829 30.5347 90.4629C31.2127 90.6446 31.8908 90.8264 32.5894 91.0137C33.5201 91.265 34.4508 91.5164 35.4097 91.7754C36.4087 92.0448 37.4077 92.3142 38.437 92.5918C42.109 93.6244 45.7279 94.7947 49.3433 96.0098C53.1715 96.8013 55.8965 95.4138 59.1089 93.3965C59.7773 92.9937 60.4456 92.5908 61.1343 92.1758C62.5138 91.3331 63.8864 90.4791 65.2515 89.6133C70.3972 86.5514 74.5704 85.6947 80.5347 86.4629C82.0197 86.9579 82.0197 86.9579 83.5347 87.4629C83.2047 88.7829 82.8747 90.1029 82.5347 91.4629C81.5447 90.8029 80.5547 90.1429 79.5347 89.4629C76.0768 88.9628 76.0768 88.9628 72.5347 89.4629C71.9469 90.0533 71.359 90.6437 70.7534 91.252C68 93.9957 64.9279 95.5406 61.4722 97.2129C60.8476 97.5287 60.2231 97.8445 59.5796 98.1699C56.7076 99.586 54.7782 100.463 51.5347 100.463C51.4857 101.089 51.4367 101.716 51.3862 102.361C51.3115 103.179 51.2367 103.996 51.1597 104.838C51.0901 105.65 51.0204 106.462 50.9487 107.299C50.5347 109.463 50.5347 109.463 48.5347 111.463C48.5347 107.173 48.5347 102.883 48.5347 98.4629C47.2559 98.2154 45.9772 97.9679 44.6597 97.7129C30.5634 94.489 30.5634 94.489 26.4722 88.9004C23.7593 84.0873 23.4315 80.9308 23.5347 75.4629C20.2347 77.7729 16.9347 80.0829 13.5347 82.4629C16.1747 84.1129 18.8147 85.7629 21.5347 87.4629C20.2902 92.4409 18.7353 92.8375 14.5347 95.4629C14.2047 96.1229 13.8747 96.7829 13.5347 97.4629C14.4103 97.7354 15.2859 98.008 16.188 98.2888C19.3399 99.3946 22.1324 100.69 25.0815 102.248C26.0909 102.778 27.1002 103.309 28.1401 103.855C29.1778 104.407 30.2155 104.958 31.2847 105.525C32.3378 106.08 33.391 106.635 34.4761 107.207C36.4157 108.229 38.3542 109.253 40.2915 110.28C41.6984 111.022 43.1119 111.752 44.5347 112.463C44.2047 113.783 43.8747 115.103 43.5347 116.463C32.1813 110.5 20.8415 104.513 9.53467 98.4629C10.3437 93.6701 12.7945 92.3277 16.5347 89.4629C15.6684 88.9737 15.6684 88.9737 14.7847 88.4746C14.0422 88.0376 13.2997 87.6006 12.5347 87.1504C11.7922 86.7211 11.0497 86.2919 10.2847 85.8496C9.70717 85.392 9.12967 84.9344 8.53467 84.4629C8.53467 83.4729 8.53467 82.4829 8.53467 81.4629C11.4427 79.3504 14.3916 77.425 17.4702 75.5742C21.1991 73.1932 21.1991 73.1932 23.1641 69.3823C23.388 67.418 23.4705 65.4389 23.5347 63.4629C23.8647 63.1329 24.1947 62.8029 24.5347 62.4629Z" fill="#0E0B07"/>
<path d="M49.2287 56.8164C56.8354 57.0184 61.7911 58.1593 67.5424 63.4356C70.7292 68.2782 71.6605 72.7914 70.9252 78.5488C69.463 84.2293 65.1793 86.7745 60.4885 89.8084C54.4862 93.2099 50.4484 92.2476 43.894 90.4824C42.7029 90.0841 41.5118 89.6858 40.2846 89.2754C39.0832 88.89 37.8818 88.5045 36.644 88.1074C32.7208 86.0325 31.9176 84.651 30.5346 80.4629C30.101 77.5933 30.0245 74.7993 30.0346 71.9004C30.0062 71.1586 29.9779 70.4167 29.9487 69.6524C29.9334 65.3792 30.1601 63.9127 33.0033 60.4981C33.8387 59.8265 34.674 59.1549 35.5346 58.4629C38.2777 55.7198 45.5678 56.8437 49.2287 56.8164ZM34.4643 61.9746C33.1031 65.6179 33.0613 69.1281 33.0971 72.9629C33.0771 73.7222 33.0571 74.4814 33.0365 75.2637C33.0396 78.7141 33.2027 80.9838 35.1908 83.8535C37.8898 85.7068 40.3522 86.7215 43.4721 87.7129C44.4917 88.0481 45.5114 88.3832 46.5619 88.7285C50.9611 89.8153 53.3066 90.1054 57.394 87.9668C58.3479 87.3262 59.3018 86.6855 60.2846 86.0254C61.2488 85.3873 62.213 84.7492 63.2065 84.0918C65.3929 82.6626 65.3929 82.6626 66.5346 81.4629C67.4067 75.8054 68.104 70.0156 65.0072 64.9785C58.1191 59.1194 49.4392 59.5782 40.851 59.8262C37.984 60.1024 36.8203 60.2543 34.4643 61.9746Z" fill="#19150D"/>
<path d="M104.785 56.9629C106.198 56.8817 106.198 56.8817 107.64 56.7988C111.374 56.7255 114.314 56.6993 117.538 58.7161C120.699 61.9068 121.886 64.6851 122.078 69.1621C121.992 70.8269 121.873 72.4903 121.722 74.1504C121.689 74.9915 121.656 75.8326 121.623 76.6992C121.346 80.7036 121.113 82.8129 118.394 85.8691C115.188 87.6563 112.053 89.0333 108.597 90.2754C107.413 90.715 106.228 91.1545 105.007 91.6074C99.8302 92.8828 96.9693 92.2817 92.3589 89.6504C91.3238 88.9285 90.2886 88.2066 89.2222 87.4629C87.6501 86.3801 87.6501 86.3801 86.0464 85.2754C83.5347 83.4629 83.5347 83.4629 82.5347 82.4629C81.8206 77.1915 81.2335 71.6807 82.5347 66.4629C88.6382 58.5382 95.4259 57.1896 104.785 56.9629ZM86.8393 65.002C83.9879 70.3804 83.8733 75.6787 85.5347 81.4629C89.0781 85.6542 93.1487 87.7481 98.3511 89.3066C102.681 89.5191 105.873 88.2523 109.847 86.6504C110.575 86.3765 111.303 86.1025 112.052 85.8203C116.009 84.5159 116.009 84.5159 118.535 81.4629C118.686 78.6577 118.766 75.894 118.785 73.0879C118.805 72.3196 118.826 71.5513 118.847 70.7598C118.852 70.0147 118.857 69.2696 118.863 68.502C118.872 67.8234 118.881 67.1449 118.891 66.4458C118.405 63.7398 117.46 62.4121 115.535 60.4629C107.042 58.2046 93.2317 58.5035 86.8393 65.002Z" fill="#1F140A"/>
<path d="M103.535 24.4629C101.535 26.4629 101.535 26.4629 98.2222 26.6504C94.5347 26.4629 94.5347 26.4629 92.2251 25.9595C89.039 25.3714 86.0405 25.3332 82.8003 25.3301C80.8551 25.3281 80.8551 25.3281 78.8706 25.3262C77.8627 25.3293 77.8627 25.3293 76.8345 25.3325C74.8048 25.3378 72.7753 25.3326 70.7456 25.3262C63.9237 25.3329 57.2939 25.5249 50.5347 26.4629C50.5347 25.4729 50.5347 24.4829 50.5347 23.4629C52.6176 22.8157 54.701 22.1702 56.7847 21.5254C57.9448 21.1657 59.105 20.8061 60.3003 20.4355C61.3676 20.1146 62.435 19.7936 63.5347 19.4629C64.1728 19.2618 64.8108 19.0607 65.4683 18.8535C77.8586 16.5113 92.4593 18.392 103.535 24.4629Z" fill="#906B4D"/>
<path d="M79.5347 88.4629C80.5247 89.1229 81.5147 89.7829 82.5347 90.4629C83.1947 89.8029 83.8547 89.1429 84.5347 88.4629C87.0347 89.7754 87.0347 89.7754 89.5347 91.4629C89.5347 92.4529 89.5347 93.4429 89.5347 94.4629C88.2147 94.1329 86.8947 93.8029 85.5347 93.4629C85.1944 94.8241 85.1944 94.8241 84.8472 96.2129C83.2987 100.047 82.1426 101.458 78.5347 103.463C75.032 103.588 72.7265 103.467 69.9761 101.15C67.6473 98.5116 66.5347 97.0371 66.5347 93.4629C67.1947 93.4629 67.8547 93.4629 68.5347 93.4629C68.8647 92.4729 69.1947 91.4829 69.5347 90.4629C73.2218 88.0048 75.1781 88.1517 79.5347 88.4629Z" fill="#0D0A09"/>
<path d="M68.5347 82.4629C68.5347 83.7962 68.5347 85.1296 68.5347 86.4629C69.5247 86.7929 70.5147 87.1229 71.5347 87.4629C57.3454 97.0756 57.3454 97.0756 51.6714 97.8574C49.0893 97.3497 46.9494 96.511 44.5347 95.4629C43.3436 95.1084 42.1525 94.7539 40.9253 94.3887C31.0967 91.3962 31.0967 91.3962 28.6245 87.291C28.2649 86.3577 27.9052 85.4245 27.5347 84.4629C28.5247 84.7929 29.5147 85.1229 30.5347 85.4629C31.1947 84.8029 31.8547 84.1429 32.5347 83.4629C32.8788 83.9012 33.223 84.3395 33.5776 84.791C36.3377 87.149 39.4527 88.0979 42.8472 89.2129C43.8246 89.5629 43.8246 89.5629 44.8218 89.9199C49.1339 91.3616 52.1777 91.7986 56.5347 90.4629C59.7977 88.6483 59.7977 88.6483 62.9097 86.4004C63.9693 85.6669 65.0289 84.9334 66.1206 84.1777C66.9172 83.6118 67.7139 83.0459 68.5347 82.4629Z" fill="#DD4527"/>
<path d="M29.5347 109.463C33.9517 110.061 37.4638 111.774 41.2847 113.963C41.9001 114.315 42.5156 114.666 43.1497 115.029C48.803 118.393 53.1489 122.575 57.5347 127.463C58.5483 128.491 59.5678 129.513 60.5972 130.525C61.5562 131.484 61.5562 131.484 62.5347 132.463C50.3674 128.745 40.0811 123.112 31.5347 113.463C31.5347 112.803 31.5347 112.143 31.5347 111.463C30.8747 111.463 30.2147 111.463 29.5347 111.463C29.5347 110.803 29.5347 110.143 29.5347 109.463Z" fill="#906A4B"/>
<path d="M126.535 22.4629C126.865 22.4629 127.195 22.4629 127.535 22.4629C127.226 32.0284 125.856 40.8201 121.535 49.4629C120.875 49.4629 120.215 49.4629 119.535 49.4629C118.638 47.7448 117.768 46.0129 116.91 44.2754C116.422 43.3125 115.935 42.3495 115.433 41.3574C114.535 38.4629 114.535 38.4629 115.136 35.8574C116.67 33.2306 118.318 31.416 120.535 29.3379C122.925 27.0795 124.696 25.2205 126.535 22.4629Z" fill="#775035"/>
<path d="M25.5347 24.4629C34.4793 31.732 34.4793 31.732 37.5347 36.4629C36.818 41.275 34.0145 45.3298 31.5347 49.4629C27.1902 45.1185 25.7771 37.3613 25.2769 31.3809C25.2835 29.0604 25.3468 26.7752 25.5347 24.4629Z" fill="#755035"/>
<path d="M123.535 108.463C119.448 117.633 109.432 124.778 100.277 128.342C98.3472 128.9 98.3472 128.9 95.5347 129.463C96.4503 128.233 97.3672 127.004 98.2847 125.775C98.7951 125.091 99.3056 124.406 99.8315 123.701C100.394 122.963 100.956 122.224 101.535 121.463C102.106 120.638 102.677 119.813 103.265 118.963C106.173 115.76 109.276 114.093 113.097 112.15C113.769 111.791 114.442 111.432 115.134 111.062C118.108 109.512 120.135 108.463 123.535 108.463Z" fill="#936D4D"/>
<path d="M125.535 46.4629C129.195 49.6014 130.417 52.2936 131.722 56.9004C132.046 58.0129 132.369 59.1253 132.703 60.2715C134.068 65.5075 134.641 70.0295 134.535 75.4629C132.535 74.4629 130.535 73.4629 128.535 72.4629C128.296 70.1699 128.296 70.1699 128.222 67.2754C127.96 63.3014 127.686 61.0017 124.91 58.0879C122.535 55.4629 122.535 55.4629 122.597 52.8379C123.468 50.6327 124.383 48.5354 125.535 46.4629Z" fill="#906B4A"/>
<path d="M49.299 56.8515C57.026 56.9727 61.0491 58.5177 66.8667 63.7129C67.6923 64.5791 67.6923 64.5791 68.5346 65.4629C67.5446 66.1229 66.5546 66.7829 65.5346 67.4629C65.117 67.0297 64.6993 66.5966 64.269 66.1504C58.5807 61.3131 53.3592 60.8584 46.1596 60.8379C45.2673 60.8275 44.3749 60.8172 43.4555 60.8066C38.5676 60.8267 38.5676 60.8267 34.4761 63.1738C33.4096 65.7668 33.0311 67.9165 32.8471 70.7129C32.7485 72.0509 32.7485 72.0509 32.6479 73.416C32.5919 74.4292 32.5919 74.4292 32.5346 75.4629C31.8746 75.4629 31.2146 75.4629 30.5346 75.4629C29.769 64.7945 29.769 64.7945 31.6128 61.5879C32.9721 60.2754 32.9721 60.2754 35.5346 58.4629C38.2692 55.7283 45.6371 56.9134 49.299 56.8515Z" fill="#31160D"/>
<path d="M25.5347 46.4629C27.488 48.0765 28.5001 49.385 29.5347 51.7129C29.5347 55.3008 27.9078 56.7205 25.73 59.4277C24.2496 61.9484 24.1615 63.8094 24.0347 66.7129C23.9136 69.2832 23.9136 69.2832 23.5347 71.4629C20.9722 73.5879 20.9722 73.5879 18.5347 74.4629C17.6169 64.4682 19.9302 54.8697 25.5347 46.4629Z" fill="#936E4D"/>
<path d="M26.5347 21.4629C34.1568 22.0492 41.6706 24.0308 48.5347 27.4629C48.5347 28.1229 48.5347 28.7829 48.5347 29.4629C45.2626 31.917 42.5271 33.621 38.5347 34.4629C37.9198 33.7758 37.3049 33.0888 36.6714 32.3809C35.8631 31.4798 35.0549 30.5788 34.2222 29.6504C33.4217 28.7571 32.6212 27.8637 31.7964 26.9434C30.0824 25.0636 28.3559 23.237 26.5347 21.4629Z" fill="#895F3E"/>
<path d="M124.535 22.4629C123.833 23.1435 123.132 23.8242 122.41 24.5254C119.255 27.6707 116.395 31.0518 113.535 34.4629C109.1 33.0692 106.661 30.8571 103.535 27.4629C105.095 26.8116 106.658 26.1671 108.222 25.5254C109.092 25.1658 109.962 24.8061 110.859 24.4356C115.499 22.7488 119.611 22.3484 124.535 22.4629Z" fill="#855C3D"/>
<path d="M121.535 20.4629C123.533 20.8087 125.532 21.1443 127.535 21.4629C126.545 23.1129 125.555 24.7629 124.535 26.4629C123.875 25.8029 123.215 25.1429 122.535 24.4629C122.865 24.1329 123.195 23.8029 123.535 23.4629C116.398 23.7608 110.874 25.1837 104.535 28.4629C103.545 28.9579 103.545 28.9579 102.535 29.4629C102.205 28.1429 101.875 26.8229 101.535 25.4629C103.45 24.6468 105.367 23.8352 107.285 23.0254C108.352 22.5729 109.419 22.1204 110.519 21.6543C114.778 19.9718 117.145 19.1719 121.535 20.4629ZM119.535 26.4629C120.195 26.7929 120.855 27.1229 121.535 27.4629C118.07 30.4329 118.07 30.4329 114.535 33.4629C116.152 30.2281 117.011 28.7571 119.535 26.4629Z" fill="#100C08"/>
<path d="M61.5347 111.463C71.1047 111.463 80.6747 111.463 90.5347 111.463C90.5347 112.453 90.5347 113.443 90.5347 114.463C80.9647 114.463 71.3947 114.463 61.5347 114.463C61.5347 113.473 61.5347 112.483 61.5347 111.463Z" fill="#130F0B"/>
<path d="M122.535 62.4629C123.525 62.4629 124.515 62.4629 125.535 62.4629C125.535 69.0629 125.535 75.6629 125.535 82.4629C124.215 82.7929 122.895 83.1229 121.535 83.4629C121.506 80.3379 121.488 77.213 121.472 74.0879C121.464 73.1984 121.455 72.309 121.447 71.3926C121.444 70.5418 121.44 69.691 121.437 68.8145C121.432 68.0289 121.427 67.2434 121.421 66.4341C121.535 64.4629 121.535 64.4629 122.535 62.4629Z" fill="#E4472C"/>
<path d="M42.5718 52.7597C43.8177 52.8268 45.0635 52.8938 46.3472 52.9629C48.245 53.017 48.245 53.017 50.1812 53.0722C53.3021 53.1665 56.4168 53.2979 59.5347 53.4629C59.5347 53.7929 59.5347 54.1229 59.5347 54.4629C53.9247 54.4629 48.3147 54.4629 42.5347 54.4629C42.5347 55.1229 42.5347 55.7829 42.5347 56.4629C41.5653 56.5866 40.5959 56.7104 39.5972 56.8379C38.5865 57.0441 37.5759 57.2504 36.5347 57.4629C36.2047 58.1229 35.8747 58.7829 35.5347 59.4629C34.8747 59.4629 34.2147 59.4629 33.5347 59.4629C33.2047 60.4529 32.8747 61.4429 32.5347 62.4629C30.8847 62.1329 29.2347 61.8029 27.5347 61.4629C30.3894 53.3307 34.3558 52.5835 42.5718 52.7597Z" fill="#D9452A"/>
<path d="M94.5347 57.4629C97.9088 57.2583 101.281 57.1349 104.66 57.0254C105.611 56.9667 106.562 56.9081 107.542 56.8476C114.452 56.6797 114.452 56.6797 117.54 58.9138C120.518 62.2157 121.477 63.8555 121.91 68.4004C121.786 69.411 121.662 70.4216 121.535 71.4629C120.875 71.4629 120.215 71.4629 119.535 71.4629C119.246 70.3904 118.957 69.3179 118.66 68.2129C117.612 64.3326 117.612 64.3326 115.535 60.4629C108.935 60.4629 102.335 60.4629 95.5347 60.4629C95.2047 59.4729 94.8747 58.4829 94.5347 57.4629Z" fill="#2D1C0E"/>
<path d="M120.535 71.4629C120.865 71.4629 121.195 71.4629 121.535 71.4629C121.535 75.4229 121.535 79.3829 121.535 83.4629C122.525 83.4629 123.515 83.4629 124.535 83.4629C123.576 86.6872 122.907 88.1885 120.16 90.2129C117.912 91.2833 115.971 92.0117 113.535 92.4629C113.535 91.4729 113.535 90.4829 113.535 89.4629C112.545 89.1329 111.555 88.8029 110.535 88.4629C111.384 88.0472 111.384 88.0472 112.25 87.623C112.983 87.2608 113.716 86.8986 114.472 86.5254C115.203 86.1657 115.934 85.8061 116.687 85.4355C118.497 84.5992 118.497 84.5992 119.535 83.4629C119.769 81.4469 119.948 79.4244 120.097 77.4004C120.181 76.2957 120.265 75.1909 120.351 74.0527C120.412 73.1981 120.472 72.3434 120.535 71.4629Z" fill="#DC432A"/>
<path d="M128.535 75.4629C135.566 79.8574 135.566 79.8574 137.535 81.4629C137.535 82.4529 137.535 83.4429 137.535 84.4629C133.734 86.2002 131.938 86.4629 127.535 86.4629C127.865 82.8329 128.195 79.2029 128.535 75.4629Z" fill="#8F6644"/>
<path d="M32.5347 65.4629C32.8647 65.4629 33.1947 65.4629 33.5347 65.4629C33.5721 66.5831 33.6095 67.7033 33.648 68.8574C33.7137 70.3301 33.7801 71.8028 33.8472 73.2754C33.8698 74.0134 33.8923 74.7514 33.9156 75.5117C34.0934 79.7019 34.0934 79.7019 35.8785 83.4004C38.2796 84.9407 40.8084 85.6753 43.5347 86.4629C43.2047 87.4529 42.8747 88.4429 42.5347 89.4629C34.2699 87.4876 34.2699 87.4876 31.4722 83.5879C30.5941 80.661 30.2676 78.4902 30.5347 75.4629C31.1947 75.4629 31.8547 75.4629 32.5347 75.4629C32.5347 72.1629 32.5347 68.8629 32.5347 65.4629Z" fill="#1E170C"/>
<path d="M79.5347 88.4629C80.5247 89.1229 81.5147 89.7829 82.5347 90.4629C82.5347 91.4529 82.5347 92.4429 82.5347 93.4629C77.9147 93.4629 73.2947 93.4629 68.5347 93.4629C70.4414 87.7426 74.1644 88.0793 79.5347 88.4629Z" fill="#574235"/>
<path d="M45.5347 58.4629C54.4332 57.5842 59.7411 58.2722 66.8042 63.9316C67.3753 64.4369 67.9463 64.9423 68.5347 65.4629C67.5447 66.1229 66.5547 66.7829 65.5347 67.4629C64.9894 67.0414 64.4441 66.6198 63.8823 66.1855C59.0043 62.6417 55.4566 60.7946 49.3823 60.666C47.5347 60.4629 47.5347 60.4629 45.5347 58.4629Z" fill="#160F08"/>
<path d="M34.5347 50.4629C38.597 50.3756 42.6592 50.3224 46.7222 50.2754C48.4479 50.2377 48.4479 50.2377 50.2085 50.1992C51.8762 50.1847 51.8762 50.1847 53.5776 50.1699C54.5988 50.1542 55.62 50.1385 56.6721 50.1223C60.0134 50.5199 61.8949 51.392 64.5347 53.4629C64.5347 54.4529 64.5347 55.4429 64.5347 56.4629C63.8953 56.1535 63.2559 55.8441 62.5972 55.5254C58.6142 54.1435 54.7182 53.8092 50.5347 53.4629C50.5347 53.1329 50.5347 52.8029 50.5347 52.4629C45.2547 52.1329 39.9747 51.8029 34.5347 51.4629C34.5347 51.1329 34.5347 50.8029 34.5347 50.4629Z" fill="#231811"/>
<path d="M113.535 89.4629C113.535 90.4529 113.535 91.4429 113.535 92.4629C108.17 95.1451 104.525 95.7782 98.5347 95.4629C99.1947 94.8029 99.8547 94.1429 100.535 93.4629C101.525 93.4629 102.515 93.4629 103.535 93.4629C103.865 92.4729 104.195 91.4829 104.535 90.4629C107.731 89.3974 110.192 89.3886 113.535 89.4629Z" fill="#E64C2E"/>
<path d="M64.2222 24.4004C65.4345 24.4139 65.4345 24.4139 66.6714 24.4277C67.5937 24.4451 67.5937 24.4451 68.5347 24.4629C68.5347 24.7929 68.5347 25.1229 68.5347 25.4629C74.4747 25.7929 80.4147 26.1229 86.5347 26.4629C86.5347 26.7929 86.5347 27.1229 86.5347 27.4629C76.6347 27.7929 66.7347 28.1229 56.5347 28.4629C56.5347 27.4729 56.5347 26.4829 56.5347 25.4629C59.4168 24.5022 61.2332 24.3571 64.2222 24.4004Z" fill="#2A1F16"/>
<path d="M70.5347 95.4629C74.1647 95.4629 77.7947 95.4629 81.5347 95.4629C81.2047 96.7829 80.8747 98.1029 80.5347 99.4629C73.9097 100.713 73.9097 100.713 70.5347 98.4629C70.5347 97.4729 70.5347 96.4829 70.5347 95.4629Z" fill="#322A29"/>
<path d="M87.5347 131.463C87.2047 132.123 86.8747 132.783 86.5347 133.463C83.8275 134.365 82.2969 134.581 79.5229 134.561C78.387 134.556 78.387 134.556 77.228 134.551C76.4423 134.542 75.6567 134.534 74.8472 134.525C74.0499 134.521 73.2526 134.516 72.4312 134.512C70.4656 134.5 68.5001 134.482 66.5347 134.463C67.5659 133.01 67.5659 133.01 69.5347 131.463C72.1064 131.057 74.4526 130.816 77.0347 130.713C77.7114 130.67 78.3882 130.628 79.0854 130.584C82.2337 130.416 84.5167 130.457 87.5347 131.463Z" fill="#1F1710"/>
<path d="M125.535 62.4629C125.865 62.4629 126.195 62.4629 126.535 62.4629C126.679 63.556 126.823 64.6491 126.972 65.7754C127.418 69.3941 127.418 69.3941 128.535 72.4629C130.535 73.6717 130.535 73.6717 132.535 74.4629C132.205 75.4529 131.875 76.4429 131.535 77.4629C130.875 77.1329 130.215 76.8029 129.535 76.4629C129.205 78.4429 128.875 80.4229 128.535 82.4629C128.205 82.4629 127.875 82.4629 127.535 82.4629C127.205 80.4829 126.875 78.5029 126.535 76.4629C126.205 76.4629 125.875 76.4629 125.535 76.4629C125.535 71.8429 125.535 67.2229 125.535 62.4629Z" fill="#251A10"/>
<path d="M39.7222 93.2754C40.5188 93.4649 41.3154 93.6544 42.1362 93.8496C45.2909 94.6563 48.414 95.5333 51.5347 96.4629C49.0142 98.1075 47.8714 98.5118 44.8433 98.0723C43.8958 97.7887 42.9483 97.5051 41.9722 97.2129C41.0221 96.9396 40.0721 96.6663 39.0933 96.3848C36.5347 95.4629 36.5347 95.4629 33.5347 93.4629C36.0759 92.1923 36.9956 92.6231 39.7222 93.2754Z" fill="#180F0A"/>
<path d="M103.535 101.463C103.865 101.463 104.195 101.463 104.535 101.463C104.608 102.745 104.608 102.745 104.683 104.053C104.758 105.157 104.833 106.262 104.91 107.4C104.979 108.503 105.049 109.605 105.121 110.74C105.257 111.639 105.394 112.537 105.535 113.463C106.195 113.793 106.855 114.123 107.535 114.463C105.722 116.463 105.722 116.463 103.535 118.463C102.545 118.463 101.555 118.463 100.535 118.463C101.41 112.588 101.41 112.588 102.535 111.463C102.768 109.781 102.947 108.092 103.097 106.4C103.223 105.022 103.223 105.022 103.351 103.615C103.412 102.905 103.472 102.195 103.535 101.463Z" fill="#1F1711"/>
<path d="M66.5347 93.4629C71.8147 93.4629 77.0947 93.4629 82.5347 93.4629C82.2047 94.1229 81.8747 94.7829 81.5347 95.4629C77.9047 95.4629 74.2747 95.4629 70.5347 95.4629C70.5347 96.1229 70.5347 96.7829 70.5347 97.4629C69.5447 97.7929 68.5547 98.1229 67.5347 98.4629C67.2047 96.8129 66.8747 95.1629 66.5347 93.4629Z" fill="#181512"/>
<path d="M36.5347 59.4629C34.6597 64.3379 34.6597 64.3379 33.5347 65.4629C33.3018 67.1447 33.122 68.8341 32.9722 70.5254C32.8465 71.904 32.8465 71.904 32.7183 73.3105C32.6577 74.0208 32.5971 74.7311 32.5347 75.4629C31.8747 75.4629 31.2147 75.4629 30.5347 75.4629C30.4533 73.5469 30.3953 71.63 30.3472 69.7129C30.3124 68.6455 30.2776 67.5782 30.2417 66.4785C30.6811 61.9556 31.7692 59.4629 36.5347 59.4629Z" fill="#140F07"/>
<path d="M42.5347 87.4629C49.4647 87.9579 49.4647 87.9579 56.5347 88.4629C56.5347 89.4529 56.5347 90.4429 56.5347 91.4629C50.8773 93.0187 47.738 91.7057 42.5347 89.4629C42.5347 88.8029 42.5347 88.1429 42.5347 87.4629Z" fill="#1A120B"/>
<path d="M118.535 65.4629C118.865 65.4629 119.195 65.4629 119.535 65.4629C120.861 71.4296 120.623 77.3887 120.535 83.4629C118.555 84.4529 118.555 84.4529 116.535 85.4629C116.693 84.8831 116.852 84.3034 117.015 83.7061C117.816 80.2507 117.907 76.7438 118.097 73.2129C118.14 72.4678 118.184 71.7227 118.228 70.9551C118.334 69.1245 118.435 67.2937 118.535 65.4629Z" fill="#0E0F07"/>
<path d="M28.5347 54.4629C29.1947 54.4629 29.8547 54.4629 30.5347 54.4629C29.9874 57.8375 29.4798 59.5452 27.5347 62.4629C27.077 65.2016 27.077 65.2016 26.9097 68.1504C26.8349 69.1443 26.7602 70.1381 26.6831 71.1621C26.6341 71.9214 26.5852 72.6806 26.5347 73.4629C26.2047 73.4629 25.8747 73.4629 25.5347 73.4629C25.3662 71.8589 25.1999 70.2547 25.0347 68.6504C24.9419 67.7571 24.8491 66.8637 24.7534 65.9434C24.2945 60.7399 25.3733 58.647 28.5347 54.4629Z" fill="#27140C"/>
<path d="M84.5347 24.4629C89.9036 24.9616 95.227 25.4852 100.535 26.4629C99.5447 26.9579 99.5447 26.9579 98.5347 27.4629C98.5347 28.1229 98.5347 28.7829 98.5347 29.4629C96.5742 29.2081 94.6163 28.9335 92.6597 28.6504C91.0238 28.4242 91.0238 28.4242 89.355 28.1934C86.5347 27.4629 86.5347 27.4629 84.5347 24.4629Z" fill="#16110D"/>
<path d="M66.5347 66.4629C67.5247 66.4629 68.5147 66.4629 69.5347 66.4629C69.5347 71.7429 69.5347 77.0229 69.5347 82.4629C68.8747 82.4629 68.2147 82.4629 67.5347 82.4629C67.2047 77.1829 66.8747 71.9029 66.5347 66.4629Z" fill="#2E170D"/>
<path d="M29.5347 60.4629C30.1947 61.1229 30.8547 61.7829 31.5347 62.4629C30.8747 62.4629 30.2147 62.4629 29.5347 62.4629C29.5695 63.0778 29.6043 63.6927 29.6401 64.3262C29.6807 65.5385 29.6807 65.5385 29.7222 66.7754C29.7744 67.9762 29.7744 67.9762 29.8276 69.2012C29.4727 71.9414 28.641 72.7546 26.5347 74.4629C26.4538 72.5052 26.3956 70.5466 26.3472 68.5879C26.3124 67.4973 26.2776 66.4068 26.2417 65.2832C26.3384 64.3525 26.4351 63.4218 26.5347 62.4629C27.5247 61.8029 28.5147 61.1429 29.5347 60.4629Z" fill="#EA4D2D"/>
<path d="M24.5347 22.4629C27.2257 25.1539 26.8335 26.6537 26.8472 30.4004C26.8639 31.4613 26.8807 32.5222 26.8979 33.6152C26.5347 36.4629 26.5347 36.4629 23.5347 39.4629C23.2047 36.4929 22.8747 33.5229 22.5347 30.4629C22.8647 30.4629 23.1947 30.4629 23.5347 30.4629C23.8647 27.8229 24.1947 25.1829 24.5347 22.4629Z" fill="#1B140E"/>
<path d="M121.535 67.4629C121.865 67.4629 122.195 67.4629 122.535 67.4629C122.595 68.101 122.656 68.7391 122.718 69.3965C122.802 70.2228 122.886 71.0491 122.972 71.9004C123.053 72.7241 123.135 73.5478 123.218 74.3965C123.324 76.4495 123.324 76.4495 124.535 77.4629C124.575 79.4625 124.577 81.4633 124.535 83.4629C123.545 83.4629 122.555 83.4629 121.535 83.4629C121.535 78.1829 121.535 72.9029 121.535 67.4629Z" fill="#F45131"/>
<path d="M88.5347 55.4629C88.8647 56.4529 89.1947 57.4429 89.5347 58.4629C91.1847 57.8029 92.8347 57.1429 94.5347 56.4629C94.5347 57.1229 94.5347 57.7829 94.5347 58.4629C92.5659 59.9707 92.5659 59.9707 90.0347 61.5879C89.1994 62.1267 88.364 62.6655 87.5034 63.2207C86.8537 63.6306 86.204 64.0405 85.5347 64.4629C85.5347 61.4629 85.5347 61.4629 87.5347 58.4629C87.2047 57.8029 86.8747 57.1429 86.5347 56.4629C87.1947 56.1329 87.8547 55.8029 88.5347 55.4629Z" fill="#DB4627"/>
<path d="M121.535 21.4629C123.515 21.4629 125.495 21.4629 127.535 21.4629C126.545 23.1129 125.555 24.7629 124.535 26.4629C123.875 25.8029 123.215 25.1429 122.535 24.4629C122.865 24.1329 123.195 23.8029 123.535 23.4629C122.875 22.8029 122.215 22.1429 121.535 21.4629ZM119.535 26.4629C120.195 26.7929 120.855 27.1229 121.535 27.4629C118.07 30.4329 118.07 30.4329 114.535 33.4629C116.152 30.2281 117.011 28.7572 119.535 26.4629Z" fill="#1F1610"/>
<path d="M12.5347 78.4629C13.1947 78.7929 13.8547 79.1229 14.5347 79.4629C13.8747 80.7829 13.2147 82.1029 12.5347 83.4629C13.1947 83.4629 13.8547 83.4629 14.5347 83.4629C14.5347 84.4529 14.5347 85.4429 14.5347 86.4629C12.3659 85.9569 10.535 85.4631 8.53467 84.4629C8.53467 83.4729 8.53467 82.4829 8.53467 81.4629C10.5347 79.7754 10.5347 79.7754 12.5347 78.4629Z" fill="#0C0A06"/>
<path d="M119.535 57.4629C124.41 60.2129 124.41 60.2129 125.535 62.4629C124.545 62.4629 123.555 62.4629 122.535 62.4629C122.535 63.1229 122.535 63.7829 122.535 64.4629C121.875 64.4629 121.215 64.4629 120.535 64.4629C118.91 61.9629 118.91 61.9629 117.535 59.4629C118.195 59.4629 118.855 59.4629 119.535 59.4629C119.535 58.8029 119.535 58.1429 119.535 57.4629Z" fill="#DB3E25"/>
<path d="M107.535 22.4629C109.535 23.4629 109.535 23.4629 110.535 25.4629C107.868 26.7962 105.201 28.1296 102.535 29.4629C102.205 28.1429 101.875 26.8229 101.535 25.4629C103.499 24.3951 105.503 23.3974 107.535 22.4629Z" fill="#1E160E"/>
<path d="M20.5347 23.4629C21.1947 23.4629 21.8547 23.4629 22.5347 23.4629C22.5347 26.1029 22.5347 28.7429 22.5347 31.4629C21.8747 30.4729 21.2147 29.4829 20.5347 28.4629C19.2147 29.7829 17.8947 31.1029 16.5347 32.4629C15.8747 32.1329 15.2147 31.8029 14.5347 31.4629C15.4851 30.1239 16.4453 28.7918 17.4097 27.4629C17.9433 26.7204 18.477 25.9779 19.0269 25.2129C19.5244 24.6354 20.022 24.0579 20.5347 23.4629Z" fill="#694A31"/>
<path d="M132.535 99.4629C134.535 100.463 134.535 100.463 135.535 102.463C132.07 103.948 132.07 103.948 128.535 105.463C127.875 104.473 127.215 103.483 126.535 102.463C128.499 101.395 130.503 100.397 132.535 99.4629Z" fill="#19130E"/>
<path d="M113.535 93.4629C110.961 97.3239 108.924 97.4061 104.535 98.4629C104.205 97.4729 103.875 96.4829 103.535 95.4629C104.823 94.9327 106.115 94.414 107.41 93.9004C108.129 93.6103 108.848 93.3203 109.589 93.0215C111.535 92.4629 111.535 92.4629 113.535 93.4629Z" fill="#1F110A"/>
<path d="M83.5347 88.4629C85.5147 89.4529 87.4947 90.4429 89.5347 91.4629C89.5347 92.4529 89.5347 93.4429 89.5347 94.4629C88.2147 94.1329 86.8947 93.8029 85.5347 93.4629C85.2047 94.1229 84.8747 94.7829 84.5347 95.4629C83.4722 93.6504 83.4722 93.6504 82.5347 91.4629C82.8647 90.4729 83.1947 89.4829 83.5347 88.4629Z" fill="#1A0F0B"/>
<path d="M120.535 71.4629C120.865 71.4629 121.195 71.4629 121.535 71.4629C121.535 75.4229 121.535 79.3829 121.535 83.4629C122.525 83.4629 123.515 83.4629 124.535 83.4629C123.875 84.7829 123.215 86.1029 122.535 87.4629C121.875 87.1329 121.215 86.8029 120.535 86.4629C120.535 81.5129 120.535 76.5629 120.535 71.4629Z" fill="#C44228"/>
<path d="M32.5347 65.4629C32.8647 65.4629 33.1947 65.4629 33.5347 65.4629C33.5347 70.0829 33.5347 74.7029 33.5347 79.4629C32.5447 79.7929 31.5547 80.1229 30.5347 80.4629C30.5347 78.8129 30.5347 77.1629 30.5347 75.4629C31.1947 75.4629 31.8547 75.4629 32.5347 75.4629C32.5347 72.1629 32.5347 68.8629 32.5347 65.4629Z" fill="#452E15"/>
<path d="M31.5347 83.4629C32.5347 85.4629 33.5347 87.4629 34.5347 89.4629C33.2147 89.7929 31.8947 90.1229 30.5347 90.4629C29.5447 88.4829 28.5547 86.5029 27.5347 84.4629C28.5247 84.7929 29.5147 85.1229 30.5347 85.4629C30.8647 84.8029 31.1947 84.1429 31.5347 83.4629Z" fill="#D34128"/>
<path d="M60.5347 84.4629C61.1947 85.4529 61.8547 86.4429 62.5347 87.4629C60.5547 88.4529 58.5747 89.4429 56.5347 90.4629C56.2047 89.4729 55.8747 88.4829 55.5347 87.4629C57.1847 86.4729 58.8347 85.4829 60.5347 84.4629Z" fill="#271A0B"/>
<path d="M43.5347 90.4629C46.5047 90.9579 46.5047 90.9579 49.5347 91.4629C48.2222 92.9629 48.2222 92.9629 46.5347 94.4629C45.5447 94.4629 44.5547 94.4629 43.5347 94.4629C43.5347 93.1429 43.5347 91.8229 43.5347 90.4629Z" fill="#EC4C2E"/>
</svg>
