<svg width="152" height="152" viewBox="0 0 152 152" fill="none" xmlns="http://www.w3.org/2000/svg">
<path d="M120.235 14.1229C122.721 16.0549 125.078 18.0678 127.418 20.1737C128.428 21.0264 128.428 21.0264 129.457 21.8963C141.476 32.7898 150.61 50.3446 151.558 66.5584C152.341 87.9863 148.981 108.46 133.918 124.736C132.121 126.593 130.283 128.383 128.418 130.174C127.399 131.187 127.399 131.187 126.36 132.221C111.999 145.715 92.224 151.617 72.8351 151.61C51.5113 150.935 32.0936 140.635 17.6683 125.299C1.8381 106.909 -1.29529 84.7503 0.418305 61.1737C1.2679 55.8428 3.10416 51.0395 5.4183 46.1737C5.88752 45.1746 6.35674 44.1756 6.84018 43.1463C16.5318 24.1538 32.5804 10.6767 52.4183 3.17365C74.8154 -3.72642 101.185 0.938458 120.235 14.1229Z" fill="#825C3C"/>
<path d="M68.4184 17.1736C74.3584 17.1736 80.2984 17.1736 86.4184 17.1736C89.8026 30.5695 89.737 43.4068 89.4184 57.1736C90.0784 57.1736 90.7384 57.1736 91.4184 57.1736C91.3745 55.9529 91.3307 54.7322 91.2856 53.4744C91.1942 42.5247 92.5938 35.614 99.9731 27.3494C102.418 25.1736 102.418 25.1736 105.418 25.1736C110.062 27.0111 113.367 29.194 116.418 33.1736C117.797 39.3681 116.344 45.9942 115.418 52.1736C114.04 61.5744 113.182 70.9053 112.672 80.3924C112.585 82.0083 112.585 82.0083 112.497 83.6568C112.261 88.133 112.032 92.6095 111.817 97.0867C111.655 100.398 111.477 103.707 111.297 107.017C111.231 108.521 111.231 108.521 111.164 110.054C110.595 120.165 107.785 127.091 100.418 134.174C92.59 140.245 85.2285 140.563 75.6684 140.611C74.5392 140.644 73.4099 140.677 72.2465 140.711C61.7774 140.777 53.8984 137.476 46.4184 130.174C42.8745 125.385 41.3605 121.846 40.9853 115.95C40.9149 114.88 40.8446 113.81 40.7722 112.708C40.6992 111.545 40.6263 110.383 40.5512 109.185C40.386 106.698 40.2206 104.21 40.0551 101.722C39.8 97.8223 39.5473 93.9221 39.2987 90.0215C38.3608 75.3968 37.1924 60.9252 34.9999 46.4307C34.5497 43.3165 34.1245 40.3247 34.4184 37.1736C36.0981 35.0408 36.0981 35.0408 38.2934 33.0486C40.7511 30.7847 42.5494 28.9771 44.4184 26.1736C50.0238 28.7835 54.3459 31.6857 57.4184 37.1736C58.5586 44.0888 57.9748 51.2194 57.4184 58.1736C58.4084 58.1736 59.3984 58.1736 60.4184 58.1736C60.3765 57.5001 60.3346 56.8266 60.2914 56.1326C59.4573 40.6436 60.1602 30.4641 68.4184 17.1736Z" fill="#886142"/>
<path d="M66.4183 14.1736C73.3483 14.1736 80.2783 14.1736 87.4183 14.1736C90.7933 23.1736 90.7933 23.1736 91.6058 27.1736C91.7644 27.9368 91.9229 28.6999 92.0863 29.4861C92.1959 30.043 92.3054 30.5999 92.4183 31.1736C93.0783 31.1736 93.7383 31.1736 94.4183 31.1736C95.8591 29.3915 97.2234 27.547 98.5433 25.6736C99.2678 24.6527 99.9922 23.6318 100.739 22.5799C101.293 21.7858 101.847 20.9918 102.418 20.1736C103.752 20.8403 105.085 21.507 106.418 22.1736C108.054 22.8833 108.054 22.8833 109.723 23.6072C113.834 25.7444 117.2 28.0066 119.418 32.1736C120.663 39.9043 119.026 47.9314 117.91 55.6028C117.172 60.9654 116.796 66.3383 116.418 71.7361C116.336 72.7705 116.253 73.8049 116.168 74.8707C115.661 81.2603 115.285 87.6466 114.989 94.0486C114.913 95.587 114.838 97.1253 114.762 98.6636C114.615 101.647 114.491 104.63 114.379 107.615C113.847 119.554 111.3 127.922 102.418 136.174C90.7343 145.078 76.5263 144.56 62.4183 143.174C57.819 142.133 54.1539 140.028 50.4183 137.174C49.806 136.779 49.1937 136.385 48.5629 135.978C43.7321 132.567 40.3284 126.736 38.8766 121.053C38.5783 118.819 38.4133 116.612 38.2933 114.361C38.2275 113.491 38.1617 112.62 38.0939 111.724C37.942 109.713 37.799 107.701 37.663 105.689C37.2225 99.3596 36.6959 93.0368 36.1744 86.7134C36.0454 85.1456 35.9174 83.5776 35.7904 82.0096C34.9059 71.1021 33.8249 60.2493 32.3326 49.4048C31.075 40.1996 31.075 40.1996 31.4183 36.1736C33.5433 33.7361 33.5433 33.7361 36.4183 31.1736C37.5202 29.9611 38.6033 28.7312 39.6683 27.4861C40.1685 26.9048 40.6686 26.3234 41.184 25.7244C42.5027 24.1775 42.5027 24.1775 43.4183 22.1736C47.4938 22.6947 49.2848 24.7583 52.0433 27.6736C54.9211 30.8406 54.9211 30.8406 58.4183 33.1736C58.6562 32.3731 58.6562 32.3731 58.8988 31.5565C60.8259 25.4027 63.4387 19.8914 66.4183 14.1736ZM68.4183 17.1736C59.8054 31.0351 59.417 42.0757 60.4183 58.1736C59.4283 58.1736 58.4383 58.1736 57.4183 58.1736C57.4759 57.5951 57.5335 57.0166 57.5929 56.4205C59.072 44.2782 59.072 44.2782 54.9691 33.3299C52.3825 30.6004 49.5093 28.3163 46.4183 26.1736C42.9982 27.3137 42.1296 28.3953 39.8558 31.1111C38.087 33.2071 36.3584 35.2336 34.4183 37.1736C34.2948 43.2144 35.44 49.3236 36.3441 55.283C37.4001 62.7934 37.8969 70.3308 38.3832 77.8963C38.4632 79.1339 38.5432 80.3715 38.6257 81.6466C38.9569 86.8279 39.2823 92.0094 39.5929 97.192C39.824 101.011 40.0712 104.829 40.3207 108.646C40.3864 109.815 40.4522 110.984 40.5199 112.188C41.1063 120.914 42.7198 126.219 49.4183 132.174C58.0363 139.218 64.0773 140.536 75.1683 140.549C76.3104 140.573 77.4526 140.598 78.6293 140.623C89.036 140.659 96.0625 138.123 103.692 131.041C108.427 125.92 110.396 120.451 110.76 113.574C110.81 112.663 110.86 111.751 110.912 110.813C110.963 109.828 111.014 108.844 111.067 107.83C111.185 105.707 111.303 103.583 111.421 101.46C111.482 100.35 111.542 99.2407 111.605 98.0974C112.578 80.4049 113.723 62.8171 115.868 45.2244C116.053 43.541 116.237 41.8575 116.418 40.1736C116.645 38.2439 116.645 38.2439 116.875 36.2752C116.695 32.9297 116.695 32.9297 113.793 30.5213C112.685 29.736 111.559 28.9746 110.418 28.2361C109.846 27.8385 109.274 27.4408 108.684 27.0311C107.276 26.0575 105.849 25.1126 104.418 24.1736C103.671 24.9239 102.923 25.6741 102.153 26.4471C100.611 27.9843 99.0509 29.5049 97.434 30.9627C90.3761 38.3017 91.3501 47.592 91.4183 57.1736C90.7583 57.1736 90.0983 57.1736 89.4183 57.1736C89.4419 56.1555 89.4419 56.1555 89.4659 55.1168C89.729 42.0048 89.6386 29.9206 86.4183 17.1736C80.4783 17.1736 74.5383 17.1736 68.4183 17.1736Z" fill="#0D0D09"/>
<path d="M118.418 37.1736C119.078 37.1736 119.738 37.1736 120.418 37.1736C131.483 51.5828 136.189 67.234 134.418 85.1736C132.083 98.2416 125.277 110.414 114.418 118.174C114.088 118.174 113.758 118.174 113.418 118.174C112.742 91.1288 115.618 64.0413 118.418 37.1736Z" fill="#95704E"/>
<path d="M29.4184 40.1736C30.0784 40.1736 30.7384 40.1736 31.4184 40.1736C33.1063 45.4855 33.9355 50.5396 34.4535 56.0799C34.5371 56.9223 34.6207 57.7646 34.7068 58.6325C34.882 60.4106 35.0541 62.1889 35.2233 63.9676C35.4775 66.6385 35.741 69.3085 36.0063 71.9783C38.6381 98.7583 38.6381 98.7583 38.4809 111.611C38.4764 112.354 38.4718 113.097 38.4672 113.863C38.4558 115.633 38.4379 117.403 38.4184 119.174C28.3754 113.794 22.3991 102.928 19.1684 92.3611C14.8864 76.2226 16.8117 60.9299 25.1059 46.4236C28.1524 41.4396 28.1524 41.4396 29.4184 40.1736Z" fill="#96704E"/>
<path d="M68.4184 17.1736C74.3584 17.1736 80.2984 17.1736 86.4184 17.1736C90.1019 34.3635 90.1019 34.3635 89.4184 40.1736C85.4858 42.7953 82.823 41.9986 78.4184 41.1736C75.4066 40.5536 72.4094 39.8868 69.4184 39.1736C68.9362 40.0399 68.4541 40.9061 67.9574 41.7986C67.01 43.4693 67.01 43.4693 66.0434 45.1736C65.1036 46.8443 65.1036 46.8443 64.1449 48.5486C63.5752 49.4149 63.0054 50.2811 62.4184 51.1736C61.7584 51.1736 61.0984 51.1736 60.4184 51.1736C59.2625 37.3031 61.3865 29.2596 68.4184 17.1736Z" fill="#74B75A"/>
<path d="M103.418 24.1736C104.836 25.1097 106.252 26.0475 107.668 26.9861C108.457 27.5082 109.246 28.0303 110.059 28.5682C110.838 29.098 111.616 29.6278 112.418 30.1736C113.181 30.5861 113.945 30.9986 114.731 31.4236C116.418 33.1736 116.418 33.1736 116.59 36.5291C116.451 37.7937 116.312 39.0583 116.168 40.3611C116.039 41.6334 115.911 42.9058 115.778 44.2166C115.659 45.1924 115.541 46.1683 115.418 47.1736C113.562 47.1427 113.562 47.1427 111.668 47.1111C109.182 47.0849 107.578 47.1144 105.231 47.9861C104.633 48.048 104.035 48.1099 103.418 48.1736C101.752 46.507 100.085 44.8403 98.4184 43.1736C95.7067 42.7538 95.7067 42.7538 93.4184 43.1736C92.9244 38.5337 93.7044 36.1214 96.5688 32.4295C96.9935 31.9119 97.4182 31.3944 97.8559 30.8611C98.2767 30.3243 98.6976 29.7874 99.1312 29.2342C102.009 25.5834 102.009 25.5834 103.418 24.1736Z" fill="#6FB656"/>
<path d="M44.4184 26.1736C49.4161 28.4361 53.3475 31.6038 56.4184 36.1736C57.0722 39.9432 56.9189 43.3921 56.4184 47.1736C55.6965 46.4311 54.9746 45.6886 54.2309 44.9236C51.7324 42.4807 49.1819 40.3055 46.4184 38.1736C46.332 38.9329 46.2456 39.6922 46.1567 40.4744C45.0007 48.6511 45.0007 48.6511 41.9809 51.3611C39.4184 52.1736 39.4184 52.1736 36.4184 52.1736C36.0789 50.6125 35.747 49.0496 35.4184 47.4861C35.1399 46.181 35.1399 46.181 34.8559 44.8494C34.4113 42.1303 34.0743 39.9131 34.4184 37.1736C36.0981 35.0408 36.0981 35.0408 38.2934 33.0486C40.7511 30.7847 42.5494 28.9771 44.4184 26.1736Z" fill="#6AB653"/>
<path d="M46.4183 81.1736C54.0179 81.5474 59.6586 83.7495 66.4183 87.1736C66.4183 90.4736 66.4183 93.7736 66.4183 97.1736C62.8946 98.9355 59.2641 98.7173 55.4183 98.1736C51.9145 96.7838 48.67 95.0744 45.4183 93.1736C45.3914 91.5487 45.3719 89.9237 45.3558 88.2986C45.3442 87.3937 45.3326 86.4888 45.3207 85.5565C45.4183 83.1736 45.4183 83.1736 46.4183 81.1736Z" fill="#10150C"/>
<path d="M104.418 81.1736C105.401 85.2264 105.5 89.0123 105.418 93.1736C104.149 93.822 102.878 94.4672 101.606 95.1111C100.898 95.4708 100.19 95.8304 99.4613 96.201C94.4385 98.5923 89.7167 98.9398 84.4183 97.1736C84.4183 93.8736 84.4183 90.5736 84.4183 87.1736C86.1883 86.3593 87.9593 85.5472 89.7308 84.7361C90.717 84.2837 91.7031 83.8312 92.7191 83.3651C96.8692 81.5332 99.9034 81.0733 104.418 81.1736Z" fill="#0D0C09"/>
<path d="M58.4183 122.174C69.9683 122.174 81.5183 122.174 93.4183 122.174C93.4183 125.144 93.4183 128.114 93.4183 131.174C92.4283 131.174 91.4383 131.174 90.4183 131.174C90.4183 129.194 90.4183 127.214 90.4183 125.174C80.8483 125.174 71.2783 125.174 61.4183 125.174C61.4183 127.154 61.4183 129.134 61.4183 131.174C60.4283 131.174 59.4383 131.174 58.4183 131.174C58.4183 128.204 58.4183 125.234 58.4183 122.174Z" fill="#130F0C"/>
<path d="M102.418 84.1736C102.418 86.8136 102.418 89.4536 102.418 92.1736C97.0539 94.8558 93.4083 95.4889 87.4183 95.1736C87.4183 93.1936 87.4183 91.2136 87.4183 89.1736C88.6879 88.5253 89.959 87.8801 91.2308 87.2361C91.9385 86.8765 92.6462 86.5168 93.3754 86.1463C96.664 84.5806 98.7063 84.1736 102.418 84.1736Z" fill="#4CB453"/>
<path d="M112.418 68.1736C112.748 69.4936 113.078 70.8136 113.418 72.1736C114.078 72.1736 114.738 72.1736 115.418 72.1736C115.582 82.4881 115.068 92.6975 114.418 102.986C114.322 104.565 114.225 106.144 114.129 107.722C113.896 111.54 113.659 115.357 113.418 119.174C113.088 119.174 112.758 119.174 112.418 119.174C112.088 115.544 111.758 111.914 111.418 108.174C111.088 108.174 110.758 108.174 110.418 108.174C111.406 81.4224 111.406 81.4224 112.418 68.1736Z" fill="#1D1812"/>
<path d="M63.4183 19.1736C62.7641 24.2436 60.5637 28.5935 58.4183 33.1736C55.2079 31.7917 53.369 30.2494 51.1683 27.5486C50.6476 26.917 50.1268 26.2853 49.5902 25.6346C49.2035 25.1525 48.8168 24.6703 48.4183 24.1736C52.932 20.3544 57.5158 18.8264 63.4183 19.1736Z" fill="#96704E"/>
<path d="M48.4183 85.1736C54.0794 85.6702 58.2951 86.7188 63.4183 89.1736C63.4183 91.1536 63.4183 93.1336 63.4183 95.1736C57.6161 95.5363 53.7783 94.4305 48.4183 92.1736C48.4183 89.8636 48.4183 87.5536 48.4183 85.1736Z" fill="#4DB74D"/>
<path d="M89.4183 19.1736C90.8774 19.4829 92.3355 19.7961 93.7933 20.1111C94.6054 20.2852 95.4176 20.4592 96.2543 20.6385C98.4183 21.1736 98.4183 21.1736 100.418 22.1736C98.8613 26.8447 96.3339 30.2607 93.4183 34.1736C91.2309 30.8925 90.8739 28.8428 90.2933 24.9861C90.1258 23.8995 89.9582 22.8128 89.7855 21.6932C89.6644 20.8617 89.5432 20.0303 89.4183 19.1736Z" fill="#946E4F"/>
<path d="M91.4183 140.174C90.2921 141.655 90.2921 141.655 88.4183 143.174C85.691 143.514 85.691 143.514 82.4379 143.467C81.2745 143.457 80.1111 143.447 78.9125 143.437C77.6975 143.412 76.4826 143.387 75.2308 143.361C74.0043 143.348 72.7777 143.334 71.514 143.32C68.4817 143.285 65.4502 143.235 62.4183 143.174C62.4183 142.184 62.4183 141.194 62.4183 140.174C66.6888 139.977 70.9597 139.793 75.2308 139.611C76.4458 139.555 77.6607 139.499 78.9125 139.441C80.0759 139.393 81.2392 139.345 82.4379 139.295C83.5114 139.248 84.585 139.2 85.691 139.152C88.4183 139.174 88.4183 139.174 91.4183 140.174Z" fill="#16110C"/>
<path d="M45.4183 87.1736C46.4702 88.3493 46.4702 88.3493 47.5433 89.5486C52.4889 94.0641 56.8723 94.4355 63.4183 94.1736C63.7483 92.5236 64.0783 90.8736 64.4183 89.1736C65.0783 89.1736 65.7383 89.1736 66.4183 89.1736C66.4183 91.8136 66.4183 94.4536 66.4183 97.1736C62.8946 98.9355 59.2641 98.7173 55.4183 98.1736C51.9145 96.7838 48.67 95.0744 45.4183 93.1736C45.4183 91.1936 45.4183 89.2136 45.4183 87.1736Z" fill="#0E100B"/>
<path d="M34.4183 49.1736C35.0783 49.1736 35.7383 49.1736 36.4183 49.1736C37.6023 57.1971 38.7038 65.0382 38.4183 73.1736C38.0883 73.1736 37.7583 73.1736 37.4183 73.1736C37.0883 74.8236 36.7583 76.4736 36.4183 78.1736C36.0883 78.1736 35.7583 78.1736 35.4183 78.1736C35.079 75.1951 34.7467 72.2159 34.4183 69.2361C34.3229 68.4053 34.2276 67.5745 34.1293 66.7186C33.5246 61.1689 33.2409 55.7574 33.4183 50.1736C33.7483 49.8436 34.0783 49.5136 34.4183 49.1736Z" fill="#1F1C14"/>
<path d="M102.418 82.1737C99.4951 84.5871 96.8817 85.8132 93.2933 86.9862C89.0795 88.5266 89.0795 88.5266 86.7933 92.4237C86.6696 93.3312 86.5458 94.2387 86.4183 95.1737C86.0883 95.1737 85.7583 95.1737 85.4183 95.1737C85.4183 92.5337 85.4183 89.8937 85.4183 87.1737C91.2331 83.8977 95.6635 81.4394 102.418 82.1737Z" fill="#0B0907"/>
<path d="M59.4183 35.1736C59.7483 35.1736 60.0783 35.1736 60.4183 35.1736C60.4183 42.7636 60.4183 50.3536 60.4183 58.1736C59.4283 58.1736 58.4383 58.1736 57.4183 58.1736C57.3915 56.5279 57.372 54.882 57.3558 53.2361C57.3442 52.3196 57.3326 51.4031 57.3207 50.4588C57.4183 48.1736 57.4183 48.1736 58.4183 47.1736C58.6526 45.1577 58.8317 43.1352 58.9808 41.1111C59.0646 40.0064 59.1484 38.9017 59.2347 37.7635C59.2953 36.9088 59.3559 36.0542 59.4183 35.1736Z" fill="#13130E"/>
<path d="M65.4183 16.1736C72.0183 16.1736 78.6183 16.1736 85.4183 16.1736C85.4183 16.5036 85.4183 16.8336 85.4183 17.1736C84.2376 17.1646 83.0568 17.1556 81.8402 17.1463C80.2829 17.1744 78.7256 17.2045 77.1683 17.2361C76.0024 17.2197 76.0024 17.2197 74.8129 17.2029C72.484 17.2726 70.6216 17.4047 68.4183 18.1736C66.4305 20.4116 65.6038 22.3662 64.4183 25.1736C63.7583 25.1736 63.0983 25.1736 62.4183 25.1736C63.0051 21.6529 63.7748 19.4606 65.4183 16.1736Z" fill="#21331B"/>
<path d="M115.418 54.1736C115.748 54.1736 116.078 54.1736 116.418 54.1736C116.445 56.4236 116.465 58.6736 116.481 60.9236C116.492 62.1766 116.504 63.4296 116.516 64.7205C116.439 67.459 116.246 69.5924 115.418 72.1736C114.758 72.1736 114.098 72.1736 113.418 72.1736C113.049 59.5039 113.049 59.5039 115.418 54.1736Z" fill="#0C0A07"/>
<path d="M84.4183 87.1736C87.4183 90.1736 87.4183 90.1736 87.6058 92.8611C87.513 94.0058 87.513 94.0058 87.4183 95.1736C88.2021 95.1118 88.9858 95.0499 89.7933 94.9861C91.0927 95.079 91.0927 95.079 92.4183 95.1736C93.4083 96.6586 93.4083 96.6586 94.4183 98.1736C87.7933 98.2986 87.7933 98.2986 84.4183 97.1736C84.4183 93.8736 84.4183 90.5736 84.4183 87.1736Z" fill="#161810"/>
<path d="M112.418 68.1736C112.748 69.4936 113.078 70.8136 113.418 72.1736C114.078 72.1736 114.738 72.1736 115.418 72.1736C115.418 76.4636 115.418 80.7536 115.418 85.1736C115.088 85.1736 114.758 85.1736 114.418 85.1736C114.088 83.5236 113.758 81.8736 113.418 80.1736C113.088 80.1736 112.758 80.1736 112.418 80.1736C112.418 76.2136 112.418 72.2536 112.418 68.1736Z" fill="#2A2117"/>
<path d="M46.4184 81.1736C48.0684 81.1736 49.7184 81.1736 51.4184 81.1736C50.7584 81.8336 50.0984 82.4936 49.4184 83.1736C50.4084 83.8336 51.3984 84.4936 52.4184 85.1736C51.0984 85.1736 49.7784 85.1736 48.4184 85.1736C48.4184 87.1536 48.4184 89.1336 48.4184 91.1736C47.7584 90.8436 47.0984 90.5136 46.4184 90.1736C45.1327 83.7451 45.1327 83.7451 46.4184 81.1736Z" fill="#191F12"/>
<path d="M61.4183 24.1736C62.4083 24.8336 63.3983 25.4936 64.4183 26.1736C63.4283 28.4836 62.4383 30.7936 61.4183 33.1736C60.4283 33.1736 59.4383 33.1736 58.4183 33.1736C59.4083 30.2036 60.3983 27.2336 61.4183 24.1736Z" fill="#0F1710"/>
<path d="M92.4183 38.1736C92.7483 38.1736 93.0783 38.1736 93.4183 38.1736C93.4183 39.8236 93.4183 41.4736 93.4183 43.1736C95.0683 42.8436 96.7183 42.5136 98.4183 42.1736C97.1377 43.8811 95.8007 45.5474 94.4183 47.1736C93.7583 47.1736 93.0983 47.1736 92.4183 47.1736C92.4183 44.2036 92.4183 41.2336 92.4183 38.1736Z" fill="#6B5837"/>
<path d="M99.4183 94.1736C99.4183 94.8336 99.4183 95.4936 99.4183 96.1736C97.0129 97.3764 95.4684 97.2744 92.7933 97.2361C91.5674 97.2226 91.5674 97.2226 90.3168 97.2088C89.377 97.1914 89.377 97.1914 88.4183 97.1736C92.2801 95.1762 94.9701 94.1736 99.4183 94.1736Z" fill="#060505"/>
<path d="M102.418 87.1736C102.748 87.1736 103.078 87.1736 103.418 87.1736C103.748 89.4836 104.078 91.7936 104.418 94.1736C102.768 94.8336 101.118 95.4936 99.4183 96.1736C99.4183 95.5136 99.4183 94.8536 99.4183 94.1736C98.7583 93.8436 98.0983 93.5136 97.4183 93.1736C99.0683 92.8436 100.718 92.5136 102.418 92.1736C102.418 90.5236 102.418 88.8736 102.418 87.1736Z" fill="#172314"/>
<path d="M89.4183 22.1736C89.7483 22.1736 90.0783 22.1736 90.4183 22.1736C90.7483 25.1436 91.0783 28.1136 91.4183 31.1736C90.4283 31.5036 89.4383 31.8336 88.4183 32.1736C88.2933 25.5486 88.2933 25.5486 89.4183 22.1736Z" fill="#1B1A12"/>
<path d="M52.4183 94.1736C54.7578 94.4609 57.0922 94.793 59.4183 95.1736C59.4183 95.8336 59.4183 96.4936 59.4183 97.1736C56.5433 97.2986 56.5433 97.2986 53.4183 97.1736C52.7583 96.5136 52.0983 95.8536 51.4183 95.1736C51.7483 94.8436 52.0783 94.5136 52.4183 94.1736Z" fill="#070705"/>
</svg>
