<svg width="153" height="153" viewBox="0 0 153 153" fill="none" xmlns="http://www.w3.org/2000/svg">
<path d="M122.84 15.7655C138.216 28.0947 148.677 44.5128 151.836 64.1678C152.122 67.7564 152.168 71.319 152.148 74.9178C152.146 76.3567 152.146 76.3567 152.144 77.8246C152.044 85.2884 151.1 92.0234 148.836 99.1678C146.073 98.6451 143.51 98.0591 140.836 97.1678C142.964 99.5084 144.951 100.875 147.836 102.168C143.056 119.852 129.261 133.876 113.867 142.91C96.1941 152.258 74.298 155.896 54.8357 150.168C35.9811 144.1 19.0727 131.246 9.72341 113.651C7.32541 108.962 5.59625 105.484 5.83572 100.168C5.38197 99.7347 4.92822 99.3016 4.46072 98.8553C-1.81547 92.3378 0.321316 77.9377 0.464625 69.6796C0.798523 61.4129 2.47036 54.7378 5.83572 47.1678C6.10916 46.5388 6.3826 45.9097 6.66433 45.2616C15.0738 26.3773 30.5776 12.2073 49.7537 4.60924C74.5469 -4.52262 101.792 0.282799 122.84 15.7655Z" fill="#34583E"/>
<path d="M50.8357 40.1678C53.6196 41.5598 53.8147 43.3236 54.8357 46.1678C58.56 44.9553 62.2137 43.6592 65.8357 42.1678C66.4957 44.4778 67.1557 46.7878 67.8357 49.1678C69.1298 48.5479 70.4209 47.9217 71.7107 47.2928C72.43 46.9448 73.1493 46.5968 73.8904 46.2382C75.987 45.2023 75.987 45.2023 77.8357 43.1678C80.7156 43.5974 83.3738 44.6908 86.0857 45.7303C86.7921 45.9998 87.4985 46.2692 88.2263 46.5468C88.7574 46.7517 89.2885 46.9567 89.8357 47.1678C90.1657 45.5178 90.4957 43.8678 90.8357 42.1678C94.3211 42.8133 96.8639 44.2692 99.8357 46.1678C100.496 44.1878 101.156 42.2078 101.836 40.1678C105.524 41.3972 107.571 43.8068 109.755 46.9459C111.846 51.2457 111.58 55.8449 111.586 60.5428C111.619 62.5299 111.655 64.5169 111.695 66.5038C111.702 67.8116 111.702 67.8116 111.71 69.1459C111.612 71.1643 111.612 71.1643 112.836 72.1678C113.104 76.5994 113.107 81.037 113.131 85.4757C113.148 87.6973 113.192 89.9174 113.236 92.1385C113.344 101.975 112.302 109.01 105.426 116.66C96.5657 125.063 87.308 128.187 75.2107 128.543C64.094 128.199 56.1034 124.691 47.8357 117.168C42.2304 110.485 39.7104 105.692 39.7029 96.91C39.7019 96.2064 39.701 95.5027 39.7 94.7777C39.6993 93.2934 39.7011 91.809 39.7053 90.3246C39.7107 88.0444 39.7054 85.7644 39.699 83.4843C39.6996 82.0428 39.7009 80.6014 39.7029 79.16C39.704 77.8437 39.7051 76.5274 39.7063 75.1713C39.8357 72.1678 39.8357 72.1678 40.8357 71.1678C40.9203 69.6151 40.9439 68.0589 40.9412 66.5038C40.956 65.546 40.9708 64.5882 40.9861 63.6014C41.0105 61.586 41.0162 59.5701 41.0017 57.5546C41.1367 51.4273 41.9085 47.9217 46.2588 43.4945C47.8357 42.1678 47.8357 42.1678 50.8357 40.1678Z" fill="#6FB654"/>
<path d="M36.8357 90.1678C36.8614 91.1578 36.8872 92.1478 36.9138 93.1678C37.2894 103.772 37.2894 103.772 41.8357 113.168C42.5627 114.179 42.5627 114.179 43.3044 115.211C49.8771 123.473 59.3606 128.855 69.8357 130.168C83.2083 130.881 93.0017 128.591 104.086 120.918C111.213 113.791 114.842 106.391 115.461 96.2928C115.535 95.1404 115.61 93.988 115.687 92.8007C115.761 91.4974 115.761 91.4974 115.836 90.1678C122.961 91.5025 129.162 93.7895 135.773 96.7303C137.19 97.3481 137.19 97.3481 138.634 97.9784C145.199 100.849 145.199 100.849 147.836 102.168C143.056 119.852 129.261 133.876 113.867 142.91C96.194 152.258 74.2979 155.896 54.8357 150.168C35.0631 143.804 18.2362 130.229 8.71066 111.73C5.78164 105.905 5.78164 105.905 5.9858 103.119C7.18404 100.368 8.57199 100.005 11.3161 98.8788C12.2333 98.4946 13.1505 98.1105 14.0954 97.7147C15.0616 97.328 16.0277 96.9413 17.0232 96.5428C17.97 96.1484 18.9168 95.7539 19.8923 95.3475C32.4303 90.1678 32.4303 90.1678 36.8357 90.1678Z" fill="#70B754"/>
<path d="M64.8357 12.1678C68.8357 13.5012 72.8357 14.8345 76.8357 16.1678C78.512 15.4119 80.1872 14.6533 81.8513 13.871C85.2068 12.682 88.308 12.9822 91.8357 13.1678C91.8357 14.1578 91.8357 15.1478 91.8357 16.1678C92.8115 16.1562 93.7873 16.1446 94.7927 16.1327C96.065 16.1237 97.3373 16.1146 98.6482 16.1053C99.9128 16.0937 101.177 16.0821 102.48 16.0702C105.836 16.1678 105.836 16.1678 108.836 17.1678C108.176 18.8178 107.516 20.4678 106.836 22.1678C108.166 22.5391 108.166 22.5391 109.523 22.9178C112.94 24.2072 115.115 25.7676 117.836 28.1678C117.341 29.6528 117.341 29.6528 116.836 31.1678C116.176 31.1678 115.516 31.1678 114.836 31.1678C115.572 32.8075 115.572 32.8075 116.324 34.4803C118.286 39.713 118.172 44.6432 118.023 50.1678C118.003 51.6161 118.003 51.6161 117.982 53.0936C117.947 55.4523 117.898 57.8098 117.836 60.1678C119.486 60.4978 121.136 60.8278 122.836 61.1678C123.166 62.1578 123.496 63.1478 123.836 64.1678C121.526 63.8378 119.216 63.5078 116.836 63.1678C116.176 71.0878 115.516 79.0078 114.836 87.1678C114.506 87.1678 114.176 87.1678 113.836 87.1678C113.836 81.8878 113.836 76.6078 113.836 71.1678C112.846 71.1678 111.856 71.1678 110.836 71.1678C110.837 70.5433 110.838 69.9187 110.839 69.2753C110.827 66.4051 110.769 63.5375 110.711 60.6678C110.713 59.6856 110.716 58.7033 110.719 57.6913C110.529 50.5997 108.967 46.1824 103.836 41.1678C103.176 40.8378 102.516 40.5078 101.836 40.1678C101.506 42.1478 101.176 44.1278 100.836 46.1678C97.2557 46.1678 96.6018 45.2424 93.8357 43.1678C92.8457 43.1678 91.8557 43.1678 90.8357 43.1678C90.5057 44.4878 90.1757 45.8078 89.8357 47.1678C86.1008 46.6699 84.0233 46.2929 80.8357 44.1678C77.8121 44.3764 76.3277 45.51 73.7732 47.2303C70.8357 49.1678 70.8357 49.1678 67.8357 49.1678C66.3751 46.5205 65.8357 45.2734 65.8357 42.1678C64.9134 42.7267 64.9134 42.7267 63.9724 43.2968C62.76 44.0064 62.76 44.0064 61.5232 44.7303C60.3224 45.4438 60.3224 45.4438 59.0974 46.1718C56.8357 47.1678 56.8357 47.1678 53.8357 46.1678C52.6482 43.6053 52.6482 43.6053 51.8357 41.1678C48.1061 43.4885 45.1375 45.3925 42.8357 49.1678C42.3529 51.6557 42.3529 51.6557 42.3591 54.3358C42.3127 55.7986 42.3127 55.7986 42.2654 57.2909C42.2473 58.3022 42.2293 59.3134 42.2107 60.3553C42.1599 62.3698 42.1054 64.3841 42.0466 66.3983C42.0291 67.2893 42.0115 68.1803 41.9934 69.0983C41.8357 71.1678 41.8357 71.1678 40.8357 72.1678C40.5674 76.5994 40.5643 81.037 40.5405 85.4757C40.5234 87.6973 40.4796 89.9174 40.4353 92.1385C40.3526 99.7178 40.5101 105.659 44.8357 112.168C45.3719 113.013 45.9082 113.859 46.4607 114.73C54.6332 123.118 63.5546 127.23 75.2107 127.48C81.538 127.337 87.6401 126.418 93.8357 125.168C92.8357 128.168 92.8357 128.168 91.1482 129.293C81.2807 133.026 68.2437 132.367 58.6013 128.203C49.1301 123.353 42.3196 116.816 37.8357 107.168C37.5057 106.508 37.1757 105.848 36.8357 105.168C36.7654 103.294 36.7514 101.418 36.7732 99.5428C36.7822 98.54 36.7912 97.5371 36.8005 96.5038C36.8179 95.3475 36.8179 95.3475 36.8357 94.1678C37.1657 94.1678 37.4957 94.1678 37.8357 94.1678C37.8941 90.7929 37.9294 87.4181 37.9607 84.0428C37.9775 83.0915 37.9942 82.1402 38.0115 81.16C38.047 76.0399 37.7639 71.9884 35.8357 67.1678C35.7107 64.2928 35.7107 64.2928 35.8357 62.1678C35.1757 62.1678 34.5157 62.1678 33.8357 62.1678C34.204 39.3666 34.204 39.3666 38.8357 30.1678C37.8457 29.8378 36.8557 29.5078 35.8357 29.1678C36.8357 26.1678 36.8357 26.1678 39.1208 24.7811C40.0374 24.3519 40.9539 23.9226 41.8982 23.4803C43.2768 22.8249 43.2768 22.8249 44.6833 22.1561C45.3936 21.83 46.1039 21.5039 46.8357 21.1678C46.5057 19.5178 46.1757 17.8678 45.8357 16.1678C51.7757 16.1678 57.7157 16.1678 63.8357 16.1678C64.1657 14.8478 64.4957 13.5278 64.8357 12.1678Z" fill="#020402"/>
<path d="M35.8357 34.1678C36.7699 37.1782 36.8802 38.0343 35.8357 41.1678C35.6899 42.6475 35.589 44.1319 35.5193 45.6171C35.4774 46.4646 35.4355 47.3122 35.3923 48.1854C35.353 49.0665 35.3137 49.9476 35.2732 50.8553C35.23 51.748 35.1868 52.6407 35.1423 53.5604C35.0363 55.7627 34.9342 57.9652 34.8357 60.1678C33.8663 60.6216 32.8969 61.0753 31.8982 61.5428C28.7649 62.8257 28.7649 62.8257 27.8357 65.1678C26.8398 77.4043 26.8398 77.4043 31.8357 88.1678C30.2124 88.8387 28.587 89.5044 26.9607 90.1678C26.0557 90.5391 25.1508 90.9103 24.2185 91.2928C21.8357 92.1678 21.8357 92.1678 19.8357 92.1678C16.2113 78.5763 16.3583 63.4027 23.4607 50.9803C27.0502 44.9622 31.2478 39.4634 35.8357 34.1678Z" fill="#4A7151"/>
<path d="M115.836 34.1678C125.945 43.6828 134.654 56.7847 135.101 71.0155C135.107 72.7538 135.101 74.4921 135.086 76.2303C135.093 77.1024 135.101 77.9744 135.109 78.8729C135.095 83.7035 134.712 87.6342 132.836 92.1678C128.271 91.6244 124.863 90.3732 120.836 88.1678C121.845 86.41 122.854 84.6522 123.863 82.8944C126.685 77.8856 126.374 72.8236 125.836 67.1678C124.838 64.4035 123.942 63.3324 121.836 61.1678C119.759 60.5023 119.759 60.5023 117.836 60.1678C117.811 59.5579 117.786 58.9479 117.76 58.3195C117.643 55.5396 117.521 52.76 117.398 49.9803C117.359 49.0206 117.32 48.0609 117.279 47.0721C117.237 46.1408 117.195 45.2094 117.152 44.2499C117.097 42.9695 117.097 42.9695 117.041 41.6632C116.83 39.1033 116.387 36.6745 115.836 34.1678Z" fill="#4B7353"/>
<path d="M116.836 62.1678C122.7 62.4471 122.7 62.4471 124.836 63.1678C128.157 67.6977 127.313 73.8453 126.836 79.1678C125.495 82.6417 123.893 85.0821 121.836 88.1678C131.736 92.1278 131.736 92.1278 141.836 96.1678C141.176 97.1578 140.516 98.1478 139.836 99.1678C131.916 96.1978 123.996 93.2278 115.836 90.1678C115.918 92.1066 116.001 94.0453 116.086 96.0428C116.042 106.088 113.003 112.827 106.14 120.117C102.407 123.44 98.2514 125.86 93.8357 128.168C93.5057 127.508 93.1757 126.848 92.8357 126.168C95.2633 123.538 97.7784 121.497 100.711 119.48C106.009 115.598 109.758 110.402 111.836 104.168C111.92 101.654 111.952 99.1692 111.933 96.6561C111.932 95.9279 111.931 95.1997 111.929 94.4494C111.923 92.1263 111.911 89.8034 111.898 87.4803C111.893 85.9042 111.889 84.328 111.885 82.7518C111.874 78.8905 111.856 75.0292 111.836 71.1678C112.496 71.1678 113.156 71.1678 113.836 71.1678C114.166 72.1578 114.496 73.1478 114.836 74.1678C114.927 72.9942 114.927 72.9942 115.019 71.7968C115.103 70.7848 115.187 69.7729 115.273 68.7303C115.354 67.721 115.436 66.7117 115.519 65.6718C115.836 63.1678 115.836 63.1678 116.836 62.1678Z" fill="#0A110B"/>
<path d="M33.8357 60.1678C33.8357 60.8278 33.8357 61.4878 33.8357 62.1678C34.4957 62.1678 35.1557 62.1678 35.8357 62.1678C38.7327 70.6739 39.2111 78.4176 39.0232 87.3553C39.0029 89.2126 39.0029 89.2126 38.9822 91.1073C38.9472 94.128 38.8981 97.1477 38.8357 100.168C38.5057 100.168 38.1757 100.168 37.8357 100.168C37.3407 95.2178 37.3407 95.2178 36.8357 90.1678C26.4061 93.9535 16.0204 97.7565 5.83569 102.168C5.89819 100.387 5.89819 100.387 6.83569 98.1678C9.181 96.8037 11.3557 95.7186 13.8357 94.6678C14.5125 94.3674 15.1894 94.067 15.8867 93.7574C17.8646 92.8819 19.8497 92.0246 21.8357 91.1678C23.6489 90.357 25.4616 89.5448 27.2732 88.7303C28.4488 88.2147 29.6244 87.6991 30.8357 87.1678C29.8631 85.9323 29.8631 85.9323 28.8708 84.6718C26.421 80.9834 26.2043 77.4434 26.2732 73.1053C26.2493 72.4112 26.2255 71.717 26.2009 71.0018C26.2123 67.0136 26.7222 65.3089 29.2458 62.1718C31.8357 60.1678 31.8357 60.1678 33.8357 60.1678Z" fill="#060A07"/>
<path d="M38.8356 72.1678C39.1656 72.1678 39.4956 72.1678 39.8356 72.1678C39.845 73.0953 39.8543 74.0228 39.8639 74.9784C39.9082 78.4529 39.9699 81.9263 40.0431 85.4003C40.0712 86.8976 40.0925 88.395 40.1066 89.8925C40.1822 101.592 40.1822 101.592 44.8356 112.168C45.3719 113.013 45.9081 113.859 46.4606 114.73C54.6332 123.118 63.5546 127.23 75.2106 127.48C81.5379 127.337 87.64 126.418 93.8356 125.168C92.8356 128.168 92.8356 128.168 91.1481 129.293C81.2807 133.026 68.2437 132.367 58.6012 128.203C49.13 123.353 42.3195 116.816 37.8356 107.168C37.5056 106.508 37.1756 105.848 36.8356 105.168C36.7653 103.294 36.7513 101.418 36.7731 99.5428C36.7821 98.54 36.7912 97.5371 36.8005 96.5038C36.8121 95.7329 36.8237 94.9621 36.8356 94.1678C37.1656 94.1678 37.4956 94.1678 37.8356 94.1678C38.1656 86.9078 38.4956 79.6478 38.8356 72.1678Z" fill="#0F180D"/>
<path d="M47.8357 66.1678C53.0849 65.8086 56.8775 66.9817 61.6482 68.9178C62.6682 69.2968 62.6682 69.2968 63.7087 69.6835C68.6069 71.6369 68.6069 71.6369 69.7849 74.371C69.81 75.2604 69.81 75.2604 69.8357 76.1678C65.0841 79.4139 61.4664 79.8956 55.7966 79.8046C51.3617 78.8509 49.5445 76.4828 46.9451 72.9178C46.579 72.3403 46.2129 71.7628 45.8357 71.1678C46.4957 69.5178 47.1557 67.8678 47.8357 66.1678Z" fill="#060A05"/>
<path d="M103.836 66.1679C104.496 66.8279 105.156 67.4879 105.836 68.1679C105.461 70.7929 105.461 70.7929 104.836 73.1679C104.176 73.1679 103.516 73.1679 102.836 73.1679C102.403 74.3744 102.403 74.3744 101.961 75.6054C100.836 78.1679 100.836 78.1679 98.8357 79.1679C97.0471 79.2899 95.2534 79.3433 93.4607 79.3554C92.026 79.3766 92.026 79.3766 90.5623 79.3983C87.7063 79.1569 86.1184 78.9033 83.8357 77.1679C83.0857 74.5429 83.0857 74.5429 82.8357 72.1679C85.3945 71.1575 87.9571 70.1595 90.5232 69.1679C91.2444 68.8817 91.9657 68.5955 92.7087 68.3007C99.8223 65.5722 99.8223 65.5722 103.836 66.1679Z" fill="#050905"/>
<path d="M116.836 62.1678C119.473 62.4316 120.598 62.9193 122.445 64.8475C124.199 67.7735 124.236 69.7113 124.211 73.1053C124.218 74.125 124.226 75.1446 124.234 76.1952C123.656 80.5102 121.875 83.1282 118.836 86.1678C117.846 86.1678 116.856 86.1678 115.836 86.1678C115.807 82.3554 115.789 78.5429 115.773 74.7303C115.765 73.6417 115.756 72.5531 115.748 71.4315C115.745 70.397 115.741 69.3626 115.738 68.2968C115.733 67.3384 115.728 66.3801 115.722 65.3927C115.836 63.1678 115.836 63.1678 116.836 62.1678Z" fill="#68B150"/>
<path d="M35.8357 63.1678C36.7053 66.1649 36.9533 68.8174 36.9333 71.9335C36.9301 72.8229 36.9269 73.7124 36.9236 74.6288C36.9152 75.5492 36.9068 76.4696 36.8982 77.4178C36.8937 78.3537 36.8892 79.2896 36.8845 80.2538C36.8728 82.5585 36.8563 84.8632 36.8357 87.1678C33.9832 85.7975 31.8906 84.6141 29.8357 82.1678C28.7768 78.9913 28.6352 76.568 28.5857 73.2303C28.547 71.6699 28.547 71.6699 28.5076 70.078C29.1056 64.7744 30.4646 63.1678 35.8357 63.1678Z" fill="#69B052"/>
<path d="M98.8357 103.168C98.8357 104.158 98.8357 105.148 98.8357 106.168C95.8286 105.738 93.1305 105.287 90.3044 104.148C85.4941 102.789 80.935 102.839 75.9607 102.855C75.0055 102.839 74.0503 102.823 73.0662 102.807C66.9057 102.802 62.4945 103.769 56.8357 106.168C55.8457 106.168 54.8557 106.168 53.8357 106.168C53.8357 105.178 53.8357 104.188 53.8357 103.168C69.6303 97.051 82.8689 96.515 98.8357 103.168Z" fill="#080E07"/>
<path d="M59.8357 110.168C70.7257 110.168 81.6157 110.168 92.8357 110.168C92.8357 111.158 92.8357 112.148 92.8357 113.168C81.9457 113.168 71.0557 113.168 59.8357 113.168C59.8357 112.178 59.8357 111.188 59.8357 110.168Z" fill="#0F190B"/>
<path d="M66.8357 82.1678C67.8257 82.1678 68.8157 82.1678 69.8357 82.1678C70.1657 83.8178 70.4957 85.4678 70.8357 87.1678C74.7957 87.1678 78.7557 87.1678 82.8357 87.1678C82.8357 85.5178 82.8357 83.8678 82.8357 82.1678C83.8257 82.4978 84.8157 82.8278 85.8357 83.1678C86.1482 85.4803 86.1482 85.4803 85.8357 88.1678C82.1604 91.7206 78.0713 91.5216 73.238 91.5663C70.3257 91.0833 68.9336 90.2274 66.8357 88.1678C66.5857 84.9803 66.5857 84.9803 66.8357 82.1678Z" fill="#131B11"/>
<path d="M81.8357 98.1679C81.8357 98.4979 81.8357 98.8279 81.8357 99.1679C75.8957 99.6629 75.8957 99.6629 69.8357 100.168C73.7957 100.498 77.7557 100.828 81.8357 101.168C81.8357 101.498 81.8357 101.828 81.8357 102.168C80.1341 102.224 80.1341 102.224 78.3982 102.281C70.649 102.598 63.9756 102.884 56.8357 106.168C55.8457 106.168 54.8557 106.168 53.8357 106.168C53.8357 105.178 53.8357 104.188 53.8357 103.168C63.3986 99.4644 71.4136 97.377 81.8357 98.1679Z" fill="#27441F"/>
<path d="M33.8356 60.1678C33.8356 60.8278 33.8356 61.4878 33.8356 62.1678C34.4956 62.4978 35.1556 62.8278 35.8356 63.1678C34.6291 63.601 34.6291 63.601 33.3981 64.0428C30.703 64.9005 30.703 64.9005 29.8356 67.1678C29.7645 69.5419 29.7515 71.9179 29.7731 74.2928C29.7821 75.5742 29.7912 76.8555 29.8005 78.1757C29.8121 79.1631 29.8237 80.1505 29.8356 81.1678C28.8456 81.1678 27.8556 81.1678 26.8356 81.1678C26.7 78.6036 26.6013 76.0465 26.5231 73.4803C26.4812 72.7591 26.4393 72.0379 26.3962 71.2948C26.2994 67.0552 26.4851 65.6099 29.2302 62.1483C31.8356 60.1678 31.8356 60.1678 33.8356 60.1678Z" fill="#080C08"/>
<path d="M123.836 63.1678C126.967 66.5537 127.171 68.8789 127.023 73.4178C126.983 75.0343 126.983 75.0343 126.941 76.6835C126.906 77.5033 126.872 78.3232 126.836 79.1678C124.849 77.5102 123.926 76.5756 123.359 74.0116C123.31 73.2382 123.261 72.4647 123.211 71.6678C123.015 68.8658 122.736 66.8691 121.836 64.1678C122.496 63.8378 123.156 63.5078 123.836 63.1678Z" fill="#121E15"/>
<path d="M64.8357 101.168C64.8357 101.828 64.8357 102.488 64.8357 103.168C63.5673 103.674 62.2959 104.173 61.0232 104.668C59.9617 105.086 59.9617 105.086 58.8787 105.512C56.8357 106.168 56.8357 106.168 53.8357 106.168C53.8357 105.178 53.8357 104.188 53.8357 103.168C55.1018 102.636 56.3738 102.117 57.6482 101.605C58.3559 101.315 59.0636 101.025 59.7927 100.726C61.8357 100.168 61.8357 100.168 64.8357 101.168Z" fill="#0C1209"/>
<path d="M66.8357 82.1678C67.8257 82.1678 68.8157 82.1678 69.8357 82.1678C69.9182 82.9516 70.0007 83.7353 70.0857 84.5428C70.5638 87.3153 70.5638 87.3153 72.8982 88.4803C73.5376 88.7072 74.1769 88.9341 74.8357 89.1678C74.8357 89.4978 74.8357 89.8278 74.8357 90.1678C71.9607 90.2928 71.9607 90.2928 68.8357 90.1678C66.8357 88.1678 66.8357 88.1678 66.7107 85.0428C66.7519 84.0941 66.7932 83.1453 66.8357 82.1678Z" fill="#0B0F0B"/>
<path d="M31.8357 87.1678C32.1657 87.8278 32.4957 88.4878 32.8357 89.1678C29.5038 92.4997 26.2646 93.79 21.8357 95.1678C21.8357 93.8478 21.8357 92.5278 21.8357 91.1678C25.1357 89.8478 28.4357 88.5278 31.8357 87.1678Z" fill="#0C150F"/>
<path d="M33.8357 60.1678C33.8357 60.8278 33.8357 61.4878 33.8357 62.1678C34.4957 62.4978 35.1557 62.8278 35.8357 63.1678C35.0519 63.4566 34.2682 63.7453 33.4607 64.0428C30.739 65.017 30.739 65.017 28.8357 67.1678C28.1757 67.1678 27.5157 67.1678 26.8357 67.1678C29.2304 60.1678 29.2304 60.1678 33.8357 60.1678Z" fill="#10190F"/>
<path d="M83.8357 110.168C86.8057 110.168 89.7757 110.168 92.8357 110.168C92.8357 111.158 92.8357 112.148 92.8357 113.168C90.0232 113.355 90.0232 113.355 86.8357 113.168C85.8457 112.178 84.8557 111.188 83.8357 110.168Z" fill="#101C0E"/>
<path d="M42.8357 56.1678C43.1657 56.1678 43.4957 56.1678 43.8357 56.1678C43.8963 56.7943 43.9569 57.4208 44.0193 58.0663C44.1031 58.8835 44.1869 59.7008 44.2732 60.5428C44.3544 61.355 44.4356 62.1671 44.5193 63.0038C44.7266 65.2106 44.7266 65.2106 45.8357 67.1678C45.1757 67.8278 44.5157 68.4878 43.8357 69.1678C42.8357 68.1678 42.8357 68.1678 42.738 65.4452C42.7496 64.343 42.7612 63.2409 42.7732 62.1053C42.7822 61.0006 42.7912 59.8959 42.8005 58.7577C42.8121 57.903 42.8237 57.0484 42.8357 56.1678Z" fill="#78C45A"/>
</svg>
