<svg width="154" height="154" viewBox="0 0 154 154" fill="none" xmlns="http://www.w3.org/2000/svg">
<path d="M99.33 3.91973C100.317 4.27165 101.305 4.62356 102.322 4.98614C122.417 12.7326 137.597 27.2697 146.564 46.7322C154.377 64.7123 155.35 85.5955 148.151 103.948C139.611 124.45 124.851 139.188 104.405 148.074C86.4147 155.407 65.1433 155.535 47.1893 148.024C36.6532 143.303 28.2902 137.226 20.33 128.92C19.6442 128.218 18.9584 127.517 18.2518 126.795C4.13396 111.572 -0.384869 92.4344 0.0252689 72.244C0.788413 54.5686 8.42909 37.8961 20.33 24.9197C20.9552 24.2146 21.5803 23.5095 22.2245 22.783C27.2676 17.3907 32.9505 13.5857 39.33 9.91973C40.1214 9.45567 40.9129 8.99161 41.7284 8.51348C58.5232 -0.637165 81.2625 -2.79489 99.33 3.91973Z" fill="#F2B428"/>
<path d="M57.33 16.9197C58.1925 20.7958 59.0467 24.6735 59.8935 28.553C60.3237 30.5161 60.7604 32.4777 61.1972 34.4393C61.4679 35.6832 61.7386 36.9272 62.0175 38.2088C62.2689 39.3504 62.5202 40.4921 62.7792 41.6683C63.33 44.9197 63.33 44.9197 63.33 50.9197C71.58 50.9197 79.83 50.9197 88.33 50.9197C89.5568 43.846 89.5568 43.846 90.7826 36.772C91.933 30.1486 93.1171 23.532 94.33 16.9197C99.5596 17.4222 103.304 18.6297 107.893 21.1697C108.966 21.7524 110.04 22.3351 111.146 22.9354C112.722 23.9176 112.722 23.9176 114.33 24.9197C115.37 25.495 116.41 26.0702 117.481 26.6629C119.791 28.6376 120.296 29.7458 120.888 32.7701C121.11 36.5251 121.138 40.2547 121.092 44.0135C121.093 45.4068 121.097 46.8002 121.102 48.1935C121.106 51.1091 121.089 54.0235 121.057 56.9388C121.018 60.6684 121.027 64.3959 121.052 68.1256C121.066 71.0014 121.056 73.8768 121.038 76.7526C121.032 78.1272 121.033 79.5019 121.042 80.8766C121.088 91.9009 121.088 91.9009 117.97 96.0919C117.099 96.6951 116.228 97.2983 115.33 97.9197C114.335 99.0193 113.354 100.131 112.393 101.26C111.638 102.142 111.638 102.142 110.869 103.043C110.107 103.941 110.107 103.941 109.33 104.857C108.822 105.452 108.314 106.047 107.791 106.66C107.288 107.25 106.785 107.839 106.268 108.447C105.776 109.023 105.285 109.599 104.779 110.193C103.809 111.349 102.853 112.518 101.912 113.698C100.758 115.138 99.5488 116.534 98.33 117.92C97.67 117.92 97.01 117.92 96.33 117.92C96 117.26 95.67 116.6 95.33 115.92C82.46 115.92 69.59 115.92 56.33 115.92C56 116.58 55.67 117.24 55.33 117.92C50.7745 116.401 48.9107 112.933 46.0556 109.182C44.2847 106.95 42.7269 105.426 40.4794 103.586C33.3646 97.258 31.6455 91.6683 31.0545 82.1933C30.8602 76.5964 30.8917 71.0052 31.0058 65.407C31.0801 61.757 31.0642 58.1139 31.0209 54.4636C30.9961 51.6302 31.0152 48.7984 31.0478 45.9651C31.064 43.9717 31.0465 41.9781 31.0282 39.9847C31.28 31.1734 31.28 31.1734 34.2998 27.568C36.5695 25.7715 38.7943 24.3085 41.33 22.9197C42.4399 22.261 43.5498 21.6023 44.6933 20.9236C45.6665 20.448 46.6398 19.9723 47.6425 19.4822C48.6286 18.9885 49.6148 18.4948 50.6308 17.9861C53.33 16.9197 53.33 16.9197 57.33 16.9197Z" fill="#F4C934"/>
<path d="M118.33 24.9198C119.022 25.4588 119.714 25.9979 120.427 26.5533C123.087 29.8614 122.787 32.1054 122.721 36.3104C122.715 37.015 122.709 37.7196 122.703 38.4456C122.681 40.6877 122.631 42.9281 122.58 45.1698C122.56 46.6932 122.542 48.2166 122.525 49.7401C122.481 53.4671 122.412 57.1933 122.33 60.9198C122.928 61.0435 123.526 61.1673 124.142 61.2948C126.33 61.9198 126.33 61.9198 129.33 63.9198C130.166 68.2889 130.071 72.7304 130.142 77.1698C130.248 79.0125 130.248 79.0125 130.355 80.8924C130.412 84.4979 130.33 87.4512 129.33 90.9198C126.35 93.7302 123.021 95.2171 119.33 96.9198C116.541 98.8527 116.541 98.8527 115.33 101.92C114.85 107.16 115.065 112.411 115.281 117.662C115.296 125.729 115.296 125.729 112.624 129.022C110.29 130.862 107.862 132.366 105.33 133.92C104.615 134.558 103.9 135.197 103.164 135.854C95.3018 142.661 86.5865 142.169 76.7049 142.045C75.855 142.044 75.0051 142.044 74.1294 142.043C62.1935 141.984 52.806 141.096 43.787 132.521C42.9762 131.663 42.1653 130.804 41.3299 129.92C39.8449 128.93 39.8449 128.93 38.3299 127.92C37.9293 125.984 37.9293 125.984 37.8885 123.631C37.8621 122.771 37.8357 121.911 37.8085 121.025C37.7949 120.124 37.7814 119.223 37.7674 118.295C37.9029 106.828 37.9029 106.828 32.6424 97.2323C30.9719 95.9674 29.3918 94.9495 27.5016 94.0418C25.3106 92.8679 23.9166 91.849 22.3299 89.9198C21.319 85.7164 21.4428 81.659 21.5799 77.3573C21.5696 76.2209 21.5593 75.0846 21.5487 73.9139C21.6653 65.682 21.6653 65.682 24.7518 62.1424C27.3299 60.9198 27.3299 60.9198 29.3299 60.9198C29.2671 59.5207 29.2671 59.5207 29.203 58.0933C29.066 54.6059 28.9661 51.1214 28.8905 47.6324C28.8504 46.1277 28.796 44.6233 28.7264 43.1197C28.1686 30.7447 28.1686 30.7447 30.8827 26.4798C32.9316 24.6225 34.9203 23.2695 37.3299 21.9198C37.9571 21.5188 38.5842 21.1178 39.2303 20.7047C41.0587 19.5855 42.9054 18.613 44.8299 17.6698C45.5128 17.3333 46.1957 16.9969 46.8993 16.6502C69.4793 6.10942 98.7632 9.49515 118.33 24.9198ZM46.5174 20.0448C45.3354 20.6248 44.1533 21.2049 42.9354 21.8026C41.7255 22.4942 40.5236 23.2003 39.3299 23.9198C38.4145 24.4273 38.4145 24.4273 37.4805 24.945C34.1778 27.1804 32.5687 28.877 31.6634 32.8316C31.3844 36.561 31.3338 40.2307 31.3651 43.9705C31.3578 45.3529 31.3486 46.7352 31.3376 48.1175C31.3228 51.0104 31.3337 53.9018 31.3624 56.7945C31.3966 60.4808 31.3634 64.1629 31.3102 67.8489C31.2772 70.7036 31.2823 73.5572 31.2984 76.412C31.3025 78.4243 31.2737 80.4366 31.244 82.4486C31.3603 89.012 31.7899 93.1093 36.2311 98.1285C37.5794 99.4114 38.944 100.678 40.3299 101.92C41.2223 102.937 42.0958 103.971 42.9393 105.029C44.3756 106.801 45.8131 108.572 47.2518 110.342C48.6863 112.121 50.091 113.925 51.4706 115.748C52.0842 116.465 52.6978 117.181 53.3299 117.92C53.9899 117.92 54.6499 117.92 55.3299 117.92C55.6599 117.26 55.9899 116.6 56.3299 115.92C69.1999 115.92 82.0699 115.92 95.3299 115.92C95.6599 116.58 95.9899 117.24 96.3299 117.92C100.534 116.354 102.89 113.229 105.642 109.857C106.124 109.278 106.607 108.699 107.103 108.102C110.506 103.993 113.799 99.8053 116.99 95.5291C118.33 93.9198 118.33 93.9198 120.33 92.9198C120.586 84.8442 120.781 76.7703 120.9 68.6917C120.957 64.9396 121.035 61.1903 121.16 57.4398C121.28 53.815 121.345 50.1929 121.374 46.5662C121.394 45.188 121.433 43.81 121.493 42.4329C121.89 34.2266 121.89 34.2266 118.017 27.345C111.36 22.385 102.797 16.9198 94.3299 16.9198C94.2193 17.5589 94.1086 18.198 93.9945 18.8565C93.4818 21.8152 92.9684 24.7737 92.4549 27.7323C92.2809 28.7371 92.1069 29.7419 91.9276 30.7772C91.7536 31.7794 91.5796 32.7817 91.4003 33.8143C91.2432 34.7203 91.0861 35.6262 90.9242 36.5596C90.0771 41.3495 89.2001 46.134 88.3299 50.9198C80.0799 50.9198 71.8299 50.9198 63.3299 50.9198C62.9999 47.2898 62.6699 43.6598 62.3299 39.9198C61.9817 37.8757 61.5945 35.8371 61.1385 33.8143C60.9162 32.812 60.6938 31.8098 60.4647 30.7772C60.2346 29.7723 60.0045 28.7675 59.7674 27.7323C59.5335 26.6849 59.2995 25.6375 59.0585 24.5584C58.4884 22.0107 57.9122 19.4647 57.3299 16.9198C52.9475 16.9198 50.3064 18.1158 46.5174 20.0448Z" fill="#0E0A07"/>
<path d="M118.33 24.9198C119.022 25.4588 119.714 25.9979 120.427 26.5533C123.087 29.8614 122.787 32.1054 122.721 36.3104C122.715 37.015 122.709 37.7196 122.703 38.4456C122.681 40.6877 122.631 42.9281 122.58 45.1698C122.56 46.6932 122.542 48.2166 122.525 49.7401C122.481 53.4671 122.412 57.1933 122.33 60.9198C122.928 61.0435 123.526 61.1673 124.142 61.2948C126.33 61.9198 126.33 61.9198 129.33 63.9198C129.671 66.6253 129.671 66.6253 129.623 70.0213C129.613 71.233 129.604 72.4448 129.594 73.6932C129.568 74.9642 129.543 76.2352 129.517 77.5448C129.497 79.4629 129.497 79.4629 129.476 81.4198C129.441 84.5868 129.392 87.7531 129.33 90.9198C128.01 91.2498 126.69 91.5798 125.33 91.9198C125.66 83.0098 125.99 74.0998 126.33 64.9198C124.35 64.4248 124.35 64.4248 122.33 63.9198C122.33 73.1597 122.33 82.3998 122.33 91.9198C120.33 89.9198 120.33 89.9198 120.119 87.4485C120.136 86.4082 120.152 85.3678 120.17 84.296C120.188 82.5282 120.188 82.5282 120.207 80.7248C120.227 79.4446 120.247 78.1645 120.267 76.8455C120.274 74.8402 120.281 72.8349 120.284 70.8296C120.291 65.8766 120.313 60.925 120.402 55.9727C120.45 53.1976 120.472 50.4248 120.465 47.6493C120.458 45.0358 120.49 42.4219 120.564 39.8095C120.579 33.0789 120.579 33.0789 117.142 27.5748C114.606 25.7723 112.116 24.2971 109.33 22.9198C108.26 22.3448 107.19 21.7699 106.088 21.1776C105.219 20.8037 104.35 20.4299 103.455 20.0448C102.571 19.6555 101.686 19.2662 100.775 18.8651C98.6317 18.0364 96.5717 17.4098 94.33 16.9198C94.3802 17.8105 94.4305 18.7012 94.4823 19.619C94.4808 25.4323 93.0711 31.0664 91.8925 36.7323C91.6624 37.8763 91.4323 39.0203 91.1952 40.199C89.4753 48.6291 89.4753 48.6291 88.33 50.9198C80.08 50.9198 71.83 50.9198 63.33 50.9198C62.4708 46.8822 61.6147 42.8441 60.7665 38.8043C60.4773 37.4315 60.1863 36.0591 59.8934 34.6871C59.4717 32.7096 59.0565 30.7309 58.6425 28.7518C58.3911 27.563 58.1397 26.3743 57.8807 25.1495C57.3978 22.3178 57.2167 19.7812 57.33 16.9198C55.3846 17.5631 53.449 18.2362 51.5175 18.9198C50.4385 19.291 49.3596 19.6623 48.2479 20.0448C42.6474 22.5412 37.5188 25.3762 33.33 29.9198C31.781 34.7116 31.9042 39.2619 32.037 44.2635C32.0351 45.6421 32.0283 47.0208 32.0169 48.3994C32 52.0044 32.0484 55.6055 32.1111 59.2099C32.1634 62.897 32.1531 66.5839 32.1483 70.2713C32.148 77.4887 32.2168 84.7032 32.33 91.9198C32 91.9198 31.67 91.9198 31.33 91.9198C31 82.0198 30.67 72.1198 30.33 61.9198C27.855 62.4148 27.855 62.4148 25.33 62.9198C26.65 62.2598 27.97 61.5998 29.33 60.9198C29.2881 59.987 29.2462 59.0543 29.203 58.0933C29.066 54.6059 28.9661 51.1214 28.8905 47.6324C28.8505 46.1277 28.796 44.6233 28.7264 43.1197C28.1686 30.7447 28.1686 30.7447 30.8827 26.4798C32.9317 24.6225 34.9203 23.2695 37.33 21.9198C37.9571 21.5188 38.5842 21.1178 39.2303 20.7047C41.0587 19.5855 42.9054 18.613 44.83 17.6698C45.5128 17.3333 46.1957 16.9969 46.8993 16.6502C69.4793 6.10942 98.7632 9.49515 118.33 24.9198Z" fill="#261D0D"/>
<path d="M38.33 68.9198C44.4972 68.5818 49.7562 69.8911 55.705 71.4198C71.1467 75.086 83.3825 74.6505 98.7577 70.6995C103.785 69.4097 108.137 68.6352 113.33 68.9198C113.411 71.0233 113.469 73.1277 113.517 75.2323C113.57 76.9899 113.57 76.9899 113.623 78.783C113.33 81.9198 113.33 81.9198 112.17 83.609C109.562 85.4673 107.776 85.1877 104.603 85.0291C103.49 84.9789 102.376 84.9286 101.228 84.8768C99.4843 84.7743 99.4843 84.7743 97.705 84.6698C96.5345 84.6169 95.364 84.5641 94.1581 84.5096C85.4873 84.0771 85.4873 84.0771 84.33 82.9198C84.33 81.2698 84.33 79.6198 84.33 77.9198C78.72 77.9198 73.11 77.9198 67.33 77.9198C67.33 79.5698 67.33 81.2198 67.33 82.9198C64.6846 85.5652 56.9559 84.1054 53.3925 84.1073C52.1736 84.1195 50.9548 84.1318 49.6991 84.1444C47.956 84.1473 47.956 84.1473 46.1776 84.1502C44.569 84.1564 44.569 84.1564 42.9279 84.1627C40.33 83.9198 40.33 83.9198 38.33 81.9198C38.1346 78.8807 38.1346 78.8807 38.205 75.2948C38.223 74.1062 38.241 72.9177 38.2596 71.6932C38.2828 70.778 38.306 69.8627 38.33 68.9198Z" fill="#191815"/>
<path d="M40.33 106.92C45.5657 110.878 49.6907 115.439 53.33 120.92C53.33 121.58 53.33 122.24 53.33 122.92C53.99 122.92 54.65 122.92 55.33 122.92C55.99 121.27 56.65 119.62 57.33 117.92C62.4019 117.846 67.4736 117.791 72.546 117.755C74.2717 117.74 75.9973 117.719 77.7228 117.693C80.2026 117.657 82.6819 117.64 85.162 117.627C85.934 117.611 86.7059 117.596 87.5013 117.58C92.8371 117.578 92.8371 117.578 95.3405 119.313C96.33 120.92 96.33 120.92 96.33 122.92C96.99 122.92 97.65 122.92 98.33 122.92C98.5555 122.389 98.7811 121.858 99.0135 121.31C100.771 118.119 103.051 115.439 105.392 112.67C106.082 111.838 106.082 111.838 106.785 110.99C107.941 109.611 109.133 108.263 110.33 106.92C110.66 106.92 110.99 106.92 111.33 106.92C112.324 111.551 112.573 115.319 111.33 119.92C107.626 124.423 101.81 128.855 96.33 130.92C94.2255 130.723 94.2255 130.723 92.33 129.92C91.67 128.93 91.01 127.94 90.33 126.92C85.7213 126.243 81.0449 126.457 76.3925 126.482C75.0911 126.462 73.7898 126.442 72.4491 126.422C70.5822 126.423 70.5822 126.423 68.6776 126.424C66.9607 126.421 66.9607 126.421 65.2091 126.418C62.2061 126.643 62.2061 126.643 60.4332 128.951C60.0691 129.601 59.7051 130.25 59.33 130.92C54.5522 130.425 51.8706 128.347 48.1425 125.42C44.4124 122.402 44.4124 122.402 40.33 119.92C40.33 115.63 40.33 111.34 40.33 106.92Z" fill="#F3CD39"/>
<path d="M123.33 43.9197C126.447 46.5435 127.746 49.6153 129.392 53.2947C129.899 54.4162 130.406 55.5377 130.928 56.6932C131.39 57.7579 131.853 58.8227 132.33 59.9197C132.715 60.6726 133.101 61.4254 133.498 62.201C134.797 66.4456 134.626 70.6322 134.58 75.0447C134.571 75.9903 134.562 76.936 134.553 77.9102C134.301 93.0628 130.821 105.789 119.955 116.795C115.565 120.92 115.565 120.92 114.33 120.92C114.194 117.877 114.096 114.839 114.017 111.795C113.976 110.939 113.934 110.083 113.89 109.201C113.806 104.819 114.01 102.46 116.287 98.6151C119.672 95.1501 124.026 93.0391 128.33 90.9197C128.475 86.4826 128.564 82.046 128.642 77.6072C128.684 76.3446 128.726 75.082 128.769 73.7811C128.785 72.5726 128.802 71.3641 128.818 70.119C128.844 69.0035 128.871 67.8881 128.898 66.7388C128.71 65.8085 128.523 64.8782 128.33 63.9197C125.87 62.2615 125.87 62.2615 123.33 60.9197C122.762 59.0186 122.762 59.0186 122.842 56.908C122.858 56.1507 122.874 55.3934 122.89 54.6131C122.932 53.8274 122.974 53.0417 123.017 52.2322C123.051 51.0363 123.051 51.0363 123.086 49.8162C123.145 47.8499 123.234 45.8846 123.33 43.9197Z" fill="#F4C83B"/>
<path d="M28.3299 43.9197C28.6599 43.9197 28.9899 43.9197 29.3299 43.9197C29.4922 46.6721 29.6109 49.4149 29.7049 52.1697C29.7804 53.3357 29.7804 53.3357 29.8573 54.5252C29.9156 56.7988 29.9069 58.7165 29.3299 60.9197C28.3528 61.5063 27.3757 62.0928 26.369 62.6971C23.1362 64.5691 23.1362 64.5691 22.6752 67.4466C22.3746 70.7274 22.3149 73.938 22.3299 77.2322C22.2732 78.3479 22.2165 79.4636 22.1581 80.6131C22.0896 86.9839 22.0896 86.9839 25.4862 92.097C28.0424 93.8323 30.6507 95.3836 33.3299 96.9197C35.8957 99.2359 37.139 100.559 37.621 103.992C37.7238 106.421 37.6796 108.803 37.5799 111.232C37.5619 112.068 37.5439 112.904 37.5253 113.765C37.4784 115.817 37.4066 117.869 37.3299 119.92C30.4922 117.64 26.2577 109.199 23.0174 103.107C17.5077 91.292 14.1336 76.0017 18.1942 63.1937C23.937 48.3127 23.937 48.3127 28.3299 43.9197Z" fill="#F6CA3A"/>
<path d="M62.33 28.9197C71.57 28.9197 80.81 28.9197 90.33 28.9197C89.01 35.5197 87.69 42.1197 86.33 48.9197C79.73 48.9197 73.13 48.9197 66.33 48.9197C65.67 46.3622 65.01 43.8047 64.33 41.1697C64.1211 40.3708 63.9123 39.5719 63.6971 38.7488C62.8293 35.3308 62.33 32.4679 62.33 28.9197Z" fill="#CC2D2A"/>
<path d="M112.33 106.92C112.66 106.92 112.99 106.92 113.33 106.92C115.128 125.471 115.128 125.471 111.127 130.92C108.276 132.914 105.456 134.402 102.33 135.92C101.267 136.756 100.212 137.604 99.1639 138.459C95.1298 141.366 91.7781 141.735 86.8964 141.795C86.1048 141.818 85.3133 141.841 84.4978 141.864C81.9617 141.919 79.4292 141.925 76.8925 141.92C75.6078 141.928 75.6078 141.928 74.2972 141.936C62.1085 141.944 52.7294 141.051 43.494 132.326C42.7799 131.532 42.0657 130.738 41.33 129.92C42.32 128.435 42.32 128.435 43.33 126.92C44.3277 128.003 44.3277 128.003 45.3456 129.107C56.1712 139.088 69.6187 138.51 83.5233 138.045C92.8242 137.56 100.144 135.824 107.217 129.4C109.5 127.034 109.5 127.034 110.33 123.92C109.377 124.653 108.425 125.387 107.443 126.142C106.177 127.09 104.91 128.036 103.642 128.982C102.704 129.71 102.704 129.71 101.746 130.453C97.0711 133.904 97.0711 133.904 93.5604 133.978C91.33 132.92 91.33 132.92 90.0507 130.892C88.4621 128.67 88.4621 128.67 85.6945 128.374C84.147 128.342 84.147 128.342 82.5682 128.31C81.45 128.278 80.3317 128.246 79.1796 128.213C78.0123 128.199 76.8451 128.184 75.6425 128.17C74.4636 128.14 73.2848 128.11 72.0702 128.08C69.1567 128.009 66.244 127.956 63.33 127.92C63 127.26 62.67 126.6 62.33 125.92C66.2625 125.821 70.1946 125.748 74.1281 125.7C76.1233 125.67 78.1183 125.619 80.1132 125.568C81.3668 125.555 82.6204 125.542 83.912 125.529C85.648 125.498 85.648 125.498 87.4191 125.466C90.33 125.92 90.33 125.92 92.2311 127.944C92.5937 128.596 92.9563 129.248 93.33 129.92C99.5048 128.886 106.194 124.615 110.33 119.92C111.948 115.555 112.366 111.556 112.33 106.92Z" fill="#150F07"/>
<path d="M41.33 123.92C45.5888 125.853 49.0302 128.688 52.6971 131.556C55.3093 133.181 55.3093 133.181 58.5253 132.814C61.6303 132.145 61.6303 132.145 63.33 128.92C67.6039 128.247 71.9469 128.457 76.2675 128.482C78.0763 128.452 78.0763 128.452 79.9218 128.422C81.0761 128.422 82.2305 128.423 83.4198 128.424C84.4806 128.422 85.5414 128.42 86.6344 128.418C89.33 128.92 89.33 128.92 91.1993 130.951C91.5724 131.601 91.9455 132.25 92.33 132.92C97.317 132.46 99.8238 131.124 103.58 127.857C108.147 123.92 108.147 123.92 110.33 123.92C110.197 125.662 110.197 125.662 109.33 127.92C106.713 129.99 106.713 129.99 103.455 132.045C102.385 132.728 101.315 133.411 100.213 134.115C99.2614 134.711 98.3101 135.306 97.33 135.92C96.34 136.58 95.35 137.24 94.33 137.92C91.7135 138.188 89.2059 138.344 86.5839 138.396C85.8175 138.412 85.0512 138.429 84.2616 138.445C82.6351 138.473 81.0086 138.494 79.382 138.51C77.7381 138.533 76.0943 138.574 74.4513 138.633C62.5606 139.063 55.6102 137.91 46.33 129.92C45.3987 129.214 44.4674 128.509 43.5079 127.782C42.7892 127.167 42.0705 126.553 41.33 125.92C41.33 125.26 41.33 124.6 41.33 123.92Z" fill="#D43533"/>
<path d="M75.7675 13.7322C76.9982 13.7139 76.9982 13.7139 78.2538 13.6951C83.3401 13.683 87.5113 14.2789 92.33 15.9197C92.1895 17.3994 92.0424 18.8785 91.8925 20.3572C91.8113 21.1809 91.73 22.0047 91.6464 22.8533C91.33 24.9197 91.33 24.9197 90.33 25.9197C88.1844 26.0075 86.0359 26.0267 83.8886 26.0174C82.5834 26.0142 81.2782 26.0109 79.9335 26.0076C78.5448 25.9993 77.1561 25.9908 75.7675 25.9822C74.3749 25.9772 72.9823 25.9727 71.5897 25.9686C68.1698 25.9567 64.7499 25.9402 61.33 25.9197C60.1272 23.5143 60.2293 21.9698 60.2675 19.2947C60.2765 18.4775 60.2855 17.6602 60.2948 16.8182C60.3064 16.1917 60.318 15.5652 60.33 14.9197C65.5102 13.8703 70.5066 13.7364 75.7675 13.7322Z" fill="#D22F2D"/>
<path d="M102.33 16.9197C106.209 17.5016 108.982 18.6403 112.33 20.6697C113.155 21.1596 113.98 21.6494 114.83 22.1541C117.775 24.2339 120.016 26.1345 122.33 28.9197C122.898 32.4249 122.898 32.4249 122.818 36.408C122.811 37.1112 122.804 37.8144 122.797 38.5389C122.769 40.7711 122.706 43.0008 122.642 45.2322C122.617 46.7511 122.595 48.27 122.574 49.7889C122.519 53.5 122.433 57.2096 122.33 60.9197C123.227 61.1054 123.227 61.1054 124.142 61.2947C126.33 61.9197 126.33 61.9197 129.33 63.9197C129.671 66.6253 129.671 66.6253 129.623 70.0213C129.613 71.233 129.604 72.4447 129.594 73.6932C129.568 74.9642 129.543 76.2352 129.517 77.5447C129.497 79.4629 129.497 79.4629 129.476 81.4197C129.441 84.5868 129.392 87.7531 129.33 90.9197C127.35 91.4147 127.35 91.4147 125.33 91.9197C125.66 83.0097 125.99 74.0997 126.33 64.9197C125.01 64.5897 123.69 64.2597 122.33 63.9197C122.33 73.1597 122.33 82.3997 122.33 91.9197C120.33 89.9197 120.33 89.9197 120.119 87.4485C120.136 86.4082 120.152 85.3678 120.17 84.296C120.182 83.1175 120.195 81.939 120.207 80.7247C120.227 79.4446 120.247 78.1645 120.267 76.8455C120.274 74.8402 120.281 72.8349 120.284 70.8296C120.291 65.8766 120.313 60.925 120.402 55.9727C120.45 53.1976 120.472 50.4248 120.465 47.6493C120.458 45.0358 120.49 42.4219 120.564 39.8095C120.581 33.0984 120.581 33.0984 117.173 27.5993C114.629 25.7924 112.114 24.3235 109.33 22.9197C107.953 22.1112 106.577 21.2992 105.205 20.4822C104.256 19.9666 103.307 19.451 102.33 18.9197C102.33 18.2597 102.33 17.5997 102.33 16.9197Z" fill="#150D06"/>
<path d="M92.33 19.9197C92.66 19.9197 92.99 19.9197 93.33 19.9197C93.5684 26.4564 92.6804 32.3954 91.3925 38.7947C91.2101 39.7435 91.0277 40.6922 90.8398 41.6697C89.4775 48.6247 89.4775 48.6247 88.33 50.9197C80.08 50.9197 71.83 50.9197 63.33 50.9197C62.67 47.9291 62.01 44.9385 61.33 41.8572C61.1212 40.929 60.9124 40.0008 60.6972 39.0445C60.5348 38.2905 60.3724 37.5365 60.205 36.7596C60.0374 36.0002 59.8699 35.2409 59.6972 34.4586C59.2417 31.3094 59.33 28.1017 59.33 24.9197C69.56 24.9197 79.79 24.9197 90.33 24.9197C90.99 23.2697 91.65 21.6197 92.33 19.9197ZM62.33 28.9197C63.1679 36.6489 63.1679 36.6489 64.8925 43.9822C65.3669 45.6116 65.8413 47.241 66.33 48.9197C72.93 48.9197 79.53 48.9197 86.33 48.9197C87.65 42.3197 88.97 35.7197 90.33 28.9197C81.09 28.9197 71.85 28.9197 62.33 28.9197Z" fill="#190C07"/>
<path d="M122.33 63.9197C123.65 64.2497 124.97 64.5797 126.33 64.9197C126.33 74.1597 126.33 83.3997 126.33 92.9197C124.02 94.2397 121.71 95.5597 119.33 96.9197C115.732 100.485 114.824 102.851 114.721 107.877C114.688 108.989 114.656 110.1 114.623 111.246C114.602 112.972 114.602 112.972 114.58 114.732C114.55 115.902 114.521 117.072 114.49 118.277C114.42 121.158 114.367 124.038 114.33 126.92C114 126.92 113.67 126.92 113.33 126.92C113.281 125.8 113.232 124.679 113.182 123.525C113.106 122.053 113.031 120.58 112.955 119.107C112.924 118.369 112.893 117.631 112.861 116.871C112.656 113.101 112.466 111.123 110.33 107.92C108.02 110.56 105.71 113.2 103.33 115.92C102.67 115.26 102.01 114.6 101.33 113.92C114.4 97.1523 114.4 97.1523 118.33 92.9197C118.99 92.9197 119.65 92.9197 120.33 92.9197C121.388 89.7446 121.532 87.2769 121.646 83.9393C121.688 82.7759 121.73 81.6125 121.773 80.4139C121.813 79.1989 121.852 77.984 121.892 76.7322C121.936 75.5057 121.979 74.2792 122.023 73.0154C122.129 69.9837 122.232 66.9518 122.33 63.9197Z" fill="#231C0E"/>
<path d="M113.33 68.9197C113.411 71.0233 113.469 73.1277 113.517 75.2322C113.57 76.9899 113.57 76.9899 113.623 78.783C113.33 81.9197 113.33 81.9197 112.172 83.6111C109.55 85.4737 107.752 85.1717 104.568 84.994C103.45 84.9392 102.332 84.8844 101.18 84.8279C99.4287 84.7187 99.4287 84.7187 97.6425 84.6072C96.4636 84.546 95.2848 84.4848 94.0702 84.4217C91.1557 84.2683 88.2428 84.1004 85.33 83.9197C85.33 83.2597 85.33 82.5997 85.33 81.9197C93.25 81.5897 101.17 81.2597 109.33 80.9197C109.66 77.9497 109.99 74.9797 110.33 71.9197C109.005 72.2085 107.68 72.4972 106.314 72.7947C104.57 73.1699 102.825 73.5449 101.08 73.9197C99.7709 74.2059 99.7709 74.2059 98.4354 74.4979C97.1689 74.7686 97.1689 74.7686 95.8768 75.0447C95.1018 75.2123 94.3267 75.3799 93.5282 75.5525C91.33 75.9197 91.33 75.9197 87.33 75.9197C87.33 77.5697 87.33 79.2197 87.33 80.9197C87 80.9197 86.67 80.9197 86.33 80.9197C85.67 78.6097 85.01 76.2997 84.33 73.9197C87.8479 73.0737 91.3697 72.2452 94.8925 71.4197C96.3784 71.062 96.3784 71.062 97.8944 70.6971C103.17 69.4703 107.913 68.6158 113.33 68.9197Z" fill="#1B170E"/>
<path d="M110.33 71.9197C110.357 73.3988 110.376 74.878 110.392 76.3572C110.404 77.1809 110.416 78.0047 110.428 78.8533C110.33 80.9197 110.33 80.9197 109.33 81.9197C107.693 81.9364 106.055 81.8827 104.42 81.7986C103.43 81.7503 102.441 81.702 101.422 81.6522C99.8604 81.568 99.8604 81.568 98.2675 81.4822C97.2227 81.43 96.1779 81.3778 95.1014 81.324C92.5107 81.1939 89.9202 81.0589 87.33 80.9197C87.33 79.2697 87.33 77.6197 87.33 75.9197C90.4119 75.2464 93.4957 74.5823 96.58 73.9197C97.4527 73.729 98.3253 73.5382 99.2245 73.3416C100.491 73.0709 100.491 73.0709 101.783 72.7947C102.558 72.6272 103.333 72.4596 104.132 72.2869C106.33 71.9197 106.33 71.9197 110.33 71.9197Z" fill="#F4F5F6"/>
<path d="M42.33 126.92C43.2993 127.456 44.2687 127.992 45.2675 128.545C46.2526 129.087 46.2526 129.087 47.2577 129.64C49.33 130.92 49.33 130.92 51.0428 132.433C58.613 138.793 67.5348 137.813 76.8925 137.795C78.5858 137.813 80.2792 137.834 81.9725 137.857C86.092 137.909 90.2102 137.924 94.33 137.92C94.825 139.405 94.825 139.405 95.33 140.92C55.9095 143.047 55.9095 143.047 45.0917 133.833C43.494 132.326 43.494 132.326 41.33 129.92C41.66 128.93 41.99 127.94 42.33 126.92Z" fill="#22190A"/>
<path d="M41.33 71.9197C49.0978 72.7124 56.693 74.3386 64.33 75.9197C64.33 77.5697 64.33 79.2197 64.33 80.9197C60.6842 80.9486 57.0384 80.9665 53.3925 80.9822C51.8311 80.9948 51.8311 80.9948 50.2382 81.0076C49.2488 81.0109 48.2595 81.0141 47.2401 81.0174C46.3237 81.0226 45.4073 81.0279 44.463 81.0333C42.33 80.9197 42.33 80.9197 41.33 79.9197C41.1888 77.2492 41.2875 74.5954 41.33 71.9197Z" fill="#F8F9F9"/>
<path d="M56.33 114.92C69.2 114.92 82.07 114.92 95.33 114.92C95.825 116.405 95.825 116.405 96.33 117.92C96.9281 117.404 97.5262 116.888 98.1425 116.357C98.8643 115.883 99.5862 115.408 100.33 114.92C101.32 115.25 102.31 115.58 103.33 115.92C102.546 117.092 101.753 118.257 100.955 119.42C100.514 120.069 100.073 120.719 99.619 121.388C99.1936 121.894 98.7682 122.399 98.33 122.92C97.67 122.92 97.01 122.92 96.33 122.92C95.951 122.27 95.572 121.621 95.1815 120.951C93.3959 118.561 93.3959 118.561 89.9159 118.421C88.5124 118.4 87.1085 118.4 85.705 118.416C84.9617 118.406 84.2183 118.397 83.4525 118.387C81.078 118.359 78.7046 118.356 76.33 118.357C73.9555 118.354 71.5817 118.344 69.2074 118.316C67.7306 118.3 66.2536 118.297 64.7767 118.309C60.402 118.265 59.5863 118.176 56.33 114.92Z" fill="#392E13"/>
<path d="M41.33 119.92C43.0813 121.022 44.8309 122.127 46.58 123.232C47.5545 123.847 48.529 124.462 49.5331 125.096C52.33 126.92 52.33 126.92 54.5526 128.662C56.2671 130.162 56.2671 130.162 58.5175 129.732C60.522 129.063 60.522 129.063 61.33 126.92C74.695 127.415 74.695 127.415 88.33 127.92C88.33 128.25 88.33 128.58 88.33 128.92C80.08 128.92 71.83 128.92 63.33 128.92C62.67 130.24 62.01 131.56 61.33 132.92C58.6659 133.978 58.6659 133.978 55.33 133.92C52.6093 132.604 50.3246 130.845 47.955 128.982C46.994 128.26 46.994 128.26 46.0135 127.523C44.4405 126.338 42.8836 125.131 41.33 123.92C41 124.58 40.67 125.24 40.33 125.92C40.66 123.94 40.99 121.96 41.33 119.92Z" fill="#35170F"/>
<path d="M122.33 63.9197C123.65 64.2497 124.97 64.5797 126.33 64.9197C126.33 73.1697 126.33 81.4197 126.33 89.9197C125.01 90.2497 123.69 90.5797 122.33 90.9197C122.33 82.0097 122.33 73.0997 122.33 63.9197Z" fill="#CE342F"/>
<path d="M29.33 63.9197C29.33 72.8297 29.33 81.7397 29.33 90.9197C28.01 90.2597 26.69 89.5997 25.33 88.9197C25.33 80.9997 25.33 73.0797 25.33 64.9197C27.33 63.9197 27.33 63.9197 29.33 63.9197Z" fill="#E63436"/>
<path d="M50.3299 16.9197C50.3299 17.5797 50.3299 18.2397 50.3299 18.9197C48.4991 20.0958 46.6126 21.1856 44.7049 22.2322C42.5533 23.4143 40.4284 24.6458 38.3299 25.9197C37.2265 26.5153 36.123 27.1108 34.9861 27.7244C32.644 29.7462 32.3274 30.9336 31.7659 34.0367C31.5129 37.9413 31.4456 41.8219 31.4549 45.7322C31.4368 47.1066 31.416 48.481 31.3924 49.8553C31.3453 53.2107 31.3255 56.564 31.3299 59.9197C30.9999 59.9197 30.6699 59.9197 30.3299 59.9197C30.0809 55.5093 29.9005 51.1027 29.7806 46.6873C29.7306 45.1892 29.6625 43.6916 29.5755 42.1951C28.872 29.7802 28.872 29.7802 32.4818 25.1736C35.0122 23.1312 37.4807 21.4787 40.3299 19.9197C41.4436 19.2597 42.5574 18.5997 43.7049 17.9197C46.3299 16.9197 46.3299 16.9197 50.3299 16.9197Z" fill="#100D05"/>
<path d="M110.33 106.92C110.66 106.92 110.99 106.92 111.33 106.92C112.25 118.712 112.25 118.712 109.994 121.674C108.33 122.732 108.33 122.732 105.33 123.92C104.34 122.93 103.35 121.94 102.33 120.92C103.98 118.94 105.63 116.96 107.33 114.92C106.01 115.25 104.69 115.58 103.33 115.92C104.308 114.607 105.288 113.294 106.267 111.982C106.813 111.251 107.358 110.52 107.92 109.767C109.33 107.92 109.33 107.92 110.33 106.92Z" fill="#E1B42F"/>
<path d="M40.33 106.92C44.6245 109.814 46.6 111.581 47.705 116.732C47.9366 118.124 48.153 119.52 48.33 120.92C46.33 119.92 44.33 118.92 42.33 117.92C42.33 118.58 42.33 119.24 42.33 119.92C41.67 119.92 41.01 119.92 40.33 119.92C40.33 115.63 40.33 111.34 40.33 106.92Z" fill="#F9CB34"/>
<path d="M22.33 64.9197C23.32 65.2497 24.31 65.5797 25.33 65.9197C25.3498 66.6008 25.3697 67.2818 25.3901 67.9835C25.4853 71.0668 25.595 74.1494 25.705 77.2322C25.7514 78.84 25.7514 78.84 25.7988 80.4803C25.8568 82.0223 25.8568 82.0223 25.916 83.5955C25.9474 84.5434 25.9788 85.4912 26.0112 86.4678C26.1789 89.1728 26.1789 89.1728 28.33 91.9197C27.67 92.2497 27.01 92.5797 26.33 92.9197C24.3544 91.7798 24.3544 91.7798 22.33 89.9197C21.8759 87.2842 21.8759 87.2842 21.9394 84.158C21.9523 83.0398 21.9652 81.9215 21.9785 80.7693C22.012 79.6021 22.0455 78.4349 22.08 77.2322C22.0981 76.0534 22.1161 74.8745 22.1347 73.66C22.1819 70.7457 22.2477 67.8331 22.33 64.9197Z" fill="#25190E"/>
<path d="M31.33 60.9197C31.33 70.4897 31.33 80.0597 31.33 89.9197C31 89.9197 30.67 89.9197 30.33 89.9197C30.33 81.3397 30.33 72.7597 30.33 63.9197C28.68 64.5797 27.03 65.2397 25.33 65.9197C25 72.1897 24.67 78.4597 24.33 84.9197C24 84.9197 23.67 84.9197 23.33 84.9197C23.33 77.9897 23.33 71.0597 23.33 63.9197C30.33 60.9197 30.33 60.9197 31.33 60.9197Z" fill="#060602"/>
<path d="M65.33 75.9197C65.66 75.9197 65.99 75.9197 66.33 75.9197C66.33 78.5597 66.33 81.1997 66.33 83.9197C61.38 83.9197 56.43 83.9197 51.33 83.9197C51.33 83.5897 51.33 83.2597 51.33 82.9197C48.69 82.5897 46.05 82.2597 43.33 81.9197C43.33 81.5897 43.33 81.2597 43.33 80.9197C53.725 80.4247 53.725 80.4247 64.33 79.9197C64.66 78.5997 64.99 77.2797 65.33 75.9197Z" fill="#383632"/>
<path d="M128.33 64.9197C128.66 64.9197 128.99 64.9197 129.33 64.9197C129.33 73.4997 129.33 82.0797 129.33 90.9197C128.01 91.2497 126.69 91.5797 125.33 91.9197C125.66 90.9297 125.99 89.9397 126.33 88.9197C126.467 87.1595 126.554 85.3953 126.611 83.6307C126.649 82.6072 126.686 81.5836 126.724 80.5291C126.795 78.3651 126.865 76.201 126.935 74.0369C126.973 73.016 127.01 71.9951 127.049 70.9432C127.079 70.0039 127.109 69.0647 127.141 68.097C127.33 65.9197 127.33 65.9197 128.33 64.9197Z" fill="#0A0B07"/>
<path d="M39.33 69.9197C40.65 70.2497 41.97 70.5797 43.33 70.9197C42.67 70.9197 42.01 70.9197 41.33 70.9197C41.4705 72.3994 41.6176 73.8785 41.7675 75.3572C41.8893 76.5928 41.8893 76.5928 42.0136 77.8533C42.1193 79.9064 42.1193 79.9064 43.33 80.9197C45.179 81.1534 47.0349 81.3328 48.8925 81.4822C49.9044 81.566 50.9164 81.6498 51.9589 81.7361C52.7414 81.7967 53.5239 81.8573 54.33 81.9197C50.9375 84.1814 49.678 84.1649 45.705 84.1072C44.7228 84.1008 43.7405 84.0943 42.7285 84.0877C40.33 83.9197 40.33 83.9197 39.33 82.9197C39.2574 80.7333 39.2463 78.5447 39.2675 76.3572C39.2766 75.1597 39.2856 73.9622 39.2949 72.7283C39.3065 71.8015 39.3181 70.8747 39.33 69.9197Z" fill="#0A0908"/>
<path d="M46.33 113.92C48.9775 116.498 51.2743 118.836 53.33 121.92C52.67 122.58 52.01 123.24 51.33 123.92C51.33 124.91 51.33 125.9 51.33 126.92C49.8219 125.995 48.3237 125.055 46.83 124.107C45.577 123.324 45.577 123.324 44.2987 122.525C43.3242 121.731 43.3242 121.731 42.33 120.92C42.33 119.93 42.33 118.94 42.33 117.92C44.33 118.92 46.33 119.92 48.33 120.92C48 120.322 47.67 119.723 47.33 119.107C46.33 116.92 46.33 116.92 46.33 113.92Z" fill="#EFC430"/>
<path d="M61.33 28.9197C63.1347 32.1762 64.0694 35.3731 64.955 38.9822C65.2153 40.0251 65.4757 41.0679 65.744 42.1424C66.33 44.9197 66.33 44.9197 66.33 47.9197C65.67 47.9197 65.01 47.9197 64.33 47.9197C64 48.9097 63.67 49.8997 63.33 50.9197C62.01 43.9897 60.69 37.0597 59.33 29.9197C59.99 29.5897 60.65 29.2597 61.33 28.9197Z" fill="#181107"/>
<path d="M64.33 47.9197C72.25 47.9197 80.17 47.9197 88.33 47.9197C88.33 48.9097 88.33 49.8997 88.33 50.9197C80.41 50.9197 72.49 50.9197 64.33 50.9197C64.33 49.9297 64.33 48.9397 64.33 47.9197Z" fill="#050501"/>
<path d="M38.33 106.92C38.99 106.92 39.65 106.92 40.33 106.92C40.5247 109.524 40.711 112.127 40.8925 114.732C40.9485 115.47 41.0046 116.208 41.0624 116.969C41.2877 120.288 41.3925 122.732 40.33 125.92C40.99 125.92 41.65 125.92 42.33 125.92C42.33 126.91 42.33 127.9 42.33 128.92C41.01 128.59 39.69 128.26 38.33 127.92C38.33 120.99 38.33 114.06 38.33 106.92Z" fill="#080507"/>
<path d="M104.33 70.9197C104.33 71.5797 104.33 72.2397 104.33 72.9197C102.248 73.4252 100.164 73.9239 98.08 74.4197C96.9198 74.6982 95.7596 74.9766 94.5643 75.2635C91.33 75.9197 91.33 75.9197 87.33 75.9197C87.33 77.5697 87.33 79.2197 87.33 80.9197C87 80.9197 86.67 80.9197 86.33 80.9197C85.67 78.6097 85.01 76.2997 84.33 73.9197C90.8356 71.7512 97.4684 70.9197 104.33 70.9197Z" fill="#24211A"/>
<path d="M29.33 63.9197C29.58 70.5447 29.58 70.5447 27.33 73.9197C27.03 76.5086 26.8213 79.0112 26.705 81.6072C26.6663 82.3091 26.6276 83.011 26.5878 83.7342C26.4937 85.4623 26.4108 87.191 26.33 88.9197C26 88.9197 25.67 88.9197 25.33 88.9197C25.33 80.9997 25.33 73.0797 25.33 64.9197C27.33 63.9197 27.33 63.9197 29.33 63.9197Z" fill="#D73331"/>
<path d="M83.33 74.9197C84.32 75.2497 85.31 75.5797 86.33 75.9197C86.33 77.5697 86.33 79.2197 86.33 80.9197C91.28 80.9197 96.23 80.9197 101.33 80.9197C101.33 81.2497 101.33 81.5797 101.33 81.9197C92.915 82.4147 92.915 82.4147 84.33 82.9197C84.33 81.2697 84.33 79.6197 84.33 77.9197C78.72 77.9197 73.11 77.9197 67.33 77.9197C67.33 77.5897 67.33 77.2597 67.33 76.9197C75.25 76.4247 75.25 76.4247 83.33 75.9197C83.33 75.5897 83.33 75.2597 83.33 74.9197Z" fill="#584F2D"/>
<path d="M59.33 24.9197C59.99 24.9197 60.65 24.9197 61.33 24.9197C61.33 25.5797 61.33 26.2397 61.33 26.9197C69.58 26.9197 77.83 26.9197 86.33 26.9197C86.33 27.2497 86.33 27.5797 86.33 27.9197C73.955 28.4147 73.955 28.4147 61.33 28.9197C61 29.5797 60.67 30.2397 60.33 30.9197C59.33 29.9197 59.33 29.9197 59.2675 27.3572C59.2881 26.5529 59.3087 25.7485 59.33 24.9197Z" fill="#060401"/>
<path d="M41.33 119.92C43.1461 121.039 44.9578 122.165 46.7675 123.295C48.2815 124.234 48.2815 124.234 49.826 125.193C52.33 126.92 52.33 126.92 53.33 128.92C52.67 129.58 52.01 130.24 51.33 130.92C48.03 128.61 44.73 126.3 41.33 123.92C41 124.58 40.67 125.24 40.33 125.92C40.66 123.94 40.99 121.96 41.33 119.92Z" fill="#22150C"/>
<path d="M37.33 98.9197C40.59 102.089 43.5523 105.319 46.33 108.92C43.0572 108.92 40.4833 108.62 37.33 107.92C36.205 101.17 36.205 101.17 37.33 98.9197Z" fill="#1B150B"/>
<path d="M31.33 14.9197C31.33 17.9197 31.33 17.9197 30.1366 19.4537C29.592 19.9826 29.0473 20.5115 28.4862 21.0565C27.6064 21.9217 27.6064 21.9217 26.7089 22.8045C26.0888 23.3994 25.4688 23.9943 24.83 24.6072C24.2099 25.2137 23.5899 25.8202 22.951 26.4451C21.4173 27.9435 19.8745 29.4325 18.33 30.9197C17.67 30.5897 17.01 30.2597 16.33 29.9197C20.9313 24.3837 25.7939 19.5211 31.33 14.9197Z" fill="#E8AC24"/>
<path d="M110.33 123.92C110.209 125.654 110.209 125.654 109.33 127.92C106.607 130.06 106.607 130.06 103.267 132.17C102.163 132.876 101.058 133.583 99.9198 134.31C99.0652 134.841 98.2105 135.373 97.33 135.92C96.01 135.26 94.69 134.6 93.33 133.92C94.5056 133.383 95.6812 132.847 96.8925 132.295C100.766 130.382 103.747 128.04 106.885 125.092C108.33 123.92 108.33 123.92 110.33 123.92Z" fill="#D82830"/>
<path d="M38.33 68.9197C43.9628 68.68 48.8753 69.5344 54.33 70.9197C54.33 71.2497 54.33 71.5797 54.33 71.9197C45.4954 73.2674 45.4954 73.2674 41.33 71.9197C40.67 71.2597 40.01 70.5997 39.33 69.9197C39.33 73.8797 39.33 77.8397 39.33 81.9197C39 81.9197 38.67 81.9197 38.33 81.9197C38.33 77.6297 38.33 73.3397 38.33 68.9197Z" fill="#373018"/>
<path d="M112.33 106.92C112.66 106.92 112.99 106.92 113.33 106.92C113.33 113.85 113.33 120.78 113.33 127.92C112.67 127.92 112.01 127.92 111.33 127.92C111.33 126.27 111.33 124.62 111.33 122.92C110.67 122.59 110.01 122.26 109.33 121.92C109.66 121.59 109.99 121.26 110.33 120.92C110.727 118.572 111.074 116.216 111.392 113.857C111.657 111.922 111.657 111.922 111.928 109.947C112.06 108.948 112.193 107.949 112.33 106.92Z" fill="#020103"/>
<path d="M41.33 123.92C45.5629 125.851 49.0231 128.637 52.6971 131.459C55.8054 133.184 57.8289 133.195 61.33 132.92C61 133.58 60.67 134.24 60.33 134.92C54.3074 135.451 51.5957 134.267 46.8925 130.545C46.3517 130.132 45.8109 129.72 45.2538 129.295C43.896 128.23 42.6061 127.081 41.33 125.92C41.33 125.26 41.33 124.6 41.33 123.92Z" fill="#CA262C"/>
<path d="M112.33 68.9197C112.66 68.9197 112.99 68.9197 113.33 68.9197C113.411 71.0233 113.469 73.1277 113.517 75.2322C113.552 76.404 113.587 77.5758 113.623 78.783C113.33 81.9197 113.33 81.9197 111.955 83.8572C110.33 84.9197 110.33 84.9197 108.142 84.6072C107.544 84.3804 106.946 84.1535 106.33 83.9197C106.33 83.2597 106.33 82.5997 106.33 81.9197C107.32 81.5897 108.31 81.2597 109.33 80.9197C109.66 78.9397 109.99 76.9597 110.33 74.9197C110.66 74.9197 110.99 74.9197 111.33 74.9197C111.66 72.9397 111.99 70.9597 112.33 68.9197Z" fill="#332E1A"/>
<path d="M118.33 25.9197C120.314 26.9393 120.314 26.9393 122.33 28.9197C122.626 31.632 122.711 33.9171 122.58 36.6072C122.562 37.3091 122.544 38.011 122.525 38.7342C122.478 40.4633 122.406 42.1917 122.33 43.9197C121.67 44.2497 121.01 44.5797 120.33 44.9197C120.269 43.8833 120.209 42.8469 120.146 41.7791C120.062 40.4093 119.977 39.0395 119.892 37.6697C119.853 36.9878 119.814 36.3059 119.773 35.6033C119.563 32.2753 119.311 29.1172 118.33 25.9197Z" fill="#0C0902"/>
<path d="M104.33 123.92C104.99 124.91 105.65 125.9 106.33 126.92C101.875 129.89 101.875 129.89 97.33 132.92C97.33 131.6 97.33 130.28 97.33 128.92C98.8612 127.435 98.8612 127.435 100.83 126.17C101.48 125.742 102.129 125.314 102.799 124.873C103.304 124.558 103.809 124.244 104.33 123.92Z" fill="#281B0C"/>
<path d="M40.33 106.92C42.31 108.57 44.29 110.22 46.33 111.92C45.67 112.58 45.01 113.24 44.33 113.92C43.34 113.59 42.35 113.26 41.33 112.92C41.33 115.23 41.33 117.54 41.33 119.92C41 119.92 40.67 119.92 40.33 119.92C40.33 115.63 40.33 111.34 40.33 106.92Z" fill="#BF8B31"/>
<path d="M55.33 115.92C55.99 115.92 56.65 115.92 57.33 115.92C56.455 120.67 56.455 120.67 55.33 122.92C54.67 122.92 54.01 122.92 53.33 122.92C51.705 120.42 51.705 120.42 50.33 117.92C51.98 117.92 53.63 117.92 55.33 117.92C55.33 117.26 55.33 116.6 55.33 115.92Z" fill="#241B0E"/>
<path d="M42.33 126.92C45.795 128.9 45.795 128.9 49.33 130.92C49 131.91 48.67 132.9 48.33 133.92C46.02 132.6 43.71 131.28 41.33 129.92C41.66 128.93 41.99 127.94 42.33 126.92Z" fill="#191307"/>
<path d="M63.33 40.9197C63.99 40.9197 64.65 40.9197 65.33 40.9197C65.66 43.2297 65.99 45.5397 66.33 47.9197C65.67 47.9197 65.01 47.9197 64.33 47.9197C64 48.9097 63.67 49.8997 63.33 50.9197C63.1358 49.4414 62.9498 47.962 62.7675 46.4822C62.663 45.6585 62.5586 44.8348 62.451 43.9861C62.4111 43.3042 62.3711 42.6223 62.33 41.9197C62.66 41.5897 62.99 41.2597 63.33 40.9197Z" fill="#2C1B0C"/>
<path d="M121.33 60.9197C125.018 61.4181 126.935 62.0204 129.33 64.9197C126.33 65.9197 126.33 65.9197 123.642 64.6072C122.879 64.0504 122.116 63.4935 121.33 62.9197C121.33 62.2597 121.33 61.5997 121.33 60.9197Z" fill="#1D170D"/>
<path d="M37.33 102.92C37.66 103.91 37.99 104.9 38.33 105.92C39.2787 105.858 40.2275 105.796 41.205 105.732C42.2362 105.794 43.2675 105.856 44.33 105.92C45.32 107.405 45.32 107.405 46.33 108.92C43.0572 108.92 40.4833 108.62 37.33 107.92C37.33 106.27 37.33 104.62 37.33 102.92Z" fill="#261E13"/>
<path d="M39.33 23.9197C39.33 26.9197 39.33 26.9197 37.33 29.9197C36.67 29.9197 36.01 29.9197 35.33 29.9197C35.33 30.5797 35.33 31.2397 35.33 31.9197C34.34 32.2497 33.35 32.5797 32.33 32.9197C32.5062 30.5403 33.0272 29.2175 34.7323 27.5408C36.2364 26.2986 37.7813 25.106 39.33 23.9197Z" fill="#E9C433"/>
<path d="M56.33 13.9197C56.66 14.9097 56.99 15.8997 57.33 16.9197C55.02 17.5797 52.71 18.2397 50.33 18.9197C50.33 18.2597 50.33 17.5997 50.33 16.9197C49.67 16.5897 49.01 16.2597 48.33 15.9197C51.236 14.6631 53.126 13.9197 56.33 13.9197Z" fill="#27200B"/>
<path d="M41.33 119.92C43.83 121.232 43.83 121.232 46.33 122.92C46.33 123.91 46.33 124.9 46.33 125.92C43.855 124.93 43.855 124.93 41.33 123.92C41 124.58 40.67 125.24 40.33 125.92C40.66 123.94 40.99 121.96 41.33 119.92Z" fill="#1B0C0A"/>
<path d="M110.33 123.92C110.08 125.795 110.08 125.795 109.33 127.92C107.267 129.17 107.267 129.17 105.33 129.92C104.67 129.26 104.01 128.6 103.33 127.92C108.08 123.92 108.08 123.92 110.33 123.92Z" fill="#C82530"/>
<path d="M107.33 114.92C106.333 117.413 105.679 118.694 103.392 120.17C101.33 120.92 101.33 120.92 98.33 120.92C99.4497 119.914 100.576 118.915 101.705 117.92C102.645 117.084 102.645 117.084 103.603 116.232C105.33 114.92 105.33 114.92 107.33 114.92Z" fill="#EFC635"/>
<path d="M65.33 73.9197C66.65 74.5797 67.97 75.2397 69.33 75.9197C68.67 78.2297 68.01 80.5397 67.33 82.9197C65.83 81.7322 65.83 81.7322 64.33 79.9197C64.08 77.2947 64.08 77.2947 64.33 74.9197C64.66 74.5897 64.99 74.2597 65.33 73.9197Z" fill="#302E23"/>
<path d="M41.33 123.92C44.6959 125.362 46.8404 127.252 49.33 129.92C45.9875 129.323 43.8656 128.184 41.33 125.92C41.33 125.26 41.33 124.6 41.33 123.92Z" fill="#D82332"/>
<path d="M120.33 89.9197C121.32 90.4147 121.32 90.4147 122.33 90.9197C124.428 90.5204 124.428 90.5204 126.33 89.9197C126.33 90.9097 126.33 91.8997 126.33 92.9197C124.68 93.5797 123.03 94.2397 121.33 94.9197C121 93.2697 120.67 91.6197 120.33 89.9197Z" fill="#180E0B"/>
<path d="M50.33 16.9197C50.33 17.5797 50.33 18.2397 50.33 18.9197C46.865 20.4047 46.865 20.4047 43.33 21.9197C43.705 19.9822 43.705 19.9822 44.33 17.9197C46.33 16.9197 46.33 16.9197 50.33 16.9197Z" fill="#0E0B06"/>
<path d="M96.33 13.9197C98.64 14.5797 100.95 15.2397 103.33 15.9197C102.34 17.4047 102.34 17.4047 101.33 18.9197C99.35 18.2597 97.37 17.5997 95.33 16.9197C95.66 15.9297 95.99 14.9397 96.33 13.9197Z" fill="#1F190A"/>
<path d="M114.33 102.92C114.33 103.91 114.33 104.9 114.33 105.92C112.017 107.67 112.017 107.67 109.33 108.92C108.34 108.59 107.35 108.26 106.33 107.92C112.08 102.92 112.08 102.92 114.33 102.92Z" fill="#080606"/>
<path d="M110.33 68.9197C110.99 68.9197 111.65 68.9197 112.33 68.9197C112.33 72.2197 112.33 75.5197 112.33 78.9197C110.688 75.6365 109.809 73.4653 109.33 69.9197C109.66 69.5897 109.99 69.2597 110.33 68.9197Z" fill="#040304"/>
</svg>
