<svg width="153" height="152" viewBox="0 0 153 152" fill="none" xmlns="http://www.w3.org/2000/svg">
<path d="M110.721 27.6147C122.65 37.0465 130.852 48.652 134.241 63.6069C134.423 64.2024 134.605 64.798 134.792 65.4116C138.341 82.7549 131.985 99.4101 122.807 113.865C114.419 124.568 100.544 132.298 87.241 134.607C74.3597 135.749 61.7761 135.987 50.241 129.607C49.3451 129.138 48.4492 128.668 47.5262 128.185C32.3008 119.668 23.2669 106.55 18.4285 89.9194C14.9142 74.3072 17.3979 59.0545 25.4754 45.2045C28.6214 40.576 32.2941 36.5607 36.241 32.6069C36.8056 32.0307 37.3702 31.4545 37.9519 30.8608C57.2791 12.7121 89.6399 12.886 110.721 27.6147Z" fill="#DB3232"/>
<path d="M120.929 17.9194C122.385 19.126 123.822 20.3559 125.241 21.6069C125.991 22.263 126.741 22.9191 127.514 23.5951C140.412 35.6344 148.702 52.7468 149.53 70.3959C150.095 91.7803 144.311 110.237 130.241 126.607C117.973 139.373 100.863 148.316 83.0106 148.943C59.2085 149.253 59.2085 149.253 49.241 144.607C48.2136 144.16 47.1863 143.712 46.1277 143.251C29.0847 135.335 15.6153 121.714 8.49102 104.294C4.48292 93.1167 2.6272 82.4688 3.24102 70.6069C3.27195 69.7445 3.30289 68.8821 3.33477 67.9936C4.32577 52.4596 12.0902 38.0591 22.241 26.6069C22.7605 25.9933 23.28 25.3797 23.8152 24.7475C48.5418 -2.40812 92.4007 -3.34144 120.929 17.9194ZM31.784 36.5287C20.4751 50.2175 15.8135 66.0066 17.241 83.6069C19.1424 98.338 27.1278 113.137 38.5809 122.525C44.3751 126.818 50.5444 129.962 57.241 132.607C58.1008 132.974 58.9606 133.342 59.8465 133.72C75.6063 137.837 92.7132 134.96 106.679 127.169C121.062 118.234 129.387 106.004 134.116 89.7944C137.567 74.2454 135.09 59.5063 127.264 45.7201C124.088 40.8324 120.384 36.6904 116.241 32.6069C115.396 31.7464 115.396 31.7464 114.534 30.8686C102.593 19.6247 86.9485 16.8039 71.1902 17.2631C55.5537 18.1004 42.4582 25.2539 31.784 36.5287Z" fill="#D93333"/>
<path d="M110.721 27.6147C122.65 37.0465 130.852 48.652 134.241 63.6069C134.423 64.2024 134.605 64.798 134.792 65.4116C138.341 82.7549 131.985 99.4101 122.807 113.865C114.419 124.568 100.544 132.298 87.241 134.607C74.3597 135.749 61.7761 135.987 50.241 129.607C49.3451 129.138 48.4492 128.668 47.5262 128.185C32.3008 119.668 23.2669 106.55 18.4285 89.9194C14.9142 74.3072 17.3979 59.0545 25.4754 45.2045C28.6214 40.576 32.2941 36.5607 36.241 32.6069C36.8056 32.0307 37.3702 31.4545 37.9519 30.8608C57.2791 12.7121 89.6399 12.886 110.721 27.6147ZM39.0301 47.0717C30.2688 59.4866 28.9037 71.808 30.241 86.6069C32.9404 98.6515 40.3128 108.434 50.241 115.607C61.7807 122.545 74.3931 124.627 87.5926 121.919C100.727 117.847 111.081 110.493 117.886 98.4702C123.965 85.628 125.157 73.2123 120.561 59.7787C115.218 46.943 106.671 38.6079 94.1433 32.7944C74.5696 24.7857 52.4846 30.9318 39.0301 47.0717Z" fill="#FBFAFA"/>
<path d="M95.491 49.4194C98.9441 52.1662 101.624 55.0639 104.241 58.6069C104.659 59.1457 105.076 59.6845 105.507 60.2397C110.193 67.5994 109.373 78.3868 107.581 86.6498C104.361 95.6416 97.7995 102.48 89.241 106.607C80.2318 110.102 70.7072 109.689 61.8113 105.994C53.5496 101.536 47.6146 94.7433 44.6433 85.81C42.8709 76.1049 43.3401 66.8611 48.3464 58.2319C60.355 41.5932 78.2777 39.8197 95.491 49.4194Z" fill="#1A74BD"/>
<path d="M99.241 3.60686C100.303 3.93557 101.365 4.26428 102.46 4.60295C121.242 11.065 136.147 25.157 145.241 42.6069C150.485 53.377 152.626 63.475 152.553 75.4194C152.546 76.8645 152.546 76.8645 152.539 78.3388C152.199 99.0786 143.536 117.743 128.774 132.195C110.103 149.396 89.029 152.781 64.4812 151.845C57.848 151.357 52.2317 149.518 46.241 146.607C45.1208 146.087 44.0006 145.568 42.8464 145.033C23.8991 135.57 10.5582 119.734 3.36597 99.9194C-2.63759 79.0812 -0.680585 57.8218 9.80346 38.767C21.0139 20.2645 37.6648 7.39492 58.491 1.60686C71.7478 -0.957902 86.4008 -0.566197 99.241 3.60686ZM26.241 22.6069C25.3283 23.3822 25.3283 23.3822 24.3972 24.1733C15.976 31.8097 9.73479 42.873 6.24096 53.6069C5.84909 54.7619 5.45721 55.9169 5.05346 57.1069C0.381335 77.233 3.82938 98.2989 14.241 116.107C25.5712 132.906 42.377 144.396 62.241 148.607C77.1767 149.682 91.3874 149.645 105.241 143.607C106.141 143.246 107.04 142.885 107.968 142.513C127.174 133.977 138.682 117.743 146.37 98.8295C152.173 82.4305 150.794 62.0578 143.524 46.4694C140.153 39.5777 136.422 33.3098 131.241 27.6069C130.587 26.8618 129.934 26.1167 129.26 25.349C118.307 13.577 101.163 4.54911 84.8601 3.44573C62.0769 3.05727 43.5044 6.8572 26.241 22.6069Z" fill="#1372BE"/>
<path d="M120.929 17.9194C122.385 19.126 123.822 20.3559 125.241 21.6069C125.991 22.263 126.741 22.9191 127.514 23.5951C140.412 35.6344 148.702 52.7468 149.53 70.3959C150.095 91.7803 144.311 110.237 130.241 126.607C117.973 139.373 100.863 148.316 83.0106 148.943C59.2085 149.253 59.2085 149.253 49.241 144.607C48.2136 144.16 47.1863 143.712 46.1277 143.251C29.0847 135.335 15.6153 121.714 8.49102 104.294C4.48292 93.1167 2.6272 82.4688 3.24102 70.6069C3.27195 69.7445 3.30289 68.8821 3.33477 67.9936C4.32577 52.4596 12.0902 38.0591 22.241 26.6069C22.7605 25.9933 23.28 25.3797 23.8152 24.7475C48.5418 -2.40812 92.4007 -3.34144 120.929 17.9194ZM28.241 24.6069C27.6068 25.1599 26.9726 25.7129 26.3191 26.2826C14.5769 37.1676 6.86143 54.1244 5.9207 70.0287C5.24981 88.8891 10.0207 107.634 22.6785 122.107C24.1788 123.627 25.6989 125.129 27.241 126.607C28.2349 127.647 28.2349 127.647 29.2488 128.708C38.2571 137.58 50.9355 143.179 63.241 145.607C64.8807 145.947 64.8807 145.947 66.5535 146.294C87.3154 148.054 105.464 143.162 122.054 130.294C135.478 118.721 144.63 102.369 146.241 84.6069C147.385 64.4135 143.259 46.2544 129.936 30.4819C129.377 29.8631 128.817 29.2444 128.241 28.6069C127.723 28.0087 127.205 27.4106 126.671 26.7944C115.881 15.1184 99.7331 7.28154 83.8243 6.48601C62.0428 5.81166 44.8706 9.6223 28.241 24.6069Z" fill="#0E0A0D"/>
<path d="M75.241 47.6069C78.6158 50.2988 79.5425 53.6113 80.9285 57.6069C81.3655 58.8444 81.8025 60.0819 82.2527 61.3569C83.241 64.6069 83.241 64.6069 83.241 67.6069C90.171 67.6069 97.101 67.6069 104.241 67.6069C100.829 71.0184 97.6772 73.9703 93.9285 76.9194C93.0455 77.6168 92.1625 78.3141 91.2527 79.0327C90.5888 79.5521 89.925 80.0716 89.241 80.6069C90.2905 86.5213 91.6152 92.1395 93.655 97.7944C94.241 99.6069 94.241 99.6069 94.241 101.607C89.4838 99.4507 85.4314 96.2336 81.2136 93.1889C78.4349 91.4088 78.4349 91.4088 75.7449 91.6186C72.5284 92.8881 69.9454 94.6213 67.116 96.6069C61.5211 100.513 61.5211 100.513 58.241 101.607C58.5181 100.51 58.7953 99.4129 59.0808 98.2827C59.4468 96.8282 59.8126 95.3738 60.1785 93.9194C60.3609 93.1981 60.5433 92.4769 60.7312 91.7338C61.6592 88.0386 62.539 84.3534 63.241 80.6069C62.7563 80.2486 62.2716 79.8903 61.7722 79.5212C59.5927 77.9072 57.4168 76.2884 55.241 74.6694C54.4778 74.1054 53.7147 73.5414 52.9285 72.9604C52.2066 72.4222 51.4847 71.884 50.741 71.3295C50.0707 70.832 49.4003 70.3345 48.7097 69.822C47.9827 69.2205 47.9827 69.2205 47.241 68.6069C47.241 68.2769 47.241 67.9469 47.241 67.6069C54.501 67.6069 61.761 67.6069 69.241 67.6069C69.571 65.6269 69.901 63.6469 70.241 61.6069C71.0488 59.1329 71.9048 56.6743 72.8035 54.2319C73.0374 53.5912 73.2714 52.9505 73.5125 52.2905C74.084 50.7276 74.6618 49.167 75.241 47.6069Z" fill="#F6FAFB"/>
<path d="M92.3973 44.353C93.0057 44.7668 93.6142 45.1806 94.241 45.6069C94.932 46.031 95.6229 46.4551 96.3348 46.892C103.845 51.9219 108.174 59.2191 111.241 67.6069C111.522 70.3362 111.673 72.7685 111.616 75.4819C111.606 76.1844 111.596 76.887 111.585 77.6108C111.276 87.9815 107.799 94.9578 100.577 102.298C92.2884 109.849 83.7958 112.068 72.7215 111.943C62.86 110.991 54.6968 105.969 48.241 98.6069C41.3119 88.8856 39.6133 79.3984 41.241 67.6069C43.7334 58.3346 49.391 50.9568 57.241 45.6069C57.8701 45.1557 58.4992 44.7045 59.1473 44.2397C67.854 39.2299 83.7114 39.4069 92.3973 44.353ZM50.241 55.6069C43.8207 64.5026 42.9941 73.052 44.241 83.6069C45.9237 91.3867 50.2624 97.4342 56.241 102.607C65.5251 108.448 75.0981 110.336 85.9637 108.029C94.2315 105.146 101.751 99.121 105.804 91.2944C109.174 82.6481 110.037 72.2321 107.182 63.2905C101.686 52.5812 93.3603 47.3133 82.241 43.6069C69.0308 42.4767 59.0525 45.4024 50.241 55.6069Z" fill="#100A0C"/>
<path d="M55.241 48.6069C55.241 52.1287 54.8334 52.3315 52.491 54.7319C45.3426 62.8604 44.5428 70.9988 44.241 81.6069C43.911 81.6069 43.581 81.6069 43.241 81.6069C43.1804 80.9314 43.1198 80.2559 43.0574 79.56C42.9736 78.668 42.8898 77.7759 42.8035 76.8569C42.7223 75.9752 42.6411 75.0934 42.5574 74.185C42.3417 71.6711 42.3417 71.6711 41.5535 69.642C40.8006 64.7387 44.7101 59.5929 47.241 55.6069C49.7095 52.9617 52.3085 50.7207 55.241 48.6069Z" fill="#0C0F16"/>
<path d="M1.24104 60.6069C1.57104 61.2669 1.90104 61.9269 2.24104 62.6069C2.90104 62.6069 3.56104 62.6069 4.24104 62.6069C3.91104 69.8669 3.58104 77.1269 3.24104 84.6069C2.58104 84.9369 1.92104 85.2669 1.24104 85.6069C-0.299595 82.5256 0.0977695 79.2967 0.116042 75.9194C0.112174 75.2239 0.108307 74.5285 0.104323 73.812C0.112725 69.3124 0.507882 65.0466 1.24104 60.6069Z" fill="#166FB2"/>
<path d="M32.241 15.6069C32.901 15.9369 33.561 16.2669 34.241 16.6069C33.3605 17.4035 32.4801 18.2002 31.573 19.0209C30.3996 20.091 29.2265 21.1614 28.0535 22.2319C27.4753 22.7539 26.8972 23.276 26.3015 23.8139C22.6081 27.1943 19.3629 30.6912 16.241 34.6069C15.4832 32.9194 15.4832 32.9194 15.241 30.6069C16.9363 28.1694 16.9363 28.1694 19.366 25.6069C20.1523 24.7612 20.9386 23.9156 21.7488 23.0444C27.8601 17.0672 27.8601 17.0672 32.241 15.6069Z" fill="#1976C3"/>
<path d="M73.241 3.60689C73.241 3.93689 73.241 4.26689 73.241 4.60689C75.881 4.93689 78.521 5.26689 81.241 5.60689C81.241 5.93689 81.241 6.26689 81.241 6.60689C79.5916 6.68037 79.5916 6.68037 77.9089 6.75533C69.5455 7.16531 61.4409 7.78271 53.241 9.60689C52.911 8.61689 52.581 7.62689 52.241 6.60689C59.3388 4.78915 65.8918 3.17459 73.241 3.60689Z" fill="#111019"/>
<path d="M129.241 123.607C129.901 124.267 130.561 124.927 131.241 125.607C118.68 137.421 118.68 137.421 113.241 139.607C112.251 139.277 111.261 138.947 110.241 138.607C113.611 134.966 117.382 132.24 121.428 129.419C125.514 126.726 125.514 126.726 129.241 123.607Z" fill="#0B0709"/>
<path d="M50.241 141.607C60.141 143.587 60.141 143.587 70.241 145.607C68.921 145.937 67.601 146.267 66.241 146.607C66.241 147.267 66.241 147.927 66.241 148.607C60.193 148.057 54.935 146.703 49.241 144.607C49.571 143.617 49.901 142.627 50.241 141.607Z" fill="#161116"/>
<path d="M6.241 53.6069C6.571 54.2669 6.901 54.9269 7.241 55.6069C7.901 55.6069 8.561 55.6069 9.241 55.6069C9.10822 56.2591 8.97545 56.9114 8.83865 57.5834C7.89617 62.2477 6.98331 66.9056 6.241 71.6069C5.581 71.6069 4.921 71.6069 4.241 71.6069C4.241 75.5669 4.241 79.5269 4.241 83.6069C3.911 83.6069 3.581 83.6069 3.241 83.6069C3.09585 73.3175 3.0279 63.4604 6.241 53.6069Z" fill="#0E121A"/>
<path d="M97.241 147.607C97.901 148.267 98.561 148.927 99.241 149.607C97.6587 149.945 96.0751 150.277 94.491 150.607C93.6092 150.792 92.7275 150.978 91.8191 151.169C89.241 151.607 89.241 151.607 85.241 151.607C85.241 150.947 85.241 150.287 85.241 149.607C79.961 149.607 74.681 149.607 69.241 149.607C69.241 149.277 69.241 148.947 69.241 148.607C70.1183 148.569 70.1183 148.569 71.0134 148.531C73.6728 148.415 76.3319 148.292 78.991 148.169C80.3716 148.11 80.3716 148.11 81.78 148.05C82.6695 148.008 83.5589 147.966 84.4753 147.923C85.2923 147.887 86.1092 147.85 86.9509 147.812C95.6691 147.031 95.6691 147.031 97.241 147.607Z" fill="#0E5DA1"/>
<path d="M145.241 84.6069C145.571 84.6069 145.901 84.6069 146.241 84.6069C146.241 86.2569 146.241 87.9069 146.241 89.6069C146.901 89.6069 147.561 89.6069 148.241 89.6069C146.082 101.437 146.082 101.437 144.241 104.607C142.171 105.228 142.171 105.228 140.241 105.607C140.434 105.013 140.628 104.418 140.827 103.806C142.818 97.4671 144.181 91.1632 145.241 84.6069Z" fill="#1C1013"/>
<path d="M62.241 148.607C69.831 148.937 77.421 149.267 85.241 149.607C85.241 150.267 85.241 150.927 85.241 151.607C81.9702 151.636 78.6994 151.654 75.4285 151.669C74.4997 151.678 73.5709 151.686 72.614 151.695C71.7213 151.698 70.8287 151.701 69.9089 151.705C68.6757 151.712 68.6757 151.712 67.4175 151.72C65.241 151.607 65.241 151.607 62.241 150.607C62.241 149.947 62.241 149.287 62.241 148.607Z" fill="#117CCF"/>
<path d="M109.241 70.6069C109.901 70.9369 110.561 71.2669 111.241 71.6069C111.63 84.955 111.63 84.955 109.241 89.6069C108.251 89.9369 107.261 90.2669 106.241 90.6069C106.374 90.001 106.507 89.3952 106.643 88.7709C107.917 82.7296 108.744 76.7595 109.241 70.6069Z" fill="#0E0A0A"/>
<path d="M50.241 144.607C56.181 146.092 56.181 146.092 62.241 147.607C62.241 148.597 62.241 149.587 62.241 150.607C63.231 150.937 64.221 151.267 65.241 151.607C59.193 151.057 53.935 149.703 48.241 147.607C48.901 146.617 49.561 145.627 50.241 144.607Z" fill="#146AB1"/>
<path d="M109.241 143.607C106.881 146.34 104.717 147.614 101.241 148.607C98.4285 148.232 98.4285 148.232 96.241 147.607C97.5129 145.063 98.4405 144.913 101.053 143.919C101.741 143.647 102.428 143.375 103.135 143.095C105.535 142.539 106.93 142.833 109.241 143.607Z" fill="#1273C7"/>
<path d="M148.241 51.6069C150.264 54.6421 150.562 55.8011 150.866 59.2944C150.941 60.1026 151.016 60.9109 151.093 61.7436C151.166 62.6659 151.166 62.6659 151.241 63.6069C150.581 63.6069 149.921 63.6069 149.241 63.6069C148.911 64.2669 148.581 64.9269 148.241 65.6069C147.851 63.8393 147.479 62.0676 147.116 60.2944C146.907 59.3082 146.698 58.3221 146.483 57.3061C146.241 54.6069 146.241 54.6069 148.241 51.6069Z" fill="#106AB9"/>
<path d="M86.241 108.607C86.571 109.267 86.901 109.927 87.241 110.607C83.243 111.563 79.5329 111.711 75.4285 111.669C74.267 111.66 73.1056 111.651 71.9089 111.642C71.0285 111.63 70.1481 111.619 69.241 111.607C72.256 109.005 74.345 108.167 78.3035 107.857C79.1607 107.78 80.0179 107.702 80.9011 107.622C83.241 107.607 83.241 107.607 86.241 108.607Z" fill="#230D0F"/>
<path d="M26.241 125.607C27.5571 126.56 28.8688 127.52 30.1785 128.482C30.9094 129.016 31.6403 129.549 32.3933 130.099C34.241 131.607 34.241 131.607 35.241 133.607C34.581 134.267 33.921 134.927 33.241 135.607C30.601 133.297 27.961 130.987 25.241 128.607C25.571 127.617 25.901 126.627 26.241 125.607Z" fill="#1A1015"/>
<path d="M73.241 3.6069C73.241 3.9369 73.241 4.2669 73.241 4.6069C75.881 4.9369 78.521 5.2669 81.241 5.6069C81.241 5.9369 81.241 6.2669 81.241 6.6069C78.6157 6.66072 75.9915 6.70048 73.366 6.7319C72.6196 6.74865 71.8732 6.76541 71.1042 6.78268C69.149 6.80029 67.1935 6.7101 65.241 6.6069C64.581 5.9469 63.921 5.2869 63.241 4.6069C66.4555 2.99964 69.6771 3.54941 73.241 3.6069Z" fill="#1F0F15"/>
<path d="M27.241 131.607C30.3547 133.106 33.3632 134.688 36.241 136.607C36.241 137.267 36.241 137.927 36.241 138.607C32.2092 138.332 30.672 138.072 27.866 135.044C27.0616 133.838 27.0616 133.838 26.241 132.607C26.571 132.277 26.901 131.947 27.241 131.607Z" fill="#1378C2"/>
<path d="M53.241 7.60687C52.241 10.6069 52.241 10.6069 48.866 12.3569C45.241 13.6069 45.241 13.6069 42.241 12.6069C45.3175 9.04462 48.5394 7.60687 53.241 7.60687Z" fill="#07070B"/>
<path d="M69.241 43.6069C73.531 43.6069 77.821 43.6069 82.241 43.6069C82.571 44.2669 82.901 44.9269 83.241 45.6069C81.591 45.6069 79.941 45.6069 78.241 45.6069C77.911 46.2669 77.581 46.9269 77.241 47.6069C76.581 47.2769 75.921 46.9469 75.241 46.6069C74.911 47.2669 74.581 47.9269 74.241 48.6069C74.241 47.2869 74.241 45.9669 74.241 44.6069C72.591 44.6069 70.941 44.6069 69.241 44.6069C69.241 44.2769 69.241 43.9469 69.241 43.6069Z" fill="#1262A2"/>
<path d="M73.241 3.60687C74.845 3.57979 76.4492 3.56044 78.0535 3.54437C78.9468 3.53277 79.8401 3.52117 80.7605 3.50922C83.241 3.60687 83.241 3.60687 86.241 4.60687C86.241 5.26687 86.241 5.92687 86.241 6.60687C79.311 6.11187 79.311 6.11187 72.241 5.60687C72.571 4.94687 72.901 4.28687 73.241 3.60687Z" fill="#070505"/>
<path d="M107.241 64.6069C108.231 64.6069 109.221 64.6069 110.241 64.6069C110.571 66.9169 110.901 69.2269 111.241 71.6069C110.911 71.6069 110.581 71.6069 110.241 71.6069C109.911 74.5769 109.581 77.5469 109.241 80.6069C108.911 80.6069 108.581 80.6069 108.241 80.6069C107.911 75.3269 107.581 70.0469 107.241 64.6069Z" fill="#181C26"/>
<path d="M105.241 89.6069C106.231 89.9369 107.221 90.2669 108.241 90.6069C107.055 93.9819 105.965 96.2541 103.241 98.6069C102.241 95.6069 102.241 95.6069 103.679 92.4194C104.194 91.4912 104.71 90.5631 105.241 89.6069Z" fill="#171014"/>
<path d="M94.241 105.607C92.2668 108.129 91.2735 108.6 88.0535 109.294C86.6613 109.449 86.6613 109.449 85.241 109.607C85.571 108.617 85.901 107.627 86.241 106.607C89.1692 105.631 91.1971 105.525 94.241 105.607Z" fill="#090709"/>
<path d="M57.241 45.6069C57.901 45.9369 58.561 46.2669 59.241 46.6069C58.911 47.5969 58.581 48.5869 58.241 49.6069C57.251 49.2769 56.261 48.9469 55.241 48.6069C55.901 47.6169 56.561 46.6269 57.241 45.6069ZM53.241 48.6069C53.901 48.9369 54.561 49.2669 55.241 49.6069C53.591 51.2569 51.941 52.9069 50.241 54.6069C49.581 54.2769 48.921 53.9469 48.241 53.6069C49.891 51.9569 51.541 50.3069 53.241 48.6069Z" fill="#230D0C"/>
<path d="M146.241 81.6069C147.231 81.6069 148.221 81.6069 149.241 81.6069C148.911 84.2469 148.581 86.8869 148.241 89.6069C147.581 89.6069 146.921 89.6069 146.241 89.6069C146.241 86.9669 146.241 84.3269 146.241 81.6069Z" fill="#07090A"/>
<path d="M97.241 3.60687C98.891 3.93687 100.541 4.26687 102.241 4.60687C102.571 5.92687 102.901 7.24687 103.241 8.60687C100.601 7.94687 97.961 7.28687 95.241 6.60687C95.901 6.27687 96.561 5.94687 97.241 5.60687C97.241 4.94687 97.241 4.28687 97.241 3.60687Z" fill="#0F69B3"/>
<path d="M129.241 123.607C129.901 124.267 130.561 124.927 131.241 125.607C128.271 128.082 128.271 128.082 125.241 130.607C125.241 129.287 125.241 127.967 125.241 126.607C127.241 124.857 127.241 124.857 129.241 123.607Z" fill="#091929"/>
<path d="M142.241 98.6069C143.231 98.6069 144.221 98.6069 145.241 98.6069C144.911 100.587 144.581 102.567 144.241 104.607C142.921 104.937 141.601 105.267 140.241 105.607C140.901 103.297 141.561 100.987 142.241 98.6069Z" fill="#180A0B"/>
<path d="M89.241 67.6069C94.191 67.6069 99.141 67.6069 104.241 67.6069C102.756 69.0919 102.756 69.0919 101.241 70.6069C100.911 70.2769 100.581 69.9469 100.241 69.6069C98.392 69.3732 96.5361 69.1938 94.6785 69.0444C93.6666 68.9606 92.6546 68.8768 91.6121 68.7905C90.4384 68.6996 90.4384 68.6996 89.241 68.6069C89.241 68.2769 89.241 67.9469 89.241 67.6069Z" fill="#EEF2F1"/>
<path d="M41.241 79.6069C41.571 80.5969 41.901 81.5869 42.241 82.6069C43.231 82.9369 44.221 83.2669 45.241 83.6069C45.241 84.5969 45.241 85.5869 45.241 86.6069C44.581 86.6069 43.921 86.6069 43.241 86.6069C42.911 87.2669 42.581 87.9269 42.241 88.6069C41.911 85.6369 41.581 82.6669 41.241 79.6069Z" fill="#241014"/>
<path d="M45.241 40.6069C46.231 40.9369 47.221 41.2669 48.241 41.6069C46.591 43.2569 44.941 44.9069 43.241 46.6069C42.251 46.2769 41.261 45.9469 40.241 45.6069C41.891 43.9569 43.541 42.3069 45.241 40.6069Z" fill="#E04C4B"/>
<path d="M41.241 139.607C40.251 140.102 40.251 140.102 39.241 140.607C38.911 141.267 38.581 141.927 38.241 142.607C36.591 141.287 34.941 139.967 33.241 138.607C36.8642 137.399 37.8824 138.064 41.241 139.607Z" fill="#136BAF"/>
<path d="M122.241 128.607C123.231 128.937 124.221 129.267 125.241 129.607C123.591 131.257 121.941 132.907 120.241 134.607C119.911 133.947 119.581 133.287 119.241 132.607C120.231 131.287 121.221 129.967 122.241 128.607Z" fill="#120E12"/>
<path d="M3.24097 83.6069C3.57097 83.6069 3.90097 83.6069 4.24097 83.6069C4.24097 85.9169 4.24097 88.2269 4.24097 90.6069C3.25097 90.2769 2.26097 89.9469 1.24097 89.6069C2.11597 84.7319 2.11597 84.7319 3.24097 83.6069Z" fill="#0F73BA"/>
<path d="M1.24097 60.6069C1.57097 61.2669 1.90097 61.9269 2.24097 62.6069C2.90097 62.6069 3.56097 62.6069 4.24097 62.6069C4.24097 65.2469 4.24097 67.8869 4.24097 70.6069C1.88649 68.0562 1.25769 66.8967 1.05347 63.3569C1.11534 62.4494 1.17722 61.5419 1.24097 60.6069Z" fill="#13619A"/>
<path d="M83.241 3.60687C86.211 3.93687 89.181 4.26687 92.241 4.60687C91.251 6.09187 91.251 6.09187 90.241 7.60687C88.921 7.60687 87.601 7.60687 86.241 7.60687C86.241 6.61687 86.241 5.62687 86.241 4.60687C85.251 4.27687 84.261 3.94687 83.241 3.60687Z" fill="#1A1A29"/>
</svg>
