<svg width="154" height="154" viewBox="0 0 154 154" fill="none" xmlns="http://www.w3.org/2000/svg">
<path d="M80.9402 3.99998C82.5504 4.63076 84.154 5.27831 85.7527 5.93748C92.3825 8.48951 99.0803 8.98083 106.096 9.60545C109.94 9.99998 109.94 9.99998 112.94 11C112.94 10.34 112.94 9.67998 112.94 8.99998C123.476 13.874 133.258 22.5339 139.94 32C139.94 32.66 139.94 33.32 139.94 34C139.28 34 138.62 34 137.94 34C138.27 34.99 138.6 35.98 138.94 37C140.26 37 141.58 37 142.94 37C153.754 56.0325 155.714 76.896 151.108 98.1523C145.574 118.018 131.086 133.788 113.553 144.012C102.116 150.389 90.7939 151.915 77.9402 153C77.9402 152.34 77.9402 151.68 77.9402 151C76.9502 151.66 75.9602 152.32 74.9402 153C56.0209 154.019 38.8718 144.746 24.4168 133.445C23.9295 132.968 23.4423 132.491 22.9402 132C22.9402 131.34 22.9402 130.68 22.9402 130C22.2802 130 21.6202 130 20.9402 130C14.4609 122.787 9.25782 115.147 5.94024 106C5.47618 104.84 5.01212 103.68 4.53399 102.484C-2.60759 83.0959 -1.05628 61.4112 7.38556 42.8164C8.50932 40.5014 9.67496 38.2398 10.9402 36C13.2502 36.66 15.5602 37.32 17.9402 38C17.6102 36.68 17.2802 35.36 16.9402 34C18.1913 33.1995 18.1913 33.1995 19.4676 32.3828C28.0585 26.7459 35.1714 20.6532 40.9402 12C41.6002 12 42.2602 12 42.9402 12C42.9402 11.34 42.9402 10.68 42.9402 9.99998C43.6931 9.9858 44.4459 9.97162 45.2215 9.95701C56.7453 9.43956 70.111 1.40097 80.9402 3.99998Z" fill="#0A0605"/>
<path d="M10.9402 36C15.8396 37.3275 19.3093 39.5221 23.1902 42.6875C24.323 43.5864 25.4571 44.4835 26.5926 45.3789C27.1519 45.8212 27.7112 46.2635 28.2874 46.7192C32.0557 49.6392 36.0025 52.3156 39.9402 55C38.9502 55.495 38.9502 55.495 37.9402 56C33.5925 54.3813 29.5002 51.9666 25.9402 49C23.9873 53.9856 23.5326 58.4713 23.3152 63.75C23.2766 64.517 23.2379 65.284 23.1981 66.0742C22.6557 77.0955 24.9437 87.192 31.9402 96C35.0985 99.1997 37.8154 99.9236 42.2762 100.227C45.5097 100.248 48.7119 100.175 51.9402 100C51.9402 100.66 51.9402 101.32 51.9402 102C52.5667 101.567 53.1932 101.134 53.8387 100.688C54.6559 100.131 55.4732 99.5738 56.3152 99C57.1274 98.4431 57.9395 97.8863 58.7762 97.3125C60.9402 96 60.9402 96 62.9402 96C62.9402 95.34 62.9402 94.68 62.9402 94C64.6199 92.2734 64.6199 92.2734 66.8152 90.375C67.5345 89.7434 68.2538 89.1117 68.9949 88.4609C70.9402 87 70.9402 87 72.9402 87C72.899 86.0719 72.8577 85.1438 72.8152 84.1875C72.9402 81 72.9402 81 74.9402 78C75.6002 78 76.2602 78 76.9402 78C76.9402 73.38 76.9402 68.76 76.9402 64C78.2602 63.67 79.5802 63.34 80.9402 63C79.4552 62.505 79.4552 62.505 77.9402 62C77.9402 55.73 77.9402 49.46 77.9402 43C79.9202 43.66 81.9002 44.32 83.9402 45C86.6073 45.4727 89.2421 45.7209 91.9402 46C91.3198 50.2332 89.835 53.5229 87.8777 57.3125C87.3299 58.3811 86.782 59.4498 86.2176 60.5508C85.7961 61.359 85.3745 62.1673 84.9402 63C85.9302 63 86.9202 63 87.9402 63C88.0524 62.2846 88.1645 61.5691 88.2801 60.832C88.9848 57.8088 90.0731 55.4368 91.5027 52.6875C91.9578 51.8045 92.4128 50.9215 92.8817 50.0117C93.231 49.3479 93.5803 48.684 93.9402 48C94.3876 48.3983 94.8349 48.7966 95.2957 49.207C98.0787 51.6459 100.689 53.85 103.878 55.75C104.558 56.1625 105.239 56.575 105.94 57C105.94 57.66 105.94 58.32 105.94 59C104.216 60.2149 102.434 61.3482 100.628 62.4375C97.3425 64.4258 94.6351 66.2885 91.9402 69C91.2802 69 90.6202 69 89.9402 69C89.7134 69.5569 89.4865 70.1137 89.2527 70.6875C87.5813 73.6325 85.3875 75.6816 82.9402 78C81.4552 77.505 81.4552 77.505 79.9402 77C79.874 81.1729 79.9676 84.673 82.4949 88.1211C84.8312 90.4525 86.9763 92.518 89.9402 94C89.9402 94.66 89.9402 95.32 89.9402 96C90.7852 96.3867 90.7852 96.3867 91.6473 96.7812C94.1983 98.1372 96.3507 99.7235 98.6277 101.5C99.4154 102.108 100.203 102.717 101.014 103.344C102.94 105 102.94 105 103.94 107C103.61 107.66 103.28 108.32 102.94 109C103.678 109.092 104.417 109.184 105.177 109.28C108.397 110.119 109.751 111.249 112.147 113.527C112.898 114.237 113.649 114.947 114.423 115.678C115.192 116.423 115.961 117.169 116.753 117.938C117.541 118.679 118.329 119.421 119.141 120.186C123.396 124.249 123.396 124.249 124.94 126C124.94 126.66 124.94 127.32 124.94 128C124.169 128.398 123.399 128.797 122.604 129.207C121.601 129.737 120.599 130.267 119.565 130.812C118.568 131.335 117.57 131.857 116.542 132.395C113.711 133.892 113.711 133.892 111.94 137C112.904 136.411 113.869 135.822 114.862 135.215C116.138 134.455 117.414 133.696 118.69 132.938C119.324 132.548 119.959 132.158 120.612 131.756C125.445 128.911 125.445 128.911 128.156 129.397C128.745 129.596 129.334 129.795 129.94 130C128.432 134.157 125.482 136.078 121.94 138.438C121.358 138.831 120.776 139.225 120.176 139.631C115.298 142.875 110.328 145.682 104.94 148C103.958 148.443 103.958 148.443 102.956 148.895C95.0742 151.995 86.2991 152.234 77.9402 153C77.9402 152.34 77.9402 151.68 77.9402 151C76.9502 151.66 75.9602 152.32 74.9402 153C56.0209 154.019 38.8718 144.747 24.4168 133.445C23.9295 132.968 23.4423 132.491 22.9402 132C22.9402 131.34 22.9402 130.68 22.9402 130C22.2802 130 21.6202 130 20.9402 130C14.4609 122.787 9.25782 115.147 5.94024 106C5.47618 104.84 5.01212 103.68 4.53399 102.484C-2.60759 83.0959 -1.05628 61.4113 7.38556 42.8164C8.50932 40.5015 9.67496 38.2398 10.9402 36Z" fill="#1F0A09"/>
<path d="M80.9402 3.99998C82.5503 4.63076 84.154 5.27831 85.7527 5.93748C93.5122 8.9261 101.721 9.31282 109.94 9.99998C107.535 16.1594 104.709 22.1229 101.94 28.125C101.394 29.3174 100.847 30.5097 100.284 31.7383C99.758 32.8791 99.2321 34.0199 98.6902 35.1953C98.2107 36.237 97.7311 37.2787 97.2371 38.352C95.9402 41 95.9402 41 93.9402 44C88.2431 45.1622 83.9418 43.7389 78.9402 41C77.9502 41.33 76.9602 41.66 75.9402 42C75.9559 42.8398 75.9559 42.8398 75.9719 43.6965C76.0135 46.2351 76.0395 48.7737 76.0652 51.3125C76.0819 52.1936 76.0987 53.0746 76.116 53.9824C76.1256 55.2537 76.1256 55.2537 76.1355 56.5508C76.1512 57.7212 76.1512 57.7212 76.1672 58.9153C75.9402 61 75.9402 61 73.9402 64C74.6002 64 75.2602 64 75.9402 64C75.9402 67.96 75.9402 71.92 75.9402 76C74.9502 76 73.9602 76 72.9402 76C72.9402 76.66 72.9402 77.32 72.9402 78C68.5126 76.6084 65.9846 74.4793 62.9402 71C62.9402 70.34 62.9402 69.68 62.9402 69C62.3627 68.7319 61.7852 68.4637 61.1902 68.1875C58.168 66.5924 55.6264 64.5361 52.9402 62.4375C51.0074 61.0483 49.0953 60.0006 46.9402 59C46.9402 58.34 46.9402 57.68 46.9402 57C48.2602 56.34 49.5802 55.68 50.9402 55C49.7491 55.2552 48.558 55.5104 47.3308 55.7734C43.7835 56.2086 43.0467 56.0589 39.7371 54.2265C38.703 53.3814 37.6878 52.5128 36.6902 51.625C35.5767 50.6979 34.4621 49.7721 33.3464 48.8476C32.787 48.3734 32.2275 47.8992 31.6511 47.4106C28.9264 45.1642 26.0548 43.1254 23.1902 41.0625C18.0614 37.3636 18.0614 37.3636 16.9402 34C18.1912 33.1995 18.1912 33.1995 19.4675 32.3828C28.0585 26.7459 35.1714 20.6532 40.9402 12C41.6002 12 42.2602 12 42.9402 12C42.9402 11.34 42.9402 10.68 42.9402 9.99998C43.693 9.9858 44.4458 9.97162 45.2214 9.95701C56.7453 9.43956 70.111 1.40097 80.9402 3.99998Z" fill="#DA4B4B"/>
<path d="M77.9402 43C79.9202 43.66 81.9002 44.32 83.9402 45C86.6072 45.4727 89.242 45.7209 91.9402 46C91.3197 50.2332 89.8349 53.5229 87.8777 57.3125C87.3298 58.3811 86.782 59.4498 86.2175 60.5508C85.796 61.359 85.3745 62.1673 84.9402 63C85.9302 63 86.9202 63 87.9402 63C88.0523 62.2846 88.1645 61.5691 88.28 60.832C88.9847 57.8088 90.0731 55.4368 91.5027 52.6875C91.9577 51.8045 92.4128 50.9215 92.8816 50.0117C93.4056 49.0159 93.4056 49.0159 93.9402 48C94.3875 48.3983 94.8348 48.7966 95.2957 49.207C98.0787 51.6459 100.688 53.85 103.878 55.75C104.558 56.1625 105.239 56.575 105.94 57C105.94 57.66 105.94 58.32 105.94 59C104.216 60.2149 102.434 61.3482 100.628 62.4375C97.3425 64.4258 94.6351 66.2885 91.9402 69C91.2802 69 90.6202 69 89.9402 69C89.7133 69.5569 89.4864 70.1137 89.2527 70.6875C87.5812 73.6325 85.3874 75.6816 82.9402 78C81.9502 77.67 80.9602 77.34 79.9402 77C79.8739 81.1729 79.9675 84.673 82.4949 88.1211C84.8311 90.4525 86.9762 92.518 89.9402 94C89.9402 94.66 89.9402 95.32 89.9402 96C90.5035 96.2578 91.0668 96.5156 91.6472 96.7812C94.1982 98.1372 96.3507 99.7235 98.6277 101.5C99.4153 102.108 100.203 102.717 101.014 103.344C102.94 105 102.94 105 103.94 107C103.61 107.66 103.28 108.32 102.94 109C103.678 109.092 104.417 109.184 105.177 109.28C108.397 110.119 109.751 111.249 112.147 113.527C113.274 114.592 113.274 114.592 114.423 115.678C115.192 116.423 115.96 117.169 116.753 117.938C117.541 118.679 118.329 119.421 119.141 120.186C123.396 124.249 123.396 124.249 124.94 126C124.94 126.66 124.94 127.32 124.94 128C124.169 128.398 123.398 128.797 122.604 129.207C121.601 129.737 120.598 130.267 119.565 130.812C118.567 131.335 117.57 131.857 116.542 132.395C113.711 133.892 113.711 133.892 111.94 137C112.904 136.411 113.869 135.822 114.862 135.215C116.138 134.455 117.414 133.696 118.69 132.938C119.324 132.548 119.959 132.158 120.612 131.756C125.445 128.911 125.445 128.911 128.156 129.397C128.745 129.596 129.334 129.795 129.94 130C128.432 134.157 125.481 136.077 121.94 138.438C121.364 138.829 120.789 139.221 120.195 139.625C115.329 142.875 110.28 145.601 104.94 148C104.61 147.34 104.28 146.68 103.94 146C94.7928 146.205 87.3603 148.669 78.9402 152C78.9402 151.01 78.9402 150.02 78.9402 149C80.867 148.142 82.8075 147.315 84.7527 146.5C86.3711 145.804 86.3711 145.804 88.0222 145.094C92.8643 143.405 97.882 143.794 102.94 144C102.637 143.344 102.334 142.688 102.022 142.012C100.658 139.052 99.2988 136.088 97.9402 133.125C97.4632 132.092 96.9863 131.06 96.4949 129.996C95.8181 128.517 95.8181 128.517 95.1277 127.008C94.7087 126.097 94.2898 125.185 93.8582 124.247C92.9402 122 92.9402 122 92.9402 120C91.2099 120.285 89.481 120.578 87.7527 120.875C86.7898 121.037 85.8268 121.2 84.8347 121.367C81.5219 122.008 81.5219 122.008 76.9402 124C76.9402 132.58 76.9402 141.16 76.9402 150C76.6102 150 76.2802 150 75.9402 150C75.4452 137.13 75.4452 137.13 74.9402 124C67.4279 120.649 67.4279 120.649 60.9402 121C59.2902 124.63 57.6402 128.26 55.9402 132C54.9502 131.67 53.9602 131.34 52.9402 131C53.4197 130.059 53.8992 129.118 54.3933 128.148C54.9937 126.891 55.5926 125.633 56.1902 124.375C56.6697 123.449 56.6697 123.449 57.1589 122.504C58.1984 120.41 58.1984 120.41 58.9402 117C56.7218 112.563 53.9366 109.886 49.9402 107C51.4118 103.385 53.3548 101.594 56.4402 99.25C57.2342 98.6364 58.0283 98.0228 58.8464 97.3906C60.9402 96 60.9402 96 62.9402 96C62.9402 95.34 62.9402 94.68 62.9402 94C64.6199 92.2734 64.6199 92.2734 66.8152 90.375C67.5345 89.7434 68.2538 89.1117 68.9949 88.4609C70.9402 87 70.9402 87 72.9402 87C72.8989 86.0719 72.8577 85.1438 72.8152 84.1875C72.9402 81 72.9402 81 74.9402 78C75.6002 78 76.2602 78 76.9402 78C76.9402 73.38 76.9402 68.76 76.9402 64C78.2602 63.67 79.5802 63.34 80.9402 63C79.9502 62.67 78.9602 62.34 77.9402 62C77.9402 55.73 77.9402 49.46 77.9402 43Z" fill="#1F0C09"/>
<path d="M139.94 36C143.809 37.2897 144.061 38.4822 145.878 42.0625C154.457 60.2471 156.267 82.711 149.94 102C146.418 111.154 141.406 121.475 133.94 128C132.62 128 131.3 128 129.94 128C131.883 120.944 134.983 115.135 138.94 109C133.733 113.441 131.019 118.959 127.94 125C123.615 122.363 120.249 119.453 116.753 115.793C114.937 113.996 113.027 112.492 111.003 110.938C108.256 108.663 107.989 108.378 107.503 104.625C107.647 103.759 107.791 102.892 107.94 102C108.936 101.654 108.936 101.654 109.952 101.301C118.159 98.2697 122.339 94.4873 126.94 87C131.904 74.1215 132.065 61.9226 126.94 49C125.641 50.2066 125.641 50.2066 124.315 51.4375C121.311 53.9692 118.908 54.7166 114.94 55C118.265 51.4174 121.954 48.7183 125.94 45.9375C127.17 45.072 128.399 44.2061 129.628 43.3398C130.203 42.9375 130.778 42.5351 131.37 42.1206C132.69 41.1788 133.976 40.1902 135.253 39.1914C136.94 38 136.94 38 138.94 38C139.27 37.34 139.6 36.68 139.94 36Z" fill="#1D0C08"/>
<path d="M17.9402 37C22.4009 39.8251 26.6931 42.7636 30.7839 46.1055C31.4678 46.6524 32.1516 47.1992 32.8562 47.7627C34.2254 48.8631 35.5791 49.9832 36.9148 51.124C40.7156 54.1438 43.0124 55.3884 47.9402 54.8477C49.2798 54.5966 50.6166 54.325 51.9402 54C50.5652 55.5 50.5652 55.5 48.9402 57C48.2802 57 47.6202 57 46.9402 57C46.9402 57.66 46.9402 58.32 46.9402 59C48.2705 59.3809 48.2705 59.3809 49.6277 59.7695C56.9687 62.4964 62.9087 68.3817 67.5886 74.5547C69.1917 76.269 70.8048 77.0641 72.9402 78C72.9402 77.34 72.9402 76.68 72.9402 76C73.9302 76 74.9202 76 75.9402 76C75.9402 72.04 75.9402 68.08 75.9402 64C75.2802 64 74.6202 64 73.9402 64C74.4352 62.515 74.4352 62.515 74.9402 61C75.0213 59.4458 75.0478 57.8883 75.0378 56.332C75.0346 55.4394 75.0314 54.5467 75.0281 53.627C75.0197 52.6982 75.0113 51.7694 75.0027 50.8125C74.9982 49.8721 74.9937 48.9318 74.989 47.9629C74.9772 45.6419 74.9608 43.321 74.9402 41C76.2602 40.67 77.5802 40.34 78.9402 40C79.4352 40.99 79.4352 40.99 79.9402 42C78.9502 42 77.9602 42 76.9402 42C77.4352 51.405 77.4352 51.405 77.9402 61C80.4152 61.99 80.4152 61.99 82.9402 63C82.9402 63.33 82.9402 63.66 82.9402 64C80.9602 64 78.9802 64 76.9402 64C76.9924 65.4637 76.9924 65.4637 77.0457 66.957C77.0727 68.2293 77.0998 69.5016 77.1277 70.8125C77.1799 72.7094 77.1799 72.7094 77.2332 74.6445C76.9402 78 76.9402 78 75.4402 79.7773C74.9452 80.1808 74.4502 80.5843 73.9402 81C73.8474 82.3613 73.8474 82.3613 73.7527 83.75C72.5273 88.6515 69.0142 91.184 64.9402 94C64.2802 94 63.6202 94 62.9402 94C62.9402 94.66 62.9402 95.32 62.9402 96C61.0769 97.543 61.0769 97.543 58.6277 99.1875C57.4269 100.013 57.4269 100.013 56.2019 100.855C55.4555 101.233 54.7092 101.611 53.9402 102C52.9502 101.67 51.9602 101.34 50.9402 101C49.0642 101.056 47.189 101.143 45.3152 101.25C39.2073 101.309 34.6367 100.002 29.9402 96C28.8542 94.1875 28.8542 94.1875 27.9402 92C27.538 91.0977 27.1358 90.1953 26.7214 89.2656C24.2938 83.5517 22.2257 78.0769 20.9402 72C21.6002 72 22.2602 72 22.9402 72C22.9054 70.854 22.8706 69.708 22.8347 68.5273C22.8066 66.9974 22.7793 65.4675 22.7527 63.9375C22.7275 63.1853 22.7024 62.4332 22.6765 61.6582C22.6074 56.3337 23.5335 52.7565 25.9402 48C26.5667 48.4331 27.1932 48.8663 27.8386 49.3125C29.0645 50.1478 29.0645 50.1478 30.3152 51C31.1273 51.5569 31.9394 52.1137 32.7761 52.6875C34.8034 54.1729 34.8034 54.1729 36.9402 54C36.4764 53.6574 36.0127 53.3149 35.5349 52.9619C33.4174 51.3947 31.3038 49.8224 29.1902 48.25C28.4606 47.7112 27.731 47.1723 26.9792 46.6172C23.3858 43.9384 19.9914 41.3082 16.9402 38C17.2702 37.67 17.6002 37.34 17.9402 37Z" fill="#080605"/>
<path d="M10.9402 36C15.8396 37.3275 19.3093 39.5221 23.1902 42.6875C24.323 43.5864 25.4571 44.4835 26.5926 45.3789C27.1519 45.8212 27.7112 46.2635 28.2874 46.7192C32.0557 49.6392 36.0025 52.3156 39.9402 55C38.9502 55.495 38.9502 55.495 37.9402 56C33.5925 54.3813 29.5002 51.9666 25.9402 49C23.9873 53.9856 23.5325 58.4713 23.3152 63.75C23.2766 64.517 23.2379 65.284 23.1981 66.0742C22.7057 76.0791 24.6177 84.6664 29.952 93.2578C30.9402 95 30.9402 95 30.9402 97C22.0302 99.97 22.0302 99.97 12.9402 103C12.9402 105.823 14.2062 106.534 16.1277 108.562C20.7383 113.707 24.9402 118.913 24.9402 126C24.2802 126 23.6202 126 22.9402 126C22.5883 125.227 22.2364 124.453 21.8738 123.656C18.7672 117.102 15.6073 110.723 9.94024 106C9.26735 105.898 8.59446 105.796 7.90118 105.691C5.94024 105 5.94024 105 4.45586 102.352C-2.65437 81.4159 -0.813981 59.7074 8.75274 40C9.46915 38.6598 10.1928 37.3232 10.9402 36Z" fill="#1F0D0A"/>
<path d="M85.9402 99C88.6069 104.333 91.2735 109.667 93.9402 115C95.0539 113.824 95.0539 113.824 96.1902 112.625C100.24 108.759 100.24 108.759 102.94 108C106.775 109.199 109.243 110.885 112.147 113.625C112.898 114.331 113.649 115.038 114.423 115.766C115.192 116.503 115.96 117.24 116.753 118C117.541 118.737 118.329 119.475 119.141 120.234C123.433 124.307 123.433 124.307 124.94 126C124.94 126.66 124.94 127.32 124.94 128C124.169 128.398 123.398 128.797 122.604 129.207C121.601 129.737 120.598 130.267 119.565 130.812C118.567 131.335 117.57 131.857 116.542 132.395C113.711 133.892 113.711 133.892 111.94 137C112.904 136.411 113.869 135.822 114.862 135.215C116.138 134.455 117.414 133.696 118.69 132.938C119.324 132.548 119.959 132.158 120.612 131.756C125.445 128.911 125.445 128.911 128.156 129.397C128.745 129.596 129.334 129.795 129.94 130C128.432 134.157 125.481 136.077 121.94 138.438C121.364 138.829 120.789 139.221 120.195 139.625C115.329 142.875 110.28 145.601 104.94 148C104.61 147.34 104.28 146.68 103.94 146C94.7928 146.205 87.3603 148.669 78.9402 152C78.9402 151.01 78.9402 150.02 78.9402 149C80.867 148.142 82.8075 147.315 84.7527 146.5C85.8316 146.036 86.9106 145.572 88.0222 145.094C92.8643 143.405 97.882 143.794 102.94 144C102.637 143.344 102.334 142.688 102.022 142.012C100.658 139.052 99.2988 136.088 97.9402 133.125C97.4632 132.092 96.9863 131.06 96.4949 129.996C96.0437 129.01 95.5925 128.024 95.1277 127.008C94.7087 126.097 94.2898 125.185 93.8582 124.247C92.9402 122 92.9402 122 92.9402 120C91.2099 120.285 89.481 120.578 87.7527 120.875C86.3083 121.119 86.3083 121.119 84.8347 121.367C81.5219 122.008 81.5219 122.008 76.9402 124C76.9402 132.58 76.9402 141.16 76.9402 150C76.6102 150 76.2802 150 75.9402 150C75.4452 137.13 75.4452 137.13 74.9402 124C67.4279 120.649 67.4279 120.649 60.9402 121C59.2902 124.63 57.6402 128.26 55.9402 132C54.9502 131.67 53.9602 131.34 52.9402 131C54.9202 126.38 56.9002 121.76 58.9402 117C59.6002 117 60.2602 117 60.9402 117C61.0639 116.113 61.1877 115.226 61.3152 114.312C61.8843 111.296 62.7063 108.797 63.9402 106C64.6002 106 65.2602 106 65.9402 106C65.2752 110.389 63.7526 113.981 61.9402 118C62.5319 118.049 63.1235 118.098 63.7332 118.148C64.5233 118.223 65.3135 118.298 66.1277 118.375C66.905 118.445 67.6823 118.514 68.4832 118.586C70.9402 119 70.9402 119 75.9402 121C75.9402 115.06 75.9402 109.12 75.9402 103C76.2702 103 76.6002 103 76.9402 103C76.9402 108.94 76.9402 114.88 76.9402 121C79.2502 120.01 81.5602 119.02 83.9402 118C87.8777 117.812 87.8777 117.812 90.9402 118C90.0116 115.725 89.0729 113.455 88.1277 111.188C87.8667 110.545 87.6056 109.902 87.3367 109.24C85.9541 105.946 84.7542 103.273 81.9402 101C83.2602 101 84.5802 101 85.9402 101C85.9402 100.34 85.9402 99.68 85.9402 99Z" fill="#220D0B"/>
<path d="M110.94 12C111.6 12 112.26 12 112.94 12C114.167 13.4688 114.167 13.4688 115.565 15.5C121.53 23.6549 128.054 29.1929 136.94 34C135.536 37.3541 134.012 38.9767 131.053 41.0586C130.279 41.6097 129.505 42.1607 128.708 42.7285C127.898 43.2925 127.087 43.8564 126.253 44.4375C125.462 44.9976 124.671 45.5577 123.856 46.1348C122.294 47.2404 120.726 48.3387 119.154 49.4292C117.734 50.4367 116.337 51.4778 114.973 52.5591C110.592 55.9952 110.592 55.9952 107.268 56.0195C104.652 54.8736 102.823 53.5879 100.69 51.6875C100.004 51.0932 99.3186 50.499 98.6121 49.8867C96.7238 47.7558 96.2691 46.8044 95.9402 44C96.7729 41.4697 96.7729 41.4697 98.1082 38.6406C98.8304 37.0899 98.8304 37.0899 99.5671 35.5078C100.082 34.4327 100.597 33.3577 101.128 32.25C101.623 31.1904 102.119 30.1308 102.63 29.0391C105.317 23.3168 108.086 17.6406 110.94 12Z" fill="#DC4B4B"/>
<path d="M77.9402 3C82.5602 4.65 87.1802 6.3 91.9402 8C95.3308 8.59173 98.424 9.06775 101.815 9.3125C102.611 9.38533 103.406 9.45816 104.225 9.5332C106.129 9.70521 108.034 9.85523 109.94 10C107.535 16.1594 104.709 22.1229 101.94 28.125C101.12 29.9136 101.12 29.9136 100.284 31.7383C99.758 32.8791 99.2321 34.0199 98.6902 35.1953C97.9709 36.7579 97.9709 36.7579 97.2371 38.3521C95.9402 41 95.9402 41 93.9402 44C92.0222 44.4336 92.0222 44.4336 89.7527 44.4375C88.6486 44.4665 88.6486 44.4665 87.5222 44.4961C84.9402 44 84.9402 44 77.9402 40C77.9402 27.79 77.9402 15.58 77.9402 3Z" fill="#DD4C4C"/>
<path d="M74.9402 3C75.039 8.21438 75.1116 13.4282 75.1599 18.6433C75.18 20.4175 75.2073 22.1916 75.2419 23.9656C75.2904 26.515 75.3131 29.0635 75.3308 31.6133C75.3515 32.4071 75.3721 33.201 75.3934 34.0189C75.3956 39.5288 75.3956 39.5288 73.0251 41.9812C69.4906 43.7084 66.7063 44.0393 62.7996 44.0195C61.526 44.0131 60.2524 44.0066 58.9402 44C56.9573 39.9651 54.982 35.9266 53.0137 31.8845C52.3436 30.5111 51.6714 29.1387 50.9971 27.7673C50.026 25.7915 49.0625 23.8122 48.1003 21.832C47.7993 21.2235 47.4982 20.615 47.188 19.988C45.5899 16.6789 44.4715 13.6414 43.9402 10C44.956 9.90203 45.9717 9.80406 47.0183 9.70312C56.0506 8.75102 66.6296 3 74.9402 3Z" fill="#DB4D4B"/>
<path d="M74.9401 3C75.9301 3 76.9201 3 77.9401 3C77.9895 8.23273 78.0258 13.4653 78.05 18.6982C78.0601 20.4792 78.0737 22.2601 78.091 24.041C78.1152 26.5977 78.1266 29.1542 78.1354 31.7109C78.1458 32.5099 78.1561 33.309 78.1667 34.1322C78.1671 36.0896 78.0625 38.0464 77.9401 40C77.2801 40.66 76.6201 41.32 75.9401 42C75.6959 43.9868 75.6959 43.9868 75.8151 46.2461C75.8306 47.0833 75.8461 47.9206 75.862 48.7832C75.914 50.5488 75.9661 52.3145 76.0183 54.0801C76.0337 54.9186 76.0492 55.7571 76.0651 56.6211C76.0883 57.3886 76.1115 58.1562 76.1354 58.947C75.9401 61 75.9401 61 73.9401 64C74.6001 64 75.2601 64 75.9401 64C75.9401 67.96 75.9401 71.92 75.9401 76C74.9501 76 73.9601 76 72.9401 76C72.9401 76.66 72.9401 77.32 72.9401 78C68.5125 76.6085 65.9845 74.4793 62.9401 71C62.9401 70.34 62.9401 69.68 62.9401 69C62.3626 68.7319 61.7851 68.4638 61.1901 68.1875C58.1679 66.5925 55.6263 64.5361 52.9401 62.4375C51.0073 61.0483 49.0953 60.0006 46.9401 59C46.9401 58.34 46.9401 57.68 46.9401 57C48.2601 56.34 49.5801 55.68 50.9401 55C50.9401 54.01 50.9401 53.02 50.9401 52C51.7858 51.2369 52.6314 50.4737 53.5026 49.6875C54.307 48.8006 55.1114 47.9137 55.9401 47C55.6711 42.3238 54.0493 38.7751 51.9284 34.6484C51.3297 33.4559 50.7314 32.2632 50.1335 31.0703C49.1912 29.2129 48.2441 27.3584 47.2885 25.5078C46.363 23.7076 45.4579 21.8969 44.5534 20.0859C44.0047 19.0139 43.4559 17.9419 42.8906 16.8374C41.9401 14 41.9401 14 42.7768 11.6196C43.1607 11.0852 43.5446 10.5507 43.9401 10C46.0813 14.5184 48.2174 19.0391 50.3488 23.562C51.075 25.1011 51.8025 26.6395 52.5314 28.1772C53.5775 30.3847 54.6187 32.5944 55.6589 34.8047C56.151 35.8391 56.151 35.8391 56.6531 36.8945C58.9401 41.7723 58.9401 41.7723 58.9401 44C60.879 43.7174 62.8162 43.4236 64.7526 43.125C65.8316 42.9626 66.9105 42.8002 68.0222 42.6328C71.1134 42.1487 71.1134 42.1487 73.9401 40C74.2778 37.1698 74.4292 34.5476 74.4519 31.7109C74.4698 30.8925 74.4878 30.0741 74.5062 29.2309C74.5605 26.6123 74.5943 23.9939 74.6276 21.375C74.6608 19.6015 74.6953 17.8281 74.7311 16.0547C74.8162 11.7033 74.883 7.35188 74.9401 3Z" fill="#190C09"/>
<path d="M122.94 64C123.349 73.7942 123.369 82.0256 117.065 89.9375C113.322 93.8915 110.066 95.0621 104.69 95.5C99.0548 95.3869 95.0879 92.6314 90.9402 89C89.9007 87.6972 88.8879 86.371 87.9402 85C94.3352 74.7803 101.625 67.5616 113.44 64.3125C116.621 63.9149 119.738 63.9372 122.94 64Z" fill="#F7F8F7"/>
<path d="M29.9402 64C40.3758 63.4308 49.0221 66.8291 56.8894 73.7031C60.0777 76.7778 63.2553 79.8439 64.9402 84C63.7658 88.8442 59.154 91.2276 55.1902 93.75C50.3673 95.6049 45.887 96.1646 40.9831 94.2266C35.0256 90.5664 32.0094 84.164 30.3113 77.5508C29.9004 74.7269 29.8433 72.04 29.8777 69.1875C29.8867 68.2117 29.8957 67.2359 29.905 66.2305C29.9166 65.4944 29.9282 64.7584 29.9402 64Z" fill="#F7F7F7"/>
<path d="M123.667 96.2148C127.33 97.0936 130.78 98.2617 134.315 99.5625C134.956 99.7965 135.597 100.03 136.257 100.271C137.82 100.843 139.38 101.421 140.94 102C140.94 105.674 140.142 106.26 137.815 109C133.79 113.977 130.842 119.313 127.94 125C123.615 122.363 120.249 119.453 116.753 115.793C114.937 113.996 113.027 112.492 111.003 110.938C108.256 108.663 107.989 108.378 107.503 104.625C107.647 103.759 107.791 102.892 107.94 102C108.971 101.602 108.971 101.602 110.022 101.195C110.923 100.842 111.824 100.489 112.753 100.125C113.646 99.777 114.539 99.4289 115.46 99.0703C122.323 96.1089 122.323 96.1089 123.667 96.2148Z" fill="#D94C49"/>
<path d="M38.9402 100C40.9256 100.709 42.9209 101.394 44.9402 102C45.3825 104.957 45.5494 107.117 43.802 109.649C42.181 111.387 40.4984 113.013 38.7527 114.625C38.1745 115.184 37.5964 115.744 37.0007 116.32C27.9423 125 27.9423 125 24.9402 125C24.5999 124.238 24.2596 123.476 23.9089 122.691C20.4844 115.396 16.6222 109.711 10.9402 104C13.9594 100.981 17.5925 100.042 21.5652 98.625C22.3476 98.3143 23.1301 98.0037 23.9363 97.6836C30.3314 95.4246 33.3298 96.5318 38.9402 100Z" fill="#DB4A48"/>
<path d="M48.6082 109.023C52.1064 110.488 54.3183 112.259 56.9402 115C59.0278 121.727 56.55 126.036 53.5027 131.937C53.0689 132.812 52.6351 133.687 52.1882 134.588C51.1212 136.734 50.0385 138.87 48.9402 141C45.9402 141 45.9402 141 44.5027 139.68C43.9871 139.084 43.4714 138.489 42.9402 137.875C38.6327 133.327 33.5074 130.748 27.9402 128C31.7685 123.321 35.8274 118.87 40.0027 114.5C40.7621 113.671 40.7621 113.671 41.5369 112.825C45.2614 108.994 45.2614 108.994 48.6082 109.023Z" fill="#D84C4C"/>
<path d="M105.871 109.155C108.457 110.211 110.018 111.61 112.05 113.527C112.804 114.237 113.558 114.947 114.335 115.678C115.501 116.796 115.501 116.796 116.69 117.938C117.879 119.05 117.879 119.05 119.093 120.186C123.415 124.289 123.415 124.289 124.94 126C124.94 126.66 124.94 127.32 124.94 128C124.239 128.34 123.538 128.681 122.815 129.031C116.038 132.494 110.984 136.306 105.94 142C102.247 138.64 100.691 134.62 98.6902 130.125C98.3138 129.322 97.9374 128.519 97.5495 127.691C94.908 121.797 94.908 121.797 95.0574 118.098C96.7094 114.172 101.297 108.788 105.871 109.155Z" fill="#DB4B4C"/>
<path d="M89.1277 119.938C91.0149 119.968 91.0149 119.968 92.9402 120C94.6129 123.622 96.2773 127.248 97.9402 130.875C98.4171 131.908 98.8941 132.94 99.3855 134.004C99.8367 134.99 100.288 135.976 100.753 136.992C101.381 138.359 101.381 138.359 102.022 139.753C102.94 142 102.94 142 102.94 144C102.309 144.014 101.677 144.028 101.026 144.043C92.6193 144.491 85.7062 146.928 77.9402 150C77.8243 145.729 77.753 141.459 77.6902 137.188C77.6567 135.973 77.6232 134.758 77.5886 133.506C77.5757 132.342 77.5628 131.179 77.5496 129.98C77.5286 128.907 77.5077 127.833 77.4861 126.727C77.9402 124 77.9402 124 79.7771 122.189C82.9955 120.42 85.515 119.878 89.1277 119.938Z" fill="#D32F2E"/>
<path d="M60.9402 120C63.0847 120.051 63.0847 120.051 65.7527 120.312C67.0617 120.43 67.0617 120.43 68.3972 120.551C70.9402 121 70.9402 121 74.9402 123C74.9402 131.58 74.9402 140.16 74.9402 149C69.9402 148 69.9402 148 67.616 147.008C64.1828 145.715 60.7471 145.298 57.1277 144.875C56.4348 144.789 55.7419 144.702 55.0281 144.613C53.3328 144.403 51.6366 144.201 49.9402 144C51.5168 138.825 53.6816 134.058 56.0027 129.188C56.3668 128.412 56.731 127.637 57.1062 126.838C59.8057 121.134 59.8057 121.134 60.9402 120Z" fill="#D42F2E"/>
<path d="M147.94 71C147.735 71.6639 147.53 72.3277 147.319 73.0117C147.05 73.8947 146.78 74.7777 146.503 75.6875C146.236 76.5576 145.969 77.4277 145.694 78.3242C144.284 83.3302 143.717 88.1201 143.378 93.3125C143.294 94.5668 143.21 95.821 143.124 97.1133C143.033 98.5422 143.033 98.5422 142.94 100C136.029 99.5288 130.218 96.7936 123.94 94C124.216 93.3464 124.492 92.6929 124.776 92.0195C126.214 88.2904 127.391 84.5063 128.565 80.6875C128.795 79.9469 129.024 79.2064 129.26 78.4434C129.822 76.6295 130.381 74.8148 130.94 73C132.835 72.6615 134.731 72.3294 136.628 72C138.211 71.7216 138.211 71.7216 139.827 71.4375C142.589 71.0493 145.158 70.9174 147.94 71Z" fill="#D5302F"/>
<path d="M5.94019 71C11.2202 71.66 16.5002 72.32 21.9402 73C22.6002 75.31 23.2602 77.62 23.9402 80C24.7602 82.1177 25.6133 84.223 26.5027 86.3125C26.9371 87.3399 27.3715 88.3673 27.8191 89.4258C28.4902 90.9667 29.1886 92.4967 29.9402 94C27.3382 95.0061 24.7339 96.005 22.1277 97C21.0207 97.4293 21.0207 97.4293 19.8914 97.8672C19.1792 98.1379 18.4669 98.4086 17.7332 98.6875C17.0786 98.9389 16.424 99.1902 15.7495 99.4492C13.9402 100 13.9402 100 10.9402 100C10.9015 98.5846 10.9015 98.5846 10.8621 97.1406C10.5156 89.2986 9.59385 82.7131 6.78003 75.293C5.94019 73 5.94019 73 5.94019 71Z" fill="#D2322F"/>
<path d="M138.94 38C139.087 39.2162 139.087 39.2162 139.237 40.457C140.395 49.0305 142.036 57.208 146.569 64.6875C147.94 67 147.94 67 147.94 69C142.33 69.66 136.72 70.32 130.94 71C130.837 69.0406 130.734 67.0812 130.628 65.0625C130.193 59.2182 129.062 54.4437 126.94 49C126.074 49.8044 125.208 50.6087 124.315 51.4375C121.311 53.9692 118.908 54.7166 114.94 55C118.265 51.4174 121.954 48.7183 125.94 45.9375C127.17 45.072 128.399 44.2061 129.628 43.3398C130.203 42.9375 130.778 42.5351 131.37 42.1206C132.69 41.1788 133.976 40.1902 135.253 39.1914C136.94 38 136.94 38 138.94 38Z" fill="#D13132"/>
<path d="M110.94 12C111.6 12 112.26 12 112.94 12C114.167 13.4688 114.167 13.4688 115.565 15.5C121.53 23.6549 128.054 29.1929 136.94 34C135.514 37.452 133.843 39.1014 130.815 41.25C130.091 41.7708 129.366 42.2916 128.62 42.8281C128.066 43.2148 127.511 43.6016 126.94 44C123.709 42.618 122.025 41.132 119.878 38.375C115.608 33.2851 110.403 29.7146 104.94 26C105.563 24.4158 106.189 22.8327 106.815 21.25C107.337 19.9274 107.337 19.9274 107.87 18.5781C108.805 16.326 109.818 14.1635 110.94 12Z" fill="#CF2C2D"/>
<path d="M14.9402 38C19.4559 40.1458 23.3703 42.9936 27.4402 45.875C28.5791 46.6697 28.5791 46.6697 29.741 47.4805C33.4389 50.0904 36.8802 52.6308 39.9402 56C34.4872 54.4318 30.1753 52.9619 25.9402 49C23.3471 56.3715 22.3937 63.2004 21.9402 71C16.6602 70.34 11.3802 69.68 5.94019 69C8.16608 62.3223 8.16608 62.3223 9.41284 59.2305C12.2199 52.1214 14.6641 45.7316 14.9402 38Z" fill="#D23431"/>
<path d="M77.9402 3C79.8789 3.78375 81.8177 4.5675 83.8152 5.375C92.2999 8.59294 100.952 9.31725 109.94 10C108.509 13.6594 106.951 17.2399 105.315 20.8125C104.869 21.7883 104.423 22.7641 103.964 23.7695C103.626 24.5056 103.288 25.2416 102.94 26C102.61 25.34 102.28 24.68 101.94 24C99.415 23.2118 96.9469 22.5435 94.3777 21.9375C93.3403 21.6774 93.3403 21.6774 92.282 21.4121C87.5181 20.2533 82.8135 19.5317 77.9402 19C77.9402 13.72 77.9402 8.44 77.9402 3Z" fill="#D12E2F"/>
<path d="M40.9402 12C43.4265 15.0623 45.0401 18.1457 46.6277 21.75C47.0647 22.7348 47.5017 23.7197 47.9519 24.7344C48.4411 25.8559 48.4411 25.8559 48.9402 27C47.9502 27.3506 46.9602 27.7012 45.9402 28.0625C38.0482 31.4813 32.9516 37.575 28.9402 45C27.4998 44.0669 26.063 43.1283 24.6277 42.1875C23.8272 41.6654 23.0267 41.1434 22.2019 40.6055C20.2002 39.1846 18.5239 37.8708 16.9402 36C16.9402 35.34 16.9402 34.68 16.9402 34C18.8939 32.5989 20.8542 31.2929 22.8777 30C30.2148 25.1394 36.0382 19.353 40.9402 12Z" fill="#D02E2E"/>
<path d="M74.9402 3C74.9402 8.28 74.9402 13.56 74.9402 19C73.3727 19.0825 71.8052 19.165 70.1902 19.25C63.1394 19.8719 56.2852 21.8275 49.9402 25C48.9356 22.8772 47.9366 20.7517 46.9402 18.625C46.1049 16.85 46.1049 16.85 45.2527 15.0391C43.9402 12 43.9402 12 43.9402 10C44.956 9.90203 45.9717 9.80406 47.0183 9.70312C56.0506 8.75102 66.6296 3 74.9402 3Z" fill="#D12E2E"/>
<path d="M112.94 9C123.476 13.874 133.258 22.5339 139.94 32C139.94 32.66 139.94 33.32 139.94 34C139.28 34 138.62 34 137.94 34C137.61 34.66 137.28 35.32 136.94 36C136.94 35.34 136.94 34.68 136.94 34C136.28 33.7938 135.62 33.5875 134.94 33.375C126.943 29.7099 117.342 22.3044 113.682 14.2227C113.315 13.1224 113.315 13.1224 112.94 12C112.28 12 111.62 12 110.94 12C110.777 12.802 110.777 12.802 110.61 13.6201C109.77 16.6046 108.527 19.267 107.218 22.0781C106.679 23.2383 106.141 24.3984 105.587 25.5938C105.017 26.8125 104.447 28.0313 103.878 29.25C103.304 30.4842 102.73 31.7186 102.157 32.9531C100.755 35.9702 99.3488 38.9858 97.9402 42C97.2802 41.01 96.6202 40.02 95.9402 39C96.46 36.9504 96.46 36.9504 97.5378 34.6133C98.1228 33.3284 98.1228 33.3284 98.7195 32.0176C99.3547 30.6786 99.3547 30.6786 100.003 29.3125C100.399 28.4392 100.795 27.5658 101.204 26.666C106.77 14.6259 106.77 14.6259 109.94 11C110.93 11 111.92 11 112.94 11C112.94 10.34 112.94 9.68 112.94 9Z" fill="#180A07"/>
<path d="M22.9402 99C24.3232 101.018 25.583 103.018 26.8152 105.125C27.4989 106.274 28.1838 107.423 28.8699 108.57C29.2073 109.137 29.5447 109.703 29.8923 110.286C31.4974 112.911 33.2139 115.453 34.9402 118C33.6539 119.173 32.361 120.338 31.0652 121.5C30.3459 122.15 29.6266 122.799 28.8855 123.469C26.9402 125 26.9402 125 24.9402 125C24.5999 124.238 24.2596 123.476 23.9089 122.691C20.4844 115.396 16.6222 109.711 10.9402 104C13.0071 101.933 14.2465 101.355 16.9402 100.375C17.6414 100.115 18.3427 99.8542 19.0652 99.5859C20.9402 99 20.9402 99 22.9402 99Z" fill="#D02F30"/>
<path d="M74.9402 124C75.9302 124 76.9202 124 77.9402 124C78.2702 132.58 78.6002 141.16 78.9402 150C82.2244 150 83.934 149.258 86.9402 148C92.7351 145.803 97.8067 145.573 103.94 146C103.94 146.66 103.94 147.32 103.94 148C98.0488 150.466 92.7832 151.624 86.4402 152.188C85.6178 152.269 84.7953 152.351 83.948 152.436C81.9463 152.633 79.9434 152.818 77.9402 153C77.9402 152.34 77.9402 151.68 77.9402 151C76.9502 151.66 75.9602 152.32 74.9402 153C65.7443 153.367 57.4349 151.345 48.9402 148C48.9402 147.34 48.9402 146.68 48.9402 146C50.4213 146.017 50.4213 146.017 51.9324 146.035C53.2137 146.044 54.495 146.053 55.8152 146.062C57.7294 146.08 57.7294 146.08 59.6824 146.098C62.8268 146.232 62.8268 146.232 64.9402 145C69.8902 146.98 69.8902 146.98 74.9402 149C74.9402 140.75 74.9402 132.5 74.9402 124Z" fill="#401211"/>
<path d="M129.94 99C135.385 100.485 135.385 100.485 140.94 102C140.94 105.674 140.142 106.26 137.815 109C133.79 113.977 130.842 119.313 127.94 125C124.168 122.653 121.481 120.632 118.94 117C119.567 116.12 120.193 115.239 120.839 114.332C121.664 113.159 122.49 111.986 123.315 110.812C123.728 110.234 124.14 109.656 124.565 109.061C126.913 105.709 128.397 102.858 129.94 99Z" fill="#D42E2E"/>
<path d="M35.9402 119C37.7346 120.361 37.7346 120.361 39.5652 121.75C44.1938 125.217 48.7559 128.408 53.9402 131C51.9602 134.63 49.9802 138.26 47.9402 142C46.4861 140.701 46.4861 140.701 45.0027 139.375C41.5383 136.396 37.8899 133.868 34.0535 131.395C31.9588 130.012 29.9479 128.506 27.9402 127C30.5802 124.36 33.2202 121.72 35.9402 119Z" fill="#D22F2F"/>
<path d="M116.94 119C118.092 119.93 119.237 120.869 120.378 121.812C121.016 122.335 121.654 122.857 122.311 123.395C123.94 125 123.94 125 124.94 128C124.239 128.34 123.538 128.681 122.815 129.031C116.038 132.494 110.984 136.306 105.94 142C103.261 139.681 102.278 137.682 101.253 134.312C101.001 133.504 100.75 132.696 100.491 131.863C100.309 131.248 100.127 130.634 99.9402 130C101.075 129.484 102.209 128.969 103.378 128.438C108.411 125.944 112.622 122.559 116.94 119Z" fill="#D32E2E"/>
<path d="M89.1277 119.938C91.0149 119.968 91.0149 119.968 92.9402 120C93.6169 121.245 94.2811 122.496 94.9402 123.75C95.4971 124.794 95.4971 124.794 96.0652 125.859C96.9402 128 96.9402 128 96.9402 132C90.9872 135.434 84.6034 135.133 77.9402 135C77.832 133.231 77.7545 131.459 77.6902 129.688C77.6438 128.701 77.5974 127.715 77.5496 126.699C77.9402 124 77.9402 124 79.7683 122.207C82.9875 120.418 85.506 119.878 89.1277 119.938Z" fill="#D94D4B"/>
<path d="M60.9402 120C62.5243 120.115 64.1075 120.242 65.6902 120.375C66.5719 120.445 67.4536 120.514 68.3621 120.586C70.9402 121 70.9402 121 74.9402 123C74.9402 127.29 74.9402 131.58 74.9402 136C72.71 135.716 70.4811 135.423 68.2527 135.125C67.0113 134.963 65.77 134.8 64.491 134.633C61.3622 134.075 58.8187 133.31 55.9402 132C56.5165 127.245 58.4909 124.03 60.9402 120Z" fill="#DB4949"/>
<path d="M74.9402 43C74.9402 49.27 74.9402 55.54 74.9402 62C72.6302 62.33 70.3202 62.66 67.9402 63C66.7689 60.5438 65.603 58.0853 64.4402 55.625C64.1063 54.9263 63.7725 54.2277 63.4285 53.5078C60.9402 48.2266 60.9402 48.2266 60.9402 46C61.6389 45.8672 62.3375 45.7345 63.0574 45.5977C64.4225 45.3328 64.4225 45.3328 65.8152 45.0625C66.7201 44.8885 67.625 44.7145 68.5574 44.5352C70.9074 44.0074 72.5421 43 74.9402 43Z" fill="#D43031"/>
<path d="M77.9402 43C79.9202 43.66 81.9002 44.32 83.9402 45C86.6072 45.4727 89.242 45.7209 91.9402 46C91.3197 50.2332 89.8349 53.5229 87.8777 57.3125C87.3298 58.3811 86.782 59.4498 86.2175 60.5508C85.796 61.359 85.3745 62.1673 84.9402 63C82.6302 62.67 80.3202 62.34 77.9402 62C77.9402 55.73 77.9402 49.46 77.9402 43Z" fill="#D32E30"/>
<path d="M57.9402 48C60.7537 50.4577 62.1333 53.0628 63.6902 56.4375C64.1388 57.385 64.5874 58.3324 65.0496 59.3086C65.9929 62.1594 66.1123 63.279 64.9402 66C64.2802 66.66 63.6202 67.32 62.9402 68C59.5726 67.6562 57.537 66.1369 54.9402 64.0625C52.3662 62.0163 49.9293 60.3812 46.9402 59C46.9402 58.34 46.9402 57.68 46.9402 57C48.0127 56.4431 49.0852 55.8863 50.1902 55.3125C53.5894 53.3888 55.6941 51.2343 57.9402 48Z" fill="#CF3131"/>
<path d="M60.9402 50C63.2973 52.1545 64.7298 54.1972 66.1277 57.0625C66.4719 57.7547 66.816 58.447 67.1707 59.1602C67.9402 61 67.9402 61 67.9402 63C69.9202 62.67 71.9002 62.34 73.9402 62C73.9402 62.66 73.9402 63.32 73.9402 64C74.6002 64 75.2602 64 75.9402 64C75.9402 67.96 75.9402 71.92 75.9402 76C74.9502 76 73.9602 76 72.9402 76C72.9402 76.66 72.9402 77.32 72.9402 78C68.5126 76.6085 65.9846 74.4793 62.9402 71C62.9402 70.34 62.9402 69.68 62.9402 69C62.2802 68.67 61.6202 68.34 60.9402 68C62.2602 67.01 63.5802 66.02 64.9402 65C64.4586 61.8216 63.6622 59.3551 62.3777 56.375C60.9402 53 60.9402 53 60.9402 50Z" fill="#1A0A08"/>
<path d="M93.9402 48C94.3875 48.3983 94.8348 48.7966 95.2957 49.207C98.0787 51.6459 100.688 53.85 103.878 55.75C104.558 56.1625 105.239 56.575 105.94 57C105.94 57.66 105.94 58.32 105.94 59C103.675 60.6562 103.675 60.6562 100.69 62.5C99.7157 63.1084 98.7411 63.7169 97.7371 64.3438C95.5023 65.6671 93.283 66.8844 90.9402 68C89.6202 67.01 88.3002 66.02 86.9402 65C88.7733 59.0007 91.0134 53.5508 93.9402 48Z" fill="#D02F2E"/>
<path d="M62.8152 97.0625C64.2051 97.6757 65.5814 98.3206 66.9402 99C65.0726 104.722 63.0873 110.377 60.9402 116C57.2081 114.756 55.6331 112.828 52.9402 110C52.3421 109.402 51.7439 108.804 51.1277 108.187C50.7358 107.796 50.3439 107.404 49.9402 107C52.148 101.803 56.9305 96.9346 62.8152 97.0625Z" fill="#D84B48"/>
<path d="M77.9402 102C83.9402 102 83.9402 102 85.5652 103.438C90.9402 113.455 90.9402 113.455 90.9402 118C90.0353 118.199 90.0353 118.199 89.1121 118.402C88.3128 118.579 87.5136 118.756 86.6902 118.938C85.9013 119.112 85.1124 119.286 84.2996 119.465C82.1729 119.947 80.0558 120.471 77.9402 121C77.9402 114.73 77.9402 108.46 77.9402 102Z" fill="#DB4D4D"/>
<path d="M68.9402 101C71.9102 101.495 71.9102 101.495 74.9402 102C74.9402 108.27 74.9402 114.54 74.9402 121C70.6502 120.01 66.3602 119.02 61.9402 118C63.8202 111.984 66.0008 106.575 68.9402 101Z" fill="#DA4D4F"/>
<path d="M0.9402 70C6.81824 75.4539 8.70521 82.258 9.03004 90.1953C9.09048 94.2646 8.96397 98.0329 7.9402 102C6.9502 102 5.9602 102 4.9402 102C0.591197 91.1857 0.503536 81.4867 0.9402 70Z" fill="#CE2E2E"/>
<path d="M88.9402 97C93.0756 97.4143 95.5172 98.8317 98.7527 101.375C99.5429 101.981 100.333 102.587 101.147 103.211C101.739 103.801 102.331 104.392 102.94 105C102.94 105.99 102.94 106.98 102.94 108C101.514 109.281 101.514 109.281 99.6277 110.5C97.1109 112.146 95.0087 113.811 92.9402 116C91.9026 113.946 90.8857 111.881 89.8777 109.812C89.3092 108.664 88.7407 107.515 88.155 106.332C86.8952 102.877 86.7466 101.418 87.9402 98C88.2702 97.67 88.6002 97.34 88.9402 97Z" fill="#D84848"/>
<path d="M150.94 70C151.6 70 152.26 70 152.94 70C153.338 81.0801 152.357 91.1808 149.94 102C148.62 102 147.3 102 145.94 102C145.493 90.9253 145.563 81.3903 149.94 71C150.27 70.67 150.6 70.34 150.94 70Z" fill="#D33130"/>
<path d="M140.94 36C148.847 43.2649 150.887 54.8953 152.94 65C152.94 65.99 152.94 66.98 152.94 68C151.95 68 150.96 68 149.94 68C144.157 56.9389 140.304 48.6095 140.94 36Z" fill="#CE2E2E"/>
<path d="M10.9402 36C11.6002 36 12.2602 36 12.9402 36C12.5433 47.191 10.5303 59.2223 2.94019 68C2.28019 68 1.62019 68 0.940186 68C1.23094 56.5286 5.54249 45.9957 10.9402 36Z" fill="#C8302E"/>
<path d="M75.9402 103C76.2702 103 76.6002 103 76.9402 103C76.9402 108.94 76.9402 114.88 76.9402 121C78.2602 121.33 79.5802 121.66 80.9402 122C78.9602 122.99 78.9602 122.99 76.9402 124C76.9402 132.58 76.9402 141.16 76.9402 150C76.6102 150 76.2802 150 75.9402 150C75.4452 137.13 75.4452 137.13 74.9402 124C67.4279 120.649 67.4279 120.649 60.9402 121C59.2902 124.63 57.6402 128.26 55.9402 132C54.9502 131.67 53.9602 131.34 52.9402 131C54.9202 126.38 56.9002 121.76 58.9402 117C59.6002 117 60.2602 117 60.9402 117C61.0639 116.113 61.1877 115.226 61.3152 114.312C61.8843 111.296 62.7063 108.797 63.9402 106C64.6002 106 65.2602 106 65.9402 106C65.2752 110.389 63.7526 113.981 61.9402 118C62.5319 118.049 63.1235 118.098 63.7332 118.148C64.5233 118.223 65.3135 118.298 66.1277 118.375C67.2936 118.479 67.2936 118.479 68.4832 118.586C70.9402 119 70.9402 119 75.9402 121C75.9402 115.06 75.9402 109.12 75.9402 103Z" fill="#120C07"/>
<path d="M95.9402 40C96.0639 40.5569 96.1877 41.1137 96.3152 41.6875C97.9616 47.7794 99.9321 50.2439 104.94 54C105.6 54.33 106.26 54.66 106.94 55C106.61 56.32 106.28 57.64 105.94 59C105.94 58.34 105.94 57.68 105.94 57C105.218 56.7731 104.496 56.5463 103.753 56.3125C100.416 54.7553 98.4907 52.6195 95.9402 50C95.2802 50 94.6202 50 93.9402 50C91.9602 54.29 89.9802 58.58 87.9402 63C86.9502 63 85.9602 63 84.9402 63C86.7001 57.0803 89.3371 51.5837 91.9402 46C90.1458 46.0928 90.1458 46.0928 88.3152 46.1875C83.7315 46.4246 82.6611 45.3605 77.9402 43C77.9402 48.94 77.9402 54.88 77.9402 61C77.6102 61 77.2802 61 76.9402 61C76.9402 54.73 76.9402 48.46 76.9402 42C81.3572 40.8958 81.321 41.0523 84.9402 43C87.2958 43.4481 87.2958 43.4481 89.6902 43.625C90.4894 43.6998 91.2886 43.7745 92.1121 43.8516C92.7153 43.9005 93.3186 43.9495 93.9402 44C94.6002 42.68 95.2602 41.36 95.9402 40Z" fill="#1A0B08"/>
<path d="M143.94 105C146.089 105.383 146.089 105.383 147.94 106C144.345 113.926 140.458 122.036 133.94 128C132.62 128 131.3 128 129.94 128C132.32 119.169 136.644 110.76 143.94 105Z" fill="#CD2E2E"/>
<path d="M8.94019 86C9.27019 86 9.60019 86 9.94019 86C9.94019 90.95 9.94019 95.9 9.94019 101C11.837 100.225 11.837 100.225 13.7722 99.4336C15.4322 98.7677 17.0923 98.1024 18.7527 97.4375C19.5861 97.0953 20.4194 96.753 21.2781 96.4004C22.0805 96.0813 22.883 95.7623 23.7097 95.4336C24.4481 95.1351 25.1865 94.8366 25.9473 94.5291C27.9402 94 27.9402 94 30.9402 95C30.9402 95.66 30.9402 96.32 30.9402 97C22.0302 99.97 22.0302 99.97 12.9402 103C12.9402 105.823 14.2061 106.534 16.1277 108.562C20.7382 113.707 24.9402 118.913 24.9402 126C24.2802 126 23.6202 126 22.9402 126C22.5883 125.227 22.2364 124.453 21.8738 123.656C18.7671 117.102 15.6072 110.723 9.94019 106C9.2312 105.829 8.52222 105.657 7.79175 105.48C6.87522 105.243 6.87522 105.243 5.94019 105C5.61019 104.01 5.28019 103.02 4.94019 102C5.93019 102 6.92019 102 7.94019 102C8.27019 96.72 8.60019 91.44 8.94019 86Z" fill="#170806"/>
<path d="M5.94019 105C11.219 105.651 12.9654 107.699 16.2253 111.68C20.2257 117.093 23.8386 121.992 22.9402 129C14.5667 125.55 10.1126 116.033 6.75269 108.152C5.94019 106 5.94019 106 5.94019 105Z" fill="#CD2D2F"/>
<path d="M129.94 130C128.429 134.254 125.299 136.169 121.69 138.562C121.129 138.949 120.569 139.335 119.991 139.732C110.744 146 110.744 146 106.94 146C107.863 140.843 110.988 138.215 114.94 135C125.316 128.181 125.316 128.181 129.94 130Z" fill="#D3302F"/>
<path d="M130.94 74C131.93 74 132.92 74 133.94 74C133.994 76.7294 134.034 79.4578 134.065 82.1875C134.09 83.3409 134.09 83.3409 134.116 84.5176C134.153 88.8149 133.936 92.079 131.94 96C129.63 95.67 127.32 95.34 124.94 95C124.94 91.167 125.348 89.5871 126.815 86.1875C128.498 82.1598 129.839 78.2207 130.94 74Z" fill="#D84E4A"/>
<path d="M74.9402 3C75.9302 3 76.9202 3 77.9402 3C77.9895 8.23273 78.0259 13.4653 78.05 18.6982C78.0601 20.4792 78.0738 22.2601 78.0911 24.041C78.1153 26.5977 78.1267 29.1542 78.1355 31.7109C78.1458 32.5099 78.1561 33.309 78.1668 34.1322C78.1672 36.0896 78.0626 38.0464 77.9402 40C77.2802 40.66 76.6202 41.32 75.9402 42C75.6633 44.0347 75.6633 44.0347 75.7449 46.3516C75.7513 47.2023 75.7578 48.0531 75.7644 48.9297C75.7812 49.8191 75.7979 50.7086 75.8152 51.625C75.8242 52.5222 75.8332 53.4194 75.8425 54.3438C75.8661 56.5628 75.8991 58.7813 75.9402 61C75.6102 61 75.2802 61 74.9402 61C74.9402 55.06 74.9402 49.12 74.9402 43C72.6302 43.99 70.3202 44.98 67.9402 46C65.5066 46.0742 65.5066 46.0742 63.5027 45.6875C62.3271 45.4606 61.1514 45.2338 59.9402 45C59.9402 44.67 59.9402 44.34 59.9402 44C60.6994 43.8788 61.4587 43.7577 62.241 43.6328C63.7318 43.3814 63.7318 43.3814 65.2527 43.125C66.2388 42.9626 67.225 42.8002 68.241 42.6328C71.1408 42.1191 71.1408 42.1191 73.9402 40C74.2779 37.1698 74.4292 34.5476 74.4519 31.7109C74.4699 30.8925 74.4878 30.0741 74.5063 29.2309C74.5606 26.6123 74.5943 23.9939 74.6277 21.375C74.6608 19.6015 74.6953 17.8281 74.7312 16.0547C74.8163 11.7033 74.883 7.35188 74.9402 3Z" fill="#481918"/>
<path d="M113.94 10C123.456 13.3356 133.54 22.4231 138.94 31C138.94 31.66 138.94 32.32 138.94 33C128.713 29.3618 120.56 20.3662 113.94 12C113.94 11.34 113.94 10.68 113.94 10Z" fill="#D02F2F"/>
<path d="M23.9402 130C31.5105 130.322 36.822 133.813 42.0691 139.176C43.7447 141.082 45.3681 143.008 46.9402 145C43.9402 146 43.9402 146 41.3035 144.812C28.7362 137.346 28.7362 137.346 23.9402 132C23.9402 131.34 23.9402 130.68 23.9402 130Z" fill="#CF2B2C"/>
<path d="M18.9402 74C20.2602 74 21.5802 74 22.9402 74C23.1104 74.7734 23.2805 75.5469 23.4558 76.3438C24.95 82.7655 26.728 88.2402 29.9402 94C26.8521 95.7646 25.7071 96 21.9402 96C19.2535 88.6564 18.7824 81.7323 18.9402 74Z" fill="#D34A47"/>
<path d="M142.94 86C143.93 86.33 144.92 86.66 145.94 87C145.94 91.95 145.94 96.9 145.94 102C146.93 102.33 147.92 102.66 148.94 103C147.542 105.797 145.803 105.868 142.94 107C141.577 107.958 140.232 108.947 138.94 110C138.28 109.34 137.62 108.68 136.94 108C138.26 106.35 139.58 104.7 140.94 103C134.67 100.69 128.4 98.38 121.94 96C122.6 95.01 123.26 94.02 123.94 93C124.725 93.3377 125.51 93.6755 126.319 94.0234C131.805 96.3526 137.154 98.5535 142.94 100C142.94 95.38 142.94 90.76 142.94 86Z" fill="#3A100F"/>
<path d="M37.9402 10C38.6002 10.33 39.2602 10.66 39.9402 11C23.4416 29.4699 23.4416 29.4699 15.9402 33C15.2802 32.67 14.6202 32.34 13.9402 32C29.0472 14.5211 29.0472 14.5211 37.9402 10Z" fill="#CB2C30"/>
<path d="M74.9402 43C74.9402 45.97 74.9402 48.94 74.9402 52C69.0002 52.495 69.0002 52.495 62.9402 53C62.2802 50.69 61.6202 48.38 60.9402 46C61.6389 45.8672 62.3375 45.7345 63.0574 45.5977C64.4225 45.3328 64.4225 45.3328 65.8152 45.0625C66.7201 44.8885 67.625 44.7145 68.5574 44.5352C70.9074 44.0074 72.5421 43 74.9402 43Z" fill="#DC4E4E"/>
<path d="M77.9402 43C78.7652 43.3094 79.5902 43.6188 80.4402 43.9375C84.3314 45.1188 87.9019 45.5822 91.9402 46C91.0652 50.75 91.0652 50.75 89.9402 53C88.5023 52.8583 87.0649 52.7115 85.6277 52.5625C84.8272 52.4813 84.0267 52.4001 83.2019 52.3164C80.9402 52 80.9402 52 77.9402 51C77.9402 48.36 77.9402 45.72 77.9402 43Z" fill="#D84B4C"/>
<path d="M79.9402 1.00002C88.6801 0.369491 95.7296 2.11207 103.94 5.00002C105.939 5.66877 107.939 6.33605 109.94 7.00002C109.94 7.33002 109.94 7.66002 109.94 8.00002C102.592 8.62626 96.2915 7.83909 89.3152 5.62502C88.6165 5.40371 87.9178 5.18239 87.198 4.95437C84.2299 3.95927 82.1814 3.24128 79.9402 1.00002Z" fill="#CB2B2E"/>
<path d="M72.9402 0.999991C64.9378 7.48155 54.8753 8.19869 44.9402 7.99999C50.8832 0.592471 64.2117 0.358714 72.9402 0.999991Z" fill="#C92A2E"/>
<path d="M57.9402 48C60.0803 49.6943 60.8661 50.6873 61.5027 53.375C60.9402 56 60.9402 56 58.3152 58.875C54.9402 61 54.9402 61 51.6902 60.875C48.9402 60 48.9402 60 46.9402 59C46.9402 58.34 46.9402 57.68 46.9402 57C48.0127 56.4431 49.0852 55.8863 50.1902 55.3125C53.5894 53.3888 55.6941 51.2343 57.9402 48Z" fill="#D54E4D"/>
<path d="M76.9402 89C77.9302 89.33 78.9202 89.66 79.9402 90C80.8894 92.0664 80.8894 92.0664 81.6277 94.5625C82.0047 95.8019 82.0047 95.8019 82.3894 97.0664C82.5712 97.7045 82.7529 98.3426 82.9402 99C81.2902 99.66 79.6402 100.32 77.9402 101C77.9402 107.6 77.9402 114.2 77.9402 121C76.9502 121 75.9602 121 74.9402 121C74.9113 117.854 74.8934 114.708 74.8777 111.562C74.8693 110.665 74.8609 109.767 74.8523 108.842C74.8491 107.988 74.8458 107.134 74.8425 106.254C74.8347 105.068 74.8347 105.068 74.8267 103.858C74.9402 102 74.9402 102 75.9402 101C76.1745 98.9841 76.3535 96.9615 76.5027 94.9375C76.5865 93.8328 76.6703 92.728 76.7566 91.5898C76.8172 90.7352 76.8778 89.8805 76.9402 89Z" fill="#501918"/>
<path d="M37.9402 12C38.9302 12.33 39.9202 12.66 40.9402 13C34.894 21.3986 27.9325 28.7362 18.9402 34C18.2802 34 17.6202 34 16.9402 34C16.6102 34.66 16.2802 35.32 15.9402 36C15.9402 35.34 15.9402 34.68 15.9402 34C15.2802 33.67 14.6202 33.34 13.9402 33C14.6066 32.6223 15.2731 32.2446 15.9597 31.8555C24.5418 26.7302 32.3433 20.3953 37.9402 12Z" fill="#2B0D0A"/>
<path d="M50.9402 100C51.6002 100.99 52.2602 101.98 52.9402 103C52.2802 104.32 51.6202 105.64 50.9402 107C51.4107 107.387 51.8812 107.773 52.366 108.172C55.6219 110.895 58.5947 113.413 60.9402 117C60.2802 117 59.6202 117 58.9402 117C58.6102 117.99 58.2802 118.98 57.9402 120C57.5689 119.092 57.1977 118.185 56.8152 117.25C54.634 113.469 52.7538 112.059 48.9402 110C46.2119 109.218 46.2119 109.218 43.9402 109C44.2702 106.69 44.6002 104.38 44.9402 102C44.2802 101.67 43.6202 101.34 42.9402 101C45.5802 100.67 48.2202 100.34 50.9402 100Z" fill="#120A08"/>
<path d="M93.9402 48C94.3875 48.3983 94.8348 48.7966 95.2957 49.207C98.0787 51.6459 100.688 53.85 103.878 55.75C104.899 56.3687 104.899 56.3687 105.94 57C105.94 57.66 105.94 58.32 105.94 59C102.94 61 102.94 61 100.628 60.9375C96.9482 59.654 94.8213 57.6131 91.9402 55C92.8152 50.25 92.8152 50.25 93.9402 48Z" fill="#DA4F4E"/>
<path d="M48.9402 146C57.9636 145.186 64.7318 147.346 72.9402 151C72.9402 151.33 72.9402 151.66 72.9402 152C64.1077 152.564 57.1549 151.263 48.9402 148C48.9402 147.34 48.9402 146.68 48.9402 146Z" fill="#CB2A2A"/>
<path d="M103.94 146C103.94 146.66 103.94 147.32 103.94 148C98.214 150.375 93.0953 151.606 86.9402 152.188C86.1655 152.269 85.3907 152.351 84.5925 152.436C82.7094 152.633 80.8249 152.818 78.9402 153C85.1094 145.918 95.1886 145.391 103.94 146Z" fill="#C62A28"/>
<path d="M135.94 36C136.93 36.66 137.92 37.32 138.94 38C138.457 38.3373 137.973 38.6747 137.475 39.0222C135.253 40.5745 133.034 42.131 130.815 43.6875C130.055 44.2179 129.294 44.7484 128.51 45.2949C125.089 47.699 121.73 50.1128 118.534 52.8125C116.355 54.6499 114.543 55.8987 111.94 57C111.28 56.34 110.62 55.68 109.94 55C110.695 54.4564 110.695 54.4564 111.466 53.9019C113.791 52.227 116.116 50.551 118.44 48.875C119.232 48.3052 120.023 47.7355 120.839 47.1484C125.915 43.487 130.948 39.7751 135.94 36Z" fill="#210A09"/>
<path d="M77.9402 0C80.9102 0 83.8802 0 86.9402 0C86.9402 0.33 86.9402 0.66 86.9402 1C85.2902 1.33 83.6402 1.66 81.9402 2C91.8182 5.5505 100.286 7.82095 110.94 7C110.94 7.66 110.94 8.32 110.94 9C99.9139 11.2053 91.0244 9.02487 80.5808 5.11719C78.9402 4 78.9402 4 77.9402 0Z" fill="#210A08"/>
<path d="M88.9402 97C92.7339 97.4101 95.1334 98.4011 97.9402 101C97.9402 101.66 97.9402 102.32 97.9402 103C94.9702 104.65 92.0002 106.3 88.9402 108C87.1108 104.234 86.7086 102.031 87.9402 98C88.2702 97.67 88.6002 97.34 88.9402 97Z" fill="#C82A2A"/>
<path d="M59.9402 97C62.5071 97.3949 64.6114 97.8356 66.9402 99C66.2802 101.31 65.6202 103.62 64.9402 106C60.8127 105.393 57.6081 103.962 53.9402 102C54.7446 101.361 55.5489 100.721 56.3777 100.062C58.2152 98.594 58.2152 98.594 59.9402 97Z" fill="#D32F2D"/>
<path d="M75.9402 103C76.2702 103 76.6002 103 76.9402 103C76.9402 108.94 76.9402 114.88 76.9402 121C78.2602 121.33 79.5802 121.66 80.9402 122C78.9602 122.99 78.9602 122.99 76.9402 124C76.9402 132.58 76.9402 141.16 76.9402 150C76.6102 150 76.2802 150 75.9402 150C75.9256 149.228 75.911 148.456 75.896 147.661C75.8216 144.169 75.7249 140.679 75.6277 137.188C75.5938 135.365 75.5938 135.365 75.5593 133.506C75.5239 132.342 75.4884 131.179 75.4519 129.98C75.4257 128.907 75.3995 127.833 75.3726 126.727C74.8977 123.732 74.3057 122.815 71.9402 121C73.2602 121 74.5802 121 75.9402 121C75.9402 115.06 75.9402 109.12 75.9402 103Z" fill="#080502"/>
<path d="M17.9402 37C26.2012 42.3058 34.0538 48.1605 41.9402 54C41.2802 54.99 40.6202 55.98 39.9402 57C39.2492 56.2678 38.5583 55.5356 37.8464 54.7812C34.9957 51.9305 31.801 49.7068 28.4402 47.5C24.1436 44.6788 20.4634 41.7335 16.9402 38C17.2702 37.67 17.6002 37.34 17.9402 37Z" fill="#180B09"/>
<path d="M107.94 108C113.159 111.665 117.661 115.57 121.983 120.266C124.176 122.209 126.181 123.066 128.94 124C128.94 124.66 128.94 125.32 128.94 126C126.96 126.99 126.96 126.99 124.94 128C124.551 127.527 124.162 127.054 123.76 126.566C119.505 121.536 114.922 117.224 109.882 112.98C107.94 111 107.94 111 107.94 108Z" fill="#1D0E0B"/>
<path d="M68.9402 101C71.9102 101.495 71.9102 101.495 74.9402 102C74.9402 104.64 74.9402 107.28 74.9402 110C71.9702 109.67 69.0002 109.34 65.9402 109C67.8152 103.25 67.8152 103.25 68.9402 101Z" fill="#D43333"/>
<path d="M73.9402 3.00003C67.0195 8.88854 57.3864 10.4457 48.5652 9.75003C46.6869 9.5259 44.8101 9.2858 42.9402 9.00003C43.6002 8.34003 44.2602 7.68003 44.9402 7.00003C47.0367 7.03385 49.1331 7.07025 51.2292 7.12113C57.1486 6.85672 63.1901 5.19816 68.6121 2.83597C70.9402 2.00003 70.9402 2.00003 73.9402 3.00003Z" fill="#190906"/>
<path d="M77.9402 102C80.7527 101.75 80.7527 101.75 83.9402 102C85.9806 104.04 86.9402 105.083 86.9402 108C83.5692 109.498 81.7358 110 77.9402 110C77.9402 107.36 77.9402 104.72 77.9402 102Z" fill="#D22F2F"/>
<path d="M73.9402 79C75.9202 79 77.9002 79 79.9402 79C80.3208 81.3261 80.6529 83.6606 80.9402 86C79.9402 87 79.9402 87 76.9402 87.125C73.9402 87 73.9402 87 72.9402 86C73.2275 83.6606 73.5596 81.3261 73.9402 79Z" fill="#CC3231"/>
<path d="M128.315 129.313C128.851 129.539 129.388 129.766 129.94 130C128.423 134.55 124.771 136.501 120.94 139C120.253 136.509 119.94 134.621 119.94 132C125.356 128.923 125.356 128.923 128.315 129.313Z" fill="#C82C2D"/>
<path d="M65.9402 67C68.9402 68 68.9402 68 70.1082 69.7773C70.4446 70.4902 70.781 71.203 71.1277 71.9375C71.4719 72.6478 71.816 73.358 72.1707 74.0898C72.9402 76 72.9402 76 72.9402 78C67.9291 76.5682 65.9955 74.0155 62.9402 70C63.9302 69.01 64.9202 68.02 65.9402 67Z" fill="#C22B2F"/>
<path d="M84.9402 67C87.4152 67.99 87.4152 67.99 89.9402 69C88.3841 72.8194 85.9841 75.2604 82.9402 78C82.2802 78 81.6202 78 80.9402 78C81.5472 73.8725 82.9783 70.6679 84.9402 67Z" fill="#CA3231"/>
<path d="M82.0652 41.875C85.9587 43.3985 89.7972 43.657 93.9402 44C93.9402 44.33 93.9402 44.66 93.9402 45C92.4021 45.2523 90.8593 45.4757 89.3152 45.6875C88.4567 45.8151 87.5982 45.9427 86.7136 46.0742C83.9402 46 83.9402 46 77.9402 43C77.9402 48.94 77.9402 54.88 77.9402 61C77.6102 61 77.2802 61 76.9402 61C76.9402 54.73 76.9402 48.46 76.9402 42C79.9402 41 79.9402 41 82.0652 41.875Z" fill="#3C1617"/>
<path d="M13.9402 37C14.6002 37.33 15.2602 37.66 15.9402 38C15.6562 40.0636 15.3627 42.1258 15.0652 44.1875C14.9028 45.3361 14.7403 46.4846 14.573 47.668C13.992 50.7273 13.3816 53.2431 11.9402 56C10.9502 56.33 9.96019 56.66 8.94019 57C9.93019 52.05 10.9202 47.1 11.9402 42C12.2702 42 12.6002 42 12.9402 42C13.2702 40.35 13.6002 38.7 13.9402 37Z" fill="#44110F"/>
<path d="M73.9402 89C74.6002 89 75.2602 89 75.9402 89C75.9402 92.63 75.9402 96.26 75.9402 100C74.2902 99.67 72.6402 99.34 70.9402 99C71.5501 95.4422 72.5186 92.3171 73.9402 89Z" fill="#BE2B2B"/>
<path d="M77.9402 64C80.4152 64.495 80.4152 64.495 82.9402 65C82.3332 69.1275 80.9021 72.3321 78.9402 76C78.6102 76 78.2802 76 77.9402 76C77.9402 72.04 77.9402 68.08 77.9402 64Z" fill="#D02C2E"/>
<path d="M122.94 93C125.592 93.9237 128.236 94.8629 130.878 95.8125C132.01 96.2041 132.01 96.2041 133.165 96.6035C135.124 97.3151 137.037 98.1506 138.94 99C139.27 99.99 139.6 100.98 139.94 102C133.833 100.235 127.866 98.3044 121.94 96C122.27 95.01 122.6 94.02 122.94 93Z" fill="#240E0B"/>
<path d="M71.9402 88C71.3303 91.5578 70.3618 94.6829 68.9402 98C66.4652 97.01 66.4652 97.01 63.9402 96C65.4573 92.4601 67.6934 88 71.9402 88Z" fill="#B72726"/>
<path d="M37.9402 10C38.6002 10.33 39.2602 10.66 39.9402 11C34.0233 18.8425 34.0233 18.8425 29.5027 19.5C28.6571 19.335 27.8114 19.17 26.9402 19C30.3738 15.3644 33.7375 12.6389 37.9402 10Z" fill="#C62B2E"/>
<path d="M97.9402 145C97.9402 145.33 97.9402 145.66 97.9402 146C96.5113 146.398 96.5113 146.398 95.0535 146.805C93.7992 147.158 92.545 147.511 91.2527 147.875C90.0113 148.223 88.77 148.571 87.491 148.93C84.552 149.816 81.7625 150.802 78.9402 152C78.9402 151.01 78.9402 150.02 78.9402 149C85.4902 146.303 90.825 144.463 97.9402 145Z" fill="#170A08"/>
<path d="M48.9402 106C53.5774 109.275 57.6256 112.304 60.9402 117C60.2802 117 59.6202 117 58.9402 117C58.6102 117.99 58.2802 118.98 57.9402 120C57.6102 119.113 57.2802 118.226 56.9402 117.312C54.3585 113.037 51.2609 111.319 46.9402 109C47.6002 108.67 48.2602 108.34 48.9402 108C48.9402 107.34 48.9402 106.68 48.9402 106Z" fill="#2B130F"/>
<path d="M56.9402 44C57.2702 44.99 57.6002 45.98 57.9402 47C58.9302 46.67 59.9202 46.34 60.9402 46C61.2702 47.32 61.6002 48.64 61.9402 50C60.9502 50.495 60.9502 50.495 59.9402 51C59.2802 50.34 58.6202 49.68 57.9402 49C56.2902 50.98 54.6402 52.96 52.9402 55C51.9502 54.34 50.9602 53.68 49.9402 53C50.3617 52.6017 50.7832 52.2034 51.2175 51.793C51.7654 51.2632 52.3132 50.7334 52.8777 50.1875C53.423 49.6654 53.9682 49.1434 54.53 48.6055C56.1754 46.9419 56.1754 46.9419 56.9402 44Z" fill="#2A1111"/>
<path d="M77.9402 89C79.9402 90 79.9402 90 80.7917 92.0664C81.047 92.8901 81.3022 93.7138 81.5652 94.5625C81.8256 95.3888 82.086 96.2151 82.3542 97.0664C82.5476 97.7045 82.741 98.3426 82.9402 99C81.2902 99.33 79.6402 99.66 77.9402 100C77.9402 96.37 77.9402 92.74 77.9402 89Z" fill="#D22C2D"/>
<path d="M7.94019 78C11.1799 82.8595 11.194 87.5208 11.5027 93.25C11.5459 93.9951 11.5891 94.7402 11.6335 95.5078C11.7392 97.3383 11.8401 99.1692 11.9402 101C11.2802 101 10.6202 101 9.94019 101C9.61019 96.71 9.28019 92.42 8.94019 88C8.61019 88 8.28019 88 7.94019 88C7.74606 86.5217 7.56006 85.0423 7.37769 83.5625C7.27327 82.7388 7.16886 81.9151 7.06128 81.0664C7.02132 80.3845 6.98136 79.7026 6.94019 79C7.27019 78.67 7.60019 78.34 7.94019 78Z" fill="#35110E"/>
<path d="M80.9402 87C82.1156 87.9265 83.2803 88.8666 84.4402 89.8125C85.0899 90.3346 85.7396 90.8566 86.4089 91.3945C87.9402 93 87.9402 93 87.9402 96C86.9502 96.66 85.9602 97.32 84.9402 98C84.2661 96.7331 83.6012 95.4613 82.9402 94.1875C82.5689 93.4798 82.1977 92.7721 81.8152 92.043C80.9402 90 80.9402 90 80.9402 87Z" fill="#DC3433"/>
<path d="M120.94 47C121.27 47.99 121.6 48.98 121.94 50C115.654 55.4286 115.654 55.4286 111.94 57C111.28 56.34 110.62 55.68 109.94 55C113.57 52.36 117.2 49.72 120.94 47Z" fill="#2D110F"/>
<path d="M130.94 57C133.951 61.5167 134.041 64.664 133.94 70C132.95 70.33 131.96 70.66 130.94 71C130.94 66.38 130.94 61.76 130.94 57Z" fill="#D34D49"/>
<path d="M74.9402 64C74.9402 67.63 74.9402 71.26 74.9402 75C72.2678 71.4369 71.1675 69.1541 69.9402 65C72.9402 64 72.9402 64 74.9402 64Z" fill="#D8292F"/>
<path d="M96.9402 49C100.519 50.6517 103.688 52.7829 106.94 55C106.61 56.32 106.28 57.64 105.94 59C105.94 58.34 105.94 57.68 105.94 57C105.198 56.7319 104.455 56.4638 103.69 56.1875C101.031 55.0393 99.0624 53.965 96.9402 52C96.9402 51.01 96.9402 50.02 96.9402 49Z" fill="#28100E"/>
<path d="M21.9402 54C22.2702 54 22.6002 54 22.9402 54C22.6102 59.61 22.2802 65.22 21.9402 71C20.9502 71 19.9602 71 18.9402 71C19.5708 65.219 20.5917 59.6556 21.9402 54Z" fill="#D9524C"/>
<path d="M27.9402 48C32.6112 49.557 36.0272 52.0845 39.9402 55C38.9502 55.495 38.9502 55.495 37.9402 56C36.0652 55.3633 36.0652 55.3633 33.9402 54.3125C33.2389 53.9786 32.5377 53.6448 31.8152 53.3008C29.6244 51.7809 28.9277 50.4431 27.9402 48Z" fill="#D04140"/>
<path d="M26.9402 28C25.653 29.0058 24.3603 30.0045 23.0652 31C22.3459 31.5569 21.6266 32.1138 20.8855 32.6875C18.9402 34 18.9402 34 16.9402 34C16.6102 34.66 16.2802 35.32 15.9402 36C15.9402 35.34 15.9402 34.68 15.9402 34C15.2802 33.67 14.6202 33.34 13.9402 33C15.5364 31.9668 17.1425 30.9488 18.7527 29.9375C19.646 29.369 20.5393 28.8006 21.4597 28.2148C23.9402 27 23.9402 27 26.9402 28Z" fill="#1E0A08"/>
<path d="M42.9402 109C43.9302 109.33 44.9202 109.66 45.9402 110C42.9702 112.97 40.0002 115.94 36.9402 119C36.2802 118.34 35.6202 117.68 34.9402 117C37.5802 114.36 40.2202 111.72 42.9402 109Z" fill="#100B07"/>
<path d="M30.9402 47C34.9844 48.7795 38.401 51.3953 41.9402 54C40.9502 55.485 40.9502 55.485 39.9402 57C39.2183 56.2575 38.4964 55.515 37.7527 54.75C35.2543 52.3071 32.7038 50.1319 29.9402 48C30.2702 47.67 30.6002 47.34 30.9402 47Z" fill="#24100E"/>
<path d="M43.9402 7C46.2316 6.94615 48.5234 6.90728 50.8152 6.875C52.7294 6.8402 52.7294 6.8402 54.6824 6.80469C57.9402 7 57.9402 7 59.9402 9C54.0287 9.77313 48.8087 10.1482 42.9402 9C43.2702 8.34 43.6002 7.68 43.9402 7Z" fill="#320D0C"/>
<path d="M30.9402 95C30.9402 95.66 30.9402 96.32 30.9402 97C25.4952 98.485 25.4952 98.485 19.9402 100C19.9402 99.01 19.9402 98.02 19.9402 97C21.2063 96.4677 22.4783 95.9495 23.7527 95.4375C24.4604 95.1474 25.1681 94.8574 25.8972 94.5586C27.9402 94 27.9402 94 30.9402 95Z" fill="#32100E"/>
<path d="M73.9402 87C75.9202 87 77.9002 87 79.9402 87C79.9402 87.66 79.9402 88.32 79.9402 89C78.9502 89 77.9602 89 76.9402 89C76.9402 92.96 76.9402 96.92 76.9402 101C76.6102 101 76.2802 101 75.9402 101C75.9402 97.04 75.9402 93.08 75.9402 89C74.9502 89.33 73.9602 89.66 72.9402 90C73.2702 89.01 73.6002 88.02 73.9402 87Z" fill="#0B0805"/>
<path d="M74.9402 64C75.2702 64 75.6002 64 75.9402 64C75.9402 67.96 75.9402 71.92 75.9402 76C74.6202 76 73.3002 76 71.9402 76C71.2802 74.35 70.6202 72.7 69.9402 71C70.6002 70.34 71.2602 69.68 71.9402 69C72.6002 70.32 73.2602 71.64 73.9402 73C74.2702 70.03 74.6002 67.06 74.9402 64Z" fill="#4D1211"/>
<path d="M149.94 59C150.6 59 151.26 59 151.94 59C152.27 61.97 152.6 64.94 152.94 68C151.95 68 150.96 68 149.94 68C148.815 65.75 148.815 65.75 147.94 63C148.815 60.6875 148.815 60.6875 149.94 59Z" fill="#C02A2B"/>
<path d="M97.9402 101C100.58 101.33 103.22 101.66 105.94 102C105.61 103.98 105.28 105.96 104.94 108C101.793 106.427 100.141 103.721 97.9402 101Z" fill="#591D1C"/>
<path d="M72.9401 86C73.9773 89.2146 73.8808 91.4093 73.1276 94.6875C72.8705 95.8689 72.8705 95.8689 72.6081 97.0742C71.9401 99 71.9401 99 69.9401 100C68.856 96.097 69.0199 94.5016 70.9401 91C70.9401 89.68 70.9401 88.36 70.9401 87C71.6001 86.67 72.2601 86.34 72.9401 86Z" fill="#2F0F0C"/>
<path d="M99.9402 30C100.93 30.33 101.92 30.66 102.94 31C101.29 34.63 99.6402 38.26 97.9402 42C97.2802 41.01 96.6202 40.02 95.9402 39C96.6199 36.7383 96.6199 36.7383 97.8152 34.3125C98.2045 33.5043 98.5938 32.696 98.9949 31.8633C99.3068 31.2484 99.6188 30.6335 99.9402 30Z" fill="#23110D"/>
<path d="M56.9402 122C57.9302 122.33 58.9202 122.66 59.9402 123C58.6202 125.97 57.3002 128.94 55.9402 132C54.9502 131.67 53.9602 131.34 52.9402 131C54.2602 128.03 55.5802 125.06 56.9402 122Z" fill="#24120E"/>
<path d="M74.9402 79C76.5902 79 78.2402 79 79.9402 79C79.9402 80.65 79.9402 82.3 79.9402 84C78.9502 84.33 77.9602 84.66 76.9402 85C76.2802 84.67 75.6202 84.34 74.9402 84C74.9402 82.35 74.9402 80.7 74.9402 79Z" fill="#E03D3D"/>
<path d="M124.94 49C123.89 51.8648 123.239 52.8391 120.503 54.3125C117.94 55 117.94 55 114.94 54C116.038 53.158 117.144 52.3267 118.253 51.5C118.868 51.0359 119.482 50.5719 120.116 50.0938C121.94 49 121.94 49 124.94 49Z" fill="#CA3A3D"/>
<path d="M113.94 10C117.315 11.1858 119.587 12.2757 121.94 15C120.95 15.99 119.96 16.98 118.94 18C113.94 12.25 113.94 12.25 113.94 10Z" fill="#C72A2E"/>
<path d="M62.9402 118C70.1244 118.456 70.1244 118.456 73.9402 121C70.5574 122.128 69.1724 121.818 65.7527 121.062C64.8516 120.868 63.9506 120.673 63.0222 120.473C61.9916 120.239 61.9916 120.239 60.9402 120C61.6002 119.34 62.2602 118.68 62.9402 118Z" fill="#22120F"/>
<path d="M100.94 108C101.93 108.33 102.92 108.66 103.94 109C102.795 109.897 102.795 109.897 101.628 110.812C99.5918 112.47 97.7424 114.103 95.9402 116C95.9402 112 95.9402 112 98.2527 109.688C99.1396 109.131 100.026 108.574 100.94 108Z" fill="#2B1210"/>
<path d="M145.94 106C144.824 109.35 144.193 109.793 141.378 111.688C140.737 112.124 140.096 112.561 139.436 113.012C138.943 113.338 138.449 113.664 137.94 114C138.908 109.299 140.782 106 145.94 106Z" fill="#DD3435"/>
<path d="M48.9402 146C52.5702 146 56.2002 146 59.9402 146C59.9402 146.33 59.9402 146.66 59.9402 147C58.2902 147.33 56.6402 147.66 54.9402 148C55.2702 148.66 55.6002 149.32 55.9402 150C53.6302 149.34 51.3202 148.68 48.9402 148C48.9402 147.34 48.9402 146.68 48.9402 146Z" fill="#B42525"/>
<path d="M120.94 121C121.703 121.309 122.466 121.619 123.253 121.938C125.128 122.679 127.027 123.362 128.94 124C128.94 124.66 128.94 125.32 128.94 126C126.96 126.99 126.96 126.99 124.94 128C120.94 123.25 120.94 123.25 120.94 121Z" fill="#300C0B"/>
<path d="M79.9402 87C81.896 89.9337 83.5024 92.7822 84.9402 96C84.6102 96.66 84.2802 97.32 83.9402 98C80.8507 95.4723 79.9157 92.8207 78.9402 89C79.2702 88.34 79.6002 87.68 79.9402 87Z" fill="#24110B"/>
<path d="M142.94 71C142.94 71.33 142.94 71.66 142.94 72C139.31 72.33 135.68 72.66 131.94 73C131.61 72.34 131.28 71.68 130.94 71C135.025 69.4683 138.735 70.3692 142.94 71Z" fill="#290C0B"/>
<path d="M28.9402 18C29.9302 18.33 30.9202 18.66 31.9402 19C30.2902 20.98 28.6402 22.96 26.9402 25C26.2802 24.67 25.6202 24.34 24.9402 24C26.6902 19.125 26.6902 19.125 28.9402 18Z" fill="#DD3538"/>
<path d="M77.9402 0C80.9102 0 83.8802 0 86.9402 0C86.9402 0.33 86.9402 0.66 86.9402 1C85.2902 1.33 83.6402 1.66 81.9402 2C82.9302 2.99 83.9202 3.98 84.9402 5C81.9702 4.505 81.9702 4.505 78.9402 4C78.6102 2.68 78.2802 1.36 77.9402 0Z" fill="#360D0C"/>
<path d="M91.9402 119C91.9402 119.33 91.9402 119.66 91.9402 120C90.1515 120.389 88.3591 120.761 86.5652 121.125C85.5675 121.334 84.5697 121.543 83.5417 121.758C82.6832 121.838 81.8247 121.918 80.9402 122C80.2802 121.34 79.6202 120.68 78.9402 120C83.6251 117.511 86.8846 118.143 91.9402 119Z" fill="#2A1212"/>
<path d="M42.9402 101C45.5802 101 48.2202 101 50.9402 101C49.2985 103.021 47.6311 105.02 45.9402 107C45.6102 107 45.2802 107 44.9402 107C44.9402 105.35 44.9402 103.7 44.9402 102C44.2802 101.67 43.6202 101.34 42.9402 101Z" fill="#712625"/>
<path d="M19.9402 98C19.9402 98.66 19.9402 99.32 19.9402 100C17.3002 100.99 14.6602 101.98 11.9402 103C11.9402 102.01 11.9402 101.02 11.9402 100C14.8462 98.7434 16.7362 98 19.9402 98Z" fill="#200A07"/>
<path d="M10.9402 48C11.9302 48.33 12.9202 48.66 13.9402 49C13.1277 52.4375 13.1277 52.4375 11.9402 56C10.9502 56.33 9.96019 56.66 8.94019 57C9.60019 54.03 10.2602 51.06 10.9402 48Z" fill="#2D100B"/>
<path d="M128.94 124C130.401 126.647 130.94 127.894 130.94 131C128.96 130.34 126.98 129.68 124.94 129C125.6 128.01 126.26 127.02 126.94 126C127.6 126 128.26 126 128.94 126C128.94 125.34 128.94 124.68 128.94 124Z" fill="#0A0505"/>
<path d="M59.9402 97C60.2702 97.99 60.6002 98.98 60.9402 100C59.9502 100.99 58.9602 101.98 57.9402 103C56.6202 102.34 55.3002 101.68 53.9402 101C55.9202 99.68 57.9002 98.36 59.9402 97Z" fill="#C82928"/>
<path d="M112.94 9C115.509 10.2843 115.887 11.3663 116.94 14C116.94 15.32 116.94 16.64 116.94 18C113.002 14.6769 113.002 14.6769 112.69 11.25C112.773 10.5075 112.855 9.765 112.94 9Z" fill="#250C08"/>
<path d="M126.94 43C127.93 43.33 128.92 43.66 129.94 44C127.63 45.65 125.32 47.3 122.94 49C122.94 48.01 122.94 47.02 122.94 46C124.753 44.25 124.753 44.25 126.94 43Z" fill="#110B09"/>
<path d="M5.94019 71C8.91019 71.495 8.91019 71.495 11.9402 72C10.9502 72.66 9.96019 73.32 8.94019 74C8.21636 76.0593 8.21636 76.0593 7.94019 78C7.28019 75.69 6.62019 73.38 5.94019 71Z" fill="#C72A2A"/>
<path d="M151.128 67.375C151.726 67.5813 152.324 67.7875 152.94 68C152.94 68.66 152.94 69.32 152.94 70C150.94 71.625 150.94 71.625 148.94 73C148.94 72.01 148.94 71.02 148.94 70C147.95 69.67 146.96 69.34 145.94 69C148.94 67 148.94 67 151.128 67.375Z" fill="#0A0707"/>
</svg>
