<svg width="152" height="153" viewBox="0 0 152 153" fill="none" xmlns="http://www.w3.org/2000/svg">
<path d="M74.0779 0.00451032C74.9581 0.0134532 75.8382 0.0223961 76.7451 0.0316099C97.3428 0.397429 115.04 7.811 130.074 21.8834C147.266 39.8607 151.892 59.0607 151.605 83.1842C151.335 91.691 149.779 98.4939 146.265 106.255C145.769 107.373 145.273 108.492 144.761 109.645C135.085 129.325 118.711 142.076 98.2654 149.317C81.4692 154.516 63.4694 154.086 47.2654 147.255C45.6353 146.568 45.6353 146.568 43.9724 145.868C36.9148 142.603 31.0521 138.421 25.2654 133.255C24.1245 132.255 24.1245 132.255 22.9607 131.235C9.54362 118.723 0.752167 100.836 0.0270835 82.4186C-0.431833 59.7534 4.88525 41.3368 20.2654 24.2545C20.8558 23.5713 21.4461 22.8881 22.0544 22.1842C35.2703 7.84361 54.7211 -0.218585 74.0779 0.00451032Z" fill="#888889"/>
<path d="M64.2654 11.2545C68.2237 11.1967 72.1818 11.161 76.1404 11.1295C77.2683 11.1128 78.3962 11.096 79.5583 11.0787C80.6347 11.0723 81.7111 11.0658 82.8201 11.0592C83.8151 11.0487 84.8101 11.0383 85.8352 11.0275C88.2654 11.2545 88.2654 11.2545 90.2654 13.2545C92.219 13.4769 92.219 13.4769 94.449 13.3522C110.321 13.2031 110.321 13.2031 116.703 18.6295C118.225 20.1696 119.746 21.7111 121.265 23.2545C122.126 23.6495 122.986 24.0446 123.872 24.4515C126.265 26.2545 126.265 26.2545 126.833 29.4408C126.807 30.7238 126.781 32.0068 126.754 33.3287C126.747 34.0126 126.74 34.6964 126.732 35.401C126.704 37.5824 126.642 39.7613 126.578 41.942C126.553 43.4218 126.53 44.9016 126.51 46.3815C126.454 50.0067 126.368 53.6303 126.265 57.2545C125.605 57.2545 124.945 57.2545 124.265 57.2545C124.265 47.6845 124.265 38.1145 124.265 28.2545C122.945 27.5945 121.625 26.9345 120.265 26.2545C117.295 24.2745 114.325 22.2945 111.265 20.2545C111.265 35.4345 111.265 50.6145 111.265 66.2545C110.275 66.7495 110.275 66.7495 109.265 67.2545C109.265 66.2645 109.265 65.2745 109.265 64.2545C104.993 64.2773 100.724 64.3545 96.4529 64.442C95.2379 64.4478 94.023 64.4536 92.7712 64.4596C91.0262 64.5031 91.0262 64.5031 89.2458 64.5475C88.1723 64.5632 87.0988 64.5789 85.9927 64.5951C85.0927 64.8127 84.1927 65.0303 83.2654 65.2545C82.2754 66.9045 81.2854 68.5545 80.2654 70.2545C89.1754 70.2545 98.0854 70.2545 107.265 70.2545C107.265 70.5845 107.265 70.9145 107.265 71.2545C99.2528 72.2884 91.3363 72.3592 83.2654 72.2545C83.2654 73.5745 83.2654 74.8945 83.2654 76.2545C85.5754 76.2545 87.8854 76.2545 90.2654 76.2545C89.2865 78.4382 88.5151 80.0312 86.7164 81.6397C84.9088 83.6513 84.8817 84.6087 84.8613 87.2794C84.8423 88.4861 84.8423 88.4861 84.8229 89.7173C84.8258 90.5829 84.8288 91.4486 84.8318 92.3405C84.8265 93.2344 84.8213 94.1283 84.8159 95.0493C84.8095 96.9406 84.8108 98.832 84.8193 100.723C84.8278 103.612 84.7991 106.499 84.7673 109.387C84.7657 111.226 84.7663 113.064 84.7693 114.903C84.7581 115.765 84.7468 116.626 84.7352 117.514C84.7962 122.78 85.4519 125.335 89.2654 129.255C89.9529 131.692 89.9529 131.692 89.2654 134.255C85.5057 138.393 81.1415 141.719 75.5779 142.755C69.9125 141.899 65.2705 138.26 61.2654 134.255C60.8279 131.942 60.8279 131.942 61.2654 129.255C62.0826 128.597 62.8999 127.94 63.7419 127.262C67.4138 122.886 67.0443 118.99 67.0779 113.442C67.103 112.463 67.1282 111.484 67.1541 110.475C67.2128 108.068 67.2492 105.662 67.2654 103.255C66.6054 103.255 65.9454 103.255 65.2654 103.255C65.0027 103.839 64.7401 104.424 64.4695 105.027C63.2056 107.365 61.8356 108.984 59.9998 110.899C59.3565 111.576 58.7133 112.254 58.0505 112.952C57.3789 113.65 56.7073 114.348 56.0154 115.067C54.6962 116.447 53.3785 117.829 52.0623 119.212C51.4235 119.881 50.7848 120.551 50.1267 121.241C48.3166 123.199 46.6069 125.213 44.906 127.266C44.0346 128.252 43.1632 129.239 42.2654 130.255C41.6054 130.255 40.9454 130.255 40.2654 130.255C42.8001 121.918 46.3524 114.105 49.9529 106.192C50.5659 104.836 51.1785 103.48 51.7908 102.124C53.2777 98.8318 54.77 95.5425 56.2654 92.2545C52.6354 92.2545 49.0054 92.2545 45.2654 92.2545C45.8105 85.1675 47.8746 78.9266 50.2654 72.2545C49.6969 72.3241 49.1284 72.3937 48.5427 72.4655C44.9044 72.7206 42.2808 72.8836 39.1091 70.9186C37.4038 69.4299 35.8026 67.9153 34.2654 66.2545C34.9254 65.5945 35.5854 64.9345 36.2654 64.2545C37.2554 64.9145 38.2454 65.5745 39.2654 66.2545C39.2654 51.4045 39.2654 36.5545 39.2654 21.2545C62.3654 21.2545 85.4654 21.2545 109.265 21.2545C108.275 19.2745 108.275 19.2745 107.265 17.2545C105.386 17.3241 105.386 17.3241 103.469 17.3951C101.817 17.4327 100.166 17.4691 98.5154 17.5045C97.2779 17.5548 97.2779 17.5548 96.0154 17.6061C93.7014 17.6434 91.5497 17.6328 89.2654 17.2545C88.6363 16.6048 88.0073 15.9551 87.3591 15.2858C83.8196 11.8519 79.2537 12.5739 74.5154 12.5045C73.5318 12.4749 72.5483 12.4452 71.5349 12.4147C69.1117 12.3441 66.6893 12.2913 64.2654 12.2545C64.2654 11.9245 64.2654 11.5945 64.2654 11.2545Z" fill="#050605"/>
<path d="M127.265 49.2545C135.712 59.7338 135.415 73.4693 134.265 86.2545C132.94 95.785 128.973 103.612 123.265 111.255C122.498 112.314 122.498 112.314 121.715 113.395C113.656 123.553 102.351 129.318 90.2654 133.255C84.0136 123.877 84.0136 123.877 83.9431 120.261C83.9239 119.463 83.9047 118.665 83.8849 117.843C83.8764 116.984 83.8679 116.124 83.8591 115.239C83.8477 114.35 83.8363 113.461 83.8246 112.544C83.8057 110.662 83.7926 108.779 83.7849 106.896C83.7655 104.028 83.7035 101.164 83.6404 98.2975C83.6273 96.4655 83.6168 94.6334 83.6091 92.8014C83.5844 91.9501 83.5597 91.0988 83.5343 90.2217C83.577 84.4486 84.9334 81.585 88.976 77.4501C89.6142 76.8583 89.6142 76.8583 90.2654 76.2545C87.9554 76.2545 85.6454 76.2545 83.2654 76.2545C83.2654 74.9345 83.2654 73.6145 83.2654 72.2545C84.0362 72.2661 84.8069 72.2777 85.6011 72.2897C89.136 72.3194 92.668 72.2874 96.2029 72.2545C98.0214 72.2835 98.0214 72.2835 99.8767 72.3131C106.385 72.2073 110.455 71.7985 115.394 67.3444C116.056 66.6392 116.718 65.934 117.4 65.2074C119.248 63.2725 120.964 62.1459 123.265 60.817C126.551 58.0102 126.742 57.4939 127.203 53.442C127.255 52.047 127.287 50.6503 127.265 49.2545Z" fill="#A0A0A1"/>
<path d="M41.2654 23.2545C63.7054 23.2545 86.1454 23.2545 109.265 23.2545C109.265 36.1245 109.265 48.9945 109.265 62.2545C101.345 62.2545 93.4254 62.2545 85.2654 62.2545C88.2371 56.9054 91.2294 51.5675 94.2654 46.2545C82.7154 46.2545 71.1654 46.2545 59.2654 46.2545C58.6054 49.2245 57.9454 52.1945 57.2654 55.2545C56.3226 57.6115 55.3416 59.9553 54.2654 62.2545C49.9754 62.2545 45.6854 62.2545 41.2654 62.2545C41.2654 49.3845 41.2654 36.5145 41.2654 23.2545Z" fill="#A1A2A2"/>
<path d="M22.2654 53.2545C22.5954 53.2545 22.9254 53.2545 23.2654 53.2545C23.4742 54.1478 23.683 55.0412 23.8982 55.9615C25.5986 60.0571 27.5343 61.416 31.1404 63.942C32.1897 64.6884 33.239 65.4348 34.3201 66.2037C35.292 66.8805 36.264 67.5573 37.2654 68.2545C37.9537 68.8243 38.6421 69.394 39.3513 69.9811C41.6513 71.5113 43.278 71.7407 46.0154 71.942C46.8146 72.0078 47.6138 72.0735 48.4372 72.1412C49.0405 72.1786 49.6438 72.216 50.2654 72.2545C49.6188 79.2047 47.4051 85.6363 45.2654 92.2545C48.8954 92.2545 52.5254 92.2545 56.2654 92.2545C55.4041 96.5609 54.3752 99.5145 52.5427 103.43C51.7354 105.166 51.7354 105.166 50.9118 106.936C50.3423 108.146 49.7726 109.357 49.2029 110.567C48.6288 111.797 48.0552 113.026 47.4822 114.256C46.0814 117.258 44.6756 120.257 43.2654 123.255C33.9631 119.642 27.4685 112.416 23.3918 103.301C17.1879 88.1681 14.1932 73.1826 20.2927 57.442C20.9196 56.0321 21.5753 54.6346 22.2654 53.2545Z" fill="#9F9FA0"/>
<path d="M61.2654 49.2545C70.5054 49.2545 79.7454 49.2545 89.2654 49.2545C87.918 52.6229 86.9908 54.9168 85.0583 57.778C84.6362 58.407 84.214 59.0361 83.7791 59.6842C83.3414 60.3262 82.9038 60.9681 82.4529 61.6295C82.0268 62.2637 81.6008 62.898 81.1619 63.5514C78.9814 66.7841 76.7497 69.9635 74.4412 73.1061C72.0759 75.8909 72.0759 75.8909 72.2654 78.2545C76.2254 78.5845 80.1854 78.9145 84.2654 79.2545C82.2693 81.5913 80.2695 83.9246 78.2654 86.2545C77.7588 86.8449 77.2522 87.4353 76.7302 88.0436C72.5538 92.8665 68.2418 97.5567 63.9065 102.236C58.9902 107.543 54.1221 112.893 49.2654 118.255C48.9354 117.595 48.6054 116.935 48.2654 116.255C49.3452 113.549 49.3452 113.549 51.0115 110.153C51.3014 109.556 51.5914 108.96 51.8902 108.345C52.8203 106.436 53.7614 104.533 54.7029 102.63C55.3345 101.338 55.9653 100.047 56.5955 98.7545C58.1438 95.5837 59.702 92.4179 61.2654 89.2545C56.9754 89.2545 52.6854 89.2545 48.2654 89.2545C49.8961 83.5898 51.6781 78.0413 53.7029 72.5045C55.9182 66.4008 57.7557 60.2817 59.4685 54.0201C60.2654 51.2545 60.2654 51.2545 61.2654 49.2545Z" fill="#EFC52E"/>
<path d="M68.8084 9.96154C70.4181 9.97604 70.4181 9.97604 72.0603 9.99084C73.1799 10.016 74.2994 10.0411 75.4529 10.067C76.5841 10.0805 77.7152 10.0941 78.8806 10.108C81.676 10.1434 84.4705 10.1928 87.2654 10.2545C86.6054 10.9145 85.9454 11.5745 85.2654 12.2545C86.69 14.4367 86.69 14.4367 89.2654 16.2545C92.3199 16.7128 95.3134 16.5399 98.3904 16.3795C101.365 16.2538 104.284 16.2137 107.265 16.2545C109.265 18.2545 109.265 18.2545 109.265 21.2545C86.1654 21.2545 63.0654 21.2545 39.2654 21.2545C39.2654 36.1045 39.2654 50.9545 39.2654 66.2545C37.9454 65.9245 36.6254 65.5945 35.2654 65.2545C34.2754 65.2545 33.2854 65.2545 32.2654 65.2545C28.7913 63.9411 26.5095 62.2173 24.2654 59.2545C23.1411 54.6929 22.9877 50.2904 23.0576 45.6244C23.0778 43.4515 22.997 41.2983 22.908 39.1276C22.8259 33.4738 22.8785 28.9471 26.6223 24.378C29.4038 22.094 32.2197 20.1659 35.2654 18.2545C36.1106 17.5278 36.9558 16.8011 37.8267 16.0524C40.5244 14.0636 41.7291 13.7583 45.0232 13.7506C46.3323 13.7226 46.3323 13.7226 47.6677 13.694C48.5662 13.6933 49.4647 13.6927 50.3904 13.692C52.1848 13.6831 53.9792 13.6615 55.7732 13.6256C56.5636 13.6249 57.3539 13.6242 58.1682 13.6234C60.3618 13.4514 60.3618 13.4514 61.6997 11.7496C63.9866 9.56579 65.6997 9.91219 68.8084 9.96154Z" fill="#1F201F"/>
<path d="M64.2654 11.2545C68.2237 11.1967 72.1818 11.161 76.1404 11.1295C77.2683 11.1128 78.3962 11.096 79.5583 11.0787C80.6347 11.0723 81.7111 11.0658 82.8201 11.0592C83.8151 11.0487 84.8101 11.0383 85.8352 11.0275C88.2654 11.2545 88.2654 11.2545 90.2654 13.2545C92.219 13.4769 92.219 13.4769 94.449 13.3522C110.321 13.2031 110.321 13.2031 116.703 18.6295C118.225 20.1696 119.746 21.7111 121.265 23.2545C122.126 23.6495 122.986 24.0446 123.872 24.4515C126.265 26.2545 126.265 26.2545 126.833 29.4408C126.807 30.7238 126.781 32.0068 126.754 33.3287C126.747 34.0126 126.74 34.6964 126.732 35.401C126.704 37.5824 126.642 39.7613 126.578 41.942C126.553 43.4218 126.53 44.9016 126.51 46.3815C126.454 50.0067 126.368 53.6303 126.265 57.2545C125.605 57.2545 124.945 57.2545 124.265 57.2545C124.265 47.6845 124.265 38.1145 124.265 28.2545C122.945 27.5945 121.625 26.9345 120.265 26.2545C117.295 24.2745 114.325 22.2945 111.265 20.2545C111.265 35.4345 111.265 50.6145 111.265 66.2545C110.275 66.7495 110.275 66.7495 109.265 67.2545C109.265 66.2645 109.265 65.2745 109.265 64.2545C104.993 64.2773 100.724 64.3545 96.4529 64.442C95.2379 64.4478 94.023 64.4536 92.7712 64.4596C91.0262 64.5031 91.0262 64.5031 89.2458 64.5475C88.1723 64.5632 87.0988 64.5789 85.9927 64.5951C85.0927 64.8127 84.1927 65.0303 83.2654 65.2545C82.2754 66.9045 81.2854 68.5545 80.2654 70.2545C89.1754 70.2545 98.0854 70.2545 107.265 70.2545C107.265 70.5845 107.265 70.9145 107.265 71.2545C99.2528 72.2884 91.3363 72.3592 83.2654 72.2545C83.2654 73.5745 83.2654 74.8945 83.2654 76.2545C85.5754 76.2545 87.8854 76.2545 90.2654 76.2545C90.2654 76.5845 90.2654 76.9145 90.2654 77.2545C87.2954 77.7495 87.2954 77.7495 84.2654 78.2545C84.2654 78.5845 84.2654 78.9145 84.2654 79.2545C80.3054 79.2545 76.3454 79.2545 72.2654 79.2545C72.2654 74.6129 73.1631 73.4415 75.7302 69.6842C76.8063 68.0929 76.8063 68.0929 77.9041 66.4694C78.67 65.3559 79.4363 64.2426 80.2029 63.1295C80.9661 62.009 81.7285 60.8879 82.49 59.7662C83.8831 57.7147 85.2804 55.6661 86.6831 53.6212C88.2603 51.3691 88.2603 51.3691 89.2654 49.2545C80.0254 49.2545 70.7854 49.2545 61.2654 49.2545C59.9454 54.5345 58.6254 59.8145 57.2654 65.2545C52.3154 65.2545 47.3654 65.2545 42.2654 65.2545C41.6054 66.5745 40.9454 67.8945 40.2654 69.2545C38.3904 68.942 38.3904 68.942 36.2654 68.2545C35.6054 67.2645 34.9454 66.2745 34.2654 65.2545C37.2654 65.2545 37.2654 65.2545 39.2654 66.2545C39.2654 51.4045 39.2654 36.5545 39.2654 21.2545C62.3654 21.2545 85.4654 21.2545 109.265 21.2545C108.275 19.2745 108.275 19.2745 107.265 17.2545C105.386 17.3241 105.386 17.3241 103.469 17.3951C101.817 17.4327 100.166 17.4691 98.5154 17.5045C97.2779 17.5548 97.2779 17.5548 96.0154 17.6061C93.7014 17.6434 91.5497 17.6328 89.2654 17.2545C88.6363 16.6048 88.0073 15.9551 87.3591 15.2858C83.8196 11.8519 79.2537 12.5739 74.5154 12.5045C73.5318 12.4749 72.5483 12.4452 71.5349 12.4147C69.1117 12.3441 66.6893 12.2913 64.2654 12.2545C64.2654 11.9245 64.2654 11.5945 64.2654 11.2545ZM41.2654 23.2545C41.2654 36.1245 41.2654 48.9945 41.2654 62.2545C45.5554 62.2545 49.8454 62.2545 54.2654 62.2545C55.2244 59.9651 55.2244 59.9651 56.2029 57.6295C56.5625 56.771 56.9222 55.9125 57.2927 55.028C58.5204 51.781 58.5204 51.781 59.2654 46.2545C70.8154 46.2545 82.3654 46.2545 94.2654 46.2545C91.2936 51.6036 88.3013 56.9416 85.2654 62.2545C93.1854 62.2545 101.105 62.2545 109.265 62.2545C109.265 49.3845 109.265 36.5145 109.265 23.2545C86.8254 23.2545 64.3854 23.2545 41.2654 23.2545Z" fill="#0A0909"/>
<path d="M112.265 20.2545C121.265 26.2545 121.265 26.2545 123.265 28.2545C123.804 32.4362 123.85 36.6248 123.911 40.8383C123.939 42.2324 123.986 43.6262 124.054 45.0189C124.614 56.5407 124.614 56.5407 121.283 60.7726C115.653 65.2545 115.653 65.2545 112.265 65.2545C112.265 50.4045 112.265 35.5545 112.265 20.2545Z" fill="#A4A4A4"/>
<path d="M42.2654 64.2545C44.2236 64.2276 46.182 64.2081 48.1404 64.192C49.2309 64.1804 50.3215 64.1688 51.4451 64.1569C54.2654 64.2545 54.2654 64.2545 56.2654 65.2545C54.2231 73.5398 51.4197 81.3262 48.2654 89.2545C52.5554 89.2545 56.8454 89.2545 61.2654 89.2545C59.9333 93.2508 58.6811 96.6987 56.8826 100.434C56.4378 101.362 55.9931 102.29 55.5349 103.247C55.0747 104.198 54.6145 105.149 54.1404 106.13C53.4385 107.591 53.4385 107.591 52.7224 109.083C51.5732 111.475 50.4208 113.865 49.2654 116.255C50.3231 115.197 50.3231 115.197 51.4021 114.118C58.3337 107.186 58.3337 107.186 65.2654 100.255C65.9254 101.245 66.5854 102.235 67.2654 103.255C66.6054 103.255 65.9454 103.255 65.2654 103.255C64.8714 104.132 64.8714 104.132 64.4695 105.027C63.2056 107.365 61.8356 108.984 59.9998 110.899C59.3565 111.576 58.7133 112.254 58.0505 112.952C57.3789 113.65 56.7073 114.348 56.0154 115.067C54.6962 116.447 53.3785 117.829 52.0623 119.212C51.4235 119.881 50.7848 120.551 50.1267 121.241C48.3166 123.199 46.6069 125.213 44.906 127.266C44.0346 128.252 43.1632 129.239 42.2654 130.255C41.6054 130.255 40.9454 130.255 40.2654 130.255C42.8001 121.918 46.3524 114.105 49.9529 106.192C50.5659 104.836 51.1785 103.48 51.7908 102.124C53.2777 98.8318 54.77 95.5425 56.2654 92.2545C52.6354 92.2545 49.0054 92.2545 45.2654 92.2545C45.8105 85.1675 47.8746 78.9266 50.2654 72.2545C49.6505 72.2893 49.0356 72.3241 48.4021 72.36C47.1897 72.4006 47.1897 72.4006 45.9529 72.442C44.7521 72.4942 44.7521 72.4942 43.5271 72.5475C40.7869 72.1925 39.9737 71.3609 38.2654 69.2545C38.9254 69.2545 39.5854 69.2545 40.2654 69.2545C40.9254 67.6045 41.5854 65.9545 42.2654 64.2545Z" fill="#0E0D0E"/>
<path d="M38.2654 21.2545C38.2654 35.7745 38.2654 50.2945 38.2654 65.2545C36.9454 64.5945 35.6254 63.9345 34.2654 63.2545C33.6428 63.0017 33.0201 62.7489 32.3787 62.4884C30.0903 61.3076 28.8282 60.3249 27.2654 58.2545C26.2904 53.9734 26.174 49.8264 26.2429 45.4445C26.2653 43.3876 26.2026 41.3452 26.1326 39.2897C26.1516 29.6468 26.1516 29.6468 29.2693 25.7496C34.9068 21.2545 34.9068 21.2545 38.2654 21.2545Z" fill="#A2A2A3"/>
<path d="M69.2654 12.8561C70.2348 12.8522 71.2041 12.8483 72.2029 12.8444C73.2135 12.856 74.2241 12.8676 75.2654 12.8795C76.276 12.8679 77.2866 12.8563 78.3279 12.8444C79.2973 12.8482 80.2666 12.8521 81.2654 12.8561C82.1523 12.8595 83.0391 12.8628 83.9529 12.8663C86.7426 13.3346 87.3446 14.2788 89.2654 16.2545C91.2891 16.6651 91.2891 16.6651 93.4958 16.5475C94.2983 16.5378 95.1007 16.5281 95.9275 16.5182C96.7609 16.4931 97.5942 16.4679 98.4529 16.442C99.2979 16.4285 100.143 16.4149 101.013 16.401C103.098 16.3657 105.182 16.3119 107.265 16.2545C107.76 18.2345 107.76 18.2345 108.265 20.2545C86.1554 20.2545 64.0454 20.2545 41.2654 20.2545C41.5954 18.9345 41.9254 17.6145 42.2654 16.2545C42.8252 16.2702 43.3851 16.2859 43.9619 16.3021C46.5005 16.3645 49.0389 16.4035 51.5779 16.442C52.459 16.4672 53.34 16.4923 54.2478 16.5182C55.0954 16.5279 55.9429 16.5375 56.8162 16.5475C57.5964 16.5632 58.3767 16.5789 59.1807 16.5951C61.363 16.4496 61.363 16.4496 62.731 14.7611C64.8734 12.6576 66.3056 12.8674 69.2654 12.8561Z" fill="#9B9B9B"/>
<path d="M111.265 20.2545C111.595 20.2545 111.925 20.2545 112.265 20.2545C112.265 35.1045 112.265 49.9545 112.265 65.2545C115.235 62.9445 118.205 60.6345 121.265 58.2545C121.925 58.2545 122.585 58.2545 123.265 58.2545C123.265 48.3545 123.265 38.4545 123.265 28.2545C123.595 28.2545 123.925 28.2545 124.265 28.2545C124.265 37.8245 124.265 47.3945 124.265 57.2545C124.925 57.2545 125.585 57.2545 126.265 57.2545C124.914 61.3085 122.144 62.8802 118.828 65.317C114.375 68.5808 114.375 68.5808 110.265 72.2545C107.226 72.4498 107.226 72.4498 103.64 72.3795C101.858 72.3524 101.858 72.3524 100.039 72.3248C98.666 72.29 98.666 72.29 97.2654 72.2545C97.2654 71.9245 97.2654 71.5945 97.2654 71.2545C91.6554 70.9245 86.0454 70.5945 80.2654 70.2545C82.2654 65.2545 82.2654 65.2545 83.2654 64.2545C85.1921 64.167 87.1219 64.1475 89.0505 64.1569C90.8053 64.1617 90.8053 64.1617 92.5955 64.1666C94.443 64.1792 94.443 64.1792 96.3279 64.192C98.1812 64.1988 98.1812 64.1988 100.072 64.2057C103.137 64.2175 106.201 64.234 109.265 64.2545C109.595 64.9145 109.925 65.5745 110.265 66.2545C110.595 51.0745 110.925 35.8945 111.265 20.2545Z" fill="#292928"/>
<path d="M65.2654 103.255C65.9254 103.255 66.5854 103.255 67.2654 103.255C68.4162 121.91 68.4162 121.91 65.7068 127.43C63.9932 129.316 62.3882 130.852 60.2654 132.255C56.1385 131.504 52.8745 130.469 49.2654 128.255C48.2029 126.38 48.2029 126.38 48.2654 124.255C50.6546 119.468 54.2297 115.892 57.8904 112.067C59.0721 110.825 60.2519 109.582 61.4295 108.337C61.9498 107.792 62.4701 107.248 63.0061 106.687C64.3693 105.259 64.3693 105.259 65.2654 103.255Z" fill="#9B9B9C"/>
<path d="M83.2654 84.2545C83.5954 84.2545 83.9254 84.2545 84.2654 84.2545C84.2904 85.4191 84.3155 86.5837 84.3413 87.7836C84.4361 92.1391 84.5361 96.4946 84.6377 100.85C84.6808 102.729 84.7225 104.607 84.7627 106.486C84.821 109.199 84.8845 111.912 84.949 114.626C84.9657 115.454 84.9824 116.283 84.9996 117.136C85.1193 121.937 85.4977 126.584 86.2409 131.331C86.2654 133.255 86.2654 133.255 84.3904 136.255C80.3624 138.832 77.041 139.709 72.2654 139.255C69.0205 137.544 66.8397 135.829 64.2654 133.255C64.4529 131.255 64.4529 131.255 65.2654 129.255C66.2554 128.595 67.2454 127.935 68.2654 127.255C68.9254 128.905 69.5854 130.555 70.2654 132.255C71.2554 131.76 71.2554 131.76 72.2654 131.255C71.9354 130.925 71.6054 130.595 71.2654 130.255C71.2247 128.588 71.2227 126.921 71.2654 125.255C70.6054 125.255 69.9454 125.255 69.2654 125.255C69.2654 124.595 69.2654 123.935 69.2654 123.255C71.2445 123.228 73.2237 123.208 75.2029 123.192C76.305 123.18 77.4072 123.169 78.5427 123.157C81.2654 123.255 81.2654 123.255 82.2654 124.255C82.5954 111.055 82.9254 97.8545 83.2654 84.2545Z" fill="#2E2C2A"/>
<path d="M83.2654 77.2545C85.5754 77.2545 87.8854 77.2545 90.2654 77.2545C89.296 78.1001 88.3266 78.9458 87.3279 79.817C83.1143 84.5943 83.4949 90.0829 83.3708 96.1217C83.2654 99.2545 83.2654 99.2545 82.2654 100.255C82.0335 101.769 81.8532 103.292 81.7029 104.817C81.5585 106.281 81.4141 107.746 81.2654 109.255C75.3254 109.75 75.3254 109.75 69.2654 110.255C69.0701 103.419 69.0701 103.419 69.2654 101.255C71.6249 98.895 73.0443 98.7631 76.2654 98.2545C74.9454 97.5945 73.6254 96.9345 72.2654 96.2545C70.9454 97.2445 69.6254 98.2345 68.2654 99.2545C68.2654 96.2545 68.2654 96.2545 69.7693 94.4928C70.4486 93.8573 71.128 93.2218 71.8279 92.567C74.7303 89.7629 77.5613 86.9392 80.2654 83.942C81.1316 82.9888 81.1316 82.9888 82.0154 82.0162C83.5547 80.2068 83.5547 80.2068 83.2654 77.2545Z" fill="#14130F"/>
<path d="M40.2654 23.2545C40.5954 23.2545 40.9254 23.2545 41.2654 23.2545C41.2654 36.1245 41.2654 48.9945 41.2654 62.2545C47.7004 61.7595 47.7004 61.7595 54.2654 61.2545C55.9154 56.3045 57.5654 51.3545 59.2654 46.2545C70.8154 46.2545 82.3654 46.2545 94.2654 46.2545C92.8076 52.0858 89.5546 56.231 86.2654 61.2545C93.8554 61.5845 101.445 61.9145 109.265 62.2545C109.265 62.5845 109.265 62.9145 109.265 63.2545C101.015 63.2545 92.7654 63.2545 84.2654 63.2545C84.2654 62.5945 84.2654 61.9345 84.2654 61.2545C83.2754 60.7595 83.2754 60.7595 82.2654 60.2545C85.7304 54.8095 85.7304 54.8095 89.2654 49.2545C80.0254 49.2545 70.7854 49.2545 61.2654 49.2545C59.9454 54.5345 58.6254 59.8145 57.2654 65.2545C56.9354 64.5945 56.6054 63.9345 56.2654 63.2545C50.9854 63.2545 45.7054 63.2545 40.2654 63.2545C40.2654 50.0545 40.2654 36.8545 40.2654 23.2545Z" fill="#272827"/>
<path d="M109.265 23.2545C109.595 23.2545 109.925 23.2545 110.265 23.2545C110.595 37.4445 110.925 51.6345 111.265 66.2545C110.275 66.7495 110.275 66.7495 109.265 67.2545C109.265 66.2645 109.265 65.2745 109.265 64.2545C104.993 64.2773 100.724 64.3545 96.4529 64.442C95.2379 64.4478 94.023 64.4536 92.7712 64.4596C91.6079 64.4886 90.4445 64.5176 89.2458 64.5475C88.1723 64.5632 87.0988 64.5789 85.9927 64.5951C85.0927 64.8127 84.1927 65.0303 83.2654 65.2545C81.7804 67.7295 81.7804 67.7295 80.2654 70.2545C89.1754 70.2545 98.0854 70.2545 107.265 70.2545C107.265 70.5845 107.265 70.9145 107.265 71.2545C99.2528 72.2884 91.3363 72.3592 83.2654 72.2545C83.2654 73.5745 83.2654 74.8945 83.2654 76.2545C85.5754 76.2545 87.8854 76.2545 90.2654 76.2545C90.2654 76.5845 90.2654 76.9145 90.2654 77.2545C87.2954 77.7495 87.2954 77.7495 84.2654 78.2545C84.2654 78.5845 84.2654 78.9145 84.2654 79.2545C80.3054 79.2545 76.3454 79.2545 72.2654 79.2545C72.2654 75.291 72.2658 74.7486 74.3826 71.8014C75.0458 70.8733 75.0458 70.8733 75.7224 69.9264C76.1903 69.2922 76.6583 68.658 77.1404 68.0045C77.8307 67.03 77.8307 67.03 78.5349 66.0358C79.7212 64.399 80.9878 62.8211 82.2654 61.2545C82.9254 61.2545 83.5854 61.2545 84.2654 61.2545C84.2654 61.9145 84.2654 62.5745 84.2654 63.2545C92.5154 63.2545 100.765 63.2545 109.265 63.2545C109.265 50.0545 109.265 36.8545 109.265 23.2545Z" fill="#242017"/>
<path d="M69.2654 123.255C69.2654 123.915 69.2654 124.575 69.2654 125.255C69.9254 125.255 70.5854 125.255 71.2654 125.255C71.9254 127.565 72.5854 129.875 73.2654 132.255C71.9454 132.255 70.6254 132.255 69.2654 132.255C68.6054 130.935 67.9454 129.615 67.2654 128.255C66.6054 128.915 65.9454 129.575 65.2654 130.255C65.1323 132.238 65.1323 132.238 66.2654 134.255C68.8877 136.68 70.8906 138.152 74.5232 138.422C78.2065 138.161 80.6881 137.621 83.8279 135.63C85.7763 132.41 85.5492 129.944 85.2654 126.255C87.8574 127.794 89.0795 128.629 89.9529 131.567C88.8718 135.793 85.7598 137.833 82.2654 140.255C78.6551 142.254 76.4425 142.885 72.2654 142.255C68.2339 140.038 64.5215 137.511 61.2654 134.255C60.7654 132.005 60.7654 132.005 61.2654 129.255C65.8677 123.255 65.8677 123.255 69.2654 123.255Z" fill="#11110F"/>
<path d="M34.2654 19.2545C34.9254 19.5845 35.5854 19.9145 36.2654 20.2545C35.1156 23.4741 34.2976 24.2365 31.2298 25.9606C27.9768 27.9838 27.9768 27.9838 27.4925 31.4625C27.482 32.6984 27.4715 33.9343 27.4607 35.2076C27.447 35.8679 27.4333 36.5281 27.4192 37.2083C27.3819 39.3077 27.3856 41.4048 27.3904 43.5045C27.3723 44.9316 27.3515 46.3587 27.3279 47.7858C27.2761 51.2755 27.261 54.7643 27.2654 58.2545C27.879 58.551 28.4926 58.8475 29.1248 59.153C31.3797 60.3133 33.2747 61.6904 35.2654 63.2545C34.9354 64.2445 34.6054 65.2345 34.2654 66.2545C32.7853 65.2768 31.3064 64.2973 29.8279 63.317C28.5924 62.4991 28.5924 62.4991 27.3318 61.6647C25.2654 60.2545 25.2654 60.2545 24.2654 59.2545C23.8531 54.8254 23.7373 50.3917 23.6407 45.9467C23.5992 44.4554 23.5379 42.9646 23.4561 41.475C22.7864 29.0827 22.7864 29.0827 26.5403 24.4425C29.0313 22.4489 31.4633 20.7727 34.2654 19.2545Z" fill="#1F1E1E"/>
<path d="M80.2654 111.255C81.2654 112.255 81.2654 112.255 81.363 114.54C81.3142 118.397 81.3142 118.397 81.2654 122.255C77.3054 122.255 73.3454 122.255 69.2654 122.255C69.2654 118.955 69.2654 115.655 69.2654 112.255C72.978 111.564 76.4846 111.038 80.2654 111.255Z" fill="#5F412A"/>
<path d="M67.2654 127.255C67.9254 128.245 68.5854 129.235 69.2654 130.255C70.4524 132.025 70.4524 132.025 72.2654 133.255C76.3433 133.679 77.7961 133.567 81.2654 131.255C81.9892 129.195 81.9892 129.195 82.2654 127.255C82.9254 127.255 83.5854 127.255 84.2654 127.255C86.2654 130.255 86.2654 130.255 86.1404 132.192C84.906 135.102 83.8524 136.379 81.2654 138.255C76.462 139.688 73.3078 139.804 68.8279 137.442C66.2654 135.255 66.2654 135.255 64.2654 133.255C64.6322 130.32 65.1298 129.39 67.2654 127.255Z" fill="#949292"/>
<path d="M72.7693 100.157C74.2833 100.174 74.2833 100.174 75.8279 100.192C76.8398 100.201 77.8517 100.21 78.8943 100.219C80.068 100.237 80.068 100.237 81.2654 100.255C81.2654 103.225 81.2654 106.195 81.2654 109.255C75.3254 109.75 75.3254 109.75 69.2654 110.255C69.1677 103.321 69.1677 103.321 69.2654 101.255C70.2654 100.255 70.2654 100.255 72.7693 100.157Z" fill="#5D422A"/>
<path d="M42.2654 64.2545C44.2236 64.2276 46.182 64.2081 48.1404 64.192C49.2309 64.1804 50.3215 64.1688 51.4451 64.1569C54.2654 64.2545 54.2654 64.2545 56.2654 65.2545C55.2754 68.2245 54.2854 71.1945 53.2654 74.2545C52.6054 74.2545 51.9454 74.2545 51.2654 74.2545C51.2654 73.2645 51.2654 72.2745 51.2654 71.2545C50.1091 71.2893 50.1091 71.2893 48.9294 71.3248C47.9266 71.3429 46.9237 71.3609 45.8904 71.3795C44.8926 71.4027 43.8949 71.4259 42.8669 71.4498C40.2654 71.2545 40.2654 71.2545 38.2654 69.2545C38.9254 69.2545 39.5854 69.2545 40.2654 69.2545C40.9254 67.6045 41.5854 65.9545 42.2654 64.2545Z" fill="#1C1C19"/>
<path d="M82.2654 65.2545C90.8454 65.2545 99.4254 65.2545 108.265 65.2545C108.265 66.5745 108.265 67.8945 108.265 69.2545C99.3554 69.2545 90.4454 69.2545 81.2654 69.2545C81.5954 67.9345 81.9254 66.6145 82.2654 65.2545Z" fill="#A6A6A7"/>
<path d="M109.265 23.2545C109.595 23.2545 109.925 23.2545 110.265 23.2545C110.595 37.4445 110.925 51.6345 111.265 66.2545C110.275 66.7495 110.275 66.7495 109.265 67.2545C109.265 66.2645 109.265 65.2745 109.265 64.2545C105.035 64.1901 100.809 64.2142 96.5779 64.2545C95.3797 64.2352 94.1815 64.2158 92.947 64.1959C86.5915 64.074 86.5915 64.074 81.3528 67.1022C80.122 69.1112 79.179 71.0887 78.2654 73.2545C77.9354 73.2545 77.6054 73.2545 77.2654 73.2545C77.6764 68.0135 78.5058 65.0141 82.2654 61.2545C82.9254 61.2545 83.5854 61.2545 84.2654 61.2545C84.2654 61.9145 84.2654 62.5745 84.2654 63.2545C92.5154 63.2545 100.765 63.2545 109.265 63.2545C109.265 50.0545 109.265 36.8545 109.265 23.2545Z" fill="#111011"/>
<path d="M40.2654 23.2545C40.5954 23.2545 40.9254 23.2545 41.2654 23.2545C41.2654 36.1245 41.2654 48.9945 41.2654 62.2545C47.7004 61.7595 47.7004 61.7595 54.2654 61.2545C55.5854 57.2945 56.9054 53.3345 58.2654 49.2545C59.2554 49.9145 60.2454 50.5745 61.2654 51.2545C59.2854 58.1845 59.2854 58.1845 57.2654 65.2545C56.9354 64.5945 56.6054 63.9345 56.2654 63.2545C50.9854 63.2545 45.7054 63.2545 40.2654 63.2545C40.2654 50.0545 40.2654 36.8545 40.2654 23.2545Z" fill="#2C2A27"/>
<path d="M34.2654 19.2545C34.9254 19.5845 35.5854 19.9145 36.2654 20.2545C35.0913 23.7767 34.1709 24.3022 30.7341 26.0358C27.999 27.9388 27.3481 28.8901 26.5996 32.1893C26.3507 35.83 26.2958 39.418 26.3279 43.067C26.3118 44.3322 26.2957 45.5974 26.2791 46.901C26.2438 50.0199 26.2403 53.1356 26.2654 56.2545C25.9354 56.2545 25.6054 56.2545 25.2654 56.2545C24.9219 52.2734 24.6422 48.2929 24.4075 44.3038C24.2675 42.2842 24.0602 40.2794 23.8474 38.2662C23.176 28.5843 23.176 28.5843 26.4959 24.5319C29.0007 22.5287 31.4682 20.8179 34.2654 19.2545Z" fill="#0B0B0A"/>
<path d="M64.2654 11.2545C68.2237 11.1967 72.1818 11.161 76.1404 11.1295C77.2683 11.1128 78.3962 11.096 79.5583 11.0787C80.6347 11.0723 81.7111 11.0658 82.8201 11.0592C83.8151 11.0487 84.8101 11.0383 85.8352 11.0275C88.2654 11.2545 88.2654 11.2545 90.2654 13.2545C92.394 13.624 92.394 13.624 94.8357 13.6686C95.7316 13.7073 96.6275 13.7459 97.5505 13.7858C98.4877 13.8167 99.4248 13.8476 100.39 13.8795C101.808 13.9375 101.808 13.9375 103.254 13.9967C105.591 14.0911 107.928 14.1767 110.265 14.2545C109.935 14.9145 109.605 15.5745 109.265 16.2545C106.017 16.539 102.768 16.776 99.5154 17.0045C98.595 17.0857 97.6746 17.1669 96.7263 17.2506C94.1838 17.4164 91.7995 17.528 89.2654 17.2545C87.9214 15.9319 86.5885 14.598 85.2654 13.2545C81.698 12.5836 78.1379 12.5576 74.5154 12.5045C73.5318 12.4749 72.5483 12.4452 71.5349 12.4147C69.1117 12.3441 66.6893 12.2913 64.2654 12.2545C64.2654 11.9245 64.2654 11.5945 64.2654 11.2545Z" fill="#060606"/>
<path d="M41.2654 71.2545C44.5654 71.2545 47.8654 71.2545 51.2654 71.2545C51.2654 72.2445 51.2654 73.2345 51.2654 74.2545C51.9254 74.2545 52.5854 74.2545 53.2654 74.2545C51.7009 79.8689 50.1014 85.1226 47.2654 90.2545C50.5654 90.5845 53.8654 90.9145 57.2654 91.2545C56.9354 91.9145 56.6054 92.5745 56.2654 93.2545C52.6354 92.9245 49.0054 92.5945 45.2654 92.2545C45.8105 85.1675 47.8746 78.9266 50.2654 72.2545C47.2954 72.2545 44.3254 72.2545 41.2654 72.2545C41.2654 71.9245 41.2654 71.5945 41.2654 71.2545Z" fill="#292726"/>
<path d="M65.2654 100.255C65.9254 101.245 66.5854 102.235 67.2654 103.255C66.6054 103.255 65.9454 103.255 65.2654 103.255C65.0514 103.786 64.8374 104.317 64.6169 104.864C62.7519 108.163 60.2231 110.764 57.6404 113.505C57.1248 114.059 56.6091 114.613 56.0779 115.184C54.8111 116.545 53.5388 117.9 52.2654 119.255C51.2754 118.595 50.2854 117.935 49.2654 117.255C51.5565 114.796 53.8483 112.338 56.1404 109.88C56.7914 109.181 57.4423 108.482 58.113 107.762C58.7382 107.092 59.3634 106.422 60.0076 105.731C60.5836 105.113 61.1597 104.495 61.7532 103.859C62.9039 102.638 64.0792 101.441 65.2654 100.255Z" fill="#13130F"/>
<path d="M85.2654 126.255C87.8574 127.794 89.0795 128.629 89.9529 131.567C88.8718 135.793 85.7598 137.833 82.2654 140.255C78.773 142.263 76.3028 142.438 72.2654 142.255C72.2654 141.925 72.2654 141.595 72.2654 141.255C73.0698 141.131 73.8741 141.007 74.7029 140.88C75.5485 140.673 76.3941 140.467 77.2654 140.255C77.5954 139.595 77.9254 138.935 78.2654 138.255C79.9207 137.236 81.588 136.236 83.2654 135.255C85.6766 133.298 85.6766 133.298 85.3904 129.63C85.3491 128.516 85.3079 127.402 85.2654 126.255Z" fill="#171717"/>
<path d="M70.2654 124.255C73.5654 124.255 76.8654 124.255 80.2654 124.255C79.9354 126.235 79.6054 128.215 79.2654 130.255C76.9554 130.585 74.6454 130.915 72.2654 131.255C71.6054 128.945 70.9454 126.635 70.2654 124.255Z" fill="#71533F"/>
<path d="M80.2654 70.2545C89.1754 70.2545 98.0854 70.2545 107.265 70.2545C107.265 70.5845 107.265 70.9145 107.265 71.2545C98.9094 72.3555 90.6773 72.3555 82.2654 72.2545C82.2654 74.2345 82.2654 76.2145 82.2654 78.2545C81.6054 78.2545 80.9454 78.2545 80.2654 78.2545C80.2654 75.6145 80.2654 72.9745 80.2654 70.2545Z" fill="#080707"/>
<path d="M59.2654 47.2545C69.4954 47.2545 79.7254 47.2545 90.2654 47.2545C90.2654 47.5845 90.2654 47.9145 90.2654 48.2545C83.6031 49.2074 76.9874 49.5604 70.2654 49.817C69.2045 49.8602 68.1436 49.9034 67.0505 49.9479C64.4556 50.0531 61.8606 50.1552 59.2654 50.2545C59.2654 49.2645 59.2654 48.2745 59.2654 47.2545Z" fill="#060606"/>
<path d="M52.2654 101.255C53.4138 102.907 53.4138 102.907 54.2654 105.255C53.3669 107.946 53.3669 107.946 51.8904 110.817C49.7769 114.834 49.7769 114.834 49.2654 119.255C47.9454 119.255 46.6254 119.255 45.2654 119.255C47.2016 113.05 49.5215 107.146 52.2654 101.255Z" fill="#1B1612"/>
<path d="M109.265 19.2545C109.925 19.5845 110.585 19.9145 111.265 20.2545C111.265 33.4545 111.265 46.6545 111.265 60.2545C110.935 60.2545 110.605 60.2545 110.265 60.2545C110.265 48.0445 110.265 35.8345 110.265 23.2545C108.615 22.9245 106.965 22.5945 105.265 22.2545C106.585 21.9245 107.905 21.5945 109.265 21.2545C109.265 20.5945 109.265 19.9345 109.265 19.2545Z" fill="#060506"/>
<path d="M79.2654 88.2545C79.9254 88.2545 80.5854 88.2545 81.2654 88.2545C81.2654 91.2245 81.2654 94.1945 81.2654 97.2545C78.2954 97.2545 75.3254 97.2545 72.2654 97.2545C75.9763 91.7858 75.9763 91.7858 77.2654 90.2545C77.9254 90.2545 78.5854 90.2545 79.2654 90.2545C79.2654 89.5945 79.2654 88.9345 79.2654 88.2545Z" fill="#5E422B"/>
<path d="M42.2654 16.2545C47.8754 16.2545 53.4854 16.2545 59.2654 16.2545C56.0381 19.4818 54.8164 20.2026 50.3474 20.3522C48.729 20.3348 48.729 20.3348 47.0779 20.317C45.4479 20.3035 45.4479 20.3035 43.7849 20.2897C42.9535 20.2781 42.122 20.2665 41.2654 20.2545C41.5954 18.9345 41.9254 17.6145 42.2654 16.2545Z" fill="#858585"/>
<path d="M92.2654 17.2545C97.5454 17.2545 102.825 17.2545 108.265 17.2545C108.265 18.2445 108.265 19.2345 108.265 20.2545C105.974 20.3353 103.682 20.3936 101.39 20.442C99.4761 20.4942 99.4761 20.4942 97.5232 20.5475C96.4481 20.4508 95.373 20.3541 94.2654 20.2545C93.6054 19.2645 92.9454 18.2745 92.2654 17.2545Z" fill="#A7A7A6"/>
<path d="M42.2654 65.2545C45.8954 65.2545 49.5254 65.2545 53.2654 65.2545C52.9354 66.5745 52.6054 67.8945 52.2654 69.2545C48.9654 69.2545 45.6654 69.2545 42.2654 69.2545C42.2654 67.9345 42.2654 66.6145 42.2654 65.2545Z" fill="#9D9E9C"/>
<path d="M107.265 28.2545C107.595 28.2545 107.925 28.2545 108.265 28.2545C108.595 39.4745 108.925 50.6945 109.265 62.2545C108.275 61.9245 107.285 61.5945 106.265 61.2545C106.595 50.3645 106.925 39.4745 107.265 28.2545Z" fill="#AAA9AA"/>
<path d="M57.2654 92.2545C58.2554 92.5845 59.2454 92.9145 60.2654 93.2545C58.6154 96.5545 56.9654 99.8545 55.2654 103.255C54.6054 103.255 53.9454 103.255 53.2654 103.255C53.7757 98.8654 54.7875 95.9174 57.2654 92.2545Z" fill="#141210"/>
<path d="M67.2654 136.255C68.3173 136.719 68.3173 136.719 69.3904 137.192C72.3547 138.288 75.1424 138.819 78.2654 139.255C77.9354 139.915 77.6054 140.575 77.2654 141.255C70.8654 141.747 70.8654 141.747 67.8279 139.255C67.3123 138.595 66.7966 137.935 66.2654 137.255C66.5954 136.925 66.9254 136.595 67.2654 136.255Z" fill="#0D0C0C"/>
<path d="M57.2654 108.255C57.2654 111.557 56.7346 113.316 55.2654 116.255C53.1404 118.067 53.1404 118.067 51.2654 119.255C50.6054 118.595 49.9454 117.935 49.2654 117.255C51.9054 114.285 54.5454 111.315 57.2654 108.255Z" fill="#272216"/>
<path d="M76.2654 69.2545C76.5954 70.5745 76.9254 71.8945 77.2654 73.2545C77.9254 73.2545 78.5854 73.2545 79.2654 73.2545C79.2654 74.2445 79.2654 75.2345 79.2654 76.2545C76.9554 76.2545 74.6454 76.2545 72.2654 76.2545C73.5854 73.9445 74.9054 71.6345 76.2654 69.2545Z" fill="#37301C"/>
<path d="M61.2654 129.255C61.5954 129.915 61.9254 130.575 62.2654 131.255C62.9254 131.255 63.5854 131.255 64.2654 131.255C65.9529 133.067 65.9529 133.067 67.2654 135.255C66.9354 136.245 66.6054 137.235 66.2654 138.255C63.7654 136.567 63.7654 136.567 61.2654 134.255C60.9529 131.505 60.9529 131.505 61.2654 129.255Z" fill="#181817"/>
<path d="M72.2654 87.2545C73.2554 88.2445 74.2454 89.2345 75.2654 90.2545C73.6154 91.5745 71.9654 92.8945 70.2654 94.2545C69.5779 92.442 69.5779 92.442 69.2654 90.2545C70.7029 88.5045 70.7029 88.5045 72.2654 87.2545Z" fill="#E6C228"/>
<path d="M48.2654 110.255C50.3549 114.434 50.4309 115.059 49.2654 119.255C47.9454 119.255 46.6254 119.255 45.2654 119.255C46.2554 116.285 47.2454 113.315 48.2654 110.255Z" fill="#231D16"/>
<path d="M79.2654 88.2545C79.9254 88.2545 80.5854 88.2545 81.2654 88.2545C81.2654 91.2245 81.2654 94.1945 81.2654 97.2545C80.9354 97.2545 80.6054 97.2545 80.2654 97.2545C79.9354 95.6045 79.6054 93.9545 79.2654 92.2545C77.2854 93.2445 77.2854 93.2445 75.2654 94.2545C75.9254 92.9345 76.5854 91.6145 77.2654 90.2545C77.9254 90.2545 78.5854 90.2545 79.2654 90.2545C79.2654 89.5945 79.2654 88.9345 79.2654 88.2545Z" fill="#513B29"/>
<path d="M83.2654 77.2545C85.5754 77.2545 87.8854 77.2545 90.2654 77.2545C88.9848 78.962 87.6477 80.6283 86.2654 82.2545C85.6054 82.2545 84.9454 82.2545 84.2654 82.2545C83.9354 80.6045 83.6054 78.9545 83.2654 77.2545Z" fill="#060606"/>
<path d="M126.265 57.2545C125.02 60.9909 123.631 61.4421 120.265 63.2545C120.265 61.9345 120.265 60.6145 120.265 59.2545C123.265 57.2545 123.265 57.2545 126.265 57.2545Z" fill="#1B1B1A"/>
<path d="M82.2654 65.2545C85.5654 65.2545 88.8654 65.2545 92.2654 65.2545C92.2654 65.5845 92.2654 65.9145 92.2654 66.2545C89.9554 66.5845 87.6454 66.9145 85.2654 67.2545C85.2654 67.9145 85.2654 68.5745 85.2654 69.2545C83.9454 69.2545 82.6254 69.2545 81.2654 69.2545C81.5954 67.9345 81.9254 66.6145 82.2654 65.2545Z" fill="#98989A"/>
<path d="M43.2654 70.2545C46.8954 70.2545 50.5254 70.2545 54.2654 70.2545C53.9354 71.5745 53.6054 72.8945 53.2654 74.2545C52.6054 74.2545 51.9454 74.2545 51.2654 74.2545C51.2654 73.2645 51.2654 72.2745 51.2654 71.2545C48.6254 71.2545 45.9854 71.2545 43.2654 71.2545C43.2654 70.9245 43.2654 70.5945 43.2654 70.2545Z" fill="#030305"/>
</svg>
