<svg width="154" height="153" viewBox="0 0 154 153" fill="none" xmlns="http://www.w3.org/2000/svg">
<path d="M117.66 11.9298C121.21 14.3863 124.457 17.0403 127.66 19.9298C128.345 20.5215 129.029 21.1132 129.735 21.7228C139.077 30.3306 145.565 42.0118 149.66 53.9298C149.979 54.8244 150.297 55.719 150.625 56.6407C156.272 75.2199 152.462 95.2008 144.41 112.43C134.746 130.378 118.242 144.013 98.6605 149.93C77.6652 155.41 57.7321 153.554 38.6175 143.297C20.372 132.231 8.08558 115.667 2.16049 95.3048C-2.81833 74.5554 0.996687 54.1396 11.6605 35.9298C13.7798 32.7009 16.0816 29.8022 18.6605 26.9298C19.3772 26.1203 20.0939 25.3107 20.8324 24.4767C31.0072 13.6368 42.497 7.16354 56.6605 2.9298C57.7033 2.565 58.7462 2.20019 59.8206 1.82434C79.6864 -2.8036 100.413 1.6651 117.66 11.9298Z" fill="#D73031"/>
<path d="M117.66 11.9298C121.21 14.3863 124.457 17.0403 127.66 19.9298C128.345 20.5215 129.029 21.1132 129.735 21.7228C139.077 30.3306 145.565 42.0118 149.66 53.9298C149.979 54.8244 150.297 55.719 150.625 56.6407C156.272 75.2199 152.462 95.2008 144.41 112.43C134.746 130.378 118.242 144.013 98.6605 149.93C77.6652 155.41 57.7321 153.554 38.6175 143.297C20.372 132.231 8.08558 115.667 2.16049 95.3048C-2.81833 74.5554 0.996687 54.1396 11.6605 35.9298C13.7798 32.7009 16.0816 29.8022 18.6605 26.9298C19.3772 26.1203 20.0939 25.3107 20.8324 24.4767C31.0072 13.6368 42.497 7.16354 56.6605 2.9298C57.7033 2.565 58.7462 2.20019 59.8206 1.82434C79.6864 -2.8036 100.413 1.6651 117.66 11.9298ZM35.7855 19.6798C30.2608 28.1293 29.0655 35.7513 29.1644 45.7267C29.1629 46.9191 29.1615 48.1115 29.16 49.34C29.1616 51.8444 29.1731 54.3488 29.1939 56.8531C29.223 60.6825 29.2145 64.5105 29.2015 68.34C29.2077 70.7814 29.2161 73.2228 29.2269 75.6642C29.224 76.8049 29.221 77.9456 29.218 79.1209C29.2952 85.6207 29.6103 90.5925 34.1956 95.6095C37.0828 98.1223 37.0828 98.1223 40.6605 98.9298C40.6134 99.5491 40.5662 100.168 40.5177 100.807C39.4061 112.772 39.4061 112.772 42.2074 124.149C44.5455 126.572 46.7635 128.211 49.6605 129.93C50.7665 130.601 51.8725 131.273 53.0121 131.965C64.8792 138.702 77.1822 140.032 90.473 136.492C98.468 133.687 107.062 128.221 111.66 120.93C112.032 118.633 112.032 118.633 111.891 116.192C111.885 115.292 111.879 114.392 111.873 113.465C111.861 112.055 111.861 112.055 111.848 110.617C111.992 100.989 111.992 100.989 114.426 97.1329C116.598 95.3673 116.598 95.3673 118.75 94.1134C121.149 92.6271 121.622 91.5389 122.66 88.9298C122.975 86.3834 122.975 86.3834 122.951 83.6014C122.964 82.5361 122.977 81.4708 122.99 80.3731C122.992 79.2252 122.994 78.0773 122.996 76.8946C123.003 75.7056 123.01 74.5166 123.017 73.2915C123.027 70.7723 123.031 68.253 123.031 65.7338C123.035 61.9061 123.072 58.0796 123.11 54.2521C123.116 51.7996 123.12 49.3471 123.121 46.8946C123.136 45.7609 123.15 44.6272 123.165 43.4591C123.111 33.8747 121.281 24.5193 114.383 17.4181C102.466 7.12212 84.1689 5.71158 69.0438 6.70226C56.4706 7.90266 45.1134 10.7575 35.7855 19.6798Z" fill="#D82D2F"/>
<path d="M111.68 15.2384C118.347 20.9324 122.086 28.0715 122.944 36.8255C123.055 40.1086 123.077 43.3793 123.059 46.6642C123.062 47.8604 123.065 49.0566 123.068 50.289C123.07 52.8035 123.064 55.3181 123.052 57.8326C123.036 61.6818 123.052 65.5299 123.071 69.379C123.069 71.8282 123.065 74.2775 123.059 76.7267C123.065 77.8757 123.071 79.0247 123.077 80.2085C123.063 81.8161 123.063 81.8161 123.049 83.4562C123.046 84.395 123.044 85.3338 123.042 86.3011C122.482 90.161 120.914 92.934 117.858 95.3614C117.249 95.7656 116.64 96.1697 116.012 96.5861C113.749 98.4462 112.789 99.4073 112.081 102.277C111.928 105.015 111.936 107.69 112.036 110.43C112.324 120.764 112.324 120.764 109.489 124.324C97.8137 135.08 86.2516 138.811 70.6879 138.277C61.9309 137.71 54.3994 133.364 47.6606 127.93C47.0629 127.482 46.4652 127.034 45.8493 126.573C42.8695 124.061 40.9298 122.191 40.0998 118.302C39.9728 115.336 40.0477 112.456 40.2231 109.492C40.2547 108.475 40.2863 107.457 40.3188 106.408C40.4008 103.912 40.5155 101.423 40.6606 98.9298C39.8923 98.6604 39.124 98.391 38.3325 98.1134C34.482 96.4077 33.1421 94.3075 30.6606 90.9298C29.6564 87.9172 29.5166 85.8505 29.4836 82.6991C29.4708 81.6305 29.4579 80.5618 29.4447 79.4608C29.4373 78.3046 29.4299 77.1484 29.4223 75.9571C29.4142 74.7643 29.4062 73.5715 29.3979 72.3425C29.384 69.8131 29.3733 67.2837 29.3654 64.7543C29.3483 60.9068 29.3044 57.0602 29.2602 53.213C29.2501 50.7527 29.2416 48.2924 29.2348 45.8321C29.2173 44.6901 29.1998 43.5481 29.1818 42.3714C29.2067 33.0687 31.1561 24.4713 37.727 17.5236C55.7314 2.68359 92.3801 1.98415 111.68 15.2384ZM39.7504 19.8165C34.7075 24.916 32.5552 31.2559 32.4836 38.3317C32.4708 39.4365 32.4579 40.5413 32.4447 41.6795C32.4373 42.8733 32.4299 44.0671 32.4223 45.297C32.4142 46.5239 32.4062 47.7507 32.3979 49.0148C32.384 51.6123 32.3733 54.2097 32.3654 56.8072C32.3482 60.782 32.3043 64.756 32.2602 68.7306C32.2501 71.2527 32.2416 73.7748 32.2348 76.297C32.2173 77.4867 32.1998 78.6764 32.1818 79.9022C32.1459 86.3121 32.1459 86.3121 34.4873 92.1503C37.2554 94.4168 39.9429 95.0611 43.3481 96.1173C47.9383 98.3616 47.9383 98.3616 49.6606 100.93C50.7229 106.418 50.499 111.958 50.0871 117.511C49.9238 120.871 49.8665 123.656 50.6606 126.93C56.6332 133.127 65.7284 135.137 74.0686 135.36C84.2566 135.393 92.0225 133.689 100.661 127.93C101.078 125.117 101.078 125.117 100.954 121.828C100.944 120.617 100.934 119.405 100.924 118.156C100.899 116.885 100.874 115.614 100.848 114.305C100.835 113.026 100.821 111.747 100.807 110.43C100.772 107.263 100.722 104.096 100.661 100.93C101.606 100.618 102.551 100.305 103.526 99.9835C106.01 99.1485 108.354 98.2889 110.723 97.1798C111.353 96.8962 111.984 96.6126 112.633 96.3204C115.68 94.2305 117.941 92.1949 119.661 88.9298C120.397 84.757 120.338 80.6385 120.29 76.4103C120.292 75.1971 120.294 73.984 120.297 72.7341C120.296 70.1713 120.282 67.6085 120.258 65.0458C120.223 61.1411 120.237 57.2388 120.256 53.3341C120.249 50.8386 120.24 48.3432 120.227 45.8478C120.232 44.6881 120.237 43.5285 120.242 42.3337C120.1 32.4922 117.688 24.9568 110.661 17.9298C106.942 15.5074 106.942 15.5074 102.673 15.0675C99.8057 16.2962 99.0653 17.9754 97.5317 20.6642C96.9716 21.631 96.4115 22.5978 95.8344 23.5939C95.2614 24.6122 94.6885 25.6306 94.0981 26.6798C93.5212 27.6827 92.9444 28.6856 92.3501 29.7189C91.2712 31.5954 90.1976 33.475 89.1311 35.3585C88.6458 36.207 88.1606 37.0556 87.6606 37.9298C86.8897 39.2837 86.8897 39.2837 86.1032 40.6649C84.6606 42.9298 84.6606 42.9298 82.5825 44.4337C80.1122 46.3567 79.7203 47.8759 78.9106 50.8673C78.6683 51.722 78.4259 52.5766 78.1762 53.4571C77.5245 56.1615 77.5245 56.1615 77.6606 59.9298C76.6706 59.9298 75.6806 59.9298 74.6606 59.9298C74.7147 58.8489 74.7147 58.8489 74.77 57.7462C74.6528 54.7302 74.0321 52.6581 72.9106 49.8673C72.4233 48.6124 72.4233 48.6124 71.9262 47.3321C70.7867 44.8629 70.7867 44.8629 68.8 43.1437C66.3843 40.6439 64.872 38.1313 63.1645 35.1056C62.5232 33.9951 61.8819 32.8845 61.2211 31.7403C60.2159 29.9863 59.2161 28.2298 58.2268 26.4667C57.2624 24.7546 56.2762 23.0549 55.2895 21.3556C54.7127 20.3389 54.136 19.3222 53.5417 18.2748C51.8475 15.7406 51.8475 15.7406 49.0786 15.0187C44.9393 14.8665 42.8089 17.2771 39.7504 19.8165Z" fill="#191210"/>
<path d="M106.661 13.9298C110.909 14.42 113.797 16.9426 116.661 19.9298C122.667 28.12 122.969 36.6335 122.961 46.4689C122.966 47.6679 122.97 48.8669 122.974 50.1023C122.98 52.6288 122.981 55.1553 122.976 57.6818C122.973 61.5486 122.997 65.4146 123.022 69.2814C123.024 71.7397 123.025 74.198 123.024 76.6564C123.033 77.8117 123.042 78.967 123.052 80.1573C123.046 81.2354 123.039 82.3136 123.033 83.4244C123.034 84.3693 123.034 85.3141 123.035 86.2876C122.487 90.1585 120.921 92.9284 117.858 95.3615C117.249 95.7656 116.64 96.1697 116.012 96.5861C113.749 98.4462 112.789 99.4073 112.081 102.277C111.928 105.015 111.936 107.69 112.036 110.43C112.324 120.764 112.324 120.764 109.489 124.324C97.8137 135.08 86.2516 138.811 70.6879 138.277C61.9309 137.71 54.3994 133.364 47.6606 127.93C47.0629 127.482 46.4652 127.034 45.8493 126.573C42.8695 124.061 40.9298 122.191 40.0998 118.302C39.9728 115.336 40.0477 112.456 40.2231 109.492C40.2547 108.475 40.2863 107.457 40.3188 106.408C40.4008 103.912 40.5155 101.423 40.6606 98.9298C39.8923 98.6604 39.124 98.391 38.3325 98.1134C34.482 96.4077 33.1421 94.3075 30.6606 90.9298C29.6564 87.9172 29.5166 85.8505 29.4836 82.6991C29.4708 81.6305 29.4579 80.5618 29.4447 79.4608C29.4373 78.3046 29.4299 77.1484 29.4223 75.9572C29.4142 74.7643 29.4062 73.5715 29.3979 72.3425C29.384 69.8131 29.3733 67.2837 29.3654 64.7543C29.3483 60.9068 29.3044 57.0602 29.2602 53.213C29.2501 50.7527 29.2416 48.2924 29.2348 45.8322C29.2173 44.6901 29.1998 43.5481 29.1818 42.3714C29.2051 33.6709 30.8259 26.2977 36.2231 19.3048C38.6606 16.9298 38.6606 16.9298 41.6606 16.9298C40.5097 19.4235 39.2371 21.5386 37.6606 23.8048C34.5687 28.6359 33.417 32.9655 33.3542 38.6722C33.3382 39.7768 33.3222 40.8814 33.3058 42.0194C33.3004 43.1977 33.295 44.376 33.2895 45.59C33.2805 46.8126 33.2714 48.0352 33.2621 49.2949C33.2477 51.8744 33.2388 54.454 33.2351 57.0336C33.2231 60.982 33.1739 64.9289 33.1235 68.8771C33.114 71.3855 33.1068 73.894 33.102 76.4025C33.0825 77.5828 33.0629 78.7631 33.0428 79.9791C33.0083 86.5095 33.0083 86.5095 36.0009 92.1437C38.915 94.1007 41.658 94.9961 44.9731 96.1173C48.1645 97.8204 48.1645 97.8204 50.6606 100.93C52.283 109.426 51.3774 118.364 50.6606 126.93C51.4423 127.238 52.2241 127.547 53.0295 127.865C56.0258 129.078 58.8365 130.527 61.6958 132.027C69.6182 135.666 81.1615 135.229 89.4067 132.848C92.231 131.648 94.9412 130.348 97.6606 128.93C98.6506 128.6 99.6406 128.27 100.661 127.93C100.661 119.02 100.661 110.11 100.661 100.93C107.411 97.7423 107.411 97.7423 109.515 96.7728C110.074 96.5011 110.632 96.2293 111.207 95.9493C111.773 95.6823 112.339 95.4152 112.921 95.14C115.676 93.2236 116.945 91.9033 118.661 88.9298C119.263 84.7912 119.221 80.6841 119.192 76.5079C119.196 75.2934 119.2 74.0788 119.203 72.8275C119.206 70.2587 119.199 67.6899 119.182 65.1212C119.161 61.2078 119.182 57.2963 119.207 53.3829C119.205 50.8829 119.2 48.3829 119.192 45.8829C119.2 44.7201 119.208 43.5573 119.216 42.3593C119.112 33.1992 117.197 25.67 110.661 18.9298C108.544 17.6182 108.544 17.6182 106.661 16.9298C106.661 15.9398 106.661 14.9498 106.661 13.9298Z" fill="#080302"/>
<path d="M122.661 41.9298C126.606 45.7132 128.816 48.7903 130.911 53.8673C131.411 55.052 131.911 56.2366 132.426 57.4572C137.511 71.7625 136.023 89.3528 129.661 102.93C124.763 112.309 118.104 119.597 109.661 125.93C109.001 125.6 108.341 125.27 107.661 124.93C108.151 124.367 108.642 123.804 109.148 123.224C110.901 120.565 110.977 119.363 110.856 116.227C110.845 115.332 110.834 114.437 110.823 113.515C110.81 112.58 110.798 111.644 110.786 110.68C110.896 101.084 110.896 101.084 113.684 96.8751C116.161 94.8048 116.161 94.8048 118.629 93.2345C120.977 92.0267 120.977 92.0267 121.661 88.9298C121.775 87.3808 121.837 85.8277 121.866 84.2748C121.886 83.334 121.906 82.3933 121.926 81.424C121.943 80.4114 121.96 79.3989 121.977 78.3556C121.998 77.3166 122.018 76.2777 122.04 75.2072C122.105 71.8856 122.164 68.564 122.223 65.2423C122.266 62.9917 122.31 60.741 122.354 58.4904C122.461 52.9703 122.563 47.4501 122.661 41.9298Z" fill="#DB4C4D"/>
<path d="M27.6606 42.9298C28.3206 42.9298 28.9806 42.9298 29.6606 42.9298C29.6664 43.4802 29.6723 44.0307 29.6783 44.5978C29.7424 50.341 29.8269 56.0836 29.923 61.8263C29.9562 63.9678 29.9843 66.1094 30.007 68.2511C30.0406 71.3345 30.093 74.4171 30.1488 77.5001C30.1552 78.4535 30.1616 79.4068 30.1682 80.3891C30.2835 85.6333 30.7079 89.4093 33.6606 93.9298C35.9221 95.9707 37.942 97.5706 40.6606 98.9298C40.6606 106.52 40.6606 114.11 40.6606 121.93C28.8234 116.011 23.8103 104.154 19.641 92.2267C14.511 74.9769 18.581 60.0342 26.7426 44.59C27.0455 44.0421 27.3484 43.4943 27.6606 42.9298Z" fill="#DB4B4C"/>
<path d="M91.6605 10.9298C90.3772 14.2619 88.951 17.4209 87.2777 20.5743C86.833 21.4155 86.3883 22.2566 85.9301 23.1232C85.4699 23.9875 85.0097 24.8518 84.5355 25.7423C84.0676 26.626 83.5997 27.5096 83.1176 28.42C81.9674 30.5912 80.815 32.761 79.6605 34.9298C77.3505 34.9298 75.0405 34.9298 72.6605 34.9298C71.0041 31.8729 69.3623 28.8084 67.723 25.7423C67.0202 24.4458 67.0202 24.4458 66.3031 23.1232C65.8552 22.2821 65.4072 21.4409 64.9457 20.5743C64.532 19.8045 64.1183 19.0347 63.692 18.2416C62.6062 15.808 62.0846 13.5535 61.6605 10.9298C71.5784 9.31056 81.7473 9.32226 91.6605 10.9298Z" fill="#505152"/>
<path d="M41.6606 16.9298C40.5097 19.4235 39.2371 21.5386 37.6606 23.8048C34.5687 28.6359 33.417 32.9655 33.3542 38.6722C33.3382 39.7768 33.3222 40.8814 33.3058 42.0194C33.3004 43.1977 33.295 44.376 33.2895 45.59C33.2805 46.8126 33.2714 48.0352 33.2621 49.2949C33.2477 51.8744 33.2388 54.454 33.2351 57.0336C33.2231 60.982 33.1739 64.9289 33.1235 68.8771C33.114 71.3855 33.1068 73.894 33.102 76.4025C33.0825 77.5828 33.0629 78.7631 33.0428 79.9791C32.9969 86.5005 32.9969 86.5005 36.0146 92.1002C38.7702 94.0056 41.4976 95.7008 44.4731 97.2423C47.0409 98.5726 47.0409 98.5726 49.6606 99.9298C49.3306 107.85 49.0006 115.77 48.6606 123.93C46.6606 123.93 46.6606 123.93 44.5825 122.074C41.8698 117.636 41.9901 113.728 41.9106 108.617C41.881 107.686 41.8513 106.755 41.8208 105.795C41.7503 103.507 41.6975 101.219 41.6606 98.9298C40.9026 98.8344 40.1447 98.739 39.3637 98.6407C36.2721 97.8276 35.3788 97.0099 33.4106 94.5548C32.9104 93.949 32.4103 93.3431 31.895 92.7189C29.6348 89.4431 29.524 86.5571 29.4836 82.6991C29.4708 81.6305 29.4579 80.5618 29.4447 79.4608C29.4373 78.3046 29.4299 77.1484 29.4223 75.9572C29.4142 74.7643 29.4062 73.5715 29.3979 72.3425C29.384 69.8131 29.3733 67.2837 29.3654 64.7543C29.3483 60.9068 29.3044 57.0602 29.2602 53.213C29.2501 50.7527 29.2416 48.2924 29.2348 45.8322C29.2173 44.6901 29.1998 43.5481 29.1818 42.3714C29.2051 33.6709 30.8259 26.2977 36.2231 19.3048C38.6606 16.9298 38.6606 16.9298 41.6606 16.9298Z" fill="#160908"/>
<path d="M106.661 13.9298C110.909 14.42 113.797 16.9426 116.661 19.9298C122.667 28.12 122.969 36.6335 122.961 46.4689C122.966 47.6679 122.97 48.8669 122.974 50.1023C122.98 52.6288 122.981 55.1553 122.976 57.6818C122.973 61.5486 122.997 65.4146 123.022 69.2814C123.024 71.7397 123.025 74.198 123.024 76.6564C123.033 77.8117 123.042 78.967 123.052 80.1573C123.045 81.2354 123.039 82.3136 123.033 83.4244C123.033 84.3693 123.034 85.3141 123.035 86.2876C122.487 90.1554 120.918 92.9218 117.869 95.3658C117.263 95.7711 116.656 96.1763 116.032 96.5939C113.779 98.4441 112.795 99.45 112.001 102.28C111.75 104.976 111.69 107.598 111.723 110.305C111.707 111.232 111.691 112.158 111.674 113.113C111.639 115.387 111.635 117.656 111.661 119.93C111.001 119.93 110.341 119.93 109.661 119.93C109.661 113.66 109.661 107.39 109.661 100.93C106.691 101.92 106.691 101.92 103.661 102.93C103.707 103.586 103.753 104.242 103.8 104.918C103.999 107.879 104.174 110.842 104.348 113.805C104.421 114.837 104.494 115.87 104.569 116.934C104.651 118.413 104.651 118.413 104.735 119.922C104.792 120.833 104.85 121.744 104.909 122.683C104.827 123.425 104.745 124.166 104.661 124.93C103.176 125.92 103.176 125.92 101.661 126.93C101.661 118.35 101.661 109.77 101.661 100.93C104.916 99.2697 108.171 97.6095 111.426 95.9493C115.012 93.7105 116.534 92.5876 118.661 88.9298C119.265 84.7914 119.221 80.684 119.192 76.5079C119.198 74.6861 119.198 74.6861 119.203 72.8275C119.206 70.2587 119.199 67.6899 119.182 65.1212C119.161 61.2078 119.182 57.2963 119.207 53.3829C119.205 50.8829 119.2 48.3829 119.192 45.8829C119.2 44.7201 119.208 43.5573 119.216 42.3593C119.112 33.1992 117.196 25.67 110.661 18.9298C108.544 17.6182 108.544 17.6182 106.661 16.9298C106.661 15.9398 106.661 14.9498 106.661 13.9298ZM107.661 119.93C108.651 120.425 108.651 120.425 109.661 120.93C108.671 121.425 108.671 121.425 107.661 121.93C107.661 121.27 107.661 120.61 107.661 119.93Z" fill="#190907"/>
<path d="M39.6605 66.9298C45.9119 68.6043 51.3348 71.1896 56.973 74.3048C57.6666 74.6798 58.3601 75.0549 59.0746 75.4413C63.1266 77.7314 66.2008 79.845 68.6605 83.9298C68.9105 86.7423 68.9105 86.7423 68.6605 88.9298C65.9511 89.0384 63.2461 89.1174 60.5355 89.1798C59.775 89.2133 59.0145 89.2468 58.2309 89.2814C51.855 89.3913 48.4498 87.5584 43.7621 83.1407C39.9089 78.3497 39.0617 74.9691 39.4496 68.8361C39.5192 68.207 39.5888 67.5779 39.6605 66.9298Z" fill="#120E11"/>
<path d="M112.661 66.9298C113.349 70.4539 113.438 73.4112 112.661 76.9298C109.313 81.7876 105.384 87.022 99.6605 88.9298C96.9219 89.0003 94.2102 89.0234 91.473 88.9923C90.7234 88.9878 89.9738 88.9833 89.2015 88.9786C87.3545 88.9669 85.5075 88.9489 83.6605 88.9298C84.0241 82.6279 84.0241 82.6279 86.5551 79.8517C91.0438 77.0738 95.6594 74.602 100.348 72.1798C101.791 71.4199 101.791 71.4199 103.264 70.6447C110.398 66.9298 110.398 66.9298 112.661 66.9298Z" fill="#11090A"/>
<path d="M58.6605 11.9298C60.4835 15.3201 62.292 18.7179 64.098 22.1173C64.6143 23.077 65.1306 24.0367 65.6625 25.0255C66.1555 25.9569 66.6486 26.8882 67.1566 27.8478C67.6122 28.7014 68.0678 29.555 68.5372 30.4344C69.6605 32.9298 69.6605 32.9298 70.6605 37.9298C74.2905 37.9298 77.9205 37.9298 81.6605 37.9298C81.9905 36.2798 82.3205 34.6298 82.6605 32.9298C83.6761 30.6339 83.6761 30.6339 84.9105 28.3204C85.5757 27.0655 85.5757 27.0655 86.2543 25.7853C86.7183 24.9255 87.1824 24.0657 87.6605 23.1798C88.1246 22.3045 88.5886 21.4293 89.0668 20.5275C92.4998 14.0905 92.4998 14.0905 93.6605 12.9298C95.3267 12.8892 96.9944 12.8871 98.6605 12.9298C97.5778 18.502 94.26 23.1038 91.4105 27.9298C90.5501 29.4264 90.5501 29.4264 89.6722 30.9532C89.1063 31.9149 88.5404 32.8765 87.9574 33.8673C87.4453 34.7426 86.9332 35.6179 86.4056 36.5197C84.4596 39.2073 82.2728 40.9077 79.6605 42.9298C78.453 45.2405 78.453 45.2405 77.848 47.6798C77.6147 48.479 77.3814 49.2782 77.141 50.1017C76.9824 50.705 76.8239 51.3082 76.6605 51.9298C74.6605 49.9298 74.6605 49.9298 73.848 46.5548C73.0213 42.8647 73.0213 42.8647 70.4027 41.2267C66.7587 38.1744 64.8866 34.6721 62.598 30.5548C61.7546 29.0669 60.9096 27.5799 60.0629 26.0939C59.6618 25.3839 59.2607 24.674 58.8475 23.9425C57.7548 22.0897 56.5871 20.3379 55.3519 18.5782C53.6605 15.9298 53.6605 15.9298 53.6605 12.9298C55.6605 11.9298 55.6605 11.9298 58.6605 11.9298Z" fill="#EDEDEE"/>
<path d="M68.6605 7.92981C71.8063 7.87085 74.9519 7.8359 78.098 7.80481C79.4158 7.77968 79.4158 7.77968 80.7601 7.75403C86.7081 7.71014 91.8987 8.441 97.6605 9.92981C97.6605 10.5898 97.6605 11.2498 97.6605 11.9298C96.3405 11.9298 95.0205 11.9298 93.6605 11.9298C93.4246 12.7406 93.1887 13.5515 92.9457 14.3868C91.3785 18.7072 89.2969 22.5912 87.098 26.6173C86.2822 28.1201 85.4683 29.624 84.6566 31.129C84.2975 31.7873 83.9384 32.4456 83.5685 33.1239C82.5303 35.0811 82.5303 35.0811 81.6605 37.9298C78.0305 37.9298 74.4005 37.9298 70.6605 37.9298C62.2141 21.2214 62.2141 21.2214 58.6605 12.9298C59.6505 12.2698 60.6405 11.6098 61.6605 10.9298C62.9339 13.4494 64.2043 15.9704 65.473 18.4923C65.8294 19.1968 66.1859 19.9013 66.5531 20.6271C66.9044 21.3264 67.2556 22.0257 67.6176 22.7462C68.1422 23.7905 68.1422 23.7905 68.6774 24.8558C69.6191 26.8425 70.4084 28.8455 71.1918 30.8986C71.9188 32.399 71.9188 32.399 72.6605 33.9298C76.2492 34.9914 76.2492 34.9914 79.6605 34.9298C79.8848 34.1332 80.1091 33.3365 80.3402 32.5158C82.0366 27.9085 84.3617 23.8126 86.7855 19.5548C88.3943 16.7086 90.003 13.8623 91.6605 10.9298C83.7405 10.5998 75.8205 10.2698 67.6605 9.92981C67.9905 9.26981 68.3205 8.60981 68.6605 7.92981Z" fill="#0F0F0E"/>
<path d="M42.6605 70.9298C45.2048 72.1747 47.7459 73.4255 50.2855 74.6798C50.9984 75.0279 51.7112 75.3759 52.4457 75.7345C56.7445 77.8642 60.8287 80.0294 64.6605 82.9298C64.9905 83.9198 65.3205 84.9098 65.6605 85.9298C53.4377 86.9978 53.4377 86.9978 49.2426 84.4767C46.1342 81.322 42.7465 77.7787 42.5355 73.2423C42.5768 72.4792 42.618 71.7161 42.6605 70.9298Z" fill="#1876CF"/>
<path d="M110.661 70.9298C110.154 75.3244 108.707 77.4638 105.723 80.6798C105.013 81.4584 104.302 82.237 103.571 83.0392C101.143 85.4417 100.275 85.9085 96.8402 86.0275C95.7497 86.0159 94.6591 86.0043 93.5355 85.9923C92.4398 85.9833 91.3441 85.9743 90.2152 85.965C88.9506 85.9476 88.9506 85.9476 87.6605 85.9298C87.7426 84.1837 87.7426 84.1837 88.6605 81.9298C90.8832 80.396 92.9771 79.1216 95.348 77.8673C95.961 77.5289 96.5739 77.1906 97.2054 76.8419C99.0136 75.8506 100.833 74.8857 102.661 73.9298C103.76 73.3536 104.86 72.7774 105.993 72.1837C108.661 70.9298 108.661 70.9298 110.661 70.9298Z" fill="#187ED1"/>
<path d="M114.661 96.9298C114.661 97.5898 114.661 98.2498 114.661 98.9298C113.671 99.4248 113.671 99.4248 112.661 99.9298C112.331 106.53 112.001 113.13 111.661 119.93C111.001 119.93 110.341 119.93 109.661 119.93C109.661 113.66 109.661 107.39 109.661 100.93C107.681 101.59 105.701 102.25 103.661 102.93C103.707 103.586 103.753 104.242 103.8 104.918C103.999 107.879 104.174 110.842 104.348 113.805C104.421 114.837 104.494 115.87 104.569 116.934C104.624 117.92 104.678 118.906 104.735 119.922C104.792 120.833 104.85 121.744 104.909 122.683C104.827 123.425 104.745 124.166 104.661 124.93C103.176 125.92 103.176 125.92 101.661 126.93C101.661 118.35 101.661 109.77 101.661 100.93C110.661 95.9298 110.661 95.9298 114.661 96.9298ZM107.661 119.93C108.651 120.425 108.651 120.425 109.661 120.93C108.671 121.425 108.671 121.425 107.661 121.93C107.661 121.27 107.661 120.61 107.661 119.93Z" fill="#090404"/>
<path d="M109.661 100.93C109.661 107.2 109.661 113.47 109.661 119.93C109.001 119.93 108.341 119.93 107.661 119.93C107.001 121.25 106.341 122.57 105.661 123.93C105.001 123.93 104.341 123.93 103.661 123.93C103.661 117 103.661 110.07 103.661 102.93C107.661 100.93 107.661 100.93 109.661 100.93Z" fill="#525455"/>
<path d="M43.6605 100.93C46.1355 101.92 46.1355 101.92 48.6605 102.93C48.6605 109.86 48.6605 116.79 48.6605 123.93C46.6605 123.93 46.6605 123.93 45.0473 122.539C42.9124 118.522 43.3443 114.65 43.473 110.18C43.4866 109.292 43.5001 108.403 43.5141 107.488C43.5493 105.302 43.5986 103.116 43.6605 100.93Z" fill="#555656"/>
<path d="M110.661 68.9298C111.321 68.9298 111.981 68.9298 112.661 68.9298C113.272 72.1727 113.479 73.7839 112.661 76.9298C109.236 81.6854 105.335 87.0382 99.6605 88.9298C98.2661 88.9965 96.8688 89.0152 95.473 88.9923C93.5858 88.9614 93.5858 88.9614 91.6605 88.9298C91.6605 88.2698 91.6605 87.6098 91.6605 86.9298C90.0105 86.9298 88.3605 86.9298 86.6605 86.9298C86.9905 85.9398 87.3205 84.9498 87.6605 83.9298C87.6605 84.5898 87.6605 85.2498 87.6605 85.9298C95.9107 86.0489 95.9107 86.0489 103.161 82.7423C106.998 78.4253 109.971 74.7908 110.661 68.9298Z" fill="#090809"/>
<path d="M100.661 100.93C100.991 100.93 101.321 100.93 101.661 100.93C101.991 109.18 102.321 117.43 102.661 125.93C104.971 123.95 107.281 121.97 109.661 119.93C110.321 120.26 110.981 120.59 111.661 120.93C107.125 127.409 99.9148 133.311 92.2894 135.66C91.7519 135.749 91.2144 135.838 90.6605 135.93C90.723 134.18 90.723 134.18 91.6605 131.93C94.361 129.921 97.2118 127.93 100.661 127.93C100.661 119.02 100.661 110.11 100.661 100.93Z" fill="#330E0E"/>
<path d="M61.6605 114.93C71.2305 114.93 80.8005 114.93 90.6605 114.93C90.6605 115.92 90.6605 116.91 90.6605 117.93C81.0905 117.93 71.5205 117.93 61.6605 117.93C61.6605 116.94 61.6605 115.95 61.6605 114.93Z" fill="#1E0909"/>
<path d="M31.6605 88.9298C32.3205 88.9298 32.9805 88.9298 33.6605 88.9298C34.2999 89.6311 34.9393 90.3323 35.598 91.0548C39.474 95.1539 44.6946 97.399 49.6605 99.9298C48.6705 101.415 48.6705 101.415 47.6605 102.93C46.3405 102.27 45.0205 101.61 43.6605 100.93C43.6605 106.87 43.6605 112.81 43.6605 118.93C43.3305 118.93 43.0005 118.93 42.6605 118.93C42.3305 112.33 42.0005 105.73 41.6605 98.9298C40.0105 98.5998 38.3605 98.2698 36.6605 97.9298C34.8597 96.3009 34.8597 96.3009 33.348 94.3673C32.8363 93.7266 32.3245 93.086 31.7972 92.4259C31.4221 91.9322 31.047 91.4385 30.6605 90.9298C30.9905 90.2698 31.3205 89.6098 31.6605 88.9298Z" fill="#201717"/>
<path d="M68.6605 7.92981C71.8063 7.87085 74.9519 7.8359 78.098 7.80481C79.4158 7.77968 79.4158 7.77968 80.7601 7.75403C86.7081 7.71014 91.8987 8.441 97.6605 9.92981C97.6605 10.5898 97.6605 11.2498 97.6605 11.9298C96.3405 11.9298 95.0205 11.9298 93.6605 11.9298C93.3924 12.7342 93.1243 13.5386 92.848 14.3673C92.4561 15.2129 92.0643 16.0586 91.6605 16.9298C90.6705 17.2598 89.6805 17.5898 88.6605 17.9298C90.5355 13.1798 90.5355 13.1798 91.6605 10.9298C83.7405 10.5998 75.8205 10.2698 67.6605 9.92981C67.9905 9.26981 68.3205 8.60981 68.6605 7.92981Z" fill="#020101"/>
<path d="M85.6605 6.92981C85.6605 7.25981 85.6605 7.58981 85.6605 7.92981C77.2455 8.42481 77.2455 8.42481 68.6605 8.92981C68.9905 9.58981 69.3205 10.2498 69.6605 10.9298C69.0688 10.9904 68.4772 11.051 67.8676 11.1134C63.7453 11.5505 59.7194 12.0688 55.6605 12.9298C55.0005 12.9298 54.3405 12.9298 53.6605 12.9298C53.6605 12.2698 53.6605 11.6098 53.6605 10.9298C53.0005 10.5998 52.3405 10.2698 51.6605 9.92981C63.1449 7.04585 73.8611 6.58687 85.6605 6.92981Z" fill="#3E1213"/>
<path d="M91.6605 133.93C89.1976 136.911 87.4484 137.406 83.6605 137.93C80.7214 138.042 77.7887 138.024 74.848 137.992C73.6656 137.986 73.6656 137.986 72.4594 137.979C70.5264 137.967 68.5934 137.949 66.6605 137.93C70.2535 134.493 73.3742 134.485 78.223 134.305C91.2829 133.804 91.2829 133.804 91.6605 133.93Z" fill="#200809"/>
<path d="M97.6605 9.92981C101.454 10.9317 104.376 11.7401 107.661 13.9298C107.331 14.5898 107.001 15.2498 106.661 15.9298C105.918 15.8267 105.176 15.7236 104.411 15.6173C101.41 15.6553 101.41 15.6553 99.348 18.4298C98.7911 19.2548 98.2343 20.0798 97.6605 20.9298C97.0005 20.2698 96.3405 19.6098 95.6605 18.9298C96.6505 16.9498 97.6405 14.9698 98.6605 12.9298C97.0105 12.9298 95.3605 12.9298 93.6605 12.9298C94.9805 12.5998 96.3005 12.2698 97.6605 11.9298C97.6605 11.2698 97.6605 10.6098 97.6605 9.92981Z" fill="#271714"/>
<path d="M89.6605 16.9298C90.3205 17.2598 90.9805 17.5898 91.6605 17.9298C88.6905 23.5398 85.7205 29.1498 82.6605 34.9298C81.6705 34.9298 80.6805 34.9298 79.6605 34.9298C81.3082 28.8336 84.3186 23.2605 87.6605 17.9298C88.3205 17.5998 88.9805 17.2698 89.6605 16.9298Z" fill="#0F100F"/>
<path d="M46.6605 69.9298C50.203 71.2957 53.5868 72.8391 56.973 74.5548C58.2975 75.2238 58.2975 75.2238 59.6488 75.9064C60.3127 76.2441 60.9765 76.5818 61.6605 76.9298C60.6705 77.4248 60.6705 77.4248 59.6605 77.9298C59.3305 78.5898 59.0005 79.2498 58.6605 79.9298C54.3705 77.6198 50.0805 75.3098 45.6605 72.9298C45.9905 71.9398 46.3205 70.9498 46.6605 69.9298Z" fill="#141416"/>
<path d="M53.6605 10.9298C53.3305 12.2498 53.0005 13.5698 52.6605 14.9298C51.588 15.2186 50.5155 15.5073 49.4105 15.8048C46.5665 16.658 44.2254 17.4935 41.6605 18.9298C41.6605 18.2698 41.6605 17.6098 41.6605 16.9298C41.0005 16.5998 40.3405 16.2698 39.6605 15.9298C41.0483 15.0832 42.4462 14.2531 43.848 13.4298C44.6253 12.9658 45.4026 12.5017 46.2035 12.0236C48.9016 10.8225 50.7412 10.7224 53.6605 10.9298Z" fill="#220B09"/>
<path d="M83.6605 38.9298C83.6605 41.9298 83.6605 41.9298 82.7855 43.6173C81.1688 46.9407 80.4999 50.3327 79.6605 53.9298C78.6705 53.2698 77.6805 52.6098 76.6605 51.9298C77.8334 43.7372 77.8334 43.7372 81.2855 40.3673C82.0693 39.8929 82.853 39.4186 83.6605 38.9298Z" fill="#271817"/>
<path d="M93.4105 9.3048C94.2097 9.41566 95.009 9.52652 95.8324 9.64074C96.7373 9.78383 96.7373 9.78383 97.6605 9.9298C97.6605 10.5898 97.6605 11.2498 97.6605 11.9298C96.3405 11.9298 95.0205 11.9298 93.6605 11.9298C93.3924 12.7342 93.1243 13.5386 92.848 14.3673C92.4561 15.2129 92.0643 16.0586 91.6605 16.9298C90.6705 17.2598 89.6805 17.5898 88.6605 17.9298C90.5355 13.1798 90.5355 13.1798 91.6605 10.9298C89.3505 10.9298 87.0405 10.9298 84.6605 10.9298C87.8354 9.02195 89.7664 8.7689 93.4105 9.3048Z" fill="#080907"/>
<path d="M52.6605 12.9298C55.701 16.5784 57.6257 20.6743 59.6605 24.9298C58.6705 25.2598 57.6805 25.5898 56.6605 25.9298C54.6805 22.2998 52.7005 18.6698 50.6605 14.9298C51.3205 14.9298 51.9805 14.9298 52.6605 14.9298C52.6605 14.2698 52.6605 13.6098 52.6605 12.9298Z" fill="#231A17"/>
<path d="M39.6605 66.9298C41.9705 67.5898 44.2805 68.2498 46.6605 68.9298C46.6605 69.9198 46.6605 70.9098 46.6605 71.9298C45.0105 71.5998 43.3605 71.2698 41.6605 70.9298C41.6605 72.9098 41.6605 74.8898 41.6605 76.9298C41.0005 76.9298 40.3405 76.9298 39.6605 76.9298C39.6605 73.6298 39.6605 70.3298 39.6605 66.9298Z" fill="#040504"/>
<path d="M53.6605 6.92982C52.9496 8.88295 52.9496 8.88295 51.6605 10.9298C49.4965 11.5392 49.4965 11.5392 47.0355 11.6798C46.2183 11.7365 45.401 11.7933 44.559 11.8517C43.9325 11.8775 43.306 11.9033 42.6605 11.9298C43.4418 10.0119 43.4418 10.0119 44.6605 7.92982C50.9462 5.57268 50.9462 5.57268 53.6605 6.92982Z" fill="#E03839"/>
<path d="M86.6605 83.9298C86.9905 84.5898 87.3205 85.2498 87.6605 85.9298C88.5036 85.9066 89.3466 85.8834 90.2152 85.8595C91.8588 85.8324 91.8588 85.8324 93.5355 85.8048C95.1713 85.77 95.1713 85.77 96.8402 85.7345C99.6605 85.9298 99.6605 85.9298 101.661 87.9298C98.446 89.5371 95.2244 88.9873 91.6605 88.9298C91.6605 88.2698 91.6605 87.6098 91.6605 86.9298C90.0105 86.9298 88.3605 86.9298 86.6605 86.9298C86.6605 85.9398 86.6605 84.9498 86.6605 83.9298Z" fill="#0E1A2B"/>
<path d="M70.6605 34.9298C74.2905 34.9298 77.9205 34.9298 81.6605 34.9298C81.6605 35.9198 81.6605 36.9098 81.6605 37.9298C78.0305 37.9298 74.4005 37.9298 70.6605 37.9298C70.6605 36.9398 70.6605 35.9498 70.6605 34.9298Z" fill="#222322"/>
<path d="M40.6605 116.93C42.7017 118.546 44.7013 120.215 46.6605 121.93C46.6605 122.59 46.6605 123.25 46.6605 123.93C47.9805 124.26 49.3005 124.59 50.6605 124.93C50.3305 125.59 50.0005 126.25 49.6605 126.93C45.4033 126.457 43.3311 124.12 40.6605 120.93C40.6605 119.61 40.6605 118.29 40.6605 116.93Z" fill="#0C0908"/>
<path d="M31.6605 88.9298C33.6605 88.9298 33.6605 88.9298 36.223 91.2423C38.6605 93.9298 38.6605 93.9298 39.6605 96.9298C38.6705 97.2598 37.6805 97.5898 36.6605 97.9298C34.6805 95.6198 32.7005 93.3098 30.6605 90.9298C30.9905 90.2698 31.3205 89.6098 31.6605 88.9298Z" fill="#200E0A"/>
<path d="M78.6605 50.9298C78.3305 53.8998 78.0005 56.8698 77.6605 59.9298C76.6705 59.9298 75.6805 59.9298 74.6605 59.9298C74.3305 57.6198 74.0005 55.3098 73.6605 52.9298C77.5355 50.9298 77.5355 50.9298 78.6605 50.9298Z" fill="#170D07"/>
<path d="M60.6605 10.9298C62.8391 14.1976 64.1581 17.3104 65.6605 20.9298C64.6705 21.2598 63.6805 21.5898 62.6605 21.9298C61.3405 18.9598 60.0205 15.9898 58.6605 12.9298C59.3205 12.2698 59.9805 11.6098 60.6605 10.9298Z" fill="#1B1A1A"/>
<path d="M91.6605 133.93C90.6605 135.43 90.6605 135.43 88.6605 136.93C85.9421 137.203 83.4038 137.065 80.6605 136.93C80.6605 136.27 80.6605 135.61 80.6605 134.93C88.2855 132.805 88.2855 132.805 91.6605 133.93Z" fill="#0F0504"/>
<path d="M107.661 80.9298C106.267 84.297 104.682 85.9158 101.661 87.9298C101.001 87.5998 100.341 87.2698 99.6605 86.9298C99.6605 86.2698 99.6605 85.6098 99.6605 84.9298C104.013 80.9298 104.013 80.9298 107.661 80.9298Z" fill="#121014"/>
<path d="M112.661 66.9298C112.991 66.9298 113.321 66.9298 113.661 66.9298C113.769 68.8661 113.846 70.8041 113.911 72.7423C113.957 73.8213 114.003 74.9002 114.051 76.0118C113.661 78.9298 113.661 78.9298 111.645 80.8165C110.99 81.1839 110.335 81.5513 109.661 81.9298C109.661 78.9298 109.661 78.9298 111.661 76.9298C112.122 74.4973 112.122 74.4973 112.286 71.8048C112.36 70.8947 112.435 69.9847 112.512 69.047C112.561 68.3483 112.61 67.6497 112.661 66.9298Z" fill="#AD2827"/>
<path d="M48.6605 125.93C52.1255 127.415 52.1255 127.415 55.6605 128.93C54.6705 129.92 53.6805 130.91 52.6605 131.93C51.0105 130.28 49.3605 128.63 47.6605 126.93C47.9905 126.6 48.3205 126.27 48.6605 125.93Z" fill="#2B0B0A"/>
<path d="M110.661 70.9298C110.331 72.5798 110.001 74.2298 109.661 75.9298C108.341 76.2598 107.021 76.5898 105.661 76.9298C106.036 74.4923 106.036 74.4923 106.661 71.9298C108.661 70.9298 108.661 70.9298 110.661 70.9298Z" fill="#1870B9"/>
<path d="M27.6605 42.9298C28.3205 42.9298 28.9805 42.9298 29.6605 42.9298C29.6605 45.2398 29.6605 47.5498 29.6605 49.9298C28.6705 49.9298 27.6805 49.9298 26.6605 49.9298C25.6605 46.9298 25.6605 46.9298 26.598 44.7423C27.1239 43.8451 27.1239 43.8451 27.6605 42.9298Z" fill="#E35155"/>
<path d="M33.6605 25.9298C34.2855 27.7423 34.2855 27.7423 34.6605 29.9298C33.6705 31.4148 33.6705 31.4148 32.6605 32.9298C32.0005 32.9298 31.3405 32.9298 30.6605 32.9298C31.0355 29.9923 31.0355 29.9923 31.6605 26.9298C32.3205 26.5998 32.9805 26.2698 33.6605 25.9298Z" fill="#1B0907"/>
<path d="M59.6605 9.92981C59.6605 10.5898 59.6605 11.2498 59.6605 11.9298C57.6805 12.2598 55.7005 12.5898 53.6605 12.9298C53.6605 12.2698 53.6605 11.6098 53.6605 10.9298C53.0005 10.5998 52.3405 10.2698 51.6605 9.92981C54.7132 8.94861 56.6079 8.94861 59.6605 9.92981Z" fill="#2A1311"/>
</svg>
