<svg width="153" height="152" viewBox="0 0 153 152" fill="none" xmlns="http://www.w3.org/2000/svg">
<path d="M119.403 13.3779C121.572 15.0427 123.658 16.7729 125.739 18.5459C126.729 19.2677 127.719 19.9896 128.739 20.7334C140.468 30.7401 149.747 48.3713 151.739 63.5459C153.29 85.5959 149.598 106.433 135.009 123.905C129.076 130.701 122.643 137.058 114.739 141.546C113.749 141.546 112.759 141.546 111.739 141.546C111.43 140.659 111.12 139.772 110.802 138.858C108.017 134.386 104.54 132.547 99.7391 130.546C98.0891 130.216 96.4391 129.886 94.7391 129.546C94.4091 136.146 94.0791 142.746 93.7391 149.546C87.4643 151.139 81.5595 151.762 75.1141 151.796C74.4104 151.805 73.7066 151.814 72.9816 151.823C71.945 151.817 71.945 151.817 70.8876 151.811C70.2809 151.809 69.6742 151.807 69.0492 151.805C65.5529 151.413 62.1523 150.399 58.7391 149.546C58.7391 140.306 58.7391 131.066 58.7391 121.546C61.7091 121.546 64.6791 121.546 67.7391 121.546C67.7662 123.15 67.7856 124.754 67.8016 126.358C67.8132 127.252 67.8248 128.145 67.8368 129.065C67.7391 131.546 67.7391 131.546 66.7391 134.546C68.3891 134.546 70.0391 134.546 71.7391 134.546C71.4091 137.846 71.0791 141.146 70.7391 144.546C74.6991 144.546 78.6591 144.546 82.7391 144.546C82.7391 143.556 82.7391 142.566 82.7391 141.546C82.0791 141.876 81.4191 142.206 80.7391 142.546C78.4061 142.586 76.0721 142.589 73.7391 142.546C73.7391 138.916 73.7391 135.286 73.7391 131.546C72.4191 131.546 71.0991 131.546 69.7391 131.546C70.0691 127.256 70.3991 122.966 70.7391 118.546C68.7591 118.546 66.7791 118.546 64.7391 118.546C63.7491 117.556 63.7491 117.556 62.7391 116.546C62.4091 117.206 62.0791 117.866 61.7391 118.546C60.0891 118.546 58.4391 118.546 56.7391 118.546C56.7391 122.506 56.7391 126.466 56.7391 130.546C54.9138 130.948 54.9138 130.948 53.0516 131.358C49.4883 132.271 46.655 133.213 43.7391 135.546C41.9128 138.613 41.9128 138.613 40.7391 141.546C29.4165 139.452 19.3365 127.57 13.0912 118.561C1.58905 101.131 -2.55811 79.3718 1.54381 58.831C6.37401 39.2052 18.3774 22.6261 35.2001 11.5849C61.4831 -4.11913 93.8723 -4.17923 119.403 13.3779Z" fill="#1F1A17"/>
<path d="M119.403 13.3779C121.572 15.0427 123.658 16.7729 125.739 18.5459C126.729 19.2677 127.719 19.9896 128.739 20.7334C140.468 30.7401 149.747 48.3713 151.739 63.5459C153.29 85.5959 149.598 106.433 135.009 123.905C129.076 130.701 122.643 137.058 114.739 141.546C113.749 141.546 112.759 141.546 111.739 141.546C111.372 140.625 111.004 139.705 110.626 138.757C108.363 134.906 106.575 133.988 102.552 132.171C101.465 131.668 100.378 131.165 99.2587 130.647C98.4272 130.284 97.5958 129.92 96.7391 129.546C96.7391 125.916 96.7391 122.286 96.7391 118.546C94.7591 118.546 92.7791 118.546 90.7391 118.546C90.7391 115.246 90.7391 111.946 90.7391 108.546C96.8374 107.586 101.725 107.14 106.946 110.784C111.602 115.154 115.092 119.715 117.739 125.546C122.029 125.546 126.319 125.546 130.739 125.546C130.739 124.556 130.739 123.566 130.739 122.546C128.759 122.546 126.779 122.546 124.739 122.546C124.554 121.68 124.368 120.813 124.177 119.921C122.518 116.026 120.682 114.468 117.395 111.94C115.739 110.546 115.739 110.546 113.739 107.546C113.66 105.214 113.651 102.878 113.739 100.546C115.744 101.199 117.743 101.868 119.739 102.546C120.667 102.855 121.595 103.165 122.552 103.483C123.274 103.834 123.995 104.185 124.739 104.546C125.069 105.536 125.399 106.526 125.739 107.546C127.389 107.876 129.039 108.206 130.739 108.546C130.739 107.886 130.739 107.226 130.739 106.546C131.415 106.364 132.09 106.182 132.786 105.995C133.678 105.744 134.57 105.492 135.489 105.233C136.371 104.99 137.253 104.746 138.161 104.495C141.155 103.533 141.155 103.533 144.739 100.546C141.109 100.876 137.479 101.206 133.739 101.546C133.409 100.886 133.079 100.226 132.739 99.5459C130.935 98.537 130.935 98.537 128.739 97.6357C127.935 97.2857 127.13 96.9358 126.302 96.5752C125.033 96.0347 125.033 96.0347 123.739 95.4834C122.072 94.7653 120.405 94.0453 118.739 93.3232C117.997 93.006 117.254 92.6888 116.489 92.362C114.739 91.5459 114.739 91.5459 113.739 90.5459C113.739 88.2359 113.739 85.9259 113.739 83.5459C120.669 84.0409 120.669 84.0409 127.739 84.5459C127.739 85.2059 127.739 85.8659 127.739 86.5459C130.379 86.5459 133.019 86.5459 135.739 86.5459C135.739 85.2259 135.739 83.9059 135.739 82.5459C136.438 82.2197 137.136 81.8936 137.856 81.5576C138.766 81.1206 139.676 80.6836 140.614 80.2334C141.519 79.8041 142.424 79.3749 143.356 78.9326C146.004 77.6259 146.004 77.6259 147.739 74.5459C147.124 74.8346 146.509 75.1234 145.876 75.4209C145.068 75.7921 144.259 76.1634 143.427 76.5459C142.626 76.9171 141.826 77.2884 141.001 77.6709C138.739 78.5459 138.739 78.5459 135.739 78.5459C135.739 77.8859 135.739 77.2259 135.739 76.5459C135.073 76.5575 134.406 76.5691 133.72 76.581C126.986 76.647 120.437 76.2418 113.739 75.5459C113.739 71.5859 113.739 67.6259 113.739 63.5459C115.432 62.9274 117.125 62.3089 118.817 61.6904C121.587 60.0406 122.951 58.2336 124.739 55.5459C125.377 52.0739 125.377 52.0739 125.349 48.2763C125.365 47.5953 125.382 46.9143 125.399 46.2127C125.447 44.0528 125.468 41.8937 125.489 39.7334C125.517 38.2626 125.547 36.7919 125.579 35.3213C125.653 31.7296 125.702 28.1381 125.739 24.5459C124.419 24.5459 123.099 24.5459 121.739 24.5459C121.739 29.4959 121.739 34.4459 121.739 39.5459C120.749 39.5459 119.759 39.5459 118.739 39.5459C118.739 40.2059 118.739 40.8659 118.739 41.5459C117.089 41.8759 115.439 42.2059 113.739 42.5459C113.61 41.5501 113.61 41.5501 113.477 40.5342C112.551 34.711 111.659 31.2658 106.739 27.5459C103.703 26.534 101.622 26.4075 98.4449 26.3847C97.3634 26.3751 96.2818 26.3655 95.1675 26.3556C93.9988 26.3514 92.83 26.3471 91.6258 26.3427C89.8224 26.3342 89.8224 26.3342 87.9825 26.3255C85.4363 26.316 82.8901 26.3095 80.3439 26.3056C76.4526 26.2959 72.5619 26.2649 68.6708 26.2334C66.1975 26.2268 63.7242 26.2216 61.2508 26.2177C59.5068 26.1992 59.5068 26.1992 57.7276 26.1803C49.8109 26.1871 49.8109 26.1871 42.7391 29.5459C39.4019 33.5735 39.1672 37.4946 38.7391 42.5459C37.4191 42.5459 36.0991 42.5459 34.7391 42.5459C34.7391 41.5559 34.7391 40.5659 34.7391 39.5459C33.7491 39.5459 32.7591 39.5459 31.7391 39.5459C31.7391 34.5959 31.7391 29.6459 31.7391 24.5459C30.4191 24.5459 29.0991 24.5459 27.7391 24.5459C27.7834 29.0123 27.8533 33.4774 27.9466 37.9431C27.9748 39.4609 27.996 40.9788 28.0101 42.4968C28.0316 44.6845 28.0783 46.8704 28.1298 49.0576C28.1507 50.372 28.1716 51.6865 28.1932 53.0407C28.8204 57.0675 29.8481 58.723 32.7391 61.5459C35.8605 62.8936 35.8605 62.8936 38.7391 63.5459C38.7391 67.5059 38.7391 71.4659 38.7391 75.5459C31.7211 76.6467 24.8335 76.6432 17.7391 76.5459C17.7391 77.5359 17.7391 78.5259 17.7391 79.5459C13.7039 77.9562 9.72101 76.2635 5.73913 74.5459C9.41471 78.5556 12.9288 80.9992 17.7391 83.5459C17.7391 84.5359 17.7391 85.5259 17.7391 86.5459C19.7191 86.5459 21.6991 86.5459 23.7391 86.5459C23.7391 85.8859 23.7391 85.2259 23.7391 84.5459C28.6891 84.5459 33.6391 84.5459 38.7391 84.5459C38.7391 86.5259 38.7391 88.5059 38.7391 90.5459C26.2539 97.0652 26.2539 97.0652 19.7391 98.5459C19.7391 99.5359 19.7391 100.526 19.7391 101.546C15.7092 100.993 11.7189 100.39 7.73913 99.5459C10.2391 102.524 12.7862 103.491 16.4266 104.733C17.9174 105.25 17.9174 105.25 19.4383 105.776C20.1976 106.03 20.9569 106.284 21.7391 106.546C21.7391 107.206 21.7391 107.866 21.7391 108.546C23.6799 108.27 23.6799 108.27 25.7391 107.546C26.3991 106.556 27.0591 105.566 27.7391 104.546C29.8329 103.378 29.8329 103.378 32.2391 102.358C33.4302 101.842 33.4302 101.842 34.6454 101.315C36.7391 100.546 36.7391 100.546 38.7391 100.546C39.3397 103.789 39.5928 105.417 38.7391 108.546C36.3253 111.421 33.7371 113.86 30.9266 116.347C28.3865 118.383 28.3865 118.383 28.7391 121.546C25.2741 122.536 25.2741 122.536 21.7391 123.546C21.7391 123.876 21.7391 124.206 21.7391 124.546C26.0291 124.876 30.3191 125.206 34.7391 125.546C35.5126 124.277 35.5126 124.277 36.3016 122.983C38.5065 119.652 41.166 116.998 44.0555 114.257C45.8337 112.587 45.8337 112.587 47.036 110.351C48.7391 108.546 48.7391 108.546 51.8758 108.155C53.0476 108.202 54.2194 108.248 55.4266 108.296C56.6061 108.332 57.7856 108.368 59.0008 108.405C59.9045 108.452 60.8081 108.498 61.7391 108.546C61.7391 111.846 61.7391 115.146 61.7391 118.546C60.0891 118.546 58.4391 118.546 56.7391 118.546C56.7391 122.506 56.7391 126.466 56.7391 130.546C54.9138 130.948 54.9138 130.948 53.0516 131.358C49.4883 132.271 46.655 133.213 43.7391 135.546C41.9128 138.613 41.9128 138.613 40.7391 141.546C29.4165 139.452 19.3365 127.57 13.0912 118.561C1.58905 101.131 -2.55811 79.3718 1.54381 58.831C6.37401 39.2052 18.3774 22.6261 35.2001 11.5849C61.4831 -4.11913 93.8723 -4.17923 119.403 13.3779Z" fill="#E03131"/>
<path d="M53.0276 28.3848C54.1325 28.3752 55.2374 28.3656 56.3757 28.3557C58.1741 28.3493 58.1741 28.3493 60.0089 28.3428C61.2371 28.3371 62.4654 28.3314 63.7309 28.3256C66.3344 28.3161 68.9379 28.3096 71.5413 28.3057C75.5248 28.2992 79.5079 28.265 83.4913 28.2335C86.018 28.2269 88.5447 28.2217 91.0714 28.2178C92.2642 28.2055 93.4571 28.1931 94.6861 28.1804C95.8004 28.1834 96.9147 28.1864 98.0628 28.1895C99.0405 28.1859 100.018 28.1822 101.026 28.1785C104.268 28.6176 106.112 29.6191 108.739 31.546C111.194 35.2287 110.982 37.0123 110.966 41.4041C110.967 42.0971 110.967 42.79 110.967 43.5039C110.966 45.7928 110.95 48.0814 110.935 50.3702C110.931 51.9577 110.928 53.5453 110.926 55.1328C110.918 59.3102 110.899 63.4875 110.877 67.6649C110.856 71.9279 110.847 76.191 110.837 80.4542C110.816 88.8182 110.781 97.182 110.739 105.546C108.429 105.546 106.119 105.546 103.739 105.546C103.739 96.636 103.739 87.726 103.739 78.546C85.9193 78.546 68.0993 78.546 49.7393 78.546C49.7393 87.456 49.7393 96.366 49.7393 105.546C47.0993 105.546 44.4593 105.546 41.7393 105.546C41.6466 96.3751 41.5755 87.2045 41.5321 78.0333C41.5112 73.7746 41.4829 69.5162 41.4376 65.2576C41.3941 61.1468 41.3702 57.0363 41.3598 52.9253C41.3524 51.358 41.338 49.7907 41.3164 48.2235C41.2873 46.0257 41.2834 43.8291 41.2852 41.6312C41.2763 40.381 41.2675 39.1308 41.2583 37.8427C41.8267 33.9469 42.9989 32.3165 45.7393 29.546C48.3052 28.263 50.1546 28.4049 53.0276 28.3848Z" fill="#8E9093"/>
<path d="M27.7393 24.5459C29.0593 24.5459 30.3793 24.5459 31.7393 24.5459C31.7393 29.4959 31.7393 34.4459 31.7393 39.5459C32.7293 39.5459 33.7193 39.5459 34.7393 39.5459C34.7393 40.5359 34.7393 41.5259 34.7393 42.5459C36.0593 42.5459 37.3793 42.5459 38.7393 42.5459C38.6568 41.3496 38.5743 40.1534 38.4893 38.9209C38.5052 34.4123 39.7089 31.975 42.7393 28.5459C48.4548 24.5975 54.4309 25.0953 61.1104 25.1123C62.306 25.1071 63.5017 25.1018 64.7337 25.0964C67.2577 25.09 69.7818 25.0913 72.3059 25.0999C76.1599 25.1084 80.0124 25.0796 83.8662 25.0479C86.3226 25.0462 88.779 25.0468 91.2354 25.0498C92.9575 25.033 92.9575 25.033 94.7145 25.0158C101.281 25.0727 105.418 25.5923 110.739 29.5459C114.325 33.7104 114.006 37.2963 113.739 42.5459C115.389 42.2159 117.039 41.8859 118.739 41.5459C118.739 40.8859 118.739 40.2259 118.739 39.5459C119.729 39.5459 120.719 39.5459 121.739 39.5459C121.739 34.5959 121.739 29.6459 121.739 24.5459C123.059 24.5459 124.379 24.5459 125.739 24.5459C125.889 28.8325 125.997 33.1176 126.069 37.406C126.099 38.862 126.14 40.3178 126.192 41.7732C126.669 55.422 126.669 55.422 122.927 59.9834C120.143 62.6622 117.644 63.4529 113.739 63.5459C113.739 67.5059 113.739 71.4659 113.739 75.5459C115.327 75.5253 116.916 75.5046 118.552 75.4834C124.327 75.4759 130.001 75.9243 135.739 76.5459C135.739 77.2059 135.739 77.8659 135.739 78.5459C136.354 78.2571 136.969 77.9684 137.603 77.6709C138.411 77.2996 139.219 76.9284 140.052 76.5459C140.852 76.1746 141.653 75.8034 142.478 75.4209C144.739 74.5459 144.739 74.5459 147.739 74.5459C146.694 77.7968 145.148 79.1146 142.302 80.7959C138.739 82.5459 138.739 82.5459 135.739 82.5459C135.739 83.8659 135.739 85.1859 135.739 86.5459C133.099 86.5459 130.459 86.5459 127.739 86.5459C127.739 85.8859 127.739 85.2259 127.739 84.5459C123.449 84.5459 119.159 84.5459 114.739 84.5459C114.739 86.5259 114.739 88.5059 114.739 90.5459C115.279 90.7725 115.819 90.9992 116.376 91.2327C118.814 92.2634 121.245 93.3106 123.677 94.3584C124.527 94.7148 125.377 95.0712 126.253 95.4385C127.062 95.7897 127.871 96.141 128.704 96.5029C129.453 96.8224 130.202 97.1418 130.973 97.4709C132.739 98.5459 132.739 98.5459 133.739 101.546C134.791 101.195 135.843 100.845 136.927 100.483C140.535 99.5962 142.266 99.4933 145.739 100.546C143.039 103.881 139.707 105.109 135.739 106.546C132.802 106.733 132.802 106.733 130.739 106.546C130.739 107.206 130.739 107.866 130.739 108.546C129.089 108.546 127.439 108.546 125.739 108.546C125.409 107.226 125.079 105.906 124.739 104.546C124.038 104.443 123.337 104.34 122.614 104.233C119.348 103.452 116.692 102.125 113.739 100.546C114.096 106.499 115.587 109.299 119.739 113.546C120.667 114.247 121.596 114.948 122.552 115.671C123.274 116.29 123.996 116.908 124.739 117.546C124.739 118.866 124.739 120.186 124.739 121.546C126.719 121.876 128.699 122.206 130.739 122.546C130.739 123.536 130.739 124.526 130.739 125.546C126.449 125.876 122.159 126.206 117.739 126.546C117.409 125.226 117.079 123.906 116.739 122.546C118.677 120.296 118.677 120.296 120.739 118.546C120.327 118.133 119.914 117.721 119.489 117.296C118.912 116.718 118.334 116.141 117.739 115.546C117.017 114.865 116.296 114.185 115.552 113.483C113.739 111.546 113.739 111.546 113.739 109.546C113.079 109.546 112.419 109.546 111.739 109.546C111.739 108.886 111.739 108.226 111.739 107.546C109.759 107.546 107.779 107.546 105.739 107.546C105.739 107.216 105.739 106.886 105.739 106.546C107.389 106.546 109.039 106.546 110.739 106.546C110.678 97.2271 110.601 87.9087 110.504 78.5902C110.459 74.2633 110.42 69.9365 110.393 65.6094C110.367 61.4336 110.326 57.2581 110.276 53.0825C110.259 51.4894 110.248 49.8961 110.242 48.3029C110.232 46.0714 110.204 43.8407 110.172 41.6094C110.161 40.3392 110.149 39.069 110.138 37.7603C109.713 34.3362 109.185 32.934 106.739 30.5459C103.685 29.5277 101.538 29.3953 98.3374 29.353C97.2326 29.337 96.1278 29.3209 94.9895 29.3044C89.947 29.2599 84.9045 29.2189 79.8618 29.1958C77.2003 29.1792 74.5388 29.1519 71.8774 29.1138C68.0421 29.0591 64.2078 29.0371 60.3721 29.0225C59.1824 28.9998 57.9926 28.9771 56.7669 28.9538C55.6558 28.9566 54.5447 28.9595 53.3999 28.9624C52.4252 28.9543 51.4505 28.9462 50.4463 28.9379C46.5642 29.8098 45.1114 31.3941 42.7393 34.5459C41.9828 37.9028 41.9828 37.9028 42.0798 41.6311C42.0641 42.671 42.0641 42.671 42.0481 43.7318C42.0194 46.0101 42.0256 48.2869 42.0322 50.5654C42.0191 52.1501 42.0038 53.7348 41.9864 55.3195C41.9466 59.4805 41.9364 63.641 41.9324 67.8021C41.923 72.0521 41.8856 76.3019 41.8506 80.5518C41.786 88.8831 41.7528 97.2143 41.7393 105.546C44.3793 105.546 47.0193 105.546 49.7393 105.546C47.7926 111.645 44.5725 115.017 39.8955 119.335C37.3256 121.8 37.3256 121.8 34.7393 126.546C30.4493 126.216 26.1593 125.886 21.7393 125.546C21.7393 124.556 21.7393 123.566 21.7393 122.546C22.688 122.298 23.6368 122.051 24.6143 121.796C28.296 120.323 28.1041 119.877 29.7393 116.546C31.0598 115.26 32.4172 114.012 33.8018 112.796C36.7493 109.96 38.2662 108.151 38.7393 104.046C38.7393 102.891 38.7393 101.736 38.7393 100.546C36.943 101.306 35.1523 102.079 33.3643 102.858C31.8677 103.502 31.8677 103.502 30.3408 104.159C27.4815 105.42 27.4815 105.42 25.7393 108.546C24.4193 108.546 23.0993 108.546 21.7393 108.546C21.7393 107.886 21.7393 107.226 21.7393 106.546C20.9143 106.463 20.0893 106.381 19.2393 106.296C14.9717 105.381 11.5469 103.624 7.73926 101.546C7.73926 100.886 7.73926 100.226 7.73926 99.5459C11.7692 100.099 15.7595 100.702 19.7393 101.546C19.7393 100.556 19.7393 99.5659 19.7393 98.5459C20.2793 98.335 20.8193 98.1241 21.3757 97.9067C23.82 96.936 26.2477 95.9292 28.6768 94.9209C29.5269 94.5896 30.377 94.2583 31.2529 93.917C32.0618 93.5754 32.8707 93.2338 33.7041 92.8818C34.453 92.5781 35.2018 92.2744 35.9734 91.9614C38.4683 90.2839 38.4683 90.2839 38.7393 84.5459C33.7893 84.5459 28.8393 84.5459 23.7393 84.5459C23.7393 85.2059 23.7393 85.8659 23.7393 86.5459C21.7593 86.5459 19.7793 86.5459 17.7393 86.5459C17.7393 85.5559 17.7393 84.5659 17.7393 83.5459C16.7183 83.2056 16.7183 83.2056 15.6768 82.8584C12.0404 81.2336 8.71097 79.2179 5.73926 76.5459C5.73926 75.8859 5.73926 75.2259 5.73926 74.5459C10.4941 75.1222 13.7097 77.0966 17.7393 79.5459C17.7393 78.5559 17.7393 77.5659 17.7393 76.5459C28.1343 76.0509 28.1343 76.0509 38.7393 75.5459C38.7393 71.5859 38.7393 67.6259 38.7393 63.5459C37.8524 63.5046 36.9655 63.4634 36.0518 63.4209C32.4325 62.4649 31.0568 61.2293 28.7692 58.3205C26.993 55.26 27.1815 52.4359 27.251 48.96C27.2581 48.2582 27.2651 47.5564 27.2724 46.8333C27.3002 44.6114 27.3629 42.3921 27.4268 40.1709C27.4519 38.6566 27.4747 37.1423 27.4951 35.6279C27.55 31.9331 27.6361 28.2397 27.7393 24.5459Z" fill="#1B110F"/>
<path d="M52.7393 81.5459C68.5793 81.5459 84.4193 81.5459 100.739 81.5459C100.739 89.4659 100.739 97.3859 100.739 105.546C84.8993 105.546 69.0593 105.546 52.7393 105.546C52.7393 97.6259 52.7393 89.7059 52.7393 81.5459Z" fill="#E3AD96"/>
<path d="M113.739 100.546C115.744 101.199 117.743 101.868 119.739 102.546C120.667 102.855 121.596 103.165 122.552 103.483C123.274 103.834 123.996 104.185 124.739 104.546C125.234 106.031 125.234 106.031 125.739 107.546C128.214 108.041 128.214 108.041 130.739 108.546C130.739 107.886 130.739 107.226 130.739 106.546C132.299 106.037 133.862 105.539 135.427 105.046C136.297 104.767 137.167 104.489 138.063 104.202C140.733 103.547 143.003 103.428 145.739 103.546C143.61 117.708 130.662 130.109 119.677 138.358C115.201 141.546 115.201 141.546 111.739 141.546C111.188 140.165 111.188 140.165 110.626 138.757C108.363 134.906 106.575 133.988 102.552 132.171C101.465 131.668 100.378 131.165 99.2588 130.647C98.4273 130.284 97.5959 129.92 96.7393 129.546C96.7393 125.916 96.7393 122.286 96.7393 118.546C94.7593 118.546 92.7793 118.546 90.7393 118.546C90.7393 115.246 90.7393 111.946 90.7393 108.546C96.8375 107.586 101.725 107.14 106.946 110.784C111.602 115.154 115.092 119.715 117.739 125.546C122.029 125.546 126.319 125.546 130.739 125.546C130.739 124.556 130.739 123.566 130.739 122.546C128.759 122.546 126.779 122.546 124.739 122.546C124.554 121.68 124.368 120.813 124.177 119.921C122.518 116.026 120.682 114.468 117.396 111.94C115.739 110.546 115.739 110.546 113.739 107.546C113.66 105.214 113.651 102.878 113.739 100.546Z" fill="#E13636"/>
<path d="M27.7393 24.5459C28.7293 24.5459 29.7193 24.5459 30.7393 24.5459C30.7393 30.8159 30.7393 37.0859 30.7393 43.5459C31.7293 43.8759 32.7193 44.2059 33.7393 44.5459C32.4193 44.5459 31.0993 44.5459 29.7393 44.5459C29.8511 51.5306 29.8511 51.5306 33.0518 57.5459C35.8378 59.7412 35.8378 59.7412 39.7393 61.5459C39.7393 56.2659 39.7393 50.9859 39.7393 45.5459C40.0693 45.5459 40.3993 45.5459 40.7393 45.5459C41.902 51.979 41.8669 58.2992 41.8369 64.8232C41.8355 65.9897 41.8341 67.1562 41.8326 68.358C41.827 72.0665 41.8145 75.7749 41.8018 79.4834C41.7967 82.0049 41.7922 84.5264 41.7881 87.0479C41.7771 93.2139 41.7604 99.3799 41.7393 105.546C44.3793 105.546 47.0193 105.546 49.7393 105.546C47.7926 111.645 44.5725 115.017 39.8955 119.335C37.3256 121.8 37.3256 121.8 34.7393 126.546C30.4493 126.216 26.1593 125.886 21.7393 125.546C21.7393 124.556 21.7393 123.566 21.7393 122.546C22.688 122.298 23.6368 122.051 24.6143 121.796C28.296 120.323 28.1041 119.877 29.7393 116.546C31.0598 115.26 32.4172 114.012 33.8018 112.796C36.7493 109.96 38.2662 108.151 38.7393 104.046C38.7393 102.891 38.7393 101.736 38.7393 100.546C36.943 101.306 35.1523 102.079 33.3643 102.858C31.8677 103.502 31.8677 103.502 30.3408 104.159C27.4815 105.42 27.4815 105.42 25.7393 108.546C24.4193 108.546 23.0993 108.546 21.7393 108.546C21.7393 107.886 21.7393 107.226 21.7393 106.546C20.9143 106.463 20.0893 106.381 19.2393 106.296C14.9717 105.381 11.5469 103.624 7.73926 101.546C7.73926 100.886 7.73926 100.226 7.73926 99.5459C11.7692 100.099 15.7595 100.702 19.7393 101.546C19.7393 100.556 19.7393 99.5659 19.7393 98.5459C20.2793 98.335 20.8193 98.1241 21.3757 97.9067C23.82 96.936 26.2477 95.9292 28.6768 94.9209C29.5269 94.5896 30.377 94.2583 31.2529 93.917C32.0618 93.5754 32.8707 93.2338 33.7041 92.8818C34.453 92.5781 35.2018 92.2744 35.9734 91.9614C38.4683 90.2839 38.4683 90.2839 38.7393 84.5459C33.7893 84.5459 28.8393 84.5459 23.7393 84.5459C23.7393 85.2059 23.7393 85.8659 23.7393 86.5459C21.7593 86.5459 19.7793 86.5459 17.7393 86.5459C17.7393 85.5559 17.7393 84.5659 17.7393 83.5459C16.7183 83.2056 16.7183 83.2056 15.6768 82.8584C12.0404 81.2336 8.71097 79.2179 5.73926 76.5459C5.73926 75.8859 5.73926 75.2259 5.73926 74.5459C10.4941 75.1222 13.7097 77.0966 17.7393 79.5459C17.7393 78.5559 17.7393 77.5659 17.7393 76.5459C28.1343 76.0509 28.1343 76.0509 38.7393 75.5459C38.7393 71.5859 38.7393 67.6259 38.7393 63.5459C37.8524 63.5046 36.9655 63.4634 36.0518 63.4209C32.4325 62.4649 31.0568 61.2293 28.7692 58.3205C26.993 55.26 27.1815 52.4359 27.251 48.96C27.2581 48.2582 27.2651 47.5564 27.2724 46.8333C27.3002 44.6114 27.3629 42.3921 27.4268 40.1709C27.4519 38.6566 27.4747 37.1423 27.4951 35.6279C27.55 31.9331 27.6361 28.2397 27.7393 24.5459Z" fill="#0B0706"/>
<path d="M111.739 63.5459C112.069 63.5459 112.399 63.5459 112.739 63.5459C112.739 67.5059 112.739 71.4659 112.739 75.5459C114.492 75.5253 116.246 75.5046 118.052 75.4834C123.998 75.4763 129.832 75.8947 135.739 76.5459C135.739 77.2059 135.739 77.8659 135.739 78.5459C136.354 78.2571 136.969 77.9684 137.603 77.6709C138.411 77.2996 139.219 76.9284 140.052 76.5459C141.253 75.989 141.253 75.989 142.478 75.4209C144.739 74.5459 144.739 74.5459 147.739 74.5459C146.694 77.7968 145.148 79.1146 142.302 80.7959C138.739 82.5459 138.739 82.5459 135.739 82.5459C135.739 83.8659 135.739 85.1859 135.739 86.5459C133.099 86.5459 130.459 86.5459 127.739 86.5459C127.739 85.8859 127.739 85.2259 127.739 84.5459C123.449 84.5459 119.159 84.5459 114.739 84.5459C114.739 86.5259 114.739 88.5059 114.739 90.5459C115.279 90.7725 115.819 90.9992 116.376 91.2327C118.814 92.2634 121.245 93.3106 123.677 94.3584C124.527 94.7148 125.377 95.0712 126.253 95.4385C127.062 95.7897 127.871 96.141 128.704 96.5029C129.453 96.8224 130.202 97.1418 130.973 97.4709C132.739 98.5459 132.739 98.5459 133.739 101.546C134.791 101.195 135.843 100.845 136.927 100.483C140.535 99.5962 142.266 99.4933 145.739 100.546C143.039 103.881 139.707 105.109 135.739 106.546C132.802 106.733 132.802 106.733 130.739 106.546C130.739 107.206 130.739 107.866 130.739 108.546C129.089 108.546 127.439 108.546 125.739 108.546C125.409 107.226 125.079 105.906 124.739 104.546C124.038 104.443 123.337 104.34 122.614 104.233C119.348 103.452 116.692 102.125 113.739 100.546C114.096 106.499 115.587 109.299 119.739 113.546C121.131 114.598 121.131 114.598 122.552 115.671C123.274 116.29 123.996 116.908 124.739 117.546C124.739 118.866 124.739 120.186 124.739 121.546C126.719 121.876 128.699 122.206 130.739 122.546C130.739 123.536 130.739 124.526 130.739 125.546C124.304 126.041 124.304 126.041 117.739 126.546C117.409 125.226 117.079 123.906 116.739 122.546C118.677 120.296 118.677 120.296 120.739 118.546C120.121 117.927 120.121 117.927 119.489 117.296C118.912 116.718 118.334 116.141 117.739 115.546C117.017 114.865 116.296 114.185 115.552 113.483C113.739 111.546 113.739 111.546 113.739 109.546C113.079 109.546 112.419 109.546 111.739 109.546C111.739 108.886 111.739 108.226 111.739 107.546C109.759 107.546 107.779 107.546 105.739 107.546C105.739 107.216 105.739 106.886 105.739 106.546C107.389 106.546 109.039 106.546 110.739 106.546C110.734 105.279 110.729 104.012 110.723 102.706C110.705 98.023 110.694 93.3398 110.684 88.6565C110.679 86.6262 110.672 84.5959 110.664 82.5657C110.652 79.6541 110.646 76.7426 110.642 73.8311C110.636 72.9175 110.631 72.004 110.626 71.0628C110.626 68.8901 110.677 66.7176 110.739 64.5459C111.069 64.2159 111.399 63.8859 111.739 63.5459Z" fill="#120B0A"/>
<path d="M58.7393 121.546C61.7093 121.546 64.6793 121.546 67.7393 121.546C67.7663 123.15 67.7857 124.754 67.8018 126.358C67.8134 127.252 67.825 128.145 67.8369 129.065C67.7393 131.546 67.7393 131.546 66.7393 134.546C68.3893 134.546 70.0393 134.546 71.7393 134.546C71.4093 137.846 71.0793 141.146 70.7393 144.546C74.6993 144.546 78.6593 144.546 82.7393 144.546C82.2443 139.596 82.2443 139.596 81.7393 134.546C83.0593 134.546 84.3793 134.546 85.7393 134.546C85.4918 133.556 85.4918 133.556 85.2393 132.546C84.6174 128.815 84.6752 125.327 84.7393 121.546C87.7093 121.546 90.6793 121.546 93.7393 121.546C93.7393 130.786 93.7393 140.026 93.7393 149.546C87.1287 150.868 81.6741 151.869 75.1143 151.796C74.4156 151.804 73.7169 151.811 72.9971 151.819C67.7103 151.8 64.2389 150.921 58.7393 149.546C58.7393 140.306 58.7393 131.066 58.7393 121.546Z" fill="#5A4E48"/>
<path d="M41.7393 34.5459C42.0693 34.5459 42.3993 34.5459 42.7393 34.5459C43.0693 46.7559 43.3993 58.9659 43.7393 71.5459C47.0389 73.1957 50.7305 72.9285 54.3643 73.1084C55.567 73.1732 55.567 73.1732 56.7939 73.2393C58.7755 73.3454 60.7574 73.4462 62.7393 73.5459C62.7393 73.8759 62.7393 74.2059 62.7393 74.5459C58.2843 75.0409 58.2843 75.0409 53.7393 75.5459C66.2793 75.8759 78.8193 76.2059 91.7393 76.5459C91.7393 75.8859 91.7393 75.2259 91.7393 74.5459C90.7493 74.0509 90.7493 74.0509 89.7393 73.5459C98.1543 73.0509 98.1543 73.0509 106.739 72.5459C107.234 67.5959 107.234 67.5959 107.739 62.5459C108.399 62.8759 109.059 63.2059 109.739 63.5459C109.739 77.0759 109.739 90.6059 109.739 104.546C107.759 104.546 105.779 104.546 103.739 104.546C103.739 95.9659 103.739 87.3859 103.739 78.5459C85.9193 78.5459 68.0993 78.5459 49.7393 78.5459C49.7393 87.4559 49.7393 96.3659 49.7393 105.546C47.0993 105.546 44.4593 105.546 41.7393 105.546C41.7393 82.1159 41.7393 58.6859 41.7393 34.5459Z" fill="#898D90"/>
<path d="M51.876 108.155C53.0477 108.202 54.2195 108.248 55.4268 108.296C57.196 108.35 57.196 108.35 59.001 108.405C60.3564 108.475 60.3564 108.475 61.7393 108.546C61.7393 111.846 61.7393 115.146 61.7393 118.546C60.0893 118.546 58.4393 118.546 56.7393 118.546C56.7393 122.506 56.7393 126.466 56.7393 130.546C55.5224 130.814 54.3055 131.082 53.0518 131.358C49.4884 132.271 46.6551 133.213 43.7393 135.546C41.913 138.613 41.913 138.613 40.7393 141.546C37.0958 140.912 34.6805 139.349 31.6768 137.233C30.8195 136.639 29.9623 136.045 29.0791 135.433C26.8461 133.632 25.3337 131.914 23.7393 129.546C24.3993 129.546 25.0593 129.546 25.7393 129.546C25.7393 128.886 25.7393 128.226 25.7393 127.546C25.0793 126.886 24.4193 126.226 23.7393 125.546C24.4869 125.616 25.2346 125.685 26.0049 125.757C29.0046 125.922 31.7612 125.957 34.7393 125.546C37.1556 123.007 37.1556 123.007 38.7393 119.546C40.4425 117.7 42.2339 115.985 44.0557 114.257C45.8338 112.587 45.8338 112.587 47.0361 110.351C48.7393 108.546 48.7393 108.546 51.876 108.155Z" fill="#D93331"/>
<path d="M64.7393 108.546C72.3293 108.546 79.9193 108.546 87.7393 108.546C87.7393 111.846 87.7393 115.146 87.7393 118.546C86.0893 118.546 84.4393 118.546 82.7393 118.546C82.7393 122.836 82.7393 127.126 82.7393 131.546C81.4193 131.546 80.0993 131.546 78.7393 131.546C79.0693 135.176 79.3993 138.806 79.7393 142.546C77.7593 142.546 75.7793 142.546 73.7393 142.546C73.7393 138.916 73.7393 135.286 73.7393 131.546C72.4193 131.546 71.0993 131.546 69.7393 131.546C70.0693 127.256 70.3993 122.966 70.7393 118.546C68.7593 118.546 66.7793 118.546 64.7393 118.546C64.7393 115.246 64.7393 111.946 64.7393 108.546Z" fill="#9FA1A4"/>
<path d="M25.7393 45.5459C26.0693 45.5459 26.3993 45.5459 26.7393 45.5459C26.7779 46.416 26.7779 46.416 26.8174 47.3037C27.2117 52.7341 27.9599 56.3687 31.7393 60.5459C34.0473 61.8534 36.2131 62.6715 38.7393 63.5459C38.7393 67.5059 38.7393 71.4659 38.7393 75.5459C31.7611 76.6405 24.7982 76.8983 17.7393 76.5459C17.4093 76.2159 17.0793 75.8859 16.7393 75.5459C17.0265 64.2108 20.4926 55.4453 25.7393 45.5459Z" fill="#E45D57"/>
<path d="M125.739 47.5459C131.346 51.9512 133.771 59.6667 134.739 66.5459C134.739 69.5159 134.739 72.4859 134.739 75.5459C127.809 75.5459 120.879 75.5459 113.739 75.5459C113.739 71.5859 113.739 67.6259 113.739 63.5459C114.812 63.154 115.884 62.7621 116.989 62.3584C120.688 60.7413 122.676 59.1172 124.739 55.5459C125.332 52.8433 125.551 50.3219 125.739 47.5459Z" fill="#E75B5A"/>
<path d="M30.7393 24.5459C31.0693 24.5459 31.3993 24.5459 31.7393 24.5459C31.7393 29.4959 31.7393 34.4459 31.7393 39.5459C32.7293 39.5459 33.7193 39.5459 34.7393 39.5459C34.7393 40.5359 34.7393 41.5259 34.7393 42.5459C36.0593 42.5459 37.3793 42.5459 38.7393 42.5459C38.6568 41.3496 38.5743 40.1534 38.4893 38.9209C38.4813 34.4484 39.8522 32.0103 42.7393 28.5459C46.065 26.3287 47.0753 26.3005 50.9451 26.3188C52.006 26.319 53.0668 26.3191 54.1599 26.3193C55.3037 26.3296 56.4475 26.34 57.626 26.3506C58.7981 26.3534 59.9703 26.3562 61.1779 26.3592C64.9277 26.3704 68.6771 26.3955 72.4268 26.4209C74.9665 26.4309 77.5062 26.4401 80.0459 26.4482C86.2771 26.4703 92.5082 26.5038 98.7393 26.5459C98.7393 26.8759 98.7393 27.2059 98.7393 27.5459C92.4016 28.3479 86.2321 28.6789 79.8487 28.6865C77.9867 28.7048 76.1247 28.7244 74.2627 28.7451C71.3637 28.7742 68.4656 28.7959 65.5664 28.7964C62.7431 28.7997 59.9216 28.8342 57.0986 28.874C56.234 28.867 55.3693 28.8599 54.4785 28.8526C50.1515 28.9401 48.2663 29.1533 44.6985 31.8113C42.7491 34.5321 42.1029 35.6996 42.0322 38.9717C42.0032 39.7677 41.9742 40.5637 41.9444 41.3838C41.9386 42.2004 41.9328 43.017 41.9268 43.8584C41.9016 44.6944 41.8765 45.5303 41.8506 46.3916C41.792 48.4425 41.7627 50.4943 41.7393 52.5459C41.4093 52.5459 41.0793 52.5459 40.7393 52.5459C40.4093 55.5159 40.0793 58.4859 39.7393 61.5459C36.3417 60.6965 34.0584 59.8146 31.3643 57.5459C29.0578 53.2879 29.2019 49.3028 29.7393 44.5459C30.0693 44.2159 30.3993 43.8859 30.7393 43.5459C30.8258 42.1302 30.8463 40.7103 30.8369 39.292C30.8337 38.438 30.8305 37.584 30.8272 36.7041C30.8188 35.8063 30.8104 34.9084 30.8018 33.9834C30.795 32.6308 30.795 32.6308 30.7881 31.251C30.7763 29.0159 30.7598 26.7809 30.7393 24.5459Z" fill="#090707"/>
<path d="M100.739 22.546C101.729 23.536 102.719 24.526 103.739 25.546C84.9293 25.546 66.1193 25.546 46.7393 25.546C50.3101 22.8678 52.4888 21.7541 56.6143 20.421C57.6223 20.0884 58.6304 19.7558 59.6689 19.4131C73.513 15.503 87.7319 16.4861 100.739 22.546Z" fill="#E65957"/>
<path d="M90.7393 108.546C101.1 106.915 101.1 106.915 105.435 109.593C108.983 112.515 111.988 115.874 114.739 119.546C114.739 120.206 114.739 120.866 114.739 121.546C112.495 122.89 110.245 124.221 107.989 125.546C107.355 125.927 106.721 126.309 106.067 126.702C102.6 128.725 100.846 129.546 96.7393 129.546C96.7393 125.916 96.7393 122.286 96.7393 118.546C94.7593 118.546 92.7793 118.546 90.7393 118.546C90.7393 115.246 90.7393 111.946 90.7393 108.546Z" fill="#E95F5C"/>
<path d="M61.7393 108.546C61.7393 111.846 61.7393 115.146 61.7393 118.546C60.0893 118.876 58.4393 119.206 56.7393 119.546C56.4093 122.846 56.0793 126.146 55.7393 129.546C49.3607 127.652 44.2149 125.321 38.7393 121.546C43.9135 110.433 49.5258 107.038 61.7393 108.546Z" fill="#E6605C"/>
<path d="M107.739 62.5459C108.399 62.8759 109.059 63.2059 109.739 63.5459C109.739 77.0759 109.739 90.6059 109.739 104.546C107.759 104.546 105.779 104.546 103.739 104.546C103.244 91.6759 103.244 91.6759 102.739 78.5459C93.8293 78.2159 84.9193 77.8859 75.7393 77.5459C75.7393 77.2159 75.7393 76.8859 75.7393 76.5459C81.0193 76.5459 86.2993 76.5459 91.7393 76.5459C91.7393 75.8859 91.7393 75.2259 91.7393 74.5459C91.0793 74.2159 90.4193 73.8859 89.7393 73.5459C98.1543 73.0509 98.1543 73.0509 106.739 72.5459C107.069 69.2459 107.399 65.9459 107.739 62.5459Z" fill="#97999E"/>
<path d="M114.958 122.288C116.739 123.546 116.739 123.546 117.739 125.546C119.162 125.515 119.162 125.515 120.614 125.483C123.739 125.546 123.739 125.546 125.739 126.546C125.853 129.774 125.889 131.593 124.739 134.546C121.037 138.083 116.993 141.546 111.739 141.546C111.43 140.659 111.121 139.772 110.802 138.858C107.998 134.355 104.438 132.772 99.7393 130.546C103.032 126.68 109.594 120.494 114.958 122.288Z" fill="#E33734"/>
<path d="M89.7393 59.5459C92.5518 59.519 95.3641 59.4991 98.1768 59.4834C98.9792 59.475 99.7816 59.4666 100.608 59.458C102.652 59.4494 104.696 59.4936 106.739 59.5459C107.739 60.5459 107.739 60.5459 107.872 63.2334C107.869 64.3265 107.867 65.4196 107.864 66.5459C107.868 68.1856 107.868 68.1856 107.872 69.8584C107.739 72.5459 107.739 72.5459 106.739 73.5459C103.877 73.6191 101.039 73.6383 98.1768 73.6084C97.3704 73.6039 96.5641 73.5994 95.7334 73.5947C93.7353 73.5829 91.7373 73.5649 89.7393 73.5459C89.7393 68.9259 89.7393 64.3059 89.7393 59.5459Z" fill="#323234"/>
<path d="M52.7393 81.5459C68.2493 81.5459 83.7593 81.5459 99.7393 81.5459C99.7393 96.5459 99.7393 96.5459 98.7393 98.5459C98.0793 98.5459 97.4193 98.5459 96.7393 98.5459C96.6903 97.6191 96.6413 96.6922 96.5908 95.7373C96.5161 94.5398 96.4413 93.3422 96.3643 92.1084C96.2598 90.316 96.2598 90.316 96.1533 88.4873C95.9484 87.0313 95.9484 87.0313 95.7393 85.5459C93.0305 84.1915 90.7299 84.4809 87.7393 84.5459C87.7393 83.8859 87.7393 83.2259 87.7393 82.5459C80.4793 82.5459 73.2193 82.5459 65.7393 82.5459C65.7393 83.2059 65.7393 83.8659 65.7393 84.5459C62.7693 84.5459 59.7993 84.5459 56.7393 84.5459C56.7393 89.1659 56.7393 93.7859 56.7393 98.5459C56.0793 98.5459 55.4193 98.5459 54.7393 98.5459C54.7393 99.8659 54.7393 101.186 54.7393 102.546C69.5893 102.876 84.4393 103.206 99.7393 103.546C99.7393 103.876 99.7393 104.206 99.7393 104.546C84.2293 104.546 68.7193 104.546 52.7393 104.546C52.7393 96.9559 52.7393 89.3659 52.7393 81.5459Z" fill="#F8C3AC"/>
<path d="M45.7393 60.5459C51.6793 60.5459 57.6193 60.5459 63.7393 60.5459C63.7393 64.5059 63.7393 68.4659 63.7393 72.5459C57.7993 72.5459 51.8593 72.5459 45.7393 72.5459C45.7393 68.5859 45.7393 64.6259 45.7393 60.5459Z" fill="#101010"/>
<path d="M31.7393 83.5459C34.3793 83.5459 37.0193 83.5459 39.7393 83.5459C40.665 88.9149 41.2206 92.4753 38.7393 97.5459C35.7002 99.4443 35.7002 99.4443 32.1143 100.921C30.3315 101.675 30.3315 101.675 28.5127 102.444C27.5975 102.808 26.6822 103.171 25.7393 103.546C26.0693 104.866 26.3993 106.186 26.7393 107.546C25.0893 107.876 23.4393 108.206 21.7393 108.546C21.7393 107.886 21.7393 107.226 21.7393 106.546C20.9143 106.463 20.0893 106.381 19.2393 106.296C14.9717 105.381 11.5469 103.624 7.73926 101.546C7.73926 100.886 7.73926 100.226 7.73926 99.5459C11.7692 100.099 15.7595 100.702 19.7393 101.546C19.7393 100.556 19.7393 99.5659 19.7393 98.5459C20.2793 98.335 20.8193 98.1241 21.3757 97.9067C23.82 96.936 26.2477 95.9292 28.6768 94.9209C29.952 94.424 29.952 94.424 31.2529 93.917C33.584 92.9326 35.6686 92.0025 37.7393 90.5459C38.9604 87.4139 38.9604 87.4139 38.7393 84.5459C36.4293 84.5459 34.1193 84.5459 31.7393 84.5459C31.7393 84.2159 31.7393 83.8859 31.7393 83.5459Z" fill="#110908"/>
<path d="M111.74 63.5459C112.07 63.5459 112.4 63.5459 112.74 63.5459C112.74 67.5059 112.74 71.4659 112.74 75.5459C114.493 75.5253 116.246 75.5046 118.052 75.4834C123.999 75.4763 129.832 75.8947 135.74 76.5459C135.74 77.2059 135.74 77.8659 135.74 78.5459C136.354 78.2571 136.969 77.9684 137.603 77.6709C138.411 77.2996 139.219 76.9284 140.052 76.5459C140.853 76.1746 141.653 75.8034 142.478 75.4209C144.74 74.5459 144.74 74.5459 147.74 74.5459C146.695 77.7968 145.148 79.1146 142.302 80.7959C138.74 82.5459 138.74 82.5459 135.74 82.5459C135.74 83.8659 135.74 85.1859 135.74 86.5459C133.43 86.5459 131.12 86.5459 128.74 86.5459C128.74 85.5559 128.74 84.5659 128.74 83.5459C125.44 83.5459 122.14 83.5459 118.74 83.5459C119.07 82.8859 119.4 82.2259 119.74 81.5459C123.04 81.5459 126.34 81.5459 129.74 81.5459C129.74 80.5559 129.74 79.5659 129.74 78.5459C128.653 78.5633 128.653 78.5633 127.544 78.5811C122.492 78.6282 117.706 78.6197 112.74 77.5459C112.41 79.1959 112.08 80.8459 111.74 82.5459C111.41 82.5459 111.08 82.5459 110.74 82.5459C110.713 79.5667 110.693 76.5877 110.677 73.6084C110.669 72.7583 110.66 71.9081 110.652 71.0322C110.648 70.2233 110.645 69.4145 110.642 68.5811C110.637 67.8322 110.631 67.0833 110.626 66.3118C110.74 64.5459 110.74 64.5459 111.74 63.5459Z" fill="#0E0B0A"/>
<path d="M113.739 83.5459C120.669 84.0409 120.669 84.0409 127.739 84.5459C127.739 85.2059 127.739 85.8659 127.739 86.5459C129.389 86.8759 131.039 87.2059 132.739 87.5459C132.739 91.1759 132.739 94.8059 132.739 98.5459C128.091 97.6163 124.561 96.1337 120.427 93.9834C119.459 93.4894 119.459 93.4894 118.472 92.9854C116.891 92.1777 115.315 91.3625 113.739 90.5459C113.739 88.2359 113.739 85.9259 113.739 83.5459Z" fill="#DF5A59"/>
<path d="M23.7393 84.5459C28.6893 84.5459 33.6393 84.5459 38.7393 84.5459C38.7393 86.5259 38.7393 88.5059 38.7393 90.5459C36.8473 91.5326 34.9505 92.51 33.0518 93.4834C31.996 94.0287 30.9403 94.5739 29.8525 95.1357C27.0769 96.393 24.7365 97.1066 21.7393 97.5459C21.2356 96.0888 20.7364 94.6302 20.2393 93.1709C19.9608 92.3588 19.6824 91.5467 19.3955 90.71C18.7393 88.5459 18.7393 88.5459 18.7393 86.5459C20.3893 86.5459 22.0393 86.5459 23.7393 86.5459C23.7393 85.8859 23.7393 85.2259 23.7393 84.5459Z" fill="#DC5650"/>
<path d="M112.739 77.5459C118.349 77.8759 123.959 78.2059 129.739 78.5459C129.739 79.5359 129.739 80.5259 129.739 81.5459C126.439 81.8759 123.139 82.2059 119.739 82.5459C122.709 82.8759 125.679 83.2059 128.739 83.5459C128.409 84.5359 128.079 85.5259 127.739 86.5459C127.739 85.8859 127.739 85.2259 127.739 84.5459C123.449 84.5459 119.159 84.5459 114.739 84.5459C114.739 87.8459 114.739 91.1459 114.739 94.5459C116.781 95.1956 116.781 95.1956 118.864 95.8584C122.677 97.1233 126.195 98.6374 129.739 100.546C129.079 101.536 128.419 102.526 127.739 103.546C121.652 101.829 115.26 99.067 110.739 94.5459C110.474 91.9014 110.474 91.9014 110.489 88.7334C110.482 87.1769 110.482 87.1769 110.474 85.5889C110.739 82.5459 110.739 82.5459 112.739 77.5459Z" fill="#281B19"/>
<path d="M102.739 78.5459C103.069 78.5459 103.399 78.5459 103.739 78.5459C103.739 87.4559 103.739 96.3659 103.739 105.546C106.049 105.546 108.359 105.546 110.739 105.546C111.069 106.866 111.399 108.186 111.739 109.546C112.399 109.546 113.059 109.546 113.739 109.546C113.739 110.206 113.739 110.866 113.739 111.546C114.379 111.793 115.018 112.041 115.677 112.296C117.739 113.546 117.739 113.546 118.302 115.608C118.518 116.567 118.518 116.567 118.739 117.546C120.224 118.041 120.224 118.041 121.739 118.546C120.254 119.041 120.254 119.041 118.739 119.546C117.53 121.546 117.53 121.546 116.739 123.546C114.739 122.546 114.739 122.546 113.614 120.483C110.839 116.135 108.091 112.411 103.739 109.546C99.3771 108.608 95.1912 108.437 90.7393 108.546C90.7393 108.216 90.7393 107.886 90.7393 107.546C94.6993 107.546 98.6593 107.546 102.739 107.546C102.739 97.9759 102.739 88.4059 102.739 78.5459Z" fill="#211B1A"/>
<path d="M56.7393 132.546C56.7393 137.826 56.7393 143.106 56.7393 148.546C47.1678 146.546 47.1678 146.546 42.7393 144.546C43.0357 141.088 43.7027 139.591 45.9268 136.858C49.2616 134.116 52.3596 132.546 56.7393 132.546Z" fill="#929394"/>
<path d="M49.7393 78.5459C67.2293 78.5459 84.7193 78.5459 102.739 78.5459C102.739 85.4759 102.739 92.4059 102.739 99.5459C101.749 100.041 101.749 100.041 100.739 100.546C100.739 93.9459 100.739 87.3459 100.739 80.5459C83.9093 80.5459 67.0793 80.5459 49.7393 80.5459C49.7393 79.8859 49.7393 79.2259 49.7393 78.5459Z" fill="#010202"/>
<path d="M96.7393 132.546C101.956 133.589 104.934 134.681 108.614 138.483C109.739 140.546 109.739 140.546 109.688 142.534C108.739 144.546 108.739 144.546 106.017 145.812C102.924 146.723 99.8317 147.634 96.7393 148.546C96.7393 143.266 96.7393 137.986 96.7393 132.546Z" fill="#969699"/>
<path d="M56.7393 85.5459C60.3693 85.5459 63.9993 85.5459 67.7393 85.5459C67.7393 89.8359 67.7393 94.1259 67.7393 98.5459C64.1093 98.5459 60.4793 98.5459 56.7393 98.5459C56.7393 94.2559 56.7393 89.9659 56.7393 85.5459Z" fill="#17120F"/>
<path d="M85.7393 85.5459C89.3693 85.5459 92.9993 85.5459 96.7393 85.5459C96.7393 89.8359 96.7393 94.1259 96.7393 98.5459C93.1093 98.5459 89.4793 98.5459 85.7393 98.5459C85.7393 94.2559 85.7393 89.9659 85.7393 85.5459Z" fill="#29221F"/>
<path d="M38.7391 100.546C39.2583 103.719 39.5088 105.482 38.7391 108.546C36.0652 111.929 33.0077 114.744 29.7391 117.546C26.7391 116.546 26.7391 116.546 25.4891 114.796C24.5413 111.953 24.8643 110.389 25.7391 107.546C27.8892 104.321 28.8006 103.815 32.2391 102.358C33.4302 101.842 33.4302 101.842 34.6453 101.315C36.7391 100.546 36.7391 100.546 38.7391 100.546Z" fill="#DE564F"/>
<path d="M54.7393 36.5459C55.3993 36.5459 56.0593 36.5459 56.7393 36.5459C56.7393 39.8459 56.7393 43.1459 56.7393 46.5459C59.0493 46.5459 61.3593 46.5459 63.7393 46.5459C63.7393 43.9059 63.7393 41.2659 63.7393 38.5459C70.9993 38.5459 78.2593 38.5459 85.7393 38.5459C85.7393 43.1659 85.7393 47.7859 85.7393 52.5459C85.0793 52.5459 84.4193 52.5459 83.7393 52.5459C83.7393 48.5859 83.7393 44.6259 83.7393 40.5459C77.7993 40.5459 71.8593 40.5459 65.7393 40.5459C65.7393 43.1859 65.7393 45.8259 65.7393 48.5459C62.1093 48.5459 58.4793 48.5459 54.7393 48.5459C54.7393 44.5859 54.7393 40.6259 54.7393 36.5459Z" fill="#040403"/>
<path d="M89.7393 60.5459C94.3593 60.5459 98.9793 60.5459 103.739 60.5459C103.739 61.2059 103.739 61.8659 103.739 62.5459C101.759 62.5459 99.7793 62.5459 97.7393 62.5459C97.7393 65.1859 97.7393 67.8259 97.7393 70.5459C100.049 70.5459 102.359 70.5459 104.739 70.5459C104.409 71.2059 104.079 71.8659 103.739 72.5459C99.1193 72.5459 94.4993 72.5459 89.7393 72.5459C89.7393 68.5859 89.7393 64.6259 89.7393 60.5459Z" fill="#040304"/>
<path d="M113.739 45.5459C116.709 45.5459 119.679 45.5459 122.739 45.5459C123.518 54.4636 123.518 54.4636 120.489 58.6709C117.739 60.5459 117.739 60.5459 113.739 60.5459C113.739 55.5959 113.739 50.6459 113.739 45.5459Z" fill="#999A9D"/>
<path d="M29.7391 45.5459C32.7091 45.5459 35.6791 45.5459 38.7391 45.5459C38.7391 50.4959 38.7391 55.4459 38.7391 60.5459C33.7391 59.5459 33.7391 59.5459 31.4266 57.5459C29.0519 53.3241 29.4525 50.3475 29.7391 45.5459Z" fill="#95989A"/>
<path d="M64.7393 118.546C66.7193 118.546 68.6993 118.546 70.7393 118.546C70.7662 120.337 70.7856 122.129 70.8018 123.921C70.8134 124.919 70.825 125.916 70.8369 126.944C70.7393 129.546 70.7393 129.546 69.7393 131.546C71.0593 131.546 72.3793 131.546 73.7393 131.546C73.7393 135.176 73.7393 138.806 73.7393 142.546C76.7093 142.216 79.6793 141.886 82.7393 141.546C82.7393 142.536 82.7393 143.526 82.7393 144.546C78.7793 144.546 74.8193 144.546 70.7393 144.546C70.6143 136.796 70.6143 136.796 71.7393 134.546C70.0893 134.546 68.4393 134.546 66.7393 134.546C67.0693 130.256 67.3993 125.966 67.7393 121.546C66.4193 121.216 65.0993 120.886 63.7393 120.546C64.0693 119.886 64.3993 119.226 64.7393 118.546Z" fill="#121311"/>
<path d="M113.739 100.546C117.464 101.758 121.117 103.054 124.739 104.546C125.052 107.858 125.052 107.858 124.739 111.546C122.239 113.483 122.239 113.483 119.739 114.546C113.857 108.787 113.857 108.787 113.364 103.608C113.488 102.598 113.612 101.587 113.739 100.546Z" fill="#DE5E59"/>
<path d="M38.7393 64.5459C39.0693 64.5459 39.3993 64.5459 39.7393 64.5459C39.7393 70.1559 39.7393 75.7659 39.7393 81.5459C33.7993 81.8759 27.8593 82.2059 21.7393 82.5459C21.7393 81.2259 21.7393 79.9059 21.7393 78.5459C26.1943 78.0509 26.1943 78.0509 30.7393 77.5459C30.7393 76.8859 30.7393 76.2259 30.7393 75.5459C33.3793 75.5459 36.0193 75.5459 38.7393 75.5459C38.7393 71.9159 38.7393 68.2859 38.7393 64.5459Z" fill="#292320"/>
<path d="M31.7393 83.5459C34.3793 83.5459 37.0193 83.5459 39.7393 83.5459C40.6624 88.8999 41.2597 92.505 38.7393 97.5459C36.274 98.9825 34.2478 99.9666 31.6143 100.921C30.9555 101.18 30.2968 101.439 29.6182 101.706C27.9996 102.339 26.3703 102.945 24.7393 103.546C24.9229 101.19 24.9229 101.19 25.7393 98.5459C28.0244 97.1826 28.0244 97.1826 30.8018 96.2334C31.7209 95.9073 32.64 95.5811 33.5869 95.2451C34.2972 95.0144 35.0075 94.7836 35.7393 94.5459C35.7393 93.5559 35.7393 92.5659 35.7393 91.5459C36.3993 91.2159 37.0593 90.8859 37.7393 90.5459C38.397 87.5166 38.397 87.5166 38.7393 84.5459C36.4293 84.5459 34.1193 84.5459 31.7393 84.5459C31.7393 84.2159 31.7393 83.8859 31.7393 83.5459Z" fill="#28241F"/>
<path d="M30.7393 24.5459C31.0693 24.5459 31.3993 24.5459 31.7393 24.5459C31.7393 29.4959 31.7393 34.4459 31.7393 39.5459C32.7293 39.5459 33.7193 39.5459 34.7393 39.5459C34.7393 40.5359 34.7393 41.5259 34.7393 42.5459C36.3893 42.5459 38.0393 42.5459 39.7393 42.5459C40.0693 41.2259 40.3993 39.9059 40.7393 38.5459C40.4093 46.1359 40.0793 53.7259 39.7393 61.5459C39.0793 61.2159 38.4193 60.8859 37.7393 60.5459C38.0693 55.5959 38.3993 50.6459 38.7393 45.5459C35.7693 45.5459 32.7993 45.5459 29.7393 45.5459C30.0693 44.8859 30.3993 44.2259 30.7393 43.5459C30.8227 42.0974 30.8466 40.6452 30.8369 39.1943C30.8337 38.3436 30.8305 37.4928 30.8271 36.6162C30.8188 35.7268 30.8104 34.8373 30.8018 33.9209C30.795 32.5751 30.795 32.5751 30.7881 31.2021C30.7763 28.9833 30.7598 26.7646 30.7393 24.5459Z" fill="#241917"/>
<path d="M45.7393 60.5459C50.6893 60.5459 55.6393 60.5459 60.7393 60.5459C59.4193 61.5359 58.0993 62.5259 56.7393 63.5459C55.9261 67.1506 55.9261 67.1506 55.7393 70.5459C55.4093 70.5459 55.0793 70.5459 54.7393 70.5459C54.7393 67.9059 54.7393 65.2659 54.7393 62.5459C52.7593 62.5459 50.7793 62.5459 48.7393 62.5459C49.0693 65.1859 49.3993 67.8259 49.7393 70.5459C51.3893 70.8759 53.0393 71.2059 54.7393 71.5459C54.7393 71.8759 54.7393 72.2059 54.7393 72.5459C51.7693 72.5459 48.7993 72.5459 45.7393 72.5459C45.7393 68.5859 45.7393 64.6259 45.7393 60.5459Z" fill="#0E0E0D"/>
<path d="M85.7393 85.5459C88.3793 85.8759 91.0193 86.2059 93.7393 86.5459C93.7393 86.8759 93.7393 87.2059 93.7393 87.5459C92.0893 87.5459 90.4393 87.5459 88.7393 87.5459C88.7393 90.1859 88.7393 92.8259 88.7393 95.5459C90.3893 95.5459 92.0393 95.5459 93.7393 95.5459C94.0693 96.5359 94.3993 97.5259 94.7393 98.5459C91.7693 98.5459 88.7993 98.5459 85.7393 98.5459C85.7393 94.2559 85.7393 89.9659 85.7393 85.5459Z" fill="#14100E"/>
<path d="M112.739 77.5459C118.349 77.8759 123.959 78.2059 129.739 78.5459C129.739 79.5359 129.739 80.5259 129.739 81.5459C124.129 81.5459 118.519 81.5459 112.739 81.5459C112.739 80.2259 112.739 78.9059 112.739 77.5459Z" fill="#2A201E"/>
<path d="M97.7393 62.5459C100.049 62.5459 102.359 62.5459 104.739 62.5459C104.739 65.1859 104.739 67.8259 104.739 70.5459C102.429 70.5459 100.119 70.5459 97.7393 70.5459C97.7393 67.9059 97.7393 65.2659 97.7393 62.5459Z" fill="#D1D0D3"/>
<path d="M45.7393 26.5459C46.3993 27.5359 47.0593 28.5259 47.7393 29.5459C46.9311 30.1788 46.1228 30.8118 45.2901 31.4639C41.6924 35.0616 41.9613 39.0064 41.9268 43.8584C41.9017 44.6944 41.8765 45.5303 41.8507 46.3916C41.7921 48.4425 41.7628 50.4943 41.7393 52.5459C41.4093 52.5459 41.0793 52.5459 40.7393 52.5459C40.4093 49.2459 40.0793 45.9459 39.7393 42.5459C39.4093 42.5459 39.0793 42.5459 38.7393 42.5459C38.3192 36.4538 38.6722 33.4265 42.7393 28.5459C43.7293 27.8859 44.7193 27.2259 45.7393 26.5459Z" fill="#17100E"/>
<path d="M112.739 45.5459C113.069 45.5459 113.399 45.5459 113.739 45.5459C113.739 50.4959 113.739 55.4459 113.739 60.5459C114.399 60.5459 115.059 60.5459 115.739 60.5459C115.739 61.5359 115.739 62.5259 115.739 63.5459C115.079 63.5459 114.419 63.5459 113.739 63.5459C113.739 67.5059 113.739 71.4659 113.739 75.5459C113.409 75.5459 113.079 75.5459 112.739 75.5459C111.977 68.4795 111.632 61.4613 111.614 54.3584C111.61 53.6037 111.605 52.8491 111.601 52.0715C111.615 46.6697 111.615 46.6697 112.739 45.5459Z" fill="#241A1A"/>
<path d="M96.7391 129.546C99.6921 130.19 102.222 131.139 104.927 132.483C105.621 132.822 106.316 133.161 107.032 133.511C108.739 134.546 108.739 134.546 109.739 136.546C108.749 136.876 107.759 137.206 106.739 137.546C105.038 136.606 103.374 135.597 101.739 134.546C99.2641 133.556 99.2641 133.556 96.7391 132.546C96.7391 137.826 96.7391 143.106 96.7391 148.546C96.4091 148.546 96.0791 148.546 95.7391 148.546C95.7122 145.754 95.6923 142.963 95.6766 140.171C95.6683 139.377 95.6599 138.583 95.6512 137.765C95.6259 131.772 95.6259 131.772 96.7391 129.546Z" fill="#1F1717"/>
<path d="M43.4893 108.296C44.2318 108.378 44.9743 108.461 45.7393 108.546C42.5317 112.352 39.3318 116.092 35.7393 119.546C34.7493 119.216 33.7593 118.886 32.7393 118.546C32.7393 117.886 32.7393 117.226 32.7393 116.546C33.3993 116.546 34.0593 116.546 34.7393 116.546C34.9868 115.968 35.2343 115.391 35.4893 114.796C37.5182 111.144 39.1658 108.689 43.4893 108.296Z" fill="#291E1C"/>
<path d="M132.739 99.5459C133.069 100.206 133.399 100.866 133.739 101.546C134.791 101.195 135.843 100.845 136.927 100.483C140.535 99.5962 142.266 99.4933 145.739 100.546C143.42 103.225 141.421 104.208 138.052 105.233C137.244 105.485 136.435 105.736 135.603 105.995C134.68 106.268 134.68 106.268 133.739 106.546C133.052 104.055 132.739 102.167 132.739 99.5459Z" fill="#281213"/>
<path d="M48.7393 62.5459C50.7193 62.5459 52.6993 62.5459 54.7393 62.5459C54.7393 65.1859 54.7393 67.8259 54.7393 70.5459C52.7593 70.5459 50.7793 70.5459 48.7393 70.5459C48.7393 67.9059 48.7393 65.2659 48.7393 62.5459Z" fill="#EDECEC"/>
<path d="M36.7393 93.5459C34.37 96.258 32.0682 97.4683 28.7393 98.7959C27.4399 99.3295 27.4399 99.3295 26.1143 99.874C23.7393 100.546 23.7393 100.546 20.7393 99.5459C22.9839 97.0503 25.1245 95.6753 28.1768 94.2959C28.9386 93.9401 29.7004 93.5843 30.4854 93.2177C33.019 92.4625 34.2811 92.6724 36.7393 93.5459Z" fill="#0D0908"/>
<path d="M119.739 81.5459C121.343 81.4917 122.947 81.453 124.552 81.4209C125.445 81.3977 126.338 81.3745 127.259 81.3506C129.739 81.5459 129.739 81.5459 132.739 83.5459C133.069 82.8859 133.399 82.2259 133.739 81.5459C134.069 83.1959 134.399 84.8459 134.739 86.5459C132.759 86.5459 130.779 86.5459 128.739 86.5459C128.739 85.5559 128.739 84.5659 128.739 83.5459C125.439 83.5459 122.139 83.5459 118.739 83.5459C119.069 82.8859 119.399 82.2259 119.739 81.5459Z" fill="#040403"/>
<path d="M19.7393 98.5459C21.3893 98.8759 23.0393 99.2059 24.7393 99.5459C25.3993 102.186 26.0593 104.826 26.7393 107.546C25.0893 107.876 23.4393 108.206 21.7393 108.546C21.7393 107.886 21.7393 107.226 21.7393 106.546C20.4193 106.216 19.0993 105.886 17.7393 105.546C19.0593 105.216 20.3793 104.886 21.7393 104.546C20.4193 103.556 19.0993 102.566 17.7393 101.546C18.3993 101.546 19.0593 101.546 19.7393 101.546C19.7393 100.556 19.7393 99.5659 19.7393 98.5459Z" fill="#1E110E"/>
<path d="M88.7393 87.5459C90.3893 87.5459 92.0393 87.5459 93.7393 87.5459C93.7393 90.1859 93.7393 92.8259 93.7393 95.5459C92.0893 95.5459 90.4393 95.5459 88.7393 95.5459C88.7393 92.9059 88.7393 90.2659 88.7393 87.5459Z" fill="#442A1E"/>
<path d="M59.7393 87.5459C61.3893 87.5459 63.0393 87.5459 64.7393 87.5459C64.7393 90.1859 64.7393 92.8259 64.7393 95.5459C63.0893 95.5459 61.4393 95.5459 59.7393 95.5459C59.7393 92.9059 59.7393 90.2659 59.7393 87.5459Z" fill="#482919"/>
<path d="M91.7393 62.5459C93.3893 62.5459 95.0393 62.5459 96.7393 62.5459C96.7393 65.1859 96.7393 67.8259 96.7393 70.5459C95.0893 70.5459 93.4393 70.5459 91.7393 70.5459C91.7393 67.9059 91.7393 65.2659 91.7393 62.5459Z" fill="#0E0C0C"/>
<path d="M98.7393 83.5459C99.0693 83.5459 99.3993 83.5459 99.7393 83.5459C99.7662 85.6708 99.7856 87.7959 99.8018 89.9209C99.8134 91.1043 99.825 92.2876 99.8369 93.5068C99.7393 96.5459 99.7393 96.5459 98.7393 98.5459C98.0793 98.5459 97.4193 98.5459 96.7393 98.5459C96.7393 94.2559 96.7393 89.9659 96.7393 85.5459C97.3993 85.5459 98.0593 85.5459 98.7393 85.5459C98.7393 84.8859 98.7393 84.2259 98.7393 83.5459Z" fill="#FAC8AF"/>
<path d="M111.74 63.5459C112.07 63.5459 112.4 63.5459 112.74 63.5459C112.74 67.5059 112.74 71.4659 112.74 75.5459C113.4 75.8759 114.06 76.2059 114.74 76.5459C113.75 78.5259 112.76 80.5059 111.74 82.5459C111.41 82.5459 111.08 82.5459 110.74 82.5459C110.713 79.5667 110.693 76.5877 110.677 73.6084C110.669 72.7583 110.66 71.9081 110.652 71.0322C110.648 70.2233 110.645 69.4145 110.642 68.5811C110.637 67.8322 110.631 67.0833 110.626 66.3118C110.74 64.5459 110.74 64.5459 111.74 63.5459Z" fill="#020202"/>
<path d="M31.7393 84.5459C34.0493 84.5459 36.3593 84.5459 38.7393 84.5459C38.7393 86.5259 38.7393 88.5059 38.7393 90.5459C36.7593 90.5459 34.7793 90.5459 32.7393 90.5459C32.4093 88.5659 32.0793 86.5859 31.7393 84.5459Z" fill="#E67162"/>
<path d="M38.7393 64.5459C39.0693 64.5459 39.3993 64.5459 39.7393 64.5459C39.7393 70.1559 39.7393 75.7659 39.7393 81.5459C39.4093 80.5559 39.0793 79.5659 38.7393 78.5459C36.0993 78.5459 33.4593 78.5459 30.7393 78.5459C30.7393 77.5559 30.7393 76.5659 30.7393 75.5459C33.3793 75.5459 36.0193 75.5459 38.7393 75.5459C38.7393 71.9159 38.7393 68.2859 38.7393 64.5459Z" fill="#2A1916"/>
<path d="M147.739 74.5459C146.343 78.0446 145.027 79.2548 141.614 80.7959C140.528 81.2986 140.528 81.2986 139.419 81.8115C138.587 82.175 138.587 82.175 137.739 82.5459C137.739 81.5559 137.739 80.5659 137.739 79.5459C137.079 79.2159 136.419 78.8859 135.739 78.5459C137.174 77.8724 138.612 77.2073 140.052 76.5459C140.852 76.1746 141.653 75.8034 142.478 75.4209C144.739 74.5459 144.739 74.5459 147.739 74.5459Z" fill="#1C0F0E"/>
<path d="M64.7393 118.546C66.7193 118.546 68.6993 118.546 70.7393 118.546C70.7393 122.176 70.7393 125.806 70.7393 129.546C69.7493 129.216 68.7593 128.886 67.7393 128.546C67.7393 126.236 67.7393 123.926 67.7393 121.546C66.4193 121.216 65.0993 120.886 63.7393 120.546C64.0693 119.886 64.3993 119.226 64.7393 118.546Z" fill="#1A1A19"/>
<path d="M52.9893 131.421C53.5668 131.792 54.1443 132.163 54.7393 132.546C54.7393 132.876 54.7393 133.206 54.7393 133.546C53.8524 133.793 52.9655 134.041 52.0518 134.296C48.635 135.585 46.4595 137.146 43.7393 139.546C43.0793 138.886 42.4193 138.226 41.7393 137.546C49.0085 129.873 49.0085 129.873 52.9893 131.421Z" fill="#1A1211"/>
<path d="M39.7393 104.546C41.7193 105.206 43.6993 105.866 45.7393 106.546C44.7393 108.546 44.7393 108.546 42.4893 109.421C39.4015 110.684 37.2604 112.385 34.7393 114.546C34.7393 111.546 34.7393 111.546 36.6768 109.546C37.3574 108.886 38.038 108.226 38.7393 107.546C39.0693 106.556 39.3993 105.566 39.7393 104.546Z" fill="#020503"/>
<path d="M71.7393 139.546C72.0693 140.536 72.3993 141.526 72.7393 142.546C76.0393 142.216 79.3393 141.886 82.7393 141.546C82.7393 142.536 82.7393 143.526 82.7393 144.546C78.7793 144.546 74.8193 144.546 70.7393 144.546C71.0693 142.896 71.3993 141.246 71.7393 139.546Z" fill="#010201"/>
<path d="M31.7393 83.5459C34.3793 83.5459 37.0193 83.5459 39.7393 83.5459C41.025 91.9745 41.025 91.9745 39.7393 96.5459C39.4093 95.8859 39.0793 95.2259 38.7393 94.5459C37.7493 94.2159 36.7593 93.8859 35.7393 93.5459C35.7393 92.8859 35.7393 92.2259 35.7393 91.5459C36.3993 91.2159 37.0593 90.8859 37.7393 90.5459C38.397 87.5166 38.397 87.5166 38.7393 84.5459C36.4293 84.5459 34.1193 84.5459 31.7393 84.5459C31.7393 84.2159 31.7393 83.8859 31.7393 83.5459Z" fill="#34201B"/>
<path d="M85.7393 85.5459C88.3793 85.8759 91.0193 86.2059 93.7393 86.5459C93.7393 86.8759 93.7393 87.2059 93.7393 87.5459C92.0893 87.8759 90.4393 88.2059 88.7393 88.5459C88.6155 89.8453 88.4918 91.1446 88.3643 92.4834C88.1533 94.6982 88.1533 94.6982 87.7393 96.5459C86.7493 97.0409 86.7493 97.0409 85.7393 97.5459C85.7393 93.5859 85.7393 89.6259 85.7393 85.5459Z" fill="#010000"/>
<path d="M65.7393 86.5459C66.3993 86.5459 67.0593 86.5459 67.7393 86.5459C67.7393 90.1759 67.7393 93.8059 67.7393 97.5459C65.7593 97.5459 63.7793 97.5459 61.7393 97.5459C63.0593 96.8859 64.3793 96.2259 65.7393 95.5459C65.7393 92.5759 65.7393 89.6059 65.7393 86.5459Z" fill="#000100"/>
<path d="M122.739 121.546C125.379 121.876 128.019 122.206 130.739 122.546C130.739 123.536 130.739 124.526 130.739 125.546C127.439 125.216 124.139 124.886 120.739 124.546C121.399 123.556 122.059 122.566 122.739 121.546Z" fill="#060605"/>
<path d="M113.739 83.5459C120.669 84.0409 120.669 84.0409 127.739 84.5459C127.409 85.2059 127.079 85.8659 126.739 86.5459C123.439 86.5459 120.139 86.5459 116.739 86.5459C116.409 87.8659 116.079 89.1859 115.739 90.5459C115.079 90.5459 114.419 90.5459 113.739 90.5459C113.739 88.2359 113.739 85.9259 113.739 83.5459Z" fill="#EE6861"/>
<path d="M110.739 29.5459C111.399 29.5459 112.059 29.5459 112.739 29.5459C114.028 31.0068 114.028 31.0068 115.364 32.9209C116.033 33.8606 116.033 33.8606 116.716 34.8193C117.739 36.5459 117.739 36.5459 117.739 38.5459C116.749 38.5459 115.759 38.5459 114.739 38.5459C114.409 39.5359 114.079 40.5259 113.739 41.5459C113.606 40.931 113.474 40.3161 113.337 39.6826C113.16 38.8744 112.984 38.0661 112.802 37.2334C112.628 36.4329 112.454 35.6324 112.274 34.8076C111.74 32.4005 111.74 32.4005 110.739 29.5459Z" fill="#E85B5D"/>
<path d="M123.739 125.546C125.719 125.546 127.699 125.546 129.739 125.546C128.749 127.031 128.749 127.031 127.739 128.546C128.399 128.876 129.059 129.206 129.739 129.546C128.089 130.866 126.439 132.186 124.739 133.546C124.114 131.733 124.114 131.733 123.739 129.546C124.399 128.556 125.059 127.566 125.739 126.546C125.079 126.216 124.419 125.886 123.739 125.546Z" fill="#D62F30"/>
<path d="M110.739 31.5459C111.399 31.8759 112.059 32.2059 112.739 32.5459C112.739 35.8459 112.739 39.1459 112.739 42.5459C112.079 42.5459 111.419 42.5459 110.739 42.5459C110.545 40.9008 110.359 39.2548 110.177 37.6084C110.072 36.6919 109.968 35.7754 109.86 34.8311C109.82 34.077 109.78 33.3229 109.739 32.5459C110.069 32.2159 110.399 31.8859 110.739 31.5459Z" fill="#050403"/>
<path d="M39.7393 30.5459C41.0128 33.0929 40.5412 33.9742 39.8018 36.6709C39.5098 37.7576 39.5098 37.7576 39.2119 38.8662C39.0559 39.4205 38.9 39.9748 38.7393 40.5459C37.7493 40.2159 36.7593 39.8859 35.7393 39.5459C35.7393 38.2259 35.7393 36.9059 35.7393 35.5459C36.3993 35.5459 37.0593 35.5459 37.7393 35.5459C37.7393 34.2259 37.7393 32.9059 37.7393 31.5459C38.3993 31.2159 39.0593 30.8859 39.7393 30.5459Z" fill="#EF655C"/>
<path d="M55.7393 22.5459C56.0693 23.5359 56.3993 24.5259 56.7393 25.5459C53.4393 25.5459 50.1393 25.5459 46.7393 25.5459C51.2393 22.1709 51.2393 22.1709 55.7393 22.5459Z" fill="#EE6661"/>
<path d="M115.739 116.546C117.719 117.206 119.699 117.866 121.739 118.546C120.749 118.876 119.759 119.206 118.739 119.546C117.53 121.546 117.53 121.546 116.739 123.546C116.079 123.216 115.419 122.886 114.739 122.546C114.739 121.886 114.739 121.226 114.739 120.546C115.399 120.546 116.059 120.546 116.739 120.546C116.409 119.226 116.079 117.906 115.739 116.546Z" fill="#241514"/>
<path d="M107.739 136.546C108.729 136.546 109.719 136.546 110.739 136.546C110.925 137.752 110.925 137.752 111.114 138.983C111.321 139.829 111.527 140.675 111.739 141.546C112.399 141.876 113.059 142.206 113.739 142.546C112.419 142.876 111.099 143.206 109.739 143.546C109.079 141.236 108.419 138.926 107.739 136.546Z" fill="#130C0B"/>
<path d="M112.739 83.5459C113.069 83.5459 113.399 83.5459 113.739 83.5459C114.069 86.8459 114.399 90.1459 114.739 93.5459C113.419 93.8759 112.099 94.2059 110.739 94.5459C110.739 92.5659 110.739 90.5859 110.739 88.5459C111.069 88.5459 111.399 88.5459 111.739 88.5459C112.069 86.8959 112.399 85.2459 112.739 83.5459Z" fill="#1E1513"/>
<path d="M119.927 38.4833C120.525 38.834 121.123 39.1846 121.739 39.5458C120.749 39.5458 119.759 39.5458 118.739 39.5458C118.739 40.2058 118.739 40.8658 118.739 41.5458C117.089 41.8758 115.439 42.2058 113.739 42.5458C114.052 40.6083 114.052 40.6083 114.739 38.5458C117.739 37.5458 117.739 37.5458 119.927 38.4833Z" fill="#CE3F3F"/>
<path d="M68.7393 123.546C69.0693 123.546 69.3993 123.546 69.7393 123.546C70.0693 126.846 70.3993 130.146 70.7393 133.546C69.4193 133.546 68.0993 133.546 66.7393 133.546C67.3993 130.246 68.0593 126.946 68.7393 123.546Z" fill="#050605"/>
<path d="M140.739 99.5459C142.389 99.8759 144.039 100.206 145.739 100.546C144.427 102.046 144.427 102.046 142.739 103.546C141.749 103.546 140.759 103.546 139.739 103.546C140.069 102.226 140.399 100.906 140.739 99.5459Z" fill="#160D0E"/>
<path d="M45.7391 29.5459C46.7291 29.8759 47.7191 30.2059 48.7391 30.5459C48.1204 31.1234 47.5016 31.7009 46.8641 32.2959C44.9257 34.3484 43.839 35.9796 42.7391 38.5459C42.3699 33.0074 42.3699 33.0074 44.2391 30.6709C44.7341 30.2996 45.2291 29.9284 45.7391 29.5459Z" fill="#97989C"/>
<path d="M76.7393 137.546C78.2393 138.921 78.2393 138.921 79.7393 140.546C79.7393 141.206 79.7393 141.866 79.7393 142.546C77.7593 142.546 75.7793 142.546 73.7393 142.546C75.6143 138.671 75.6143 138.671 76.7393 137.546Z" fill="#94959A"/>
<path d="M118.739 119.546C119.729 119.546 120.719 119.546 121.739 119.546C121.739 120.536 121.739 121.526 121.739 122.546C121.079 122.546 120.419 122.546 119.739 122.546C119.739 123.206 119.739 123.866 119.739 124.546C118.749 124.876 117.759 125.206 116.739 125.546C117.245 123.377 117.739 121.546 118.739 119.546Z" fill="#110B0B"/>
</svg>
