<svg width="152" height="153" viewBox="0 0 152 153" fill="none" xmlns="http://www.w3.org/2000/svg">
<path d="M120.137 14.1302C122.615 16.0537 124.969 18.0531 127.301 20.1497C128.218 20.927 128.218 20.927 129.153 21.72C142.44 33.794 150.677 52.8254 151.657 70.4934C152.442 93.3282 146.081 112.156 130.301 129.15C125.786 133.65 122.282 136.758 116.301 139.15C115.971 135.52 115.641 131.89 115.301 128.15C115.368 129.019 115.435 129.887 115.504 130.783C115.555 134.559 115.421 137.531 114.301 141.15C110.452 144.241 107.015 145.413 102.301 147.15C102.301 139.56 102.301 131.97 102.301 124.15C101.641 123.82 100.981 123.49 100.301 123.15C100.301 131.4 100.301 139.65 100.301 148.15C89.4315 151.411 89.4315 151.411 83.3011 151.15C82.9711 151.48 82.6411 151.81 82.3011 152.15C79.0011 152.15 75.7011 152.15 72.3011 152.15C72.3011 142.91 72.3011 133.67 72.3011 124.15C71.3111 124.15 70.3211 124.15 69.3011 124.15C69.6311 124.48 69.9611 124.81 70.3011 125.15C70.3887 127.149 70.4081 129.152 70.3988 131.154C70.3939 132.976 70.3939 132.976 70.389 134.835C70.3764 136.754 70.3764 136.754 70.3636 138.712C70.3591 139.995 70.3546 141.279 70.3499 142.601C70.3381 145.784 70.3216 148.967 70.3011 152.15C64.666 151.546 59.9279 150.556 54.3011 149.15C54.3011 140.57 54.3011 131.99 54.3011 123.15C47.3711 122.655 47.3711 122.655 40.3011 122.15C40.3011 117.2 40.3011 112.25 40.3011 107.15C65.0511 107.15 89.8011 107.15 115.301 107.15C115.631 79.4297 115.961 51.7097 116.301 23.1497C90.5611 23.1497 64.8211 23.1497 38.3011 23.1497C38.3011 62.0897 38.3011 101.03 38.3011 141.15C32.2687 138.737 28.1975 135.337 23.3011 131.15C22.6785 130.625 22.0559 130.1 21.4144 129.56C8.09505 117.358 0.86067 99.0612 0.0472066 81.3216C-0.583738 60.4966 5.07208 40.8473 19.3011 25.1497C19.8425 24.54 20.3839 23.9302 20.9417 23.302C47.0048 -4.40516 89.4098 -7.32814 120.137 14.1302Z" fill="#D6D7D7"/>
<path d="M40.3013 25.1497C64.7213 25.1497 89.1413 25.1497 114.301 25.1497C114.301 51.2197 114.301 77.2897 114.301 104.15C89.8813 104.15 65.4613 104.15 40.3013 104.15C40.3013 78.0797 40.3013 52.0097 40.3013 25.1497Z" fill="#F6F6F6"/>
<path d="M37.3013 22.1497C63.7013 22.1497 90.1013 22.1497 117.301 22.1497C117.301 60.7597 117.301 99.3697 117.301 139.15C116.971 139.15 116.641 139.15 116.301 139.15C115.971 135.52 115.641 131.89 115.301 128.15C115.368 129.018 115.435 129.887 115.504 130.782C115.555 134.559 115.422 137.531 114.301 141.15C110.452 144.241 107.015 145.413 102.301 147.15C102.301 139.56 102.301 131.97 102.301 124.15C101.311 123.655 101.311 123.655 100.301 123.15C100.301 131.4 100.301 139.65 100.301 148.15C89.4317 151.411 89.4317 151.411 83.3013 151.15C82.9713 151.48 82.6413 151.81 82.3013 152.15C79.0013 152.15 75.7013 152.15 72.3013 152.15C72.3013 142.91 72.3013 133.67 72.3013 124.15C71.3113 124.15 70.3213 124.15 69.3013 124.15C69.6313 124.48 69.9613 124.81 70.3013 125.15C70.3888 127.149 70.4082 129.152 70.3989 131.154C70.3957 132.369 70.3925 133.583 70.3892 134.835C70.3766 136.754 70.3766 136.754 70.3638 138.712C70.3593 139.995 70.3547 141.279 70.3501 142.601C70.3383 145.784 70.3218 148.967 70.3013 152.15C64.6661 151.546 59.9281 150.556 54.3013 149.15C54.3013 140.57 54.3013 131.99 54.3013 123.15C47.3713 122.655 47.3713 122.655 40.3013 122.15C40.3013 117.2 40.3013 112.25 40.3013 107.15C65.0513 107.15 89.8013 107.15 115.301 107.15C115.631 79.4297 115.961 51.7097 116.301 23.1497C90.5613 23.1497 64.8213 23.1497 38.3013 23.1497C38.3013 62.0897 38.3013 101.03 38.3013 141.15C37.9713 141.15 37.6413 141.15 37.3013 141.15C37.3013 101.88 37.3013 62.6097 37.3013 22.1497Z" fill="#343434"/>
<path d="M44.3013 40.1497C44.9613 40.1497 45.6213 40.1497 46.3013 40.1497C46.3013 52.3597 46.3013 64.5697 46.3013 77.1497C49.9313 77.1497 53.5613 77.1497 57.3013 77.1497C57.3013 74.8397 57.3013 72.5297 57.3013 70.1497C55.5997 70.1806 55.5997 70.1806 53.8638 70.2122C50.3013 70.1497 50.3013 70.1497 49.3013 69.1497C49.3013 62.2197 49.3013 55.2897 49.3013 48.1497C68.1113 48.1497 86.9213 48.1497 106.301 48.1497C105.971 55.4097 105.641 62.6697 105.301 70.1497C102.991 70.1497 100.681 70.1497 98.3013 70.1497C98.3013 72.4597 98.3013 74.7697 98.3013 77.1497C101.601 77.1497 104.901 77.1497 108.301 77.1497C108.301 65.2697 108.301 53.3897 108.301 41.1497C109.291 41.1497 110.281 41.1497 111.301 41.1497C111.301 54.0197 111.301 66.8897 111.301 80.1497C106.681 80.1497 102.061 80.1497 97.3013 80.1497C97.3129 81.4374 97.3245 82.7252 97.3364 84.052C97.3458 85.7304 97.3549 87.4088 97.3638 89.0872C97.3721 89.9373 97.3805 90.7874 97.3892 91.6633C97.3924 92.4722 97.3956 93.2811 97.3989 94.1145C97.4042 94.8634 97.4094 95.6122 97.4148 96.3838C97.3013 98.1497 97.3013 98.1497 96.3013 99.1497C93.4169 99.2383 90.5566 99.2649 87.6724 99.2473C86.376 99.2452 86.376 99.2452 85.0535 99.243C82.2819 99.2374 79.5104 99.2249 76.7388 99.2122C74.8644 99.2071 72.9901 99.2026 71.1157 99.1985C66.5108 99.1883 61.9061 99.1687 57.3013 99.1497C57.3013 92.8797 57.3013 86.6097 57.3013 80.1497C53.0113 80.1497 48.7213 80.1497 44.3013 80.1497C44.3013 66.9497 44.3013 53.7497 44.3013 40.1497Z" fill="#0F100F"/>
<path d="M36.3012 32.1497C36.6312 32.1497 36.9612 32.1497 37.3012 32.1497C37.3012 60.8597 37.3012 89.5697 37.3012 119.15C28.6175 113.939 23.8508 105.459 20.3012 96.1497C20.0354 95.4837 19.7695 94.8177 19.4956 94.1316C17.2801 88.1559 16.7939 82.7437 16.8637 76.3997C16.8713 75.4332 16.8789 74.4667 16.8867 73.4709C17.2019 59.7329 21.7904 47.3398 31.3012 37.1497C31.9612 37.1497 32.6212 37.1497 33.3012 37.1497C33.6106 36.5103 33.92 35.8709 34.2387 35.2122C35.3012 33.1497 35.3012 33.1497 36.3012 32.1497Z" fill="#F1F1F1"/>
<path d="M40.3013 107.15C64.7213 107.15 89.1413 107.15 114.301 107.15C114.301 112.1 114.301 117.05 114.301 122.15C109.351 122.15 104.401 122.15 99.3013 122.15C99.3013 120.5 99.3013 118.85 99.3013 117.15C98.3113 117.15 97.3213 117.15 96.3013 117.15C96.3013 118.8 96.3013 120.45 96.3013 122.15C91.3513 122.15 86.4013 122.15 81.3013 122.15C81.3013 120.5 81.3013 118.85 81.3013 117.15C78.6613 117.15 76.0213 117.15 73.3013 117.15C73.3013 118.8 73.3013 120.45 73.3013 122.15C68.6813 122.15 64.0613 122.15 59.3013 122.15C59.3013 120.5 59.3013 118.85 59.3013 117.15C58.3113 117.15 57.3213 117.15 56.3013 117.15C56.3013 118.8 56.3013 120.45 56.3013 122.15C51.0213 122.15 45.7413 122.15 40.3013 122.15C40.3013 117.2 40.3013 112.25 40.3013 107.15Z" fill="#FAFAFA"/>
<path d="M117.301 36.1497C117.961 36.1497 118.621 36.1497 119.301 36.1497C129.199 47.9098 134.669 60.2239 134.614 75.5247C134.63 76.4064 134.646 77.2881 134.663 78.1965C134.673 91.8902 128.949 104.798 119.719 114.822C118.301 116.15 118.301 116.15 117.301 116.15C117.301 89.7497 117.301 63.3497 117.301 36.1497Z" fill="#F0F0F0"/>
<path d="M44.3013 40.1497C44.9613 40.1497 45.6213 40.1497 46.3013 40.1497C46.3013 52.3597 46.3013 64.5697 46.3013 77.1497C49.9313 77.1497 53.5613 77.1497 57.3013 77.1497C57.3013 74.8397 57.3013 72.5297 57.3013 70.1497C55.5997 70.1806 55.5997 70.1806 53.8638 70.2122C50.3013 70.1497 50.3013 70.1497 49.3013 69.1497C49.3013 62.2197 49.3013 55.2897 49.3013 48.1497C68.1113 48.1497 86.9213 48.1497 106.301 48.1497C105.971 55.0797 105.641 62.0097 105.301 69.1497C102.661 69.1497 100.021 69.1497 97.3013 69.1497C96.8063 68.1597 96.8063 68.1597 96.3013 67.1497C98.2813 67.1497 100.261 67.1497 102.301 67.1497C102.301 64.5097 102.301 61.8697 102.301 59.1497C99.9913 59.1497 97.6813 59.1497 95.3013 59.1497C95.3013 58.8197 95.3013 58.4897 95.3013 58.1497C97.6113 58.1497 99.9213 58.1497 102.301 58.1497C102.301 55.8397 102.301 53.5297 102.301 51.1497C85.8013 51.1497 69.3013 51.1497 52.3013 51.1497C52.6313 53.1297 52.9613 55.1097 53.3013 57.1497C57.5913 57.4797 61.8813 57.8097 66.3013 58.1497C66.3013 61.4497 66.3013 64.7497 66.3013 68.1497C73.2313 68.1497 80.1613 68.1497 87.3013 68.1497C87.3013 68.4797 87.3013 68.8097 87.3013 69.1497C73.9363 69.6447 73.9363 69.6447 60.3013 70.1497C60.3013 75.4297 60.3013 80.7097 60.3013 86.1497C61.2913 86.1497 62.2813 86.1497 63.3013 86.1497C63.3013 83.5097 63.3013 80.8697 63.3013 78.1497C63.6313 78.1497 63.9613 78.1497 64.3013 78.1497C64.3013 81.1197 64.3013 84.0897 64.3013 87.1497C62.6513 87.1497 61.0013 87.1497 59.3013 87.1497C59.3013 84.8397 59.3013 82.5297 59.3013 80.1497C54.3513 80.1497 49.4013 80.1497 44.3013 80.1497C44.3013 66.9497 44.3013 53.7497 44.3013 40.1497Z" fill="#191918"/>
<path d="M52.3013 51.1497C68.8013 51.1497 85.3013 51.1497 102.301 51.1497C102.301 53.1297 102.301 55.1097 102.301 57.1497C97.3513 57.1497 92.4013 57.1497 87.3013 57.1497C87.3013 60.4497 87.3013 63.7497 87.3013 67.1497C80.7013 67.1497 74.1013 67.1497 67.3013 67.1497C67.3013 63.8497 67.3013 60.5497 67.3013 57.1497C62.3513 57.1497 57.4013 57.1497 52.3013 57.1497C52.3013 55.1697 52.3013 53.1897 52.3013 51.1497Z" fill="#F3C9AD"/>
<path d="M60.3013 70.1497C64.9644 70.1268 69.6274 70.1068 74.2905 70.0948C75.8774 70.0897 77.4644 70.0829 79.0513 70.0743C81.3299 70.0622 83.6085 70.0565 85.8872 70.052C86.9545 70.0443 86.9545 70.0443 88.0433 70.0364C93.0735 70.0358 93.0735 70.0358 95.3013 71.1497C95.3013 76.4297 95.3013 81.7097 95.3013 87.1497C93.9813 87.1497 92.6613 87.1497 91.3013 87.1497C91.3013 84.1797 91.3013 81.2097 91.3013 78.1497C88.9913 78.1497 86.6813 78.1497 84.3013 78.1497C84.3013 81.1197 84.3013 84.0897 84.3013 87.1497C80.0113 87.1497 75.7213 87.1497 71.3013 87.1497C71.3013 84.1797 71.3013 81.2097 71.3013 78.1497C68.6613 78.1497 66.0213 78.1497 63.3013 78.1497C63.3013 80.7897 63.3013 83.4297 63.3013 86.1497C62.3113 86.1497 61.3213 86.1497 60.3013 86.1497C60.3013 80.8697 60.3013 75.5897 60.3013 70.1497Z" fill="#E8B6A0"/>
<path d="M54.3013 125.15C59.5813 125.15 64.8613 125.15 70.3013 125.15C70.3013 134.06 70.3013 142.97 70.3013 152.15C62.3013 151.15 62.3013 151.15 54.3013 149.15C54.3013 141.23 54.3013 133.31 54.3013 125.15Z" fill="#E8BEAA"/>
<path d="M38.3012 23.1497C64.0412 23.1497 89.7812 23.1497 116.301 23.1497C115.971 49.8797 115.641 76.6097 115.301 104.15C114.971 104.15 114.641 104.15 114.301 104.15C114.301 78.0797 114.301 52.0097 114.301 25.1497C89.8812 25.1497 65.4612 25.1497 40.3012 25.1497C40.3012 50.8897 40.3012 76.6297 40.3012 103.15C39.9712 103.15 39.6412 103.15 39.3012 103.15C38.493 92.903 38.1628 82.748 38.2035 72.4661C38.2045 71.2034 38.2055 69.9407 38.2066 68.6398C38.2117 63.9972 38.2257 59.3547 38.2387 54.7122C38.2593 44.2965 38.2799 33.8809 38.3012 23.1497Z" fill="#1B1B1B"/>
<path d="M84.3013 125.15C89.2513 125.15 94.2013 125.15 99.3013 125.15C99.3013 132.74 99.3013 140.33 99.3013 148.15C90.3013 151.15 90.3013 151.15 84.3013 151.15C84.3013 142.57 84.3013 133.99 84.3013 125.15Z" fill="#F5C8B2"/>
<path d="M53.3013 57.1497C57.9213 57.1497 62.5413 57.1497 67.3013 57.1497C67.3013 60.4497 67.3013 63.7497 67.3013 67.1497C73.9013 67.1497 80.5013 67.1497 87.3013 67.1497C87.3013 63.8497 87.3013 60.5497 87.3013 57.1497C92.2513 57.1497 97.2013 57.1497 102.301 57.1497C102.301 60.4497 102.301 63.7497 102.301 67.1497C100.651 67.4797 99.0013 67.8097 97.3013 68.1497C99.9413 68.4797 102.581 68.8097 105.301 69.1497C105.301 69.4797 105.301 69.8097 105.301 70.1497C102.991 70.1497 100.681 70.1497 98.3013 70.1497C98.3013 72.4597 98.3013 74.7697 98.3013 77.1497C101.601 77.1497 104.901 77.1497 108.301 77.1497C108.301 77.4797 108.301 77.8097 108.301 78.1497C101.866 78.6447 101.866 78.6447 95.3013 79.1497C95.3013 76.5097 95.3013 73.8697 95.3013 71.1497C84.4113 70.8197 73.5213 70.4897 62.3013 70.1497C63.6213 69.4897 64.9413 68.8297 66.3013 68.1497C66.3013 64.8497 66.3013 61.5497 66.3013 58.1497C62.0113 58.1497 57.7213 58.1497 53.3013 58.1497C53.3013 57.8197 53.3013 57.4897 53.3013 57.1497Z" fill="#211E1C"/>
<path d="M60.3013 89.1497C71.8513 89.1497 83.4013 89.1497 95.3013 89.1497C95.3013 91.4597 95.3013 93.7697 95.3013 96.1497C94.3013 97.1497 94.3013 97.1497 91.0667 97.2632C89.6331 97.263 88.1996 97.2573 86.7661 97.2473C85.6362 97.2452 85.6362 97.2452 84.4835 97.243C82.0686 97.2374 79.6537 97.2249 77.2388 97.2122C75.6053 97.2071 73.9718 97.2026 72.3384 97.1985C68.326 97.1874 64.3136 97.1702 60.3013 97.1497C60.3013 94.5097 60.3013 91.8697 60.3013 89.1497Z" fill="#E0B6A0"/>
<path d="M76.3013 120.15C76.9613 120.15 77.6213 120.15 78.3013 120.15C78.3013 121.8 78.3013 123.45 78.3013 125.15C79.2913 125.15 80.2813 125.15 81.3013 125.15C81.3013 134.06 81.3013 142.97 81.3013 152.15C78.3313 152.15 75.3613 152.15 72.3013 152.15C72.3013 143.24 72.3013 134.33 72.3013 125.15C73.6213 125.15 74.9413 125.15 76.3013 125.15C76.3013 123.5 76.3013 121.85 76.3013 120.15Z" fill="#D4D3D1"/>
<path d="M102.301 125.15C106.261 125.15 110.221 125.15 114.301 125.15C114.301 130.43 114.301 135.71 114.301 141.15C110.341 143.13 106.381 145.11 102.301 147.15C102.301 139.89 102.301 132.63 102.301 125.15Z" fill="#D6D6D5"/>
<path d="M40.3013 125.15C43.9313 125.15 47.5613 125.15 51.3013 125.15C51.3013 132.41 51.3013 139.67 51.3013 147.15C46.3013 146.15 46.3013 146.15 40.3013 143.15C40.3013 137.21 40.3013 131.27 40.3013 125.15Z" fill="#D4D5D4"/>
<path d="M52.3013 49.1497C70.1213 49.1497 87.9413 49.1497 106.301 49.1497C105.971 55.7497 105.641 62.3497 105.301 69.1497C102.661 69.1497 100.021 69.1497 97.3013 69.1497C96.8063 68.1597 96.8063 68.1597 96.3013 67.1497C98.2813 67.1497 100.261 67.1497 102.301 67.1497C102.301 64.5097 102.301 61.8697 102.301 59.1497C99.9913 59.1497 97.6813 59.1497 95.3013 59.1497C95.3013 58.8197 95.3013 58.4897 95.3013 58.1497C97.6113 58.1497 99.9213 58.1497 102.301 58.1497C102.301 55.8397 102.301 53.5297 102.301 51.1497C85.8013 51.1497 69.3013 51.1497 52.3013 51.1497C52.3013 50.4897 52.3013 49.8297 52.3013 49.1497Z" fill="#0A0A09"/>
<path d="M56.3013 117.15C57.2913 117.15 58.2813 117.15 59.3013 117.15C59.3013 118.8 59.3013 120.45 59.3013 122.15C64.2513 122.15 69.2013 122.15 74.3013 122.15C74.3013 120.83 74.3013 119.51 74.3013 118.15C76.2813 118.15 78.2613 118.15 80.3013 118.15C80.3013 119.8 80.3013 121.45 80.3013 123.15C84.2613 123.48 88.2213 123.81 92.3013 124.15C92.3013 124.48 92.3013 124.81 92.3013 125.15C89.6613 125.15 87.0213 125.15 84.3013 125.15C84.3013 133.73 84.3013 142.31 84.3013 151.15C83.3113 151.48 82.3213 151.81 81.3013 152.15C81.3013 143.24 81.3013 134.33 81.3013 125.15C80.3113 125.15 79.3213 125.15 78.3013 125.15C78.3013 123.5 78.3013 121.85 78.3013 120.15C77.6413 120.15 76.9813 120.15 76.3013 120.15C76.3013 121.8 76.3013 123.45 76.3013 125.15C73.9913 124.82 71.6813 124.49 69.3013 124.15C69.3013 124.48 69.3013 124.81 69.3013 125.15C64.3513 125.15 59.4013 125.15 54.3013 125.15C54.3013 124.49 54.3013 123.83 54.3013 123.15C52.9813 122.82 51.6613 122.49 50.3013 122.15C52.2813 122.15 54.2613 122.15 56.3013 122.15C56.3013 120.5 56.3013 118.85 56.3013 117.15Z" fill="#1B1B1A"/>
<path d="M76.4888 17.8371C78.1178 17.813 78.1178 17.813 79.7798 17.7883C86.7878 17.7841 92.7261 18.7072 99.3013 21.1496C99.3013 21.4796 99.3013 21.8096 99.3013 22.1496C78.8413 22.1496 58.3813 22.1496 37.3013 22.1496C37.3013 21.8196 37.3013 21.4896 37.3013 21.1496C37.9415 21.1298 38.5818 21.11 39.2415 21.0896C42.1576 20.994 45.0731 20.8844 47.9888 20.7746C48.9962 20.7437 50.0036 20.7128 51.0415 20.6809C52.5062 20.6229 52.5062 20.6229 54.0005 20.5637C54.896 20.5323 55.7915 20.5008 56.7141 20.4685C59.3416 20.2584 59.3416 20.2584 61.7822 19.1425C66.4706 17.2946 71.5102 17.8226 76.4888 17.8371Z" fill="#F0F1F1"/>
<path d="M107.301 41.1497C107.631 41.1497 107.961 41.1497 108.301 41.1497C108.301 53.0297 108.301 64.9097 108.301 77.1497C105.001 77.1497 101.701 77.1497 98.3013 77.1497C98.3013 74.8397 98.3013 72.5297 98.3013 70.1497C100.611 70.1497 102.921 70.1497 105.301 70.1497C105.296 69.549 105.291 68.9484 105.285 68.3296C105.265 65.6238 105.252 62.918 105.239 60.2122C105.23 59.2666 105.222 58.3211 105.213 57.3469C105.21 56.4478 105.207 55.5487 105.204 54.6223C105.198 53.7897 105.193 52.957 105.188 52.0991C105.301 50.1497 105.301 50.1497 106.301 49.1497C106.532 47.8022 106.713 46.4459 106.864 45.0872C107.008 43.7878 107.153 42.4884 107.301 41.1497Z" fill="#EBDACE"/>
<path d="M60.3013 89.1497C71.8513 89.1497 83.4013 89.1497 95.3013 89.1497C95.3013 91.4597 95.3013 93.7697 95.3013 96.1497C84.4113 96.1497 73.5213 96.1497 62.3013 96.1497C62.3013 95.8197 62.3013 95.4897 62.3013 95.1497C72.5313 95.1497 82.7613 95.1497 93.3013 95.1497C93.3013 93.8297 93.3013 92.5097 93.3013 91.1497C89.2437 91.1939 85.1876 91.2638 81.1309 91.3572C79.7518 91.3853 78.3725 91.4066 76.9932 91.4207C75.007 91.4421 73.0213 91.4909 71.0356 91.5403C69.8417 91.5612 68.6477 91.5822 67.4175 91.6038C63.7737 92.2421 62.5845 93.3129 60.3013 96.1497C60.3013 93.8397 60.3013 91.5297 60.3013 89.1497Z" fill="#E5C0A9"/>
<path d="M46.3013 40.1497C46.6313 40.1497 46.9613 40.1497 47.3013 40.1497C47.3211 40.886 47.3409 41.6224 47.3613 42.3811C47.4566 45.721 47.5663 49.0602 47.6763 52.3997C47.7072 53.5585 47.7381 54.7174 47.77 55.9114C47.8087 57.0264 47.8474 58.1415 47.8872 59.2903C47.9186 60.3167 47.95 61.3431 47.9824 62.4006C48.3045 65.1779 48.6779 66.8773 50.3013 69.1497C53.8633 69.9684 53.8633 69.9684 57.3013 70.1497C57.3013 72.4597 57.3013 74.7697 57.3013 77.1497C53.6713 77.1497 50.0413 77.1497 46.3013 77.1497C46.3013 64.9397 46.3013 52.7297 46.3013 40.1497Z" fill="#DBC2AF"/>
<path d="M73.3013 117.15C75.9413 117.15 78.5813 117.15 81.3013 117.15C81.3013 118.8 81.3013 120.45 81.3013 122.15C86.2513 122.15 91.2013 122.15 96.3013 122.15C96.3013 120.5 96.3013 118.85 96.3013 117.15C97.2913 117.15 98.2813 117.15 99.3013 117.15C99.3013 118.8 99.3013 120.45 99.3013 122.15C102.931 122.15 106.561 122.15 110.301 122.15C110.301 122.48 110.301 122.81 110.301 123.15C107.001 123.15 103.701 123.15 100.301 123.15C100.301 131.4 100.301 139.65 100.301 148.15C99.9713 148.15 99.6413 148.15 99.3013 148.15C99.3013 140.56 99.3013 132.97 99.3013 125.15C94.5452 124.861 94.5452 124.861 89.7886 124.582C86.5245 124.374 83.4358 124.111 80.3013 123.15C80.3013 121.5 80.3013 119.85 80.3013 118.15C78.3213 118.15 76.3413 118.15 74.3013 118.15C73.9713 119.47 73.6413 120.79 73.3013 122.15C73.3013 120.5 73.3013 118.85 73.3013 117.15Z" fill="#312F2E"/>
<path d="M50.3013 69.1497C53.6013 69.1497 56.9013 69.1497 60.3013 69.1497C60.3013 74.7597 60.3013 80.3697 60.3013 86.1497C61.2913 86.1497 62.2813 86.1497 63.3013 86.1497C63.3013 83.5097 63.3013 80.8697 63.3013 78.1497C63.6313 78.1497 63.9613 78.1497 64.3013 78.1497C64.3013 81.1197 64.3013 84.0897 64.3013 87.1497C62.6513 87.1497 61.0013 87.1497 59.3013 87.1497C59.3013 84.8397 59.3013 82.5297 59.3013 80.1497C54.3513 80.1497 49.4013 80.1497 44.3013 80.1497C44.9613 79.1597 45.6213 78.1697 46.3013 77.1497C48.9028 76.8567 48.9028 76.8567 51.9263 76.9622C53.4306 77.0028 53.4306 77.0028 54.9653 77.0442C55.7362 77.079 56.5071 77.1138 57.3013 77.1497C57.3013 74.8397 57.3013 72.5297 57.3013 70.1497C54.9913 70.1497 52.6813 70.1497 50.3013 70.1497C50.3013 69.8197 50.3013 69.4897 50.3013 69.1497Z" fill="#3A3732"/>
<path d="M76.3013 120.15C76.9613 120.15 77.6213 120.15 78.3013 120.15C78.3013 121.8 78.3013 123.45 78.3013 125.15C79.2913 125.15 80.2813 125.15 81.3013 125.15C80.9713 128.12 80.6413 131.09 80.3013 134.15C77.9913 134.15 75.6813 134.15 73.3013 134.15C73.3013 131.18 73.3013 128.21 73.3013 125.15C74.2913 125.15 75.2813 125.15 76.3013 125.15C76.3013 123.5 76.3013 121.85 76.3013 120.15Z" fill="#EEEEED"/>
<path d="M72.3013 125.15C72.6313 125.15 72.9613 125.15 73.3013 125.15C73.3013 128.12 73.3013 131.09 73.3013 134.15C75.6113 134.15 77.9213 134.15 80.3013 134.15C80.3013 131.84 80.3013 129.53 80.3013 127.15C80.6313 127.15 80.9613 127.15 81.3013 127.15C81.3013 129.79 81.3013 132.43 81.3013 135.15C78.9913 135.15 76.6813 135.15 74.3013 135.15C74.3013 140.1 74.3013 145.05 74.3013 150.15C76.6113 150.15 78.9213 150.15 81.3013 150.15C81.3013 150.81 81.3013 151.47 81.3013 152.15C78.3313 152.15 75.3613 152.15 72.3013 152.15C72.3013 143.24 72.3013 134.33 72.3013 125.15Z" fill="#C2C0BF"/>
<path d="M60.3013 70.1497C63.2713 70.1497 66.2413 70.1497 69.3013 70.1497C68.3113 70.8097 67.3213 71.4697 66.3013 72.1497C64.3366 76.734 63.8096 81.2354 63.3013 86.1497C62.3113 86.1497 61.3213 86.1497 60.3013 86.1497C60.3013 80.8697 60.3013 75.5897 60.3013 70.1497Z" fill="#F5CEB9"/>
<path d="M56.3013 117.15C57.2913 117.15 58.2813 117.15 59.3013 117.15C59.3013 118.8 59.3013 120.45 59.3013 122.15C63.9213 122.15 68.5413 122.15 73.3013 122.15C68.9158 125.439 66.7052 125.527 61.5513 125.337C60.8539 125.324 60.1565 125.31 59.438 125.296C57.7254 125.261 56.0132 125.207 54.3013 125.15C54.3013 124.49 54.3013 123.83 54.3013 123.15C52.9813 122.82 51.6613 122.49 50.3013 122.15C52.2813 122.15 54.2613 122.15 56.3013 122.15C56.3013 120.5 56.3013 118.85 56.3013 117.15Z" fill="#272726"/>
<path d="M52.3013 60.1497C54.6113 60.1497 56.9213 60.1497 59.3013 60.1497C59.3013 62.4597 59.3013 64.7697 59.3013 67.1497C56.9913 67.1497 54.6813 67.1497 52.3013 67.1497C52.3013 64.8397 52.3013 62.5297 52.3013 60.1497Z" fill="#CFD0D0"/>
<path d="M96.3013 59.1497C98.2813 59.1497 100.261 59.1497 102.301 59.1497C102.301 61.7897 102.301 64.4297 102.301 67.1497C100.321 67.1497 98.3413 67.1497 96.3013 67.1497C96.3013 64.5097 96.3013 61.8697 96.3013 59.1497Z" fill="#DCDCDC"/>
<path d="M114.301 107.15C114.631 107.15 114.961 107.15 115.301 107.15C115.631 114.08 115.961 121.01 116.301 128.15C115.971 127.16 115.641 126.17 115.301 125.15C111.011 125.15 106.721 125.15 102.301 125.15C102.301 124.82 102.301 124.49 102.301 124.15C103.879 123.933 103.879 123.933 105.489 123.712C108.44 123.277 111.376 122.735 114.301 122.15C114.301 117.2 114.301 112.25 114.301 107.15Z" fill="#1F1F1E"/>
<path d="M57.3013 80.1497C57.9613 80.1497 58.6213 80.1497 59.3013 80.1497C59.3013 82.4597 59.3013 84.7697 59.3013 87.1497C60.6213 87.4797 61.9413 87.8097 63.3013 88.1497C62.3113 88.4797 61.3213 88.8097 60.3013 89.1497C60.3631 90.4284 60.425 91.7072 60.4888 93.0247C60.5942 95.2043 60.5942 95.2043 60.3013 97.1497C58.8163 98.1397 58.8163 98.1397 57.3013 99.1497C57.3013 92.8797 57.3013 86.6097 57.3013 80.1497Z" fill="#1B1A18"/>
<path d="M99.2466 68.9543C101.265 69.0194 103.283 69.0846 105.301 69.1497C105.301 69.4797 105.301 69.8097 105.301 70.1497C102.991 70.1497 100.681 70.1497 98.3013 70.1497C98.3013 72.4597 98.3013 74.7697 98.3013 77.1497C101.601 77.1497 104.901 77.1497 108.301 77.1497C108.301 77.4797 108.301 77.8097 108.301 78.1497C101.866 78.6447 101.866 78.6447 95.3013 79.1497C95.106 73.095 95.106 73.095 95.3013 71.1497C97.3013 69.1497 97.3013 69.1497 99.2466 68.9543Z" fill="#34312D"/>
<path d="M84.3013 125.15C86.6113 125.48 88.9213 125.81 91.3013 126.15C90.6619 126.459 90.0225 126.768 89.3638 127.087C87.3652 127.984 87.3652 127.984 86.3013 129.15C86.2143 130.784 86.1943 132.423 86.2036 134.06C86.2068 135.049 86.2101 136.039 86.2134 137.058C86.2218 138.099 86.2301 139.14 86.2388 140.212C86.2433 141.257 86.2478 142.302 86.2524 143.378C86.2643 145.969 86.2808 148.559 86.3013 151.15C85.6413 151.15 84.9813 151.15 84.3013 151.15C84.3013 142.57 84.3013 133.99 84.3013 125.15Z" fill="#F5D2C0"/>
<path d="M93.3013 73.1497C93.6313 73.1497 93.9613 73.1497 94.3013 73.1497C94.3013 77.4397 94.3013 81.7297 94.3013 86.1497C93.3113 86.1497 92.3213 86.1497 91.3013 86.1497C91.2468 84.7334 91.2083 83.3166 91.1763 81.8997C91.1531 81.1108 91.1299 80.3218 91.106 79.509C91.3184 76.9423 92.0147 75.3581 93.3013 73.1497Z" fill="#FBD5BE"/>
<path d="M84.3013 78.1497C85.9513 78.1497 87.6013 78.1497 89.3013 78.1497C88.6413 78.8097 87.9813 79.4697 87.3013 80.1497C86.9036 82.1379 86.5635 84.1391 86.3013 86.1497C85.6413 86.1497 84.9813 86.1497 84.3013 86.1497C84.3013 83.5097 84.3013 80.8697 84.3013 78.1497Z" fill="#060807"/>
<path d="M53.3013 58.1497C56.9313 58.1497 60.5613 58.1497 64.3013 58.1497C63.3113 58.8097 62.3213 59.4697 61.3013 60.1497C60.3113 61.6347 60.3113 61.6347 59.3013 63.1497C58.9713 62.1597 58.6413 61.1697 58.3013 60.1497C56.6513 59.8197 55.0013 59.4897 53.3013 59.1497C53.3013 58.8197 53.3013 58.4897 53.3013 58.1497Z" fill="#020102"/>
</svg>
