<svg width="152" height="154" viewBox="0 0 152 154" fill="none" xmlns="http://www.w3.org/2000/svg">
<path d="M120.056 13.662C122.529 15.5864 124.883 17.5783 127.209 19.6776C127.843 20.2422 128.477 20.8068 129.13 21.3885C142.437 33.9299 150.715 51.3563 151.521 69.5253C152.104 90.8035 148.134 110.648 133.271 126.678C131.626 128.411 129.962 130.051 128.209 131.678C127.879 131.678 127.549 131.678 127.209 131.678C127.111 131.098 127.013 130.517 126.912 129.92C125.717 123.679 123.79 119.259 119.209 114.678C119.209 117.783 121.308 119.316 123.209 121.678C124.838 126.567 125.771 130.646 124.209 135.678C111.309 148.169 90.8197 153.098 73.4866 153.046C59.9492 152.651 47.8034 148.513 36.2085 141.678C35.2507 141.143 34.293 140.608 33.3062 140.057C30.7622 138.422 28.9761 137.132 27.2085 134.678C26.4224 129.672 27.4851 125.429 29.396 120.803C32.5669 117.085 36.0992 113.128 41.2085 112.678C43.8812 112.616 46.5338 112.633 49.2085 112.678C49.2085 112.018 49.2085 111.358 49.2085 110.678C45.5785 110.348 41.9485 110.018 38.2085 109.678C37.7135 111.163 37.7135 111.163 37.2085 112.678C36.0948 113.08 36.0948 113.08 34.9585 113.49C31.2679 115.084 29.0828 117.182 27.2085 120.678C26.238 124.314 25.6538 127.943 25.2085 131.678C15.8759 127.539 10.2183 116.647 6.20852 107.678C-1.32499 87.5361 -2.69628 66.4109 5.97415 46.4745C9.71969 38.3748 14.1608 31.2871 20.2085 24.6776C20.7989 23.9957 21.3893 23.3138 21.9976 22.6112C46.9031 -4.46695 90.4926 -6.93922 120.056 13.662Z" fill="#05080A"/>
<path d="M120.056 13.662C122.529 15.5864 124.883 17.5783 127.209 19.6776C127.843 20.2422 128.477 20.8068 129.13 21.3885C142.437 33.9299 150.715 51.3563 151.521 69.5253C152.104 90.8035 148.134 110.648 133.271 126.678C131.626 128.411 129.962 130.051 128.209 131.678C127.879 131.678 127.549 131.678 127.209 131.678C127.111 131.098 127.013 130.517 126.912 129.92C125.638 123.268 123.923 118.54 118.11 114.552C116.254 113.018 115.341 112.134 114.664 109.805C114.47 107.497 114.466 105.256 114.527 102.94C114.526 101.637 114.526 101.637 114.525 100.307C114.529 97.4441 114.576 94.5833 114.623 91.7206C114.634 89.7323 114.642 87.7441 114.648 85.7558C114.671 80.5292 114.73 75.3035 114.797 70.0773C114.869 63.8032 114.896 57.5288 114.931 51.2545C114.989 41.7282 115.104 32.204 115.209 22.6776C89.4685 23.0076 63.7285 23.3376 37.2085 23.6776C37.2291 29.9489 37.2498 36.2202 37.271 42.6815C37.2663 46.6601 37.2592 50.6385 37.2437 54.6171C37.2193 60.9289 37.2034 67.24 37.2393 73.5519C37.2677 78.6422 37.2571 83.7312 37.2197 88.8214C37.2123 90.761 37.2188 92.7007 37.2396 94.6402C37.3896 109.902 37.3896 109.902 34.4114 114.378C32.421 116.11 30.4846 117.367 28.2085 118.678C25.8409 122.692 25.6741 127.1 25.2085 131.678C15.8759 127.539 10.2183 116.647 6.20852 107.678C-1.32499 87.5361 -2.69628 66.4109 5.97415 46.4745C9.71969 38.3748 14.1608 31.2871 20.2085 24.6776C20.7989 23.9957 21.3893 23.3138 21.9976 22.6112C46.9031 -4.46695 90.4926 -6.93922 120.056 13.662Z" fill="#1979C3"/>
<path d="M48.2085 46.6776C66.6885 46.6776 85.1685 46.6776 104.208 46.6776C104.208 49.6476 104.208 52.6176 104.208 55.6776C107.178 55.6776 110.148 55.6776 113.208 55.6776C113.208 73.4976 113.208 91.3176 113.208 109.678C107.268 109.678 101.328 109.678 95.2085 109.678C95.2085 102.418 95.2085 95.1576 95.2085 87.6776C92.2385 87.6776 89.2685 87.6776 86.2085 87.6776C86.2085 84.0476 86.2085 80.4176 86.2085 76.6776C79.2785 76.6776 72.3485 76.6776 65.2085 76.6776C65.2085 80.3076 65.2085 83.9376 65.2085 87.6776C62.5685 87.6776 59.9285 87.6776 57.2085 87.6776C57.2085 94.9376 57.2085 102.198 57.2085 109.678C51.2685 109.678 45.3285 109.678 39.2085 109.678C39.2085 91.8576 39.2085 74.0376 39.2085 55.6776C42.1785 55.6776 45.1485 55.6776 48.2085 55.6776C48.2085 52.7076 48.2085 49.7376 48.2085 46.6776Z" fill="#F5C59E"/>
<path d="M49.4585 112.615C50.2036 112.62 50.9487 112.624 51.7163 112.629C53.5471 112.64 55.3778 112.658 57.2085 112.678C57.5385 115.318 57.8685 117.958 58.2085 120.678C59.2192 120.843 60.2298 121.008 61.271 121.178C65.6877 122.402 67.7797 125.19 70.5327 128.705C72.2532 130.73 74.0329 132.166 76.2085 133.678C77.0168 132.811 77.825 131.945 78.6577 131.053C79.7365 129.927 80.816 128.802 81.896 127.678C82.4265 127.105 82.9569 126.533 83.5035 125.943C87.5607 121.761 87.5607 121.761 91.1031 121.303C92.1453 121.488 92.1453 121.488 93.2085 121.678C93.2085 118.708 93.2085 115.738 93.2085 112.678C96.0429 112.569 98.873 112.49 101.709 112.428C102.5 112.394 103.292 112.361 104.107 112.326C109.977 112.23 114.311 113.372 119.209 116.678C123.728 121.429 125.183 126.261 125.115 132.76C123.48 138.023 118.872 140.173 114.275 142.67C94.3662 152.712 73.8408 155.953 52.2427 149.371C46.5483 147.43 41.3883 144.731 36.2085 141.678C35.2508 141.143 34.293 140.608 33.3062 140.056C30.7622 138.422 28.9761 137.132 27.2085 134.678C26.4224 129.672 27.4851 125.429 29.396 120.803C35.4524 113.702 40.3287 112.51 49.4585 112.615Z" fill="#1D73C1"/>
<path d="M39.2085 25.6776C63.6285 25.6776 88.0485 25.6776 113.208 25.6776C113.208 34.5876 113.208 43.4976 113.208 52.6776C111.228 52.6776 109.248 52.6776 107.208 52.6776C107.208 49.7076 107.208 46.7376 107.208 43.6776C86.7485 43.6776 66.2885 43.6776 45.2085 43.6776C45.2085 46.6476 45.2085 49.6176 45.2085 52.6776C43.2285 52.6776 41.2485 52.6776 39.2085 52.6776C39.2085 43.7676 39.2085 34.8576 39.2085 25.6776Z" fill="#522E14"/>
<path d="M36.2085 34.6776C36.2085 60.0876 36.2085 85.4976 36.2085 111.678C33.7335 112.668 33.7335 112.668 31.2085 113.678C25.1128 104.99 20.7118 97.1378 18.2085 86.6776C18.0177 86.0305 17.827 85.3834 17.6304 84.7167C14.5891 70.0171 19.309 55.9243 27.2085 43.6776C34.2265 34.6776 34.2265 34.6776 36.2085 34.6776Z" fill="#46A8DA"/>
<path d="M116.208 34.6776C125.589 42.4944 131.583 52.681 134.208 64.6776C135.707 82.0504 133.86 96.476 123.076 110.701C121.208 112.678 121.208 112.678 118.208 113.678C117.548 113.348 116.888 113.018 116.208 112.678C116.208 86.9376 116.208 61.1976 116.208 34.6776Z" fill="#43A8DA"/>
<path d="M65.2085 76.6776C72.1385 76.6776 79.0685 76.6776 86.2085 76.6776C86.2085 80.3076 86.2085 83.9376 86.2085 87.6776C89.1785 87.6776 92.1485 87.6776 95.2085 87.6776C95.2085 94.6076 95.2085 101.538 95.2085 108.678C94.2185 109.008 93.2285 109.338 92.2085 109.678C92.2085 103.408 92.2085 97.1376 92.2085 90.6776C90.5585 90.6776 88.9085 90.6776 87.2085 90.6776C87.2085 93.6476 87.2085 96.6176 87.2085 99.6776C79.9485 99.6776 72.6885 99.6776 65.2085 99.6776C65.2085 96.7076 65.2085 93.7376 65.2085 90.6776C63.5585 90.6776 61.9085 90.6776 60.2085 90.6776C60.2085 96.6176 60.2085 102.558 60.2085 108.678C59.8785 108.678 59.5485 108.678 59.2085 108.678C59.2085 102.078 59.2085 95.4776 59.2085 88.6776C61.1885 88.6776 63.1685 88.6776 65.2085 88.6776C65.2085 84.7176 65.2085 80.7576 65.2085 76.6776Z" fill="#1E1813"/>
<path d="M60.2085 90.6776C61.8585 90.6776 63.5085 90.6776 65.2085 90.6776C65.2085 93.6476 65.2085 96.6176 65.2085 99.6776C72.4685 99.6776 79.7285 99.6776 87.2085 99.6776C87.2085 96.7076 87.2085 93.7376 87.2085 90.6776C88.8585 90.6776 90.5085 90.6776 92.2085 90.6776C92.2085 96.9476 92.2085 103.218 92.2085 109.678C81.6485 109.678 71.0885 109.678 60.2085 109.678C60.2085 103.408 60.2085 97.1376 60.2085 90.6776Z" fill="#502E16"/>
<path d="M60.2085 112.678C70.4385 112.678 80.6685 112.678 91.2085 112.678C91.2085 114.658 91.2085 116.638 91.2085 118.678C89.5585 118.678 87.9085 118.678 86.2085 118.678C85.9636 119.25 85.7187 119.822 85.4663 120.412C83.9974 123.058 82.255 124.826 80.0835 126.928C79.359 127.634 78.6346 128.34 77.8882 129.068C77.3339 129.599 76.7796 130.13 76.2085 130.678C69.6265 125.43 69.6265 125.43 67.646 121.865C66.3302 119.327 66.3302 119.327 63.021 118.865C61.6288 118.772 61.6288 118.772 60.2085 118.678C60.2085 116.698 60.2085 114.718 60.2085 112.678Z" fill="#F8CAA3"/>
<path d="M36.2085 23.6776C39.3833 27.9107 39.5773 28.5835 39.5015 33.537C39.4918 34.652 39.4821 35.7671 39.4722 36.9159C39.447 38.0748 39.4219 39.2336 39.396 40.4276C39.3825 41.6019 39.3689 42.7763 39.355 43.9862C39.3196 46.8838 39.2703 49.7805 39.2085 52.6776C41.1885 52.6776 43.1685 52.6776 45.2085 52.6776C45.2085 49.7076 45.2085 46.7376 45.2085 43.6776C48.5085 43.6776 51.8085 43.6776 55.2085 43.6776C55.2085 44.0076 55.2085 44.3376 55.2085 44.6776C79.4635 45.1726 79.4635 45.1726 104.208 45.6776C104.208 46.0076 104.208 46.3376 104.208 46.6776C85.7285 46.6776 67.2485 46.6776 48.2085 46.6776C48.2085 49.6476 48.2085 52.6176 48.2085 55.6776C45.2385 55.6776 42.2685 55.6776 39.2085 55.6776C39.2129 56.3475 39.2174 57.0173 39.222 57.7075C39.2661 64.6663 39.2963 71.6251 39.3184 78.5841C39.3284 81.1828 39.3421 83.7814 39.3594 86.38C39.3836 90.1107 39.395 93.8413 39.4038 97.5721C39.4141 98.7378 39.4245 99.9035 39.4351 101.105C39.4352 102.185 39.4354 103.266 39.4355 104.38C39.44 105.333 39.4444 106.285 39.449 107.267C39.2085 109.678 39.2085 109.678 37.2085 112.678C36.5485 112.348 35.8885 112.018 35.2085 111.678C35.5385 82.6376 35.8685 53.5976 36.2085 23.6776Z" fill="#16191B"/>
<path d="M57.2085 87.6776C59.8485 87.6776 62.4885 87.6776 65.2085 87.6776C65.2085 88.0076 65.2085 88.3376 65.2085 88.6776C63.2285 88.6776 61.2485 88.6776 59.2085 88.6776C59.5385 95.2776 59.8685 101.878 60.2085 108.678C66.8085 109.008 73.4085 109.338 80.2085 109.678C80.2085 110.338 80.2085 110.998 80.2085 111.678C83.8385 111.678 87.4685 111.678 91.2085 111.678C91.2085 112.008 91.2085 112.338 91.2085 112.678C80.9785 112.678 70.7485 112.678 60.2085 112.678C60.2085 114.658 60.2085 116.638 60.2085 118.678C61.116 118.554 62.0235 118.43 62.9585 118.303C64.5672 118.488 64.5672 118.488 66.2085 118.678C68.2085 121.365 68.2085 121.365 70.2085 124.678C72.1158 126.505 74.1138 128.059 76.2085 129.678C77.6907 128.222 79.1692 126.763 80.646 125.303C81.4697 124.491 82.2934 123.678 83.1421 122.842C85.2428 120.854 85.2428 120.854 86.2085 118.678C87.5285 118.678 88.8485 118.678 90.2085 118.678C90.2085 119.338 90.2085 119.998 90.2085 120.678C91.1985 121.008 92.1885 121.338 93.2085 121.678C92.3397 121.892 91.4708 122.106 90.5757 122.326C86.6068 123.919 84.1934 126.241 81.3335 129.303C80.5871 130.076 80.5871 130.076 79.8257 130.865C78.6106 132.127 77.4082 133.401 76.2085 134.678C72.6906 131.819 69.4075 129.093 66.7085 125.428C63.5734 121.979 61.6898 121.556 57.2085 120.678C57.2085 118.038 57.2085 115.398 57.2085 112.678C54.5685 112.678 51.9285 112.678 49.2085 112.678C49.5385 111.688 49.8685 110.698 50.2085 109.678C52.5185 109.678 54.8285 109.678 57.2085 109.678C57.2085 102.418 57.2085 95.1576 57.2085 87.6776Z" fill="#161414"/>
<path d="M88.2085 65.6776C94.4785 65.6776 100.748 65.6776 107.208 65.6776C107.208 69.9676 107.208 74.2576 107.208 78.6776C100.938 78.6776 94.6685 78.6776 88.2085 78.6776C88.2085 74.3876 88.2085 70.0976 88.2085 65.6776Z" fill="#131312"/>
<path d="M45.2085 65.6776C51.4785 65.6776 57.7485 65.6776 64.2085 65.6776C64.2085 69.9676 64.2085 74.2576 64.2085 78.6776C57.9385 78.6776 51.6685 78.6776 45.2085 78.6776C45.2085 74.3876 45.2085 70.0976 45.2085 65.6776Z" fill="#0C0F0E"/>
<path d="M99.2085 21.6776C99.2085 22.0076 99.2085 22.3376 99.2085 22.6776C83.0385 22.6776 66.8685 22.6776 50.2085 22.6776C63.1364 14.059 85.6316 15.2615 99.2085 21.6776Z" fill="#48A6D3"/>
<path d="M68.2085 79.6776C73.1585 79.6776 78.1085 79.6776 83.2085 79.6776C83.2085 82.3176 83.2085 84.9576 83.2085 87.6776C78.2585 87.6776 73.3085 87.6776 68.2085 87.6776C68.2085 85.0376 68.2085 82.3976 68.2085 79.6776Z" fill="#AE6336"/>
<path d="M90.2085 68.6776C94.8285 68.6776 99.4485 68.6776 104.208 68.6776C104.208 71.3176 104.208 73.9576 104.208 76.6776C99.5885 76.6776 94.9685 76.6776 90.2085 76.6776C90.2085 74.0376 90.2085 71.3976 90.2085 68.6776Z" fill="#398196"/>
<path d="M48.2085 68.6776C52.4985 68.6776 56.7885 68.6776 61.2085 68.6776C61.2085 71.3176 61.2085 73.9576 61.2085 76.6776C56.9185 76.6776 52.6285 76.6776 48.2085 76.6776C48.2085 74.0376 48.2085 71.3976 48.2085 68.6776Z" fill="#1C838F"/>
<path d="M68.2085 90.6776C73.4885 90.6776 78.7685 90.6776 84.2085 90.6776C84.2085 92.6576 84.2085 94.6376 84.2085 96.6776C78.9285 96.6776 73.6485 96.6776 68.2085 96.6776C68.2085 94.6976 68.2085 92.7176 68.2085 90.6776Z" fill="#F7C89E"/>
<path d="M87.2085 65.6776C87.5385 65.6776 87.8685 65.6776 88.2085 65.6776C88.2085 69.9676 88.2085 74.2576 88.2085 78.6776C94.1485 78.6776 100.088 78.6776 106.208 78.6776C106.208 79.0076 106.208 79.3376 106.208 79.6776C98.2885 80.1726 98.2885 80.1726 90.2085 80.6776C89.5485 82.6576 88.8885 84.6376 88.2085 86.6776C89.5285 87.0076 90.8485 87.3376 92.2085 87.6776C90.2285 87.6776 88.2485 87.6776 86.2085 87.6776C86.5385 80.4176 86.8685 73.1576 87.2085 65.6776Z" fill="#CAA589"/>
<path d="M35.2084 112.678C35.5384 113.668 35.8684 114.658 36.2084 115.678C34.7852 116.544 34.7852 116.544 33.3334 117.428C29.161 120.803 29.0594 125.153 28.4349 130.228C28.3602 131.037 28.2854 131.845 28.2084 132.678C27.8784 132.678 27.5484 132.678 27.2084 132.678C27.064 131.935 26.9196 131.193 26.7709 130.428C26.3079 127.775 26.3079 127.775 25.4584 125.74C25.0534 122.399 26.4851 120.492 28.2084 117.678C32.6649 112.678 32.6649 112.678 35.2084 112.678Z" fill="#051018"/>
<path d="M46.2085 67.6776C46.5385 67.6776 46.8685 67.6776 47.2085 67.6776C47.5385 70.3176 47.8685 72.9576 48.2085 75.6776C50.3334 75.7045 52.4585 75.724 54.5835 75.7401C56.3585 75.7575 56.3585 75.7575 58.1694 75.7753C61.1277 75.8923 61.1277 75.8923 63.2085 74.6776C63.5385 75.9976 63.8685 77.3176 64.2085 78.6776C58.2685 78.6776 52.3285 78.6776 46.2085 78.6776C46.2085 75.0476 46.2085 71.4176 46.2085 67.6776Z" fill="#020201"/>
<path d="M45.2085 43.6776C48.5085 43.6776 51.8085 43.6776 55.2085 43.6776C55.2085 44.0076 55.2085 44.3376 55.2085 44.6776C52.8985 44.6776 50.5885 44.6776 48.2085 44.6776C48.2085 48.3076 48.2085 51.9376 48.2085 55.6776C43.7535 54.6876 43.7535 54.6876 39.2085 53.6776C39.2085 53.3476 39.2085 53.0176 39.2085 52.6776C41.1885 52.6776 43.1685 52.6776 45.2085 52.6776C45.2085 49.7076 45.2085 46.7376 45.2085 43.6776Z" fill="#130F0A"/>
<path d="M64.2085 65.6776C64.2085 69.3076 64.2085 72.9376 64.2085 76.6776C63.2185 76.3476 62.2285 76.0176 61.2085 75.6776C61.2085 73.3676 61.2085 71.0576 61.2085 68.6776C56.9185 68.6776 52.6285 68.6776 48.2085 68.6776C48.2085 68.3476 48.2085 68.0176 48.2085 67.6776C49.0515 67.617 49.8946 67.5564 50.7632 67.494C51.8589 67.4102 52.9546 67.3264 54.0835 67.2401C55.174 67.1589 56.2646 67.0777 57.3882 66.994C59.9445 66.7072 61.7033 65.6776 64.2085 65.6776Z" fill="#2E3331"/>
<path d="M68.2085 90.6776C73.4885 90.6776 78.7685 90.6776 84.2085 90.6776C84.2085 91.0076 84.2085 91.3376 84.2085 91.6776C77.7735 92.1726 77.7735 92.1726 71.2085 92.6776C71.2085 93.3376 71.2085 93.9976 71.2085 94.6776C75.4985 95.0076 79.7885 95.3376 84.2085 95.6776C84.2085 96.0076 84.2085 96.3376 84.2085 96.6776C78.9285 96.6776 73.6485 96.6776 68.2085 96.6776C68.2085 94.6976 68.2085 92.7176 68.2085 90.6776Z" fill="#FBD5AE"/>
<path d="M48.2085 68.6776C50.1885 68.6776 52.1685 68.6776 54.2085 68.6776C54.2085 70.9876 54.2085 73.2976 54.2085 75.6776C52.2285 75.6776 50.2485 75.6776 48.2085 75.6776C48.2085 73.3676 48.2085 71.0576 48.2085 68.6776Z" fill="#F0F9FC"/>
<path d="M98.2085 68.6776C99.8585 68.6776 101.508 68.6776 103.208 68.6776C103.208 70.9876 103.208 73.2976 103.208 75.6776C101.558 75.6776 99.9085 75.6776 98.2085 75.6776C98.2085 73.3676 98.2085 71.0576 98.2085 68.6776Z" fill="#F3F8F8"/>
<path d="M118.208 113.678C122.721 117.013 124.891 119.011 126.208 124.678C125.218 124.678 124.228 124.678 123.208 124.678C122.232 122.92 121.255 121.162 120.279 119.404C119.2 117.516 119.2 117.516 117.208 115.678C117.538 115.018 117.868 114.358 118.208 113.678Z" fill="#070F16"/>
<path d="M86.2085 118.678C87.5285 118.678 88.8485 118.678 90.2085 118.678C90.2085 119.338 90.2085 119.998 90.2085 120.678C91.1985 121.008 92.1885 121.338 93.2085 121.678C91.9192 122.04 90.627 122.393 89.3335 122.74C88.2546 123.036 88.2546 123.036 87.1538 123.338C85.2085 123.678 85.2085 123.678 83.2085 122.678C84.4585 120.678 84.4585 120.678 86.2085 118.678Z" fill="#272A2D"/>
<path d="M26.2083 120.678C27.1983 121.008 28.1883 121.338 29.2083 121.678C28.8783 125.308 28.5483 128.938 28.2083 132.678C27.8783 132.678 27.5483 132.678 27.2083 132.678C27.0639 131.935 26.9195 131.193 26.7708 130.428C26.2663 127.765 26.2663 127.765 25.5833 125.553C25.2083 123.678 25.2083 123.678 26.2083 120.678Z" fill="#071E30"/>
<path d="M91.2085 68.6776C92.8585 68.6776 94.5085 68.6776 96.2085 68.6776C94.9155 71.562 93.5491 73.5498 91.2085 75.6776C91.2085 73.3676 91.2085 71.0576 91.2085 68.6776Z" fill="#1089B0"/>
</svg>
