<svg width="152" height="154" viewBox="0 0 152 154" fill="none" xmlns="http://www.w3.org/2000/svg">
<path d="M74.5108 0.00114308C75.6995 0.00686329 76.8882 0.0125835 78.1129 0.0184771C98.8603 0.436691 116.835 8.77038 131.448 23.5011C147.215 41.1847 152.995 61.7676 151.667 84.9596C149.915 105.318 138.392 122.604 123.55 135.884C121.448 137.501 121.448 137.501 119.448 137.501C119.118 131.231 118.788 124.961 118.448 118.501C118.118 125.761 117.788 133.021 117.448 140.501C97.096 150.593 76.4496 157.454 53.8741 149.911C36.3969 142.717 36.3969 142.717 30.4483 137.501C29.6983 135.314 29.6983 135.314 29.4483 133.501C28.4583 134.491 28.4583 134.491 27.4483 135.501C16.2157 125.012 8.15057 114.372 3.44833 99.5011C3.05883 98.2943 3.05883 98.2943 2.66147 97.0632C0.595791 90.207 -0.0627253 83.8948 0.0108314 76.7511C0.0191298 75.702 0.0274281 74.6529 0.0359779 73.5719C0.471342 53.4398 8.92647 35.4463 22.8936 20.966C37.1301 7.59981 55.0165 -0.107972 74.5108 0.00114308Z" fill="#72B64E"/>
<path d="M74.5107 0.00114308C75.6994 0.00686329 76.888 0.0125835 78.1127 0.0184771C98.8601 0.436691 116.835 8.77038 131.448 23.5011C147.215 41.1847 152.995 61.7676 151.667 84.9596C149.915 105.318 138.392 122.604 123.55 135.884C121.448 137.501 121.448 137.501 119.448 137.501C119.448 127.931 119.448 118.361 119.448 108.501C112.518 108.501 105.588 108.501 98.4482 108.501C98.4482 110.811 98.4482 113.121 98.4482 115.501C95.1482 115.501 91.8482 115.501 88.4482 115.501C88.4482 119.131 88.4482 122.761 88.4482 126.501C85.1482 126.501 81.8482 126.501 78.4482 126.501C78.4482 124.191 78.4482 121.881 78.4482 119.501C75.1482 119.501 71.8482 119.501 68.4482 119.501C68.4482 115.871 68.4482 112.241 68.4482 108.501C66.7982 108.501 65.1482 108.501 63.4482 108.501C63.4482 107.181 63.4482 105.861 63.4482 104.501C71.0382 104.501 78.6282 104.501 86.4482 104.501C86.4482 106.811 86.4482 109.121 86.4482 111.501C87.1082 111.501 87.7682 111.501 88.4482 111.501C88.4482 109.191 88.4482 106.881 88.4482 104.501C89.6061 104.471 89.6061 104.471 90.7873 104.441C94.2788 104.346 97.7697 104.236 101.261 104.126C103.083 104.08 103.083 104.08 104.942 104.032C106.106 103.994 107.269 103.955 108.468 103.915C109.541 103.884 110.615 103.852 111.721 103.82C114.664 103.685 114.664 103.685 117.448 101.501C117.75 98.7663 117.858 96.2567 117.836 93.519C117.842 92.6944 117.847 91.8699 117.852 91.0204C117.866 88.2859 117.857 85.552 117.847 82.8176C117.849 80.9219 117.852 79.0262 117.855 77.1305C117.86 73.1533 117.853 69.1763 117.839 65.1991C117.822 60.0965 117.832 54.9944 117.85 49.8918C117.861 45.9756 117.857 42.0596 117.85 38.1434C117.848 36.2619 117.85 34.3804 117.857 32.4989C117.865 29.8699 117.853 27.2416 117.836 24.6127C117.842 23.8318 117.849 23.0509 117.855 22.2464C117.821 19.3863 117.753 17.0686 116.383 14.5184C113.386 12.9424 110.408 13.0844 107.103 13.113C106.358 13.1077 105.613 13.1024 104.845 13.097C102.381 13.0838 99.9166 13.0926 97.4521 13.1027C95.7396 13.1007 94.0271 13.0978 92.3146 13.094C88.7242 13.0896 85.134 13.096 81.5437 13.11C76.9422 13.1271 72.3413 13.1173 67.7399 13.0993C64.2029 13.0885 60.666 13.0919 57.1289 13.0997C55.4324 13.1017 53.736 13.0992 52.0395 13.0923C49.667 13.0846 47.2954 13.0963 44.923 13.113C44.2221 13.1069 43.5212 13.1008 42.7991 13.0946C39.9414 13.1318 37.6552 13.4141 35.0124 14.5252C32.5883 17.5874 32.8995 20.7658 32.9465 24.505C32.9411 25.32 32.9357 26.1349 32.9301 26.9745C32.9176 29.6712 32.9341 32.3669 32.9521 35.0636C32.9519 36.9355 32.9505 38.8073 32.9477 40.6791C32.9463 44.6033 32.9589 48.5272 32.9816 52.4513C33.01 57.4856 33.0073 62.5192 32.9945 67.5535C32.9876 71.419 32.9954 75.2845 33.0078 79.15C33.0123 81.0064 33.0127 82.8628 33.0087 84.7192C33.0058 87.3122 33.0223 89.9043 33.0441 92.4972C33.0374 93.6522 33.0374 93.6522 33.0305 94.8305C33.0728 98.8969 33.0728 98.8969 34.8145 102.474C37.2079 103.979 39.1815 103.939 41.9912 104.013C43.6009 104.066 43.6009 104.066 45.2431 104.12C46.9224 104.154 46.9224 104.154 48.6357 104.189C49.7668 104.223 50.898 104.257 52.0634 104.292C54.8582 104.375 57.6528 104.444 60.4482 104.501C60.4482 105.821 60.4482 107.141 60.4482 108.501C49.8882 108.501 39.3282 108.501 28.4482 108.501C28.4482 117.411 28.4482 126.321 28.4482 135.501C13.3934 122.597 2.27375 105.842 0.143262 85.6047C0.0120443 82.6467 -0.0197917 79.7119 0.010694 76.7511C0.0189923 75.702 0.0272906 74.6529 0.0358404 73.5719C0.471205 53.4398 8.92633 35.4463 22.8935 20.966C37.1299 7.59981 55.0164 -0.107972 74.5107 0.00114308Z" fill="#7ABB4E"/>
<path d="M45.0207 11.9835C45.7661 11.9765 46.5114 11.9695 47.2793 11.9623C49.7331 11.9448 52.1858 11.9563 54.6396 11.9699C56.3493 11.9672 58.0589 11.9633 59.7685 11.9583C63.3471 11.9524 66.9252 11.9609 70.5037 11.9796C75.0895 12.0024 79.6743 11.9893 84.2601 11.9654C87.7886 11.9509 91.3169 11.9555 94.8454 11.9659C96.5363 11.9685 98.2272 11.9653 99.9181 11.9559C102.281 11.9458 104.642 11.9613 107.005 11.9835C107.703 11.9755 108.401 11.9674 109.12 11.959C112.238 12.0134 114.22 12.3583 116.881 14.0204C119.085 17.5094 119.008 20.7109 118.966 24.7104C118.973 25.5352 118.98 26.36 118.987 27.2098C119.005 29.9336 118.993 32.6563 118.979 35.38C118.982 37.2729 118.986 39.1657 118.991 41.0585C118.997 45.0238 118.988 48.9887 118.97 52.954C118.947 58.041 118.96 63.1271 118.984 68.2141C118.998 72.1217 118.994 76.0291 118.983 79.9368C118.981 81.8127 118.984 83.6886 118.993 85.5645C119.004 88.1839 118.988 90.802 118.966 93.4213C118.974 94.199 118.982 94.9768 118.99 95.7781C118.908 101.01 118.908 101.01 116.593 103.485C113.731 104.841 111.532 104.841 108.37 104.794C107.21 104.784 106.05 104.775 104.854 104.765C103.045 104.727 103.045 104.727 101.198 104.689C99.3652 104.668 99.3652 104.668 97.4951 104.648C94.479 104.612 91.4639 104.563 88.4482 104.501C88.4482 106.811 88.4482 109.121 88.4482 111.501C87.7882 111.501 87.1282 111.501 86.4482 111.501C86.4482 109.191 86.4482 106.881 86.4482 104.501C78.8582 104.501 71.2682 104.501 63.4482 104.501C63.4482 105.821 63.4482 107.141 63.4482 108.501C65.0982 108.501 66.7482 108.501 68.4482 108.501C68.4482 112.131 68.4482 115.761 68.4482 119.501C71.7482 119.501 75.0482 119.501 78.4482 119.501C78.4482 121.811 78.4482 124.121 78.4482 126.501C81.7482 126.501 85.0482 126.501 88.4482 126.501C88.4482 122.871 88.4482 119.241 88.4482 115.501C91.7482 115.501 95.0482 115.501 98.4482 115.501C98.4482 113.191 98.4482 110.881 98.4482 108.501C105.378 108.501 112.308 108.501 119.448 108.501C119.448 111.801 119.448 115.101 119.448 118.501C119.118 118.501 118.788 118.501 118.448 118.501C118.118 125.761 117.788 133.021 117.448 140.501C97.0959 150.593 76.4495 157.454 53.874 149.911C32.8117 141.241 32.8117 141.241 29.3564 135.773C28.2208 132.932 28.2217 130.699 28.2529 127.642C28.2579 126.637 28.2629 125.631 28.2681 124.596C28.2863 123.327 28.3045 122.058 28.3232 120.751C28.3645 116.709 28.4057 112.666 28.4482 108.501C39.0082 108.501 49.5682 108.501 60.4482 108.501C60.4482 107.181 60.4482 105.861 60.4482 104.501C59.3891 104.533 59.3891 104.533 58.3086 104.565C55.1053 104.648 51.9022 104.7 48.6982 104.751C47.5871 104.785 46.4759 104.818 45.331 104.853C44.2611 104.866 43.1912 104.878 42.0889 104.892C40.6121 104.923 40.6121 104.923 39.1055 104.955C35.5545 104.348 34.6123 103.373 32.4482 100.501C32.0485 97.6713 31.8906 95.2289 31.9148 92.3996C31.9062 91.5861 31.8976 90.7726 31.8887 89.9345C31.866 87.2481 31.8728 84.5627 31.8818 81.8761C31.8766 80.0081 31.8703 78.1401 31.863 76.2721C31.8526 72.3581 31.8572 68.4444 31.8718 64.5304C31.889 59.5129 31.8655 54.4965 31.8303 49.4791C31.8084 45.6221 31.8098 41.7653 31.8181 37.9082C31.8189 36.0582 31.812 34.2082 31.7973 32.3582C31.7799 29.7723 31.7944 27.1885 31.8171 24.6027C31.8054 23.8379 31.7937 23.0731 31.7817 22.2851C31.8464 18.6737 32.1735 16.8301 34.5144 14.0271C38.0955 12.1645 41.0768 11.9376 45.0207 11.9835ZM35.4482 17.5011C35.2498 20.1104 35.1755 22.6135 35.1894 25.2238C35.1859 26.0207 35.1824 26.8175 35.1788 27.6385C35.17 30.2803 35.1759 32.9218 35.1826 35.5636C35.1813 37.3944 35.1793 39.2252 35.1768 41.0561C35.1739 44.8962 35.1782 48.7362 35.1875 52.5763C35.1989 57.5063 35.1923 62.4361 35.1803 67.3661C35.1731 71.1475 35.1754 74.9289 35.1806 78.7103C35.1819 80.5285 35.1803 82.3466 35.1756 84.1647C35.1706 86.7028 35.1783 89.2405 35.1894 91.7785C35.1854 92.5349 35.1813 93.2913 35.1772 94.0707C35.0745 98.2424 35.0745 98.2424 37.4482 101.501C39.4829 101.778 39.4829 101.778 41.7998 101.696C42.9496 101.689 42.9496 101.689 44.1225 101.681C45.0963 101.663 46.07 101.645 47.0732 101.626C50.167 101.585 53.2607 101.544 56.4482 101.501C56.4482 92.5911 56.4482 83.6811 56.4482 74.5011C59.4182 74.5011 62.3882 74.5011 65.4482 74.5011C65.4482 71.2011 65.4482 67.9011 65.4482 64.5011C72.0482 64.5011 78.6482 64.5011 85.4482 64.5011C85.4482 68.1311 85.4482 71.7611 85.4482 75.5011C88.4182 75.5011 91.3882 75.5011 94.4482 75.5011C94.4482 84.0811 94.4482 92.6611 94.4482 101.501C97.7276 101.522 101.007 101.542 104.386 101.564C105.421 101.573 106.456 101.582 107.522 101.591C108.332 101.594 109.141 101.596 109.976 101.599C110.808 101.604 111.641 101.609 112.499 101.615C114.453 101.718 114.453 101.718 115.448 100.501C115.554 97.9255 115.595 95.3765 115.593 92.8002C115.597 91.9937 115.6 91.1872 115.604 90.3563C115.613 87.6767 115.615 84.9972 115.616 82.3175C115.619 80.4629 115.623 78.6082 115.626 76.7535C115.632 72.8604 115.634 68.9673 115.634 65.0741C115.633 60.0757 115.647 55.0775 115.664 50.0791C115.675 46.2471 115.677 42.4151 115.677 38.583C115.678 36.7398 115.683 34.8965 115.69 33.0533C115.7 30.4792 115.697 27.9055 115.691 25.3314C115.697 24.5641 115.702 23.7967 115.708 23.0061C115.828 18.7949 115.828 18.7949 113.448 15.5011C111.02 15.303 108.706 15.2283 106.276 15.2423C105.538 15.2388 104.8 15.2353 104.039 15.2317C101.592 15.2229 99.1452 15.2287 96.6982 15.2355C95.0019 15.2342 93.3057 15.2322 91.6094 15.2297C88.0517 15.2268 84.4942 15.2311 80.9365 15.2404C76.3697 15.2518 71.8032 15.2452 67.2364 15.2332C63.7329 15.226 60.2294 15.2283 56.7259 15.2335C55.0418 15.2348 53.3576 15.2332 51.6735 15.2285C49.3222 15.2235 46.9713 15.2312 44.6201 15.2423C43.9198 15.2383 43.2195 15.2342 42.4979 15.2301C38.5292 15.1635 38.5292 15.1635 35.4482 17.5011Z" fill="#0E120E"/>
<path d="M31.4482 111.501C42.9982 111.501 54.5482 111.501 66.4482 111.501C66.4482 114.801 66.4482 118.101 66.4482 121.501C69.4182 121.501 72.3882 121.501 75.4482 121.501C75.4482 124.141 75.4482 126.781 75.4482 129.501C80.3982 129.501 85.3482 129.501 90.4482 129.501C90.4482 125.871 90.4482 122.241 90.4482 118.501C94.0782 118.501 97.7082 118.501 101.448 118.501C101.448 116.191 101.448 113.881 101.448 111.501C106.398 111.501 111.348 111.501 116.448 111.501C116.448 121.071 116.448 130.641 116.448 140.501C97.4854 150.57 78.6494 156.502 57.1357 151.001C48.2206 148.029 39.2693 143.715 31.4482 138.501C31.1076 135.796 31.1076 135.796 31.1552 132.4C31.1627 131.308 31.1702 130.217 31.1779 129.092C31.2052 127.701 31.2325 126.31 31.2607 124.876C31.3225 120.462 31.3844 116.049 31.4482 111.501Z" fill="#73B74D"/>
<path d="M119.448 37.5011C129.447 47.3173 134.448 58.8596 134.69 72.8698C134.747 88.7029 130.443 101.937 120.448 114.501C120.118 114.501 119.788 114.501 119.448 114.501C119.448 112.521 119.448 110.541 119.448 108.501C112.518 108.501 105.588 108.501 98.4482 108.501C98.4482 110.811 98.4482 113.121 98.4482 115.501C95.1482 115.501 91.8482 115.501 88.4482 115.501C88.4482 119.131 88.4482 122.761 88.4482 126.501C85.1482 126.501 81.8482 126.501 78.4482 126.501C78.4482 124.191 78.4482 121.881 78.4482 119.501C75.1482 119.501 71.8482 119.501 68.4482 119.501C68.4482 115.871 68.4482 112.241 68.4482 108.501C66.7982 108.501 65.1482 108.501 63.4482 108.501C63.4482 107.181 63.4482 105.861 63.4482 104.501C71.0382 104.501 78.6282 104.501 86.4482 104.501C86.4482 106.811 86.4482 109.121 86.4482 111.501C87.1082 111.501 87.7682 111.501 88.4482 111.501C88.4482 109.191 88.4482 106.881 88.4482 104.501C89.2149 104.492 89.9816 104.482 90.7715 104.473C94.2477 104.419 97.7226 104.335 101.198 104.251C102.405 104.237 103.611 104.223 104.854 104.208C106.015 104.176 107.175 104.144 108.37 104.11C109.973 104.079 109.973 104.079 111.607 104.047C115.193 103.358 116.201 102.346 118.448 99.5011C119.063 96.6038 119.063 96.6038 118.994 93.3556C119.014 92.1146 119.034 90.8736 119.054 89.595C119.056 88.246 119.057 86.897 119.058 85.548C119.073 84.1636 119.089 82.7793 119.108 81.395C119.151 77.7585 119.171 74.1223 119.186 70.4856C119.206 66.7719 119.248 63.0584 119.288 59.3448C119.363 52.0637 119.414 44.7826 119.448 37.5011Z" fill="#98C96F"/>
<path d="M30.4481 38.5011C31.1081 38.5011 31.7681 38.5011 32.4481 38.5011C32.4539 39.2712 32.4598 40.0413 32.4659 40.8347C32.5237 48.089 32.5958 55.343 32.6838 62.597C32.7285 66.3265 32.7678 70.0559 32.7945 73.7855C32.8205 77.3843 32.8609 80.9827 32.9113 84.5812C32.928 85.9547 32.9395 87.3282 32.9457 88.7018C32.9553 90.6243 32.985 92.5468 33.0157 94.4691C33.0268 95.5639 33.0379 96.6586 33.0494 97.7866C33.2319 100.513 33.2319 100.513 34.8161 102.351C37.1914 104.025 39.108 103.937 41.991 104.013C43.6008 104.066 43.6008 104.066 45.243 104.12C46.9223 104.154 46.9223 104.154 48.6356 104.189C49.7667 104.223 50.8979 104.257 52.0633 104.292C54.8581 104.375 57.6526 104.444 60.4481 104.501C60.4481 105.821 60.4481 107.141 60.4481 108.501C55.8586 108.749 51.2731 108.93 46.6785 109.05C45.1183 109.101 43.5585 109.169 41.9998 109.255C29.1091 109.955 29.1091 109.955 25.138 106.479C23.5171 103.864 22.4328 101.412 21.4481 98.5011C20.966 97.2932 20.4839 96.0854 19.9871 94.8409C15.8619 79.486 15.3466 63.6576 23.202 49.2941C24.8745 46.63 26.613 44.0549 28.4481 41.5011C29.1081 40.5111 29.7681 39.5211 30.4481 38.5011Z" fill="#98CB6E"/>
<path d="M59.4482 77.5011C70.3382 77.5011 81.2282 77.5011 92.4482 77.5011C92.4482 85.4211 92.4482 93.3411 92.4482 101.501C90.1382 101.501 87.8282 101.501 85.4482 101.501C85.4482 98.8611 85.4482 96.2211 85.4482 93.5011C84.7882 93.8311 84.1282 94.1611 83.4482 94.5011C83.4482 96.8111 83.4482 99.1211 83.4482 101.501C81.7982 101.831 80.1482 102.161 78.4482 102.501C80.4282 102.831 82.4082 103.161 84.4482 103.501C84.4482 103.831 84.4482 104.161 84.4482 104.501C77.5182 104.501 70.5882 104.501 63.4482 104.501C63.7782 103.511 64.1082 102.521 64.4482 101.501C62.7982 101.501 61.1482 101.501 59.4482 101.501C59.4482 93.5811 59.4482 85.6611 59.4482 77.5011Z" fill="#20211F"/>
<path d="M45.4482 13.5011C54.6709 13.4317 63.8935 13.3784 73.1164 13.3457C77.3986 13.33 81.6807 13.3088 85.9629 13.2748C90.0931 13.2423 94.2232 13.2243 98.3536 13.2165C99.9317 13.211 101.51 13.2001 103.088 13.184C105.293 13.1623 107.498 13.1592 109.704 13.1606C110.96 13.1539 112.217 13.1472 113.512 13.1404C114.966 13.319 114.966 13.319 116.448 13.5011C118.957 17.2638 118.744 20.2383 118.739 24.5968C118.745 25.4215 118.752 26.2462 118.759 27.0959C118.778 29.8248 118.782 32.5534 118.784 35.2824C118.791 37.1766 118.797 39.0709 118.804 40.9651C118.816 44.9363 118.82 48.9074 118.819 52.8786C118.819 57.9734 118.846 63.0676 118.88 68.1623C118.903 72.0742 118.907 75.9859 118.906 79.8979C118.908 81.7766 118.917 83.6553 118.932 85.534C118.952 88.1582 118.946 90.7812 118.934 93.4054C118.945 94.1848 118.957 94.9641 118.968 95.767C118.907 101.01 118.907 101.01 116.595 103.486C113.732 104.84 111.532 104.841 108.37 104.794C107.21 104.784 106.05 104.775 104.854 104.765C103.045 104.727 103.045 104.727 101.198 104.689C99.3652 104.668 99.3652 104.668 97.4951 104.648C94.479 104.612 91.4639 104.563 88.4482 104.501C88.4482 106.811 88.4482 109.121 88.4482 111.501C87.7882 111.501 87.1282 111.501 86.4482 111.501C86.4482 109.191 86.4482 106.881 86.4482 104.501C81.1682 104.171 75.8882 103.841 70.4482 103.501C70.4482 103.171 70.4482 102.841 70.4482 102.501C76.8832 102.006 76.8832 102.006 83.4482 101.501C83.4482 99.1911 83.4482 96.8811 83.4482 94.5011C80.4782 94.5011 77.5082 94.5011 74.4482 94.5011C74.4482 94.1711 74.4482 93.8411 74.4482 93.5011C78.0782 93.5011 81.7082 93.5011 85.4482 93.5011C85.4482 96.1411 85.4482 98.7811 85.4482 101.501C87.7582 101.501 90.0682 101.501 92.4482 101.501C92.4482 93.5811 92.4482 85.6611 92.4482 77.5011C89.4782 77.5321 89.4782 77.5321 86.4482 77.5636C81.3387 77.5692 76.491 77.2922 71.4482 76.5011C71.4482 76.1711 71.4482 75.8411 71.4482 75.5011C75.4082 75.5011 79.3682 75.5011 83.4482 75.5011C83.4482 72.5311 83.4482 69.5611 83.4482 66.5011C78.1682 66.5011 72.8882 66.5011 67.4482 66.5011C67.4482 69.1411 67.4482 71.7811 67.4482 74.5011C67.1182 74.5011 66.7882 74.5011 66.4482 74.5011C65.9532 69.5511 65.9532 69.5511 65.4482 64.5011C72.0482 64.5011 78.6482 64.5011 85.4482 64.5011C85.4482 68.1311 85.4482 71.7611 85.4482 75.5011C88.4182 75.5011 91.3882 75.5011 94.4482 75.5011C94.4482 84.0811 94.4482 92.6611 94.4482 101.501C104.348 101.006 104.348 101.006 114.448 100.501C114.471 89.6966 114.489 78.892 114.5 68.0874C114.505 63.0709 114.512 58.0545 114.524 53.038C114.535 48.201 114.541 43.3641 114.543 38.5271C114.545 36.6775 114.549 34.8278 114.554 32.9781C114.561 30.3967 114.562 27.8153 114.562 25.2338C114.567 24.075 114.567 24.075 114.573 22.8929C114.885 19.4058 114.885 19.4058 113.448 16.5011C111.332 16.3772 109.212 16.3231 107.093 16.2958C106.429 16.2859 105.766 16.276 105.082 16.2658C102.88 16.2341 100.678 16.2094 98.4756 16.1847C96.9524 16.1642 95.4293 16.1432 93.9061 16.1218C89.8899 16.0665 85.8737 16.0171 81.8574 15.9689C77.762 15.9188 73.6666 15.863 69.5713 15.8078C61.5303 15.7001 53.4893 15.5987 45.4482 15.5011C45.4482 14.8411 45.4482 14.1811 45.4482 13.5011Z" fill="#141E10"/>
<path d="M63.4482 104.501C71.0382 104.501 78.6282 104.501 86.4482 104.501C86.4482 106.811 86.4482 109.121 86.4482 111.501C87.1082 111.501 87.7682 111.501 88.4482 111.501C88.4482 109.521 88.4482 107.541 88.4482 105.501C88.7782 106.161 89.1082 106.821 89.4482 107.501C94.7282 107.501 100.008 107.501 105.448 107.501C105.448 107.831 105.448 108.161 105.448 108.501C103.138 108.501 100.828 108.501 98.4482 108.501C98.4482 110.811 98.4482 113.121 98.4482 115.501C95.1482 115.501 91.8482 115.501 88.4482 115.501C88.4482 119.131 88.4482 122.761 88.4482 126.501C85.1482 126.501 81.8482 126.501 78.4482 126.501C78.4482 124.191 78.4482 121.881 78.4482 119.501C75.1482 119.501 71.8482 119.501 68.4482 119.501C68.4482 115.871 68.4482 112.241 68.4482 108.501C66.7982 108.501 65.1482 108.501 63.4482 108.501C63.4482 107.181 63.4482 105.861 63.4482 104.501Z" fill="#6FB348"/>
<path d="M88.4482 48.5011C94.7182 48.5011 100.988 48.5011 107.448 48.5011C107.448 54.4411 107.448 60.3811 107.448 66.5011C101.178 66.5011 94.9082 66.5011 88.4482 66.5011C88.4482 60.5611 88.4482 54.6211 88.4482 48.5011Z" fill="#20201E"/>
<path d="M43.4482 48.5011C49.7182 48.5011 55.9882 48.5011 62.4482 48.5011C62.4482 54.4411 62.4482 60.3811 62.4482 66.5011C56.1782 66.5011 49.9082 66.5011 43.4482 66.5011C43.4482 60.5611 43.4482 54.6211 43.4482 48.5011Z" fill="#20211F"/>
<path d="M45.0843 12.047C45.836 12.0464 46.5878 12.0459 47.3623 12.0453C49.8354 12.048 52.3074 12.0791 54.7803 12.1105C56.4995 12.118 58.2187 12.1237 59.9379 12.1277C64.4542 12.1429 68.9699 12.1822 73.4859 12.2265C78.0976 12.2674 82.7094 12.2857 87.3213 12.3058C96.3639 12.3487 105.406 12.4169 114.448 12.5011C114.448 12.8311 114.448 13.1611 114.448 13.5011C91.6783 13.5011 68.9083 13.5011 45.4483 13.5011C45.4483 14.1611 45.4483 14.8211 45.4483 15.5011C43.3975 15.729 41.3467 15.9569 39.2959 16.1847C37.4369 16.32 37.4369 16.32 36.4483 17.5011C36.3392 20.0154 36.2941 22.5032 36.2906 25.0185C36.2855 25.8054 36.2804 26.5924 36.2752 27.4032C36.2644 29.1177 36.2558 30.8321 36.249 32.5466C36.2373 35.2567 36.2179 37.9666 36.1959 40.6767C36.1342 48.3838 36.0802 56.0909 36.0469 63.7982C36.026 68.5068 35.9908 73.2151 35.9461 77.9236C35.9319 79.7221 35.9233 81.5208 35.9201 83.3194C35.9152 85.8314 35.8921 88.3426 35.8648 90.8544C35.8678 91.603 35.8708 92.3517 35.8739 93.123C35.8403 95.1923 35.8403 95.1923 35.4483 98.5011C33.9633 99.4911 33.9633 99.4911 32.4483 100.501C32.3325 89.6181 32.2436 78.7352 32.1892 67.8517C32.1631 62.7981 32.1277 57.7449 32.0711 52.6916C32.0168 47.8156 31.9869 42.9401 31.9739 38.0639C31.9646 36.2027 31.9466 34.3415 31.9196 32.4805C31.8834 29.8752 31.8783 27.2716 31.8806 24.6662C31.8627 23.8951 31.8447 23.124 31.8262 22.3296C31.8612 18.7003 32.1631 16.845 34.5065 14.0192C38.1184 12.1553 41.1157 11.9657 45.0843 12.047Z" fill="#152012"/>
<path d="M65.4482 64.5011C72.0482 64.5011 78.6482 64.5011 85.4482 64.5011C85.4482 68.1311 85.4482 71.7611 85.4482 75.5011C88.4182 75.5011 91.3882 75.5011 94.4482 75.5011C94.4482 84.0811 94.4482 92.6611 94.4482 101.501C98.4082 101.831 102.368 102.161 106.448 102.501C106.448 102.831 106.448 103.161 106.448 103.501C100.508 103.501 94.5682 103.501 88.4482 103.501C88.4482 106.141 88.4482 108.781 88.4482 111.501C87.7882 111.501 87.1282 111.501 86.4482 111.501C86.4482 109.191 86.4482 106.881 86.4482 104.501C81.1682 104.171 75.8882 103.841 70.4482 103.501C70.4482 103.171 70.4482 102.841 70.4482 102.501C76.8832 102.006 76.8832 102.006 83.4482 101.501C83.4482 99.1911 83.4482 96.8811 83.4482 94.5011C80.4782 94.5011 77.5082 94.5011 74.4482 94.5011C74.4482 94.1711 74.4482 93.8411 74.4482 93.5011C78.0782 93.5011 81.7082 93.5011 85.4482 93.5011C85.4482 96.1411 85.4482 98.7811 85.4482 101.501C87.7582 101.501 90.0682 101.501 92.4482 101.501C92.4482 93.5811 92.4482 85.6611 92.4482 77.5011C90.4682 77.5217 88.4882 77.5423 86.4482 77.5636C81.3387 77.5692 76.491 77.2921 71.4482 76.5011C71.4482 76.1711 71.4482 75.8411 71.4482 75.5011C75.4082 75.5011 79.3682 75.5011 83.4482 75.5011C83.4482 72.5311 83.4482 69.5611 83.4482 66.5011C78.1682 66.5011 72.8882 66.5011 67.4482 66.5011C67.4482 69.1411 67.4482 71.7811 67.4482 74.5011C67.1182 74.5011 66.7882 74.5011 66.4482 74.5011C66.1182 71.2011 65.7882 67.9011 65.4482 64.5011Z" fill="#020302"/>
<path d="M66.4482 92.5011C72.7182 92.5011 78.9882 92.5011 85.4482 92.5011C84.7882 93.1611 84.1282 93.8211 83.4482 94.5011C83.2815 98.0845 83.2815 98.0845 83.4482 101.501C81.7982 101.831 80.1482 102.161 78.4482 102.501C81.4182 102.996 81.4182 102.996 84.4482 103.501C84.4482 103.831 84.4482 104.161 84.4482 104.501C77.5182 104.501 70.5882 104.501 63.4482 104.501C63.7782 103.511 64.1082 102.521 64.4482 101.501C65.1082 101.501 65.7682 101.501 66.4482 101.501C66.4482 98.5311 66.4482 95.5611 66.4482 92.5011Z" fill="#11170E"/>
<path d="M98.4482 108.501C105.378 108.501 112.308 108.501 119.448 108.501C119.448 111.801 119.448 115.101 119.448 118.501C119.118 118.501 118.788 118.501 118.448 118.501C118.118 125.761 117.788 133.021 117.448 140.501C117.118 140.501 116.788 140.501 116.448 140.501C116.448 130.931 116.448 121.361 116.448 111.501C111.498 111.501 106.548 111.501 101.448 111.501C101.448 113.811 101.448 116.121 101.448 118.501C97.8182 118.501 94.1882 118.501 90.4482 118.501C90.4482 121.801 90.4482 125.101 90.4482 128.501C86.1582 128.501 81.8682 128.501 77.4482 128.501C77.4482 128.171 77.4482 127.841 77.4482 127.501C81.0782 127.501 84.7082 127.501 88.4482 127.501C88.4482 123.541 88.4482 119.581 88.4482 115.501C91.7482 115.501 95.0482 115.501 98.4482 115.501C98.4482 113.191 98.4482 110.881 98.4482 108.501Z" fill="#020204"/>
<path d="M45.4482 13.5011C68.5482 13.5011 91.6482 13.5011 115.448 13.5011C115.943 14.9861 115.943 14.9861 116.448 16.5011C93.0182 16.1711 69.5882 15.8411 45.4482 15.5011C45.4482 14.8411 45.4482 14.1811 45.4482 13.5011Z" fill="#000101"/>
<path d="M88.4482 48.5011C94.7182 48.5011 100.988 48.5011 107.448 48.5011C107.448 54.4411 107.448 60.3811 107.448 66.5011C101.178 66.5011 94.9082 66.5011 88.4482 66.5011C88.4482 60.5611 88.4482 54.6211 88.4482 48.5011ZM90.4482 50.5011C90.4482 55.1211 90.4482 59.7411 90.4482 64.5011C95.3982 64.5011 100.348 64.5011 105.448 64.5011C105.448 59.8811 105.448 55.2611 105.448 50.5011C100.498 50.5011 95.5482 50.5011 90.4482 50.5011Z" fill="#060507"/>
<path d="M43.4482 48.5011C49.7182 48.5011 55.9882 48.5011 62.4482 48.5011C62.4482 54.4411 62.4482 60.3811 62.4482 66.5011C56.1782 66.5011 49.9082 66.5011 43.4482 66.5011C43.4482 60.5611 43.4482 54.6211 43.4482 48.5011ZM45.4482 50.5011C45.4482 55.1211 45.4482 59.7411 45.4482 64.5011C50.3982 64.5011 55.3482 64.5011 60.4482 64.5011C60.4482 59.8811 60.4482 55.2611 60.4482 50.5011C55.4982 50.5011 50.5482 50.5011 45.4482 50.5011Z" fill="#050405"/>
<path d="M68.4482 66.5011C73.3982 66.5011 78.3482 66.5011 83.4482 66.5011C83.4482 69.1411 83.4482 71.7811 83.4482 74.5011C78.4982 74.5011 73.5482 74.5011 68.4482 74.5011C68.4482 71.8611 68.4482 69.2211 68.4482 66.5011Z" fill="#222220"/>
<path d="M111.448 9.5011C115.285 10.8504 118.1 12.5786 121.261 15.1261C122.051 15.7577 122.841 16.3894 123.655 17.0402C124.247 17.5223 124.839 18.0044 125.448 18.5011C122.448 18.5011 122.448 18.5011 120.448 17.5011C120.448 19.4811 120.448 21.4611 120.448 23.5011C120.118 23.5011 119.788 23.5011 119.448 23.5011C119.255 22.863 119.062 22.2249 118.862 21.5675C118.472 20.3281 118.472 20.3281 118.073 19.0636C117.818 18.2399 117.563 17.4162 117.3 16.5675C116.639 14.3231 116.639 14.3231 114.448 13.5011C112.008 13.3791 109.594 13.3155 107.153 13.2958C106.402 13.2859 105.65 13.276 104.876 13.2658C102.387 13.2341 99.8982 13.2094 97.4092 13.1847C95.6857 13.1641 93.9622 13.1431 92.2387 13.1217C87.698 13.0665 83.1574 13.0171 78.6166 12.9689C73.9849 12.9187 69.3533 12.863 64.7217 12.8077C55.6306 12.7001 46.5394 12.5987 37.4482 12.5011C37.7782 11.8411 38.1082 11.1811 38.4482 10.5011C62.5382 10.8311 86.6282 11.1611 111.448 11.5011C111.448 10.8411 111.448 10.1811 111.448 9.5011Z" fill="#87CD5A"/>
<path d="M33.448 72.5011C33.778 72.5011 34.108 72.5011 34.448 72.5011C34.4678 73.2782 34.4877 74.0554 34.5081 74.8561C34.6031 78.3631 34.7129 81.8695 34.823 85.3761C34.854 86.5994 34.8849 87.8227 34.9168 89.0831C34.9748 90.833 34.9748 90.833 35.034 92.6183C35.0654 93.6971 35.0968 94.7759 35.1292 95.8873C35.1948 98.6587 35.1948 98.6587 37.448 100.501C39.4786 100.87 39.4786 100.87 41.7996 100.915C42.6504 100.954 43.5012 100.993 44.3777 101.032C45.2672 101.063 46.1566 101.094 47.073 101.126C47.9702 101.165 48.8674 101.203 49.7918 101.243C52.0102 101.338 54.2291 101.42 56.448 101.501C56.448 97.8711 56.448 94.2411 56.448 90.5011C56.778 90.5011 57.108 90.5011 57.448 90.5011C57.778 94.1311 58.108 97.7611 58.448 101.501C60.428 101.501 62.408 101.501 64.448 101.501C64.118 102.491 63.788 103.481 63.448 104.501C59.4966 104.408 55.5458 104.302 51.595 104.184C49.5892 104.127 47.583 104.079 45.5769 104.032C44.3201 103.994 43.0633 103.955 41.7683 103.915C40.6058 103.884 39.4432 103.852 38.2454 103.82C35.448 103.501 35.448 103.501 33.448 101.501C33.221 98.6119 33.221 98.6119 33.2527 94.962C33.2624 93.0091 33.2624 93.0091 33.2722 91.0167C33.289 89.6365 33.3059 88.2563 33.323 86.8761C33.3331 85.4881 33.3422 84.1001 33.3504 82.712C33.374 79.3082 33.407 75.9047 33.448 72.5011Z" fill="#040404"/>
<path d="M88.4482 105.501C88.7782 106.161 89.1082 106.821 89.4482 107.501C94.7282 107.501 100.008 107.501 105.448 107.501C105.448 107.831 105.448 108.161 105.448 108.501C103.138 108.501 100.828 108.501 98.4482 108.501C98.4482 110.811 98.4482 113.121 98.4482 115.501C95.1482 115.501 91.8482 115.501 88.4482 115.501C87.7882 114.181 87.1282 112.861 86.4482 111.501C87.1082 111.501 87.7682 111.501 88.4482 111.501C88.4482 109.521 88.4482 107.541 88.4482 105.501Z" fill="#80BF53"/>
<path d="M92.4482 129.501C95.4182 129.501 98.3882 129.501 101.448 129.501C101.448 132.801 101.448 136.101 101.448 139.501C98.4782 139.501 95.5082 139.501 92.4482 139.501C92.4482 136.201 92.4482 132.901 92.4482 129.501Z" fill="#0D110C"/>
<path d="M36.4482 103.501C40.5732 103.472 44.6982 103.454 48.8232 103.439C50.5867 103.426 50.5867 103.426 52.3857 103.413C54.068 103.408 54.068 103.408 55.7842 103.403C57.3395 103.396 57.3395 103.396 58.9263 103.388C61.4482 103.501 61.4482 103.501 63.4482 104.501C63.4482 105.821 63.4482 107.141 63.4482 108.501C65.0982 108.501 66.7482 108.501 68.4482 108.501C68.4482 108.831 68.4482 109.161 68.4482 109.501C63.4185 110.35 58.6483 110.581 53.5459 110.38C52.8233 110.356 52.1008 110.333 51.3563 110.308C49.0742 110.233 46.7925 110.148 44.5107 110.064C42.9528 110.01 41.3949 109.958 39.8369 109.905C36.0404 109.777 32.2443 109.641 28.4482 109.501C28.4482 109.171 28.4482 108.841 28.4482 108.501C39.0082 108.501 49.5682 108.501 60.4482 108.501C60.4482 107.181 60.4482 105.861 60.4482 104.501C52.5282 104.501 44.6082 104.501 36.4482 104.501C36.4482 104.171 36.4482 103.841 36.4482 103.501Z" fill="#25311F"/>
<path d="M68.4482 95.5011C73.0682 95.5011 77.6882 95.5011 82.4482 95.5011C82.4482 97.4811 82.4482 99.4611 82.4482 101.501C77.8282 101.501 73.2082 101.501 68.4482 101.501C68.4482 99.5211 68.4482 97.5411 68.4482 95.5011Z" fill="#6CB349"/>
<path d="M114.448 108.501C116.098 108.501 117.748 108.501 119.448 108.501C119.448 111.801 119.448 115.101 119.448 118.501C119.118 118.501 118.788 118.501 118.448 118.501C118.118 125.761 117.788 133.021 117.448 140.501C117.118 140.501 116.788 140.501 116.448 140.501C116.448 130.931 116.448 121.361 116.448 111.501C111.498 111.501 106.548 111.501 101.448 111.501C101.448 111.171 101.448 110.841 101.448 110.501C107.883 110.006 107.883 110.006 114.448 109.501C114.448 109.171 114.448 108.841 114.448 108.501Z" fill="#1C291A"/>
<path d="M31.4482 111.501C40.0282 111.501 48.6082 111.501 57.4482 111.501C57.4482 112.161 57.4482 112.821 57.4482 113.501C56.8633 113.496 56.2784 113.491 55.6758 113.485C53.0166 113.464 50.3575 113.451 47.6982 113.439C46.7779 113.43 45.8575 113.422 44.9092 113.413C44.0197 113.41 43.1303 113.407 42.2139 113.403C40.9885 113.396 40.9885 113.396 39.7383 113.388C37.1326 113.442 37.1326 113.442 33.4482 114.501C33.1182 121.101 32.7882 127.701 32.4482 134.501C32.1182 134.501 31.7882 134.501 31.4482 134.501C31.4482 126.911 31.4482 119.321 31.4482 111.501Z" fill="#7ABE51"/>
<path d="M115.448 99.5011C116.438 99.8311 117.428 100.161 118.448 100.501C116.245 103.188 115.098 104.397 111.607 104.955C110.005 104.924 110.005 104.924 108.37 104.892C107.21 104.879 106.05 104.866 104.854 104.853C103.648 104.819 102.441 104.786 101.198 104.751C99.3652 104.724 99.3652 104.724 97.4951 104.696C94.4787 104.649 91.4639 104.583 88.4482 104.501C88.4482 104.171 88.4482 103.841 88.4482 103.501C94.3882 103.006 94.3882 103.006 100.448 102.501C100.448 102.171 100.448 101.841 100.448 101.501C101.447 101.441 102.446 101.38 103.476 101.318C104.766 101.234 106.056 101.15 107.386 101.064C108.674 100.982 109.961 100.901 111.288 100.818C114.308 100.852 114.308 100.852 115.448 99.5011Z" fill="#1A1E16"/>
<path d="M73.4482 119.501C75.0982 119.501 76.7482 119.501 78.4482 119.501C78.4482 121.811 78.4482 124.121 78.4482 126.501C79.1469 126.466 79.8456 126.431 80.5654 126.396C81.4755 126.369 82.3856 126.341 83.3232 126.314C84.2282 126.279 85.1331 126.244 86.0654 126.208C87.2449 126.353 87.2449 126.353 88.4482 126.501C89.4382 127.986 89.4382 127.986 90.4482 129.501C85.4982 129.501 80.5482 129.501 75.4482 129.501C75.4482 126.861 75.4482 124.221 75.4482 121.501C74.7882 121.501 74.1282 121.501 73.4482 121.501C73.4482 120.841 73.4482 120.181 73.4482 119.501Z" fill="#1B251A"/>
<path d="M61.4482 109.501C63.7582 109.501 66.0682 109.501 68.4482 109.501C68.4482 112.801 68.4482 116.101 68.4482 119.501C70.0982 119.501 71.7482 119.501 73.4482 119.501C73.4482 120.161 73.4482 120.821 73.4482 121.501C71.1382 121.501 68.8282 121.501 66.4482 121.501C66.4482 118.201 66.4482 114.901 66.4482 111.501C64.7982 111.501 63.1482 111.501 61.4482 111.501C61.4482 110.841 61.4482 110.181 61.4482 109.501Z" fill="#050308"/>
<path d="M88.4482 105.501C88.7782 106.161 89.1082 106.821 89.4482 107.501C94.7282 107.501 100.008 107.501 105.448 107.501C105.448 107.831 105.448 108.161 105.448 108.501C103.138 108.501 100.828 108.501 98.4482 108.501C98.4482 109.161 98.4482 109.821 98.4482 110.501C95.1482 110.501 91.8482 110.501 88.4482 110.501C88.4482 108.851 88.4482 107.201 88.4482 105.501Z" fill="#6B974B"/>
<path d="M98.4482 111.501C99.4382 111.501 100.428 111.501 101.448 111.501C101.448 113.811 101.448 116.121 101.448 118.501C99.6573 118.582 97.8653 118.64 96.0732 118.689C94.5766 118.741 94.5766 118.741 93.0498 118.794C92.1913 118.697 91.3328 118.601 90.4482 118.501C89.7882 117.511 89.1282 116.521 88.4482 115.501C91.7482 115.501 95.0482 115.501 98.4482 115.501C98.4482 114.181 98.4482 112.861 98.4482 111.501Z" fill="#192415"/>
<path d="M112.448 9.5011C117.284 12.1122 121.319 14.8757 125.448 18.5011C122.448 18.5011 122.448 18.5011 120.448 17.5011C120.448 19.4811 120.448 21.4611 120.448 23.5011C120.118 23.5011 119.788 23.5011 119.448 23.5011C119.278 22.8862 119.108 22.2713 118.933 21.6378C117.17 15.5356 117.17 15.5356 112.448 11.5011C112.448 10.8411 112.448 10.1811 112.448 9.5011Z" fill="#82C156"/>
<path d="M105.448 104.501C109.738 104.501 114.028 104.501 118.448 104.501C118.448 105.491 118.448 106.481 118.448 107.501C114.158 107.501 109.868 107.501 105.448 107.501C105.448 106.511 105.448 105.521 105.448 104.501Z" fill="#A1D177"/>
<path d="M63.4482 104.501C69.7182 104.501 75.9882 104.501 82.4482 104.501C82.4482 104.831 82.4482 105.161 82.4482 105.501C77.4982 105.831 72.5482 106.161 67.4482 106.501C67.7782 107.161 68.1082 107.821 68.4482 108.501C66.7982 108.501 65.1482 108.501 63.4482 108.501C63.4482 107.181 63.4482 105.861 63.4482 104.501Z" fill="#7AC74C"/>
<path d="M33.4482 99.5011C40.8732 100.491 40.8732 100.491 48.4482 101.501C48.4482 101.831 48.4482 102.161 48.4482 102.501C42.0132 102.996 42.0132 102.996 35.4482 103.501C34.7882 102.181 34.1282 100.861 33.4482 99.5011Z" fill="#0A0B0B"/>
<path d="M102.448 121.501C105.088 121.501 107.728 121.501 110.448 121.501C110.448 122.491 110.448 123.481 110.448 124.501C107.808 124.501 105.168 124.501 102.448 124.501C102.448 123.511 102.448 122.521 102.448 121.501Z" fill="#0B100C"/>
<path d="M24.4482 19.5011C24.7782 20.4911 25.1082 21.4811 25.4482 22.5011C23.4682 24.4811 21.4882 26.4611 19.4482 28.5011C18.7882 28.1711 18.1282 27.8411 17.4482 27.5011C19.7582 24.8611 22.0682 22.2211 24.4482 19.5011Z" fill="#6FAB49"/>
<path d="M90.4482 104.501C95.3982 104.501 100.348 104.501 105.448 104.501C105.448 105.491 105.448 106.481 105.448 107.501C104.458 107.171 103.468 106.841 102.448 106.501C100.389 106.278 98.3259 106.094 96.2607 105.939C95.1741 105.855 94.0874 105.771 92.9678 105.685C92.1363 105.624 91.3049 105.564 90.4482 105.501C90.4482 105.171 90.4482 104.841 90.4482 104.501Z" fill="#99CC6F"/>
<path d="M95.4482 131.501C96.7682 131.501 98.0882 131.501 99.4482 131.501C99.4482 133.151 99.4482 134.801 99.4482 136.501C98.1282 136.501 96.8082 136.501 95.4482 136.501C95.4482 134.851 95.4482 133.201 95.4482 131.501Z" fill="#31302A"/>
</svg>
