<svg width="153" height="152" viewBox="0 0 153 152" fill="none" xmlns="http://www.w3.org/2000/svg">
<path d="M74.614 0.0143496C75.6337 0.0111269 76.6533 0.00790429 77.7039 0.00458398C86.667 0.0678666 94.3137 1.73236 102.739 4.76435C103.899 5.17556 105.059 5.58677 106.255 6.01044C109.229 7.22115 111.787 8.6063 114.489 10.3268C115.815 11.0086 117.147 11.6788 118.489 12.3268C119.479 12.8218 119.479 12.8218 120.489 13.3268C121.59 16.6302 121.691 19.2252 121.739 22.7018C121.765 23.8233 121.791 24.9448 121.817 26.1003C121.458 29.6322 120.38 31.3867 118.489 34.3269C118.819 34.9869 119.149 35.6469 119.489 36.3269C123.779 36.3269 128.069 36.3269 132.489 36.3269C132.23 42.6757 130.102 45.9957 125.489 50.3269C122.725 51.7091 120.443 51.4221 117.364 51.3894C116.268 51.3803 115.173 51.3713 114.044 51.362C113.201 51.3504 112.358 51.3388 111.489 51.3269C110.994 46.8719 110.994 46.8719 110.489 42.3269C110.159 63.7769 109.829 85.2269 109.489 107.327C87.7091 107.327 65.929 107.327 43.489 107.327C43.489 79.2769 43.489 51.2268 43.489 22.3268C53.059 21.9968 62.629 21.6668 72.489 21.3268C69.0415 21.236 69.0415 21.236 65.5242 21.1433C63.3068 21.0815 61.0895 21.0181 58.8721 20.9545C57.3269 20.9111 55.7817 20.8695 54.2364 20.8295C52.0197 20.772 49.8032 20.7082 47.5867 20.6433C46.8919 20.6265 46.1971 20.6098 45.4813 20.5926C40.6029 20.4407 40.6029 20.4407 39.489 19.3268C39.417 17.6408 39.4052 15.9518 39.4265 14.2643C39.4356 13.3452 39.4446 12.4261 39.4539 11.4792C39.4655 10.7689 39.4771 10.0586 39.489 9.32685C41.2526 8.3758 43.0255 7.44188 44.8015 6.51435C45.7877 5.99228 46.7738 5.47021 47.7898 4.93232C56.5176 0.87553 65.083 -0.137419 74.614 0.0143496Z" fill="#865530"/>
<path d="M124.489 18.3269C137.773 26.2972 145.494 41.8968 150.017 56.3347C155.012 77.391 150.661 99.1301 139.493 117.413C130.643 130.282 118.813 139.257 104.489 145.327C103.829 145.327 103.169 145.327 102.489 145.327C102.489 140.377 102.489 135.427 102.489 130.327C97.8693 130.327 93.2493 130.327 88.4893 130.327C88.4893 123.727 88.4893 117.127 88.4893 110.327C96.0793 110.327 103.669 110.327 111.489 110.327C111.489 91.8469 111.489 73.3669 111.489 54.3269C117.429 53.8319 117.429 53.8319 123.489 53.3269C128.39 50.964 130.957 48.1201 133.489 43.3269C134.352 40.332 134.93 37.4015 135.489 34.3269C131.199 34.3269 126.909 34.3269 122.489 34.3269C123.149 29.0469 123.809 23.7669 124.489 18.3269Z" fill="#7BBC4D"/>
<path d="M27.4893 18.3269C28.1493 23.2769 28.8093 28.2269 29.4893 33.3269C23.0543 33.8219 23.0543 33.8219 16.4893 34.3269C17.7912 42.0195 19.594 47.5445 26.1143 52.2019C30.6453 53.8554 30.6453 53.8554 40.4893 54.3269C40.4893 72.8069 40.4893 91.2869 40.4893 110.327C48.0793 110.327 55.6693 110.327 63.4893 110.327C63.4893 116.927 63.4893 123.527 63.4893 130.327C58.8693 130.327 54.2493 130.327 49.4893 130.327C49.4893 135.277 49.4893 140.227 49.4893 145.327C35.47 142.523 22.8818 131.591 14.4893 120.327C2.34093 102.036 -2.79095 80.55 1.48935 58.7644C4.06355 49.2698 15.5395 18.3269 27.4893 18.3269Z" fill="#7BBC4C"/>
<path d="M74.614 0.0143496C75.6337 0.0111269 76.6533 0.00790429 77.7039 0.00458398C86.667 0.0678666 94.3137 1.73236 102.739 4.76435C103.899 5.17556 105.059 5.58677 106.255 6.01044C109.229 7.22115 111.787 8.6063 114.489 10.3268C115.815 11.0086 117.147 11.6788 118.489 12.3268C119.479 12.8218 119.479 12.8218 120.489 13.3268C121.59 16.6302 121.691 19.2252 121.739 22.7018C121.765 23.8233 121.791 24.9448 121.817 26.1003C121.458 29.6322 120.38 31.3867 118.489 34.3269C118.819 34.9869 119.149 35.6469 119.489 36.3269C123.779 36.3269 128.069 36.3269 132.489 36.3269C132.23 42.6757 130.102 45.9957 125.489 50.3269C122.725 51.7091 120.443 51.4221 117.364 51.3894C116.268 51.3803 115.173 51.3713 114.044 51.362C113.201 51.3504 112.358 51.3388 111.489 51.3269C110.994 46.8719 110.994 46.8719 110.489 42.3269C110.159 42.3269 109.829 42.3269 109.489 42.3269C109.489 36.0569 109.489 29.7868 109.489 23.3268C108.499 23.3268 107.509 23.3268 106.489 23.3268C106.489 30.2568 106.489 37.1869 106.489 44.3269C103.189 44.3269 99.889 44.3269 96.489 44.3269C96.489 46.6369 96.489 48.9469 96.489 51.3269C92.199 51.3269 87.909 51.3269 83.489 51.3269C83.489 48.3569 83.489 45.3869 83.489 42.3269C79.859 42.3269 76.229 42.3269 72.489 42.3269C72.489 36.0569 72.489 29.7868 72.489 23.3268C62.919 23.3268 53.349 23.3268 43.489 23.3268C43.489 22.9968 43.489 22.6668 43.489 22.3268C53.059 21.9968 62.629 21.6668 72.489 21.3268C69.0415 21.236 69.0415 21.236 65.5242 21.1433C63.3068 21.0815 61.0895 21.0181 58.8721 20.9545C57.3269 20.9111 55.7817 20.8695 54.2364 20.8295C52.0197 20.772 49.8032 20.7082 47.5867 20.6433C46.8919 20.6265 46.1971 20.6098 45.4813 20.5926C40.6029 20.4407 40.6029 20.4407 39.489 19.3268C39.417 17.6408 39.4052 15.9518 39.4265 14.2643C39.4356 13.3452 39.4446 12.4261 39.4539 11.4792C39.4655 10.7689 39.4771 10.0586 39.489 9.32685C41.2526 8.3758 43.0255 7.44188 44.8015 6.51435C45.7877 5.99228 46.7738 5.47021 47.7898 4.93232C56.5176 0.87553 65.083 -0.137419 74.614 0.0143496Z" fill="#0C0A09"/>
<path d="M127.489 51.3269C130.489 52.3269 130.489 52.3269 131.657 54.6003C136.39 68.9976 136.532 85.3939 130.118 99.2996C124.018 110.636 114.852 121.068 103.489 127.327C101.204 128.003 101.204 128.003 99.4893 128.327C99.4893 128.987 99.4893 129.647 99.4893 130.327C95.8593 130.327 92.2293 130.327 88.4893 130.327C88.4893 123.727 88.4893 117.127 88.4893 110.327C96.0793 110.327 103.669 110.327 111.489 110.327C111.489 91.8469 111.489 73.3669 111.489 54.3269C117.429 53.8319 117.429 53.8319 123.489 53.3269C124.809 52.6669 126.129 52.0069 127.489 51.3269Z" fill="#96C66D"/>
<path d="M22.4892 50.3269C23.8814 51.0385 23.8814 51.0385 25.3017 51.7644C30.472 53.903 30.472 53.903 40.4892 54.3269C40.4892 72.8069 40.4892 91.2869 40.4892 110.327C48.0792 110.327 55.6692 110.327 63.4892 110.327C63.4892 116.927 63.4892 123.527 63.4892 130.327C56.6627 130.327 53.651 130.071 48.1142 126.952C47.4657 126.593 46.8172 126.235 46.1491 125.865C32.5851 118.012 22.5523 104.432 18.4892 89.3269C15.745 75.9192 17.2835 62.8885 22.4892 50.3269Z" fill="#97C66D"/>
<path d="M74.614 0.0143496C75.6337 0.0111269 76.6533 0.00790429 77.7039 0.00458398C86.6926 0.068047 94.4533 1.78188 102.864 4.82685C104.047 5.24966 105.231 5.67247 106.45 6.1081C109.489 7.32685 109.489 7.32685 112.489 9.32685C112.817 11.6745 112.817 11.6745 112.739 14.3893C112.724 15.2878 112.708 16.1863 112.692 17.112C112.489 19.3268 112.489 19.3268 111.489 20.3268C109.286 20.4265 107.079 20.4548 104.874 20.4562C104.183 20.458 103.492 20.4597 102.78 20.4616C100.485 20.466 98.1901 20.463 95.8953 20.4597C94.3073 20.4603 92.7193 20.4613 91.1313 20.4626C87.7989 20.464 84.4665 20.4619 81.1341 20.4572C76.8531 20.4515 72.5721 20.4548 68.2911 20.4608C65.0107 20.4644 61.7303 20.4633 58.4499 20.4607C56.871 20.46 55.2921 20.4608 53.7131 20.4631C51.5101 20.4657 49.3073 20.4618 47.1043 20.4562C45.2202 20.4551 45.2202 20.4551 43.298 20.4538C40.489 20.3268 40.489 20.3268 39.489 19.3268C39.417 17.6408 39.4052 15.9518 39.4265 14.2643C39.4356 13.3452 39.4446 12.4261 39.4539 11.4792C39.4655 10.7689 39.4771 10.0586 39.489 9.32685C41.2526 8.3758 43.0255 7.44188 44.8015 6.51435C45.7877 5.99228 46.7738 5.47021 47.7898 4.93232C56.5176 0.87553 65.083 -0.137419 74.614 0.0143496Z" fill="#7CBB4F"/>
<path d="M51.4893 78.3269C67.9893 78.3269 84.4893 78.3269 101.489 78.3269C101.489 85.9169 101.489 93.5069 101.489 101.327C84.9893 101.327 68.4893 101.327 51.4893 101.327C51.4893 93.7369 51.4893 86.1469 51.4893 78.3269Z" fill="#EDB99F"/>
<path d="M66.4893 110.327C72.7593 110.327 79.0293 110.327 85.4893 110.327C85.4893 123.527 85.4893 136.727 85.4893 150.327C82.5313 151.806 79.8409 151.459 76.5518 151.452C75.3052 151.454 74.0587 151.457 72.7744 151.46C69.4893 151.327 69.4893 151.327 66.4893 150.327C66.4893 137.127 66.4893 123.927 66.4893 110.327Z" fill="#83542F"/>
<path d="M75.4893 22.3269C84.7293 22.3269 93.9693 22.3269 103.489 22.3269C103.489 28.5969 103.489 34.8669 103.489 41.3269C100.189 41.3269 96.8893 41.3269 93.4893 41.3269C93.4893 43.6369 93.4893 45.9469 93.4893 48.3269C90.8493 48.3269 88.2093 48.3269 85.4893 48.3269C85.4893 45.6869 85.4893 43.0469 85.4893 40.3269C82.1893 40.3269 78.8893 40.3269 75.4893 40.3269C75.4893 34.3869 75.4893 28.4469 75.4893 22.3269Z" fill="#F2F1F0"/>
<path d="M48.4893 75.3269C56.3038 75.304 64.1183 75.2841 71.9329 75.272C74.5937 75.2669 77.2545 75.2601 79.9153 75.2515C83.7303 75.2394 87.5453 75.2337 91.3604 75.2293C93.1572 75.2215 93.1572 75.2215 94.9903 75.2136C96.6419 75.2135 96.6419 75.2135 98.3269 75.2134C99.3018 75.2112 100.277 75.209 101.281 75.2067C103.489 75.3269 103.489 75.3269 104.489 76.3269C104.589 78.3145 104.62 80.3056 104.622 82.2957C104.624 84.1113 104.624 84.1113 104.626 85.9636C104.622 87.2385 104.618 88.5134 104.614 89.8269C104.62 91.7392 104.62 91.7392 104.626 93.6902C104.625 94.9006 104.623 96.1111 104.622 97.3582C104.621 98.4777 104.62 99.5973 104.619 100.751C104.489 103.327 104.489 103.327 103.489 104.327C101.771 104.421 100.048 104.444 98.3269 104.44C97.2258 104.44 96.1248 104.44 94.9903 104.44C93.7924 104.435 92.5945 104.43 91.3604 104.425C90.141 104.423 88.9216 104.422 87.6653 104.42C83.7524 104.415 79.8396 104.402 75.9268 104.389C73.2816 104.384 70.6364 104.38 67.9912 104.376C61.4905 104.366 54.99 104.346 48.4893 104.327C48.4893 94.7569 48.4893 85.1869 48.4893 75.3269ZM51.4893 78.3269C51.4893 85.9169 51.4893 93.5069 51.4893 101.327C67.9893 101.327 84.4893 101.327 101.489 101.327C101.489 93.7369 101.489 86.1469 101.489 78.3269C84.9893 78.3269 68.4893 78.3269 51.4893 78.3269Z" fill="#1B130E"/>
<path d="M42.4893 23.3269C42.8193 23.3269 43.1493 23.3269 43.4893 23.3269C43.4893 51.0469 43.4893 78.7669 43.4893 107.327C65.2693 107.327 87.0493 107.327 109.489 107.327C109.819 108.317 110.149 109.307 110.489 110.327C103.229 110.327 95.9693 110.327 88.4893 110.327C88.4893 116.267 88.4893 122.207 88.4893 128.327C88.1593 128.327 87.8293 128.327 87.4893 128.327C87.1593 135.587 86.8293 142.847 86.4893 150.327C86.1593 150.327 85.8293 150.327 85.4893 150.327C85.4893 137.127 85.4893 123.927 85.4893 110.327C79.2193 110.327 72.9493 110.327 66.4893 110.327C65.6251 112.919 65.3134 114.667 65.1729 117.339C65.131 118.096 65.0891 118.853 65.0459 119.634C65.0066 120.419 64.9673 121.205 64.9268 122.014C64.8836 122.812 64.8404 123.609 64.7959 124.43C64.69 126.396 64.5891 128.361 64.4893 130.327C64.1593 130.327 63.8293 130.327 63.4893 130.327C63.4893 123.727 63.4893 117.127 63.4893 110.327C55.8993 110.327 48.3093 110.327 40.4893 110.327C40.9843 109.337 40.9843 109.337 41.4893 108.327C41.6117 105.643 41.675 102.983 41.6946 100.297C41.7045 99.4678 41.7144 98.6384 41.7246 97.784C41.7562 95.0353 41.781 92.2866 41.8057 89.5378C41.8262 87.635 41.8472 85.7321 41.8686 83.8293C41.9239 78.8151 41.9733 73.801 42.0215 68.7868C42.0717 63.6725 42.1274 58.5583 42.1826 53.4441C42.2902 43.4051 42.3917 33.366 42.4893 23.3269Z" fill="#201D14"/>
<path d="M19.4893 36.3269C32.0004 35.2971 32.0004 35.2971 37.3018 38.7644C39.5561 40.7352 40.3795 41.7781 40.9697 44.7293C40.9876 46.9896 40.846 49.0972 40.4893 51.3269C35.2874 51.6602 30.8905 51.9384 26.0518 49.8269C22.8698 46.7226 20.9531 43.5205 19.4893 39.3269C19.4893 38.3369 19.4893 37.3469 19.4893 36.3269Z" fill="#EBC8B3"/>
<path d="M132.489 36.3269C132.23 42.6758 130.102 45.9958 125.489 50.3269C122.845 51.6492 120.812 51.4237 117.864 51.3894C116.861 51.3804 115.858 51.3714 114.825 51.3621C114.054 51.3505 113.283 51.3389 112.489 51.3269C111.468 42.9753 111.468 42.9753 113.591 39.5496C119.002 34.9516 125.795 35.8739 132.489 36.3269Z" fill="#F0CDB0"/>
<path d="M46.4893 57.3269C52.4293 57.3269 58.3693 57.3269 64.4893 57.3269C64.5869 66.6042 64.5869 66.6042 64.4893 69.3269C62.6681 71.1481 60.1826 70.4593 57.7627 70.4636C57.0125 70.4598 56.2622 70.4559 55.4893 70.4519C54.3639 70.4577 54.3639 70.4577 53.2158 70.4636C47.6159 70.4535 47.6159 70.4535 46.4893 69.3269C46.3457 65.3247 46.4471 61.3325 46.4893 57.3269Z" fill="#1C1A17"/>
<path d="M52.4893 133.327C56.4493 133.327 60.4093 133.327 64.4893 133.327C64.4893 138.937 64.4893 144.547 64.4893 150.327C55.8643 148.452 55.8643 148.452 52.4893 147.327C52.4893 142.707 52.4893 138.087 52.4893 133.327Z" fill="#EBEAE8"/>
<path d="M36.4893 11.3269C36.6104 12.0256 36.7316 12.7242 36.8564 13.4441C37.024 14.3542 37.1916 15.2642 37.3643 16.2019C37.5267 17.1068 37.6891 18.0117 37.8564 18.9441C38.3197 21.492 38.3197 21.492 40.4893 23.3269C40.6342 25.9075 40.676 28.3763 40.6143 30.9519C40.6052 31.6583 40.5962 32.3647 40.5869 33.0925C40.5633 34.8375 40.5275 36.5822 40.4893 38.3269C35.4553 36.5267 32.9045 34.1574 30.4893 29.3269C30.3922 27.1829 30.3595 25.0356 30.3643 22.8894C30.3617 21.7357 30.3591 20.582 30.3564 19.3933C30.4893 16.3269 30.4893 16.3269 31.4893 13.3269C34.8577 11.3269 34.8577 11.3269 36.4893 11.3269Z" fill="#E7D8BC"/>
<path d="M88.4893 133.327C92.4493 133.327 96.4093 133.327 100.489 133.327C100.489 137.947 100.489 142.567 100.489 147.327C96.5293 148.317 92.5693 149.307 88.4893 150.327C88.4893 144.717 88.4893 139.107 88.4893 133.327Z" fill="#EEEDEB"/>
<path d="M115.489 11.3269C117.927 12.1394 117.927 12.1394 120.489 13.3269C122.586 19.6184 122.596 26.949 119.802 32.9519C117.505 35.3102 115.325 36.6996 112.489 38.3269C112.435 35.7433 112.395 33.1608 112.364 30.5769C112.347 29.8473 112.331 29.1177 112.313 28.366C112.278 24.44 112.464 21.7016 114.489 18.3269C114.877 16.002 115.219 13.6684 115.489 11.3269Z" fill="#EEE3C6"/>
<path d="M81.4893 76.3269C89.0793 76.3269 96.6693 76.3269 104.489 76.3269C104.489 85.2369 104.489 94.1469 104.489 103.327C88.3193 103.327 72.1493 103.327 55.4893 103.327C55.4893 102.997 55.4893 102.667 55.4893 102.327C70.6693 102.327 85.8493 102.327 101.489 102.327C101.489 94.4069 101.489 86.4869 101.489 78.3269C94.8893 78.3269 88.2893 78.3269 81.4893 78.3269C81.4893 77.6669 81.4893 77.0069 81.4893 76.3269Z" fill="#010202"/>
<path d="M43.4893 23.3269C49.0993 23.3269 54.7093 23.3269 60.4893 23.3269C60.4893 23.6569 60.4893 23.9869 60.4893 24.3269C55.2093 24.3269 49.9293 24.3269 44.4893 24.3269C44.8193 35.8769 45.1493 47.4269 45.4893 59.3269C45.8193 59.3269 46.1493 59.3269 46.4893 59.3269C46.4893 62.9569 46.4893 66.5869 46.4893 70.3269C46.1593 70.3269 45.8293 70.3269 45.4893 70.3269C45.4893 81.2169 45.4893 92.1069 45.4893 103.327C46.4793 103.327 47.4693 103.327 48.4893 103.327C51.222 103.642 53.9489 103.974 56.6768 104.327C57.4263 104.422 58.1759 104.518 58.9482 104.616C60.7955 104.851 62.6424 105.089 64.4893 105.327C64.4893 105.657 64.4893 105.987 64.4893 106.327C58.4893 107.327 58.4893 107.327 43.4893 107.327C43.4893 79.6069 43.4893 51.8869 43.4893 23.3269Z" fill="#935D35"/>
<path d="M55.4893 83.3269C59.1193 83.3269 62.7493 83.3269 66.4893 83.3269C66.4893 87.6169 66.4893 91.9069 66.4893 96.3269C62.8593 96.3269 59.2293 96.3269 55.4893 96.3269C55.4893 92.0369 55.4893 87.7469 55.4893 83.3269Z" fill="#251C17"/>
<path d="M85.4893 83.3269C89.1193 83.3269 92.7493 83.3269 96.4893 83.3269C96.4893 87.6169 96.4893 91.9069 96.4893 96.3269C92.8593 96.3269 89.2293 96.3269 85.4893 96.3269C85.4893 92.0369 85.4893 87.7469 85.4893 83.3269Z" fill="#251F1B"/>
<path d="M50.4893 78.3269C50.8193 78.3269 51.1493 78.3269 51.4893 78.3269C51.4893 85.9169 51.4893 93.5069 51.4893 101.327C55.0754 101.292 58.6616 101.257 62.3564 101.221C65.8182 101.198 69.2799 101.18 72.7417 101.162C75.1532 101.147 77.5647 101.127 79.9761 101.101C83.4363 101.064 86.8961 101.047 90.3564 101.034C91.4398 101.018 92.5232 101.003 93.6394 100.987C94.6403 100.987 95.6411 100.987 96.6724 100.986C97.5562 100.98 98.44 100.973 99.3506 100.966C100.056 101.085 100.762 101.204 101.489 101.327C102.149 102.317 102.809 103.307 103.489 104.327C85.3393 104.327 67.1893 104.327 48.4893 104.327C48.8193 103.667 49.1493 103.007 49.4893 102.327C49.6423 100.515 49.7387 98.6985 49.8057 96.8816C49.8685 95.267 49.8685 95.267 49.9326 93.6199C49.9719 92.4919 50.0113 91.364 50.0518 90.2019C50.0949 89.0662 50.1381 87.9306 50.1826 86.7605C50.2889 83.9494 50.391 81.1383 50.4893 78.3269Z" fill="#241E19"/>
<path d="M88.4893 57.3269C94.0993 57.3269 99.7093 57.3269 105.489 57.3269C105.489 61.6169 105.489 65.9069 105.489 70.3269C99.8793 70.3269 94.2693 70.3269 88.4893 70.3269C88.4893 69.9969 88.4893 69.6669 88.4893 69.3269C92.9443 68.8319 92.9443 68.8319 97.4893 68.3269C97.1593 67.9969 96.8293 67.6669 96.4893 67.3269C96.0347 64.6723 95.7868 62.005 95.4893 59.3269C93.1793 58.9969 90.8693 58.6669 88.4893 58.3269C88.4893 57.9969 88.4893 57.6669 88.4893 57.3269Z" fill="#302B25"/>
<path d="M112.489 9.3269C113.809 9.9869 115.129 10.6469 116.489 11.3269C116.181 12.9736 115.868 14.6193 115.552 16.2644C115.378 17.1809 115.204 18.0975 115.024 19.0417C114.489 21.3269 114.489 21.3269 113.489 22.3269C113.416 24.8574 113.397 27.36 113.427 29.8894C113.431 30.6003 113.436 31.3112 113.44 32.0437C113.452 33.8048 113.47 35.5659 113.489 37.3269C114.809 36.6669 116.129 36.0069 117.489 35.3269C117.489 36.6469 117.489 37.9669 117.489 39.3269C115.839 39.9869 114.189 40.6469 112.489 41.3269C112.489 44.6269 112.489 47.9269 112.489 51.3269C112.159 51.3269 111.829 51.3269 111.489 51.3269C111.159 48.3569 110.829 45.3869 110.489 42.3269C110.159 42.3269 109.829 42.3269 109.489 42.3269C109.489 36.0569 109.489 29.7869 109.489 23.3269C108.499 22.9969 107.509 22.6669 106.489 22.3269C106.819 21.6669 107.149 21.0069 107.489 20.3269C108.809 19.9969 110.129 19.6669 111.489 19.3269C111.819 16.0269 112.149 12.7269 112.489 9.3269Z" fill="#141412"/>
<path d="M52.4893 78.3269C68.6593 78.3269 84.8293 78.3269 101.489 78.3269C101.489 85.9169 101.489 93.5069 101.489 101.327C101.159 101.327 100.829 101.327 100.489 101.327C99.9943 93.9019 99.9943 93.9019 99.4893 86.3269C99.1593 86.3269 98.8293 86.3269 98.4893 86.3269C98.1593 89.6269 97.8293 92.9269 97.4893 96.3269C97.1593 96.3269 96.8293 96.3269 96.4893 96.3269C96.4893 91.7069 96.4893 87.0869 96.4893 82.3269C95.8293 81.9969 95.1693 81.6669 94.4893 81.3269C95.4793 80.9969 96.4693 80.6669 97.4893 80.3269C82.6393 79.9969 67.7893 79.6669 52.4893 79.3269C52.4893 78.9969 52.4893 78.6669 52.4893 78.3269Z" fill="#CBA18A"/>
<path d="M76.2119 20.2292C77.8651 20.2467 77.8651 20.2467 79.5518 20.2644C81.2088 20.2779 81.2088 20.2779 82.8994 20.2917C83.7541 20.3033 84.6087 20.315 85.4893 20.3269C85.1593 20.9869 84.8293 21.6469 84.4893 22.3269C81.5193 22.3269 78.5493 22.3269 75.4893 22.3269C75.5415 24.2412 75.5415 24.2412 75.5947 26.1941C75.6229 27.8633 75.6502 29.5326 75.6768 31.2019C75.7019 32.0437 75.727 32.8854 75.7529 33.7527C75.7626 34.5583 75.7723 35.364 75.7822 36.1941C75.7979 36.9377 75.8136 37.6813 75.8298 38.4475C75.6612 39.3778 75.6612 39.3778 75.4893 40.3269C74.4993 40.9869 73.5093 41.6469 72.4893 42.3269C72.4893 36.0569 72.4893 29.7869 72.4893 23.3269C62.9193 23.3269 53.3493 23.3269 43.4893 23.3269C43.4893 22.9969 43.4893 22.6669 43.4893 22.3269C44.3625 22.3018 45.2358 22.2768 46.1355 22.251C49.3653 22.156 52.5949 22.0568 55.8245 21.9546C57.2241 21.9112 58.6239 21.8695 60.0237 21.8296C62.0319 21.772 64.0399 21.7078 66.0479 21.6433C67.2576 21.6067 68.4673 21.57 69.7136 21.5322C72.8784 21.2981 73.0564 20.3424 76.2119 20.2292Z" fill="#201914"/>
<path d="M19.4307 33.2292C21.2231 33.2467 21.2231 33.2467 23.0518 33.2644C24.8481 33.2779 24.8481 33.2779 26.6807 33.2917C27.6075 33.3033 28.5343 33.315 29.4893 33.3269C29.4893 33.6569 29.4893 33.9869 29.4893 34.3269C25.8593 34.3269 22.2293 34.3269 18.4893 34.3269C21.2322 42.3259 21.2322 42.3259 26.1768 49.0144C30.5853 50.7612 34.7775 51.1407 39.4893 51.3269C39.4893 51.6569 39.4893 51.9869 39.4893 52.3269C37.8496 52.5435 37.8496 52.5435 36.1768 52.7644C32.558 53.2098 32.558 53.2098 29.4893 54.3269C23.8818 51.8347 20.2524 48.8639 17.4893 43.3269C16.5271 40.3637 15.7694 37.435 15.4893 34.3269C16.4893 33.3269 16.4893 33.3269 19.4307 33.2292Z" fill="#1A1C14"/>
<path d="M88.4893 58.3269C90.8222 58.2845 93.1563 58.286 95.4893 58.3269C97.5362 60.3739 97.1897 64.631 97.4893 67.3269C99.1393 67.6569 100.789 67.9869 102.489 68.3269C102.489 68.6569 102.489 68.9869 102.489 69.3269C97.8693 69.3269 93.2493 69.3269 88.4893 69.3269C88.4893 65.6969 88.4893 62.0669 88.4893 58.3269Z" fill="#060706"/>
<path d="M51.4893 78.3269C54.4593 78.8219 54.4593 78.8219 57.4893 79.3269C55.5093 80.3169 55.5093 80.3169 53.4893 81.3269C53.4893 82.9769 53.4893 84.6269 53.4893 86.3269C54.1493 86.3269 54.8093 86.3269 55.4893 86.3269C55.4893 89.6269 55.4893 92.9269 55.4893 96.3269C59.1193 96.3269 62.7493 96.3269 66.4893 96.3269C66.4893 96.6569 66.4893 96.9869 66.4893 97.3269C61.5393 97.8219 61.5393 97.8219 56.4893 98.3269C56.1593 99.3169 55.8293 100.307 55.4893 101.327C54.1693 101.327 52.8493 101.327 51.4893 101.327C51.4893 93.7369 51.4893 86.1469 51.4893 78.3269Z" fill="#F4C2A5"/>
<path d="M103.489 76.3269C103.819 76.3269 104.149 76.3269 104.489 76.3269C104.489 85.2369 104.489 94.1469 104.489 103.327C88.3193 103.327 72.1493 103.327 55.4893 103.327C55.4893 102.997 55.4893 102.667 55.4893 102.327C70.6693 102.327 85.8493 102.327 101.489 102.327C101.489 100.677 101.489 99.0269 101.489 97.3269C101.819 97.3269 102.149 97.3269 102.489 97.3269C102.819 90.3969 103.149 83.4669 103.489 76.3269Z" fill="#110D0A"/>
<path d="M29.4893 20.3269C29.8193 20.3269 30.1493 20.3269 30.4893 20.3269C30.5279 21.197 30.5279 21.197 30.5674 22.0847C31.1215 29.717 33.8667 34.106 39.4893 39.3269C38.4993 39.6569 37.5093 39.9869 36.4893 40.3269C35.6307 39.6366 35.6307 39.6366 34.7549 38.9324C31.6102 36.704 29.0536 36.816 25.2393 36.6394C23.3443 36.5408 23.3443 36.5408 21.4111 36.4402C20.4469 36.4028 19.4827 36.3654 18.4893 36.3269C18.4893 35.6669 18.4893 35.0069 18.4893 34.3269C22.1193 34.3269 25.7493 34.3269 29.4893 34.3269C29.1593 33.44 28.8293 32.5532 28.4893 31.6394C27.5627 28.5702 27.1476 26.4875 27.4893 23.3269C28.1493 22.3369 28.8093 21.3469 29.4893 20.3269Z" fill="#0E0F0C"/>
<path d="M46.4893 57.3269C49.7893 57.3269 53.0893 57.3269 56.4893 57.3269C56.4893 57.9869 56.4893 58.6469 56.4893 59.3269C54.5093 59.6569 52.5293 59.9869 50.4893 60.3269C50.1593 62.6369 49.8293 64.9469 49.4893 67.3269C52.1293 66.9969 54.7693 66.6669 57.4893 66.3269C57.8193 67.3169 58.1493 68.3069 58.4893 69.3269C54.5293 69.3269 50.5693 69.3269 46.4893 69.3269C46.4893 65.3669 46.4893 61.4069 46.4893 57.3269Z" fill="#110D0B"/>
<path d="M132.489 36.3269C132.819 36.9869 133.149 37.6469 133.489 38.3269C134.149 38.3269 134.809 38.3269 135.489 38.3269C134.067 44.4213 132.298 48.3796 127.274 52.241C125.051 53.5936 123.085 54.1696 120.489 54.3269C120.489 53.6669 120.489 53.0069 120.489 52.3269C117.849 52.3269 115.209 52.3269 112.489 52.3269C112.489 51.9969 112.489 51.6669 112.489 51.3269C113.576 51.3056 113.576 51.3056 114.685 51.2839C121.218 51.0567 121.218 51.0567 126.989 48.3269C130.113 44.5779 131.326 41.0123 132.489 36.3269Z" fill="#28261F"/>
<path d="M97.4893 83.3269C98.4793 83.9869 99.4693 84.6469 100.489 85.3269C100.71 88.1154 100.77 90.6734 100.677 93.4519C100.663 94.206 100.65 94.9601 100.636 95.7371C100.6 97.6006 100.547 99.4639 100.489 101.327C98.8393 101.327 97.1893 101.327 95.4893 101.327C95.1593 100.007 94.8293 98.6869 94.4893 97.3269C95.4793 96.9969 96.4693 96.6669 97.4893 96.3269C97.4893 92.0369 97.4893 87.7469 97.4893 83.3269Z" fill="#F3C4AB"/>
<path d="M86.4894 83.3269C89.7894 83.3269 93.0894 83.3269 96.4894 83.3269C96.4894 87.2869 96.4894 91.2469 96.4894 95.3269C95.4994 94.9969 94.5094 94.6669 93.4894 94.3269C93.8194 91.6869 94.1494 89.0469 94.4894 86.3269C92.5094 86.3269 90.5294 86.3269 88.4894 86.3269C88.4894 88.6369 88.4894 90.9469 88.4894 93.3269C86.06 89.6827 86.3276 87.6145 86.4894 83.3269Z" fill="#040202"/>
<path d="M48.4893 76.3269C50.4693 76.3269 52.4493 76.3269 54.4893 76.3269C54.1593 76.9869 53.8293 77.6469 53.4893 78.3269C52.4993 78.3269 51.5093 78.3269 50.4893 78.3269C50.4893 86.2469 50.4893 94.1669 50.4893 102.327C49.8293 102.657 49.1693 102.987 48.4893 103.327C48.4893 94.4169 48.4893 85.5069 48.4893 76.3269Z" fill="#030202"/>
<path d="M73.4893 30.3269C73.8193 30.3269 74.1493 30.3269 74.4893 30.3269C74.4893 33.6269 74.4893 36.9269 74.4893 40.3269C78.1193 40.3269 81.7493 40.3269 85.4893 40.3269C85.4893 43.2969 85.4893 46.2669 85.4893 49.3269C86.8093 49.6569 88.1293 49.9869 89.4893 50.3269C87.5093 50.3269 85.5293 50.3269 83.4893 50.3269C83.4893 47.6869 83.4893 45.0469 83.4893 42.3269C80.1893 42.3269 76.8893 42.3269 73.4893 42.3269C73.4893 38.3669 73.4893 34.4069 73.4893 30.3269Z" fill="#040504"/>
<path d="M19.4307 33.2292C21.2231 33.2467 21.2231 33.2467 23.0518 33.2644C24.8481 33.2779 24.8481 33.2779 26.6807 33.2917C27.6075 33.3033 28.5343 33.315 29.4893 33.3269C29.4893 33.6569 29.4893 33.9869 29.4893 34.3269C25.8593 34.3269 22.2293 34.3269 18.4893 34.3269C19.1493 35.9769 19.8093 37.6269 20.4893 39.3269C20.5657 41.659 20.5807 43.9954 20.4893 46.3269C17.7566 43.9996 16.9452 42.1976 16.2393 38.7019C16.0691 37.9053 15.8989 37.1086 15.7236 36.2878C15.6463 35.6407 15.5689 34.9936 15.4893 34.3269C16.4893 33.3269 16.4893 33.3269 19.4307 33.2292Z" fill="#1F2917"/>
<path d="M56.4893 83.3269C59.7893 83.3269 63.0893 83.3269 66.4893 83.3269C66.4893 86.2969 66.4893 89.2669 66.4893 92.3269C65.4993 92.8219 65.4993 92.8219 64.4893 93.3269C64.4893 90.6869 64.4893 88.0469 64.4893 85.3269C62.5093 85.6569 60.5293 85.9869 58.4893 86.3269C58.1593 88.6369 57.8293 90.9469 57.4893 93.3269C57.1593 93.3269 56.8293 93.3269 56.4893 93.3269C56.4893 90.0269 56.4893 86.7269 56.4893 83.3269Z" fill="#010303"/>
<path d="M49.4893 60.3269C51.4693 60.3269 53.4493 60.3269 55.4893 60.3269C55.4893 62.6369 55.4893 64.9469 55.4893 67.3269C53.5093 67.3269 51.5293 67.3269 49.4893 67.3269C49.4893 65.0169 49.4893 62.7069 49.4893 60.3269Z" fill="#ECEBEB"/>
<path d="M93.4893 41.3269C94.9893 42.3894 94.9893 42.3894 96.4893 44.3269C96.6768 48.0144 96.6768 48.0144 96.4893 51.3269C92.1993 51.3269 87.9093 51.3269 83.4893 51.3269C84.1493 50.3369 84.8093 49.3469 85.4893 48.3269C87.4346 48.0339 87.4346 48.0339 89.6143 48.1394C90.893 48.2013 92.1718 48.2632 93.4893 48.3269C93.4893 46.0169 93.4893 43.7069 93.4893 41.3269Z" fill="#24211B"/>
<path d="M119.489 24.3269C121.489 27.3269 121.489 27.3269 120.927 30.2644C119.303 33.7242 117.611 35.1909 114.489 37.3269C114.489 32.1717 116.18 28.2375 119.489 24.3269Z" fill="#E2D3B6"/>
<path d="M38.4893 23.3269C39.1493 23.3269 39.8093 23.3269 40.4893 23.3269C40.4893 28.2769 40.4893 33.2269 40.4893 38.3269C39.1693 37.6669 37.8493 37.0069 36.4893 36.3269C37.1493 32.0369 37.8093 27.7469 38.4893 23.3269Z" fill="#C9BCA6"/>
<path d="M123.489 17.3269C124.149 17.6569 124.809 17.9869 125.489 18.3269C125.374 20.0568 125.247 21.7858 125.114 23.5144C125.045 24.4773 124.975 25.4403 124.903 26.4324C124.487 29.342 123.691 31.6558 122.489 34.3269C122.159 33.6669 121.829 33.0069 121.489 32.3269C120.829 31.9969 120.169 31.6669 119.489 31.3269C119.819 30.6669 120.149 30.0069 120.489 29.3269C120.76 27.0603 120.934 24.7941 121.11 22.5183C121.489 20.3269 121.489 20.3269 123.489 17.3269Z" fill="#1D2219"/>
<path d="M88.4893 86.3269C90.1393 86.3269 91.7893 86.3269 93.4893 86.3269C93.4893 88.6369 93.4893 90.9469 93.4893 93.3269C91.8393 93.3269 90.1893 93.3269 88.4893 93.3269C88.4893 91.0169 88.4893 88.7069 88.4893 86.3269Z" fill="#4F2E1C"/>
<path d="M58.4893 86.3269C60.1393 86.3269 61.7893 86.3269 63.4893 86.3269C63.4893 88.6369 63.4893 90.9469 63.4893 93.3269C61.8393 93.3269 60.1893 93.3269 58.4893 93.3269C58.4893 91.0169 58.4893 88.7069 58.4893 86.3269Z" fill="#472A1B"/>
<path d="M97.4893 60.3269C99.1393 60.3269 100.789 60.3269 102.489 60.3269C102.489 62.6369 102.489 64.9469 102.489 67.3269C100.839 67.3269 99.1893 67.3269 97.4893 67.3269C97.4893 65.0169 97.4893 62.7069 97.4893 60.3269Z" fill="#FCFCFC"/>
<path d="M132.489 36.3269C132.819 36.9869 133.149 37.6469 133.489 38.3269C134.149 38.3269 134.809 38.3269 135.489 38.3269C134.499 41.2969 133.509 44.2669 132.489 47.3269C130.839 47.6569 129.189 47.9869 127.489 48.3269C127.766 47.7958 128.044 47.2647 128.329 46.7175C128.691 46.0111 129.054 45.3047 129.427 44.5769C129.966 43.5328 129.966 43.5328 130.517 42.4675C131.445 40.4247 132.021 38.5158 132.489 36.3269Z" fill="#161811"/>
<path d="M84.4893 80.3269C87.4593 80.3269 90.4293 80.3269 93.4893 80.3269C93.4893 80.9869 93.4893 81.6469 93.4893 82.3269C94.4793 82.6569 95.4693 82.9869 96.4893 83.3269C92.5293 83.3269 88.5693 83.3269 84.4893 83.3269C84.4893 82.3369 84.4893 81.3469 84.4893 80.3269Z" fill="#E7AE94"/>
<path d="M116.489 35.3269C117.149 35.6569 117.809 35.9869 118.489 36.3269C118.159 37.3169 117.829 38.3069 117.489 39.3269C114.927 40.5144 114.927 40.5144 112.489 41.3269C112.489 44.6269 112.489 47.9269 112.489 51.3269C112.159 51.3269 111.829 51.3269 111.489 51.3269C110.722 41.5969 110.722 41.5969 112.602 38.4832C113.989 37.1394 113.989 37.1394 116.489 35.3269Z" fill="#312E29"/>
<path d="M86.4894 83.3269C88.7994 83.3269 91.1094 83.3269 93.4894 83.3269C93.4894 84.3169 93.4894 85.3069 93.4894 86.3269C91.8394 86.3269 90.1894 86.3269 88.4894 86.3269C88.4894 88.6369 88.4894 90.9469 88.4894 93.3269C86.06 89.6827 86.3276 87.6145 86.4894 83.3269Z" fill="#0E0A08"/>
<path d="M138.489 32.3269C138.819 32.9869 139.149 33.6469 139.489 34.3269C138.499 34.3269 137.509 34.3269 136.489 34.3269C136.159 35.6469 135.829 36.9669 135.489 38.3269C135.489 37.0069 135.489 35.6869 135.489 34.3269C131.199 34.3269 126.909 34.3269 122.489 34.3269C122.489 33.9969 122.489 33.6669 122.489 33.3269C127.838 32.7349 133.098 32.185 138.489 32.3269Z" fill="#608E41"/>
<path d="M124.489 18.3269C128.025 20.2383 130.279 21.9533 132.489 25.3269C129.489 25.3269 129.489 25.3269 126.489 23.3269C125.829 23.9869 125.169 24.6469 124.489 25.3269C124.489 23.0169 124.489 20.7069 124.489 18.3269Z" fill="#76B24F"/>
<path d="M112.489 9.3269C113.809 9.9869 115.129 10.6469 116.489 11.3269C115.829 14.6269 115.169 17.9269 114.489 21.3269C113.499 20.6669 112.509 20.0069 111.489 19.3269C111.819 16.0269 112.149 12.7269 112.489 9.3269Z" fill="#262E1F"/>
<path d="M36.4893 11.3269C36.4893 13.9669 36.4893 16.6069 36.4893 19.3269C35.8293 18.3369 35.1693 17.3469 34.4893 16.3269C33.4993 17.6469 32.5093 18.9669 31.4893 20.3269C31.4893 18.0169 31.4893 15.7069 31.4893 13.3269C35.3643 11.3269 35.3643 11.3269 36.4893 11.3269Z" fill="#EFE0C9"/>
<path d="M17.4893 38.3269C18.4793 38.6569 19.4693 38.9869 20.4893 39.3269C20.4893 41.6369 20.4893 43.9469 20.4893 46.3269C18.9893 45.1394 18.9893 45.1394 17.4893 43.3269C17.3018 40.6394 17.3018 40.6394 17.4893 38.3269Z" fill="#131410"/>
<path d="M37.4893 19.3269C40.4593 19.8219 40.4593 19.8219 43.4893 20.3269C43.4893 21.3169 43.4893 22.3069 43.4893 23.3269C42.4993 23.6569 41.5093 23.9869 40.4893 24.3269C38.9893 22.9519 38.9893 22.9519 37.4893 21.3269C37.4893 20.6669 37.4893 20.0069 37.4893 19.3269Z" fill="#0E100C"/>
<path d="M30.9932 51.2292C32.5072 51.2467 32.5072 51.2467 34.0518 51.2644C35.0637 51.2734 36.0756 51.2825 37.1182 51.2917C38.2919 51.3092 38.2919 51.3092 39.4893 51.3269C39.4893 51.6569 39.4893 51.9869 39.4893 52.3269C37.8496 52.5435 37.8496 52.5435 36.1768 52.7644C32.558 53.2098 32.558 53.2098 29.4893 54.3269C28.8293 53.6669 28.1693 53.0069 27.4893 52.3269C28.4893 51.3269 28.4893 51.3269 30.9932 51.2292Z" fill="#3B372E"/>
<path d="M104.489 63.3269C104.819 63.3269 105.149 63.3269 105.489 63.3269C105.489 65.3069 105.489 67.2869 105.489 69.3269C102.849 68.9969 100.209 68.6669 97.4893 68.3269C97.4893 67.9969 97.4893 67.6669 97.4893 67.3269C99.4693 67.3269 101.449 67.3269 103.489 67.3269C103.819 66.0069 104.149 64.6869 104.489 63.3269Z" fill="#131210"/>
<path d="M25.4893 18.3269C26.1493 18.3269 26.8093 18.3269 27.4893 18.3269C27.4893 20.6369 27.4893 22.9469 27.4893 25.3269C27.1593 24.0069 26.8293 22.6869 26.4893 21.3269C24.8393 21.9869 23.1893 22.6469 21.4893 23.3269C22.7699 21.6194 24.1069 19.9532 25.4893 18.3269Z" fill="#75B34C"/>
</svg>
