<svg width="152" height="151" viewBox="0 0 152 151" fill="none" xmlns="http://www.w3.org/2000/svg">
<path d="M124.377 17.5383C136.645 28.168 145.248 41.5795 149.502 57.2258C149.728 58.0456 149.953 58.8655 150.186 59.7102C154.626 78.4503 149.988 97.8734 140.752 114.351C129.008 133.092 111.014 144.972 89.6973 149.87C74.7312 151.535 60.4287 151.156 46.502 145.226C44.8739 144.539 44.8739 144.539 43.2129 143.839C24.4381 135.165 10.8875 119.333 3.50196 100.226C0.894449 91.9635 -0.0491302 84.1172 0.00195671 75.4758C0.00767692 74.3405 0.0133971 73.2053 0.0192907 72.0356C0.219105 62.5811 1.66412 54.8878 5.50196 46.2258C5.99825 45.0927 6.49454 43.9596 7.00586 42.7922C11.1769 34.2592 16.8148 27.8275 23.502 21.2258C24.2561 20.473 25.0102 19.7202 25.7871 18.9445C53.5361 -7.24329 95.3787 -4.91327 124.377 17.5383Z" fill="#F3A631"/>
<path d="M73.502 7.22583C76.8713 7.80574 78.4675 8.82933 80.8145 11.2883C81.41 11.9097 82.0055 12.531 82.6191 13.1711C85.642 16.4699 88.5953 19.8244 91.502 23.2258C90.1426 26.0864 88.8567 28.0851 86.502 30.2258C87.795 33.1102 89.1614 35.098 91.502 37.2258C90.4532 39.8477 89.8526 41.0195 87.377 42.4758C86.7582 42.7233 86.1395 42.9708 85.502 43.2258C86.8718 46.387 87.491 47.2185 90.502 49.2258C89.9382 52.4954 89.0023 54.0516 86.502 56.2258C86.7907 56.8033 87.0795 57.3808 87.377 57.9758C88.4186 60.0592 89.4603 62.1425 90.502 64.2258C89.8213 64.8033 89.1407 65.3808 88.4395 65.9758C86.2562 67.9997 86.2562 67.9997 86.5645 70.3508C87.48 72.5695 87.48 72.5695 90.502 74.2258C91.1895 77.8508 91.1895 77.8508 91.502 81.2258C92.8632 79.9574 92.8632 79.9574 94.252 78.6633C97.1866 76.2258 97.1866 76.2258 99.6895 76.2258C101.674 77.3209 103.018 78.5195 104.502 80.2258C106.996 79.022 109.183 77.7715 111.502 76.2258C116.452 80.8458 121.402 85.4658 126.502 90.2258C124.607 94.0154 122.96 96.0365 120.002 98.9758C118.811 100.175 118.811 100.175 117.596 101.398C115.502 103.226 115.502 103.226 113.502 103.226C113.502 103.886 113.502 104.546 113.502 105.226C112.017 105.721 112.017 105.721 110.502 106.226C109.924 105.545 109.347 104.865 108.752 104.163C106.736 101.986 106.736 101.986 104.439 102.288C102.32 103.314 101.04 104.457 99.502 106.226C97.0083 105.022 94.8205 103.772 92.502 102.226C91.6666 103.154 91.6666 103.154 90.8145 104.101C88.4355 106.287 86.5384 107.214 83.502 108.226C83.502 109.546 83.502 110.866 83.502 112.226C84.492 113.216 84.492 113.216 85.502 114.226C85.1132 117.239 84.2374 118.623 82.502 121.226C85.142 123.866 87.782 126.506 90.502 129.226C88.9314 132.367 87.9673 134.029 85.6816 136.46C85.1467 137.034 84.6117 137.607 84.0605 138.198C83.505 138.785 82.9494 139.372 82.377 139.976C81.8136 140.578 81.2503 141.18 80.6699 141.8C79.2847 143.279 77.8939 144.753 76.502 146.226C73.5697 144.905 71.5153 143.479 69.2676 141.187C68.6939 140.607 68.1203 140.027 67.5293 139.429C66.9428 138.826 66.3562 138.222 65.752 137.601C65.15 136.99 64.548 136.379 63.9277 135.749C62.4479 134.246 60.9743 132.736 59.502 131.226C61.4248 126.932 64.1267 124.454 67.502 121.226C67.007 120.36 67.007 120.36 66.502 119.476C65.502 117.226 65.502 117.226 65.502 113.226C66.162 111.906 66.822 110.586 67.502 109.226C63.047 105.761 63.047 105.761 58.502 102.226C56.522 103.216 56.522 103.216 54.502 104.226C53.1686 104.892 51.8353 105.559 50.502 106.226C48.522 104.906 46.542 103.586 44.502 102.226C43.182 103.546 41.862 104.866 40.502 106.226C37.6733 104.93 35.5319 103.534 33.2676 101.406C32.4071 100.603 32.4071 100.603 31.5293 99.7844C30.9428 99.2288 30.3562 98.6733 29.752 98.1008C29.15 97.5375 28.548 96.9742 27.9277 96.3938C26.4486 95.0086 24.9748 93.6178 23.502 92.2258C25.1138 88.0569 28.1639 85.376 31.377 82.4133C32.1717 81.6409 32.1717 81.6409 32.9824 80.8528C34.5566 79.3938 34.5566 79.3938 37.502 77.2258C39.7441 77.3352 39.7441 77.3352 41.502 78.2258C42.2445 78.5765 42.987 78.9271 43.752 79.2883C44.6182 79.7524 44.6182 79.7524 45.502 80.2258C47.152 78.9058 48.802 77.5858 50.502 76.2258C53.1686 77.5592 55.8353 78.8925 58.502 80.2258C58.9557 79.0915 59.4095 77.9571 59.877 76.7883C61.502 73.2258 61.502 73.2258 63.502 72.2258C63.0669 69.7025 62.7927 68.4942 60.877 66.7258C60.4232 66.2308 59.9695 65.7358 59.502 65.2258C59.668 62.5689 60.2911 61.462 62.0645 59.4758C62.776 58.8571 62.776 58.8571 63.502 58.2258C63.2132 57.6483 62.9245 57.0708 62.627 56.4758C61.5853 54.3925 60.5436 52.3092 59.502 50.2258C60.162 49.6277 60.822 49.0296 61.502 48.4133C63.8393 46.3508 63.8393 46.3508 63.502 43.2258C61.5619 41.5205 61.5619 41.5205 59.502 40.2258C60.0003 36.5383 60.6026 34.6209 63.502 32.2258C62.209 29.3415 60.8425 27.3536 58.502 25.2258C59.9361 21.9163 61.7117 19.8292 64.3145 17.3508C67.6272 14.1286 70.6166 10.8325 73.502 7.22583Z" fill="#0A0B0B"/>
<path d="M92.502 21.2258C103.801 22.5664 114.441 30.4394 121.502 39.2258C126.573 46.1243 129.994 53.0588 132.502 61.2258C132.914 62.4427 133.327 63.6596 133.752 64.9133C137.152 79.9683 133.356 93.5225 125.4 106.413C117.924 117.49 106.492 127.205 93.502 131.226C90.502 131.226 90.502 131.226 88.748 129.581C88.1512 128.866 87.5544 128.15 86.9395 127.413C86.34 126.706 85.7406 125.998 85.123 125.269C83.502 123.226 83.502 123.226 81.502 120.226C82.0176 119.813 82.5332 119.401 83.0645 118.976C84.7442 117.351 84.7442 117.351 84.3145 115.288C83.4893 113.194 82.5649 111.21 81.502 109.226C83.8853 106.466 86.1437 105.536 89.502 104.226C90.8656 103.268 92.2099 102.279 93.502 101.226C94.822 102.546 96.142 103.866 97.502 105.226C99.97 104.074 101.55 103.178 103.502 101.226C106.905 101.566 108.85 103.192 111.502 105.226C112.162 105.226 112.822 105.226 113.502 105.226C113.502 104.566 113.502 103.906 113.502 103.226C115.111 101.64 115.111 101.64 117.252 99.8508C120.126 97.4097 122.887 94.9493 125.502 92.2258C123.903 87.9767 120.689 85.4036 117.377 82.4758C116.814 81.9692 116.25 81.4626 115.67 80.9407C114.285 79.697 112.894 78.4607 111.502 77.2258C109.852 78.5458 108.202 79.8658 106.502 81.2258C104.034 80.0741 102.454 79.178 100.502 77.2258C97.1444 77.5508 95.7656 78.8593 93.502 81.2258C92.842 81.2258 92.182 81.2258 91.502 81.2258C89.502 76.4758 89.502 76.4758 89.502 74.2258C87.5419 72.5891 87.5419 72.5891 85.502 71.2258C86.0657 67.9563 87.0016 66.4001 89.502 64.2258C89.2132 63.6483 88.9245 63.0708 88.627 62.4758C87.5853 60.3925 86.5436 58.3092 85.502 56.2258C86.162 55.6277 86.822 55.0296 87.502 54.4133C89.8393 52.3508 89.8393 52.3508 89.502 49.2258C88.842 48.7308 88.182 48.2358 87.502 47.7258C86.842 47.2308 86.182 46.7358 85.502 46.2258C85.502 45.2358 85.502 44.2458 85.502 43.2258C88.002 41.0383 88.002 41.0383 90.502 39.2258C89.209 36.3415 87.8425 34.3536 85.502 32.2258C86.8137 29.2996 88.2548 27.4729 90.502 25.2258C91.1922 23.9045 91.8619 22.5721 92.502 21.2258Z" fill="#F8C442"/>
<path d="M60.502 20.2258C60.2339 20.9477 59.9658 21.6696 59.6895 22.4133C59.1531 25.4897 59.1531 25.4897 61.9395 28.0383C62.7852 28.7602 63.6308 29.4821 64.502 30.2258C63.3503 32.6938 62.4542 34.2737 60.502 36.2258C60.5931 38.7653 60.5931 38.7653 61.502 41.2258C62.492 41.8858 63.482 42.5458 64.502 43.2258C63.9383 46.4954 63.0024 48.0516 60.502 50.2258C60.7908 50.8033 61.0795 51.3808 61.377 51.9758C62.4187 54.0592 63.4604 56.1425 64.502 58.2258C63.8214 58.8033 63.1408 59.3808 62.4395 59.9758C60.2626 61.9918 60.2626 61.9918 60.5645 64.2883C61.399 66.3143 61.399 66.3143 63.127 67.7258C63.5808 68.2208 64.0345 68.7158 64.502 69.2258C64.3145 71.3508 64.3145 71.3508 63.502 73.2258C62.512 73.7208 62.512 73.7208 61.502 74.2258C60.7751 76.2047 60.1039 78.2054 59.502 80.2258C55.502 80.2258 55.502 80.2258 53.752 78.7258C53.3395 78.2308 52.927 77.7358 52.502 77.2258C51.9452 77.5146 51.3883 77.8033 50.8145 78.1008C48.4171 79.2672 45.9861 80.2598 43.502 81.2258C43.0895 80.7102 42.677 80.1946 42.252 79.6633C41.6745 79.189 41.097 78.7146 40.502 78.2258C35.9933 78.8212 33.4082 81.7643 30.252 84.7883C29.6977 85.3085 29.1434 85.8286 28.5723 86.3645C27.2095 87.6451 25.8549 88.9346 24.502 90.2258C26.1005 94.4749 29.3151 97.0481 32.627 99.9758C33.1903 100.482 33.7537 100.989 34.3341 101.511C35.7185 102.755 37.1096 103.991 38.502 105.226C40.9956 104.022 43.1835 102.772 45.502 101.226C47.152 102.546 48.802 103.866 50.502 105.226C51.0795 104.937 51.657 104.648 52.252 104.351C54.3354 103.309 56.4187 102.267 58.502 101.226C61.802 103.866 65.102 106.506 68.502 109.226C67.842 110.546 67.182 111.866 66.502 113.226C66.502 116.993 66.7374 118.138 68.502 121.226C61.5002 129.866 61.5002 129.866 57.2872 130.624C45.8209 128.509 34.4819 118.59 27.8145 109.413C18.9436 96.0362 14.1613 82.3741 17.1934 66.2297C20.606 50.256 29.005 36.7357 42.502 27.2258C54.0479 20.2258 54.0479 20.2258 60.502 20.2258Z" fill="#F7C342"/>
<path d="M73.502 19.2258C77.2494 21.0996 78.3758 21.9207 80.752 25.1008C81.5331 26.1179 81.5331 26.1179 82.3301 27.1555C83.502 29.2258 83.502 29.2258 83.502 33.2258C85.4205 35.958 85.4205 35.958 87.502 38.2258C85.522 40.5358 83.542 42.8458 81.502 45.2258C83.152 46.8758 84.802 48.5258 86.502 50.2258C85.1686 52.8925 83.8353 55.5592 82.502 58.2258C83.822 60.2058 85.142 62.1858 86.502 64.2258C85.677 65.0096 84.852 65.7933 84.002 66.6008C81.2721 68.863 81.2721 68.863 81.502 71.2258C83.462 72.8626 83.462 72.8626 85.502 74.2258C84.8565 77.7112 83.4006 80.254 81.502 83.2258C82.492 83.7208 82.492 83.7208 83.502 84.2258C84.162 82.5758 84.822 80.9258 85.502 79.2258C86.822 79.8858 88.142 80.5458 89.502 81.2258C89.502 81.8858 89.502 82.5458 89.502 83.2258C90.3682 83.5971 90.3682 83.5971 91.252 83.9758C93.502 85.2258 93.502 85.2258 95.4395 87.4133C97.3739 89.5367 97.3739 89.5367 100.127 89.1008C102.646 88.3612 102.646 88.3612 104.502 86.2258C107.795 86.5445 109.367 87.771 111.502 90.2258C110.209 93.1102 108.843 95.098 106.502 97.2258C103.835 95.8925 101.169 94.5592 98.502 93.2258C96.522 94.5458 94.542 95.8658 92.502 97.2258C91.182 95.9058 89.862 94.5858 88.502 93.2258C85.5868 94.2998 83.7239 95.0039 81.502 97.2258C79.4395 96.9758 79.4395 96.9758 77.502 96.2258C77.172 95.5658 76.842 94.9058 76.502 94.2258C74.0083 95.4296 71.8205 96.6801 69.502 98.2258C67.852 96.5758 66.202 94.9258 64.502 93.2258C60.4603 94.5707 58.1152 96.2763 55.1895 99.3508C54.1434 100.438 54.1434 100.438 53.0762 101.546C52.5567 102.1 52.0372 102.655 51.502 103.226C49.522 101.906 47.542 100.586 45.502 99.2258C44.6357 99.7208 44.6357 99.7208 43.752 100.226C41.502 101.226 41.502 101.226 37.502 101.226C35.4316 99.8352 35.4316 99.8352 33.377 97.9758C32.6938 97.3725 32.0105 96.7693 31.3066 96.1477C29.53 94.2557 28.5197 92.5972 27.502 90.2258C31.2234 86.3114 34.6423 82.7293 39.502 80.2258C40.822 81.5458 42.142 82.8658 43.502 84.2258C45.97 83.0741 47.5498 82.178 49.502 80.2258C52.8713 80.5628 54.9311 82.114 57.502 84.2258C62.7561 80.3305 62.7561 80.3305 64.502 74.2258C66.5645 72.4133 66.5645 72.4133 68.502 71.2258C67.1321 68.0647 66.5129 67.2331 63.502 65.2258C64.6537 62.7578 65.5498 61.178 67.502 59.2258C67.1833 55.933 65.9568 54.3605 63.502 52.2258C64.8735 49.2717 66.4906 46.7857 68.502 44.2258C66.852 42.5758 65.202 40.9258 63.502 39.2258C64.8735 36.2717 66.4906 33.7857 68.502 31.2258C67.842 29.9058 67.182 28.5858 66.502 27.2258C68.812 24.5858 71.122 21.9458 73.502 19.2258Z" fill="#2AA7B8"/>
<path d="M64.502 77.2258C67.0624 79.2173 69.4011 81.1127 71.5645 83.5383C72.2038 84.0952 72.8432 84.6521 73.502 85.2258C75.55 85.1308 75.55 85.1308 77.502 84.2258C81.2797 83.1147 81.2797 83.1147 83.502 84.2258C84.162 82.5758 84.822 80.9258 85.502 79.2258C86.822 79.8858 88.142 80.5458 89.502 81.2258C89.502 81.8858 89.502 82.5458 89.502 83.2258C90.0795 83.4733 90.657 83.7208 91.252 83.9758C93.502 85.2258 93.502 85.2258 95.4395 87.4133C97.3739 89.5367 97.3739 89.5367 100.127 89.1008C102.646 88.3612 102.646 88.3612 104.502 86.2258C107.795 86.5445 109.367 87.771 111.502 90.2258C110.209 93.1102 108.843 95.098 106.502 97.2258C103.835 95.8925 101.169 94.5592 98.502 93.2258C96.522 94.5458 94.542 95.8658 92.502 97.2258C91.182 95.9058 89.862 94.5858 88.502 93.2258C85.5868 94.2998 83.7239 95.0039 81.502 97.2258C79.4395 96.9758 79.4395 96.9758 77.502 96.2258C77.007 95.2358 77.007 95.2358 76.502 94.2258C74.0083 95.4296 71.8205 96.6801 69.502 98.2258C67.852 96.5758 66.202 94.9258 64.502 93.2258C60.4603 94.5707 58.1152 96.2763 55.1895 99.3508C54.4921 100.075 53.7947 100.8 53.0762 101.546C52.5567 102.1 52.0372 102.655 51.502 103.226C49.522 101.906 47.542 100.586 45.502 99.2258C44.9245 99.5558 44.347 99.8858 43.752 100.226C41.502 101.226 41.502 101.226 37.502 101.226C35.4316 99.8352 35.4316 99.8352 33.377 97.9758C32.6938 97.3725 32.0105 96.7693 31.3066 96.1477C29.53 94.2557 28.5197 92.5972 27.502 90.2258C31.2234 86.3114 34.6423 82.7293 39.502 80.2258C40.822 81.5458 42.142 82.8658 43.502 84.2258C45.97 83.0741 47.5498 82.178 49.502 80.2258C52.8713 80.5628 54.9311 82.114 57.502 84.2258C58.4713 83.4421 59.4407 82.6583 60.4395 81.8508C60.9847 81.41 61.53 80.9691 62.0918 80.5149C63.6346 79.2592 63.6346 79.2592 64.502 77.2258Z" fill="#186370"/>
<path d="M86.502 34.2258C87.822 34.8858 89.142 35.5458 90.502 36.2258C90.502 40.2258 90.502 40.2258 89.127 41.9758C87.502 43.2258 87.502 43.2258 85.502 43.2258C86.8718 46.387 87.491 47.2185 90.502 49.2258C89.9382 52.4954 89.0023 54.0516 86.502 56.2258C86.7907 56.8033 87.0795 57.3808 87.377 57.9758C88.4186 60.0592 89.4603 62.1425 90.502 64.2258C89.8213 64.8033 89.1407 65.3808 88.4395 65.9758C86.2562 67.9997 86.2562 67.9997 86.5645 70.3508C87.48 72.5695 87.48 72.5695 90.502 74.2258C91.1895 77.8508 91.1895 77.8508 91.502 81.2258C92.8632 79.9574 92.8632 79.9574 94.252 78.6633C97.1866 76.2258 97.1866 76.2258 99.6895 76.2258C101.674 77.3209 103.018 78.5195 104.502 80.2258C106.996 79.022 109.183 77.7715 111.502 76.2258C116.452 80.8458 121.402 85.4658 126.502 90.2258C124.607 94.0154 122.96 96.0365 120.002 98.9758C119.208 99.775 118.414 100.574 117.596 101.398C115.502 103.226 115.502 103.226 113.502 103.226C113.502 103.886 113.502 104.546 113.502 105.226C112.512 105.556 111.522 105.886 110.502 106.226C109.924 105.545 109.347 104.865 108.752 104.163C106.736 101.986 106.736 101.986 104.439 102.288C102.32 103.314 101.04 104.457 99.502 106.226C97.0083 105.022 94.8205 103.772 92.502 102.226C91.9451 102.845 91.3882 103.463 90.8145 104.101C88.4355 106.287 86.5384 107.214 83.502 108.226C83.502 109.546 83.502 110.866 83.502 112.226C84.162 112.886 84.822 113.546 85.502 114.226C85.1132 117.239 84.2374 118.623 82.502 121.226C85.142 123.866 87.782 126.506 90.502 129.226C88.9314 132.367 87.9673 134.029 85.6816 136.46C85.1467 137.034 84.6117 137.607 84.0605 138.198C83.505 138.785 82.9494 139.372 82.377 139.976C81.8136 140.578 81.2503 141.18 80.6699 141.8C79.2847 143.279 77.8939 144.753 76.502 146.226C73.5697 144.905 71.5153 143.479 69.2676 141.187C68.6939 140.607 68.1203 140.027 67.5293 139.429C66.9428 138.826 66.3562 138.222 65.752 137.601C65.15 136.99 64.548 136.379 63.9277 135.749C62.4479 134.246 60.9743 132.736 59.502 131.226C60.8266 128.221 62.2077 126.416 64.6895 124.288C66.308 122.822 66.308 122.822 67.502 121.226C67.5429 118.412 67.5429 118.412 66.502 116.226C67.492 116.226 68.482 116.226 69.502 116.226C70.162 117.546 70.822 118.866 71.502 120.226C70.7266 121.022 70.7266 121.022 69.9355 121.835C69.2768 122.542 68.6181 123.248 67.9395 123.976C67.2782 124.672 66.6169 125.368 65.9355 126.085C64.3223 128.065 64.3223 128.065 64.502 130.163C65.9101 133.068 67.8655 135.122 70.0645 137.476C71.3039 138.814 71.3039 138.814 72.5684 140.179C73.2064 140.854 73.8445 141.53 74.502 142.226C78.6862 138.717 82.6978 135.145 86.502 131.226C84.9424 127.398 82.6656 124.862 79.502 122.226C77.2267 122.271 77.2267 122.271 75.502 123.226C77.029 119.79 79.1012 117.107 81.502 114.226C80.182 113.566 78.862 112.906 77.502 112.226C77.502 107.958 77.8781 107.287 80.502 104.226C79.512 102.906 78.522 101.586 77.502 100.226C78.987 99.2358 78.987 99.2358 80.502 98.2258C82.152 99.8758 83.802 101.526 85.502 103.226C87.482 101.576 89.462 99.9258 91.502 98.2258C93.9395 99.0383 93.9395 99.0383 96.502 100.226C96.832 101.216 97.162 102.206 97.502 103.226C98.8632 101.957 98.8632 101.957 100.252 100.663C103.182 98.2169 103.182 98.2169 105.752 98.2883C107.502 99.2258 107.502 99.2258 109.502 101.226C113.352 100.975 115.184 98.8597 117.752 96.1633C118.458 95.4299 119.165 94.6964 119.893 93.9407C120.424 93.3748 120.955 92.8089 121.502 92.2258C120.054 88.7815 118.225 86.8645 115.377 84.4758C114.653 83.8622 113.928 83.2486 113.182 82.6165C112.627 82.1575 112.073 81.6986 111.502 81.2258C109.852 81.8858 108.202 82.5458 106.502 83.2258C106.502 83.8858 106.502 84.5458 106.502 85.2258C104.034 84.0741 102.454 83.178 100.502 81.2258C97.1326 81.5628 95.0728 83.114 92.502 85.2258C90.192 83.2458 87.882 81.2658 85.502 79.2258C84.512 81.7008 84.512 81.7008 83.502 84.2258C82.017 83.7308 82.017 83.7308 80.502 83.2258C81.1826 82.3183 81.8632 81.4108 82.5645 80.4758C84.7116 77.534 84.7116 77.534 84.4395 74.9758C83.4935 72.8797 83.4935 72.8797 80.502 71.2258C81.8735 68.2717 83.4906 65.7857 85.502 63.2258C84.182 61.5758 82.862 59.9258 81.502 58.2258C82.8353 55.5592 84.1686 52.8925 85.502 50.2258C83.852 48.2458 82.202 46.2658 80.502 44.2258C80.9351 43.7553 81.3682 43.2848 81.8145 42.8C82.3713 42.1774 82.9282 41.5548 83.502 40.9133C84.0588 40.2984 84.6157 39.6836 85.1895 39.05C86.794 37.1945 86.794 37.1945 86.502 34.2258Z" fill="#0F1513"/>
<path d="M76.002 100.288C78.949 101.393 79.8808 102.581 81.502 105.226C80.182 106.546 78.862 107.866 77.502 109.226C78.8109 112.348 78.8109 112.348 81.502 114.226C80.2981 116.719 79.0477 118.907 77.502 121.226C78.492 121.556 79.482 121.886 80.502 122.226C83.7388 125.147 85.5296 127.281 87.502 131.226C83.542 135.186 79.582 139.146 75.502 143.226C71.0077 139.525 66.8393 136.023 63.502 131.226C63.8106 127.769 65.2669 126.212 67.6895 123.851C69.3558 122.119 69.3558 122.119 70.502 120.226C70.0656 116.825 70.0656 116.825 68.502 114.226C70.152 113.566 71.802 112.906 73.502 112.226C72.193 109.104 72.193 109.104 69.502 107.226C69.902 104.906 70.4076 103.363 71.752 101.413C73.502 100.226 73.502 100.226 76.002 100.288Z" fill="#302D2C"/>
<path d="M73.502 19.2258C76.8333 20.6308 78.5953 22.2144 80.752 25.1008C81.2727 25.7789 81.7935 26.4569 82.3301 27.1555C83.502 29.2258 83.502 29.2258 83.502 33.2258C85.4205 35.958 85.4205 35.958 87.502 38.2258C84.532 41.6908 84.532 41.6908 81.502 45.2258C83.152 46.8758 84.802 48.5258 86.502 50.2258C85.842 51.5458 85.182 52.8658 84.502 54.2258C82.522 54.2258 80.542 54.2258 78.502 54.2258C78.502 54.8858 78.502 55.5458 78.502 56.2258C79.162 56.2258 79.822 56.2258 80.502 56.2258C80.502 56.8858 80.502 57.5458 80.502 58.2258C78.5405 59.6152 76.5403 60.9519 74.502 62.2258C72.852 60.9058 71.202 59.5858 69.502 58.2258C70.6537 55.7578 71.5498 54.178 73.502 52.2258C74.492 52.2258 75.482 52.2258 76.502 52.2258C75.6976 51.4833 74.8932 50.7408 74.0645 49.9758C71.7321 47.4728 70.8666 46.5077 70.502 43.2258C71.327 42.6071 72.152 41.9883 73.002 41.3508C73.827 40.6496 74.652 39.9483 75.502 39.2258C75.502 38.5658 75.502 37.9058 75.502 37.2258C73.8757 35.8435 72.2095 34.5065 70.502 33.2258C71.1147 30.2641 71.7557 28.8452 73.502 26.2258C72.182 27.5458 70.862 28.8658 69.502 30.2258C68.512 29.8958 67.522 29.5658 66.502 29.2258C68.1695 25.2844 70.7291 22.4365 73.502 19.2258Z" fill="#4DCCDC"/>
<path d="M68.502 85.2258C69.6157 86.2468 69.6157 86.2468 70.752 87.2883C73.2238 89.4581 73.2238 89.4581 75.5645 89.1008C77.5752 88.1928 79.5568 87.2679 81.502 86.2258C84.472 88.2058 84.472 88.2058 87.502 90.2258C89.482 88.5758 91.462 86.9258 93.502 85.2258C94.0588 85.9065 94.6157 86.5871 95.1895 87.2883C97.3354 89.531 97.3354 89.531 100.127 89.1008C102.646 88.3612 102.646 88.3612 104.502 86.2258C107.795 86.5445 109.367 87.771 111.502 90.2258C110.209 93.1102 108.843 95.098 106.502 97.2258C103.835 95.8925 101.169 94.5592 98.502 93.2258C96.522 94.5458 94.542 95.8658 92.502 97.2258C91.182 95.9058 89.862 94.5858 88.502 93.2258C85.5868 94.2998 83.7239 95.0039 81.502 97.2258C79.4395 96.9758 79.4395 96.9758 77.502 96.2258C77.172 95.5658 76.842 94.9058 76.502 94.2258C74.0083 95.4296 71.8205 96.6801 69.502 98.2258C67.852 96.5758 66.202 94.9258 64.502 93.2258C61.53 94.3503 59.1675 95.4488 56.502 97.2258C54.852 95.5758 53.202 93.9258 51.502 92.2258C52.5507 89.604 53.1513 88.4321 55.627 86.9758C56.2457 86.7283 56.8645 86.4808 57.502 86.2258C60.472 88.2058 60.472 88.2058 63.502 90.2258C65.152 88.5758 66.802 86.9258 68.502 85.2258Z" fill="#34C4D5"/>
<path d="M79.502 98.2258C81.482 99.8758 83.462 101.526 85.502 103.226C87.482 101.576 89.462 99.9258 91.502 98.2258C93.9395 99.0383 93.9395 99.0383 96.502 100.226C96.997 101.711 96.997 101.711 97.502 103.226C98.4095 102.38 99.317 101.535 100.252 100.663C103.191 98.235 103.191 98.235 105.627 98.1633C108.01 99.5135 109.673 101.201 111.502 103.226C111.172 104.216 110.842 105.206 110.502 106.226C109.924 105.545 109.347 104.865 108.752 104.163C106.736 101.986 106.736 101.986 104.439 102.288C102.32 103.314 101.04 104.457 99.502 106.226C97.0083 105.022 94.8205 103.772 92.502 102.226C91.9451 102.845 91.3882 103.463 90.8145 104.101C88.4355 106.287 86.5384 107.214 83.502 108.226C83.502 109.546 83.502 110.866 83.502 112.226C84.162 112.886 84.822 113.546 85.502 114.226C85.1132 117.239 84.2374 118.623 82.502 121.226C85.142 123.866 87.782 126.506 90.502 129.226C88.9314 132.367 87.9673 134.029 85.6816 136.46C85.1467 137.034 84.6117 137.607 84.0605 138.198C83.505 138.785 82.9494 139.372 82.377 139.976C81.8136 140.578 81.2503 141.18 80.6699 141.8C79.2847 143.279 77.8939 144.753 76.502 146.226C73.5697 144.905 71.5153 143.479 69.2676 141.187C68.6939 140.607 68.1203 140.027 67.5293 139.429C66.9428 138.826 66.3562 138.222 65.752 137.601C65.15 136.99 64.548 136.379 63.9277 135.749C62.4479 134.246 60.9743 132.736 59.502 131.226C60.8266 128.221 62.2077 126.416 64.6895 124.288C66.308 122.822 66.308 122.822 67.502 121.226C67.5429 118.412 67.5429 118.412 66.502 116.226C67.492 116.226 68.482 116.226 69.502 116.226C70.162 117.546 70.822 118.866 71.502 120.226C70.985 120.757 70.4681 121.288 69.9355 121.835C69.2768 122.542 68.6181 123.248 67.9395 123.976C67.2782 124.672 66.6169 125.368 65.9355 126.085C64.3223 128.065 64.3223 128.065 64.502 130.163C65.9101 133.068 67.8655 135.122 70.0645 137.476C70.8907 138.368 71.717 139.26 72.5684 140.179C73.5255 141.192 73.5255 141.192 74.502 142.226C78.6862 138.717 82.6978 135.145 86.502 131.226C84.9424 127.398 82.6656 124.862 79.502 122.226C77.2267 122.271 77.2267 122.271 75.502 123.226C77.029 119.79 79.1012 117.107 81.502 114.226C80.182 113.566 78.862 112.906 77.502 112.226C77.502 107.958 77.8781 107.287 80.502 104.226C79.512 102.906 78.522 101.586 77.502 100.226C78.162 99.5658 78.822 98.9058 79.502 98.2258Z" fill="#090807"/>
<path d="M97.502 80.2258C101.353 80.4914 103.669 82.7863 106.502 85.2258C106.502 84.5658 106.502 83.9058 106.502 83.2258C109.002 81.6008 109.002 81.6008 111.502 80.2258C113.18 81.6285 114.844 83.0485 116.502 84.4758C117.43 85.2647 118.358 86.0536 119.314 86.8665C121.502 89.2258 121.502 89.2258 121.502 93.2258C119.674 95.6204 119.674 95.6204 117.252 98.0383C116.463 98.8492 115.674 99.66 114.861 100.495C112.502 102.226 112.502 102.226 110.33 102.113C108.502 101.226 108.502 101.226 106.502 99.2258C103.144 99.5508 101.766 100.859 99.502 103.226C97.502 103.226 97.502 103.226 95.502 101.288C94.842 100.608 94.182 99.9271 93.502 99.2258C92.842 98.8958 92.182 98.5658 91.502 98.2258C93.0243 95.1811 95.6862 94.0231 98.502 92.2258C101.169 93.5592 103.835 94.8925 106.502 96.2258C107.822 94.9058 109.142 93.5858 110.502 92.2258C109.528 89.7101 109.04 88.4864 106.564 87.2883C105.884 87.2677 105.203 87.2471 104.502 87.2258C104.028 87.7208 103.553 88.2158 103.064 88.7258C102.549 89.2208 102.033 89.7158 101.502 90.2258C98.4912 90.0753 96.9813 89.639 94.6895 87.6633C94.2976 87.189 93.9057 86.7146 93.502 86.2258C94.6537 83.7578 95.5498 82.178 97.502 80.2258Z" fill="#15545C"/>
<path d="M62.502 92.2258C65.5216 93.4337 67.9557 95.2252 70.502 97.2258C71.822 95.9058 73.142 94.5858 74.502 93.2258C77.502 94.2258 77.502 94.2258 78.502 96.2258C81.8579 95.6266 83.88 94.3796 86.502 92.2258C88.4395 92.9133 88.4395 92.9133 90.502 94.2258C91.252 96.8508 91.252 96.8508 91.502 99.2258C89.522 100.876 87.542 102.526 85.502 104.226C83.522 102.576 81.542 100.926 79.502 99.2258C78.512 99.8858 77.522 100.546 76.502 101.226C75.842 101.329 75.182 101.432 74.502 101.538C71.5478 102.554 70.8806 104.537 69.502 107.226C70.822 107.886 72.142 108.546 73.502 109.226C73.502 110.216 73.502 111.206 73.502 112.226C71.752 113.613 71.752 113.613 69.502 114.913C68.3882 115.569 68.3882 115.569 67.252 116.238C66.6745 116.564 66.097 116.89 65.502 117.226C65.502 113.226 65.502 113.226 67.502 109.226C64.532 106.916 61.562 104.606 58.502 102.226C56.522 103.216 56.522 103.216 54.502 104.226C53.1686 104.892 51.8353 105.559 50.502 106.226C51.0307 102.172 53.0653 100.321 55.9395 97.5383C56.7425 96.7507 57.5456 95.9631 58.373 95.1516C60.502 93.2258 60.502 93.2258 62.502 92.2258Z" fill="#0E0D0A"/>
<path d="M65.502 55.2258C66.492 55.5558 67.482 55.8858 68.502 56.2258C67.9284 60.0972 66.0149 62.3076 63.502 65.2258C64.1207 65.4733 64.7395 65.7208 65.377 65.9758C67.8526 67.4321 68.4532 68.604 69.502 71.2258C68.6976 71.7827 67.8932 72.3396 67.0645 72.9133C64.2972 74.9361 64.2972 74.9361 64.0645 77.6633C63.1974 81.6131 60.6892 82.8523 57.502 85.2258C56.7595 84.5452 56.017 83.8646 55.252 83.1633C52.7727 81.0053 52.7727 81.0053 50.377 81.2883C48.3063 82.3236 47.015 83.4858 45.502 85.2258C43.0083 84.022 40.8205 82.7715 38.502 81.2258C35.202 84.1958 31.902 87.1658 28.502 90.2258C30.3812 93.9843 31.5267 95.3756 34.627 97.9758C35.3514 98.5894 36.0759 99.203 36.8223 99.8352C37.3766 100.294 37.9309 100.753 38.502 101.226C39.1001 100.916 39.6982 100.607 40.3145 100.288C42.502 99.2258 42.502 99.2258 45.502 98.2258C48.1895 99.9758 48.1895 99.9758 50.502 102.226C50.502 103.216 50.502 104.206 50.502 105.226C49.9038 104.896 49.3057 104.566 48.6895 104.226C46.4481 103.018 46.4481 103.018 43.502 103.226C41.814 104.663 41.814 104.663 40.502 106.226C37.6733 104.93 35.5319 103.534 33.2676 101.406C32.6939 100.871 32.1203 100.336 31.5293 99.7844C30.9428 99.2288 30.3562 98.6733 29.752 98.1008C29.15 97.5375 28.548 96.9742 27.9277 96.3938C26.4486 95.0086 24.9748 93.6178 23.502 92.2258C25.1138 88.0569 28.1639 85.376 31.377 82.4133C31.9068 81.8983 32.4366 81.3834 32.9824 80.8528C34.5566 79.3938 34.5566 79.3938 37.502 77.2258C39.7441 77.3352 39.7441 77.3352 41.502 78.2258C42.6157 78.7518 42.6157 78.7518 43.752 79.2883C44.3295 79.5977 44.907 79.9071 45.502 80.2258C47.152 78.9058 48.802 77.5858 50.502 76.2258C53.1686 77.5592 55.8353 78.8925 58.502 80.2258C59.1826 78.5243 59.1826 78.5243 59.877 76.7883C61.502 73.2258 61.502 73.2258 63.502 72.2258C63.0669 69.7025 62.7927 68.4942 60.877 66.7258C59.502 65.2258 59.502 65.2258 59.502 63.4133C60.978 60.1844 63.1489 57.8806 65.502 55.2258Z" fill="#131611"/>
<path d="M75.3574 11.1829C78.5772 12.7488 80.8168 15.2285 83.252 17.7883C83.7586 18.3085 84.2652 18.8286 84.7871 19.3645C86.0323 20.6449 87.2681 21.9345 88.502 23.2258C88.172 24.2158 87.842 25.2058 87.502 26.2258C86.842 26.2258 86.182 26.2258 85.502 26.2258C85.502 26.8858 85.502 27.5458 85.502 28.2258C81.9341 27.6698 80.5797 26.5398 78.377 23.7258C76.3031 21.0378 76.3031 21.0378 73.502 19.2258C73.2957 19.7827 73.0895 20.3396 72.877 20.9133C70.9519 24.1508 68.4634 25.9081 65.502 28.2258C63.502 26.8508 63.502 26.8508 61.502 25.2258C61.502 23.2258 61.502 23.2258 63.5645 21.0383C64.0182 20.6091 64.472 20.1798 64.9395 19.7375C66.0817 18.6324 67.1807 17.482 68.252 16.3079C68.8501 15.662 69.4482 15.0162 70.0645 14.3508C70.6226 13.7347 71.1808 13.1185 71.7559 12.4836C73.502 11.2258 73.502 11.2258 75.3574 11.1829Z" fill="#114B51"/>
<path d="M64.502 77.2258C67.0624 79.2173 69.4011 81.1127 71.5645 83.5383C72.2038 84.0952 72.8432 84.6521 73.502 85.2258C75.55 85.1308 75.55 85.1308 77.502 84.2258C81.2797 83.1147 81.2797 83.1147 83.502 84.2258C84.162 82.5758 84.822 80.9258 85.502 79.2258C86.822 79.8858 88.142 80.5458 89.502 81.2258C89.502 81.8858 89.502 82.5458 89.502 83.2258C90.492 83.5558 91.482 83.8858 92.502 84.2258C91.1086 87.593 89.523 89.2118 86.502 91.2258C84.852 89.9058 83.202 88.5858 81.502 87.2258C80.9245 87.5352 80.347 87.8446 79.752 88.1633C75.6615 90.095 75.6615 90.095 73.502 90.2258C70.752 88.2883 70.752 88.2883 68.502 86.2258C65.532 88.7008 65.532 88.7008 62.502 91.2258C60.852 89.9058 59.202 88.5858 57.502 87.2258C57.8454 84.0201 58.4727 83.2507 61.002 81.1008C61.827 80.4821 62.652 79.8633 63.502 79.2258C63.832 78.5658 64.162 77.9058 64.502 77.2258Z" fill="#125362"/>
<path d="M38.502 80.2258C40.152 81.5458 41.802 82.8658 43.502 84.2258C42.1686 86.8925 40.8353 89.5592 39.502 92.2258C41.152 94.2058 42.802 96.1858 44.502 98.2258C43.182 99.5458 41.862 100.866 40.502 102.226C36.4603 100.881 34.1152 99.1753 31.1895 96.1008C30.4921 95.3764 29.7947 94.6519 29.0762 93.9055C28.5567 93.3512 28.0372 92.7969 27.502 92.2258C29.0054 88.558 31.1392 86.5367 34.127 83.9758C35.3529 82.9162 35.3529 82.9162 36.6035 81.8352C37.23 81.3041 37.8565 80.773 38.502 80.2258Z" fill="#174A58"/>
<path d="M73.502 25.2258C74.162 25.5558 74.822 25.8858 75.502 26.2258C74.8213 26.8033 74.1407 27.3808 73.4395 27.9758C71.2562 29.9997 71.2562 29.9997 71.5645 32.3508C72.48 34.5695 72.48 34.5695 75.502 36.2258C76.162 35.8958 76.822 35.5658 77.502 35.2258C77.502 36.8758 77.502 38.5258 77.502 40.2258C76.8832 40.3496 76.2645 40.4733 75.627 40.6008C73.3107 41.0978 73.3107 41.0978 71.502 43.2258C71.5246 45.2381 71.5246 45.2381 72.502 47.2258C73.8111 48.2573 75.1428 49.2613 76.502 50.2258C76.502 50.8858 76.502 51.5458 76.502 52.2258C74.8512 53.2519 73.1823 54.2489 71.502 55.2258C69.7505 56.8083 69.7505 56.8083 68.502 58.2258C66.852 56.2458 65.202 54.2658 63.502 52.2258C64.8735 49.2717 66.4906 46.7857 68.502 44.2258C66.852 42.5758 65.202 40.9258 63.502 39.2258C65.9775 33.8938 69.746 29.6924 73.502 25.2258Z" fill="#2699A5"/>
<path d="M67.502 115.226C68.822 116.216 70.142 117.206 71.502 118.226C70.4243 121.655 69.4641 123.262 66.8145 125.788C65.6698 126.995 65.6698 126.995 64.502 128.226C64.6591 132.302 67.4016 134.625 70.0645 137.476C70.8907 138.368 71.717 139.26 72.5684 140.179C73.5255 141.192 73.5255 141.192 74.502 142.226C78.6862 138.717 82.6978 135.145 86.502 131.226C86.1926 130.628 85.8832 130.03 85.5645 129.413C84.502 127.226 84.502 127.226 83.502 124.226C86.3863 125.519 88.3741 126.885 90.502 129.226C89.2059 132.055 87.8101 134.196 85.6816 136.46C85.1467 137.034 84.6117 137.607 84.0605 138.198C83.505 138.785 82.9494 139.372 82.377 139.976C81.8136 140.578 81.2503 141.18 80.6699 141.8C79.2847 143.279 77.8939 144.753 76.502 146.226C73.5697 144.905 71.5153 143.479 69.2676 141.187C68.6939 140.607 68.1203 140.027 67.5293 139.429C66.9428 138.826 66.3562 138.222 65.752 137.601C65.15 136.99 64.548 136.379 63.9277 135.749C62.4479 134.246 60.9743 132.736 59.502 131.226C60.8266 128.221 62.2077 126.416 64.6895 124.288C66.3107 122.82 66.3107 122.82 67.502 121.226C67.4522 118.466 67.4522 118.466 66.502 116.226C66.832 115.896 67.162 115.566 67.502 115.226Z" fill="#060606"/>
<path d="M76.002 100.288C78.949 101.393 79.8808 102.581 81.502 105.226C80.182 106.546 78.862 107.866 77.502 109.226C78.8109 112.348 78.8109 112.348 81.502 114.226C80.0612 117.588 78.2545 119.817 75.502 122.226C74.842 122.226 74.182 122.226 73.502 122.226C68.502 116.75 68.502 116.75 68.502 114.226C70.152 113.566 71.802 112.906 73.502 112.226C72.193 109.104 72.193 109.104 69.502 107.226C69.902 104.906 70.4076 103.363 71.752 101.413C73.502 100.226 73.502 100.226 76.002 100.288Z" fill="#715745"/>
<path d="M92.502 85.2258C93.2238 85.9065 93.9457 86.5871 94.6895 87.2883C97.3026 89.5067 97.3026 89.5067 100.189 89.1008C102.651 88.3504 102.651 88.3504 104.502 86.2258C107.795 86.5445 109.367 87.771 111.502 90.2258C110.209 93.1102 108.843 95.098 106.502 97.2258C103.835 95.8925 101.169 94.5592 98.502 93.2258C95.532 95.2058 95.532 95.2058 92.502 97.2258C90.852 95.5758 89.202 93.9258 87.502 92.2258C88.795 89.3415 90.1614 87.3536 92.502 85.2258Z" fill="#46CCDD"/>
<path d="M86.502 92.2258C88.4395 92.9133 88.4395 92.9133 90.502 94.2258C91.252 96.8508 91.252 96.8508 91.502 99.2258C89.522 100.876 87.542 102.526 85.502 104.226C83.522 102.576 81.542 100.926 79.502 99.2258C78.512 99.8858 77.522 100.546 76.502 101.226C75.8626 101.35 75.2232 101.473 74.5645 101.601C71.7721 102.447 70.4282 104.093 68.502 106.226C69.3882 101.056 70.4225 96.749 74.502 93.2258C77.502 94.2258 77.502 94.2258 78.502 96.2258C81.8579 95.6266 83.88 94.3796 86.502 92.2258Z" fill="#16484D"/>
<path d="M79.502 47.2258C80.1001 47.5352 80.6982 47.8446 81.3145 48.1633C83.5915 49.3279 83.5915 49.3279 86.502 50.2258C85.842 51.5458 85.182 52.8658 84.502 54.2258C82.522 54.2258 80.542 54.2258 78.502 54.2258C78.502 54.8858 78.502 55.5458 78.502 56.2258C79.162 56.2258 79.822 56.2258 80.502 56.2258C80.502 56.8858 80.502 57.5458 80.502 58.2258C78.5405 59.6152 76.5403 60.9519 74.502 62.2258C72.852 60.9058 71.202 59.5858 69.502 58.2258C70.6537 55.7578 71.5498 54.178 73.502 52.2258C74.492 52.2258 75.482 52.2258 76.502 52.2258C76.8113 51.5865 77.1207 50.9471 77.4395 50.2883C78.502 48.2258 78.502 48.2258 79.502 47.2258Z" fill="#57D0DD"/>
<path d="M28.502 85.2258C28.502 86.2158 28.502 87.2058 28.502 88.2258C28.8011 91.5923 29.2427 92.9451 31.5684 95.4641C32.8039 96.4908 32.8039 96.4908 34.0645 97.5383C35.3039 98.5844 35.3039 98.5844 36.5684 99.6516C37.2064 100.171 37.8445 100.691 38.502 101.226C39.1001 100.916 39.6982 100.607 40.3145 100.288C42.502 99.2258 42.502 99.2258 45.502 98.2258C48.1895 99.9758 48.1895 99.9758 50.502 102.226C50.502 103.216 50.502 104.206 50.502 105.226C49.9038 104.896 49.3057 104.566 48.6895 104.226C46.4481 103.018 46.4481 103.018 43.502 103.226C41.814 104.663 41.814 104.663 40.502 106.226C37.6733 104.93 35.5319 103.534 33.2676 101.406C32.6939 100.871 32.1203 100.336 31.5293 99.7844C30.9428 99.2288 30.3562 98.6733 29.752 98.1008C29.15 97.5375 28.548 96.9742 27.9277 96.3938C26.4486 95.0086 24.9748 93.6178 23.502 92.2258C24.8613 89.3652 26.1472 87.3666 28.502 85.2258Z" fill="#15130D"/>
<path d="M79.502 106.226C82.7764 109.203 85.0815 112.741 85.502 117.226C84.0645 119.476 84.0645 119.476 82.502 121.226C83.492 122.711 83.492 122.711 84.502 124.226C83.842 124.886 83.182 125.546 82.502 126.226C81.512 124.906 80.522 123.586 79.502 122.226C78.182 122.556 76.862 122.886 75.502 123.226C77.029 119.79 79.1012 117.107 81.502 114.226C80.182 113.566 78.862 112.906 77.502 112.226C77.502 108.226 77.502 108.226 79.502 106.226Z" fill="#1B1610"/>
<path d="M52.502 76.2258C50.9469 80.0427 48.466 82.4178 45.502 85.2258C43.0083 84.022 40.8205 82.7715 38.502 81.2258C35.202 84.1958 31.902 87.1658 28.502 90.2258C28.502 86.4871 29.4068 85.8603 31.877 83.1633C32.5034 82.4711 33.1299 81.7789 33.7754 81.0657C34.9959 79.7651 36.2407 78.487 37.502 77.2258C40.4648 77.6209 42.8852 78.824 45.502 80.2258C46.2857 79.5658 47.0695 78.9058 47.877 78.2258C50.502 76.2258 50.502 76.2258 52.502 76.2258Z" fill="#090B0A"/>
<path d="M62.502 92.2258C66.2972 93.7168 68.1124 95.9828 70.502 99.2258C68.522 100.876 66.542 102.526 64.502 104.226C62.192 101.916 59.882 99.6058 57.502 97.2258C59.152 95.5758 60.802 93.9258 62.502 92.2258Z" fill="#14545F"/>
<path d="M42.502 86.2258C46.291 86.4784 48.0438 88.5043 50.502 91.2258C48.852 93.2058 47.202 95.1858 45.502 97.2258C42.6176 95.9328 40.6298 94.5664 38.502 92.2258C39.6537 89.7578 40.5498 88.178 42.502 86.2258Z" fill="#3CCCDB"/>
<path d="M79.502 86.2258C82.8679 87.6684 85.0124 89.5585 87.502 92.2258C82.1562 97.2071 82.1562 97.2071 79.3145 97.2883C77.0106 95.9378 75.8801 94.4998 74.502 92.2258C74.502 91.5658 74.502 90.9058 74.502 90.2258C76.1282 88.8435 77.7945 87.5065 79.502 86.2258Z" fill="#32BCCA"/>
<path d="M118.502 83.2258C119.68 84.1276 120.844 85.0478 122.002 85.9758C122.652 86.4863 123.301 86.9968 123.971 87.5227C125.502 89.2258 125.502 89.2258 125.502 93.2258C123.385 95.804 123.385 95.804 120.627 98.4758C119.722 99.3679 118.817 100.26 117.885 101.179C115.502 103.226 115.502 103.226 113.502 103.226C113.502 103.886 113.502 104.546 113.502 105.226C112.842 105.226 112.182 105.226 111.502 105.226C111.172 104.236 110.842 103.246 110.502 102.226C111.316 101.52 111.316 101.52 112.146 100.8C112.862 100.177 113.577 99.5548 114.314 98.9133C115.376 97.991 115.376 97.991 116.459 97.05C118.203 95.4925 119.87 93.8992 121.502 92.2258C121.193 91.669 120.883 91.1121 120.564 90.5383C119.444 88.1004 118.942 85.8636 118.502 83.2258Z" fill="#1A160F"/>
<path d="M97.502 80.2258C100.785 80.339 101.805 81.5087 104.252 83.7883C105.366 84.9949 105.366 84.9949 106.502 86.2258C102.241 90.2434 102.241 90.2434 98.877 90.1633C96.4133 89.1908 95.1746 88.2507 93.502 86.2258C94.6537 83.7578 95.5498 82.178 97.502 80.2258Z" fill="#116C7A"/>
<path d="M73.502 25.2258C74.162 25.5558 74.822 25.8858 75.502 26.2258C74.8213 26.7621 74.1407 27.2983 73.4395 27.8508C71.1424 30.1055 71.1424 30.1055 71.752 33.2258C71.9995 34.2158 72.247 35.2058 72.502 36.2258C72.502 37.5458 72.502 38.8658 72.502 40.2258C71.842 40.8858 71.182 41.5458 70.502 42.2258C68.002 42.1008 68.002 42.1008 65.502 41.2258C64.1895 39.1633 64.1895 39.1633 63.502 37.2258C66.8353 33.2258 70.1686 29.2258 73.502 25.2258Z" fill="#32ADBC"/>
<path d="M73.502 19.2258C76.9539 20.6516 78.6034 22.3233 80.752 25.3508C81.2727 26.0753 81.7935 26.7997 82.3301 27.5461C82.9102 28.3776 82.9102 28.3776 83.502 29.2258C80.627 29.4133 80.627 29.4133 77.502 29.2258C76.842 28.2358 76.182 27.2458 75.502 26.2258C74.9245 26.5146 74.347 26.8033 73.752 27.1008C70.627 28.6633 70.627 28.6633 67.502 30.2258C67.502 25.8579 67.7296 25.4792 70.502 22.4758C71.0588 21.8622 71.6157 21.2486 72.1895 20.6165C72.8391 19.9281 72.8391 19.9281 73.502 19.2258Z" fill="#3EC5D5"/>
<path d="M51.627 80.1008C54.2478 81.6733 55.735 83.7647 57.502 86.2258C53.1383 90.2258 53.1383 90.2258 50.502 90.2258C47.8521 88.9009 45.7405 87.1534 43.502 85.2258C48.8251 80.2656 48.8251 80.2656 51.627 80.1008Z" fill="#0F5E6A"/>
<path d="M85.502 79.2258C86.822 79.8858 88.142 80.5458 89.502 81.2258C89.502 81.8858 89.502 82.5458 89.502 83.2258C90.492 83.5558 91.482 83.8858 92.502 84.2258C91.1086 87.593 89.523 89.2118 86.502 91.2258C84.852 89.5758 83.202 87.9258 81.502 86.2258C82.822 83.9158 84.142 81.6058 85.502 79.2258Z" fill="#10575E"/>
<path d="M74.502 123.226C76.482 124.876 78.462 126.526 80.502 128.226C79.1086 131.593 77.523 133.212 74.502 135.226C72.4395 133.538 72.4395 133.538 70.502 131.226C70.5769 128.155 71.0585 126.74 73.0645 124.413C73.5388 124.021 74.0132 123.63 74.502 123.226Z" fill="#9E805D"/>
<path d="M78.502 54.2258C80.152 54.2258 81.802 54.2258 83.502 54.2258C83.2545 54.7621 83.007 55.2983 82.752 55.8508C82.3664 59.5134 84.3701 61.3834 86.502 64.2258C85.182 65.5458 83.862 66.8658 82.502 68.2258C79.8801 67.1771 78.7082 66.5765 77.252 64.1008C77.0045 63.4821 76.757 62.8633 76.502 62.2258C76.9763 61.7927 77.4507 61.3596 77.9395 60.9133C79.7388 59.2027 79.7388 59.2027 80.502 56.2258C79.842 56.2258 79.182 56.2258 78.502 56.2258C78.502 55.5658 78.502 54.9058 78.502 54.2258Z" fill="#41C6D6"/>
<path d="M55.502 86.2258C60.377 87.9758 60.377 87.9758 61.502 90.2258C60.3849 93.9494 59.829 95.0078 56.502 97.2258C54.852 95.5758 53.202 93.9258 51.502 92.2258C52.6537 89.7578 53.5498 88.178 55.502 86.2258Z" fill="#4BCDE0"/>
<path d="M63.502 27.2258C66.6631 28.5957 67.4947 29.2149 69.502 32.2258C68.2954 33.3396 68.2954 33.3396 67.0645 34.4758C64.7321 36.9789 63.8666 37.9439 63.502 41.2258C62.512 41.2258 61.522 41.2258 60.502 41.2258C59.752 38.9758 59.752 38.9758 59.502 36.2258C60.814 34.8715 62.1483 33.5385 63.502 32.2258C63.8369 29.5575 63.8369 29.5575 63.502 27.2258Z" fill="#1A1A14"/>
<path d="M74.502 39.2258C77.502 40.2258 77.502 40.2258 79.502 43.2258C79.1431 46.1866 78.6554 47.0724 76.502 49.2258C73.5674 48.859 72.6376 48.3615 70.502 46.2258C70.8206 42.933 72.0471 41.3605 74.502 39.2258Z" fill="#5DD0DC"/>
<path d="M73.502 100.226C75.9395 100.351 75.9395 100.351 78.502 101.226C80.3145 103.288 80.3145 103.288 81.502 105.226C80.002 106.851 80.002 106.851 77.502 108.226C74.6703 107.885 72.2421 107.094 69.502 106.226C70.6537 103.758 71.5498 102.178 73.502 100.226Z" fill="#AD7E61"/>
<path d="M74.502 93.2258C75.492 93.5558 76.482 93.8858 77.502 94.2258C78.6895 96.7883 78.6895 96.7883 79.502 99.2258C76.502 101.226 76.502 101.226 74.5645 101.601C71.7721 102.447 70.4282 104.093 68.502 106.226C69.3882 101.056 70.4225 96.749 74.502 93.2258Z" fill="#212A27"/>
<path d="M110.502 76.2258C111.637 77.109 112.76 78.008 113.877 78.9133C114.503 79.4122 115.13 79.9111 115.775 80.425C117.502 82.2258 117.502 82.2258 119.502 87.2258C116.532 85.2458 113.562 83.2658 110.502 81.2258C108.522 82.2158 108.522 82.2158 106.502 83.2258C106.502 83.8858 106.502 84.5458 106.502 85.2258C105.182 84.5658 103.862 83.9058 102.502 83.2258C103.881 80.4687 105.877 79.7626 108.502 78.2258C109.162 77.5658 109.822 76.9058 110.502 76.2258Z" fill="#08090A"/>
<path d="M72.502 10.2258C73.162 10.5558 73.822 10.8858 74.502 11.2258C73.5622 12.1482 73.5622 12.1482 72.6035 13.0891C71.7862 13.8974 70.969 14.7056 70.127 15.5383C69.3148 16.3388 68.5027 17.1393 67.666 17.9641C65.3759 20.2259 65.3759 20.2259 63.502 23.2258C62.842 23.2258 62.182 23.2258 61.502 23.2258C62.492 24.7108 62.492 24.7108 63.502 26.2258C63.172 27.2158 62.842 28.2058 62.502 29.2258C61.182 27.9058 59.862 26.5858 58.502 25.2258C59.9678 21.803 61.8826 19.661 64.5645 17.1008C67.4177 14.4468 67.4177 14.4468 69.502 11.2258C70.492 10.8958 71.482 10.5658 72.502 10.2258Z" fill="#070605"/>
<path d="M68.502 82.2258C69.2445 82.7415 69.987 83.2571 70.752 83.7883C73.2954 85.4485 73.2954 85.4485 75.5645 84.9758C76.2038 84.7283 76.8432 84.4808 77.502 84.2258C79.502 83.7258 79.502 83.7258 81.502 83.2258C81.832 84.2158 82.162 85.2058 82.502 86.2258C76.382 90.1358 76.382 90.1358 73.502 90.2258C70.752 88.2883 70.752 88.2883 68.502 86.2258C67.017 87.2158 67.017 87.2158 65.502 88.2258C66.502 86.2258 67.502 84.2258 68.502 82.2258Z" fill="#14454C"/>
<path d="M74.502 65.2258C76.152 66.5458 77.802 67.8658 79.502 69.2258C79.252 71.1008 79.252 71.1008 78.502 73.2258C76.4395 74.4758 76.4395 74.4758 74.502 75.2258C73.182 73.9058 71.862 72.5858 70.502 71.2258C71.6537 68.7578 72.5498 67.178 74.502 65.2258Z" fill="#63D4DD"/>
<path d="M80.502 71.2258C82.152 72.2158 83.802 73.2058 85.502 74.2258C84.8892 77.1876 84.2482 78.6064 82.502 81.2258C79.8801 80.1771 78.7082 79.5765 77.252 77.1008C77.0045 76.4821 76.757 75.8633 76.502 75.2258C77.822 73.9058 79.142 72.5858 80.502 71.2258Z" fill="#4EC8D0"/>
<path d="M69.502 58.2258C71.482 59.2158 73.462 60.2058 75.502 61.2258C76.492 60.2358 77.482 59.2458 78.502 58.2258C79.162 58.5558 79.822 58.8858 80.502 59.2258C79.017 60.7108 79.017 60.7108 77.502 62.2258C78.7058 64.7194 79.9562 66.9073 81.502 69.2258C80.627 71.9133 80.627 71.9133 79.502 74.2258C78.842 73.8958 78.182 73.5658 77.502 73.2258C77.832 71.9058 78.162 70.5858 78.502 69.2258C75.4461 66.6381 75.4461 66.6381 71.502 66.2258C71.832 65.2358 72.162 64.2458 72.502 63.2258C71.7595 62.5452 71.7595 62.5452 71.002 61.8508C69.502 60.2258 69.502 60.2258 69.502 58.2258Z" fill="#2095A4"/>
<path d="M80.502 33.2258C82.4395 33.3508 82.4395 33.3508 84.502 34.2258C86.252 36.2883 86.252 36.2883 87.502 38.2258C86.182 39.5458 84.862 40.8658 83.502 42.2258C81.027 41.2358 81.027 41.2358 78.502 40.2258C78.377 37.8508 78.377 37.8508 78.502 35.2258C79.162 34.5658 79.822 33.9058 80.502 33.2258Z" fill="#4EC4D1"/>
<path d="M73.502 78.2258C76.4365 78.5926 77.3663 79.0902 79.502 81.2258C79.502 82.2158 79.502 83.2058 79.502 84.2258C76.502 86.2258 76.502 86.2258 74.4395 85.9133C72.502 85.2258 72.502 85.2258 70.502 84.2258C71.0754 81.3586 71.3634 80.3644 73.502 78.2258Z" fill="#50D4E4"/>
<path d="M68.502 71.2258C70.152 72.5458 71.802 73.8658 73.502 75.2258C72.1321 78.387 71.5129 79.2185 68.502 81.2258C66.852 79.9058 65.202 78.5858 63.502 77.2258C64.635 73.8267 65.6271 73.1733 68.502 71.2258Z" fill="#37BECF"/>
<path d="M80.502 31.2258C81.162 31.8858 81.822 32.5458 82.502 33.2258C81.512 33.8858 80.522 34.5458 79.502 35.2258C80.0492 38.6005 80.5569 40.3082 82.502 43.2258C82.502 44.2158 82.502 45.2058 82.502 46.2258C83.492 47.7108 83.492 47.7108 84.502 49.2258C81.502 49.2258 78.502 49.2258 75.502 49.2258C76.0176 48.8133 76.5332 48.4008 77.0645 47.9758C77.5388 47.3983 78.0132 46.8208 78.502 46.2258C78.3072 44.2758 78.3072 44.2758 77.502 42.2258C76.454 38.8199 76.2487 37.7324 77.877 34.4758C79.502 32.2258 79.502 32.2258 80.502 31.2258Z" fill="#3EB6C2"/>
<path d="M79.502 47.2258C80.1001 47.5352 80.6982 47.8446 81.3145 48.1633C83.5915 49.3279 83.5915 49.3279 86.502 50.2258C85.842 51.5458 85.182 52.8658 84.502 54.2258C81.862 54.2258 79.222 54.2258 76.502 54.2258C77.252 49.4758 77.252 49.4758 79.502 47.2258Z" fill="#4ABDCC"/>
<path d="M73.502 7.22583C77.1258 7.58822 78.8079 9.2033 81.252 11.7883C81.8655 12.429 82.4791 13.0697 83.1113 13.7297C83.5702 14.2234 84.0291 14.7172 84.502 15.2258C82.6895 15.8743 82.6895 15.8743 80.502 16.2258C78.4608 14.6099 76.4612 12.9402 74.502 11.2258C72.2846 10.373 72.2846 10.373 70.502 10.2258C71.752 8.66333 71.752 8.66333 73.502 7.22583Z" fill="#241D10"/>
<path d="M62.502 135.226C65.954 136.703 68.1516 138.664 70.752 141.351C71.4584 142.075 72.1648 142.8 72.8926 143.546C73.6892 144.378 73.6892 144.378 74.502 145.226C73.842 145.886 73.182 146.546 72.502 147.226C71.1627 146.108 69.8307 144.981 68.502 143.851C67.3882 142.911 67.3882 142.911 66.252 141.952C65.3857 141.098 65.3857 141.098 64.502 140.226C64.502 139.566 64.502 138.906 64.502 138.226C63.842 138.226 63.182 138.226 62.502 138.226C62.502 137.236 62.502 136.246 62.502 135.226Z" fill="#DB9933"/>
<path d="M28.502 85.2258C28.502 86.2158 28.502 87.2058 28.502 88.2258C28.9941 92.0643 29.9917 94.279 32.502 97.2258C31.512 97.5558 30.522 97.8858 29.502 98.2258C27.522 96.2458 25.542 94.2658 23.502 92.2258C24.795 89.3415 26.1614 87.3536 28.502 85.2258Z" fill="#221E14"/>
<path d="M83.502 124.226C86.3863 125.519 88.3741 126.885 90.502 129.226C89.209 132.11 87.8425 134.098 85.502 136.226C84.512 135.896 83.522 135.566 82.502 135.226C83.822 133.906 85.142 132.586 86.502 131.226C86.1926 130.628 85.8832 130.03 85.5645 129.413C84.502 127.226 84.502 127.226 83.502 124.226Z" fill="#040302"/>
<path d="M81.502 136.226C82.492 136.556 83.482 136.886 84.502 137.226C83.3809 138.542 82.255 139.853 81.127 141.163C80.5005 141.894 79.874 142.625 79.2285 143.378C77.502 145.226 77.502 145.226 75.502 146.226C75.9162 141.393 77.9661 139.399 81.502 136.226Z" fill="#191208"/>
<path d="M90.502 74.2258C91.162 74.2258 91.822 74.2258 92.502 74.2258C92.832 74.8858 93.162 75.5458 93.502 76.2258C94.492 75.5658 95.482 74.9058 96.502 74.2258C96.502 78.2258 96.502 78.2258 95.127 79.9758C93.502 81.2258 93.502 81.2258 91.502 81.2258C90.4395 78.8508 90.4395 78.8508 89.502 76.2258C89.832 75.5658 90.162 74.9058 90.502 74.2258Z" fill="#EDC24F"/>
<path d="M86.502 34.2258C87.822 34.8858 89.142 35.5458 90.502 36.2258C90.502 40.2258 90.502 40.2258 89.127 41.9758C87.502 43.2258 87.502 43.2258 85.502 43.2258C85.832 40.2558 86.162 37.2858 86.502 34.2258Z" fill="#201B11"/>
<path d="M85.502 26.2258C86.162 26.5558 86.822 26.8858 87.502 27.2258C87.3163 28.0096 87.1307 28.7933 86.9395 29.6008C86.2423 32.1967 86.2423 32.1967 87.502 34.2258C86.842 34.8858 86.182 35.5458 85.502 36.2258C84.182 34.9058 82.862 33.5858 81.502 32.2258C82.162 30.9058 82.822 29.5858 83.502 28.2258C84.162 28.2258 84.822 28.2258 85.502 28.2258C85.502 27.5658 85.502 26.9058 85.502 26.2258Z" fill="#0D110F"/>
<path d="M108.502 89.2258C109.492 89.5558 110.482 89.8858 111.502 90.2258C110.209 93.1102 108.843 95.098 106.502 97.2258C105.182 96.5658 103.862 95.9058 102.502 95.2258C102.502 94.5658 102.502 93.9058 102.502 93.2258C103.822 93.5558 105.142 93.8858 106.502 94.2258C107.162 92.5758 107.822 90.9258 108.502 89.2258Z" fill="#4DD0E0"/>
<path d="M97.502 76.2258C100.388 76.6239 101.324 77.0159 103.252 79.2883C103.871 80.2474 103.871 80.2474 104.502 81.2258C100.502 81.2258 100.502 81.2258 97.502 79.2258C95.522 80.2158 95.522 80.2158 93.502 81.2258C94.822 79.5758 96.142 77.9258 97.502 76.2258Z" fill="#1E1D15"/>
<path d="M74.502 39.2258C77.1672 41.8911 76.502 43.6317 76.502 47.2258C73.532 46.7308 73.532 46.7308 70.502 46.2258C71.0657 42.9563 72.0016 41.4001 74.502 39.2258Z" fill="#6AD7E3"/>
<path d="M87.502 50.2258C88.162 50.5558 88.822 50.8858 89.502 51.2258C88.2981 53.7194 87.0477 55.9073 85.502 58.2258C84.182 58.2258 82.862 58.2258 81.502 58.2258C82.5507 55.604 83.1513 54.4321 85.627 52.9758C86.2457 52.7283 86.8645 52.4808 87.502 52.2258C87.502 51.5658 87.502 50.9058 87.502 50.2258Z" fill="#0C0C0C"/>
<path d="M65.502 48.2258C67.502 50.2258 67.502 50.2258 68.502 53.2258C69.492 53.8858 70.482 54.5458 71.502 55.2258C70.512 56.2158 69.522 57.2058 68.502 58.2258C66.852 56.2458 65.202 54.2658 63.502 52.2258C64.162 50.9058 64.822 49.5858 65.502 48.2258Z" fill="#2193A2"/>
<path d="M87.502 28.2258C88.492 28.5558 89.482 28.8858 90.502 29.2258C90.6463 30.1746 90.7907 31.1233 90.9395 32.1008C91.3313 35.1193 91.3313 35.1193 92.502 37.2258C89.6176 35.9328 87.6298 34.5664 85.502 32.2258C86.162 30.9058 86.822 29.5858 87.502 28.2258Z" fill="#ECBF3F"/>
<path d="M64.502 21.2258C65.162 21.8858 65.822 22.5458 66.502 23.2258C67.492 23.5558 68.482 23.8858 69.502 24.2258C68.182 25.5458 66.862 26.8658 65.502 28.2258C63.502 26.8508 63.502 26.8508 61.502 25.2258C61.502 24.5658 61.502 23.9058 61.502 23.2258C62.492 22.5658 63.482 21.9058 64.502 21.2258Z" fill="#0F505C"/>
<path d="M61.502 48.2258C64.5152 49.7325 65.1125 52.2575 66.502 55.2258C62.502 55.2258 62.502 55.2258 60.752 53.7258C60.3395 53.2308 59.927 52.7358 59.502 52.2258C60.162 50.9058 60.822 49.5858 61.502 48.2258Z" fill="#050405"/>
<path d="M77.502 119.226C78.822 119.226 80.142 119.226 81.502 119.226C83.252 121.726 83.252 121.726 84.502 124.226C83.842 124.886 83.182 125.546 82.502 126.226C81.512 124.906 80.522 123.586 79.502 122.226C78.182 122.556 76.862 122.886 75.502 123.226C76.162 121.906 76.822 120.586 77.502 119.226Z" fill="#0F0E0C"/>
<path d="M74.502 95.2258C76.977 96.2158 76.977 96.2158 79.502 97.2258C78.842 98.5458 78.182 99.8658 77.502 101.226C75.027 100.236 75.027 100.236 72.502 99.2258C73.162 97.9058 73.822 96.5858 74.502 95.2258Z" fill="#2D3731"/>
<path d="M80.502 31.2258C81.162 31.8858 81.822 32.5458 82.502 33.2258C81.512 33.8858 80.522 34.5458 79.502 35.2258C79.832 37.8658 80.162 40.5058 80.502 43.2258C79.512 42.8958 78.522 42.5658 77.502 42.2258C76.4577 38.9029 76.2858 37.6582 77.877 34.4758C79.502 32.2258 79.502 32.2258 80.502 31.2258Z" fill="#39ADB9"/>
<path d="M78.502 54.2258C80.152 54.2258 81.802 54.2258 83.502 54.2258C83.337 54.824 83.172 55.4221 83.002 56.0383C82.3905 58.3393 82.3905 58.3393 82.502 61.2258C80.852 61.5558 79.202 61.8858 77.502 62.2258C78.492 60.2458 79.482 58.2658 80.502 56.2258C79.842 56.2258 79.182 56.2258 78.502 56.2258C78.502 55.5658 78.502 54.9058 78.502 54.2258Z" fill="#3CB4C0"/>
<path d="M78.502 35.2258C80.977 35.7208 80.977 35.7208 83.502 36.2258C83.502 39.2258 83.502 39.2258 81.502 42.2258C80.002 40.9758 80.002 40.9758 78.502 39.2258C78.502 37.9058 78.502 36.5858 78.502 35.2258Z" fill="#5ED3DF"/>
<path d="M83.502 68.2258C84.162 68.2258 84.822 68.2258 85.502 68.2258C87.3597 71.3608 87.7034 73.6005 87.502 77.2258C84.9395 74.9758 84.9395 74.9758 82.502 72.2258C82.6895 69.9133 82.6895 69.9133 83.502 68.2258Z" fill="#080608"/>
<path d="M68.502 137.226C70.812 139.206 73.122 141.186 75.502 143.226C75.172 144.216 74.842 145.206 74.502 146.226C72.192 143.916 69.882 141.606 67.502 139.226C67.832 138.566 68.162 137.906 68.502 137.226Z" fill="#010103"/>
<path d="M68.502 71.2258C69.492 72.5458 70.482 73.8658 71.502 75.2258C68.596 76.4825 66.7059 77.2258 63.502 77.2258C64.635 73.8267 65.6271 73.1733 68.502 71.2258Z" fill="#30ADC1"/>
<path d="M89.502 131.226C90.162 131.556 90.822 131.886 91.502 132.226C90.5508 133.398 89.5908 134.564 88.627 135.726C88.0933 136.376 87.5596 137.025 87.0098 137.695C86.5122 138.2 86.0146 138.705 85.502 139.226C84.842 139.226 84.182 139.226 83.502 139.226C84.9445 135.86 86.8346 133.715 89.502 131.226Z" fill="#DC9D33"/>
<path d="M79.502 73.2258C79.6257 73.8033 79.7495 74.3808 79.877 74.9758C80.5084 77.2492 81.3905 79.1512 82.502 81.2258C79.8801 80.1771 78.7082 79.5765 77.252 77.1008C77.0045 76.4821 76.757 75.8633 76.502 75.2258C77.492 74.5658 78.482 73.9058 79.502 73.2258Z" fill="#44C9D7"/>
<path d="M79.502 47.2258C80.492 48.2158 81.482 49.2058 82.502 50.2258C81.512 51.2158 80.522 52.2058 79.502 53.2258C78.512 52.8958 77.522 52.5658 76.502 52.2258C78.377 48.3508 78.377 48.3508 79.502 47.2258Z" fill="#5FD3DC"/>
<path d="M44.502 101.226C46.152 102.876 47.802 104.526 49.502 106.226C46.532 106.226 43.562 106.226 40.502 106.226C41.822 104.576 43.142 102.926 44.502 101.226Z" fill="#F8CE4A"/>
<path d="M75.502 25.2258C77.8145 24.9758 77.8145 24.9758 80.502 25.2258C82.3145 27.2258 82.3145 27.2258 83.502 29.2258C81.522 29.2258 79.542 29.2258 77.502 29.2258C76.842 27.9058 76.182 26.5858 75.502 25.2258Z" fill="#3FBACB"/>
<path d="M76.502 101.226C78.482 102.216 78.482 102.216 80.502 103.226C80.502 104.216 80.502 105.206 80.502 106.226C79.017 107.216 79.017 107.216 77.502 108.226C76.502 103.476 76.502 103.476 76.502 101.226Z" fill="#916851"/>
<path d="M82.502 58.2258C84.877 58.5383 84.877 58.5383 87.502 59.2258C88.162 60.2158 88.822 61.2058 89.502 62.2258C88.182 62.5558 86.862 62.8858 85.502 63.2258C84.512 61.5758 83.522 59.9258 82.502 58.2258Z" fill="#171C1A"/>
<path d="M70.502 130.226C72.482 130.226 74.462 130.226 76.502 130.226C76.172 131.876 75.842 133.526 75.502 135.226C73.852 133.576 72.202 131.926 70.502 130.226Z" fill="#947A5B"/>
<path d="M82.502 61.2258C82.1895 63.1633 82.1895 63.1633 81.502 65.2258C80.512 65.5558 79.522 65.8858 78.502 66.2258C77.842 64.9058 77.182 63.5858 76.502 62.2258C78.5775 61.6724 80.3456 61.2258 82.502 61.2258Z" fill="#51D3DC"/>
<path d="M64.502 30.2258C63.1086 33.593 61.523 35.2118 58.502 37.2258C58.502 34.2258 58.502 34.2258 60.377 32.0383C62.502 30.2258 62.502 30.2258 64.502 30.2258Z" fill="#F5CD4D"/>
<path d="M57.502 23.2258C60.002 25.5383 60.002 25.5383 62.502 28.2258C62.502 29.2158 62.502 30.2058 62.502 31.2258C60.002 30.0383 60.002 30.0383 57.502 28.2258C57.1895 25.5383 57.1895 25.5383 57.502 23.2258Z" fill="#DFB646"/>
<path d="M73.502 100.226C74.492 100.556 75.482 100.886 76.502 101.226C74.6895 103.726 74.6895 103.726 72.502 106.226C71.512 106.226 70.522 106.226 69.502 106.226C70.6537 103.758 71.5498 102.178 73.502 100.226Z" fill="#966B50"/>
<path d="M91.502 98.2258C92.162 98.5558 92.822 98.8858 93.502 99.2258C91.6978 102.49 90.668 104.115 87.502 106.226C88.1012 102.87 89.3482 100.848 91.502 98.2258Z" fill="#17140A"/>
</svg>
