<svg width="153" height="153" viewBox="0 0 153 153" fill="none" xmlns="http://www.w3.org/2000/svg">
<path d="M121.104 14.99C123.555 16.8963 125.865 18.8789 128.155 20.9744C128.849 21.5764 129.542 22.1784 130.257 22.7986C143.288 34.7986 151.552 53.3587 152.405 70.9666C152.971 92.6796 146.955 111.364 132.05 127.381C124.317 135.394 124.317 135.393 119.155 137.974C118.825 124.444 118.495 110.914 118.155 96.9744C118.176 100.522 118.196 104.069 118.217 107.724C118.249 118.837 117.842 129.885 117.155 140.974C114.768 141.929 112.381 142.883 109.991 143.83C108.236 144.538 106.49 145.266 104.757 146.025C87.4288 153.48 68.8869 154.52 51.155 147.974C46.3456 145.877 41.7849 143.456 37.155 140.974C37.155 132.394 37.155 123.814 37.155 114.974C40.785 114.974 44.415 114.974 48.155 114.974C48.155 119.264 48.155 123.554 48.155 127.974C52.775 127.974 57.395 127.974 62.155 127.974C62.155 123.024 62.155 118.074 62.155 112.974C71.725 112.974 81.295 112.974 91.155 112.974C91.155 117.594 91.155 122.214 91.155 126.974C95.775 126.974 100.395 126.974 105.155 126.974C104.825 126.314 104.495 125.654 104.155 124.974C100.855 124.974 97.555 124.974 94.155 124.974C93.5562 120.177 93.2944 115.749 94.155 110.974C96.4084 108.468 98.6155 107.13 101.542 105.478C107.464 102.07 111.244 96.4936 113.155 89.9744C113.632 86.3312 113.755 82.7077 113.842 79.0369C113.877 78.0669 113.911 77.0968 113.946 76.0974C114.028 73.7232 114.097 71.3493 114.155 68.9744C113.495 68.9744 112.835 68.9744 112.155 68.9744C112.207 70.5329 112.207 70.5329 112.26 72.1228C112.499 82.1252 112.629 91.0785 106.03 99.2244C97.5905 107.982 88.3232 112.002 76.2175 112.412C64.8219 112.128 54.8481 107.667 46.78 99.5994C41.784 91.529 41.7126 84.2465 41.7566 74.9549C41.7545 73.6058 41.7516 72.2568 41.7479 70.9078C41.7435 68.0963 41.7498 65.2851 41.7639 62.4737C41.7811 58.871 41.7711 55.2691 41.7532 51.6665C41.7423 48.8878 41.7458 46.1093 41.7535 43.3306C41.7565 41.3569 41.7474 39.3832 41.7382 37.4095C41.7476 36.2143 41.7571 35.0191 41.7668 33.7876C41.7692 32.7348 41.7716 31.6819 41.774 30.5971C42.155 27.9744 42.155 27.9744 43.3072 26.1373C45.9527 24.4723 47.9924 24.5788 51.1076 24.5545C52.945 24.5306 52.945 24.5306 54.8195 24.5062C56.1579 24.505 57.4963 24.5048 58.8347 24.5056C60.2085 24.4985 61.5823 24.4908 62.956 24.4826C65.8361 24.4691 68.7158 24.4676 71.5959 24.4734C75.2806 24.4793 78.964 24.4487 82.6484 24.4083C85.4864 24.3824 88.324 24.3795 91.1621 24.3832C92.5201 24.3815 93.8781 24.3719 95.2359 24.354C107.186 24.2145 107.186 24.2145 110.482 27.3169C113.449 32.0298 112.974 36.4905 113.155 41.9744C119.755 41.9744 126.355 41.9744 133.155 41.9744C133.485 47.9144 133.815 53.8544 134.155 59.9744C134.485 53.3744 134.815 46.7744 135.155 39.9744C128.225 39.9744 121.295 39.9744 114.155 39.9744C114.057 37.0121 113.96 34.0499 113.862 31.0877C113.162 28.0069 112.423 26.1953 110.111 24.0202C105.342 21.4705 99.34 22.2888 94.0612 22.3455C92.6679 22.3447 91.2745 22.3422 89.8812 22.3382C86.9658 22.3353 84.0512 22.35 81.1359 22.3775C77.4066 22.4115 73.6786 22.4055 69.9491 22.3868C67.0734 22.3762 64.1979 22.3852 61.3222 22.4002C59.9475 22.4054 58.5728 22.4049 57.1982 22.3986C55.2742 22.3932 53.3503 22.4165 51.4265 22.4409C49.787 22.4502 49.787 22.4502 48.1143 22.4597C44.4432 23.0982 42.7607 24.3486 40.155 26.9744C39.3393 30.2299 39.3393 30.2299 39.3425 33.7244C39.2497 36.8181 39.2497 36.8181 39.155 39.9744C32.225 39.9744 25.295 39.9744 18.155 39.9744C18.155 47.8944 18.155 55.8144 18.155 63.9744C23.435 63.9744 28.715 63.9744 34.155 63.9744C34.155 88.3944 34.155 112.814 34.155 137.974C20.132 132.365 11.5618 117.785 5.63546 104.592C-1.82773 86.396 -1.85132 67.1552 5.40499 48.7869C15.8206 25.7677 31.2724 12.0226 54.8308 2.94314C77.2651 -4.06961 102.162 2.04408 121.104 14.99Z" fill="#EA5E86"/>
<path d="M51.1231 24.5703C52.3513 24.5577 53.5794 24.545 54.8448 24.5319C56.1864 24.534 57.5279 24.5369 58.8695 24.5408C60.2457 24.5362 61.6218 24.5309 62.998 24.5249C65.8823 24.516 68.7662 24.5184 71.6505 24.5284C75.3441 24.5398 79.0367 24.5196 82.7302 24.4904C85.5724 24.4721 88.4144 24.4724 91.2567 24.4781C92.6182 24.4782 93.9798 24.4722 95.3413 24.4598C97.2464 24.4449 99.1516 24.4582 101.057 24.4727C102.14 24.4729 103.224 24.473 104.34 24.4732C107.909 25.1087 109.071 26.0286 111.155 28.9744C111.656 31.6794 111.656 31.6794 111.656 34.8094C111.666 35.9845 111.675 37.1596 111.685 38.3703C111.674 39.637 111.662 40.9037 111.651 42.2088C111.652 43.5159 111.654 44.823 111.655 46.1698C111.657 48.9372 111.644 51.7041 111.621 54.4715C111.593 57.9997 111.596 61.5272 111.608 65.0555C111.617 68.44 111.602 71.8243 111.588 75.2088C111.591 76.4674 111.594 77.7259 111.597 79.0227C111.515 86.6998 111.101 92.9549 106.428 99.3299C96.4008 109.006 86.5686 112.524 72.6859 112.287C62.7556 111.408 53.7868 106.607 46.7796 99.5994C41.7837 91.529 41.7122 84.2465 41.7562 74.9549C41.7542 73.6058 41.7513 72.2568 41.7475 70.9078C41.7431 68.0963 41.7494 65.2851 41.7635 62.4737C41.7807 58.8711 41.7707 55.2691 41.7528 51.6665C41.742 48.8878 41.7454 46.1093 41.7532 43.3306C41.7562 41.3569 41.7471 39.3832 41.7378 37.4095C41.7472 36.2143 41.7567 35.0191 41.7664 33.7876C41.77 32.2083 41.77 32.2083 41.7737 30.5971C42.1546 27.9744 42.1546 27.9744 43.3059 26.1363C45.9578 24.4696 48.0019 24.5859 51.1231 24.5703Z" fill="#ED90A5"/>
<path d="M62.1548 112.974C71.7248 112.974 81.2948 112.974 91.1548 112.974C91.6498 119.904 91.6498 119.904 92.1548 126.974C99.0848 127.469 99.0848 127.469 106.155 127.974C106.155 123.684 106.155 119.394 106.155 114.974C109.455 114.974 112.755 114.974 116.155 114.974C116.329 119.057 116.436 123.139 116.53 127.224C116.58 128.383 116.63 129.542 116.682 130.736C116.737 133.916 116.709 136.842 116.155 139.974C113.506 142.611 113.506 142.611 110.155 143.974C108.701 144.657 108.701 144.657 107.217 145.353C88.1087 152.738 68.448 155.516 49.145 147.098C45.0575 145.196 41.137 143.109 37.1548 140.974C37.1548 132.394 37.1548 123.814 37.1548 114.974C40.7848 114.974 44.4148 114.974 48.1548 114.974C48.1548 119.264 48.1548 123.554 48.1548 127.974C52.7748 127.974 57.3948 127.974 62.1548 127.974C62.1548 123.024 62.1548 118.074 62.1548 112.974Z" fill="#EC90A5"/>
<path d="M59.3462 21.3103C60.7381 21.3069 62.13 21.302 63.522 21.2958C66.4313 21.2884 69.34 21.2991 72.2493 21.3225C75.971 21.351 79.6908 21.3345 83.4125 21.3046C86.284 21.2865 89.155 21.2923 92.0266 21.3053C93.3984 21.3086 94.7704 21.3045 96.1422 21.2929C106.851 21.2217 106.851 21.2217 110.099 23.0967C111.471 24.4533 111.471 24.4533 113.155 26.9743C113.65 27.4693 113.65 27.4693 114.155 27.9743C114.298 31.9765 114.197 35.9688 114.155 39.9743C121.085 39.9743 128.015 39.9743 135.155 39.9743C135.155 47.8943 135.155 55.8143 135.155 63.9743C133.342 60.3494 132.906 59.3792 132.959 55.6462C132.964 54.9253 132.969 54.2044 132.975 53.4616C132.993 52.5583 133.011 51.655 133.03 50.7243C133.071 47.8368 133.112 44.9493 133.155 41.9743C126.555 41.9743 119.955 41.9743 113.155 41.9743C113.155 48.5743 113.155 55.1743 113.155 61.9743C112.825 61.9743 112.495 61.9743 112.155 61.9743C112.145 61.0259 112.136 60.0775 112.126 59.1003C112.082 55.5737 112.021 52.0483 111.947 48.5222C111.919 46.9976 111.898 45.4728 111.884 43.948C111.862 41.7529 111.816 39.5595 111.764 37.365C111.733 35.3854 111.733 35.3854 111.701 33.3659C111.056 29.3594 110.316 28.4224 107.155 25.9743C104.27 25.3839 104.27 25.3839 101.041 25.4885C99.8065 25.4823 98.572 25.4762 97.3 25.4699C95.9573 25.4836 94.6146 25.4982 93.272 25.5134C91.8924 25.5158 90.5129 25.5167 89.1333 25.5162C86.2466 25.5193 83.3603 25.5358 80.4736 25.5627C76.77 25.5968 73.0669 25.6043 69.3632 25.6028C66.5168 25.6034 63.6705 25.6143 60.8241 25.6288C59.4581 25.6352 58.0921 25.6391 56.7261 25.6406C54.8206 25.6449 52.9152 25.664 51.0098 25.6838C49.9248 25.6914 48.8399 25.6991 47.7221 25.7069C44.9901 25.719 44.9901 25.719 43.1548 27.9743C42.8338 30.5729 42.8338 30.5729 42.8643 33.6423C42.8515 34.8311 42.8387 36.02 42.8256 37.2448C42.8234 38.5375 42.8211 39.8301 42.8188 41.1618C42.8124 42.5027 42.8057 43.8435 42.7987 45.1843C42.7867 48.0022 42.783 50.82 42.7842 53.6379C42.7844 57.2244 42.7572 60.8101 42.7226 64.3964C42.7002 67.1711 42.6963 69.9456 42.6974 72.7203C42.6939 74.6777 42.6723 76.635 42.6503 78.5923C42.6912 86.6558 43.3035 94.4129 48.7084 100.814C57.127 109.03 68.2786 111.302 79.5493 111.185C89.8723 110.581 98.3939 106.177 105.53 98.7243C112.163 90.254 111.786 79.2356 112.155 68.9743C112.815 68.9743 113.475 68.9743 114.155 68.9743C115.215 92.6046 115.215 92.6046 107.51 101.974C104.63 105.095 102.231 107.006 98.2798 108.537C94.8329 110.677 94.8329 110.677 94.4946 114.33C94.241 117.892 94.1214 121.404 94.1548 124.974C97.4548 124.974 100.755 124.974 104.155 124.974C104.155 121.344 104.155 117.714 104.155 113.974C104.485 113.974 104.815 113.974 105.155 113.974C105.155 118.264 105.155 122.554 105.155 126.974C100.535 126.974 95.9148 126.974 91.1548 126.974C91.1548 122.354 91.1548 117.734 91.1548 112.974C89.6698 113.469 89.6698 113.469 88.1548 113.974C86.4172 114.068 84.6762 114.105 82.936 114.107C81.9215 114.108 80.9071 114.11 79.8618 114.111C78.8035 114.107 77.7452 114.103 76.6548 114.099C75.0673 114.105 75.0673 114.105 73.4478 114.111C71.926 114.109 71.926 114.109 70.3735 114.107C69.4448 114.106 68.516 114.105 67.5591 114.104C65.1548 113.974 65.1548 113.974 62.1548 112.974C62.1548 117.924 62.1548 122.874 62.1548 127.974C57.5348 127.974 52.9148 127.974 48.1548 127.974C48.1548 123.684 48.1548 119.394 48.1548 114.974C44.5248 114.974 40.8948 114.974 37.1548 114.974C37.1548 119.924 37.1548 124.874 37.1548 129.974C36.8248 129.974 36.4948 129.974 36.1548 129.974C35.8248 132.944 35.4948 135.914 35.1548 138.974C34.4948 138.644 33.8348 138.314 33.1548 137.974C33.4848 113.554 33.8148 89.1343 34.1548 63.9743C28.8748 63.9743 23.5948 63.9743 18.1548 63.9743C18.1548 56.0543 18.1548 48.1343 18.1548 39.9743C25.0848 39.9743 32.0148 39.9743 39.1548 39.9743C39.031 37.9325 38.9073 35.8906 38.7798 33.7868C38.5194 29.4899 38.5736 27.6953 41.3044 24.3076C46.4298 20.3169 53.169 21.2576 59.3462 21.3103Z" fill="#23191A"/>
<path d="M45.1548 57.9744C50.7648 57.9744 56.3748 57.9744 62.1548 57.9744C62.1548 61.9344 62.1548 65.8944 62.1548 69.9744C71.7248 69.9744 81.2948 69.9744 91.1548 69.9744C91.1548 66.0144 91.1548 62.0544 91.1548 57.9744C96.7648 57.9744 102.375 57.9744 108.155 57.9744C108.155 62.2644 108.155 66.5544 108.155 70.9744C101.72 71.4694 101.72 71.4694 95.1548 71.9744C96.1448 72.9644 97.1348 73.9544 98.1548 74.9744C98.8265 79.0884 98.6641 83.2491 98.6548 87.4119C98.6831 88.5572 98.7115 89.7025 98.7407 90.8826C98.7446 92.5348 98.7446 92.5348 98.7485 94.2205C98.7556 95.2278 98.7627 96.2351 98.77 97.2729C98.1548 99.9744 98.1548 99.9744 96.1042 102.301C92.465 104.366 89.4453 104.552 85.3696 104.506C84.2625 104.511 84.2625 104.511 83.1329 104.517C81.5789 104.52 80.0249 104.513 78.4709 104.496C76.0956 104.474 73.7234 104.496 71.3481 104.521C69.8345 104.519 68.3208 104.513 66.8071 104.506C66.0998 104.514 65.3924 104.522 64.6636 104.53C61.3905 104.468 59.4316 104.163 56.7053 102.301C54.7696 99.3964 54.6655 97.6948 54.6938 94.2205C54.6977 93.119 54.7016 92.0175 54.7056 90.8826C54.7301 89.7372 54.7546 88.5919 54.7798 87.4119C54.7811 86.2627 54.7824 85.1135 54.7837 83.9294C54.8737 75.396 54.8737 75.396 57.1548 71.9744C53.1948 71.6444 49.2348 71.3144 45.1548 70.9744C45.1548 66.6844 45.1548 62.3944 45.1548 57.9744Z" fill="#E88C9E"/>
<path d="M111.155 29.9744C111.485 29.9744 111.815 29.9744 112.155 29.9744C112.485 33.9344 112.815 37.8944 113.155 41.9744C119.755 41.9744 126.355 41.9744 133.155 41.9744C133.485 49.2344 133.815 56.4944 134.155 63.9744C129.205 63.9744 124.255 63.9744 119.155 63.9744C119.155 74.8644 119.155 85.7544 119.155 96.9744C118.825 96.9744 118.495 96.9744 118.155 96.9744C118.163 97.9078 118.163 97.9078 118.171 98.8601C118.273 112.937 118.025 126.923 117.155 140.974C116.495 140.644 115.835 140.314 115.155 139.974C115.485 131.724 115.815 123.474 116.155 114.974C112.855 114.974 109.555 114.974 106.155 114.974C106.155 119.264 106.155 123.554 106.155 127.974C101.535 127.974 96.9148 127.974 92.1548 127.974C92.1548 127.644 92.1548 127.314 92.1548 126.974C96.4448 126.974 100.735 126.974 105.155 126.974C104.825 126.314 104.495 125.654 104.155 124.974C100.855 124.974 97.5548 124.974 94.1548 124.974C93.556 120.177 93.2942 115.749 94.1548 110.974C96.4082 108.468 98.6153 107.13 101.542 105.478C107.464 102.07 111.243 96.4936 113.155 89.9744C113.631 86.3312 113.754 82.7077 113.842 79.0369C113.876 78.0668 113.911 77.0968 113.946 76.0974C114.028 73.7232 114.097 71.3493 114.155 68.9744C113.495 68.9744 112.835 68.9744 112.155 68.9744C112.155 74.2544 112.155 79.5344 112.155 84.9744C111.825 84.9744 111.495 84.9744 111.155 84.9744C111.155 66.8244 111.155 48.6744 111.155 29.9744Z" fill="#2B2022"/>
<path d="M45.1548 57.9744C50.7648 57.9744 56.3748 57.9744 62.1548 57.9744C62.1548 61.9344 62.1548 65.8944 62.1548 69.9744C71.7248 69.9744 81.2948 69.9744 91.1548 69.9744C91.1548 66.0144 91.1548 62.0544 91.1548 57.9744C96.7648 57.9744 102.375 57.9744 108.155 57.9744C108.155 62.2644 108.155 66.5544 108.155 70.9744C101.72 71.4694 101.72 71.4694 95.1548 71.9744C96.1448 72.9644 97.1348 73.9544 98.1548 74.9744C98.8265 79.0884 98.6641 83.2491 98.6548 87.4119C98.6831 88.5572 98.7115 89.7025 98.7407 90.8826C98.7446 92.5348 98.7446 92.5348 98.7485 94.2205C98.7556 95.2278 98.7627 96.2351 98.77 97.2729C98.1548 99.9744 98.1548 99.9744 96.1042 102.301C92.465 104.366 89.4453 104.552 85.3696 104.506C84.2625 104.511 84.2625 104.511 83.1329 104.517C81.5789 104.52 80.0249 104.513 78.4709 104.496C76.0956 104.474 73.7234 104.496 71.3481 104.521C69.8345 104.519 68.3208 104.513 66.8071 104.506C66.0998 104.514 65.3924 104.522 64.6636 104.53C61.3905 104.468 59.4316 104.163 56.7053 102.301C54.7696 99.3964 54.6655 97.6948 54.6938 94.2205C54.6977 93.119 54.7016 92.0175 54.7056 90.8826C54.7301 89.7372 54.7546 88.5919 54.7798 87.4119C54.7811 86.2627 54.7824 85.1135 54.7837 83.9294C54.8737 75.396 54.8737 75.396 57.1548 71.9744C53.1948 71.6444 49.2348 71.3144 45.1548 70.9744C45.1548 66.6844 45.1548 62.3944 45.1548 57.9744ZM58.1548 74.9744C57.7051 77.4585 57.7051 77.4585 57.7915 80.3494C57.7921 81.4167 57.7928 82.4841 57.7935 83.5837C57.8096 84.7026 57.8257 85.8216 57.8423 86.9744C57.8391 88.0933 57.8358 89.2122 57.8325 90.365C57.4566 96.2368 57.4566 96.2368 60.1548 100.974C62.6405 101.174 65.0123 101.254 67.4985 101.24C68.5859 101.243 68.5859 101.243 69.6952 101.246C71.2284 101.247 72.7617 101.243 74.2949 101.235C76.6456 101.224 78.9955 101.235 81.3462 101.248C82.8345 101.246 84.3228 101.244 85.811 101.24C86.5163 101.244 87.2215 101.248 87.9481 101.252C92.0008 101.327 92.0008 101.327 95.1548 98.9744C95.6096 95.1809 95.4788 91.3545 95.4673 87.5369C95.4834 86.474 95.4995 85.4112 95.5161 84.3162C95.5168 83.2972 95.5174 82.2782 95.5181 81.2283C95.521 80.2931 95.524 79.358 95.5271 78.3945C95.3119 75.9768 95.3119 75.9768 94.0676 74.1687C91.1372 72.339 88.6118 72.603 85.186 72.6111C84.5093 72.6106 83.8326 72.6101 83.1354 72.6096C81.7064 72.6119 80.2775 72.6216 78.8486 72.6382C76.6625 72.6618 74.4777 72.6587 72.2915 72.6521C64.8509 72.3407 64.8509 72.3407 58.1548 74.9744Z" fill="#131110"/>
<path d="M18.1546 64.9744C23.4346 64.9744 28.7146 64.9744 34.1546 64.9744C34.1546 81.4744 34.1546 97.9744 34.1546 114.974C25.815 110.805 22.0249 100.499 19.1546 91.9744C18.7421 90.7781 18.3296 89.5819 17.9046 88.3494C16.3087 81.4996 15.919 71.6813 18.1546 64.9744Z" fill="#EE88A2"/>
<path d="M119.155 64.9744C124.105 64.9744 129.055 64.9744 134.155 64.9744C138.108 80.7888 133.123 95.2487 125.155 108.974C123.092 111.822 123.092 111.822 121.155 113.974C120.495 113.974 119.835 113.974 119.155 113.974C119.155 97.8044 119.155 81.6344 119.155 64.9744Z" fill="#EF85A1"/>
<path d="M114.155 63.9744C114.815 63.9744 115.475 63.9744 116.155 63.9744C116.155 79.8144 116.155 95.6544 116.155 111.974C111.865 111.974 107.575 111.974 103.155 111.974C103.155 116.264 103.155 120.554 103.155 124.974C100.185 124.974 97.2146 124.974 94.1546 124.974C93.5558 120.177 93.2941 115.749 94.1546 110.974C96.408 108.468 98.6152 107.13 101.541 105.478C107.405 102.104 111.377 96.4847 113.155 89.9744C113.649 85.4989 113.756 81.0364 113.842 76.5369C113.876 75.3284 113.91 74.1199 113.946 72.8748C114.028 69.9081 114.097 66.9416 114.155 63.9744Z" fill="#E996A6"/>
<path d="M20.1548 41.9744C26.4248 41.9744 32.6948 41.9744 39.1548 41.9744C39.1548 48.5744 39.1548 55.1744 39.1548 61.9744C32.8848 61.9744 26.6148 61.9744 20.1548 61.9744C20.1548 55.3744 20.1548 48.7744 20.1548 41.9744Z" fill="#DC889B"/>
<path d="M37.1548 63.9744C37.8148 63.9744 38.4748 63.9744 39.1548 63.9744C39.1694 64.6898 39.184 65.4052 39.199 66.1423C39.274 69.4202 39.3705 72.6971 39.4673 75.9744C39.4898 77.0997 39.5124 78.2251 39.5356 79.3845C39.8556 89.3335 41.7806 97.7978 49.1548 104.974C50.928 105.886 52.721 106.76 54.5298 107.599C57.1392 108.99 57.1392 108.99 59.1548 110.974C60.0315 115.743 59.7458 120.181 59.1548 124.974C56.5148 124.974 53.8748 124.974 51.1548 124.974C51.1548 120.684 51.1548 116.394 51.1548 111.974C46.5348 111.974 41.9148 111.974 37.1548 111.974C37.1548 96.1344 37.1548 80.2944 37.1548 63.9744Z" fill="#E990A6"/>
<path d="M114.155 42.9744C120.095 42.9744 126.035 42.9744 132.155 42.9744C132.155 48.9144 132.155 54.8544 132.155 60.9744C126.215 60.9744 120.275 60.9744 114.155 60.9744C114.155 55.0344 114.155 49.0944 114.155 42.9744Z" fill="#EF97A9"/>
<path d="M91.1548 57.9744C96.7648 57.9744 102.375 57.9744 108.155 57.9744C108.155 62.2644 108.155 66.5544 108.155 70.9744C101.72 71.4694 101.72 71.4694 95.1548 71.9744C96.1448 72.9644 97.1348 73.9544 98.1548 74.9744C98.1548 75.6344 98.1548 76.2944 98.1548 76.9744C97.4948 76.9744 96.8348 76.9744 96.1548 76.9744C96.1548 83.9044 96.1548 90.8344 96.1548 97.9744C95.8248 97.9744 95.4948 97.9744 95.1548 97.9744C95.1251 96.9904 95.1251 96.9904 95.0947 95.9866C94.9997 93.0238 94.8899 90.0617 94.7798 87.0994C94.7488 86.0668 94.7179 85.0343 94.686 83.9705C94.628 82.4913 94.628 82.4913 94.5688 80.9822C94.5374 80.071 94.506 79.1598 94.4736 78.2209C94.356 75.7751 94.356 75.7751 92.1548 73.9744C89.0472 73.6011 89.0472 73.6011 85.397 73.5603C84.7339 73.5409 84.0709 73.5216 83.3877 73.5016C81.2685 73.4418 79.1493 73.3954 77.0298 73.3494C75.5936 73.3112 74.1574 73.2721 72.7212 73.2322C69.1993 73.1361 65.6772 73.0521 62.1548 72.9744C62.1548 72.6444 62.1548 72.3144 62.1548 71.9744C63.2594 71.9368 63.2594 71.9368 64.3862 71.8984C67.7259 71.7823 71.0653 71.6597 74.4048 71.5369C75.5637 71.4975 76.7225 71.4582 77.9165 71.4177C79.5891 71.3549 79.5891 71.3549 81.2954 71.2908C82.835 71.2358 82.835 71.2358 84.4058 71.1797C87.3943 71.0346 87.3943 71.0346 91.1548 69.9744C91.1548 66.0144 91.1548 62.0544 91.1548 57.9744Z" fill="#090908"/>
<path d="M47.1548 21.9744C55.0217 21.8584 62.8884 21.7696 70.756 21.7153C74.4095 21.6893 78.0624 21.6539 81.7156 21.5972C85.2429 21.5428 88.7696 21.5129 92.2973 21.5C94.2944 21.4863 96.2912 21.4473 98.2879 21.4079C108.386 21.4048 108.386 21.4048 111.457 24.4424C112.017 25.278 112.577 26.1135 113.155 26.9744C113.65 27.4694 113.65 27.4694 114.155 27.9744C114.298 31.9766 114.197 35.9688 114.155 39.9744C121.085 39.9744 128.015 39.9744 135.155 39.9744C135.155 47.8944 135.155 55.8144 135.155 63.9744C133.342 60.3494 132.906 59.3792 132.959 55.6463C132.964 54.9254 132.969 54.2044 132.975 53.4617C132.993 52.5584 133.011 51.6551 133.03 50.7244C133.071 47.8369 133.112 44.9494 133.155 41.9744C126.555 41.9744 119.955 41.9744 113.155 41.9744C113.155 48.5744 113.155 55.1744 113.155 61.9744C112.825 61.9744 112.495 61.9744 112.155 61.9744C112.145 61.026 112.136 60.0775 112.126 59.1004C112.082 55.5737 112.021 52.0483 111.947 48.5222C111.919 46.9976 111.898 45.4728 111.884 43.948C111.862 41.7529 111.816 39.5596 111.764 37.365C111.733 35.3855 111.733 35.3855 111.701 33.366C111.077 29.489 110.223 28.328 107.155 25.9744C104.511 24.6523 102.473 24.8132 99.5117 24.7691C98.3306 24.7491 97.1496 24.7292 95.9327 24.7086C94.0124 24.6836 94.0124 24.6836 92.0532 24.658C90.7465 24.6372 89.4397 24.6164 88.0934 24.595C84.6181 24.5398 81.1427 24.4904 77.6673 24.4422C74.1214 24.3919 70.5756 24.3363 67.0298 24.281C60.0715 24.1735 53.1132 24.072 46.1548 23.9744C46.4848 23.3144 46.8148 22.6544 47.1548 21.9744Z" fill="#050603"/>
<path d="M57.1546 75.9744C57.4846 75.9744 57.8146 75.9744 58.1546 75.9744C58.1922 77.0116 58.1922 77.0116 58.2305 78.0698C58.3461 81.184 58.469 84.2979 58.5921 87.4119C58.6314 88.5005 58.6707 89.5891 58.7112 90.7107C58.7531 91.7452 58.795 92.7796 58.8382 93.8455C58.8749 94.8038 58.9115 95.7621 58.9493 96.7495C58.9129 98.9458 58.9129 98.9458 60.1546 99.9744C62.5795 100.088 64.9749 100.139 67.4007 100.142C68.127 100.146 68.8533 100.149 69.6016 100.152C71.1409 100.157 72.6801 100.16 74.2193 100.16C76.5788 100.162 78.9378 100.18 81.2972 100.199C82.79 100.202 84.2829 100.204 85.7757 100.205C86.4841 100.212 87.1924 100.219 87.9223 100.227C91.9887 100.327 91.9887 100.327 95.1546 97.9744C95.5246 95.7478 95.5246 95.7478 95.5687 93.1853C95.6073 92.2443 95.646 91.3033 95.6859 90.3337C95.7168 89.3489 95.7477 88.3641 95.7796 87.3494C95.8183 86.3568 95.8569 85.3642 95.8968 84.3416C95.9912 81.886 96.0768 79.4305 96.1546 76.9744C96.8146 76.9744 97.4746 76.9744 98.1546 76.9744C98.2999 80.724 98.3887 84.4728 98.4671 88.2244C98.509 89.2878 98.5509 90.3513 98.5941 91.447C98.6102 92.4718 98.6263 93.4966 98.6429 94.5525C98.6691 95.4951 98.6953 96.4377 98.7222 97.4089C98.1546 99.9744 98.1546 99.9744 96.1107 102.28C92.468 104.368 89.4572 104.553 85.3694 104.506C84.6313 104.509 83.8932 104.513 83.1328 104.517C81.5788 104.52 80.0247 104.513 78.4708 104.496C76.0955 104.474 73.7232 104.496 71.348 104.521C69.8343 104.519 68.3206 104.513 66.8069 104.506C66.0996 104.514 65.3922 104.522 64.6634 104.53C61.2337 104.465 59.4473 104.201 56.7029 102.073C54.1594 98.6256 54.8117 96.1573 55.1546 91.9744C55.4846 91.6444 55.8146 91.3144 56.1546 90.9744C56.3911 88.4484 56.5763 85.9433 56.7171 83.4119C56.7603 82.7009 56.8035 81.99 56.848 81.2576C56.9543 79.4967 57.055 77.7356 57.1546 75.9744Z" fill="#221718"/>
<path d="M53.1548 108.974C55.1348 109.634 57.1148 110.294 59.1548 110.974C59.1548 115.594 59.1548 120.214 59.1548 124.974C56.5148 124.974 53.8748 124.974 51.1548 124.974C51.1008 122.87 51.062 120.766 51.0298 118.662C51.0066 117.49 50.9834 116.318 50.9595 115.111C51.1548 111.974 51.1548 111.974 53.1548 108.974Z" fill="#F197A8"/>
<path d="M118.155 110.974C117.825 120.874 117.495 130.774 117.155 140.974C116.495 140.644 115.835 140.314 115.155 139.974C115.485 131.724 115.815 123.474 116.155 114.974C112.855 114.974 109.555 114.974 106.155 114.974C106.155 119.264 106.155 123.554 106.155 127.974C101.535 127.974 96.9148 127.974 92.1548 127.974C92.1548 127.644 92.1548 127.314 92.1548 126.974C96.4448 126.974 100.735 126.974 105.155 126.974C104.495 126.314 103.835 125.654 103.155 124.974C102.959 121.935 102.959 121.935 103.03 118.349C103.048 117.161 103.066 115.972 103.084 114.748C103.108 113.833 103.131 112.917 103.155 111.974C105.467 111.807 107.78 111.641 110.092 111.474C111.38 111.382 112.668 111.289 113.995 111.193C117.155 110.974 117.155 110.974 118.155 110.974Z" fill="#23181B"/>
<path d="M107.155 57.9744C107.485 57.9744 107.815 57.9744 108.155 57.9744C108.155 62.2644 108.155 66.5544 108.155 70.9744C101.72 71.4694 101.72 71.4694 95.1548 71.9744C96.1448 72.9644 97.1348 73.9544 98.1548 74.9744C98.1548 75.6344 98.1548 76.2944 98.1548 76.9744C97.4948 76.9744 96.8348 76.9744 96.1548 76.9744C96.1548 83.9044 96.1548 90.8344 96.1548 97.9744C95.8248 97.9744 95.4948 97.9744 95.1548 97.9744C95.1251 96.9904 95.1251 96.9904 95.0947 95.9866C94.9997 93.0238 94.8899 90.0617 94.7798 87.0994C94.7488 86.0668 94.7179 85.0343 94.686 83.9705C94.628 82.4913 94.628 82.4913 94.5688 80.9822C94.5374 80.071 94.506 79.1598 94.4736 78.2209C94.356 75.7751 94.356 75.7751 92.1548 73.9744C89.0472 73.6011 89.0472 73.6011 85.397 73.5603C84.7339 73.5409 84.0709 73.5216 83.3877 73.5016C81.2685 73.4418 79.1493 73.3954 77.0298 73.3494C75.5936 73.3112 74.1574 73.2721 72.7212 73.2322C69.1993 73.1361 65.6772 73.0521 62.1548 72.9744C62.1548 72.6444 62.1548 72.3144 62.1548 71.9744C63.2594 71.9368 63.2594 71.9368 64.3862 71.8984C67.7259 71.7823 71.0653 71.6597 74.4048 71.5369C75.5637 71.4975 76.7225 71.4582 77.9165 71.4177C79.5891 71.3549 79.5891 71.3549 81.2954 71.2908C82.835 71.2358 82.835 71.2358 84.4058 71.1797C86.8137 70.9998 88.8832 70.7849 91.1548 69.9744C91.4848 69.3144 91.8148 68.6544 92.1548 67.9744C92.1548 68.6344 92.1548 69.2944 92.1548 69.9744C97.1048 69.9744 102.055 69.9744 107.155 69.9744C107.155 66.0144 107.155 62.0544 107.155 57.9744Z" fill="#54383D"/>
<path d="M37.1546 63.9744C36.8246 79.8144 36.4946 95.6544 36.1546 111.974C35.8246 111.974 35.4946 111.974 35.1546 111.974C33.9304 102.085 34.0402 92.2306 34.0921 82.2869C34.0972 80.6026 34.1017 78.9184 34.1058 77.2341C34.1167 73.1475 34.1339 69.061 34.1546 64.9744C36.1546 63.9744 36.1546 63.9744 37.1546 63.9744Z" fill="#0E0D0B"/>
<path d="M83.1548 81.9744C85.7948 81.9744 88.4348 81.9744 91.1548 81.9744C91.1548 85.2744 91.1548 88.5744 91.1548 91.9744C88.5148 91.9744 85.8748 91.9744 83.1548 91.9744C83.1548 88.6744 83.1548 85.3744 83.1548 81.9744Z" fill="#29191B"/>
<path d="M62.1548 81.9744C64.7948 81.9744 67.4348 81.9744 70.1548 81.9744C70.1548 85.2744 70.1548 88.5744 70.1548 91.9744C67.5148 91.9744 64.8748 91.9744 62.1548 91.9744C62.1548 88.6744 62.1548 85.3744 62.1548 81.9744Z" fill="#110C0C"/>
<path d="M92.1548 19.9744C92.1548 20.3044 92.1548 20.6344 92.1548 20.9744C81.5948 20.9744 71.0348 20.9744 60.1548 20.9744C69.9623 16.0707 81.7978 17.0672 92.1548 19.9744Z" fill="#F383A4"/>
<path d="M92.1548 112.974C92.8148 112.974 93.4748 112.974 94.1548 112.974C94.1548 116.934 94.1548 120.894 94.1548 124.974C97.4548 124.974 100.755 124.974 104.155 124.974C104.155 121.344 104.155 117.714 104.155 113.974C104.485 113.974 104.815 113.974 105.155 113.974C105.155 118.264 105.155 122.554 105.155 126.974C100.865 126.974 96.5748 126.974 92.1548 126.974C92.1548 122.354 92.1548 117.734 92.1548 112.974Z" fill="#040604"/>
<path d="M58.1548 75.9744C58.4848 75.9744 58.8148 75.9744 59.1548 75.9744C59.1548 77.9544 59.1548 79.9344 59.1548 81.9744C59.8148 81.9744 60.4748 81.9744 61.1548 81.9744C61.4848 85.2744 61.8148 88.5744 62.1548 91.9744C64.4648 92.3044 66.7748 92.6344 69.1548 92.9744C69.1548 93.3044 69.1548 93.6344 69.1548 93.9744C68.0823 94.0775 67.0098 94.1806 65.9048 94.2869C61.8434 94.7434 61.8434 94.7434 58.1548 97.9744C58.1548 90.7144 58.1548 83.4544 58.1548 75.9744Z" fill="#F89BAC"/>
<path d="M95.1548 106.974C97.2798 107.912 97.2798 107.912 99.1548 108.974C98.5154 109.263 97.876 109.552 97.2173 109.849C95.0027 110.803 95.0027 110.803 94.1548 112.974C93.4948 112.974 92.8348 112.974 92.1548 112.974C92.1548 117.594 92.1548 122.214 92.1548 126.974C91.8248 126.974 91.4948 126.974 91.1548 126.974C91.1548 122.354 91.1548 117.734 91.1548 112.974C89.1748 113.304 87.1948 113.634 85.1548 113.974C85.1548 113.314 85.1548 112.654 85.1548 111.974C84.4948 111.644 83.8348 111.314 83.1548 110.974C83.8535 110.769 84.5521 110.564 85.272 110.353C86.1821 110.084 87.0921 109.814 88.0298 109.537C88.9347 109.27 89.8396 109.003 90.772 108.728C93.1375 108.048 93.1375 108.048 95.1548 106.974Z" fill="#291E20"/>
<path d="M96.1548 76.9744C96.8148 76.9744 97.4748 76.9744 98.1548 76.9744C98.2708 80.7449 98.342 84.5151 98.4048 88.2869C98.4383 89.3587 98.4718 90.4306 98.5063 91.5349C98.5192 92.5629 98.5321 93.591 98.5454 94.6501C98.5664 95.598 98.5873 96.5459 98.6089 97.5225C98.1548 99.9744 98.1548 99.9744 96.1304 101.807C95.4784 102.192 94.8265 102.578 94.1548 102.974C94.1548 98.9744 94.1548 98.9744 95.1548 97.9744C95.3116 96.4149 95.4056 94.8489 95.4712 93.283C95.5131 92.3387 95.555 91.3945 95.5981 90.4216C95.6571 88.9318 95.6571 88.9318 95.7173 87.4119C95.7605 86.4148 95.8037 85.4177 95.8481 84.3904C95.9546 81.9185 96.0566 79.4466 96.1548 76.9744Z" fill="#080806"/>
<path d="M99.1548 59.9744C101.135 59.9744 103.115 59.9744 105.155 59.9744C105.155 62.6144 105.155 65.2544 105.155 67.9744C103.175 67.9744 101.195 67.9744 99.1548 67.9744C99.1548 65.3344 99.1548 62.6944 99.1548 59.9744Z" fill="#D9D9D7"/>
<path d="M48.1548 59.9744C50.1348 59.9744 52.1148 59.9744 54.1548 59.9744C54.1548 62.6144 54.1548 65.2544 54.1548 67.9744C52.1748 67.9744 50.1948 67.9744 48.1548 67.9744C48.1548 65.3344 48.1548 62.6944 48.1548 59.9744Z" fill="#DEDCDA"/>
<path d="M110.155 50.9744C110.485 50.9744 110.815 50.9744 111.155 50.9744C111.155 57.9044 111.155 64.8344 111.155 71.9744C110.165 71.6444 109.175 71.3144 108.155 70.9744C108.155 66.6844 108.155 62.3944 108.155 57.9744C108.815 57.9744 109.475 57.9744 110.155 57.9744C110.155 55.6644 110.155 53.3544 110.155 50.9744Z" fill="#FAA1B1"/>
<path d="M54.1548 101.974C54.8163 102.133 55.4778 102.291 56.1594 102.455C59.8013 103.087 63.3951 103.205 67.0806 103.291C67.8282 103.312 68.5757 103.332 69.346 103.354C71.7197 103.419 74.0935 103.478 76.4673 103.537C78.0825 103.58 79.6978 103.624 81.313 103.668C85.2601 103.774 89.2074 103.876 93.1548 103.974C93.1548 104.304 93.1548 104.634 93.1548 104.974C74.3448 105.469 74.3448 105.469 55.1548 105.974C54.8248 104.654 54.4948 103.334 54.1548 101.974Z" fill="#FA97AC"/>
<path d="M57.1548 75.9744C57.4848 75.9744 57.8148 75.9744 58.1548 75.9744C58.1924 77.0038 58.1924 77.0038 58.2307 78.054C58.3465 81.1526 58.4693 84.251 58.5923 87.3494C58.6316 88.4296 58.6709 89.5098 58.7114 90.6228C58.7533 91.6541 58.7952 92.6853 58.8384 93.7478C58.875 94.7009 58.9117 95.654 58.9495 96.636C59.0124 98.9957 59.0124 98.9957 60.1548 100.974C58.5048 100.644 56.8548 100.314 55.1548 99.9744C55.0571 93.822 55.0571 93.822 55.1548 91.9744C55.4848 91.6444 55.8148 91.3144 56.1548 90.9744C56.3913 88.4484 56.5765 85.9433 56.7173 83.4119C56.7605 82.7009 56.8037 81.99 56.8481 81.2576C56.9545 79.4967 57.0552 77.7356 57.1548 75.9744Z" fill="#3D2C2F"/>
<path d="M30.1548 15.9744C30.1548 18.9744 30.1548 18.9744 28.9614 20.5083C28.4168 21.0372 27.8722 21.5661 27.311 22.1111C26.4312 22.9764 26.4312 22.9764 25.5337 23.8591C24.9137 24.454 24.2936 25.0489 23.6548 25.6619C23.0347 26.2684 22.4147 26.8749 21.7759 27.4998C20.2421 28.9981 18.6993 30.4871 17.1548 31.9744C16.4948 31.6444 15.8348 31.3144 15.1548 30.9744C16.9006 29.0329 18.6512 27.0962 20.4048 25.1619C20.8959 24.6147 21.3871 24.0675 21.8931 23.5037C24.4721 20.6667 26.9611 18.1415 30.1548 15.9744Z" fill="#E25F84"/>
<path d="M101.155 57.9744C103.135 57.9744 105.115 57.9744 107.155 57.9744C107.155 61.9344 107.155 65.8944 107.155 69.9744C104.845 69.9744 102.535 69.9744 100.155 69.9744C100.794 69.8094 101.434 69.6444 102.092 69.4744C104.316 68.1926 104.316 68.1926 104.643 66.0603C104.882 64.0386 105.024 62.0059 105.155 59.9744C103.505 59.9744 101.855 59.9744 100.155 59.9744C100.485 59.3144 100.815 58.6544 101.155 57.9744Z" fill="#000201"/>
<path d="M94.1548 75.9744C94.4848 75.9744 94.8148 75.9744 95.1548 75.9744C95.1548 83.5644 95.1548 91.1544 95.1548 98.9744C94.8248 98.9744 94.4948 98.9744 94.1548 98.9744C93.8248 96.6644 93.4948 94.3544 93.1548 91.9744C92.8248 91.9744 92.4948 91.9744 92.1548 91.9744C92.1548 89.3344 92.1548 86.6944 92.1548 83.9744C92.4848 83.9744 92.8148 83.9744 93.1548 83.9744C93.1342 83.0256 93.1135 82.0769 93.0923 81.0994C93.1548 77.9744 93.1548 77.9744 94.1548 75.9744Z" fill="#FA9BAD"/>
<path d="M56.1549 73.9744C57.1449 74.3044 58.1349 74.6344 59.1549 74.9744C58.8249 75.3044 58.4949 75.6344 58.1549 75.9744C57.9186 79.1846 57.7583 82.3871 57.6373 85.6033C57.5456 87.3985 57.3573 89.1882 57.1549 90.9744C56.4949 91.3044 55.8349 91.6344 55.1549 91.9744C55.128 89.1618 55.1081 86.3495 55.0924 83.5369C55.084 82.7344 55.0756 81.932 55.067 81.1052C55.0584 79.0614 55.1026 77.0175 55.1549 74.9744C55.4849 74.6444 55.8149 74.3144 56.1549 73.9744Z" fill="#050604"/>
<path d="M48.1548 112.974C49.1448 113.469 49.1448 113.469 50.1548 113.974C50.5688 116.478 50.5688 116.478 50.7798 119.537C50.8546 120.549 50.9293 121.561 51.0063 122.603C51.0798 123.777 51.0798 123.777 51.1548 124.974C54.1248 125.469 54.1248 125.469 57.1548 125.974C57.1548 126.304 57.1548 126.634 57.1548 126.974C54.1848 126.974 51.2148 126.974 48.1548 126.974C48.1548 122.354 48.1548 117.734 48.1548 112.974Z" fill="#020302"/>
<path d="M46.1548 57.9744C47.8048 57.9744 49.4548 57.9744 51.1548 57.9744C51.1548 58.6344 51.1548 59.2944 51.1548 59.9744C50.1648 59.9744 49.1748 59.9744 48.1548 59.9744C48.1548 62.9444 48.1548 65.9144 48.1548 68.9744C49.4748 69.3044 50.7948 69.6344 52.1548 69.9744C50.1748 69.9744 48.1948 69.9744 46.1548 69.9744C46.1548 66.0144 46.1548 62.0544 46.1548 57.9744Z" fill="#000200"/>
<path d="M114.155 85.9744C114.815 85.9744 115.475 85.9744 116.155 85.9744C116.155 92.2444 116.155 98.5144 116.155 104.974C115.825 104.974 115.495 104.974 115.155 104.974C115.155 101.344 115.155 97.7144 115.155 93.9744C114.495 93.9744 113.835 93.9744 113.155 93.9744C113.485 91.3344 113.815 88.6944 114.155 85.9744Z" fill="#F0A3B2"/>
<path d="M114.155 33.9744C114.645 34.4552 115.134 34.936 115.639 35.4314C119.107 37.5583 122.447 37.5395 126.405 37.6619C127.522 37.7131 127.522 37.7131 128.663 37.7654C130.493 37.8475 132.324 37.9126 134.155 37.9744C134.155 38.3044 134.155 38.6344 134.155 38.9744C127.555 38.9744 120.955 38.9744 114.155 38.9744C114.155 37.3244 114.155 35.6744 114.155 33.9744Z" fill="#F5779C"/>
<path d="M45.1548 21.9744C45.8148 22.3044 46.4748 22.6344 47.1548 22.9744C47.1548 23.6344 47.1548 24.2944 47.1548 24.9744C45.6235 26.2634 45.6235 26.2634 43.6548 27.5994C43.0051 28.0454 42.3554 28.4914 41.686 28.9509C41.1807 29.2887 40.6754 29.6264 40.1548 29.9744C39.8248 28.9844 39.4948 27.9944 39.1548 26.9744C41.1348 25.3244 43.1148 23.6744 45.1548 21.9744Z" fill="#191010"/>
<path d="M106.155 21.9744C108.592 22.7244 108.592 22.7244 111.155 23.9744C111.967 26.0994 111.967 26.0994 112.155 27.9744C111.165 28.4694 111.165 28.4694 110.155 28.9744C109.701 28.5 109.247 28.0256 108.78 27.5369C107.222 25.8841 107.222 25.8841 105.155 24.9744C105.485 23.9844 105.815 22.9944 106.155 21.9744Z" fill="#1F1213"/>
<path d="M37.1548 31.9744C37.4848 31.9744 37.8148 31.9744 38.1548 31.9744C38.1548 34.2844 38.1548 36.5944 38.1548 38.9744C36.1748 38.9744 34.1948 38.9744 32.1548 38.9744C32.9633 37.8049 33.7767 36.6389 34.5923 35.4744C35.0447 34.8247 35.4972 34.175 35.9634 33.5056C36.3565 33.0003 36.7497 32.495 37.1548 31.9744Z" fill="#F596AF"/>
<path d="M103.342 103.349C103.94 103.556 104.539 103.762 105.155 103.974C100.53 107.974 100.53 107.974 97.1548 107.974C98.3115 104.504 99.4292 102.679 103.342 103.349Z" fill="#0F0C0B"/>
<path d="M21.1548 23.9744C22.1448 24.3044 23.1348 24.6344 24.1548 24.9744C21.8448 27.2844 19.5348 29.5944 17.1548 31.9744C16.4948 31.6444 15.8348 31.3144 15.1548 30.9744C17.1348 28.6644 19.1148 26.3544 21.1548 23.9744Z" fill="#DB5A7F"/>
<path d="M88.1548 82.9744C89.1448 82.9744 90.1348 82.9744 91.1548 82.9744C91.1548 85.9444 91.1548 88.9144 91.1548 91.9744C90.4948 91.6444 89.8348 91.3144 89.1548 90.9744C88.5612 88.3258 88.4127 85.6824 88.1548 82.9744Z" fill="#000301"/>
<path d="M42.1548 88.9744C43.3611 91.3065 44.3203 93.4708 45.1548 95.9744C43.8348 95.9744 42.5148 95.9744 41.1548 95.9744C40.8248 94.3244 40.4948 92.6744 40.1548 90.9744C40.8148 90.9744 41.4748 90.9744 42.1548 90.9744C42.1548 90.3144 42.1548 89.6544 42.1548 88.9744Z" fill="#291D20"/>
<path d="M64.1548 83.9744C65.1448 83.9744 66.1348 83.9744 67.1548 83.9744C67.1548 85.9544 67.1548 87.9344 67.1548 89.9744C66.1648 89.9744 65.1748 89.9744 64.1548 89.9744C64.1548 87.9944 64.1548 86.0144 64.1548 83.9744Z" fill="#412C2F"/>
</svg>
