<svg width="152" height="152" viewBox="0 0 152 152" fill="none" xmlns="http://www.w3.org/2000/svg">
<path d="M121.414 15.575C137.054 27.7008 147.627 45.3326 150.934 64.8602C153.414 85.9435 148.419 105.912 135.481 122.884C126.35 133.468 115.132 142.998 101.356 146.446C101.026 145.456 100.696 144.466 100.356 143.446C100.026 144.766 99.6956 146.086 99.3556 147.446C96.9405 148.119 94.5238 148.785 92.1056 149.446C91.4237 149.637 90.7418 149.828 90.0392 150.024C86.6496 150.946 83.8978 151.446 80.3556 151.446C80.3287 149.3 80.3093 147.155 80.2931 145.009C80.2815 143.814 80.2699 142.619 80.2579 141.388C80.3556 138.446 80.3556 138.446 81.3556 137.446C80.3656 137.776 79.3756 138.106 78.3556 138.446C78.3556 142.736 78.3556 147.026 78.3556 151.446C76.3756 151.446 74.3956 151.446 72.3556 151.446C72.0256 148.146 71.6956 144.846 71.3556 141.446C71.0256 144.746 70.6956 148.046 70.3556 151.446C63.9886 151.871 58.3894 150.461 52.3556 148.446C51.3556 147.446 51.3556 147.446 51.2931 143.884C51.3137 142.749 51.3344 141.615 51.3556 140.446C50.6956 140.446 50.0356 140.446 49.3556 140.446C49.3556 142.426 49.3556 144.406 49.3556 146.446C39.2471 144.867 30.8548 138.019 23.3556 131.446C22.6556 130.842 21.9557 130.237 21.2345 129.614C8.43782 117.765 0.749022 99.4696 0.0196654 82.0985C-0.327288 60.4063 3.83243 41.5548 19.2194 25.5226C20.5831 24.1487 21.969 22.7969 23.3556 21.4461C24.1084 20.6959 24.8612 19.9457 25.6369 19.1727C34.8024 10.5053 45.1896 5.48404 57.3556 2.44614C58.0429 2.27026 58.7302 2.09438 59.4384 1.91318C81.5313 -3.43232 103.114 2.83701 121.414 15.575Z" fill="#7BBB4D"/>
<path d="M58.2969 43.3485C60.0893 43.3659 60.0893 43.3659 61.918 43.3837C63.7143 43.3972 63.7143 43.3972 65.5469 43.411C66.4737 43.4226 67.4005 43.4342 68.3555 43.4462C71.3555 50.1962 71.3555 50.1962 71.3555 52.4462C75.2289 51.3898 76.9443 49.8223 79.418 46.8212C81.7738 44.3008 82.8807 43.4982 86.365 43.1166C87.4331 43.1557 88.5011 43.1949 89.6016 43.2352C91.2189 43.2809 91.2189 43.2809 92.8689 43.3275C93.6895 43.3667 94.51 43.4058 95.3555 43.4462C100.521 60.5102 105.546 77.597 109.918 94.8837C110.087 95.5418 110.257 96.2 110.431 96.8781C113.84 110.179 114.355 121.479 114.355 135.446C88.6155 135.446 62.8755 135.446 36.3555 135.446C36.3555 109 36.3555 109 39.8008 97.0282C40.9392 92.9765 42.0093 88.9146 43.0352 84.8329C45.7394 74.1054 48.5652 63.4227 51.7305 52.8212C51.9811 51.98 52.2318 51.1388 52.49 50.2721C54.5614 43.4725 54.5614 43.4725 58.2969 43.3485Z" fill="#F6EDCA"/>
<path d="M108.355 27.4462C123.756 39.4217 131.675 53.1825 134.355 72.4462C135.28 81.655 133.245 90.4794 131.355 99.4462C130.117 97.118 129.357 95.4605 128.98 92.8212C128.611 90.3322 128.611 90.3322 126.605 89.3212C125.863 89.0324 125.12 88.7437 124.355 88.4462C120.052 86.2946 119.049 84.8501 117.355 80.4462C114.299 78.2633 111.005 78.0246 107.355 77.4462C105.926 72.6605 104.502 67.8733 103.083 63.0846C102.599 61.4556 102.114 59.827 101.628 58.1989C100.929 55.8592 100.235 53.5181 99.5428 51.1766C99.2147 50.0843 99.2147 50.0843 98.88 48.9699C98.0134 46.0246 97.3553 43.5342 97.3553 40.4462C93.7253 40.4462 90.0953 40.4462 86.3553 40.4462C86.2251 37.9071 86.0949 35.368 85.9647 32.829C85.6123 30.3028 85.6123 30.3028 83.4647 29.2782C82.7686 29.0036 82.0725 28.7291 81.3553 28.4462C79.6677 26.8007 78.0013 25.1333 76.3553 23.4462C73.1602 20.5603 70.6194 19.9307 66.3553 19.4462C66.8503 20.498 66.8503 20.498 67.3553 21.5712C68.4458 24.7062 68.5085 27.1518 68.3553 30.4462C67.7288 30.5557 67.1023 30.6653 66.4569 30.7782C65.6396 30.9368 64.8223 31.0953 63.9803 31.2587C62.7621 31.4849 62.7621 31.4849 61.5194 31.7157C58.9971 32.3216 58.9971 32.3216 57.3553 35.4462C58.3247 35.8999 59.2941 36.3537 60.2928 36.8212C63.3553 38.4462 63.3553 38.4462 64.3553 40.4462C60.7253 40.7762 57.0953 41.1062 53.3553 41.4462C52.9621 42.7622 52.9621 42.7622 52.5609 44.1049C51.5813 47.3814 50.6009 50.6578 49.62 53.934C49.1968 55.3479 48.7739 56.762 48.3514 58.1761C47.7416 60.2169 47.1306 62.2574 46.5194 64.2977C46.1528 65.5231 45.7862 66.7486 45.4085 68.0111C45.061 69.1447 44.7134 70.2782 44.3553 71.4462C44.0239 72.5661 43.6924 73.6861 43.3509 74.84C43.0224 75.7 42.6938 76.5601 42.3553 77.4462C40.2616 78.2938 40.2616 78.2938 37.8553 78.5087C35.463 78.6352 35.463 78.6352 33.3553 79.4462C32.6523 81.0978 31.9906 82.7673 31.3553 84.4462C29.078 86.7196 29.078 86.7196 26.4178 88.8212C25.1049 89.8846 25.1049 89.8846 23.7655 90.9696C22.9701 91.4569 22.1748 91.9441 21.3553 92.4462C20.3653 92.1162 19.3753 91.7862 18.3553 91.4462C14.57 81.5083 16.3113 65.1218 19.9022 55.4618C28.5507 37.5138 40.6781 26.4635 59.3748 19.4266C75.6533 14.0716 94.41 17.8721 108.355 27.4462Z" fill="#99C770"/>
<path d="M66.3552 19.4461C69.4705 18.9902 71.5757 18.9232 74.242 20.7117C76.7246 22.8561 79.0365 25.1274 81.3552 27.4461C82.6805 28.1288 84.0134 28.7968 85.3552 29.4461C86.3552 30.4461 86.3552 30.4461 86.4529 32.7313C86.4204 35.3029 86.3878 37.8745 86.3552 40.4461C89.9852 40.4461 93.6152 40.4461 97.3552 40.4461C98.6253 44.5884 99.8885 48.7327 101.146 52.879C101.573 54.2868 102.003 55.694 102.435 57.1007C103.058 59.1323 103.674 61.1659 104.289 63.2C104.661 64.4202 105.032 65.6404 105.416 66.8975C106.355 70.4455 106.913 73.8101 107.355 77.4461C108.686 77.3533 108.686 77.3533 110.043 77.2586C113.803 77.4715 115.438 78.0964 118.355 80.4461C118.757 81.6217 118.757 81.6217 119.168 82.8211C120.778 86.3808 123.084 87.2916 126.48 89.0399C129.022 90.9465 129.503 92.3888 130.355 95.4461C130.644 98.0742 130.859 100.625 130.98 103.259C131.019 103.951 131.058 104.644 131.097 105.358C131.191 107.054 131.274 108.75 131.355 110.446C129.705 110.116 128.055 109.786 126.355 109.446C126.376 110.498 126.396 111.55 126.418 112.634C126.366 115.773 126.09 118.415 125.355 121.446C123.87 121.941 123.87 121.941 122.355 122.446C121.343 124.106 120.343 125.772 119.355 127.446C118.695 127.446 118.035 127.446 117.355 127.446C117.402 128.122 117.448 128.797 117.496 129.493C117.788 136.718 117.788 136.718 115.98 139.759C105.577 146.446 105.577 146.446 101.355 146.446C101.025 145.456 100.695 144.466 100.355 143.446C99.8602 145.426 99.8602 145.426 99.3552 147.446C96.9402 148.119 94.5234 148.785 92.1052 149.446C91.4233 149.637 90.7414 149.828 90.0388 150.024C86.6492 150.946 83.8975 151.446 80.3552 151.446C80.3284 149.3 80.3089 147.154 80.2927 145.009C80.2811 143.814 80.2695 142.619 80.2576 141.388C80.3552 138.446 80.3552 138.446 81.3552 137.446C80.3652 137.776 79.3752 138.106 78.3552 138.446C78.3552 142.736 78.3552 147.026 78.3552 151.446C76.3752 151.446 74.3952 151.446 72.3552 151.446C72.0252 148.146 71.6952 144.846 71.3552 141.446C71.0252 144.746 70.6952 148.046 70.3552 151.446C63.9882 151.871 58.389 150.461 52.3552 148.446C51.3552 147.446 51.3552 147.446 51.2927 143.884C51.3134 142.749 51.334 141.615 51.3552 140.446C50.6952 140.446 50.0352 140.446 49.3552 140.446C49.3552 139.786 49.3552 139.126 49.3552 138.446C47.7484 138.464 47.7484 138.464 46.1092 138.481C44.712 138.491 43.3149 138.5 41.9177 138.509C41.2107 138.517 40.5036 138.525 39.7752 138.534C37.9683 138.543 36.1614 138.498 34.3552 138.446C33.3552 137.446 33.3552 137.446 33.2576 135.38C33.2692 134.556 33.2808 133.732 33.2927 132.884C33.3063 131.644 33.3063 131.644 33.3201 130.38C33.3317 129.742 33.3433 129.104 33.3552 128.446C32.4329 128.044 32.4329 128.044 31.492 127.634C28.1409 125.771 26.6738 122.922 25.3552 119.446C24.7688 116.116 24.4911 112.822 24.3552 109.446C21.8802 109.941 21.8802 109.941 19.3552 110.446C18.6923 95.7131 18.6923 95.7131 22.3552 90.4461C24.5727 88.4683 26.836 86.7514 29.2967 85.0867C31.4971 83.3331 32.2274 81.9758 33.3552 79.4461C36.3946 77.35 38.7437 77.3745 42.3552 77.4461C42.5744 76.5232 42.7935 75.6002 43.0193 74.6492C44.9794 66.5358 47.1531 58.5066 49.5427 50.5086C49.9355 49.1856 49.9355 49.1856 50.3362 47.8358C50.5835 47.0175 50.8309 46.1993 51.0857 45.3563C51.4167 44.2601 51.4167 44.2601 51.7544 43.1417C52.3552 41.4461 52.3552 41.4461 53.3552 40.4461C55.0371 40.2133 56.7265 40.0335 58.4177 39.8836C59.7964 39.7579 59.7964 39.7579 61.2029 39.6297C61.9132 39.5691 62.6235 39.5085 63.3552 39.4461C61.0452 38.1261 58.7352 36.8061 56.3552 35.4461C58.4177 32.9461 58.4177 32.9461 61.3552 30.4461C65.1677 30.1336 65.1677 30.1336 68.3552 30.4461C67.6952 26.8161 67.0352 23.1861 66.3552 19.4461ZM55.3552 43.4461C55.0772 44.2814 55.0772 44.2814 54.7935 45.1336C54.5393 45.8967 54.2851 46.6599 54.0232 47.4461C53.6102 48.6875 53.6102 48.6875 53.1887 49.9539C52.6883 51.4502 52.1845 52.9454 51.6741 54.4383C46.4859 69.6286 42.888 85.2005 39.2215 100.81C38.2957 104.696 37.3241 108.571 36.3552 112.446C36.3552 120.036 36.3552 127.626 36.3552 135.446C62.0952 135.446 87.8352 135.446 114.355 135.446C114.355 117.159 112.142 102.325 107.352 84.8919C106.545 81.9532 105.752 79.0107 104.963 76.0672C102.006 65.1117 98.8475 54.2429 95.3552 43.4461C87.7591 42.4678 87.7591 42.4678 80.9177 45.1922C78.8449 47.3377 78.8449 47.3377 77.074 49.5985C75.1711 51.6441 74.0788 52.0698 71.3552 52.4461C71.1561 51.5973 71.1561 51.5973 70.9529 50.7313C70.7763 49.9978 70.5997 49.2643 70.4177 48.5086C70.2437 47.7777 70.0697 47.0468 69.8904 46.2938C69.5164 44.4464 69.5164 44.4464 68.3552 43.4461C66.1689 43.3735 63.9802 43.3624 61.7927 43.3836C60.5952 43.3926 59.3977 43.4017 58.1638 43.411C56.7736 43.4284 56.7736 43.4284 55.3552 43.4461Z" fill="#171811"/>
<path d="M54.3555 56.4462C58.2845 56.4152 58.2845 56.4152 62.293 56.3837C63.1192 56.3746 63.9454 56.3655 64.7966 56.3561C66.6498 56.3489 68.503 56.3959 70.3555 56.4462C71.3555 57.4462 71.3555 57.4462 71.4531 60.1688C71.4415 61.271 71.4299 62.3731 71.418 63.5087C71.4089 64.6134 71.3999 65.7181 71.3906 66.8563C71.379 67.711 71.3674 68.5656 71.3555 69.4462C73.9955 69.4462 76.6355 69.4462 79.3555 69.4462C79.3555 65.1562 79.3555 60.8662 79.3555 56.4462C82.0014 56.4193 84.647 56.3994 87.293 56.3837C88.0477 56.3753 88.8025 56.3669 89.5801 56.3583C91.5054 56.3496 93.4308 56.3939 95.3555 56.4462C96.3555 57.4462 96.3555 57.4462 96.4531 60.8251C96.4465 62.2196 96.4345 63.6142 96.418 65.0087C96.4135 65.7196 96.4089 66.4305 96.4043 67.163C96.3925 68.9241 96.3745 70.6851 96.3555 72.4462C94.0455 72.4462 91.7355 72.4462 89.3555 72.4462C89.572 73.0378 89.7886 73.6295 90.0117 74.2391C92.7773 82.0876 92.7773 82.0876 92.3555 86.4462C89.7155 86.4462 87.0755 86.4462 84.3555 86.4462C84.3555 89.0862 84.3555 91.7262 84.3555 94.4462C78.0855 94.4462 71.8155 94.4462 65.3555 94.4462C65.3555 91.8062 65.3555 89.1662 65.3555 86.4462C62.7155 86.4462 60.0755 86.4462 57.3555 86.4462C57.894 81.1687 59.1289 77.1897 61.3555 72.4462C59.0455 72.4462 56.7355 72.4462 54.3555 72.4462C54.3555 67.1662 54.3555 61.8862 54.3555 56.4462Z" fill="#21201D"/>
<path d="M66.3555 19.4461C69.4707 18.9902 71.5759 18.9232 74.2422 20.7117C76.7248 22.8561 79.0367 25.1274 81.3555 27.4461C82.6807 28.1288 84.0136 28.7968 85.3555 29.4461C86.3555 30.4461 86.3555 30.4461 86.4531 32.7313C86.4206 35.3029 86.388 37.8745 86.3555 40.4461C89.9855 40.4461 93.6155 40.4461 97.3555 40.4461C98.6255 44.5884 99.8887 48.7327 101.146 52.879C101.574 54.2868 102.003 55.694 102.435 57.1007C103.058 59.1323 103.674 61.1659 104.289 63.2C104.661 64.4202 105.033 65.6404 105.416 66.8975C106.355 70.4455 106.913 73.8101 107.355 77.4461C108.242 77.3842 109.129 77.3224 110.043 77.2586C113.804 77.4715 115.439 78.0964 118.355 80.4461C118.624 81.2299 118.892 82.0136 119.168 82.8211C120.778 86.3808 123.084 87.2916 126.48 89.0399C129.023 90.9465 129.504 92.3888 130.355 95.4461C130.644 98.0742 130.86 100.625 130.98 103.259C131.019 103.951 131.058 104.644 131.098 105.358C131.191 107.054 131.274 108.75 131.355 110.446C129.705 110.116 128.055 109.786 126.355 109.446C126.376 110.498 126.397 111.55 126.418 112.634C126.367 115.773 126.09 118.415 125.355 121.446C124.365 121.776 123.375 122.106 122.355 122.446C121.86 123.292 121.365 124.137 120.855 125.009C120.36 125.813 119.865 126.617 119.355 127.446C118.365 127.446 117.375 127.446 116.355 127.446C116.355 130.416 116.355 133.386 116.355 136.446C115.695 136.446 115.035 136.446 114.355 136.446C114.316 135.717 114.276 134.988 114.235 134.237C113.418 119.908 112.31 106.258 108.355 92.4461C107.99 91.0977 107.627 89.7488 107.266 88.3992C105.347 81.305 103.299 74.2479 101.258 67.1883C100.71 65.2882 100.71 65.2882 100.151 63.3497C99.4202 60.8159 98.6852 58.2831 97.9463 55.7515C97.6108 54.5899 97.2753 53.4282 96.9297 52.2313C96.6264 51.1885 96.323 50.1457 96.0105 49.0714C95.3555 46.4461 95.3555 46.4461 95.3555 43.4461C91.0655 43.4461 86.7755 43.4461 82.3555 43.4461C82.3555 39.8161 82.3555 36.1861 82.3555 32.4461C81.3655 33.4361 80.3755 34.4261 79.3555 35.4461C79.1247 34.7591 78.894 34.072 78.6562 33.3641C76.6849 27.624 76.6849 27.624 72.6055 23.3211C71.863 23.0324 71.1205 22.7436 70.3555 22.4461C70.6855 23.4361 71.0155 24.4261 71.3555 25.4461C71.4833 28.1201 71.3994 30.7671 71.3555 33.4461C68.7155 33.1161 66.0755 32.7861 63.3555 32.4461C63.3555 31.7861 63.3555 31.1261 63.3555 30.4461C65.0055 30.4461 66.6555 30.4461 68.3555 30.4461C67.6955 26.8161 67.0355 23.1861 66.3555 19.4461Z" fill="#181A14"/>
<path d="M35.3555 123.446C35.3555 127.406 35.3555 131.366 35.3555 135.446C36.3407 135.444 37.326 135.442 38.3412 135.439C47.6117 135.419 56.8822 135.404 66.1528 135.394C70.9193 135.389 75.6857 135.382 80.4521 135.371C85.0492 135.36 89.6463 135.354 94.2433 135.351C96.0001 135.349 97.7568 135.346 99.5135 135.34C101.968 135.333 104.422 135.332 106.876 135.333C107.608 135.329 108.34 135.325 109.093 135.322C114.127 135.332 114.127 135.332 116.355 136.446C116.355 133.476 116.355 130.506 116.355 127.446C116.685 127.446 117.015 127.446 117.355 127.446C117.971 136.41 117.971 136.41 115.98 139.759C105.578 146.446 105.578 146.446 101.355 146.446C100.86 144.961 100.86 144.961 100.355 143.446C100.025 144.766 99.6955 146.086 99.3555 147.446C96.9404 148.119 94.5237 148.785 92.1055 149.446C91.4236 149.637 90.7416 149.828 90.0391 150.024C86.6495 150.946 83.8977 151.446 80.3555 151.446C80.3286 149.3 80.3091 147.155 80.293 145.009C80.2814 143.814 80.2698 142.619 80.2578 141.388C80.3555 138.446 80.3555 138.446 81.3555 137.446C80.3655 137.776 79.3755 138.106 78.3555 138.446C78.3555 142.736 78.3555 147.026 78.3555 151.446C76.3755 151.446 74.3955 151.446 72.3555 151.446C72.0255 148.146 71.6955 144.846 71.3555 141.446C71.0255 144.746 70.6955 148.046 70.3555 151.446C63.9884 151.871 58.3892 150.461 52.3555 148.446C51.3555 147.446 51.3555 147.446 51.293 143.884C51.3136 142.749 51.3342 141.615 51.3555 140.446C50.6955 140.446 50.0355 140.446 49.3555 140.446C49.3555 139.786 49.3555 139.126 49.3555 138.446C48.2843 138.458 47.213 138.469 46.1094 138.481C44.7122 138.491 43.3151 138.5 41.918 138.509C41.2109 138.517 40.5039 138.525 39.7754 138.534C37.9685 138.543 36.1616 138.498 34.3555 138.446C33.3555 137.446 33.3555 137.446 33.2578 135.38C33.2752 134.144 33.2752 134.144 33.293 132.884C33.302 132.057 33.311 131.231 33.3203 130.38C33.3319 129.742 33.3435 129.104 33.3555 128.446C32.3655 128.116 31.3755 127.786 30.3555 127.446C30.3555 126.456 30.3555 125.466 30.3555 124.446C33.3555 123.446 33.3555 123.446 35.3555 123.446Z" fill="#151711"/>
<path d="M108.355 80.4462C111.668 80.5712 111.668 80.5712 115.355 81.4462C116.391 83.4278 117.387 85.4309 118.355 87.4462C120.253 88.6862 120.253 88.6862 122.418 89.7587C124.91 91.176 126.114 91.9198 127.32 94.5477C128.302 98.8313 128.581 103.052 128.355 107.446C126.705 106.786 125.055 106.126 123.355 105.446C123.355 109.736 123.355 114.026 123.355 118.446C121.705 117.786 120.055 117.126 118.355 116.446C118.355 118.756 118.355 121.066 118.355 123.446C117.695 123.446 117.035 123.446 116.355 123.446C116.341 122.5 116.327 121.554 116.312 120.579C116 110.37 113.949 101.356 110.973 91.6185C109.926 87.9343 109.136 84.1946 108.355 80.4462Z" fill="#F3ECC8"/>
<path d="M36.3555 80.4462C38.9336 80.3173 38.9336 80.3173 41.3555 80.4462C40.3373 86.7695 38.9937 92.9435 37.3555 99.1337C35.251 107.163 34.189 115.199 33.3555 123.446C32.6955 123.116 32.0355 122.786 31.3555 122.446C31.3555 120.466 31.3555 118.486 31.3555 116.446C29.3755 116.941 29.3755 116.941 27.3555 117.446C27.3555 113.486 27.3555 109.526 27.3555 105.446C25.7055 105.776 24.0555 106.106 22.3555 106.446C22.0239 96.8296 22.0239 96.8296 24.3555 92.4462C26.5693 90.5389 28.8686 88.8294 31.2422 87.1259C33.5713 85.4781 33.5713 85.4781 35.1055 82.5087C35.518 81.828 35.9305 81.1474 36.3555 80.4462Z" fill="#F2ECC6"/>
<path d="M55.3555 43.4462C59.6455 43.4462 63.9355 43.4462 68.3555 43.4462C71.3555 50.1962 71.3555 50.1962 71.3555 52.4462C77.4817 50.2365 77.4817 50.2365 83.3555 47.4462C82.7006 48.2634 82.0458 49.0807 81.3711 49.9227C78.7696 53.825 78.891 57.2589 79.1055 61.8212C79.1325 62.9252 79.1325 62.9252 79.1602 64.0516C79.2069 65.8504 79.2786 67.6485 79.3555 69.4462C76.7155 69.4462 74.0755 69.4462 71.3555 69.4462C71.0255 65.4862 70.6955 61.5262 70.3555 57.4462C67.5851 57.1976 64.8161 56.9716 62.043 56.7587C61.2573 56.6858 60.4716 56.613 59.6621 56.538C58.5261 56.4558 58.5261 56.4558 57.3672 56.3719C56.6707 56.3143 55.9742 56.2567 55.2566 56.1974C52.7624 56.5238 51.9343 57.5563 50.3555 59.4462C50.8078 57.5281 51.2676 55.6117 51.7305 53.6962C52.1133 52.0952 52.1133 52.0952 52.5039 50.4618C53.3555 47.4462 53.3555 47.4462 55.3555 43.4462Z" fill="#F5EDC5"/>
<path d="M42.3552 79.4461C42.3552 80.1061 42.3552 80.7661 42.3552 81.4461C43.0152 81.4461 43.6752 81.4461 44.3552 81.4461C43.7541 84.3634 43.1494 87.2799 42.5427 90.1961C42.3619 91.0743 42.181 91.9524 41.9947 92.8572C41.0522 97.3722 39.9962 101.777 38.6677 106.196C36.1795 115.608 36.5779 125.767 36.3552 135.446C36.0252 135.446 35.6952 135.446 35.3552 135.446C35.3552 131.486 35.3552 127.526 35.3552 123.446C32.8802 123.941 32.8802 123.941 30.3552 124.446C30.0252 125.106 29.6952 125.766 29.3552 126.446C25.5458 120.793 24.6278 116.22 24.3552 109.446C21.8802 109.941 21.8802 109.941 19.3552 110.446C18.6923 95.713 18.6923 95.713 22.3552 90.4461C24.5727 88.4682 26.836 86.7514 29.2967 85.0867C31.4982 83.3321 32.2305 81.9794 33.3552 79.4461C36.7895 76.8408 38.6513 77.5941 42.3552 79.4461ZM34.0427 83.5711C33.6393 84.2105 33.2358 84.8498 32.8201 85.5086C31.1459 87.723 29.39 89.0072 27.1052 90.5711C24.0941 92.6669 24.0941 92.6669 22.3552 95.8211C22.3552 96.6873 22.3552 97.5536 22.3552 98.4461C22.3436 99.1357 22.332 99.8254 22.3201 100.536C22.2959 102.506 22.3219 104.476 22.3552 106.446C24.0052 106.116 25.6552 105.786 27.3552 105.446C27.3552 109.406 27.3552 113.366 27.3552 117.446C29.3352 116.951 29.3352 116.951 31.3552 116.446C31.3552 118.426 31.3552 120.406 31.3552 122.446C32.0152 122.776 32.6752 123.106 33.3552 123.446C33.5931 121.628 33.5931 121.628 33.8357 119.774C35.2306 109.605 37.0847 99.7309 39.729 89.8084C39.9395 89.0172 40.1501 88.2261 40.367 87.4109C40.5573 86.716 40.7477 86.0212 40.9439 85.3052C41.4633 83.2752 41.4633 83.2752 41.3552 80.4461C37.232 79.6214 36.6039 80.11 34.0427 83.5711Z" fill="#1F1F1D"/>
<path d="M65.3555 72.4461C67.4185 72.1055 67.4185 72.1055 69.9258 72.1531C70.8217 72.1628 71.7176 72.1725 72.6406 72.1824C74.0463 72.2201 74.0463 72.2201 75.4805 72.2586C76.4254 72.2721 77.3702 72.2857 78.3438 72.2996C80.6816 72.335 83.0182 72.3844 85.3555 72.4461C86.0263 74.0694 86.692 75.6948 87.3555 77.3211C87.7267 78.226 88.098 79.1309 88.4805 80.0633C89.3555 82.4461 89.3555 82.4461 89.3555 84.4461C79.7855 84.4461 70.2155 84.4461 60.3555 84.4461C63.3555 75.4461 63.3555 75.4461 65.3555 72.4461Z" fill="#EA7E28"/>
<path d="M54.3555 56.4462C59.6355 56.4462 64.9155 56.4462 70.3555 56.4462C70.4894 68.7676 70.4894 68.7676 69.3555 72.4462C68.7419 72.5171 68.1283 72.588 67.4961 72.661C65.1748 73.2612 65.1748 73.2612 64.0898 75.5126C63.765 76.3363 63.4402 77.16 63.1055 78.0087C62.7703 78.835 62.4352 79.6612 62.0898 80.5126C61.8475 81.1507 61.6052 81.7887 61.3555 82.4462C60.3655 82.4462 59.3755 82.4462 58.3555 82.4462C58.9654 78.8884 59.9338 75.7633 61.3555 72.4462C59.0455 72.4462 56.7355 72.4462 54.3555 72.4462C54.3555 67.1662 54.3555 61.8862 54.3555 56.4462Z" fill="#131311"/>
<path d="M66.3555 19.4461C69.4707 18.9902 71.5759 18.9232 74.2422 20.7117C76.7248 22.8561 79.0367 25.1274 81.3555 27.4461C82.6807 28.1288 84.0136 28.7968 85.3555 29.4461C86.3555 30.4461 86.3555 30.4461 86.4531 32.7313C86.4206 35.3029 86.388 37.8745 86.3555 40.4461C89.9855 40.4461 93.6155 40.4461 97.3555 40.4461C98.7028 44.6501 100.031 48.8599 101.355 53.0711C101.737 54.2609 102.119 55.4507 102.512 56.6766C103.053 58.4072 103.053 58.4072 103.605 60.1727C103.941 61.2305 104.276 62.2884 104.621 63.3783C105.372 66.5149 105.49 69.2338 105.355 72.4461C104.695 72.4461 104.035 72.4461 103.355 72.4461C102.015 68.1774 100.684 63.9058 99.3555 59.6336C98.9739 58.4187 98.5923 57.2037 98.1992 55.952C97.8383 54.7886 97.4773 53.6252 97.1055 52.4266C96.7703 51.353 96.4352 50.2795 96.0898 49.1734C95.3555 46.4461 95.3555 46.4461 95.3555 43.4461C91.0655 43.4461 86.7755 43.4461 82.3555 43.4461C82.3555 39.8161 82.3555 36.1861 82.3555 32.4461C81.3655 33.4361 80.3755 34.4261 79.3555 35.4461C79.1247 34.7591 78.894 34.072 78.6562 33.3641C76.6849 27.624 76.6849 27.624 72.6055 23.3211C71.863 23.0324 71.1205 22.7436 70.3555 22.4461C70.6855 23.4361 71.0155 24.4261 71.3555 25.4461C71.4833 28.1201 71.3994 30.7671 71.3555 33.4461C68.7155 33.1161 66.0755 32.7861 63.3555 32.4461C63.3555 31.7861 63.3555 31.1261 63.3555 30.4461C65.0055 30.4461 66.6555 30.4461 68.3555 30.4461C67.6955 26.8161 67.0355 23.1861 66.3555 19.4461Z" fill="#0E120C"/>
<path d="M70.3555 22.4462C76.184 24.7776 76.184 24.7776 78.3555 29.4462C79.043 32.2587 79.043 32.2587 79.3555 34.4462C80.6755 33.4562 81.9955 32.4662 83.3555 31.4462C83.8786 34.5847 84.0012 37.3185 83.3555 40.4462C81.0868 43.6006 78.4825 46.1417 75.3555 48.4462C74.6955 48.4462 74.0355 48.4462 73.3555 48.4462C72.3125 46.9071 72.3125 46.9071 71.168 44.8212C68.8577 40.9269 66.2589 38.3514 62.7109 35.5751C62.2636 35.2025 61.8163 34.83 61.3555 34.4462C61.3555 34.1162 61.3555 33.7862 61.3555 33.4462C64.6555 33.4462 67.9555 33.4462 71.3555 33.4462C71.0255 29.8162 70.6955 26.1862 70.3555 22.4462Z" fill="#E24338"/>
<path d="M89.3555 79.4462C90.3455 80.1062 91.3355 80.7662 92.3555 81.4462C92.543 84.0712 92.543 84.0712 92.3555 86.4462C89.7155 86.4462 87.0755 86.4462 84.3555 86.4462C84.3555 89.0862 84.3555 91.7262 84.3555 94.4462C78.0855 94.4462 71.8155 94.4462 65.3555 94.4462C65.3555 91.8062 65.3555 89.1662 65.3555 86.4462C62.7155 86.4462 60.0755 86.4462 57.3555 86.4462C57.3555 85.1262 57.3555 83.8062 57.3555 82.4462C58.3455 82.1162 59.3355 81.7862 60.3555 81.4462C60.3555 82.4362 60.3555 83.4262 60.3555 84.4462C69.9255 84.4462 79.4955 84.4462 89.3555 84.4462C89.3555 82.7962 89.3555 81.1462 89.3555 79.4462Z" fill="#050406"/>
<path d="M51.3555 138.446C57.6255 138.446 63.8955 138.446 70.3555 138.446C70.3555 142.736 70.3555 147.026 70.3555 151.446C63.9884 151.871 58.3892 150.461 52.3555 148.446C52.0255 148.116 51.6955 147.786 51.3555 147.446C51.3555 144.476 51.3555 141.506 51.3555 138.446Z" fill="#E2872C"/>
<path d="M80.3555 138.446C86.6255 138.446 92.8955 138.446 99.3555 138.446C99.3555 141.416 99.3555 144.386 99.3555 147.446C96.9404 148.119 94.5237 148.785 92.1055 149.446C91.4236 149.637 90.7416 149.828 90.0391 150.024C86.6495 150.946 83.8977 151.446 80.3555 151.446C80.3555 147.156 80.3555 142.866 80.3555 138.446Z" fill="#E6892E"/>
<path d="M33.3554 86.4462C32.4156 86.9779 32.4156 86.9779 31.4569 87.5204C27.3605 90.1889 24.7992 92.0166 23.3124 96.8056C22.8445 100.028 22.507 103.194 22.3554 106.446C24.0054 106.116 25.6554 105.786 27.3554 105.446C27.3554 109.406 27.3554 113.366 27.3554 117.446C28.6754 117.116 29.9954 116.786 31.3554 116.446C32.0154 119.086 32.6754 121.726 33.3554 124.446C32.3654 124.446 31.3754 124.446 30.3554 124.446C30.0254 125.106 29.6954 125.766 29.3554 126.446C25.5459 120.793 24.6279 116.22 24.3554 109.446C22.7054 109.776 21.0554 110.106 19.3554 110.446C18.7047 95.9861 18.7047 95.9861 22.3554 90.4462C25.851 86.9167 28.3942 84.7125 33.3554 86.4462Z" fill="#171A16"/>
<path d="M81.3555 47.4462C82.0155 47.7762 82.6755 48.1062 83.3555 48.4462C82.7006 49.0997 82.0458 49.7533 81.3711 50.4266C78.7253 54.3901 78.8902 57.1258 79.1055 61.7587C79.1325 62.8695 79.1325 62.8695 79.1602 64.0028C79.207 65.8178 79.2787 67.6322 79.3555 69.4462C76.7155 69.4462 74.0755 69.4462 71.3555 69.4462C71.0255 65.4862 70.6955 61.5262 70.3555 57.4462C65.0755 57.1162 59.7955 56.7862 54.3555 56.4462C54.3555 56.1162 54.3555 55.7862 54.3555 55.4462C62.7705 54.9512 62.7705 54.9512 71.3555 54.4462C70.6955 53.4562 70.0355 52.4662 69.3555 51.4462C69.6855 50.4562 70.0155 49.4662 70.3555 48.4462C70.6855 49.7662 71.0155 51.0862 71.3555 52.4462C72.6496 51.9947 73.9407 51.5348 75.2305 51.0712C76.3094 50.6883 76.3094 50.6883 77.4102 50.2977C79.537 49.5074 79.537 49.5074 81.3555 47.4462Z" fill="#F9F4D7"/>
<path d="M66.3555 19.4461C69.4707 18.9902 71.5759 18.9232 74.2422 20.7117C76.7248 22.8561 79.0367 25.1274 81.3555 27.4461C82.6729 28.1436 84.0046 28.8157 85.3555 29.4461C85.3555 30.7661 85.3555 32.0861 85.3555 33.4461C84.3655 33.1161 83.3755 32.7861 82.3555 32.4461C81.3655 33.4361 80.3755 34.4261 79.3555 35.4461C79.1247 34.7591 78.894 34.072 78.6562 33.3641C76.6849 27.624 76.6849 27.624 72.6055 23.3211C71.863 23.0324 71.1205 22.7436 70.3555 22.4461C70.6855 23.4361 71.0155 24.4261 71.3555 25.4461C71.4833 28.1201 71.3994 30.7671 71.3555 33.4461C68.7155 33.1161 66.0755 32.7861 63.3555 32.4461C63.3555 31.7861 63.3555 31.1261 63.3555 30.4461C65.0055 30.4461 66.6555 30.4461 68.3555 30.4461C67.6955 26.8161 67.0355 23.1861 66.3555 19.4461Z" fill="#15110C"/>
<path d="M123.355 105.446C123.685 105.446 124.015 105.446 124.355 105.446C124.355 107.756 124.355 110.066 124.355 112.446C125.015 112.446 125.675 112.446 126.355 112.446C126.025 115.416 125.695 118.386 125.355 121.446C124.365 121.776 123.375 122.106 122.355 122.446C121.86 123.292 121.365 124.137 120.855 125.009C120.36 125.813 119.865 126.617 119.355 127.446C118.365 127.446 117.375 127.446 116.355 127.446C116.355 130.416 116.355 133.386 116.355 136.446C115.695 136.446 115.035 136.446 114.355 136.446C114.355 129.846 114.355 123.246 114.355 116.446C115.015 116.446 115.675 116.446 116.355 116.446C116.355 118.756 116.355 121.066 116.355 123.446C117.015 123.446 117.675 123.446 118.355 123.446C118.355 121.136 118.355 118.826 118.355 116.446C119.675 116.776 120.995 117.106 122.355 117.446C122.685 113.486 123.015 109.526 123.355 105.446Z" fill="#121310"/>
<path d="M71.5156 86.3485C73.4473 86.3659 73.4473 86.3659 75.418 86.3837C76.7083 86.3927 77.9987 86.4017 79.3281 86.411C80.3272 86.4226 81.3262 86.4342 82.3555 86.4462C82.3982 88.1123 82.3961 89.78 82.3555 91.4462C81.3555 92.4462 81.3555 92.4462 78.1953 92.5438C76.2637 92.5264 76.2637 92.5264 74.293 92.5087C73.0026 92.4996 71.7123 92.4906 70.3828 92.4813C69.3838 92.4697 68.3848 92.4581 67.3555 92.4462C67.3128 90.78 67.3148 89.1123 67.3555 87.4462C68.3555 86.4462 68.3555 86.4462 71.5156 86.3485Z" fill="#C36722"/>
<path d="M51.3555 109.446C52.0155 109.446 52.6755 109.446 53.3555 109.446C53.3696 110.038 53.3838 110.63 53.3984 111.239C53.6424 115.281 54.0467 117.935 56.168 121.446C60.9593 124.452 65.797 124.349 71.3555 124.446C71.3555 125.436 71.3555 126.426 71.3555 127.446C59.5344 128.135 59.5344 128.135 55.7305 125.634C52.9848 123.105 51.4348 121.542 51.1602 117.747C51.1834 116.761 51.2066 115.775 51.2305 114.759C51.2485 113.765 51.2666 112.771 51.2852 111.747C51.3084 110.988 51.3316 110.228 51.3555 109.446Z" fill="#1E1F1C"/>
<path d="M72.3555 138.446C74.3355 138.446 76.3155 138.446 78.3555 138.446C78.3555 142.736 78.3555 147.026 78.3555 151.446C76.3755 151.446 74.3955 151.446 72.3555 151.446C72.3555 147.156 72.3555 142.866 72.3555 138.446Z" fill="#6EA34C"/>
<path d="M57.3555 59.4462C60.9855 59.4462 64.6155 59.4462 68.3555 59.4462C68.3555 61.4262 68.3555 63.4062 68.3555 65.4462C67.6955 65.4462 67.0355 65.4462 66.3555 65.4462C66.3555 64.7862 66.3555 64.1262 66.3555 63.4462C64.7055 63.4462 63.0555 63.4462 61.3555 63.4462C61.3555 65.4262 61.3555 67.4062 61.3555 69.4462C60.0355 69.4462 58.7155 69.4462 57.3555 69.4462C57.3555 66.1462 57.3555 62.8462 57.3555 59.4462Z" fill="#E6E5DA"/>
<path d="M82.3555 59.4462C85.9855 59.4462 89.6155 59.4462 93.3555 59.4462C93.3555 62.7462 93.3555 66.0462 93.3555 69.4462C92.0355 69.4462 90.7155 69.4462 89.3555 69.4462C89.3555 67.4662 89.3555 65.4862 89.3555 63.4462C87.0455 63.7762 84.7355 64.1062 82.3555 64.4462C82.3555 62.7962 82.3555 61.1462 82.3555 59.4462Z" fill="#E3E2E0"/>
<path d="M42.3555 79.4461C42.3555 80.1061 42.3555 80.7661 42.3555 81.4461C43.0155 81.4461 43.6755 81.4461 44.3555 81.4461C43.3655 85.4061 42.3755 89.3661 41.3555 93.4461C40.6955 93.4461 40.0355 93.4461 39.3555 93.4461C39.497 91.8415 39.6438 90.2375 39.793 88.6336C39.8742 87.7403 39.9554 86.8469 40.0391 85.9266C40.3555 83.4461 40.3555 83.4461 41.3555 80.4461C38.9107 80.6344 38.9107 80.6344 36.3555 81.4461C34.9953 83.4137 34.9953 83.4137 34.3555 85.4461C33.0355 85.1161 31.7155 84.7861 30.3555 84.4461C31.7346 81.8257 32.8627 79.8239 35.2305 78.0086C38.1513 77.2354 39.7136 78.1251 42.3555 79.4461Z" fill="#1A1D19"/>
<path d="M49.3555 138.446C49.3555 141.086 49.3555 143.726 49.3555 146.446C45.5952 145.865 42.8251 144.794 39.543 142.884C38.7528 142.429 37.9626 141.974 37.1484 141.505C36.5568 141.155 35.9651 140.806 35.3555 140.446C35.3555 140.116 35.3555 139.786 35.3555 139.446C37.1261 139.278 38.897 139.112 40.668 138.946C41.6541 138.853 42.6402 138.761 43.6562 138.665C46.3555 138.446 46.3555 138.446 49.3555 138.446Z" fill="#73AD4C"/>
<path d="M102.355 138.446C106.975 138.446 111.595 138.446 116.355 138.446C113.58 141.222 111.685 142.457 108.23 144.134C107.341 144.571 106.452 145.008 105.535 145.458C103.355 146.446 103.355 146.446 102.355 146.446C102.355 143.806 102.355 141.166 102.355 138.446Z" fill="#7DBE47"/>
<path d="M25.3555 105.446C26.0155 105.446 26.6755 105.446 27.3555 105.446C27.3555 109.406 27.3555 113.366 27.3555 117.446C28.6755 117.116 29.9955 116.786 31.3555 116.446C32.0155 119.086 32.6755 121.726 33.3555 124.446C32.3655 124.446 31.3755 124.446 30.3555 124.446C30.0255 125.106 29.6955 125.766 29.3555 126.446C25.8076 121.067 24.6466 116.865 24.3555 110.446C25.0155 110.446 25.6755 110.446 26.3555 110.446C26.0255 108.796 25.6955 107.146 25.3555 105.446Z" fill="#131712"/>
<path d="M86.3555 79.4462C87.8555 80.8212 87.8555 80.8212 89.3555 82.4462C89.3555 83.1062 89.3555 83.7662 89.3555 84.4462C79.7855 84.4462 70.2155 84.4462 60.3555 84.4462C60.6855 83.4562 61.0155 82.4662 61.3555 81.4462C69.6055 81.4462 77.8555 81.4462 86.3555 81.4462C86.3555 80.7862 86.3555 80.1262 86.3555 79.4462Z" fill="#C86C22"/>
<path d="M112.355 96.4462C115.987 102.932 116.652 109.178 116.355 116.446C115.695 116.446 115.035 116.446 114.355 116.446C114.025 117.766 113.695 119.086 113.355 120.446C113.223 119.349 113.09 118.252 112.953 117.122C112.775 115.668 112.596 114.213 112.418 112.759C112.331 112.037 112.244 111.316 112.154 110.573C111.692 106.826 111.164 103.138 110.355 99.4462C111.015 99.4462 111.675 99.4462 112.355 99.4462C112.355 98.4562 112.355 97.4662 112.355 96.4462Z" fill="#35352E"/>
<path d="M82.3555 34.4462C82.6855 34.4462 83.0155 34.4462 83.3555 34.4462C83.8555 36.9462 83.8555 36.9462 83.3555 40.4462C80.9926 43.4564 78.3567 46.0717 75.3555 48.4462C74.6955 48.4462 74.0355 48.4462 73.3555 48.4462C73.0255 46.7962 72.6955 45.1462 72.3555 43.4462C72.9536 43.343 73.5517 43.2399 74.168 43.1337C78.5861 41.7451 80.089 38.258 82.3555 34.4462Z" fill="#EC5547"/>
<path d="M105.355 136.446C104.365 136.776 103.375 137.106 102.355 137.446C102.355 140.416 102.355 143.386 102.355 146.446C101.365 145.456 100.375 144.466 99.3555 143.446C99.3555 141.796 99.3555 140.146 99.3555 138.446C93.4155 138.446 87.4755 138.446 81.3555 138.446C81.3555 138.116 81.3555 137.786 81.3555 137.446C89.3788 136.546 97.2852 136.331 105.355 136.446Z" fill="#171710"/>
<path d="M114.355 116.446C115.015 116.446 115.675 116.446 116.355 116.446C116.355 119.086 116.355 121.726 116.355 124.446C117.015 124.446 117.675 124.446 118.355 124.446C118.685 125.436 119.015 126.426 119.355 127.446C118.365 127.446 117.375 127.446 116.355 127.446C116.355 130.416 116.355 133.386 116.355 136.446C115.695 136.446 115.035 136.446 114.355 136.446C114.355 129.846 114.355 123.246 114.355 116.446Z" fill="#020301"/>
<path d="M128.355 99.4462C129.015 99.4462 129.675 99.4462 130.355 99.4462C131.531 103.12 131.429 106.615 131.355 110.446C129.705 110.116 128.055 109.786 126.355 109.446C126.355 110.436 126.355 111.426 126.355 112.446C125.695 112.446 125.035 112.446 124.355 112.446C124.355 110.136 124.355 107.826 124.355 105.446C125.345 105.776 126.335 106.106 127.355 106.446C127.685 104.136 128.015 101.826 128.355 99.4462Z" fill="#0A0A0A"/>
<path d="M85.3555 30.4462C85.6855 30.4462 86.0155 30.4462 86.3555 30.4462C86.3555 33.7462 86.3555 37.0462 86.3555 40.4462C89.9855 40.4462 93.6155 40.4462 97.3555 40.4462C97.3555 40.7762 97.3555 41.1062 97.3555 41.4462C92.4055 41.4462 87.4555 41.4462 82.3555 41.4462C82.6855 38.8062 83.0155 36.1662 83.3555 33.4462C84.0155 33.4462 84.6755 33.4462 85.3555 33.4462C85.3555 32.4562 85.3555 31.4662 85.3555 30.4462Z" fill="#2A291B"/>
<path d="M55.3555 43.4462C59.6455 43.4462 63.9355 43.4462 68.3555 43.4462C68.6855 44.7662 69.0155 46.0862 69.3555 47.4462C68.3964 47.1987 68.3964 47.1987 67.418 46.9462C63.3796 46.2868 59.4374 46.3661 55.3555 46.4462C55.3555 45.4562 55.3555 44.4662 55.3555 43.4462Z" fill="#EDEACE"/>
<path d="M38.3555 91.4462C38.6855 92.1062 39.0155 92.7662 39.3555 93.4462C40.0155 93.4462 40.6755 93.4462 41.3555 93.4462C40.6955 97.0762 40.0355 100.706 39.3555 104.446C38.3655 104.116 37.3755 103.786 36.3555 103.446C37.3555 94.8747 37.3555 94.8747 38.3555 91.4462Z" fill="#2D2C28"/>
<path d="M91.3555 57.4462C92.6755 57.4462 93.9955 57.4462 95.3555 57.4462C95.3555 62.0662 95.3555 66.6862 95.3555 71.4462C94.3655 71.1162 93.3755 70.7862 92.3555 70.4462C92.6855 66.8162 93.0155 63.1862 93.3555 59.4462C92.3655 59.1162 91.3755 58.7862 90.3555 58.4462C90.6855 58.1162 91.0155 57.7862 91.3555 57.4462Z" fill="#050405"/>
<path d="M20.3555 101.446C20.6855 101.446 21.0155 101.446 21.3555 101.446C21.3555 103.426 21.3555 105.406 21.3555 107.446C23.0055 107.116 24.6555 106.786 26.3555 106.446C26.3555 107.766 26.3555 109.086 26.3555 110.446C24.0455 110.446 21.7355 110.446 19.3555 110.446C19.2578 104.294 19.2578 104.294 19.3555 102.446C19.6855 102.116 20.0155 101.786 20.3555 101.446Z" fill="#050507"/>
<path d="M90.9805 40.8837C92.169 40.9856 93.3575 41.0874 94.582 41.1923C95.4973 41.2761 96.4125 41.3599 97.3555 41.4462C97.0255 42.4362 96.6955 43.4262 96.3555 44.4462C89.4255 43.9512 89.4255 43.9512 82.3555 43.4462C82.3555 42.7862 82.3555 42.1262 82.3555 41.4462C85.2993 39.9743 87.7294 40.5969 90.9805 40.8837Z" fill="#060806"/>
<path d="M112.355 96.4462C114.476 99.9803 114.887 103.39 115.355 107.446C114.695 107.446 114.035 107.446 113.355 107.446C113.025 108.106 112.695 108.766 112.355 109.446C111.695 106.146 111.035 102.846 110.355 99.4462C111.015 99.4462 111.675 99.4462 112.355 99.4462C112.355 98.4562 112.355 97.4662 112.355 96.4462Z" fill="#2A2A24"/>
<path d="M33.3555 117.446C34.0155 117.446 34.6755 117.446 35.3555 117.446C36.9496 120.634 36.4572 124.075 36.418 127.571C36.4135 128.325 36.4089 129.079 36.4043 129.856C36.3925 131.72 36.3746 133.583 36.3555 135.446C36.0255 135.446 35.6955 135.446 35.3555 135.446C35.3555 131.486 35.3555 127.526 35.3555 123.446C34.6955 123.446 34.0355 123.446 33.3555 123.446C33.3555 121.466 33.3555 119.486 33.3555 117.446Z" fill="#302F28"/>
<path d="M123.355 105.446C123.685 105.446 124.015 105.446 124.355 105.446C124.355 107.756 124.355 110.066 124.355 112.446C125.015 112.446 125.675 112.446 126.355 112.446C126.025 115.416 125.695 118.386 125.355 121.446C124.695 121.116 124.035 120.786 123.355 120.446C123.355 115.496 123.355 110.546 123.355 105.446Z" fill="#272723"/>
<path d="M51.3555 44.4462C52.3455 45.4362 53.3355 46.4262 54.3555 47.4462C53.6955 49.7562 53.0355 52.0662 52.3555 54.4462C51.3655 54.4462 50.3755 54.4462 49.3555 54.4462C49.8137 50.9768 50.2468 47.7722 51.3555 44.4462Z" fill="#1C211A"/>
<path d="M110.355 138.446C112.335 138.446 114.315 138.446 116.355 138.446C113.986 141.065 111.518 142.865 108.355 144.446C107.365 144.116 106.375 143.786 105.355 143.446C106.345 143.116 107.335 142.786 108.355 142.446C109.564 140.446 109.564 140.446 110.355 138.446Z" fill="#76B545"/>
<path d="M108.355 88.4462C109.345 88.7762 110.335 89.1062 111.355 89.4462C111.685 92.7462 112.015 96.0462 112.355 99.4462C111.695 99.4462 111.035 99.4462 110.355 99.4462C109.163 95.5693 108.355 92.5299 108.355 88.4462Z" fill="#0C0D0A"/>
<path d="M105.355 80.4462C106.675 80.7762 107.995 81.1062 109.355 81.4462C109.685 83.7562 110.015 86.0662 110.355 88.4462C109.695 88.4462 109.035 88.4462 108.355 88.4462C108.025 89.1062 107.695 89.7662 107.355 90.4462C106.695 87.1462 106.035 83.8462 105.355 80.4462Z" fill="#24251E"/>
<path d="M52.3555 41.4462C56.3155 41.4462 60.2755 41.4462 64.3555 41.4462C60.3555 43.4462 60.3555 43.4462 57.7305 43.9462C55.1802 44.2572 55.1802 44.2572 53.3555 46.4462C53.0255 44.7962 52.6955 43.1462 52.3555 41.4462Z" fill="#080A08"/>
<path d="M25.3555 105.446C26.0155 105.446 26.6755 105.446 27.3555 105.446C27.3555 109.406 27.3555 113.366 27.3555 117.446C26.6955 117.446 26.0355 117.446 25.3555 117.446C25.0255 115.136 24.6955 112.826 24.3555 110.446C25.0155 110.446 25.6755 110.446 26.3555 110.446C26.0255 108.796 25.6955 107.146 25.3555 105.446Z" fill="#282822"/>
<path d="M127.355 91.4462C128.015 91.7762 128.675 92.1062 129.355 92.4462C129.763 94.7677 130.1 97.103 130.355 99.4462C129.695 99.4462 129.035 99.4462 128.355 99.4462C128.025 100.106 127.695 100.766 127.355 101.446C127.161 99.9679 126.975 98.4885 126.793 97.0087C126.689 96.185 126.584 95.3612 126.477 94.5126C126.437 93.8307 126.397 93.1487 126.355 92.4462C126.685 92.1162 127.015 91.7862 127.355 91.4462Z" fill="#21251F"/>
<path d="M44.3555 73.4462C44.6855 73.4462 45.0155 73.4462 45.3555 73.4462C45.3555 75.7562 45.3555 78.0662 45.3555 80.4462C44.3655 80.7762 43.3755 81.1062 42.3555 81.4462C42.3555 80.7862 42.3555 80.1262 42.3555 79.4462C41.3655 79.1162 40.3755 78.7862 39.3555 78.4462C40.3455 78.1162 41.3355 77.7862 42.3555 77.4462C43.5643 75.446 43.5643 75.446 44.3555 73.4462Z" fill="#100F0F"/>
<path d="M71.3555 46.4462C72.0155 46.4462 72.6755 46.4462 73.3555 46.4462C73.3555 47.1062 73.3555 47.7662 73.3555 48.4462C74.3455 48.1162 75.3355 47.7862 76.3555 47.4462C76.3555 48.1062 76.3555 48.7662 76.3555 49.4462C75.6955 49.4462 75.0355 49.4462 74.3555 49.4462C74.6855 50.4362 75.0155 51.4262 75.3555 52.4462C74.0355 52.4462 72.7155 52.4462 71.3555 52.4462C70.9733 50.79 70.6415 49.1216 70.3555 47.4462C70.6855 47.1162 71.0155 46.7862 71.3555 46.4462Z" fill="#2A211C"/>
<path d="M69.3555 27.4462C71.3555 29.4462 71.3555 29.4462 71.3555 33.4462C68.7155 33.1162 66.0755 32.7862 63.3555 32.4462C63.3555 31.7862 63.3555 31.1262 63.3555 30.4462C65.3355 30.4462 67.3155 30.4462 69.3555 30.4462C69.3555 29.4562 69.3555 28.4662 69.3555 27.4462Z" fill="#050605"/>
<path d="M96.3555 57.4462C97.3455 57.7762 98.3355 58.1062 99.3555 58.4462C99.0255 59.4362 98.6955 60.4262 98.3555 61.4462C98.1337 63.3383 97.9493 65.235 97.793 67.1337C97.7092 68.1275 97.6254 69.1214 97.5391 70.1454C97.4785 70.9046 97.4179 71.6639 97.3555 72.4462C97.0255 72.4462 96.6955 72.4462 96.3555 72.4462C96.3555 67.4962 96.3555 62.5462 96.3555 57.4462Z" fill="#FDF8D5"/>
<path d="M40.3555 85.4462C41.0155 85.4462 41.6755 85.4462 42.3555 85.4462C42.4805 91.1962 42.4805 91.1962 41.3555 93.4462C40.6955 93.4462 40.0355 93.4462 39.3555 93.4462C39.2305 87.6962 39.2305 87.6962 40.3555 85.4462Z" fill="#181819"/>
<path d="M81.3555 27.4462C82.6755 28.1062 83.9955 28.7662 85.3555 29.4462C85.3555 30.7662 85.3555 32.0862 85.3555 33.4462C82.8805 32.4562 82.8805 32.4562 80.3555 31.4462C80.6855 30.1262 81.0155 28.8062 81.3555 27.4462Z" fill="#050403"/>
<path d="M128.355 99.4462C129.015 99.4462 129.675 99.4462 130.355 99.4462C130.685 102.086 131.015 104.726 131.355 107.446C130.365 107.446 129.375 107.446 128.355 107.446C128.355 104.806 128.355 102.166 128.355 99.4462Z" fill="#121413"/>
<path d="M88.3553 72.4462C90.3004 75.3638 90.8081 77.0715 91.3553 80.4462C89.8703 81.4362 89.8703 81.4362 88.3553 82.4462C87.606 78.7831 87.1173 76.0226 88.3553 72.4462Z" fill="#342C22"/>
<path d="M40.3555 79.4462C41.0155 79.4462 41.6755 79.4462 42.3555 79.4462C42.3555 80.1062 42.3555 80.7662 42.3555 81.4462C43.0155 81.4462 43.6755 81.4462 44.3555 81.4462C44.0255 83.4262 43.6955 85.4062 43.3555 87.4462C43.0255 86.7862 42.6955 86.1262 42.3555 85.4462C41.6955 85.4462 41.0355 85.4462 40.3555 85.4462C40.3555 83.4662 40.3555 81.4862 40.3555 79.4462Z" fill="#2E2D2A"/>
<path d="M44.3555 68.4462C45.3455 68.7762 46.3355 69.1062 47.3555 69.4462C47.0255 71.7562 46.6955 74.0662 46.3555 76.4462C45.3655 75.7862 44.3755 75.1262 43.3555 74.4462C43.6855 72.4662 44.0155 70.4862 44.3555 68.4462Z" fill="#21241F"/>
<path d="M70.3555 22.4462C72.8305 23.4362 72.8305 23.4362 75.3555 24.4462C74.3655 24.7762 73.3755 25.1062 72.3555 25.4462C72.3555 27.7562 72.3555 30.0662 72.3555 32.4462C72.0255 32.4462 71.6955 32.4462 71.3555 32.4462C71.0255 29.1462 70.6955 25.8462 70.3555 22.4462Z" fill="#D93730"/>
</svg>
