<svg width="153" height="153" viewBox="0 0 153 153" fill="none" xmlns="http://www.w3.org/2000/svg">
<path d="M75.4572 0.0234375C76.5336 0.0157031 77.6099 0.00796875 78.7189 0C97.678 0.0461853 115.81 7.70774 129.582 20.7734C144.769 36.7594 152.697 55.9445 152.289 77.887C151.549 98.0166 143.939 117.325 128.957 131.273C128.297 131.273 127.637 131.273 126.957 131.273C126.833 130.469 126.71 129.665 126.582 128.836C126.273 127.567 126.273 127.567 125.957 126.273C125.297 125.943 124.637 125.613 123.957 125.273C124.222 126.126 124.222 126.126 124.492 126.996C125.082 129.611 125.303 131.608 124.957 134.273C117.822 143.938 99.3233 149.874 88.0129 151.976C68.6562 154.776 49.1826 150.486 33.1252 139.301C30.6399 137.395 28.1746 135.491 25.9572 133.273C26.6364 124.987 26.6364 124.987 28.9572 121.273C26.2634 123.788 24.5091 125.946 22.9572 129.273C13.1091 121.837 8.16465 111.667 3.95719 100.273C3.6027 99.3311 3.24821 98.3888 2.88297 97.418C-1.90192 81.1655 -0.631623 61.7459 5.95719 46.2734C6.41481 45.188 6.87243 44.1027 7.34391 42.9844C10.6059 35.9243 14.79 30.0603 19.9572 24.2734C20.6352 23.5013 21.3133 22.7291 22.0119 21.9336C36.1971 6.73513 55.1089 -0.122778 75.4572 0.0234375Z" fill="#111711"/>
<path d="M75.4572 0.0234375C76.5336 0.0157031 77.6099 0.00796875 78.7189 0C97.678 0.0461853 115.81 7.70774 129.582 20.7734C144.769 36.7594 152.697 55.9445 152.289 77.887C151.549 98.0166 143.939 117.325 128.957 131.273C128.297 131.273 127.637 131.273 126.957 131.273C126.822 130.693 126.686 130.113 126.547 129.516C124.841 123.324 122.448 119.691 116.957 116.273C112.34 113.86 107.745 113.842 102.645 113.648C101.809 113.61 100.973 113.571 100.111 113.531C98.0604 113.437 96.0088 113.354 93.9572 113.273C93.9572 112.943 93.9572 112.613 93.9572 112.273C103.857 111.778 103.857 111.778 113.957 111.273C113.957 82.2334 113.957 53.1934 113.957 23.2734C88.2172 23.2734 62.4772 23.2734 35.9572 23.2734C35.9572 52.3134 35.9572 81.3534 35.9572 111.273C42.5572 111.603 49.1572 111.933 55.9572 112.273C55.9572 112.603 55.9572 112.933 55.9572 113.273C54.7622 113.288 53.5673 113.302 52.3361 113.316C39.739 113.397 39.739 113.397 28.9572 119.273C26.4383 122.438 24.7447 125.675 22.9572 129.273C13.1091 121.837 8.16465 111.667 3.95719 100.273C3.6027 99.3311 3.24821 98.3888 2.88297 97.418C-1.90192 81.1655 -0.631623 61.7459 5.95719 46.2734C6.41481 45.188 6.87243 44.1027 7.34391 42.9844C10.6059 35.9243 14.79 30.0603 19.9572 24.2734C20.6352 23.5013 21.3133 22.7291 22.0119 21.9336C36.1971 6.73513 55.1089 -0.122778 75.4572 0.0234375Z" fill="#7BBD4E"/>
<path d="M48.957 46.2734C66.117 46.2734 83.277 46.2734 100.957 46.2734C100.957 49.5734 100.957 52.8734 100.957 56.2734C104.587 56.2734 108.217 56.2734 111.957 56.2734C111.957 73.7634 111.957 91.2534 111.957 109.273C106.017 109.273 100.077 109.273 93.957 109.273C93.957 102.013 93.957 94.7534 93.957 87.2734C90.987 87.2734 88.017 87.2734 84.957 87.2734C84.957 83.6434 84.957 80.0134 84.957 76.2734C78.357 76.2734 71.757 76.2734 64.957 76.2734C64.957 79.9034 64.957 83.5334 64.957 87.2734C61.987 87.2734 59.017 87.2734 55.957 87.2734C55.957 94.5334 55.957 101.793 55.957 109.273C50.017 109.273 44.077 109.273 37.957 109.273C37.957 91.4534 37.957 73.6334 37.957 55.2734C41.587 55.2734 45.217 55.2734 48.957 55.2734C48.957 52.3034 48.957 49.3334 48.957 46.2734Z" fill="#F2C39B"/>
<path d="M53.957 116.273C60.8518 120.097 66.4347 125.912 72.0977 131.316C73.9549 132.51 73.9549 132.51 76.2227 131.871C80.1238 129.592 83.3485 126.717 86.707 123.711C87.3915 123.108 88.076 122.506 88.7812 121.885C91.9283 119.143 91.9283 119.143 94.957 116.273C112.485 115.092 112.485 115.092 118.441 118.875C122.29 122.426 124.405 126.34 125.832 131.336C123.994 137.505 117.911 140.208 112.547 143.133C93.1137 152.95 72.861 155.521 51.9429 148.967C42.3511 145.618 33.1799 140.496 25.957 133.273C26.1716 126.943 27.2182 123.802 31.957 119.273C38.6759 115.3 46.411 114.055 53.957 116.273Z" fill="#18B0AB"/>
<path d="M35.957 22.2735C46.1097 22.2503 56.2623 22.2326 66.415 22.2217C71.1288 22.2164 75.8426 22.2093 80.5564 22.198C85.1016 22.1872 89.6468 22.1812 94.192 22.1786C95.93 22.1767 97.668 22.1731 99.406 22.1677C101.832 22.1605 104.258 22.1595 106.683 22.1599C107.409 22.1563 108.135 22.1528 108.883 22.149C113.843 22.1594 113.843 22.1594 114.957 23.2735C115.052 26.0124 115.083 28.7259 115.071 31.4651C115.071 32.3236 115.071 33.182 115.071 34.0665C115.07 36.9181 115.063 39.7696 115.055 42.6211C115.053 44.5927 115.051 46.5642 115.05 48.5358C115.047 53.7357 115.037 58.9357 115.026 64.1356C115.015 69.4374 115.011 74.7392 115.006 80.041C114.995 90.4519 114.978 100.863 114.957 111.273C114.627 111.273 114.297 111.273 113.957 111.273C113.627 93.4535 113.297 75.6335 112.957 57.2735C108.997 56.9435 105.037 56.6135 100.957 56.2735C100.957 52.9735 100.957 49.6735 100.957 46.2735C84.127 46.2735 67.297 46.2735 49.957 46.2735C49.957 45.9435 49.957 45.6135 49.957 45.2735C64.477 44.9435 78.997 44.6135 93.957 44.2735C78.777 44.2735 63.597 44.2735 47.957 44.2735C47.627 47.2435 47.297 50.2135 46.957 53.2735C43.987 53.2735 41.017 53.2735 37.957 53.2735C37.627 45.3535 37.297 37.4335 36.957 29.2735C36.627 29.2735 36.297 29.2735 35.957 29.2735C35.957 26.9635 35.957 24.6535 35.957 22.2735Z" fill="#472912"/>
<path d="M114.957 32.2734C119.352 34.4707 121.247 36.9309 123.957 40.8359C124.4 41.4685 124.843 42.1012 125.299 42.7529C134.209 55.7338 136.523 69.194 134.645 84.8828C132.293 96.7225 126.214 106.789 118.957 116.273C117.517 115.798 117.517 115.798 116.047 115.312C111.566 114.032 107.156 113.828 102.52 113.648C101.693 113.61 100.866 113.571 100.014 113.531C97.9951 113.438 95.9761 113.355 93.957 113.273C93.957 112.943 93.957 112.613 93.957 112.273C103.857 111.778 103.857 111.778 113.957 111.273C114.287 85.2034 114.617 59.1334 114.957 32.2734Z" fill="#99CB6F"/>
<path d="M34.9568 35.2734C35.4518 72.8934 35.4518 72.8934 35.9568 111.273C42.5568 111.603 49.1568 111.933 55.9568 112.273C55.9568 112.603 55.9568 112.933 55.9568 113.273C52.252 113.646 48.5451 113.936 44.8318 114.211C43.7851 114.317 42.7384 114.424 41.66 114.533C34.0701 115.038 34.0701 115.038 30.9878 112.922C29.3949 111.123 28.1624 109.349 26.9568 107.273C26.3652 106.286 25.7735 105.299 25.1639 104.281C24.4736 102.854 24.4736 102.854 23.7693 101.398C23.3014 100.452 22.8335 99.5061 22.3514 98.5312C18.9842 90.665 17.4229 84.062 17.5193 75.4609C17.5291 74.489 17.5388 73.517 17.5489 72.5156C17.8915 58.6356 23.3658 46.6945 32.6717 36.3711C33.9568 35.2734 33.9568 35.2734 34.9568 35.2734Z" fill="#99CC70"/>
<path d="M64.957 76.2734C71.557 76.2734 78.157 76.2734 84.957 76.2734C84.957 80.2334 84.957 84.1934 84.957 88.2734C86.277 88.6034 87.597 88.9334 88.957 89.2734C89.617 89.6034 90.277 89.9334 90.957 90.2734C90.957 96.2134 90.957 102.153 90.957 108.273C80.397 108.273 69.837 108.273 58.957 108.273C58.957 102.333 58.957 96.3934 58.957 90.2734C60.607 90.2734 62.257 90.2734 63.957 90.2734C64.287 85.6534 64.617 81.0334 64.957 76.2734Z" fill="#030302"/>
<path d="M105.957 66.2734C106.287 66.2734 106.617 66.2734 106.957 66.2734C107.287 68.2534 107.617 70.2334 107.957 72.2734C108.947 71.9434 109.937 71.6134 110.957 71.2734C110.957 83.4834 110.957 95.6934 110.957 108.273C105.677 108.273 100.397 108.273 94.957 108.273C94.627 101.673 94.297 95.0734 93.957 88.2734C90.987 87.9434 88.017 87.6134 84.957 87.2734C84.957 83.9734 84.957 80.6734 84.957 77.2734C85.617 78.5934 86.277 79.9134 86.957 81.2734C87.287 80.2834 87.617 79.2934 87.957 78.2734C93.897 78.2734 99.837 78.2734 105.957 78.2734C105.957 74.3134 105.957 70.3534 105.957 66.2734Z" fill="#F6C49B"/>
<path d="M35.957 22.2735C46.1097 22.2503 56.2623 22.2326 66.415 22.2217C71.1288 22.2164 75.8426 22.2093 80.5564 22.198C85.1016 22.1872 89.6468 22.1812 94.192 22.1786C95.93 22.1767 97.668 22.1731 99.406 22.1677C101.832 22.1605 104.258 22.1595 106.683 22.1599C107.409 22.1563 108.135 22.1528 108.883 22.149C113.843 22.1594 113.843 22.1594 114.957 23.2735C115.052 26.0124 115.083 28.7259 115.071 31.4651C115.071 32.3236 115.071 33.182 115.071 34.0665C115.07 36.9181 115.063 39.7696 115.055 42.6211C115.053 44.5927 115.051 46.5642 115.05 48.5358C115.047 53.7357 115.037 58.9357 115.026 64.1356C115.015 69.4374 115.011 74.7392 115.006 80.041C114.995 90.4519 114.978 100.863 114.957 111.273C114.627 111.273 114.297 111.273 113.957 111.273C113.627 93.4535 113.297 75.6335 112.957 57.2735C108.997 56.9435 105.037 56.6135 100.957 56.2735C100.957 52.9735 100.957 49.6735 100.957 46.2735C84.127 46.2735 67.297 46.2735 49.957 46.2735C49.957 45.9435 49.957 45.6135 49.957 45.2735C67.447 44.9435 84.937 44.6135 102.957 44.2735C102.957 47.2435 102.957 50.2135 102.957 53.2735C105.927 53.2735 108.897 53.2735 111.957 53.2735C111.957 44.0335 111.957 34.7935 111.957 25.2735C87.207 25.2735 62.457 25.2735 36.957 25.2735C36.627 26.5935 36.297 27.9135 35.957 29.2735C35.957 26.9635 35.957 24.6535 35.957 22.2735Z" fill="#161A11"/>
<path d="M57.957 111.273C69.177 111.273 80.397 111.273 91.957 111.273C91.957 116.273 91.957 116.273 89.4727 119.062C88.3966 120.022 87.3074 120.967 86.207 121.898C85.6682 122.375 85.1294 122.852 84.5742 123.344C81.7948 125.784 78.9539 128.106 75.957 130.273C71.8215 128.302 68.3465 125.783 64.707 123.023C64.0573 122.558 63.4077 122.093 62.7383 121.613C61.8179 120.911 61.8179 120.911 60.8789 120.195C60.3178 119.779 59.7568 119.362 59.1787 118.933C57.957 117.273 57.957 117.273 57.957 111.273Z" fill="#ECBF9A"/>
<path d="M58.957 90.2734C60.607 90.2734 62.257 90.2734 63.957 90.2734C64.287 93.2434 64.617 96.2134 64.957 99.2734C71.887 99.6034 78.817 99.9334 85.957 100.273C85.957 96.9734 85.957 93.6734 85.957 90.2734C87.607 90.2734 89.257 90.2734 90.957 90.2734C90.957 96.2134 90.957 102.153 90.957 108.273C80.397 108.273 69.837 108.273 58.957 108.273C58.957 102.333 58.957 96.3934 58.957 90.2734Z" fill="#522F18"/>
<path d="M36.9569 25.2734C37.2869 25.2734 37.6169 25.2734 37.9569 25.2734C37.9569 34.5134 37.9569 43.7534 37.9569 53.2734C40.9269 53.2734 43.8969 53.2734 46.9569 53.2734C46.9363 51.8091 46.9157 50.3447 46.8944 48.8359C46.873 47.3151 46.8851 45.7927 46.9569 44.2734C47.9569 43.2734 47.9569 43.2734 50.1652 43.1532C51.1401 43.1554 52.1149 43.1576 53.1193 43.1599C54.2204 43.16 55.3214 43.1601 56.4559 43.1601C57.6538 43.1653 58.8516 43.1705 60.0858 43.1758C61.3052 43.1772 62.5246 43.1786 63.7809 43.1801C67.6938 43.1857 71.6066 43.1982 75.5194 43.2109C78.1646 43.216 80.8098 43.2205 83.455 43.2246C89.9557 43.2357 96.4563 43.2524 102.957 43.2734C102.957 43.6034 102.957 43.9334 102.957 44.2734C96.4357 45.0882 90.0212 45.47 83.453 45.5898C82.4891 45.6106 81.5253 45.6314 80.5322 45.6528C77.4863 45.7176 74.4404 45.7769 71.3944 45.8359C69.3157 45.8792 67.2369 45.9228 65.1581 45.9668C60.0911 46.0732 55.0241 46.1747 49.9569 46.2734C49.6269 49.2434 49.2969 52.2134 48.9569 55.2734C45.3269 55.2734 41.6969 55.2734 37.9569 55.2734C37.6269 73.0934 37.2969 90.9134 36.9569 109.273C36.6269 109.273 36.2969 109.273 35.9569 109.273C35.9338 98.9118 35.916 88.5502 35.9051 78.1886C35.8999 73.3773 35.8928 68.5661 35.8815 63.7549C35.8706 59.1124 35.8647 54.47 35.8621 49.8275C35.8602 48.0557 35.8566 46.2839 35.8512 44.512C35.844 42.0318 35.843 39.5516 35.8434 37.0713C35.8398 36.3376 35.8362 35.6039 35.8325 34.848C35.8393 31.5126 35.9179 28.4621 36.9569 25.2734Z" fill="#070503"/>
<path d="M43.957 65.2734C50.227 65.2734 56.497 65.2734 62.957 65.2734C62.957 69.5634 62.957 73.8534 62.957 78.2734C56.687 78.2734 50.417 78.2734 43.957 78.2734C43.957 73.9834 43.957 69.6934 43.957 65.2734Z" fill="#0F0D0B"/>
<path d="M86.957 65.2734C93.227 65.2734 99.497 65.2734 105.957 65.2734C105.957 69.5634 105.957 73.8534 105.957 78.2734C99.687 78.2734 93.417 78.2734 86.957 78.2734C86.957 73.9834 86.957 69.6934 86.957 65.2734Z" fill="#21231E"/>
<path d="M75.8945 16.836C76.9412 16.8392 77.988 16.8424 79.0664 16.8457C86.6607 16.9829 93.0636 17.8872 99.957 21.2735C99.957 21.6035 99.957 21.9335 99.957 22.2735C83.127 22.2735 66.297 22.2735 48.957 22.2735C57.6721 17.9159 66.2328 16.7429 75.8945 16.836Z" fill="#96C96B"/>
<path d="M66.957 78.2734C72.237 78.2734 77.517 78.2734 82.957 78.2734C82.957 81.2434 82.957 84.2134 82.957 87.2734C77.677 87.2734 72.397 87.2734 66.957 87.2734C66.957 84.3034 66.957 81.3334 66.957 78.2734Z" fill="#9B5A30"/>
<path d="M66.957 89.2734C72.237 89.2734 77.517 89.2734 82.957 89.2734C82.957 91.9134 82.957 94.5534 82.957 97.2734C77.677 97.2734 72.397 97.2734 66.957 97.2734C66.957 94.6334 66.957 91.9934 66.957 89.2734Z" fill="#E7BE96"/>
<path d="M55.957 87.2734C58.927 87.2734 61.897 87.2734 64.957 87.2734C64.627 88.2634 64.297 89.2534 63.957 90.2734C62.307 90.2734 60.657 90.2734 58.957 90.2734C58.957 96.2134 58.957 102.153 58.957 108.273C69.517 108.273 80.077 108.273 90.957 108.273C90.957 102.333 90.957 96.3934 90.957 90.2734C89.967 89.9434 88.977 89.6134 87.957 89.2734C89.277 89.2734 90.597 89.2734 91.957 89.2734C91.957 95.8734 91.957 102.473 91.957 109.273C87.1515 109.296 82.3461 109.316 77.5405 109.328C75.9051 109.333 74.2697 109.34 72.6343 109.349C70.2861 109.361 67.938 109.367 65.5898 109.371C64.4898 109.379 64.4898 109.379 63.3675 109.387C58.1848 109.387 58.1848 109.387 55.957 108.273C55.957 101.343 55.957 94.4134 55.957 87.2734Z" fill="#271D13"/>
<path d="M46.957 67.2734C51.247 67.2734 55.537 67.2734 59.957 67.2734C59.957 70.2434 59.957 73.2134 59.957 76.2734C55.667 76.2734 51.377 76.2734 46.957 76.2734C46.957 73.3034 46.957 70.3334 46.957 67.2734Z" fill="#307173"/>
<path d="M112.957 56.2734C113.287 56.2734 113.617 56.2734 113.957 56.2734C113.957 74.4234 113.957 92.5734 113.957 111.273C112.637 111.273 111.317 111.273 109.957 111.273C109.957 110.613 109.957 109.953 109.957 109.273C110.617 109.273 111.277 109.273 111.957 109.273C111.955 108.624 111.953 107.975 111.95 107.306C111.928 100.575 111.913 93.8431 111.902 87.1116C111.897 84.5963 111.89 82.081 111.882 79.5657C111.87 75.9591 111.864 72.3526 111.859 68.7461C111.854 67.6138 111.849 66.4815 111.844 65.315C111.844 64.274 111.844 63.2329 111.844 62.1604C111.841 61.2388 111.839 60.3173 111.837 59.3678C111.957 57.2734 111.957 57.2734 112.957 56.2734Z" fill="#020302"/>
<path d="M89.957 68.2734C94.247 68.2734 98.537 68.2734 102.957 68.2734C102.957 70.9134 102.957 73.5534 102.957 76.2734C98.667 76.2734 94.377 76.2734 89.957 76.2734C89.957 73.6334 89.957 70.9934 89.957 68.2734Z" fill="#4C9066"/>
<path d="M63.9568 90.2734C64.9468 90.2734 65.9368 90.2734 66.9568 90.2734C66.9568 92.5834 66.9568 94.8934 66.9568 97.2734C72.2368 97.2734 77.5168 97.2734 82.9568 97.2734C82.9568 94.9634 82.9568 92.6534 82.9568 90.2734C83.9468 90.9334 84.9368 91.5934 85.9568 92.2734C86.3652 94.9855 86.0902 97.5172 85.9568 100.273C82.4777 100.302 78.9985 100.32 75.5193 100.336C74.0295 100.349 74.0295 100.349 72.5095 100.361C71.5653 100.365 70.6211 100.368 69.6482 100.371C68.7737 100.376 67.8991 100.382 66.9981 100.387C64.9568 100.273 64.9568 100.273 63.9568 99.2734C63.885 97.7542 63.8729 96.2318 63.8943 94.7109C63.9033 93.8846 63.9123 93.0584 63.9216 92.207C63.9332 91.5689 63.9448 90.9309 63.9568 90.2734Z" fill="#0C0B08"/>
<path d="M92.3359 66.1758C93.7305 66.1825 95.125 66.1944 96.5195 66.2109C97.2304 66.2154 97.9414 66.22 98.6738 66.2246C100.435 66.2364 102.196 66.2544 103.957 66.2734C103.957 66.6034 103.957 66.9334 103.957 67.2734C99.337 67.2734 94.717 67.2734 89.957 67.2734C89.957 70.2434 89.957 73.2134 89.957 76.2734C94.577 76.2734 99.197 76.2734 103.957 76.2734C104.287 76.9334 104.617 77.5934 104.957 78.2734C99.347 78.2734 93.737 78.2734 87.957 78.2734C87.8594 69.7773 87.8594 69.7773 87.957 67.2734C88.957 66.2734 88.957 66.2734 92.3359 66.1758Z" fill="#030504"/>
<path d="M43.957 65.2734C47.587 65.2734 51.217 65.2734 54.957 65.2734C55.287 65.9334 55.617 66.5934 55.957 67.2734C52.987 67.2734 50.017 67.2734 46.957 67.2734C47.0189 68.7172 47.0808 70.1609 47.1445 71.6484C47.25 74.1094 47.25 74.1094 46.957 76.2734C45.472 77.2634 45.472 77.2634 43.957 78.2734C43.957 73.9834 43.957 69.6934 43.957 65.2734Z" fill="#090D0C"/>
<path d="M70.957 46.2734C80.857 46.2734 90.757 46.2734 100.957 46.2734C100.957 49.5734 100.957 52.8734 100.957 56.2734C100.297 56.2734 99.637 56.2734 98.957 56.2734C98.627 53.6334 98.297 50.9934 97.957 48.2734C89.047 47.9434 80.137 47.6134 70.957 47.2734C70.957 46.9434 70.957 46.6134 70.957 46.2734Z" fill="#E4BE9F"/>
<path d="M91.957 112.273C93.082 114.023 93.082 114.023 93.957 116.273C92.659 119.982 90.2672 122.008 87.332 124.523C86.5148 125.23 85.6975 125.936 84.8555 126.664C84.229 127.195 83.6025 127.726 82.957 128.273C82.297 127.943 81.637 127.613 80.957 127.273C82.7548 122.981 85.6106 120.894 89.1797 118.055C91.1205 116.11 91.5749 114.954 91.957 112.273Z" fill="#1B1C17"/>
<path d="M93.957 44.2734C96.927 44.2734 99.897 44.2734 102.957 44.2734C102.957 47.2434 102.957 50.2134 102.957 53.2734C103.7 53.2116 104.442 53.1497 105.207 53.0859C107.957 53.2734 107.957 53.2734 111.957 56.2734C108.327 56.2734 104.697 56.2734 100.957 56.2734C100.957 52.6434 100.957 49.0134 100.957 45.2734C98.647 45.2734 96.337 45.2734 93.957 45.2734C93.957 44.9434 93.957 44.6134 93.957 44.2734Z" fill="#191510"/>
<path d="M96.957 68.2734C98.937 68.2734 100.917 68.2734 102.957 68.2734C102.957 70.5834 102.957 72.8934 102.957 75.2734C100.977 75.2734 98.997 75.2734 96.957 75.2734C96.957 72.9634 96.957 70.6534 96.957 68.2734Z" fill="#F8F8F4"/>
<path d="M46.957 68.2734C48.937 68.2734 50.917 68.2734 52.957 68.2734C52.957 70.5834 52.957 72.8934 52.957 75.2734C50.977 75.2734 48.997 75.2734 46.957 75.2734C46.957 72.9634 46.957 70.6534 46.957 68.2734Z" fill="#F3F5F7"/>
<path d="M49.957 46.2734C56.887 46.2734 63.817 46.2734 70.957 46.2734C70.957 46.6034 70.957 46.9334 70.957 47.2734C69.753 47.3224 68.5491 47.3714 67.3086 47.4219C65.733 47.4969 64.1575 47.5724 62.582 47.6484C61.788 47.6794 60.9939 47.7103 60.1758 47.7422C55.5904 47.7916 55.5904 47.7916 51.957 50.2734C51.5594 52.2617 51.2193 54.2629 50.957 56.2734C50.627 56.2734 50.297 56.2734 49.957 56.2734C49.957 52.9734 49.957 49.6734 49.957 46.2734Z" fill="#F7D2B1"/>
<path d="M54.957 68.2734C56.607 68.2734 58.257 68.2734 59.957 68.2734C59.957 70.5834 59.957 72.8934 59.957 75.2734C58.307 75.2734 56.657 75.2734 54.957 75.2734C55.1427 74.4897 55.3283 73.7059 55.5195 72.8984C56.2167 70.3025 56.2167 70.3025 54.957 68.2734Z" fill="#1C949A"/>
<path d="M46.957 44.2734C47.947 44.9334 48.937 45.5934 49.957 46.2734C49.627 49.2434 49.297 52.2134 48.957 55.2734C46.647 54.9434 44.337 54.6134 41.957 54.2734C41.957 53.9434 41.957 53.6134 41.957 53.2734C43.607 53.2734 45.257 53.2734 46.957 53.2734C46.957 50.3034 46.957 47.3334 46.957 44.2734Z" fill="#0C0B08"/>
<path d="M44.957 65.2734C48.257 65.2734 51.557 65.2734 54.957 65.2734C55.287 65.9334 55.617 66.5934 55.957 67.2734C52.327 67.6034 48.697 67.9334 44.957 68.2734C44.957 67.2834 44.957 66.2934 44.957 65.2734Z" fill="black"/>
<path d="M85.957 121.273C86.617 121.933 87.277 122.593 87.957 123.273C84.987 125.748 84.987 125.748 81.957 128.273C81.957 126.953 81.957 125.633 81.957 124.273C83.957 122.523 83.957 122.523 85.957 121.273Z" fill="#101613"/>
<path d="M92.957 114.273C98.237 114.273 103.517 114.273 108.957 114.273C108.957 114.603 108.957 114.933 108.957 115.273C107.71 115.364 107.71 115.364 106.438 115.457C104.807 115.583 104.807 115.583 103.145 115.711C102.066 115.792 100.987 115.873 99.875 115.957C96.8971 116.176 96.8971 116.176 93.957 117.273C93.627 116.283 93.297 115.293 92.957 114.273Z" fill="black"/>
<path d="M89.957 68.2734C91.607 68.2734 93.257 68.2734 94.957 68.2734C93.967 68.7684 93.967 68.7684 92.957 69.2734C92.2301 71.2523 91.5589 73.253 90.957 75.2734C90.627 75.2734 90.297 75.2734 89.957 75.2734C89.957 72.9634 89.957 70.6534 89.957 68.2734Z" fill="#52A872"/>
</svg>
