<svg width="153" height="154" viewBox="0 0 153 154" fill="none" xmlns="http://www.w3.org/2000/svg">
<path d="M111.522 9.03967C112.359 9.48053 113.195 9.92138 114.057 10.3756C131.242 19.9907 144.08 36.1344 149.522 55.0397C154.973 74.6017 152.277 95.0705 143.21 112.977C137.369 123.085 129.449 133.767 118.971 139.415C115.884 140.202 115.252 139.544 112.522 138.04C110.154 137.714 107.777 137.45 105.397 137.227C97.0632 136.278 91.042 133.715 84.3972 128.665C81.9861 125.289 82.1245 123.096 82.5222 119.04C84.5373 120.045 86.5501 121.054 88.5573 122.075C89.5609 122.583 89.5609 122.583 90.5847 123.102C91.5921 123.615 91.5921 123.615 92.6198 124.137C98.3241 126.843 104.338 126.723 110.522 126.04C114.565 124.175 116.839 121.098 118.522 117.04C118.973 114.454 118.973 114.454 119.147 111.79C119.222 110.898 119.297 110.006 119.374 109.087C119.423 108.411 119.472 107.736 119.522 107.04C118.862 107.04 118.202 107.04 117.522 107.04C117.605 108.03 117.687 109.02 117.772 110.04C117.781 114.595 116.08 118.318 113.522 122.04C108.596 125.324 103.273 124.676 97.5222 124.04C90.7138 121.824 85.0285 117.515 79.5222 113.04C79.0908 121.995 79.0908 121.995 81.9128 130.196C84.0351 131.872 86.0471 132.943 88.5222 134.04C90.0246 134.742 90.0246 134.742 91.5573 135.458C98.5228 138.421 104.963 139.873 112.522 140.04C112.852 141.03 113.182 142.02 113.522 143.04C111.969 143.911 110.404 144.761 108.835 145.602C107.965 146.078 107.094 146.554 106.198 147.044C102.472 148.43 100.23 147.654 96.6003 146.348C90.7895 143.579 85.9206 139.743 81.5222 135.04C81.5222 134.38 81.5222 133.72 81.5222 133.04C80.8622 133.04 80.2022 133.04 79.5222 133.04C79.5222 139.64 79.5222 146.24 79.5222 153.04C77.2122 153.04 74.9022 153.04 72.5222 153.04C72.5222 146.44 72.5222 139.84 72.5222 133.04C71.8622 133.04 71.2022 133.04 70.5222 133.04C70.2786 133.626 70.0349 134.213 69.7839 134.817C66.3522 140.862 58.9897 144.965 52.5222 147.04C46.9751 147.866 43.2174 145.709 38.5222 143.04C38.8522 142.05 39.1822 141.06 39.5222 140.04C40.4168 139.942 41.3114 139.844 42.2331 139.743C49.8828 138.797 56.6391 137.57 63.5222 134.04C64.2995 133.688 65.0768 133.336 65.8777 132.973C68.4473 131.522 69.849 130.491 71.5222 128.04C72.4906 122.996 72.6265 118.162 72.5222 113.04C71.5225 113.836 71.5225 113.836 70.5027 114.649C63.0014 120.398 56.1337 124.104 46.7722 125.665C42.263 124.798 39.4934 122.489 36.5222 119.04C35.4724 115.89 35.4209 113.652 35.4597 110.352C35.4687 109.358 35.4777 108.364 35.487 107.34C35.4986 106.581 35.5102 105.822 35.5222 105.04C37.3659 103.954 37.3659 103.954 39.5222 103.04C40.3472 103.493 41.1722 103.947 42.0222 104.415C49.3063 107.797 56.7314 106.544 64.1472 104.04C65.1295 103.668 66.1117 103.297 67.1237 102.915C69.5222 102.04 69.5222 102.04 71.5222 102.04C71.1922 101.05 70.8622 100.06 70.5222 99.0397C69.7952 99.4006 69.0681 99.7615 68.3191 100.133C60.5353 103.726 52.8681 106.085 44.3894 103.352C42.7515 102.615 41.1353 101.83 39.5222 101.04C36.7288 100.786 36.7288 100.786 34.5222 101.04C32.7015 106.502 32.2937 113.647 34.2761 119.122C36.173 122.06 38.5673 124.226 41.5222 126.04C49.6907 127.253 56.3984 126.031 63.5222 122.04C64.6978 121.462 65.8734 120.885 67.0847 120.29C67.8891 119.877 68.6934 119.465 69.5222 119.04C69.9301 123.201 70.0645 125.311 67.5222 128.727C59.7573 134.713 51.479 137.092 41.7566 137.696C39.2417 137.922 39.2417 137.922 36.5222 140.04C28.7641 139.399 21.2238 130.233 16.4675 124.649C2.93257 106.494 -2.13881 85.2605 0.810759 62.8468C4.48112 42.6031 16.9743 24.6768 33.5534 12.8834C57.1164 -2.44396 86.6729 -4.55786 111.522 9.03967Z" fill="#7BBB4F"/>
<path d="M38.5224 32.0397C38.5365 33.2491 38.5365 33.2491 38.5508 34.483C38.6048 38.1692 38.6884 41.8541 38.7724 45.5397C38.7866 46.8081 38.8008 48.0765 38.8154 49.3834C39.0051 56.6676 39.4626 61.9013 43.5224 68.0397C44.4093 68.6378 45.2962 69.2359 46.2099 69.8522C49.5554 73.0168 49.2124 76.0222 49.3818 80.4811C49.4163 83.1608 49.4163 83.1608 50.5224 86.0397C49.6072 85.9443 48.692 85.8489 47.749 85.7506C46.5605 85.6398 45.372 85.5289 44.1474 85.4147C42.9641 85.2987 41.7807 85.1826 40.5615 85.0631C39.0572 85.0515 39.0572 85.0515 37.5224 85.0397C35.1727 86.9372 35.1727 86.9372 35.3974 90.1647C35.4387 91.1134 35.4799 92.0622 35.5224 93.0397C36.8737 93.5269 38.2287 94.004 39.5849 94.4772C40.339 94.744 41.0932 95.0108 41.8701 95.2858C47.8738 96.9923 53.7756 97.1757 59.9599 97.1022C60.6915 97.0977 61.423 97.0931 62.1767 97.0885C63.9587 97.0769 65.7406 97.0589 67.5224 97.0397C67.5224 96.3797 67.5224 95.7197 67.5224 95.0397C66.3997 95.0629 65.2769 95.0861 64.1201 95.11C45.7765 95.3762 45.7765 95.3762 37.5224 91.0397C37.8524 89.7197 38.1824 88.3997 38.5224 87.0397C39.8977 87.1833 41.2726 87.3297 42.6474 87.4772C43.4132 87.5584 44.1789 87.6396 44.9678 87.7233C46.7445 87.9433 48.5148 88.2198 50.2764 88.5397C53.5496 89.0439 56.7058 89.2458 60.0146 89.3561C61.8129 89.4189 61.8129 89.4189 63.6474 89.483C64.8849 89.5223 66.1224 89.5617 67.3974 89.6022C68.6581 89.6454 69.9189 89.6885 71.2178 89.733C74.3192 89.8388 77.4208 89.9409 80.5224 90.0397C81.0174 93.5047 81.0174 93.5047 81.5224 97.0397C88.4524 97.0397 95.3824 97.0397 102.522 97.0397C102.522 96.3797 102.522 95.7197 102.522 95.0397C96.2524 95.0397 89.9824 95.0397 83.5224 95.0397C82.5224 91.0397 82.5224 91.0397 83.5224 88.0397C81.7822 88.0919 81.7822 88.0919 80.0068 88.1451C61.1654 88.5411 61.1654 88.5411 53.5224 85.0397C51.5123 82.986 50.6204 81.7551 50.2295 78.899C50.3271 76.9459 50.4248 74.9928 50.5224 73.0397C52.5024 73.0397 54.4824 73.0397 56.5224 73.0397C57.0174 76.9997 57.0174 76.9997 57.5224 81.0397C59.8324 81.3697 62.1424 81.6997 64.5224 82.0397C64.5224 81.3797 64.5224 80.7197 64.5224 80.0397C63.2024 79.7097 61.8824 79.3797 60.5224 79.0397C62.1724 79.0397 63.8224 79.0397 65.5224 79.0397C65.5224 80.0297 65.5224 81.0197 65.5224 82.0397C67.5024 81.5447 67.5024 81.5447 69.5224 81.0397C69.5224 80.3797 69.5224 79.7197 69.5224 79.0397C71.1724 79.0397 72.8224 79.0397 74.5224 79.0397C74.5224 80.0297 74.5224 81.0197 74.5224 82.0397C75.8424 82.0397 77.1624 82.0397 78.5224 82.0397C78.5224 81.0497 78.5224 80.0597 78.5224 79.0397C79.2856 79.0603 80.0487 79.0809 80.8349 79.1022C83.6243 79.1691 83.6243 79.1691 86.5224 78.0397C88.1887 78.0009 89.8564 77.9946 91.5224 78.0397C91.5224 78.6997 91.5224 79.3597 91.5224 80.0397C93.5024 80.5347 93.5024 80.5347 95.5224 81.0397C95.5224 78.3997 95.5224 75.7597 95.5224 73.0397C97.5024 72.7097 99.4824 72.3797 101.522 72.0397C101.522 75.3397 101.522 78.6397 101.522 82.0397C102.182 82.0397 102.842 82.0397 103.522 82.0397C103.464 81.2804 103.406 80.5212 103.347 79.7389C103.212 76.775 103.167 73.9868 103.522 71.0397C105.772 69.2897 105.772 69.2897 108.522 68.0397C113.785 61.4903 113.188 54.1801 113.272 46.1022C113.301 44.7369 113.331 43.3717 113.362 42.0065C113.433 38.6841 113.486 35.3625 113.522 32.0397C124.524 41.155 132.195 51.7083 134.522 66.0397C136.09 83.6004 133.264 97.935 122.522 112.04C121.532 112.535 121.532 112.535 120.522 113.04C120.399 112.235 120.275 111.431 120.147 110.602C119.838 109.334 119.838 109.334 119.522 108.04C118.862 107.71 118.202 107.38 117.522 107.04C117.605 108.03 117.687 109.02 117.772 110.04C117.782 114.595 116.081 118.318 113.522 122.04C108.596 125.324 103.273 124.676 97.5224 124.04C90.7141 121.824 85.0288 117.515 79.5224 113.04C79.091 121.995 79.091 121.995 81.9131 130.196C84.0354 131.872 86.0474 132.943 88.5224 134.04C90.0248 134.742 90.0248 134.742 91.5576 135.458C98.523 138.421 104.963 139.873 112.522 140.04C112.852 141.03 113.182 142.02 113.522 143.04C111.97 143.911 110.405 144.761 108.835 145.602C107.965 146.078 107.095 146.554 106.198 147.044C102.473 148.43 100.23 147.654 96.6006 146.348C90.7898 143.579 85.9208 139.743 81.5224 135.04C81.5224 134.38 81.5224 133.72 81.5224 133.04C80.8624 133.04 80.2024 133.04 79.5224 133.04C79.5224 139.64 79.5224 146.24 79.5224 153.04C77.2124 153.04 74.9024 153.04 72.5224 153.04C72.5224 146.44 72.5224 139.84 72.5224 133.04C71.8624 133.04 71.2024 133.04 70.5224 133.04C70.2788 133.626 70.0352 134.213 69.7842 134.817C66.3525 140.862 58.9899 144.965 52.5224 147.04C46.9754 147.866 43.2176 145.709 38.5224 143.04C39.0174 141.555 39.0174 141.555 39.5224 140.04C40.4171 139.942 41.3117 139.844 42.2334 139.743C49.8831 138.797 56.6394 137.57 63.5224 134.04C64.2998 133.688 65.0771 133.336 65.8779 132.973C68.4476 131.522 69.8492 130.491 71.5224 128.04C72.4909 122.996 72.6267 118.162 72.5224 113.04C71.856 113.571 71.1896 114.102 70.5029 114.649C63.0016 120.398 56.1339 124.104 46.7724 125.665C42.2633 124.798 39.4937 122.489 36.5224 119.04C35.4727 115.89 35.4211 113.652 35.4599 110.352C35.469 109.358 35.478 108.364 35.4873 107.34C35.4989 106.581 35.5105 105.822 35.5224 105.04C37.3662 103.954 37.3662 103.954 39.5224 103.04C40.7599 103.72 40.7599 103.72 42.0224 104.415C49.3066 107.797 56.7317 106.544 64.1474 104.04C65.1297 103.668 66.112 103.297 67.124 102.915C69.5224 102.04 69.5224 102.04 71.5224 102.04C71.1924 101.05 70.8624 100.06 70.5224 99.0397C69.7954 99.4006 69.0684 99.7615 68.3193 100.133C60.5355 103.726 52.8684 106.085 44.3896 103.352C42.7518 102.615 41.1356 101.83 39.5224 101.04C36.729 100.786 36.729 100.786 34.5224 101.04C32.9399 105.365 32.071 109.468 31.5224 114.04C23.97 107.455 18.2044 94.7404 17.3349 84.9225C16.2451 68.3029 18.9559 53.4153 29.5224 40.0397C36.6803 32.0397 36.6803 32.0397 38.5224 32.0397Z" fill="#9AC972"/>
<path d="M75.7726 12.6647C76.9496 12.6402 78.1265 12.6157 79.339 12.5905C89.3874 12.557 97.1727 14.597 104.952 21.0866C110.838 28.4071 111.16 34.9547 111.044 44.131C111.023 46.1682 111.044 48.2019 111.07 50.2389C111.064 51.537 111.059 52.8351 111.054 54.1725C111.049 55.347 111.045 56.5215 111.04 57.7316C110.284 62.5674 108.031 65.7087 104.398 68.9147C100.137 70.582 96.043 70.2767 91.5226 70.0397C91.5226 71.6897 91.5226 73.3397 91.5226 75.0397C89.8726 75.0397 88.2226 75.0397 86.5226 75.0397C86.5226 73.7197 86.5226 72.3997 86.5226 71.0397C85.5326 71.0397 84.5426 71.0397 83.5226 71.0397C83.5226 72.3597 83.5226 73.6797 83.5226 75.0397C81.8726 75.0397 80.2226 75.0397 78.5226 75.0397C78.5226 74.0497 78.5226 73.0597 78.5226 72.0397C77.2026 72.0397 75.8826 72.0397 74.5226 72.0397C74.5226 73.0297 74.5226 74.0197 74.5226 75.0397C72.8726 75.0397 71.2226 75.0397 69.5226 75.0397C69.5226 73.7197 69.5226 72.3997 69.5226 71.0397C68.2026 71.0397 66.8826 71.0397 65.5226 71.0397C65.5226 72.3597 65.5226 73.6797 65.5226 75.0397C63.8726 75.0397 62.2226 75.0397 60.5226 75.0397C60.5226 73.7197 60.5226 72.3997 60.5226 71.0397C59.7982 71.0255 59.0737 71.0114 58.3273 70.9967C51.637 70.6667 48.1226 70.0028 43.5226 65.0397C41.2504 60.4953 42.2111 53.8476 42.1725 48.8019C42.156 47.221 42.1288 45.6402 42.0905 44.0597C41.7042 28.0389 41.7042 28.0389 46.1457 22.424C47.9818 20.5781 49.7393 19.0344 51.9601 17.6647C52.6807 17.2032 53.4013 16.7417 54.1437 16.2663C61.2656 12.5942 67.9309 12.6732 75.7726 12.6647Z" fill="#D7D7C7"/>
<path d="M72.5222 91.0397C74.8322 91.0397 77.1422 91.0397 79.5222 91.0397C79.5828 91.7151 79.6434 92.3906 79.7058 93.0865C79.7896 93.9786 79.8734 94.8706 79.9597 95.7897C80.0409 96.6714 80.1222 97.5531 80.2058 98.4615C80.4582 100.989 80.4582 100.989 81.0847 103.196C81.6737 105.678 81.1334 107.595 80.5222 110.04C81.2274 110.316 81.9325 110.591 82.659 110.876C85.5882 112.067 88.4598 113.348 91.3347 114.665C92.3106 115.111 93.2864 115.557 94.2918 116.016C95.0278 116.354 95.7639 116.692 96.5222 117.04C96.0272 119.515 96.0272 119.515 95.5222 122.04C90.9652 121.515 88.3294 119.725 84.7097 116.977C83.7339 116.244 82.7581 115.51 81.7527 114.755C81.0166 114.189 80.2806 113.623 79.5222 113.04C79.0908 121.995 79.0908 121.995 81.9129 130.196C84.0352 131.872 86.0472 132.943 88.5222 134.04C89.5238 134.508 90.5254 134.976 91.5574 135.458C98.5228 138.421 104.963 139.873 112.522 140.04C112.852 141.03 113.182 142.02 113.522 143.04C111.969 143.911 110.404 144.761 108.835 145.602C107.965 146.078 107.094 146.554 106.198 147.044C102.472 148.43 100.23 147.654 96.6004 146.348C90.7896 143.579 85.9206 139.743 81.5222 135.04C81.5222 134.38 81.5222 133.72 81.5222 133.04C80.8622 133.04 80.2022 133.04 79.5222 133.04C79.5222 139.64 79.5222 146.24 79.5222 153.04C77.2122 153.04 74.9022 153.04 72.5222 153.04C72.5222 146.44 72.5222 139.84 72.5222 133.04C71.8622 133.04 71.2022 133.04 70.5222 133.04C70.2786 133.626 70.035 134.213 69.784 134.817C66.3522 140.862 58.9897 144.965 52.5222 147.04C46.9752 147.866 43.2174 145.709 38.5222 143.04C38.8522 142.05 39.1822 141.06 39.5222 140.04C40.4168 139.942 41.3115 139.844 42.2332 139.743C49.8828 138.797 56.6391 137.57 63.5222 134.04C64.2995 133.688 65.0768 133.336 65.8777 132.973C68.4473 131.522 69.849 130.491 71.5222 128.04C72.4907 122.996 72.6265 118.162 72.5222 113.04C71.8558 113.571 71.1893 114.102 70.5027 114.649C63.0014 120.398 56.1337 124.104 46.7722 125.665C42.2631 124.798 39.4934 122.489 36.5222 119.04C35.4725 115.89 35.4209 113.652 35.4597 110.352C35.4688 109.358 35.4778 108.364 35.4871 107.34C35.4987 106.581 35.5103 105.822 35.5222 105.04C37.366 103.954 37.366 103.954 39.5222 103.04C40.3472 103.493 41.1722 103.947 42.0222 104.415C49.2825 107.786 56.7342 106.543 64.1472 104.102C66.6788 103.175 69.1122 102.245 71.5222 101.04C71.9898 98.6837 71.9898 98.6837 72.1472 95.9772C72.222 95.0581 72.2968 94.139 72.3738 93.192C72.4228 92.4817 72.4718 91.7715 72.5222 91.0397Z" fill="#DDDECC"/>
<path d="M38.5224 32.0397C38.5365 33.2491 38.5365 33.2491 38.5508 34.483C38.6048 38.1692 38.6884 41.8541 38.7724 45.5397C38.7866 46.8081 38.8008 48.0765 38.8154 49.3834C39.0051 56.6676 39.4626 61.9013 43.5224 68.0397C44.4093 68.6378 45.2962 69.2359 46.2099 69.8522C49.5554 73.0168 49.2124 76.0222 49.3818 80.4811C49.4163 83.1608 49.4163 83.1608 50.5224 86.0397C49.6072 85.9443 48.692 85.8489 47.749 85.7506C46.5605 85.6398 45.372 85.5289 44.1474 85.4147C42.9641 85.2987 41.7807 85.1826 40.5615 85.0631C39.0572 85.0515 39.0572 85.0515 37.5224 85.0397C35.1727 86.9372 35.1727 86.9372 35.3974 90.1647C35.4387 91.1134 35.4799 92.0622 35.5224 93.0397C36.8737 93.5269 38.2287 94.004 39.5849 94.4772C40.339 94.744 41.0932 95.0108 41.8701 95.2858C48.2032 97.0859 54.4378 97.1705 60.9599 97.1022C62.2003 97.0954 62.2003 97.0954 63.4658 97.0885C65.4847 97.0768 67.5036 97.0589 69.5224 97.0397C68.5224 100.04 68.5224 100.04 66.6592 101.208C59.521 104.179 51.9618 105.777 44.3818 103.356C42.7481 102.614 41.1339 101.829 39.5224 101.04C36.729 100.786 36.729 100.786 34.5224 101.04C32.9399 105.365 32.071 109.468 31.5224 114.04C23.97 107.455 18.2044 94.7404 17.3349 84.9225C16.2451 68.3029 18.9559 53.4153 29.5224 40.0397C36.6803 32.0397 36.6803 32.0397 38.5224 32.0397Z" fill="#9AC972"/>
<path d="M75.0225 9.72715C76.6563 9.72232 76.6563 9.72232 78.3232 9.71739C88.7573 9.78678 98.4378 11.3702 106.354 18.7467C111.37 24.3479 112.834 29.2359 112.858 36.7545C112.868 37.8545 112.868 37.8545 112.879 38.9768C112.889 40.5224 112.893 42.068 112.893 43.6136C112.897 45.9667 112.934 48.3178 112.972 50.6705C112.978 52.1777 112.982 53.6848 112.983 55.192C112.998 55.8891 113.012 56.5861 113.027 57.3043C112.98 62.3332 111.807 65.2508 108.522 69.0397C106.872 69.6997 105.222 70.3597 103.522 71.0397C103.522 74.6697 103.522 78.2996 103.522 82.0396C102.862 82.0396 102.202 82.0396 101.522 82.0396C101.522 78.7397 101.522 75.4397 101.522 72.0397C99.5425 72.3697 97.5625 72.6997 95.5225 73.0397C95.5225 75.6797 95.5225 78.3196 95.5225 81.0396C93.8725 81.0396 92.2225 81.0396 90.5225 81.0396C91.0175 79.5546 91.0175 79.5546 91.5225 78.0396C89.8725 78.0396 88.2225 78.0396 86.5225 78.0396C86.0275 79.5246 86.0275 79.5246 85.5225 81.0396C84.8625 81.0396 84.2025 81.0396 83.5225 81.0396C83.5225 80.3796 83.5225 79.7196 83.5225 79.0396C81.8725 79.0396 80.2225 79.0396 78.5225 79.0396C78.5225 80.0296 78.5225 81.0196 78.5225 82.0396C77.2025 82.0396 75.8825 82.0396 74.5225 82.0396C74.5225 81.0496 74.5225 80.0596 74.5225 79.0396C72.8725 79.0396 71.2225 79.0396 69.5225 79.0396C69.5225 79.6996 69.5225 80.3596 69.5225 81.0396C70.8425 81.3696 72.1625 81.6996 73.5225 82.0396C70.8825 82.0396 68.2425 82.0396 65.5225 82.0396C65.5225 81.0496 65.5225 80.0596 65.5225 79.0396C65.1925 80.0296 64.8625 81.0196 64.5225 82.0396C62.1895 82.0821 59.8554 82.0806 57.5225 82.0396C56.5225 81.0396 56.5225 81.0396 56.4248 79.192C56.4574 77.1412 56.4899 75.0904 56.5225 73.0397C54.5425 73.0397 52.5625 73.0397 50.5225 73.0397C50.7777 74.6672 51.0522 76.2917 51.335 77.9146C51.4858 78.8196 51.6366 79.7245 51.792 80.6568C52.353 83.3838 52.353 83.3838 55.5225 85.0396C64.4112 87.9149 74.2738 87.6568 83.5225 88.0396C83.5225 90.0196 83.5225 91.9997 83.5225 94.0396C89.7925 94.3696 96.0625 94.6996 102.522 95.0396C102.522 95.6996 102.522 96.3596 102.522 97.0396C95.5925 97.0396 88.6625 97.0396 81.5225 97.0396C81.1925 97.6996 80.8625 98.3596 80.5225 99.0396C80.5225 96.0696 80.5225 93.0996 80.5225 90.0396C79.7569 90.0501 78.9914 90.0606 78.2026 90.0714C74.6843 90.1133 71.166 90.1391 67.6475 90.1646C66.4435 90.1814 65.2395 90.1982 63.999 90.2154C57.68 90.2498 51.8478 89.9996 45.7017 88.4728C43.2648 87.9885 41.0007 87.9705 38.5225 88.0396C38.1925 89.0296 37.8625 90.0196 37.5225 91.0396C47.5647 93.8165 57.1553 94.6796 67.5225 95.0396C67.5225 95.6996 67.5225 96.3596 67.5225 97.0396C58.3572 100.095 46.2562 98.3332 37.3975 94.7896C35.5225 93.0396 35.5225 93.0396 34.5225 90.0396C34.5225 87.0396 34.5225 87.0396 35.6357 85.3326C38.4177 83.4261 40.4167 83.9626 43.71 84.3521C44.7966 84.472 45.8833 84.5919 47.0029 84.7154C47.8344 84.8224 48.6658 84.9294 49.5225 85.0396C49.1925 84.3796 48.8625 83.7196 48.5225 83.0396C48.4201 81.249 48.3397 79.457 48.2725 77.6646C47.9863 73.1232 47.9863 73.1232 45.1475 69.6647C44.2812 69.1284 43.415 68.5922 42.5225 68.0397C39.4293 64.0075 39.0425 60.3945 39.0186 55.4654C39.0086 54.7416 38.9986 54.0177 38.9883 53.2719C38.9732 51.7431 38.9661 50.2142 38.9666 48.6854C38.96 46.3753 38.9056 44.0697 38.8486 41.7604C38.7476 33.0054 39.408 25.8458 45.5225 19.0397C54.6704 11.3664 63.3504 9.55449 75.0225 9.72715ZM45.5225 23.0397C42.746 27.6869 42.0665 31.5697 42.0889 36.8873C42.0836 37.6216 42.0784 38.3559 42.073 39.1125C42.0666 40.6563 42.0679 42.2002 42.0764 43.744C42.085 46.0993 42.0561 48.4522 42.0244 50.8072C42.0228 52.3131 42.0234 53.819 42.0264 55.3248C42.0151 56.0239 42.0039 56.723 41.9923 57.4432C42.0606 62.2569 43.1227 64.6615 46.5225 68.0397C49.8074 70.2296 51.3534 70.3924 55.21 70.6647C56.2038 70.7394 57.1977 70.8142 58.2217 70.8912C58.9809 70.9402 59.7402 70.9892 60.5225 71.0397C60.5225 72.3597 60.5225 73.6796 60.5225 75.0396C62.1725 75.0396 63.8225 75.0396 65.5225 75.0396C65.5225 73.7196 65.5225 72.3997 65.5225 71.0397C66.8425 71.0397 68.1625 71.0397 69.5225 71.0397C69.5225 72.3597 69.5225 73.6796 69.5225 75.0396C71.1725 75.0396 72.8225 75.0396 74.5225 75.0396C74.5225 74.0496 74.5225 73.0597 74.5225 72.0397C75.8425 72.0397 77.1625 72.0397 78.5225 72.0397C78.5225 73.0297 78.5225 74.0196 78.5225 75.0396C80.1725 75.0396 81.8225 75.0396 83.5225 75.0396C83.5225 73.7196 83.5225 72.3997 83.5225 71.0397C84.5125 71.0397 85.5025 71.0397 86.5225 71.0397C86.5225 72.3597 86.5225 73.6796 86.5225 75.0396C88.1725 75.0396 89.8225 75.0396 91.5225 75.0396C91.5225 73.3896 91.5225 71.7397 91.5225 70.0397C92.4835 70.1267 92.4835 70.1267 93.4639 70.2154C99.1721 70.5132 102.604 70.0629 107.147 66.524C111.889 61.4059 110.895 54.9256 110.893 48.36C110.897 46.3096 110.934 44.2615 110.972 42.2115C110.998 33.3997 110.422 27.7573 104.698 20.8326C104.083 20.3028 103.468 19.773 102.835 19.2272C102.233 18.6845 101.631 18.1418 101.011 17.5826C93.16 12.7144 85.1211 12.5473 76.085 12.6022C74.9216 12.5822 73.7582 12.5622 72.5596 12.5416C62.2241 12.5474 52.4435 14.7785 45.5225 23.0397Z" fill="#1C1C19"/>
<path d="M38.5225 87.0397C39.8977 87.1833 41.2726 87.3297 42.6475 87.4772C43.4132 87.5584 44.1789 87.6396 44.9678 87.7233C46.7445 87.9433 48.5148 88.2198 50.2764 88.5397C53.5496 89.0439 56.7058 89.2458 60.0146 89.3561C61.2135 89.398 62.4123 89.4399 63.6475 89.483C65.5037 89.542 65.5037 89.542 67.3975 89.6022C68.6582 89.6454 69.9189 89.6885 71.2178 89.733C74.3192 89.8388 77.4208 89.9409 80.5225 90.0397C81.0175 93.5047 81.0175 93.5047 81.5225 97.0397C86.8025 97.0397 92.0825 97.0397 97.5225 97.0397C97.5225 97.3697 97.5225 97.6997 97.5225 98.0397C92.9025 98.3697 88.2825 98.6997 83.5225 99.0397C90.9219 103.053 97.1336 103.992 105.522 103.04C108.019 102.241 110.158 101.197 112.522 100.04C114.772 100.102 114.772 100.102 116.522 101.04C119.522 104.361 119.522 104.361 119.522 107.04C118.862 107.04 118.202 107.04 117.522 107.04C117.605 108.03 117.687 109.02 117.772 110.04C117.782 114.595 116.081 118.318 113.522 122.04C109.951 124.42 108.256 124.309 104.022 124.29C102.878 124.295 101.733 124.3 100.554 124.305C97.5225 124.04 97.5225 124.04 94.5225 122.04C94.8525 120.72 95.1825 119.4 95.5225 118.04C90.5725 115.4 85.6225 112.76 80.5225 110.04C80.5225 107.4 80.5225 104.76 80.5225 102.04C80.0275 101.545 80.0275 101.545 79.5225 101.04C79.4504 99.3536 79.4386 97.6647 79.46 95.9772C79.469 95.0581 79.478 94.139 79.4873 93.192C79.4989 92.4817 79.5105 91.7715 79.5225 91.0397C77.2125 91.0397 74.9025 91.0397 72.5225 91.0397C72.5225 94.3397 72.5225 97.6397 72.5225 101.04C71.5325 100.38 70.5425 99.7197 69.5225 99.0397C69.5225 98.3797 69.5225 97.7197 69.5225 97.0397C68.8625 97.0397 68.2025 97.0397 67.5225 97.0397C67.5225 96.3797 67.5225 95.7197 67.5225 95.0397C66.3997 95.0629 65.2769 95.0861 64.1201 95.11C45.7765 95.3762 45.7765 95.3762 37.5225 91.0397C37.8525 89.7197 38.1825 88.3997 38.5225 87.0397Z" fill="#D4D6C3"/>
<path d="M101.698 39.6803C103.814 40.9525 104.517 41.7652 105.522 44.0396C106.413 50.0091 107.051 55.7434 103.608 60.9146C100.34 64.2438 98.2198 64.2459 93.6475 64.3521C92.5982 64.3895 91.5489 64.4269 90.4678 64.4654C86.8835 63.9473 85.7722 62.7947 83.5225 60.0396C83.1925 63.0096 82.8625 65.9796 82.5225 69.0396C78.5625 69.0396 74.6025 69.0396 70.5225 69.0396C70.5225 65.4096 70.5225 61.7796 70.5225 58.0396C73.8225 57.7096 77.1225 57.3796 80.5225 57.0396C80.4529 56.1592 80.3832 55.2788 80.3115 54.3717C79.8756 45.0192 79.8756 45.0192 82.71 40.7271C88.1441 37.3681 95.7883 37.9402 101.698 39.6803Z" fill="#212120"/>
<path d="M37.5225 103.04C38.2856 103.349 39.0487 103.658 39.835 103.977C49.5221 107.807 58.8416 106.241 68.5225 103.04C69.0175 104.03 69.0175 104.03 69.5225 105.04C70.5125 104.71 71.5025 104.38 72.5225 104.04C72.7233 107.756 72.6744 108.812 70.5225 112.04C71.1825 112.37 71.8425 112.7 72.5225 113.04C64.445 119.477 57.0431 123.953 46.7725 125.665C42.2633 124.798 39.4937 122.489 36.5225 119.04C35.4948 115.957 35.3565 113.708 35.335 110.477C35.3208 109.507 35.3066 108.536 35.292 107.536C35.5225 105.04 35.5225 105.04 37.5225 103.04Z" fill="#DBDDCD"/>
<path d="M67.6318 39.7116C69.6856 40.983 70.4664 41.853 71.5225 44.0397C72.5947 49.3867 72.8006 54.4708 70.3271 59.442C67.7921 62.4364 65.6651 63.7904 61.8193 64.6295C56.9721 64.901 54.4406 64.6093 50.2295 61.9967C47.6187 59.6346 47.4971 58.9171 46.7256 55.192C46.7098 53.7871 46.7261 52.3815 46.7725 50.9772C46.7493 50.2702 46.7261 49.5631 46.7021 48.8346C46.7256 46.7545 46.7256 46.7545 47.5225 43.0397C53.216 37.7957 60.3996 37.408 67.6318 39.7116Z" fill="#1C1C1C"/>
<path d="M109.522 32.0397C109.646 36.3629 109.737 40.6852 109.797 45.0096C109.822 46.4792 109.856 47.9487 109.9 49.4178C109.961 51.5356 109.989 53.6517 110.011 55.7701C110.037 57.0427 110.063 58.3152 110.09 59.6263C109.372 63.9456 107.864 65.3098 104.522 68.0397C101.209 70.2488 100.178 70.2645 96.335 70.1647C95.4339 70.1466 94.5329 70.1286 93.6045 70.11C92.9174 70.0868 92.2304 70.0636 91.5225 70.0397C91.5225 71.6897 91.5225 73.3397 91.5225 75.0397C89.8725 75.0397 88.2225 75.0397 86.5225 75.0397C86.5225 73.7197 86.5225 72.3997 86.5225 71.0397C85.5325 71.0397 84.5425 71.0397 83.5225 71.0397C83.5225 72.3597 83.5225 73.6797 83.5225 75.0397C81.8725 75.0397 80.2225 75.0397 78.5225 75.0397C78.5225 74.0497 78.5225 73.0597 78.5225 72.0397C77.2025 72.0397 75.8825 72.0397 74.5225 72.0397C74.5225 73.0297 74.5225 74.0197 74.5225 75.0397C72.8725 75.0397 71.2225 75.0397 69.5225 75.0397C69.5225 73.7197 69.5225 72.3997 69.5225 71.0397C68.2025 70.7097 66.8825 70.3797 65.5225 70.0397C69.1324 68.9049 72.5067 68.9395 76.2725 68.9772C78.0282 68.9907 78.0282 68.9907 79.8193 69.0045C80.7114 69.0161 81.6034 69.0277 82.5225 69.0397C82.5225 65.7397 82.5225 62.4397 82.5225 59.0397C83.1 59.6997 83.6775 60.3597 84.2725 61.0397C89.2169 64.0824 93.8686 63.8753 99.5225 63.0397C103.06 61.6689 103.06 61.6689 104.522 58.0397C105.381 52.7486 106.258 46.7748 103.261 42.0514C98.9447 38.6408 93.8779 38.1733 88.5225 38.0397C88.5225 37.7097 88.5225 37.3797 88.5225 37.0397C89.4796 36.9662 89.4796 36.9662 90.4561 36.8912C91.2823 36.8165 92.1086 36.7417 92.96 36.6647C93.7837 36.5951 94.6074 36.5255 95.4561 36.4537C96.138 36.3171 96.8199 36.1805 97.5225 36.0397C97.8525 35.3797 98.1825 34.7197 98.5225 34.0397C99.1206 34.349 99.7187 34.6584 100.335 34.9772C102.612 36.1418 102.612 36.1418 105.522 37.0397C105.522 36.0497 105.522 35.0597 105.522 34.0397C108.522 32.0397 108.522 32.0397 109.522 32.0397Z" fill="#E0DFD1"/>
<path d="M70.5225 97.0397C70.8525 97.0397 71.1825 97.0397 71.5225 97.0397C71.5225 98.6897 71.5225 100.34 71.5225 102.04C69.9405 102.689 68.3568 103.334 66.7725 103.977C65.8907 104.337 65.009 104.696 64.1006 105.067C57.0386 107.731 48.9707 108.552 41.96 105.477C41.1556 105.003 40.3512 104.528 39.5225 104.04C38.5325 104.37 37.5425 104.7 36.5225 105.04C35.8306 113.631 35.8306 113.631 39.5225 121.04C41.8848 123.486 43.1939 123.993 46.585 124.477C54.7936 123.565 61.5499 120.595 67.8662 115.309C69.5225 114.04 69.5225 114.04 72.5225 113.04C73.8795 126.057 73.8795 126.057 70.8701 130.454C63.9282 135.993 55.3316 139.274 46.5225 140.04C46.5225 139.38 46.5225 138.72 46.5225 138.04C44.2125 138.04 41.9025 138.04 39.5225 138.04C39.5225 137.71 39.5225 137.38 39.5225 137.04C40.4287 136.942 41.3349 136.844 42.2686 136.743C49.677 135.833 55.9629 134.647 62.5225 131.04C63.5125 130.503 64.5025 129.967 65.5225 129.415C67.6487 128.19 67.6487 128.19 68.5225 126.04C68.5625 124.04 68.5659 122.039 68.5225 120.04C67.7606 120.546 67.7606 120.546 66.9834 121.063C66.295 121.509 65.6067 121.955 64.8975 122.415C64.2246 122.856 63.5517 123.296 62.8584 123.751C56.1074 127.476 49.0867 128.131 41.5225 127.04C37.1882 124.8 34.2751 121.595 32.5225 117.04C32.1865 113.946 32.1865 113.946 32.1475 110.54C32.1191 109.416 32.0907 108.292 32.0615 107.133C32.6131 103.431 33.5543 102.251 36.5225 100.04C39.3169 100.183 41.2838 100.933 43.8271 102.071C51.5691 104.854 59.3102 103.294 66.5615 99.9147C68.5225 99.0397 68.5225 99.0397 70.5225 99.0397C70.5225 98.3797 70.5225 97.7197 70.5225 97.0397Z" fill="#1C1F1A"/>
<path d="M101.522 72.0397C101.603 73.643 101.662 75.2475 101.71 76.8522C101.762 78.1922 101.762 78.1922 101.815 79.5592C101.459 82.5763 100.842 83.1601 98.5223 85.0397C90.8881 87.8198 82.3283 87.3403 74.3348 87.2897C73.1031 87.2974 71.8714 87.3051 70.6023 87.3131C56.1959 87.282 56.1959 87.282 51.5848 83.4147C50.0008 79.8741 50.3293 76.8985 50.5223 73.0397C52.5023 73.0397 54.4823 73.0397 56.5223 73.0397C56.8523 75.6797 57.1823 78.3197 57.5223 81.0397C59.8323 81.3697 62.1423 81.6997 64.5223 82.0397C64.5223 81.3797 64.5223 80.7197 64.5223 80.0397C63.2023 79.7097 61.8823 79.3797 60.5223 79.0397C62.1723 79.0397 63.8223 79.0397 65.5223 79.0397C65.5223 80.0297 65.5223 81.0197 65.5223 82.0397C66.8423 81.7097 68.1623 81.3797 69.5223 81.0397C69.5223 80.3797 69.5223 79.7197 69.5223 79.0397C71.1723 79.0397 72.8223 79.0397 74.5223 79.0397C74.5223 80.0297 74.5223 81.0197 74.5223 82.0397C75.8423 82.0397 77.1623 82.0397 78.5223 82.0397C78.5223 81.0497 78.5223 80.0597 78.5223 79.0397C79.2854 79.0603 80.0485 79.0809 80.8348 79.1022C83.6241 79.1691 83.6241 79.1691 86.5223 78.0397C88.1885 78.0009 89.8562 77.9946 91.5223 78.0397C91.5223 78.6997 91.5223 79.3597 91.5223 80.0397C92.8423 80.3697 94.1623 80.6997 95.5223 81.0397C95.5223 78.3997 95.5223 75.7597 95.5223 73.0397C97.5978 72.4862 99.3659 72.0397 101.522 72.0397Z" fill="#BFC0B6"/>
<path d="M38.5225 87.0397C39.8977 87.1833 41.2726 87.3297 42.6475 87.4772C43.4132 87.5584 44.1789 87.6396 44.9678 87.7233C46.7445 87.9433 48.5148 88.2198 50.2764 88.5397C53.5496 89.0439 56.7058 89.2458 60.0146 89.3561C61.2135 89.398 62.4123 89.4399 63.6475 89.483C65.5037 89.542 65.5037 89.542 67.3975 89.6022C68.6582 89.6454 69.9189 89.6885 71.2178 89.733C74.3192 89.8388 77.4208 89.9409 80.5225 90.0397C81.0175 93.5047 81.0175 93.5047 81.5225 97.0397C86.8025 97.0397 92.0825 97.0397 97.5225 97.0397C97.5225 97.3697 97.5225 97.6997 97.5225 98.0397C92.9025 98.3697 88.2825 98.6997 83.5225 99.0397C90.9219 103.053 97.1336 103.992 105.522 103.04C108.019 102.241 110.158 101.197 112.522 100.04C114.772 100.102 114.772 100.102 116.522 101.04C119.522 104.361 119.522 104.361 119.522 107.04C118.862 107.04 118.202 107.04 117.522 107.04C117.522 109.35 117.522 111.66 117.522 114.04C117.192 114.04 116.862 114.04 116.522 114.04C116.449 113.083 116.449 113.083 116.374 112.106C116.262 110.867 116.262 110.867 116.147 109.602C116.043 108.367 116.043 108.367 115.937 107.106C115.732 106.083 115.732 106.083 115.522 105.04C114.862 104.71 114.202 104.38 113.522 104.04C112.615 104.514 111.707 104.988 110.772 105.477C103.148 108.908 93.9539 107.863 86.2725 105.165C83.3769 104.008 81.7364 103.254 79.5225 101.04C79.3271 98.6569 79.3271 98.6569 79.3975 95.9147C79.4155 95.0046 79.4336 94.0945 79.4521 93.1569C79.4754 92.4582 79.4986 91.7595 79.5225 91.0397C77.2125 91.0397 74.9025 91.0397 72.5225 91.0397C72.5225 94.3397 72.5225 97.6397 72.5225 101.04C71.5325 100.38 70.5425 99.7197 69.5225 99.0397C69.5225 98.3797 69.5225 97.7197 69.5225 97.0397C68.8625 97.0397 68.2025 97.0397 67.5225 97.0397C67.5225 96.3797 67.5225 95.7197 67.5225 95.0397C66.3997 95.0629 65.2769 95.0861 64.1201 95.11C45.7765 95.3762 45.7765 95.3762 37.5225 91.0397C37.8525 89.7197 38.1825 88.3997 38.5225 87.0397Z" fill="#181B16"/>
<path d="M100.522 82.0397C101.512 82.3697 102.502 82.6997 103.522 83.0397C103.192 83.6997 102.862 84.3597 102.522 85.0397C103.354 84.9327 104.185 84.8257 105.042 84.7155C106.129 84.5956 107.215 84.4757 108.335 84.3522C109.414 84.2246 110.493 84.0969 111.604 83.9655C114.522 84.0397 114.522 84.0397 116.401 85.3326C117.522 87.0397 117.522 87.0397 117.647 90.0397C116.522 93.0397 116.522 93.0397 113.397 94.8522C109.843 96.1034 106.27 96.6572 102.522 97.0397C102.522 96.3797 102.522 95.7197 102.522 95.0397C96.2525 95.0397 89.9825 95.0397 83.5225 95.0397C82.5225 91.0397 82.5225 91.0397 83.5225 88.0397C77.5825 88.0397 71.6425 88.0397 65.5225 88.0397C65.5225 87.7097 65.5225 87.3797 65.5225 87.0397C66.1668 87.0199 66.8112 87 67.4751 86.9796C70.4496 86.8832 73.4234 86.774 76.3975 86.6647C77.4107 86.6337 78.4239 86.6028 79.4678 86.5709C90.8242 86.6386 90.8242 86.6386 100.522 82.0397Z" fill="#191B17"/>
<path d="M41.96 84.2897C42.7218 84.398 43.4836 84.5063 44.2686 84.6178C46.3804 85.0131 48.4458 85.4909 50.5225 86.0397C50.5225 85.3797 50.5225 84.7197 50.5225 84.0397C60.5225 86.0397 60.5225 86.0397 62.7725 86.5709C66.776 87.2534 70.7823 87.4071 74.835 87.6022C75.6709 87.6454 76.5069 87.6886 77.3682 87.733C79.4194 87.8385 81.4709 87.9396 83.5225 88.0397C83.5225 90.0197 83.5225 91.9997 83.5225 94.0397C89.7925 94.3697 96.0625 94.6997 102.522 95.0397C102.522 95.6997 102.522 96.3597 102.522 97.0397C95.5925 97.0397 88.6625 97.0397 81.5225 97.0397C81.1925 97.6997 80.8625 98.3597 80.5225 99.0397C80.5225 96.0697 80.5225 93.0997 80.5225 90.0397C79.3741 90.0554 79.3741 90.0554 78.2026 90.0714C74.6843 90.1134 71.166 90.1391 67.6475 90.1647C66.4435 90.1814 65.2395 90.1982 63.999 90.2155C57.68 90.2498 51.8478 89.9997 45.7017 88.4728C43.2648 87.9885 41.0007 87.9706 38.5225 88.0397C38.1925 89.0297 37.8625 90.0197 37.5225 91.0397C47.5647 93.8166 57.1553 94.6796 67.5225 95.0397C67.5225 95.6997 67.5225 96.3597 67.5225 97.0397C58.3572 100.095 46.2562 98.3332 37.3975 94.7897C35.5225 93.0397 35.5225 93.0397 34.5225 90.0397C34.5225 87.0397 34.5225 87.0397 35.7451 85.3366C38.0722 83.6386 39.1516 83.854 41.96 84.2897Z" fill="#090908"/>
<path d="M74.71 9.85217C75.8218 9.83993 76.9336 9.82768 78.0791 9.81506C88.6396 9.79631 98.3277 11.2676 106.354 18.7467C111.37 24.348 112.834 29.2359 112.858 36.7545C112.865 37.4879 112.872 38.2212 112.879 38.9768C112.889 40.5224 112.893 42.068 112.893 43.6136C112.897 45.9667 112.934 48.3178 112.972 50.6705C112.978 52.1777 112.982 53.6849 112.983 55.192C112.998 55.8891 113.012 56.5861 113.027 57.3043C112.98 62.3332 111.807 65.2509 108.522 69.0397C106.872 69.6997 105.222 70.3597 103.522 71.0397C103.522 74.6697 103.522 78.2997 103.522 82.0397C102.862 82.0397 102.202 82.0397 101.522 82.0397C101.522 78.7397 101.522 75.4397 101.522 72.0397C100.532 71.7097 99.5425 71.3797 98.5225 71.0397C99.1489 70.653 99.7754 70.2662 100.421 69.8678C101.238 69.347 102.055 68.8262 102.897 68.2897C103.71 67.7792 104.522 67.2687 105.358 66.7428C107.76 64.8525 108.439 63.867 109.522 61.0397C109.921 56.8178 109.894 52.5994 109.893 48.36C109.897 46.3096 109.934 44.2615 109.972 42.2115C109.997 33.5611 109.456 27.9108 103.917 21.0514C94.6163 13.2664 84.5051 13.6495 72.96 13.8522C71.4593 13.8672 69.9587 13.8809 68.458 13.8932C64.8125 13.926 61.1676 13.9776 57.5225 14.0397C61.4008 8.22218 68.3384 9.8558 74.71 9.85217Z" fill="#0E110C"/>
<path d="M117.522 107.04C118.182 107.04 118.842 107.04 119.522 107.04C119.877 112.027 120.108 115.869 117.835 120.415C112.27 126.732 112.27 126.732 107.507 127.571C97.3378 127.473 90.6799 124.896 82.5224 119.04C82.8681 123.006 83.2198 126.701 86.0849 129.645C93.4555 134.475 101.803 136.277 110.491 136.731C112.522 137.04 112.522 137.04 114.522 139.04C112.799 140.763 110.629 140.334 108.272 140.415C100.923 140.336 95.0624 138.276 88.5224 135.04C87.5917 134.59 86.661 134.14 85.7021 133.676C82.9165 131.987 81.305 130.781 79.5224 128.04C78.7827 122.92 78.9878 118.168 79.5224 113.04C83.3678 114.853 86.7238 117.18 90.206 119.602C94.9384 122.539 98.5757 123.298 104.147 123.227C105.274 123.221 106.401 123.214 107.561 123.208C110.58 123.166 110.58 123.166 113.522 122.04C116.018 117.489 116.6 112.095 117.522 107.04Z" fill="#0F100D"/>
<path d="M67.5225 131.04C68.5125 131.37 69.5025 131.7 70.5225 132.04C69.795 136.647 67.3034 138.472 63.8428 141.356C59.392 144.585 54.8911 146.653 49.46 147.54C45.3769 146.845 42.0993 145.073 38.5225 143.04C38.8525 142.05 39.1825 141.06 39.5225 140.04C40.4171 139.942 41.3117 139.844 42.2334 139.743C54.7115 138.224 54.7115 138.224 65.6084 132.348C66.24 131.916 66.8717 131.485 67.5225 131.04Z" fill="#DADCC9"/>
<path d="M83.5225 131.04C84.3591 131.522 85.1957 132.004 86.0576 132.501C94.8812 137.363 102.452 139.349 112.522 140.04C112.852 141.03 113.182 142.02 113.522 143.04C111.97 143.911 110.405 144.761 108.835 145.602C107.965 146.078 107.095 146.554 106.198 147.044C102.457 148.436 100.2 147.662 96.5654 146.313C91.1222 143.677 86.9011 140.185 82.5225 136.04C82.8525 134.39 83.1825 132.74 83.5225 131.04Z" fill="#D8D9C8"/>
<path d="M80.5225 105.04C81.2985 105.473 82.0745 105.906 82.874 106.352C93.3271 111.741 101.95 112.152 113.522 110.04C113.21 112.915 113.21 112.915 112.522 116.04C107.788 119.196 103.062 118.687 97.5225 118.04C93.3216 116.739 89.4287 115.052 85.5225 113.04C84.5827 112.592 83.643 112.145 82.6748 111.684C81.9645 111.142 81.2543 110.599 80.5225 110.04C80.21 107.352 80.21 107.352 80.5225 105.04Z" fill="#1B1D18"/>
<path d="M72.5225 104.04C72.8037 106.344 72.8037 106.344 72.5225 109.04C69.5773 111.659 66.0345 113.279 62.5225 115.04C61.8547 115.385 61.187 115.731 60.499 116.087C54.8716 118.603 48.583 118.955 42.5225 118.04C40.6787 116.684 40.6787 116.684 39.5225 115.04C39.335 112.352 39.335 112.352 39.5225 110.04C40.0316 110.2 40.5408 110.359 41.0654 110.524C48.9749 112.184 58.5092 112.309 65.5225 108.04C70.6653 104.04 70.6653 104.04 72.5225 104.04Z" fill="#2A3723"/>
<path d="M72.5225 91.0397C74.8325 91.0397 77.1425 91.0397 79.5225 91.0397C79.583 91.7151 79.6436 92.3906 79.7061 93.0865C79.7898 93.9786 79.8736 94.8706 79.96 95.7897C80.0818 97.1123 80.0818 97.1123 80.2061 98.4615C80.4848 100.733 80.9104 102.838 81.5225 105.04C80.8625 105.04 80.2025 105.04 79.5225 105.04C79.1925 106.36 78.8625 107.68 78.5225 109.04C77.5325 108.71 76.5425 108.38 75.5225 108.04C74.7697 110.772 74.356 113.321 74.2061 116.149C74.1642 116.903 74.1223 117.657 74.0791 118.434C74.0201 119.6 74.0201 119.6 73.96 120.79C73.9168 121.582 73.8736 122.375 73.8291 123.192C73.7234 125.141 73.6225 127.09 73.5225 129.04C73.1925 129.04 72.8625 129.04 72.5225 129.04C72.5225 123.43 72.5225 117.82 72.5225 112.04C71.8625 112.04 71.2025 112.04 70.5225 112.04C71.1825 109.4 71.8425 106.76 72.5225 104.04C70.5425 105.03 70.5425 105.03 68.5225 106.04C68.8975 104.102 68.8975 104.102 69.5225 102.04C70.1825 101.71 70.8425 101.38 71.5225 101.04C71.99 98.6837 71.99 98.6837 72.1475 95.9772C72.2222 95.0581 72.297 94.139 72.374 93.192C72.423 92.4817 72.472 91.7715 72.5225 91.0397Z" fill="#E0E3D1"/>
<path d="M79.5225 133.04C80.1825 133.04 80.8425 133.04 81.5225 133.04C82.8193 134.43 82.8193 134.43 84.2725 136.29C87.0578 139.672 89.7705 141.806 93.5225 144.04C92.8625 144.7 92.2025 145.36 91.5225 146.04C93.5025 147.03 95.4825 148.02 97.5225 149.04C94.3224 150.853 91.3896 151.562 87.7725 152.165C86.7876 152.332 85.8028 152.5 84.7881 152.672C84.0404 152.794 83.2928 152.915 82.5225 153.04C82.5225 149.74 82.5225 146.44 82.5225 143.04C81.8625 143.04 81.2025 143.04 80.5225 143.04C80.5225 146.01 80.5225 148.98 80.5225 152.04C80.1925 152.04 79.8625 152.04 79.5225 152.04C79.5225 145.77 79.5225 139.5 79.5225 133.04Z" fill="#2E3228"/>
<path d="M101.522 72.0397C101.604 73.643 101.662 75.2475 101.71 76.8522C101.762 78.1922 101.762 78.1922 101.815 79.5592C101.459 82.5793 100.851 83.1633 98.5225 85.0397C91.5908 87.469 84.1452 87.2905 76.8975 87.1647C75.3912 87.1511 75.3912 87.1511 73.8545 87.1373C71.4102 87.1141 68.9665 87.0814 66.5225 87.0397C66.5225 86.7097 66.5225 86.3797 66.5225 86.0397C69.1625 85.7097 71.8025 85.3797 74.5225 85.0397C74.5225 84.3797 74.5225 83.7197 74.5225 83.0397C81.4525 82.3797 88.3825 81.7197 95.5225 81.0397C95.5225 78.3997 95.5225 75.7597 95.5225 73.0397C97.598 72.4862 99.3661 72.0397 101.522 72.0397Z" fill="#DFE2D5"/>
<path d="M114.522 87.0397C114.522 88.3597 114.522 89.6797 114.522 91.0397C104.215 95.3501 94.6162 95.1817 83.5225 95.0397C82.96 93.1022 82.96 93.1022 82.5225 91.0397C84.0987 89.4634 85.8168 89.7284 88.0029 89.5397C89.3787 89.4159 89.3787 89.4159 90.7822 89.2897C91.7484 89.2072 92.7145 89.1247 93.71 89.0397C100.623 88.4373 107.612 87.0397 114.522 87.0397Z" fill="#D4D6C7"/>
<path d="M49.249 96.7797C53.1686 97.228 57.0826 97.1439 61.0225 97.1022C62.2561 97.0955 62.2561 97.0955 63.5146 97.0886C65.5173 97.0769 67.5199 97.059 69.5225 97.0397C68.5225 100.04 68.5225 100.04 66.6592 101.208C58.8076 104.476 50.4969 105.872 42.335 102.727C39.5225 101.04 39.5225 101.04 38.5225 98.0397C42.4121 95.9734 44.9748 96.1735 49.249 96.7797Z" fill="#83BB5D"/>
<path d="M38.5225 87.0397C40.4445 87.2562 40.4445 87.2562 42.4053 87.4772C45.7526 87.8495 49.101 88.2036 52.4521 88.5397C53.6742 88.6634 53.6742 88.6634 54.9209 88.7897C56.5951 88.9587 58.2696 89.1253 59.9443 89.2897C60.7513 89.3722 61.5582 89.4547 62.3896 89.5397C63.1127 89.6119 63.8357 89.684 64.5806 89.7584C66.5225 90.0397 66.5225 90.0397 69.5225 91.0397C69.5225 92.0297 69.5225 93.0197 69.5225 94.0397C59.102 96.4881 47.0942 96.1021 37.5225 91.0397C37.8525 89.7197 38.1825 88.3997 38.5225 87.0397Z" fill="#D2D4C3"/>
<path d="M112.522 96.0396C111.532 96.5346 111.532 96.5346 110.522 97.0396C110.213 98.0296 109.904 99.0196 109.585 100.04C109.059 101.525 109.059 101.525 108.522 103.04C100.725 105.639 92.4126 104.697 85.1318 101.11C83.5225 100.04 83.5225 100.04 82.5225 98.0396C83.1627 97.9843 83.803 97.9289 84.4626 97.8719C87.3787 97.6182 90.2943 97.3602 93.21 97.1021C94.7211 96.9716 94.7211 96.9716 96.2627 96.8385C97.2392 96.7515 98.2156 96.6645 99.2217 96.5748C100.117 96.4963 101.013 96.4177 101.935 96.3368C104.548 96.0836 104.548 96.0836 107.166 95.4437C109.522 95.0396 109.522 95.0396 112.522 96.0396Z" fill="#88C264"/>
<path d="M82.5225 119.04C85.0528 120.285 87.4994 121.59 89.96 122.977C95.4845 125.776 101.491 126.826 107.522 128.04C107.522 128.37 107.522 128.7 107.522 129.04C100.772 129.165 100.772 129.165 98.5225 128.04C98.8525 129.36 99.1825 130.68 99.5225 132.04C98.2025 132.04 96.8825 132.04 95.5225 132.04C95.5225 132.7 95.5225 133.36 95.5225 134.04C90.5935 133.592 87.1849 131.2 83.5225 128.04C82.0441 125.083 82.4621 122.297 82.5225 119.04Z" fill="#93C46B"/>
<path d="M58.5225 39.0397C58.1925 40.0297 57.8625 41.0197 57.5225 42.0397C53.96 43.7272 53.96 43.7272 50.5225 45.0397C49.7193 52.8722 49.7193 52.8722 52.5225 59.8522C56.5035 61.4281 59.4663 61.3889 63.5225 60.0397C65.9056 58.1454 67.1725 56.7396 68.5225 54.0397C68.5914 52.6663 68.6071 51.2897 68.585 49.9147C68.5643 48.636 68.5437 47.3572 68.5225 46.0397C69.1825 46.0397 69.8425 46.0397 70.5225 46.0397C70.7736 52.4446 70.5313 56.8081 67.085 62.3522C63.5297 64.6935 60.5544 64.5685 56.374 64.6686C52.5223 63.8191 49.8618 62.1784 47.5225 59.0397C46.8966 56.0177 46.6738 53.9683 46.7725 50.9772C46.7493 50.2702 46.7261 49.5631 46.7021 48.8346C46.7256 46.7546 46.7256 46.7546 47.5225 43.0397C51.1624 39.8907 53.6829 38.4704 58.5225 39.0397Z" fill="#070707"/>
<path d="M44.5225 85.0397C44.5225 85.6997 44.5225 86.3597 44.5225 87.0397C42.5425 87.3697 40.5625 87.6997 38.5225 88.0397C38.1925 89.0297 37.8625 90.0197 37.5225 91.0397C47.5647 93.8166 57.1553 94.6797 67.5225 95.0397C67.5225 95.6997 67.5225 96.3597 67.5225 97.0397C58.3572 100.095 46.2562 98.3332 37.3975 94.7897C35.5225 93.0397 35.5225 93.0397 34.5225 90.0397C34.5225 87.0397 34.5225 87.0397 35.5225 85.1022C38.6325 83.45 41.1797 84.346 44.5225 85.0397Z" fill="#11150E"/>
<path d="M110.522 31.0397C111.182 31.0397 111.842 31.0397 112.522 31.0397C112.622 35.487 112.694 39.9338 112.742 44.382C112.762 45.8931 112.789 47.4042 112.824 48.9152C112.873 51.0949 112.896 53.2736 112.913 55.4537C112.934 56.7629 112.955 58.0721 112.977 59.421C112.439 63.7074 111.333 65.783 108.522 69.0397C106.872 69.6997 105.222 70.3597 103.522 71.0397C103.522 74.6697 103.522 78.2997 103.522 82.0397C102.862 82.0397 102.202 82.0397 101.522 82.0397C101.522 78.7397 101.522 75.4397 101.522 72.0397C100.532 71.7097 99.5425 71.3797 98.5225 71.0397C99.1489 70.653 99.7754 70.2662 100.421 69.8678C101.647 69.0866 101.647 69.0866 102.897 68.2897C103.71 67.7792 104.522 67.2687 105.358 66.7428C107.767 64.8468 108.437 63.8773 109.522 61.0397C109.889 57.7475 109.889 57.7475 109.937 54.0865C109.956 53.4263 109.975 52.7661 109.995 52.0859C110.055 49.9873 110.101 47.8886 110.147 45.7897C110.186 44.3626 110.225 42.9355 110.265 41.5084C110.36 38.019 110.445 34.5295 110.522 31.0397Z" fill="#070807"/>
<path d="M70.5225 59.0397C74.1525 59.0397 77.7825 59.0397 81.5225 59.0397C81.8525 62.3397 82.1825 65.6397 82.5225 69.0397C78.5625 69.0397 74.6025 69.0397 70.5225 69.0397C70.5225 65.7397 70.5225 62.4397 70.5225 59.0397Z" fill="#121211"/>
<path d="M56.5224 12.0397C58.5224 13.0397 58.5224 13.0397 59.5224 15.0397C58.5092 15.4941 58.5092 15.4941 57.4756 15.9576C50.4802 19.2353 50.4802 19.2353 45.5224 25.0397C45.17 25.5975 44.8176 26.1554 44.4546 26.7301C43.1638 29.9282 43.1662 33.0305 43.1084 36.4303C43.089 37.1349 43.0696 37.8395 43.0497 38.5655C42.9901 40.8068 42.9436 43.0481 42.8974 45.2897C42.8592 46.8131 42.8202 48.3366 42.7802 49.86C42.6844 53.5864 42.6003 57.3129 42.5224 61.0397C42.1924 61.0397 41.8624 61.0397 41.5224 61.0397C41.4974 60.2124 41.4723 59.3852 41.4465 58.5328C41.3305 54.785 41.2078 51.0373 41.0849 47.2897C41.0456 45.9877 41.0063 44.6858 40.9658 43.3444C40.9239 42.094 40.882 40.8436 40.8388 39.5553C40.8022 38.4032 40.7655 37.2511 40.7278 36.0641C40.6209 33.1415 40.6209 33.1415 39.9465 30.7804C39.2743 28.0212 40.4932 26.5497 41.8974 24.1647C45.6089 18.2664 50.387 15.1074 56.5224 12.0397Z" fill="#2D2F29"/>
<path d="M67.5225 140.04C68.1825 140.04 68.8425 140.04 69.5225 140.04C69.5225 144 69.5225 147.96 69.5225 152.04C64.3304 152.252 60.3957 151.631 55.5225 150.04C55.5225 149.38 55.5225 148.72 55.5225 148.04C56.9582 147.224 58.3961 146.412 59.835 145.602C60.6355 145.15 61.436 144.697 62.2607 144.231C64.5225 143.04 64.5225 143.04 67.5225 142.04C67.5225 141.38 67.5225 140.72 67.5225 140.04Z" fill="#7AB753"/>
<path d="M80.5225 105.04C81.2753 105.473 82.0281 105.906 82.8037 106.352C92.0776 111.214 99.2465 111.752 109.522 111.04C109.192 112.03 108.862 113.02 108.522 114.04C106.585 114.067 104.648 114.086 102.71 114.102C101.631 114.114 100.552 114.125 99.4404 114.137C96.5225 114.04 96.5225 114.04 93.5225 113.04C93.5225 114.03 93.5225 115.02 93.5225 116.04C88.695 114.627 84.8062 112.61 80.5225 110.04C80.5225 108.39 80.5225 106.74 80.5225 105.04Z" fill="#0F110D"/>
<path d="M80.5225 103.04C81.9604 103.35 83.3978 103.663 84.835 103.977C85.6355 104.151 86.436 104.325 87.2607 104.505C89.5225 105.04 89.5225 105.04 92.5225 106.04C94.915 106.265 97.3117 106.448 99.71 106.602C101.618 106.728 101.618 106.728 103.565 106.856C104.541 106.917 105.517 106.977 106.522 107.04C102.109 110.54 98.5603 111.441 93.0146 111.395C88.6778 110.777 84.9382 108.746 81.5225 106.04C81.1925 105.05 80.8625 104.06 80.5225 103.04Z" fill="#DCE0CB"/>
<path d="M79.5225 113.04C82.6298 114.593 85.2961 116.162 88.1475 118.102C91.2496 120.217 91.2496 120.217 94.5225 122.04C94.1925 123.03 93.8625 124.02 93.5225 125.04C89.4129 123.589 86.0899 121.529 82.5225 119.04C82.5225 121.68 82.5225 124.32 82.5225 127.04C81.5325 127.37 80.5425 127.7 79.5225 128.04C79.5225 123.09 79.5225 118.14 79.5225 113.04Z" fill="#1F1F1C"/>
<path d="M88.5225 39.0396C99.2047 38.1843 99.2047 38.1843 103.21 40.6646C105.481 42.8834 105.546 44.2666 105.878 47.4889C105.896 51.0276 105.78 54.511 105.522 58.0396C104.532 58.3696 103.542 58.6996 102.522 59.0396C102.497 58.1476 102.471 57.2556 102.444 56.3365C102.359 54.5808 102.359 54.5808 102.272 52.7896C102.226 51.6295 102.18 50.4693 102.132 49.274C101.42 45.4937 100.616 44.2737 97.5225 42.0396C95.1821 41.3543 95.1821 41.3543 92.7725 41.2896C91.5736 41.2046 91.5736 41.2046 90.3506 41.1178C89.7473 41.092 89.144 41.0662 88.5225 41.0396C88.5225 40.3796 88.5225 39.7196 88.5225 39.0396Z" fill="#131412"/>
<path d="M42.5225 32.0397C42.8525 32.0397 43.1825 32.0397 43.5225 32.0397C43.7906 33.1122 44.0587 34.1847 44.335 35.2897C45.3847 38.6048 46.2686 40.4784 48.5225 43.0397C48.1925 43.3697 47.8625 43.6997 47.5225 44.0397C47.2876 46.2226 47.1088 48.4117 46.96 50.6022C46.8343 52.3985 46.8343 52.3985 46.7061 54.2311C46.6455 55.1579 46.5849 56.0848 46.5225 57.0397C45.8625 55.7197 45.2025 54.3997 44.5225 53.0397C44.1925 56.0097 43.8625 58.9797 43.5225 62.0397C43.1925 62.0397 42.8625 62.0397 42.5225 62.0397C42.5225 52.1397 42.5225 42.2397 42.5225 32.0397Z" fill="#E1E2CF"/>
<path d="M83.5225 141.04C90.4525 145 90.4525 145 97.5225 149.04C92.6 151.501 88.9818 151.609 83.5225 152.04C83.5225 148.41 83.5225 144.78 83.5225 141.04Z" fill="#81C252"/>
<path d="M32.5223 107.04C33.1823 107.04 33.8423 107.04 34.5223 107.04C34.6319 107.631 34.7415 108.223 34.8544 108.833C35.9707 114.396 37.1778 118.608 41.2098 122.79C44.5962 124.62 47.6965 124.721 51.5223 125.04C51.5223 125.7 51.5223 126.36 51.5223 127.04C43.1586 127.948 43.1586 127.948 39.37 125.844C36.2831 123.247 33.9923 120.848 32.5223 117.04C32.327 114.462 32.327 114.462 32.3973 111.79C32.4244 110.452 32.4244 110.452 32.452 109.087C32.4752 108.411 32.4984 107.736 32.5223 107.04Z" fill="#10100E"/>
<path d="M113.522 103.04C114.512 103.7 115.502 104.36 116.522 105.04C116.522 105.7 116.522 106.36 116.522 107.04C115.532 107.04 114.542 107.04 113.522 107.04C113.852 108.03 114.182 109.02 114.522 110.04C107.642 112.661 100.801 112.221 93.5225 112.04C93.5225 111.71 93.5225 111.38 93.5225 111.04C94.1257 110.907 94.729 110.774 95.3506 110.637C96.1498 110.461 96.949 110.284 97.7725 110.102C98.5614 109.928 99.3503 109.754 100.163 109.575C102.291 109.092 104.408 108.578 106.522 108.04C106.522 107.38 106.522 106.72 106.522 106.04C109.835 104.415 109.835 104.415 113.522 103.04Z" fill="#C6CCB9"/>
<path d="M72.5225 104.04C72.8154 106.337 72.8154 106.337 72.5225 109.04C70.5107 110.805 70.5107 110.805 67.835 112.29C66.9648 112.79 66.0947 113.29 65.1982 113.805C62.5749 115.015 60.3926 115.74 57.5225 116.04C55.71 114.602 55.71 114.602 54.5225 113.04C56.9692 111.767 59.3934 110.691 61.96 109.665C65.4126 108.09 68.8437 104.04 72.5225 104.04Z" fill="#181915"/>
<path d="M50.5225 73.0397C52.5025 73.0397 54.4825 73.0397 56.5225 73.0397C56.8525 75.6797 57.1825 78.3197 57.5225 81.0397C58.5125 81.3697 59.5025 81.6997 60.5225 82.0397C60.5225 82.6997 60.5225 83.3597 60.5225 84.0397C58.2125 84.3697 55.9025 84.6997 53.5225 85.0397C51.6184 83.1357 50.5873 81.7054 50.3232 78.9928C50.3338 77.0073 50.4233 75.0227 50.5225 73.0397Z" fill="#D0D3C6"/>
<path d="M40.5222 32.0397C40.8522 32.0397 41.1822 32.0397 41.5222 32.0397C41.542 32.892 41.5618 33.7443 41.5823 34.6224C41.6606 37.8003 41.7473 40.9777 41.8396 44.1552C41.8777 45.5275 41.9126 46.8999 41.9441 48.2723C41.99 50.251 42.0489 52.2293 42.1081 54.2076C42.1396 55.3964 42.171 56.5852 42.2034 57.8099C42.5122 60.9381 43.1929 63.2108 44.5222 66.0397C43.5322 66.0397 42.5422 66.0397 41.5222 66.0397C39.079 62.3749 39.2772 60.5837 39.2917 56.2194C39.2922 55.5601 39.2927 54.9008 39.2931 54.2216C39.2961 52.8313 39.304 51.4411 39.3164 50.0509C39.3347 47.9155 39.3369 45.7806 39.3367 43.6451C39.3747 33.1872 39.3747 33.1872 40.5222 32.0397Z" fill="#010102"/>
<path d="M104.522 61.0397C105.512 61.3697 106.502 61.6997 107.522 62.0397C107.852 63.0297 108.182 64.0197 108.522 65.0397C103.194 69.4804 100.443 70.6468 93.5225 70.0397C94.5125 68.7197 95.5025 67.3997 96.5225 66.0397C93.5525 65.5447 93.5525 65.5447 90.5225 65.0397C90.5225 64.7097 90.5225 64.3797 90.5225 64.0397C91.9599 64.0126 93.3974 63.9932 94.835 63.9772C96.0357 63.9598 96.0357 63.9598 97.2607 63.942C99.5225 64.0397 99.5225 64.0397 102.522 65.0397C103.182 63.7197 103.842 62.3997 104.522 61.0397Z" fill="#D1D3C1"/>
<path d="M98.5225 34.0397C99.1206 34.349 99.7187 34.6584 100.335 34.9772C104.287 36.9179 104.287 36.9179 108.522 36.0397C108.522 38.0197 108.522 39.9997 108.522 42.0397C106.542 43.0297 106.542 43.0297 104.522 44.0397C103.553 43.2353 102.584 42.4309 101.585 41.6022C97.4221 38.5824 93.5672 38.1655 88.5225 38.0397C88.5225 37.7097 88.5225 37.3797 88.5225 37.0397C89.1605 36.9907 89.7986 36.9417 90.4561 36.8912C91.2823 36.8165 92.1086 36.7417 92.96 36.6647C93.7837 36.5951 94.6074 36.5255 95.4561 36.4537C96.138 36.3171 96.8199 36.1805 97.5225 36.0397C97.8525 35.3797 98.1825 34.7197 98.5225 34.0397Z" fill="#DFDFD0"/>
<path d="M70.5225 97.0397C70.8525 97.0397 71.1825 97.0397 71.5225 97.0397C71.5225 98.6897 71.5225 100.34 71.5225 102.04C63.0913 106.483 55.8313 106.486 46.5225 106.04C46.8525 105.38 47.1825 104.72 47.5225 104.04C49.6748 103.766 49.6748 103.766 52.46 103.665C57.681 103.303 61.7747 102.016 66.5264 99.8795C68.5225 99.0397 68.5225 99.0397 70.5225 99.0397C70.5225 98.3797 70.5225 97.7197 70.5225 97.0397Z" fill="#0E0E0D"/>
<path d="M68.2842 9.94204C69.4024 9.94527 70.5207 9.94849 71.6729 9.95181C72.8401 9.96019 74.0073 9.96857 75.21 9.9772C76.3888 9.98171 77.5677 9.98622 78.7822 9.99087C81.6957 10.0027 84.609 10.0191 87.5225 10.0397C87.1925 10.6997 86.8625 11.3597 86.5225 12.0397C85.9637 12.0648 85.405 12.0898 84.8293 12.1156C82.2477 12.2331 79.6664 12.3551 77.085 12.4772C76.2065 12.5165 75.328 12.5558 74.4229 12.5963C68.753 12.8683 63.158 13.3575 57.5225 14.0397C60.5123 9.55496 63.2323 9.9164 68.2842 9.94204Z" fill="#0A0C0A"/>
<path d="M87.5225 40.0397C85.6475 43.9147 85.6475 43.9147 84.5225 45.0397C84.3976 46.8489 84.3468 48.6636 84.335 50.4772C84.3208 51.4659 84.3066 52.4546 84.292 53.4733C84.261 56.2055 84.261 56.2055 86.5225 58.0397C84.8563 58.0824 83.1886 58.0803 81.5225 58.0397C79.6566 56.1738 80.2628 53.2273 80.21 50.7272C80.1726 49.576 80.1352 48.4249 80.0967 47.2389C80.5225 44.0397 80.5225 44.0397 82.3545 41.6217C84.5225 40.0397 84.5225 40.0397 87.5225 40.0397Z" fill="#181815"/>
<path d="M66.5225 90.0397C71.1425 90.0397 75.7625 90.0397 80.5225 90.0397C80.5225 93.6697 80.5225 97.2997 80.5225 101.04C80.1925 101.04 79.8625 101.04 79.5225 101.04C79.5225 97.7397 79.5225 94.4397 79.5225 91.0397C77.2125 91.0397 74.9025 91.0397 72.5225 91.0397C72.5225 94.3397 72.5225 97.6397 72.5225 101.04C71.5325 100.38 70.5425 99.7197 69.5225 99.0397C69.5225 98.3797 69.5225 97.7197 69.5225 97.0397C68.8625 97.0397 68.2025 97.0397 67.5225 97.0397C67.5225 96.3797 67.5225 95.7197 67.5225 95.0397C66.5325 94.7097 65.5425 94.3797 64.5225 94.0397C66.1725 94.0397 67.8225 94.0397 69.5225 94.0397C69.5225 93.0497 69.5225 92.0597 69.5225 91.0397C68.5325 90.7097 67.5425 90.3797 66.5225 90.0397Z" fill="#57584F"/>
<path d="M74.5225 83.0397C76.1474 83.0127 77.7724 82.9933 79.3975 82.9772C80.3024 82.9656 81.2073 82.954 82.1396 82.942C84.5225 83.0397 84.5225 83.0397 86.5225 84.0397C86.5225 84.6997 86.5225 85.3597 86.5225 86.0397C87.1825 86.3697 87.8425 86.6997 88.5225 87.0397C81.2625 87.0397 74.0025 87.0397 66.5225 87.0397C66.5225 86.7097 66.5225 86.3797 66.5225 86.0397C69.1625 85.7097 71.8025 85.3797 74.5225 85.0397C74.5225 84.3797 74.5225 83.7197 74.5225 83.0397Z" fill="#E1E3D5"/>
<path d="M88.085 77.9772C89.2193 77.9978 90.3537 78.0184 91.5225 78.0397C91.5225 78.6997 91.5225 79.3597 91.5225 80.0397C92.1825 80.6997 92.8425 81.3597 93.5225 82.0397C87.18 83.1928 80.9556 83.1347 74.5225 83.0397C75.8425 82.7097 77.1625 82.3797 78.5225 82.0397C78.5225 81.0497 78.5225 80.0597 78.5225 79.0397C79.729 79.0706 79.729 79.0706 80.96 79.1022C84.3652 79.0191 84.3089 78.0434 88.085 77.9772Z" fill="#71716B"/>
<path d="M66.71 118.415C67.6071 118.724 67.6071 118.724 68.5225 119.04C63.8819 123.231 57.924 127.04 51.5225 127.04C51.1925 126.05 50.8625 125.06 50.5225 124.04C51.2817 123.774 52.041 123.509 52.8232 123.235C53.8171 122.882 54.811 122.529 55.835 122.165C56.8211 121.817 57.8072 121.469 58.8232 121.11C65.9494 118.284 65.9494 118.284 66.71 118.415Z" fill="#171915"/>
<path d="M72.5225 91.0397C74.8325 91.0397 77.1425 91.0397 79.5225 91.0397C79.5225 94.6697 79.5225 98.2997 79.5225 102.04C77.5225 100.04 77.5225 100.04 77.3975 96.4147C77.4387 95.3009 77.48 94.1872 77.5225 93.0397C76.5325 93.0397 75.5425 93.0397 74.5225 93.0397C75.1825 93.3697 75.8425 93.6997 76.5225 94.0397C76.1925 95.6897 75.8625 97.3397 75.5225 99.0397C74.8625 99.0397 74.2025 99.0397 73.5225 99.0397C73.1925 99.6997 72.8625 100.36 72.5225 101.04C72.5225 97.7397 72.5225 94.4397 72.5225 91.0397Z" fill="#EAEDDB"/>
<path d="M92.5225 71.0397C93.8425 71.3697 95.1625 71.6997 96.5225 72.0397C96.1925 75.0097 95.8625 77.9797 95.5225 81.0397C93.8725 81.0397 92.2225 81.0397 90.5225 81.0397C90.8525 80.0497 91.1825 79.0597 91.5225 78.0397C89.8725 78.0397 88.2225 78.0397 86.5225 78.0397C86.1925 79.0297 85.8625 80.0197 85.5225 81.0397C85.8525 79.3897 86.1825 77.7397 86.5225 76.0397C88.5025 76.0397 90.4825 76.0397 92.5225 76.0397C92.5225 74.3897 92.5225 72.7397 92.5225 71.0397Z" fill="#171815"/>
<path d="M69.5225 97.0396C68.5225 100.04 68.5225 100.04 65.21 101.79C60.5468 103.37 60.5468 103.37 57.5225 102.04C57.8525 101.38 58.1825 100.72 58.5225 100.04C55.8825 99.7096 53.2425 99.3796 50.5225 99.0396C50.5225 98.7096 50.5225 98.3796 50.5225 98.0396C52.7515 97.8707 54.9807 97.7046 57.21 97.5396C59.072 97.4004 59.072 97.4004 60.9717 97.2584C63.8375 97.0818 66.6535 96.9957 69.5225 97.0396Z" fill="#95D16B"/>
<path d="M58.5225 39.0397C62.7258 38.6194 65.1376 38.8508 68.96 40.7272C71.3184 42.8667 71.5224 44.0395 71.8936 47.2663C71.8971 50.5455 71.7809 53.7714 71.5225 57.0397C70.8625 57.3697 70.2025 57.6997 69.5225 58.0397C69.8525 54.0797 70.1825 50.1197 70.5225 46.0397C69.2025 45.3797 67.8825 44.7197 66.5225 44.0397C65.5325 43.3797 64.5425 42.7197 63.5225 42.0397C61.867 41.6547 60.2002 41.3118 58.5225 41.0397C58.5225 40.3797 58.5225 39.7197 58.5225 39.0397Z" fill="#141413"/>
<path d="M98.5225 136.04C100.815 136.153 103.106 136.281 105.397 136.415C106.674 136.484 107.95 136.554 109.265 136.626C112.522 137.04 112.522 137.04 114.522 139.04C113.522 140.04 113.522 140.04 110.94 140.172C109.874 140.17 108.808 140.167 107.71 140.165C106.122 140.169 106.122 140.169 104.503 140.172C101.986 140.06 99.9182 139.771 97.5225 139.04C97.8525 138.05 98.1825 137.06 98.5225 136.04Z" fill="#1A1D17"/>
<path d="M113.522 107.04C114.512 107.04 115.502 107.04 116.522 107.04C117.153 116.213 117.153 116.213 114.522 119.665C113.862 120.118 113.202 120.572 112.522 121.04C111.862 120.71 111.202 120.38 110.522 120.04C110.666 119.478 110.809 118.916 110.956 118.337C111.534 115.994 112.065 113.645 112.585 111.29C112.762 110.49 112.938 109.691 113.12 108.868C113.253 108.265 113.386 107.661 113.522 107.04Z" fill="#DBDECC"/>
<path d="M72.5225 60.0397C74.8554 59.9973 77.1895 59.9988 79.5225 60.0397C80.5225 61.0397 80.5225 61.0397 80.585 63.6022C80.5643 64.4066 80.5437 65.2109 80.5225 66.0397C77.8825 66.0397 75.2425 66.0397 72.5225 66.0397C72.5225 64.0597 72.5225 62.0797 72.5225 60.0397Z" fill="#1F1E1D"/>
<path d="M46.5225 44.0397C46.8525 44.0397 47.1825 44.0397 47.5225 44.0397C47.707 58.821 47.707 58.821 46.5225 65.0397C45.5325 65.0397 44.5425 65.0397 43.5225 65.0397C42.512 62.008 42.4959 60.5222 42.835 57.4147C42.9137 56.618 42.9923 55.8214 43.0733 55.0006C43.2957 54.0299 43.2957 54.0299 43.5225 53.0397C44.1825 52.7097 44.8425 52.3797 45.5225 52.0397C45.9878 50.1443 45.9878 50.1443 46.1475 47.9772C46.2713 46.6778 46.395 45.3784 46.5225 44.0397Z" fill="#B7B9A8"/>
<path d="M72.5227 133.04C72.5227 139.31 72.5227 145.58 72.5227 152.04C72.1927 152.04 71.8627 152.04 71.5227 152.04C71.5227 149.73 71.5227 147.42 71.5227 145.04C70.8627 145.04 70.2027 145.04 69.5227 145.04C67.1961 137.693 67.1961 137.693 68.7727 134.54C70.5227 133.04 70.5227 133.04 72.5227 133.04Z" fill="#30312D"/>
<path d="M69.5225 79.0397C71.1725 79.0397 72.8225 79.0397 74.5225 79.0397C74.9038 81.0311 75.2357 83.0325 75.5225 85.0397C73.859 86.7031 71.7399 86.4002 69.46 86.6022C68.5409 86.686 67.6218 86.7698 66.6748 86.8561C65.9645 86.9167 65.2543 86.9773 64.5225 87.0397C64.8525 85.7197 65.1825 84.3997 65.5225 83.0397C68.9875 82.5447 68.9875 82.5447 72.5225 82.0397C71.5325 81.7097 70.5425 81.3797 69.5225 81.0397C69.5225 80.3797 69.5225 79.7197 69.5225 79.0397Z" fill="#CDCDC1"/>
<path d="M87.085 89.9772C88.2193 89.9978 89.3537 90.0184 90.5225 90.0397C90.1925 91.3597 89.8625 92.6797 89.5225 94.0397C92.1625 94.0397 94.8025 94.0397 97.5225 94.0397C97.5225 94.3697 97.5225 94.6997 97.5225 95.0397C92.9025 95.0397 88.2825 95.0397 83.5225 95.0397C83.1925 93.7197 82.8625 92.3997 82.5225 91.0397C83.5225 90.0397 83.5225 90.0397 87.085 89.9772Z" fill="#A7AA9A"/>
<path d="M44.5227 85.0397C44.5227 85.6997 44.5227 86.3597 44.5227 87.0397C42.5427 87.3697 40.5627 87.6997 38.5227 88.0397C38.1927 89.0297 37.8627 90.0197 37.5227 91.0397C38.8427 91.6997 40.1627 92.3597 41.5227 93.0397C39.5427 93.0397 37.5627 93.0397 35.5227 93.0397C34.206 87.6533 34.206 87.6533 35.5227 85.1022C38.6327 83.45 41.1799 84.346 44.5227 85.0397Z" fill="#181C15"/>
<path d="M93.5225 113.04C98.8025 113.37 104.082 113.7 109.522 114.04C107.522 116.04 107.522 116.04 103.897 116.165C102.784 116.123 101.67 116.082 100.522 116.04C100.522 116.7 100.522 117.36 100.522 118.04C97.5525 117.545 97.5525 117.545 94.5225 117.04C94.1925 115.72 93.8625 114.4 93.5225 113.04Z" fill="#435038"/>
<path d="M66.5225 138.04C67.5125 138.37 68.5025 138.7 69.5225 139.04C68.5325 139.535 68.5325 139.535 67.5225 140.04C67.5225 140.7 67.5225 141.36 67.5225 142.04C65.4053 143.583 65.4053 143.583 62.6475 145.227C61.7425 145.778 60.8376 146.328 59.9053 146.895C59.1189 147.273 58.3326 147.651 57.5225 148.04C56.8625 147.71 56.2025 147.38 55.5225 147.04C55.5225 146.38 55.5225 145.72 55.5225 145.04C57.6748 143.567 57.6748 143.567 60.46 141.977C63.6808 140.265 63.6808 140.265 66.5225 138.04Z" fill="#141713"/>
<path d="M90.5225 65.0397C92.8325 65.0397 95.1425 65.0397 97.5225 65.0397C96.2418 66.7472 94.9048 68.4134 93.5225 70.0397C92.8625 70.0397 92.2025 70.0397 91.5225 70.0397C91.5225 71.6897 91.5225 73.3397 91.5225 75.0397C89.8725 75.0397 88.2225 75.0397 86.5225 75.0397C87.8425 74.7097 89.1625 74.3797 90.5225 74.0397C89.8625 71.7297 89.2025 69.4197 88.5225 67.0397C89.1825 67.0397 89.8425 67.0397 90.5225 67.0397C90.5225 66.3797 90.5225 65.7197 90.5225 65.0397Z" fill="#E5E6D7"/>
<path d="M39.5225 110.04C43.8125 111.03 48.1025 112.02 52.5225 113.04C52.5225 113.37 52.5225 113.7 52.5225 114.04C49.5439 114.333 49.5439 114.333 46.5654 114.626C44.2226 114.966 44.2226 114.966 41.5225 117.04C40.8625 116.38 40.2025 115.72 39.5225 115.04C39.5225 113.39 39.5225 111.74 39.5225 110.04Z" fill="#141610"/>
<path d="M90.5225 90.0397C93.8225 90.0397 97.1225 90.0397 100.522 90.0397C99.8625 90.6997 99.2025 91.3597 98.5225 92.0397C99.8425 92.6997 101.162 93.3597 102.522 94.0397C98.2325 94.0397 93.9425 94.0397 89.5225 94.0397C89.8525 92.7197 90.1825 91.3997 90.5225 90.0397Z" fill="#E2E3D0"/>
<path d="M109.522 32.0397C109.522 41.9397 109.522 51.8397 109.522 62.0397C109.192 62.0397 108.862 62.0397 108.522 62.0397C108.503 61.2981 108.483 60.5564 108.462 59.7924C108.367 56.4369 108.258 53.0821 108.147 49.7272C108.117 48.5599 108.086 47.3927 108.054 46.1901C108.015 45.0718 107.976 43.9535 107.937 42.8014C107.905 41.7697 107.874 40.7381 107.841 39.6752C107.696 36.8112 107.696 36.8112 105.522 34.0397C108.522 32.0397 108.522 32.0397 109.522 32.0397Z" fill="#E8E7D6"/>
<path d="M117.522 107.04C118.182 107.04 118.842 107.04 119.522 107.04C119.604 108.622 119.662 110.206 119.71 111.79C119.745 112.671 119.78 113.553 119.815 114.462C119.465 117.545 118.662 118.825 116.522 121.04C115.532 121.37 114.542 121.7 113.522 122.04C113.811 121.421 114.1 120.802 114.397 120.165C115.94 115.881 116.706 111.51 117.522 107.04Z" fill="#0A0B0A"/>
<path d="M112.522 100.04C115.388 100.225 116.335 100.832 118.272 102.977C119.522 105.04 119.522 105.04 119.522 107.04C118.862 107.04 118.202 107.04 117.522 107.04C117.522 109.35 117.522 111.66 117.522 114.04C117.192 114.04 116.862 114.04 116.522 114.04C116.508 113.425 116.494 112.81 116.479 112.176C116.334 109.705 116.128 107.443 115.522 105.04C113.133 102.901 113.133 102.901 110.522 102.04C111.182 101.38 111.842 100.72 112.522 100.04Z" fill="#262923"/>
<path d="M56.5225 73.0397C56.8525 74.3597 57.1825 75.6797 57.5225 77.0397C60.1625 77.3697 62.8025 77.6997 65.5225 78.0397C65.1925 79.3597 64.8625 80.6797 64.5225 82.0397C62.1895 82.0821 59.8554 82.0806 57.5225 82.0397C56.5225 81.0397 56.5225 81.0397 56.4248 79.192C56.4574 77.1412 56.4899 75.0905 56.5225 73.0397Z" fill="#373732"/>
<path d="M64.5225 63.0397C64.8525 63.6997 65.1825 64.3597 65.5225 65.0397C61.8283 66.2711 59.3168 65.684 55.5225 65.0397C55.5225 64.7097 55.5225 64.3797 55.5225 64.0397C59.9775 63.5447 59.9775 63.5447 64.5225 63.0397ZM62.5225 66.0397C62.8525 67.0297 63.1825 68.0197 63.5225 69.0397C62.085 71.2272 62.085 71.2272 60.5225 73.0397C60.5225 72.3797 60.5225 71.7197 60.5225 71.0397C59.5325 70.7097 58.5425 70.3797 57.5225 70.0397C57.5225 69.0497 57.5225 68.0597 57.5225 67.0397C59.5225 66.0397 59.5225 66.0397 62.5225 66.0397Z" fill="#C5C6B8"/>
<path d="M55.5225 29.0397C53.9675 32.8565 51.4865 35.2316 48.5225 38.0397C47.5325 37.7097 46.5425 37.3797 45.5225 37.0397C45.5225 35.0397 45.5225 35.0397 46.9482 33.5319C47.5709 32.9982 48.1935 32.4645 48.835 31.9147C49.4498 31.3758 50.0647 30.837 50.6982 30.2819C52.5225 29.0397 52.5225 29.0397 55.5225 29.0397Z" fill="#191917"/>
<path d="M93.5225 11.0397C92.5325 11.5347 92.5325 11.5347 91.5225 12.0397C91.5225 12.6997 91.5225 13.3597 91.5225 14.0397C83.2725 13.7097 75.0225 13.3797 66.5225 13.0397C66.5225 12.7097 66.5225 12.3797 66.5225 12.0397C69.7098 11.87 72.8974 11.7045 76.085 11.5397C76.9802 11.492 77.8755 11.4443 78.7979 11.3951C83.7142 11.143 88.5998 10.9856 93.5225 11.0397Z" fill="#353830"/>
<path d="M69.5225 110.04C69.8525 110.7 70.1825 111.36 70.5225 112.04C71.1825 112.37 71.8425 112.7 72.5225 113.04C66.7725 118.04 66.7725 118.04 64.5225 118.04C64.5225 117.38 64.5225 116.72 64.5225 116.04C63.8625 116.04 63.2025 116.04 62.5225 116.04C62.5225 115.38 62.5225 114.72 62.5225 114.04C64.8325 112.72 67.1425 111.4 69.5225 110.04Z" fill="#D3D6C2"/>
<path d="M67.5225 103.04C67.8525 104.36 68.1825 105.68 68.5225 107.04C62.7725 111.04 62.7725 111.04 60.5225 111.04C60.8525 109.06 61.1825 107.08 61.5225 105.04C63.5025 104.38 65.4825 103.72 67.5225 103.04Z" fill="#CCD3C0"/>
<path d="M97.5225 29.0397C100.958 30.5668 103.642 32.6389 106.522 35.0397C106.192 36.0297 105.862 37.0197 105.522 38.0397C101.248 36.4566 99.2571 33.534 96.5225 30.0397C96.8525 29.7097 97.1825 29.3797 97.5225 29.0397Z" fill="#141412"/>
<path d="M49.5225 139.04C51.6475 139.415 51.6475 139.415 53.5225 140.04C53.5225 141.03 53.5225 142.02 53.5225 143.04C52.5325 143.535 52.5325 143.535 51.5225 144.04C52.8425 144.7 54.1625 145.36 55.5225 146.04C53.21 146.727 53.21 146.727 50.5225 147.04C48.71 145.79 48.71 145.79 47.5225 144.04C47.5225 141.04 47.5225 141.04 49.5225 139.04Z" fill="#D1D3BF"/>
<path d="M51.5225 108.04C53.5025 108.04 55.4825 108.04 57.5225 108.04C57.1925 109.03 56.8625 110.02 56.5225 111.04C57.1825 111.37 57.8425 111.7 58.5225 112.04C53.5725 112.04 48.6225 112.04 43.5225 112.04C43.5225 111.71 43.5225 111.38 43.5225 111.04C46.1625 111.04 48.8025 111.04 51.5225 111.04C51.5225 110.05 51.5225 109.06 51.5225 108.04Z" fill="#C5CAB7"/>
<path d="M40.5224 53.0397C40.8524 53.0397 41.1824 53.0397 41.5224 53.0397C41.6552 53.7267 41.788 54.4138 41.9248 55.1217C42.1014 56.0228 42.278 56.9238 42.4599 57.8522C42.6339 58.7455 42.808 59.6388 42.9873 60.5592C43.4998 63.1536 43.4998 63.1536 44.5224 66.0397C43.5324 66.0397 42.5424 66.0397 41.5224 66.0397C39.4095 62.8702 39.2699 62.0434 39.3349 58.4147C39.3446 57.2197 39.3446 57.2197 39.3545 56.0006C39.5224 54.0397 39.5224 54.0397 40.5224 53.0397Z" fill="#070708"/>
<path d="M108.522 36.0397C108.522 38.0197 108.522 39.9997 108.522 42.0397C106.542 43.0297 106.542 43.0297 104.522 44.0397C103.862 42.7197 103.202 41.3997 102.522 40.0397C106.349 36.0397 106.349 36.0397 108.522 36.0397Z" fill="#D9D9C8"/>
<path d="M115.522 120.04C115.522 121.03 115.522 122.02 115.522 123.04C111.18 127.04 111.18 127.04 108.522 127.04C108.522 126.38 108.522 125.72 108.522 125.04C105.882 125.04 103.242 125.04 100.522 125.04C100.522 124.71 100.522 124.38 100.522 124.04C101.186 124.002 101.85 123.965 102.534 123.926C107.593 123.55 111.364 123.228 115.522 120.04Z" fill="#282824"/>
<path d="M85.5225 117.04C88.4925 118.69 91.4625 120.34 94.5225 122.04C94.1925 123.03 93.8625 124.02 93.5225 125.04C90.5505 123.915 88.1881 122.817 85.5225 121.04C85.5225 119.72 85.5225 118.4 85.5225 117.04Z" fill="#181714"/>
<path d="M48.5225 97.0396C47.5325 97.3696 46.5425 97.6996 45.5225 98.0396C44.7892 100.055 44.7892 100.055 44.5225 102.04C42.8725 101.71 41.2225 101.38 39.5225 101.04C39.1925 100.05 38.8625 99.0596 38.5225 98.0396C42.3043 96.2027 44.4681 95.8813 48.5225 97.0396Z" fill="#8CC362"/>
<path d="M80.5225 103.04C84.9775 104.03 84.9775 104.03 89.5225 105.04C89.5225 106.69 89.5225 108.34 89.5225 110.04C88.2042 109.448 86.893 108.841 85.585 108.227C84.8541 107.891 84.1232 107.554 83.3701 107.208C81.5225 106.04 81.5225 106.04 80.5225 103.04Z" fill="#D4D7C4"/>
<path d="M112.522 103.04C110.831 105.082 109.885 105.958 107.261 106.551C106.46 106.609 105.66 106.667 104.835 106.727C104.027 106.793 103.218 106.859 102.386 106.926C101.463 106.982 101.463 106.982 100.522 107.04C107.25 101.403 107.25 101.403 112.522 103.04Z" fill="#1A1D18"/>
<path d="M99.5225 72.0397C100.182 72.0397 100.842 72.0397 101.522 72.0397C101.522 75.3397 101.522 78.6397 101.522 82.0397C100.532 82.0397 99.5425 82.0397 98.5225 82.0397C98.1925 80.3897 97.8625 78.7397 97.5225 77.0397C98.1825 76.7097 98.8425 76.3797 99.5225 76.0397C99.5225 74.7197 99.5225 73.3997 99.5225 72.0397Z" fill="#C4C7BC"/>
<path d="M46.5223 58.0397C48.5848 59.7272 48.5848 59.7272 50.5223 62.0397C50.2723 64.7897 50.2723 64.7897 49.5223 67.0397C48.5323 67.3697 47.5423 67.6997 46.5223 68.0397C45.572 64.3443 45.572 61.7351 46.5223 58.0397Z" fill="#D7D9C5"/>
<path d="M35.5225 107.04C35.8525 107.04 36.1825 107.04 36.5225 107.04C36.5225 108.69 36.5225 110.34 36.5225 112.04C37.5125 112.37 38.5025 112.7 39.5225 113.04C40.71 115.602 40.71 115.602 41.5225 118.04C40.5325 118.535 40.5325 118.535 39.5225 119.04C38.8625 118.05 38.2025 117.06 37.5225 116.04C36.8625 116.04 36.2025 116.04 35.5225 116.04C35.5225 113.07 35.5225 110.1 35.5225 107.04Z" fill="#DFE1D2"/>
<path d="M89.5225 132.04C93.9775 134.02 93.9775 134.02 98.5225 136.04C98.1925 136.7 97.8625 137.36 97.5225 138.04C95.2125 137.38 92.9025 136.72 90.5225 136.04C90.1925 134.72 89.8625 133.4 89.5225 132.04Z" fill="#0C0E0B"/>
<path d="M67.5225 131.04C68.5125 131.37 69.5025 131.7 70.5225 132.04C70.21 133.915 70.21 133.915 69.5225 136.04C68.0375 137.03 68.0375 137.03 66.5225 138.04C65.8625 136.39 65.2025 134.74 64.5225 133.04C65.5125 132.38 66.5025 131.72 67.5225 131.04Z" fill="#D3D5C3"/>
<path d="M32.5225 107.04C33.1825 107.04 33.8425 107.04 34.5225 107.04C34.8525 110.67 35.1825 114.3 35.5225 118.04C34.5325 117.71 33.5425 117.38 32.5225 117.04C32.5225 113.74 32.5225 110.44 32.5225 107.04Z" fill="#040405"/>
<path d="M55.5225 73.0397C55.8525 73.0397 56.1825 73.0397 56.5225 73.0397C56.8525 75.6797 57.1825 78.3197 57.5225 81.0397C58.5125 81.3697 59.5025 81.6997 60.5225 82.0397C60.5225 82.6997 60.5225 83.3597 60.5225 84.0397C58.5425 84.3697 56.5625 84.6997 54.5225 85.0397C54.1925 83.7197 53.8625 82.3997 53.5225 81.0397C54.1825 81.0397 54.8425 81.0397 55.5225 81.0397C55.5225 78.3997 55.5225 75.7597 55.5225 73.0397Z" fill="#E7E8DC"/>
<path d="M77.5225 71.0397C76.5325 71.3697 75.5425 71.6997 74.5225 72.0397C74.5225 73.0297 74.5225 74.0197 74.5225 75.0397C72.8725 75.0397 71.2225 75.0397 69.5225 75.0397C69.5225 73.7197 69.5225 72.3997 69.5225 71.0397C72.3842 69.6088 74.4562 70.4398 77.5225 71.0397Z" fill="#D1CFC4"/>
<path d="M39.5225 140.04C41.5025 140.04 43.4825 140.04 45.5225 140.04C45.5225 141.03 45.5225 142.02 45.5225 143.04C44.8625 143.04 44.2025 143.04 43.5225 143.04C43.1925 143.7 42.8625 144.36 42.5225 145.04C41.2025 144.38 39.8825 143.72 38.5225 143.04C38.8525 142.05 39.1825 141.06 39.5225 140.04Z" fill="#D0D4C0"/>
<path d="M69.5225 119.04C69.5225 121.35 69.5225 123.66 69.5225 126.04C68.5325 126.04 67.5425 126.04 66.5225 126.04C65.8625 124.72 65.2025 123.4 64.5225 122.04C68.3975 119.04 68.3975 119.04 69.5225 119.04Z" fill="#85BB5D"/>
<path d="M108.522 84.0397C110.502 84.0397 112.482 84.0397 114.522 84.0397C115.182 85.3597 115.842 86.6797 116.522 88.0397C113.552 87.7097 110.582 87.3797 107.522 87.0397C107.852 86.0497 108.182 85.0597 108.522 84.0397Z" fill="#10140D"/>
<path d="M59.5225 99.0397C62.6475 98.8522 62.6475 98.8522 65.5225 99.0397C65.8525 99.6997 66.1825 100.36 66.5225 101.04C62.0917 103.132 62.0917 103.132 59.21 102.665C58.6531 102.458 58.0962 102.252 57.5225 102.04C58.1825 101.05 58.8425 100.06 59.5225 99.0397Z" fill="#8DC76A"/>
<path d="M83.5226 131.04C85.5056 133.023 86.3164 134.552 87.5226 137.04C88.5126 138.525 88.5126 138.525 89.5226 140.04C86.5226 140.04 86.5226 140.04 84.2726 138.352C82.5226 136.04 82.5226 136.04 82.7726 133.29C83.0201 132.547 83.2676 131.805 83.5226 131.04Z" fill="#CBCCBC"/>
<path d="M38.5225 87.0397C40.1725 87.0397 41.8225 87.0397 43.5225 87.0397C43.8525 87.6997 44.1825 88.3597 44.5225 89.0397C42.1475 90.6022 42.1475 90.6022 39.5225 92.0397C38.8625 91.7097 38.2025 91.3797 37.5225 91.0397C37.8525 89.7197 38.1825 88.3997 38.5225 87.0397Z" fill="#C9CCBE"/>
<path d="M57.5225 106.04C59.1725 106.04 60.8225 106.04 62.5225 106.04C61.8625 107.69 61.2025 109.34 60.5225 111.04C59.2025 111.04 57.8825 111.04 56.5225 111.04C56.8525 109.39 57.1825 107.74 57.5225 106.04Z" fill="#D6DFC7"/>
<path d="M86.5225 78.0397C88.1725 78.0397 89.8225 78.0397 91.5225 78.0397C91.5225 78.6997 91.5225 79.3597 91.5225 80.0397C92.1825 80.6997 92.8425 81.3597 93.5225 82.0397C91.2125 82.0397 88.9025 82.0397 86.5225 82.0397C86.5225 80.7197 86.5225 79.3997 86.5225 78.0397Z" fill="#898B83"/>
<path d="M95.5225 73.0397C97.1725 73.0397 98.8225 73.0397 100.522 73.0397C100.192 74.0297 99.8625 75.0197 99.5225 76.0397C98.8625 76.0397 98.2025 76.0397 97.5225 76.0397C97.1925 77.6897 96.8625 79.3397 96.5225 81.0397C96.1925 81.0397 95.8625 81.0397 95.5225 81.0397C95.5225 78.3997 95.5225 75.7597 95.5225 73.0397Z" fill="#E9EDE2"/>
<path d="M99.5225 61.0397C99.5225 62.0297 99.5225 63.0197 99.5225 64.0397C96.2225 64.0397 92.9225 64.0397 89.5225 64.0397C89.8525 63.3797 90.1825 62.7197 90.5225 62.0397C93.5424 61.4906 96.4487 61.0397 99.5225 61.0397Z" fill="#070606"/>
<path d="M110.522 117.04C109.522 118.04 109.522 118.04 107.456 118.137C106.632 118.126 105.809 118.114 104.96 118.102C104.134 118.093 103.307 118.084 102.456 118.075C101.818 118.063 101.18 118.052 100.522 118.04C100.522 117.38 100.522 116.72 100.522 116.04C107.147 114.79 107.147 114.79 110.522 117.04Z" fill="#0A0907"/>
<path d="M26.5225 20.0397C25.2295 22.9241 23.863 24.9119 21.5225 27.0397C20.5325 26.7097 19.5425 26.3797 18.5225 26.0397C19.4745 25.0337 20.4343 24.0351 21.3975 23.0397C21.9311 22.4828 22.4648 21.9259 23.0146 21.3522C24.5225 20.0397 24.5225 20.0397 26.5225 20.0397Z" fill="#71A84A"/>
<path d="M81.5225 110.04C83.46 110.79 83.46 110.79 85.5225 112.04C86.2725 114.165 86.2725 114.165 86.5225 116.04C85.5325 116.04 84.5425 116.04 83.5225 116.04C82.8625 115.38 82.2025 114.72 81.5225 114.04C81.5225 112.72 81.5225 111.4 81.5225 110.04Z" fill="#CECFC2"/>
<path d="M113.522 104.04C113.192 105.69 112.862 107.34 112.522 109.04C110.872 109.04 109.222 109.04 107.522 109.04C107.522 108.05 107.522 107.06 107.522 106.04C111.272 104.04 111.272 104.04 113.522 104.04Z" fill="#E1E5D3"/>
<path d="M62.5225 91.0397C64.8325 91.0397 67.1425 91.0397 69.5225 91.0397C69.5225 92.0297 69.5225 93.0197 69.5225 94.0397C67.2125 94.0397 64.9025 94.0397 62.5225 94.0397C62.5225 93.0497 62.5225 92.0597 62.5225 91.0397Z" fill="#E8EBDA"/>
<path d="M54.5225 120.04C56.5225 121.04 56.5225 121.04 56.5225 121.04L54.5225 120.04ZM55.5225 122.04C51.3429 124.826 49.3758 123.835 44.5225 123.04C44.5225 122.71 44.5225 122.38 44.5225 122.04C48.5405 121.199 51.5405 120.986 55.5225 122.04Z" fill="#E6E4D6"/>
<path d="M45.5225 118.04C48.4925 118.04 51.4625 118.04 54.5225 118.04C51.957 120.605 50.0456 120.58 46.5225 121.04C46.1925 120.05 45.8625 119.06 45.5225 118.04Z" fill="#E0E5CD"/>
<path d="M82.5225 91.0397C84.8325 91.0397 87.1425 91.0397 89.5225 91.0397C88.5325 92.5247 88.5325 92.5247 87.5225 94.0397C84.8975 94.2272 84.8975 94.2272 82.5225 94.0397C82.5225 93.0497 82.5225 92.0597 82.5225 91.0397Z" fill="#E3E6D1"/>
<path d="M91.5225 12.0397C93.8325 12.3697 96.1425 12.6997 98.5225 13.0397C98.1925 14.0297 97.8625 15.0197 97.5225 16.0397C95.5425 15.3797 93.5625 14.7197 91.5225 14.0397C91.5225 13.3797 91.5225 12.7197 91.5225 12.0397Z" fill="#161A14"/>
<path d="M83.5225 120.04C88.3975 121.79 88.3975 121.79 89.5225 124.04C87.8725 124.37 86.2225 124.7 84.5225 125.04C84.1925 123.39 83.8625 121.74 83.5225 120.04Z" fill="#A3CE7D"/>
</svg>
