<svg width="153" height="153" viewBox="0 0 153 153" fill="none" xmlns="http://www.w3.org/2000/svg">
<path d="M74.7082 0.0488406C75.8116 0.0327273 76.9151 0.016614 78.0519 1.24852e-05C98.0013 -0.0116949 115.993 8.21069 130.208 22.0488C144.195 36.2338 152.176 55.581 152.271 75.4863C151.951 97.7897 143.358 115.695 127.958 131.361C127.395 131.97 126.832 132.578 126.251 133.205C124.958 134.361 124.958 134.361 122.958 134.361C122.997 133.529 122.997 133.529 123.038 132.681C123.142 130.158 123.207 127.635 123.271 125.111C123.313 124.239 123.354 123.366 123.398 122.467C123.553 117.139 123.553 117.139 120.708 112.783C116.607 110.663 113.471 110.59 108.958 111.361C106.965 112.2 105.151 113.206 103.271 114.271C97.3707 117.052 90.4461 118.361 83.9582 118.361C83.9582 113.411 83.9582 108.461 83.9582 103.361C85.0552 103.263 86.1522 103.165 87.2824 103.064C88.7369 102.914 90.1913 102.763 91.6457 102.611C92.3669 102.549 93.0881 102.488 93.8312 102.424C98.5885 101.902 101.617 101.063 104.958 97.3613C105.766 94.7986 105.766 94.7986 105.771 92.1113C105.818 91.2193 105.866 90.3273 105.915 89.4082C105.929 88.7327 105.944 88.0573 105.958 87.3613C103.978 87.3613 101.998 87.3613 99.9582 87.3613C99.9582 85.7113 99.9582 84.0613 99.9582 82.3613C101.938 82.6913 103.918 83.0213 105.958 83.3613C105.742 81.8145 105.742 81.8145 105.521 80.2363C106.004 75.9545 106.262 75.6566 109.396 73.1113C110.034 72.6524 110.672 72.1935 111.329 71.7207C113.251 70.3591 113.251 70.3591 113.958 67.3613C114.258 62.3261 114.314 57.2919 114.363 52.2485C114.385 50.5843 114.419 48.9201 114.466 47.2564C114.994 34.8466 114.994 34.8466 109.713 23.9282C106.55 21.104 102.956 19.6405 98.9582 18.3613C97.4732 17.8663 97.4732 17.8663 95.9582 17.3613C93.1376 17.2281 90.3426 17.149 87.5207 17.1231C86.2677 17.111 86.2677 17.111 84.9894 17.0986C83.2175 17.0848 81.4455 17.074 79.6735 17.0662C77.8775 17.0547 76.0816 17.0343 74.2858 17.0047C59.6913 16.7611 59.6913 16.7611 45.9582 21.3613C45.2286 21.6974 44.499 22.0334 43.7472 22.3797C41.3828 23.6771 40.9504 24.8808 39.9582 27.3613C39.4454 28.4278 39.4454 28.4278 38.9223 29.5159C37.7202 33.0637 37.6526 36.3742 37.6574 40.0762C37.651 41.1762 37.651 41.1762 37.6444 42.2985C37.6387 43.8441 37.6382 45.3897 37.6425 46.9353C37.6457 49.2881 37.6222 51.6396 37.5969 53.9922C37.5946 55.4994 37.5939 57.0065 37.5949 58.5137C37.5857 59.2107 37.5765 59.9078 37.567 60.626C37.6104 65.2565 38.4807 68.4472 40.9582 72.3613C41.8451 72.8357 42.7319 73.3101 43.6457 73.7988C44.4088 74.3145 45.1719 74.8301 45.9582 75.3613C46.2707 79.0488 46.2707 79.0488 45.9582 82.3613C48.2682 82.3613 50.5782 82.3613 52.9582 82.3613C52.9582 84.0113 52.9582 85.6613 52.9582 87.3613C49.9882 87.8563 49.9882 87.8563 46.9582 88.3613C46.6656 93.3347 46.7931 96.405 49.9582 100.361C55.1153 103.779 62.0312 103.032 67.9582 103.361C67.9582 108.311 67.9582 113.261 67.9582 118.361C59.1755 117.845 50.3991 116.322 42.9582 111.361C39.5648 110.823 36.3531 110.833 32.9582 111.361C30.1248 113.195 30.1248 113.195 28.9582 116.361C28.5107 119.854 28.3472 123.139 29.9582 126.361C30.0277 127.902 30.0427 129.445 30.0207 130.986C30.0117 131.804 30.0026 132.621 29.9933 133.463C29.9817 134.089 29.9701 134.716 29.9582 135.361C17.723 130.216 10.3316 116.33 5.42693 104.744C-2.22648 84.4092 -1.71792 64.5998 6.52849 44.4473C15.6094 24.8465 32.015 10.6154 52.0412 3.03639C59.6936 0.34167 66.6371 0.0255945 74.7082 0.0488406Z" fill="#5C63AC"/>
<path d="M65.4422 19.1583C66.2573 19.1526 67.0723 19.1469 67.912 19.141C69.6333 19.1316 71.3547 19.125 73.076 19.1212C75.6854 19.1115 78.294 19.0804 80.9032 19.0489C82.5829 19.0424 84.2625 19.0371 85.9422 19.0333C87.0958 19.0147 87.0958 19.0147 88.2727 18.9958C95.0196 19.0231 101.014 20.5298 106.77 24.1114C113.553 31.0879 113.618 37.7757 113.534 47.1219C113.52 49.2912 113.555 51.4561 113.593 53.6251C113.631 60.569 113.506 66.3127 109.288 72.0723C107.958 73.3614 107.958 73.3614 105.333 74.4239C102.958 74.3614 102.958 74.3614 99.9579 73.3614C100.453 73.7945 100.948 74.2276 101.458 74.6739C102.958 76.3614 102.958 76.3614 102.958 79.3614C85.1379 79.3614 67.3179 79.3614 48.9579 79.3614C49.9579 75.3614 49.9579 75.3614 51.9579 72.3614C51.071 72.6295 50.1841 72.8976 49.2704 73.1739C45.9579 73.3614 45.9579 73.3614 43.1454 70.9864C42.0625 69.687 42.0625 69.687 40.9579 68.3614C40.6279 68.0314 40.2979 67.7014 39.9579 67.3614C39.6651 62.341 39.6437 57.3177 39.6078 52.2896C39.5913 50.5981 39.5641 48.9066 39.5257 47.2154C39.4706 44.7715 39.449 42.3293 39.4344 39.8848C39.4117 39.1366 39.3891 38.3884 39.3657 37.6176C39.3881 31.9928 41.0349 28.4127 44.9579 24.3614C51.3515 19.5424 57.6925 19.2006 65.4422 19.1583Z" fill="#D8D7C9"/>
<path d="M70.9579 103.361C74.2579 103.361 77.5579 103.361 80.9579 103.361C80.9579 109.301 80.9579 115.241 80.9579 121.361C93.0314 119.194 93.0314 119.194 104.958 116.361C105.453 117.351 105.453 117.351 105.958 118.361C106.226 117.743 106.494 117.124 106.77 116.486C107.958 114.361 107.958 114.361 110.958 112.361C114.78 112.5 117.235 112.891 120.458 114.986C121.958 117.361 121.958 117.361 121.958 120.924C120.958 124.361 120.958 124.361 119.333 126.299C116.128 127.733 113.426 127.561 109.958 127.361C110.236 128.32 110.236 128.32 110.52 129.299C110.737 130.32 110.737 130.32 110.958 131.361C110.463 131.856 110.463 131.856 109.958 132.361C109.886 134.214 109.874 136.07 109.895 137.924C109.904 138.936 109.913 139.948 109.923 140.99C109.934 141.773 109.946 142.555 109.958 143.361C101.646 147.924 92.5732 151.766 82.9579 151.361C82.9579 148.721 82.9579 146.081 82.9579 143.361C83.7081 143.203 84.4583 143.044 85.2313 142.881C92.4005 141.247 98.5439 138.951 104.958 135.361C104.628 135.031 104.298 134.701 103.958 134.361C102.798 134.868 102.798 134.868 101.614 135.385C87.6573 141.361 87.6573 141.361 79.9579 141.361C79.9579 144.991 79.9579 148.621 79.9579 152.361C76.9879 152.361 74.0179 152.361 70.9579 152.361C70.9579 148.401 70.9579 144.441 70.9579 140.361C69.6998 140.444 68.4416 140.526 67.1454 140.611C61.2364 140.63 56.3479 138.599 50.9579 136.361C49.2915 135.694 47.625 135.027 45.9579 134.361C51.5392 140.661 61.0085 142.076 68.9579 143.361C68.9579 146.001 68.9579 148.641 68.9579 151.361C59.7417 152.084 51.3885 148.834 42.9579 145.361C42.6279 142.061 42.2979 138.761 41.9579 135.361C41.6279 138.001 41.2979 140.641 40.9579 143.361C37.5028 142.114 34.6383 140.905 31.9579 138.361C31.5673 135.881 31.5673 135.881 31.7079 133.174C31.744 132.273 31.7801 131.372 31.8173 130.443C31.8637 129.756 31.9101 129.069 31.9579 128.361C32.6179 128.361 33.2779 128.361 33.9579 128.361C33.4629 127.866 32.9679 127.371 32.4579 126.861C30.3586 123.362 30.1026 120.345 30.9579 116.361C33.0204 113.799 33.0204 113.799 35.9579 112.361C39.5829 112.299 39.5829 112.299 42.9579 113.361C44.8954 115.924 44.8954 115.924 45.9579 118.361C46.2879 117.701 46.6179 117.041 46.9579 116.361C47.5173 116.555 48.0768 116.748 48.6532 116.947C56.0118 119.337 63.2873 120.384 70.9579 121.361C70.9579 115.421 70.9579 109.481 70.9579 103.361Z" fill="#D5D6C6"/>
<path d="M65.5284 16.1231C66.3647 16.115 67.201 16.1069 68.0626 16.0986C69.8327 16.0848 71.6029 16.0741 73.3731 16.0662C75.1691 16.0547 76.9651 16.0343 78.7608 16.0047C90.0808 15.818 98.9991 15.9742 108.833 22.1739C113.359 26.8326 115.403 31.1148 115.488 37.515C115.477 38.2506 115.466 38.9863 115.454 39.7442C115.456 40.5215 115.457 41.2988 115.459 42.0996C115.457 43.7317 115.445 45.3637 115.425 46.9956C115.396 49.4867 115.404 51.9757 115.417 54.4668C115.411 56.0593 115.402 57.6517 115.392 59.2442C115.395 59.9839 115.398 60.7236 115.401 61.4857C115.294 67.3324 113.709 70.3978 109.896 74.6739C107.958 76.3614 107.958 76.3614 105.958 76.3614C105.958 78.6714 105.958 80.9814 105.958 83.3614C103.978 83.0314 101.998 82.7014 99.9581 82.3614C99.9581 84.0114 99.9581 85.6614 99.9581 87.3614C101.938 87.3614 103.918 87.3614 105.958 87.3614C106.868 96.0357 106.868 96.0357 104.763 99.1036C98.4442 104.47 91.8235 103.447 83.9581 103.361C83.9581 108.311 83.9581 113.261 83.9581 118.361C95.0832 116.323 95.0832 116.323 105.458 112.111C109.78 109.95 113.214 109.322 117.958 110.361C120.517 111.785 121.924 113.17 123.958 115.361C123.958 116.021 123.958 116.681 123.958 117.361C121.978 116.866 121.978 116.866 119.958 116.361C119.958 115.701 119.958 115.041 119.958 114.361C118.522 114.166 117.084 113.98 115.646 113.799C114.845 113.694 114.045 113.59 113.22 113.482C110.79 113.214 110.79 113.214 107.958 114.361C107.628 117.001 107.298 119.641 106.958 122.361C106.855 121.722 106.752 121.083 106.646 120.424C106.419 119.743 106.192 119.063 105.958 118.361C101.225 116.784 97.3302 118.957 92.6964 120.451C88.9581 121.361 88.9581 121.361 80.9581 121.361C80.9581 115.421 80.9581 109.481 80.9581 103.361C77.6581 103.361 74.3581 103.361 70.9581 103.361C70.9581 109.301 70.9581 115.241 70.9581 121.361C60.8331 121.361 60.8331 121.361 55.3956 119.861C54.3631 119.583 53.3305 119.304 52.2667 119.018C51.5049 118.801 50.743 118.584 49.9581 118.361C51.505 116.779 51.505 116.779 53.9581 115.361C58.7722 115.868 63.2469 117.184 67.9581 118.361C67.9581 113.411 67.9581 108.461 67.9581 103.361C64.6787 103.485 64.6787 103.485 61.3331 103.611C53.3175 103.611 53.3175 103.611 50.2081 101.611C46.7457 98.149 46.0222 96.6218 45.7706 91.6739C45.9581 88.3614 45.9581 88.3614 46.9581 87.3614C48.9577 87.3206 50.9586 87.3188 52.9581 87.3614C52.9581 85.7114 52.9581 84.0614 52.9581 82.3614C50.6481 82.3614 48.3381 82.3614 45.9581 82.3614C45.9581 80.0514 45.9581 77.7414 45.9581 75.3614C44.8444 75.0829 44.8444 75.0829 43.7081 74.7989C40.0032 72.8622 38.5131 70.1169 36.9581 66.3614C36.5929 63.58 36.4169 61.2158 36.462 58.4512C36.4606 57.7207 36.4591 56.9902 36.4576 56.2375C36.4593 54.7038 36.4707 53.1701 36.4916 51.6365C36.5206 49.3012 36.5121 46.9682 36.4991 44.6329C36.5054 43.1348 36.5137 41.6367 36.5245 40.1387C36.5216 39.4479 36.5186 38.7572 36.5156 38.0454C36.6299 32.1184 38.3902 28.2429 42.1456 23.7364C49.3343 17.6659 56.2974 16.2082 65.5284 16.1231ZM42.9581 26.3614C39.7472 30.6029 39.5042 34.3989 39.5245 39.5489C39.5193 40.329 39.514 41.1091 39.5086 41.9129C39.5022 43.5568 39.5035 45.2008 39.5121 46.8448C39.5206 49.3537 39.4918 51.8604 39.4601 54.3692C39.4584 55.9707 39.459 57.5723 39.462 59.1739C39.4508 59.9198 39.4395 60.6658 39.428 61.4344C39.4768 65.0988 39.8523 67.1941 41.829 70.3184C44.2788 72.669 45.5964 73.189 48.9581 73.3614C50.4431 72.8664 50.4431 72.8664 51.9581 72.3614C51.4631 72.9595 50.9681 73.5576 50.4581 74.1739C48.6753 76.3317 48.6753 76.3317 48.9581 79.3614C66.7781 79.3614 84.5981 79.3614 102.958 79.3614C103.29 76.3588 103.29 76.3588 101.458 74.6739C100.963 74.2407 100.468 73.8076 99.9581 73.3614C100.845 73.6295 101.732 73.8976 102.646 74.1739C106.11 74.7387 106.11 74.7387 108.708 72.1739C113.806 65.8014 113.396 59.7559 113.439 51.8821C113.458 49.6972 113.52 47.5161 113.583 45.3321C113.696 37.8876 113.343 32.1166 108.601 26.0008C102.264 19.6767 95.0272 19.205 86.4737 19.1582C85.6587 19.1525 84.8437 19.1468 84.0039 19.141C82.2826 19.1316 80.5613 19.125 78.8399 19.1211C76.2306 19.1115 73.622 19.0804 71.0128 19.0489C69.3331 19.0423 67.6534 19.0371 65.9737 19.0332C65.2047 19.0209 64.4356 19.0086 63.6432 18.9958C55.9349 19.0269 48.546 20.7735 42.9581 26.3614Z" fill="#191A1B"/>
<path d="M35.9579 31.3613C36.2879 31.3613 36.6179 31.3613 36.9579 31.3613C36.9725 32.3902 36.9871 33.419 37.0021 34.479C37.0603 38.3148 37.1375 42.15 37.2204 45.9854C37.2535 47.6418 37.2816 49.2984 37.3043 50.9551C37.3381 53.3436 37.3904 55.7311 37.4462 58.1191C37.4526 58.8538 37.459 59.5884 37.4656 60.3452C37.5986 65.0522 38.4271 68.3783 40.9579 72.3613C41.8448 72.8357 42.7317 73.3101 43.6454 73.7988C44.4085 74.3145 45.1717 74.8301 45.9579 75.3613C46.2704 79.0488 46.2704 79.0488 45.9579 82.3613C48.2679 82.3613 50.5779 82.3613 52.9579 82.3613C52.9579 84.0113 52.9579 85.6613 52.9579 87.3613C49.9879 87.8563 49.9879 87.8563 46.9579 88.3613C46.6654 93.3347 46.7929 96.405 49.9579 100.361C55.115 103.779 62.031 103.032 67.9579 103.361C67.9579 108.311 67.9579 113.261 67.9579 118.361C59.1752 117.845 50.3988 116.322 42.9579 111.361C40.8509 111.423 38.7456 111.557 36.6454 111.736C30.6229 111.796 30.6229 111.796 27.9462 110.045C23.4583 104.403 21.2213 97.1175 18.9579 90.3613C18.7091 89.6614 18.4603 88.9614 18.204 88.2402C14.2661 75.4351 17.1315 61.4742 23.0829 49.8613C26.804 43.2858 31.0988 37.1485 35.9579 31.3613Z" fill="#7883BD"/>
<path d="M114.958 31.3613C126.223 42.4945 135.06 56.222 135.288 72.4995C135.279 73.5449 135.279 73.5449 135.271 74.6113C135.262 75.7205 135.262 75.7205 135.253 76.8521C135.011 87.9097 131.966 97.0628 125.958 106.361C125.067 107.754 125.067 107.754 124.157 109.174C121.958 111.361 121.958 111.361 119.005 111.709C117.917 111.615 116.829 111.521 115.708 111.424C110.453 111.214 107.575 111.602 103.13 114.271C97.3782 117.158 90.3442 118.361 83.958 118.361C83.958 113.411 83.958 108.461 83.958 103.361C85.055 103.263 86.152 103.165 87.2822 103.064C88.7367 102.914 90.1912 102.763 91.6455 102.611C92.3667 102.549 93.088 102.488 93.8311 102.424C98.5884 101.902 101.616 101.063 104.958 97.3613C105.765 94.7986 105.765 94.7986 105.771 92.1113C105.818 91.2193 105.866 90.3273 105.915 89.4082C105.936 88.395 105.936 88.395 105.958 87.3613C103.978 87.3613 101.998 87.3613 99.958 87.3613C99.958 85.7113 99.958 84.0613 99.958 82.3613C101.938 82.6913 103.918 83.0213 105.958 83.3613C105.814 82.3301 105.669 81.2988 105.521 80.2363C106.004 75.9545 106.262 75.6566 109.396 73.1113C110.034 72.6524 110.672 72.1935 111.329 71.7207C113.251 70.3591 113.251 70.3591 113.958 67.3613C114.112 64.6325 114.215 61.9244 114.274 59.1934C114.295 58.3985 114.316 57.6037 114.337 56.7848C114.403 54.2479 114.462 51.7109 114.521 49.1738C114.564 47.4531 114.607 45.7324 114.651 44.0117C114.758 39.795 114.86 35.5782 114.958 31.3613Z" fill="#7883BD"/>
<path d="M55.958 80.3613C66.848 80.3613 77.738 80.3613 88.958 80.3613C88.628 81.0213 88.298 81.6813 87.958 82.3613C88.3574 84.4595 88.3574 84.4595 88.958 86.3613C89.618 86.3613 90.278 86.3613 90.958 86.3613C90.958 85.0413 90.958 83.7213 90.958 82.3613C92.938 82.3613 94.918 82.3613 96.958 82.3613C96.958 84.0113 96.958 85.6613 96.958 87.3613C95.308 87.6913 93.658 88.0213 91.958 88.3613C97.3941 89.8598 97.3941 89.8598 102.958 90.3613C103.271 93.1113 103.271 93.1113 102.958 96.3613C100.836 98.7722 99.0915 100.162 95.8774 100.727C93.3226 100.875 90.7982 100.889 88.2393 100.857C87.3038 100.859 86.3683 100.86 85.4044 100.862C83.4309 100.86 81.4573 100.849 79.4839 100.828C76.4682 100.799 73.4543 100.807 70.4385 100.82C68.5179 100.814 66.5973 100.806 64.6768 100.795C63.7777 100.798 62.8786 100.801 61.9523 100.804C57.2218 100.733 53.684 100.627 49.958 97.3613C49.1455 93.6738 49.1455 93.6738 48.958 90.3613C49.7418 90.0107 50.5255 89.6601 51.333 89.2988C54.7849 87.1636 54.7849 87.1636 55.958 80.3613Z" fill="#1B1C1B"/>
<path d="M42.9579 113.361C44.8954 115.924 44.8954 115.924 45.9579 118.361C46.2879 117.701 46.6179 117.041 46.9579 116.361C47.6179 116.691 48.2779 117.021 48.9579 117.361C48.6279 118.681 48.2979 120.001 47.9579 121.361C55.4959 124.091 63.1036 125.786 70.9579 127.361C70.9579 130.001 70.9579 132.641 70.9579 135.361C62.0813 136.187 53.4365 132.94 45.9579 128.361C45.2979 128.361 44.6379 128.361 43.9579 128.361C44.7343 131.436 44.7343 131.436 46.9579 133.361C46.9579 134.351 46.9579 135.341 46.9579 136.361C54.2097 139.626 61.072 142.192 68.9579 143.361C68.9579 146.001 68.9579 148.641 68.9579 151.361C59.7417 152.084 51.3885 148.834 42.9579 145.361C42.6279 142.061 42.2979 138.761 41.9579 135.361C41.6279 138.001 41.2979 140.641 40.9579 143.361C37.5028 142.114 34.6383 140.905 31.9579 138.361C31.5673 135.881 31.5673 135.881 31.7079 133.174C31.744 132.273 31.7801 131.372 31.8173 130.443C31.8637 129.756 31.9101 129.069 31.9579 128.361C32.6179 128.361 33.2779 128.361 33.9579 128.361C33.4629 127.866 32.9679 127.371 32.4579 126.861C30.3586 123.362 30.1026 120.345 30.9579 116.361C34.5544 111.893 37.6104 111.678 42.9579 113.361Z" fill="#181718"/>
<path d="M114.396 112.486C118.297 113.445 119.815 113.968 121.958 117.361C121.958 121.115 121.778 123.384 119.333 126.299C116.128 127.733 113.426 127.561 109.958 127.361C110.144 128.001 110.329 128.64 110.521 129.299C110.665 129.979 110.809 130.66 110.958 131.361C110.628 131.691 110.298 132.021 109.958 132.361C109.886 134.214 109.874 136.07 109.896 137.924C109.905 138.936 109.914 139.948 109.923 140.99C109.934 141.773 109.946 142.555 109.958 143.361C101.647 147.925 92.5734 151.766 82.958 151.361C82.958 148.721 82.958 146.081 82.958 143.361C83.7082 143.203 84.4585 143.044 85.2314 142.881C97.0296 140.419 97.0296 140.419 106.466 133.482C107.725 131.39 107.725 131.39 108.958 128.361C104.946 129.014 101.513 130.293 97.7705 131.861C92.1099 134.099 87.0291 135.211 80.958 135.361C80.958 132.721 80.958 130.081 80.958 127.361C84.0412 126.548 87.1246 125.736 90.208 124.924C91.0807 124.694 91.9534 124.464 92.8525 124.227C93.6969 124.004 94.5412 123.782 95.4111 123.553C96.1862 123.349 96.9612 123.144 97.7598 122.934C99.8228 122.397 101.889 121.875 103.958 121.361C103.958 120.371 103.958 119.381 103.958 118.361C104.618 118.361 105.278 118.361 105.958 118.361C106.226 117.743 106.494 117.124 106.771 116.486C108.767 112.914 110.377 112.34 114.396 112.486Z" fill="#2D3041"/>
<path d="M65.5282 16.1231C66.3644 16.115 67.2007 16.1069 68.0623 16.0986C69.8325 16.0848 71.6027 16.0741 73.3729 16.0662C75.1689 16.0547 76.9648 16.0343 78.7606 16.0047C90.0805 15.818 98.9989 15.9742 108.833 22.1739C113.358 26.8326 115.403 31.1148 115.488 37.515C115.477 38.2506 115.466 38.9863 115.454 39.7442C115.455 40.5215 115.457 41.2988 115.458 42.0996C115.457 43.7317 115.445 45.3637 115.424 46.9956C115.395 49.4867 115.404 51.9757 115.417 54.4668C115.411 56.0593 115.402 57.6517 115.391 59.2442C115.394 59.9839 115.397 60.7236 115.4 61.4857C115.294 67.3324 113.709 70.3978 109.895 74.6739C107.958 76.3614 107.958 76.3614 105.958 76.3614C105.958 78.6714 105.958 80.9814 105.958 83.3614C103.978 83.0314 101.998 82.7014 99.9579 82.3614C99.9579 84.0114 99.9579 85.6614 99.9579 87.3614C101.938 87.3614 103.918 87.3614 105.958 87.3614C105.958 90.0014 105.958 92.6414 105.958 95.3614C105.298 95.3614 104.638 95.3614 103.958 95.3614C103.958 93.7114 103.958 92.0614 103.958 90.3614C102.968 90.6707 102.968 90.6707 101.958 90.9864C97.8616 91.4984 94.9155 90.5017 90.9579 89.3614C91.2879 88.7014 91.6179 88.0414 91.9579 87.3614C93.6079 87.3614 95.2579 87.3614 96.9579 87.3614C96.9579 85.3814 96.9579 83.4014 96.9579 81.3614C94.6479 81.3614 92.3379 81.3614 89.9579 81.3614C91.9579 79.3614 91.9579 79.3614 94.5594 79.1661C96.056 79.2009 96.056 79.2009 97.5829 79.2364C98.5857 79.2544 99.5886 79.2725 100.622 79.2911C101.778 79.3259 101.778 79.3259 102.958 79.3614C102.958 78.3714 102.958 77.3814 102.958 76.3614C101.473 75.8664 101.473 75.8664 99.9579 75.3614C99.9579 74.7014 99.9579 74.0414 99.9579 73.3614C100.865 73.4439 101.773 73.5264 102.708 73.6114C106.003 73.6585 106.003 73.6585 108.208 71.6114C112.936 65.5317 112.399 59.2897 112.438 51.8821C112.458 49.6972 112.52 47.5161 112.583 45.3321C112.696 37.8518 112.324 32.0916 107.552 25.9519C101.739 20.1514 94.1957 20.2005 86.4735 20.1582C85.6585 20.1525 84.8434 20.1468 84.0037 20.141C82.2824 20.1316 80.561 20.125 78.8397 20.1211C76.2303 20.1115 73.6217 20.0804 71.0125 20.0489C69.3329 20.0423 67.6532 20.0371 65.9735 20.0332C65.2044 20.0209 64.4353 20.0086 63.643 19.9958C56.6896 20.0239 50.3981 21.2846 45.0204 25.8614C41.1894 30.505 40.6391 33.5077 40.6219 39.3536C40.6153 40.1365 40.6086 40.9195 40.6017 41.7261C40.5916 43.382 40.5869 45.038 40.5872 46.6939C40.5829 49.2205 40.5466 51.7453 40.5086 54.2715C40.5028 55.8822 40.4988 57.4929 40.4969 59.1036C40.4825 59.8558 40.4682 60.608 40.4534 61.3831C40.4968 66.398 41.5657 68.7322 44.9579 72.3614C44.9579 73.0214 44.9579 73.6814 44.9579 74.3614C41.5565 73.4421 40.2278 72.7881 38.3148 69.7637C36.7822 65.9209 36.5238 62.6187 36.5594 58.5489C36.5565 57.8169 36.5537 57.085 36.5507 56.3309C36.5487 54.7912 36.5542 53.2515 36.5667 51.712C36.5828 49.3679 36.5669 47.0256 36.5477 44.6817C36.5497 43.1791 36.5535 41.6765 36.5594 40.1739C36.5533 39.48 36.5473 38.786 36.541 38.0711C36.6261 32.1217 38.3771 28.2582 42.1454 23.7364C49.3341 17.6659 56.2971 16.2082 65.5282 16.1231Z" fill="#17181C"/>
<path d="M101.958 44.3613C105.333 46.0488 105.333 46.0488 106.958 49.3613C107.691 54.2984 108.424 59.7954 105.86 64.2832C104.521 65.6113 104.521 65.6113 101.958 67.3613C101.628 67.6913 101.298 68.0213 100.958 68.3613C95.6212 69.0907 90.378 69.33 85.7705 66.2363C82.5066 62.9645 82.3909 59.7389 82.208 55.2363C82.226 51.0473 82.2737 49.1381 85.0674 45.9668C90.4044 43.0026 96.044 43.5991 101.958 44.3613Z" fill="#181917"/>
<path d="M48.9582 44.3613C51.3559 44.2256 53.7459 44.127 56.1457 44.0488C57.156 43.986 57.156 43.986 58.1867 43.9219C61.9845 43.8293 63.7936 44.2429 66.8996 46.4785C69.9764 50.7873 69.7819 54.0884 69.5597 59.2441C68.935 62.4815 68.3999 63.8791 66.0832 66.1738C62.346 68.6628 58.8466 69.2557 54.4035 68.916C50.9617 68.1353 48.7126 67.0849 46.1652 64.627C43.5377 59.695 44.4916 53.7677 44.9582 48.3613C45.9482 48.0313 46.9382 47.7013 47.9582 47.3613C48.2882 46.3713 48.6182 45.3813 48.9582 44.3613Z" fill="#1B1A1A"/>
<path d="M55.958 82.3613C57.938 82.3613 59.918 82.3613 61.958 82.3613C61.958 84.0113 61.958 85.6613 61.958 87.3613C59.978 87.6913 57.998 88.0213 55.958 88.3613C58.928 88.8563 58.928 88.8563 61.958 89.3613C61.958 91.0113 61.958 92.6613 61.958 94.3613C56.333 94.6113 56.333 94.6113 52.958 92.3613C53.618 93.6813 54.278 95.0013 54.958 96.3613C69.148 96.3613 83.338 96.3613 97.958 96.3613C98.618 94.3813 99.278 92.4013 99.958 90.3613C100.948 90.3613 101.938 90.3613 102.958 90.3613C103.271 93.1113 103.271 93.1113 102.958 96.3613C100.836 98.7722 99.0915 100.162 95.8774 100.727C93.3226 100.875 90.7982 100.889 88.2393 100.857C87.3038 100.859 86.3683 100.86 85.4044 100.862C83.4309 100.86 81.4573 100.849 79.4839 100.828C76.4682 100.799 73.4543 100.807 70.4385 100.82C68.5179 100.814 66.5973 100.806 64.6768 100.795C63.7777 100.798 62.8786 100.801 61.9523 100.804C57.2218 100.733 53.684 100.627 49.958 97.3613C49.1455 93.6738 49.1455 93.6738 48.958 90.3613C50.1336 89.7735 50.1336 89.7735 51.333 89.1738C54.3096 87.1186 54.9462 85.7645 55.958 82.3613Z" fill="#E6E6D9"/>
<path d="M42.958 134.361C44.1394 134.959 44.1394 134.959 45.3447 135.568C53.1346 139.357 60.4148 141.767 68.958 143.361C68.958 146.001 68.958 148.641 68.958 151.361C59.684 152.089 51.4687 148.766 42.958 145.361C42.958 141.731 42.958 138.101 42.958 134.361Z" fill="#6D76B5"/>
<path d="M112.958 33.3613C113.618 33.3613 114.278 33.3613 114.958 33.3613C115.032 38.1119 115.087 42.8621 115.123 47.613C115.138 49.228 115.158 50.8429 115.184 52.4578C115.221 54.7838 115.238 57.1093 115.251 59.4355C115.266 60.1534 115.282 60.8714 115.298 61.611C115.3 67.4305 113.684 70.4259 109.896 74.6738C107.958 76.3613 107.958 76.3613 105.958 76.3613C105.958 78.6713 105.958 80.9813 105.958 83.3613C103.978 83.0313 101.998 82.7013 99.958 82.3613C99.958 84.0113 99.958 85.6613 99.958 87.3613C101.938 87.3613 103.918 87.3613 105.958 87.3613C105.958 90.0013 105.958 92.6413 105.958 95.3613C105.298 95.3613 104.638 95.3613 103.958 95.3613C103.958 93.7113 103.958 92.0613 103.958 90.3613C103.298 90.5676 102.638 90.7738 101.958 90.9863C97.8617 91.4984 94.9156 90.5017 90.958 89.3613C91.288 88.7013 91.618 88.0413 91.958 87.3613C93.608 87.3613 95.258 87.3613 96.958 87.3613C96.958 85.3813 96.958 83.4013 96.958 81.3613C94.648 81.3613 92.338 81.3613 89.958 81.3613C91.958 79.3613 91.958 79.3613 94.5596 79.166C96.0562 79.2008 96.0562 79.2008 97.583 79.2363C98.5859 79.2544 99.5888 79.2724 100.622 79.291C101.778 79.3258 101.778 79.3258 102.958 79.3613C102.958 78.3713 102.958 77.3813 102.958 76.3613C101.968 76.0313 100.978 75.7013 99.958 75.3613C99.958 74.7013 99.958 74.0413 99.958 73.3613C100.866 73.4438 101.773 73.5263 102.708 73.6113C106.003 73.6584 106.003 73.6584 108.208 71.6113C111.686 67.1394 112.277 63.5719 112.372 57.9707C112.391 57.2661 112.411 56.5615 112.431 55.8355C112.49 53.5942 112.537 51.3529 112.583 49.1113C112.621 47.5879 112.66 46.0644 112.7 44.541C112.796 40.8146 112.88 37.0881 112.958 33.3613Z" fill="#17171A"/>
<path d="M107.958 133.361C108.288 133.361 108.618 133.361 108.958 133.361C108.958 136.991 108.958 140.621 108.958 144.361C100.3 148.182 92.5921 151.321 82.958 151.361C82.958 148.721 82.958 146.081 82.958 143.361C84.0486 143.141 84.0486 143.141 85.1611 142.916C92.6259 141.251 102.356 138.963 107.958 133.361Z" fill="#6D75B6"/>
<path d="M114.458 112.361C118.26 113.448 119.847 114.019 121.958 117.361C121.958 121.115 121.778 123.384 119.333 126.299C116.026 127.778 113.538 127.752 109.958 127.361C108.021 126.361 108.021 126.361 106.958 124.361C106.206 117.594 106.206 117.594 108.521 113.799C110.958 112.361 110.958 112.361 114.458 112.361Z" fill="#D4D3C3"/>
<path d="M42.958 113.361C45.539 116.184 45.9719 117.666 45.8955 121.486C44.958 124.361 44.958 124.361 43.2705 126.236C40.2505 127.705 38.2817 127.777 34.958 127.361C32.583 126.361 32.583 126.361 30.958 124.361C30.5044 121.186 30.2686 119.373 30.958 116.361C34.5545 111.893 37.6106 111.678 42.958 113.361Z" fill="#D5D4C5"/>
<path d="M68.958 62.3613C73.578 62.3613 78.198 62.3613 82.958 62.3613C82.958 65.9913 82.958 69.6213 82.958 73.3613C78.338 73.3613 73.718 73.3613 68.958 73.3613C68.958 69.7313 68.958 66.1013 68.958 62.3613Z" fill="#1A1A18"/>
<path d="M44.958 72.3613C47.268 72.3613 49.578 72.3613 51.958 72.3613C51.6486 72.9595 51.3393 73.5576 51.0205 74.1738C49.8559 76.4509 49.8559 76.4509 48.958 79.3613C63.148 79.3613 77.338 79.3613 91.958 79.3613C91.958 79.6913 91.958 80.0213 91.958 80.3613C94.433 80.8563 94.433 80.8563 96.958 81.3613C96.958 81.6913 96.958 82.0213 96.958 82.3613C94.978 82.3613 92.998 82.3613 90.958 82.3613C90.958 83.6813 90.958 85.0013 90.958 86.3613C89.968 86.6913 88.978 87.0213 87.958 87.3613C87.958 85.7113 87.958 84.0613 87.958 82.3613C86.308 82.3613 84.658 82.3613 82.958 82.3613C82.958 82.0313 82.958 81.7013 82.958 81.3613C76.028 81.3613 69.098 81.3613 61.958 81.3613C61.958 81.6913 61.958 82.0213 61.958 82.3613C59.978 82.3613 57.998 82.3613 55.958 82.3613C55.8136 83.1657 55.6693 83.9701 55.5205 84.7988C54.958 87.3613 54.958 87.3613 53.958 88.3613C51.625 88.4023 49.291 88.4037 46.958 88.3613C46.958 88.0313 46.958 87.7013 46.958 87.3613C48.938 87.3613 50.918 87.3613 52.958 87.3613C52.958 85.7113 52.958 84.0613 52.958 82.3613C50.648 82.3613 48.338 82.3613 45.958 82.3613C45.958 80.0513 45.958 77.7413 45.958 75.3613C45.298 75.0313 44.638 74.7013 43.958 74.3613C44.288 73.7013 44.618 73.0413 44.958 72.3613Z" fill="#2F3334"/>
<path d="M39.9582 34.3613C40.2882 34.3613 40.6182 34.3613 40.9582 34.3613C40.9582 44.2613 40.9582 54.1613 40.9582 64.3613C42.6082 64.6913 44.2582 65.0213 45.9582 65.3613C46.8451 65.6913 47.732 66.0213 48.6457 66.3613C53.0425 67.6887 57.3928 68.0185 61.9582 68.3613C61.9582 68.6913 61.9582 69.0213 61.9582 69.3613C60.8651 69.4438 59.772 69.5263 58.6457 69.6113C54.9255 69.9982 54.9255 69.9982 53.0207 72.4238C52.6701 73.0632 52.3195 73.7026 51.9582 74.3613C51.9582 73.7013 51.9582 73.0413 51.9582 72.3613C51.0714 72.6295 50.1845 72.8976 49.2707 73.1738C45.9582 73.3613 45.9582 73.3613 43.1457 70.9863C42.0629 69.687 42.0629 69.687 40.9582 68.3613C40.6282 68.0313 40.2982 67.7013 39.9582 67.3613C39.8698 64.913 39.843 62.4931 39.8606 60.0449C39.862 59.3139 39.8634 58.5828 39.8649 57.8296C39.8705 55.486 39.883 53.1424 39.8957 50.7988C39.9008 49.2135 39.9053 47.6283 39.9094 46.043C39.9205 42.1491 39.9377 38.2552 39.9582 34.3613Z" fill="#DEDDCF"/>
<path d="M42.9581 110.361C46.4708 111.752 49.7148 113.429 52.9581 115.361C52.6281 116.021 52.2981 116.681 51.9581 117.361C49.4831 116.866 49.4831 116.866 46.9581 116.361C46.9581 118.341 46.9581 120.321 46.9581 122.361C44.9581 118.361 44.9581 118.361 44.2706 116.174C42.9751 113.988 42.9751 113.988 39.5831 113.424C36.0869 113.137 36.0869 113.137 33.5206 114.299C31.5065 116.957 31.528 119.147 31.6847 122.42C32.0075 124.712 32.6738 126.435 33.9581 128.361C33.2981 128.361 32.6381 128.361 31.9581 128.361C31.9581 129.021 31.9581 129.681 31.9581 130.361C31.2981 130.361 30.6381 130.361 29.9581 130.361C28.0811 125.669 27.035 121.364 27.9581 116.361C31.5177 109.717 35.7304 108.916 42.9581 110.361Z" fill="#0D0D0E"/>
<path d="M82.9581 48.3613C85.1122 50.0983 85.8945 50.9544 86.3292 53.7363C86.3734 55.4863 86.4151 57.2363 86.4542 58.9863C86.7604 61.4813 86.7604 61.4813 88.7159 63.1426C92.4405 65.1671 95.8394 65.1102 99.9581 64.3613C103.165 62.6552 103.165 62.6552 104.958 59.3613C105.635 56.0255 105.885 52.7608 105.958 49.3613C106.288 49.3613 106.618 49.3613 106.958 49.3613C107.724 60.9826 107.724 60.9826 105.88 64.3027C104.521 65.6113 104.521 65.6113 101.958 67.3613C101.628 67.6913 101.298 68.0213 100.958 68.3613C95.6213 69.0908 90.378 69.33 85.7706 66.2363C83.2606 63.7742 82.9621 62.3953 82.5362 58.8457C82.5219 55.3219 82.6552 51.8711 82.9581 48.3613Z" fill="#1E1E1C"/>
<path d="M53.958 124.361C56.2293 124.67 58.5 124.984 60.7705 125.299C62.0351 125.473 63.2996 125.647 64.6025 125.826C67.958 126.361 67.958 126.361 70.958 127.361C70.958 130.001 70.958 132.641 70.958 135.361C64.7918 135.763 59.7806 134.33 53.958 132.361C53.958 131.371 53.958 130.381 53.958 129.361C57.2913 130.028 60.6247 130.695 63.958 131.361C64.8926 131.548 65.8271 131.735 66.79 131.928C67.8632 132.142 67.8632 132.142 68.958 132.361C68.958 131.701 68.958 131.041 68.958 130.361C68.0544 130.229 67.1507 130.096 66.2197 129.959C65.0402 129.782 63.8607 129.606 62.6455 129.424C61.4737 129.25 60.302 129.076 59.0947 128.896C55.958 128.361 55.958 128.361 52.958 127.361C53.288 126.371 53.618 125.381 53.958 124.361Z" fill="#121212"/>
<path d="M90.958 82.3613C92.938 82.3613 94.918 82.3613 96.958 82.3613C96.958 84.0113 96.958 85.6613 96.958 87.3613C95.308 87.6913 93.658 88.0213 91.958 88.3613C93.608 88.6913 95.258 89.0213 96.958 89.3613C96.958 90.6813 96.958 92.0013 96.958 93.3613C92.008 93.6913 87.058 94.0213 81.958 94.3613C81.958 92.7113 81.958 91.0613 81.958 89.3613C83.938 89.3613 85.918 89.3613 87.958 89.3613C88.288 88.3713 88.618 87.3813 88.958 86.3613C89.618 86.3613 90.278 86.3613 90.958 86.3613C90.958 85.0413 90.958 83.7213 90.958 82.3613Z" fill="#2A2928"/>
<path d="M37.9578 36.3613C38.2878 36.3613 38.6178 36.3613 38.9578 36.3613C38.9619 37.2032 38.966 38.045 38.9703 38.9124C38.9974 42.0645 39.0466 45.2153 39.1104 48.3669C39.1335 49.7255 39.1479 51.0843 39.1534 52.4431C39.1928 60.7105 39.2899 66.1329 44.9578 72.3613C44.9578 73.0213 44.9578 73.6813 44.9578 74.3613C41.5159 73.4311 40.2214 72.7861 38.3103 69.7063C36.8194 66.0191 36.5982 63.4287 36.6297 59.4668C36.6348 58.1822 36.64 56.8977 36.6453 55.5742C36.6556 54.914 36.6659 54.2537 36.6766 53.5735C36.708 51.5371 36.7176 49.5015 36.7234 47.4648C36.8037 37.5154 36.8037 37.5154 37.9578 36.3613Z" fill="#020305"/>
<path d="M119.958 129.361C120.393 134.585 120.393 134.585 119.958 137.361C117.365 140.094 115.519 141.174 111.958 142.361C111.958 138.401 111.958 134.441 111.958 130.361C117.708 129.361 117.708 129.361 119.958 129.361Z" fill="#D6D7C2"/>
<path d="M55.958 82.3613C57.938 82.3613 59.918 82.3613 61.958 82.3613C61.958 84.0113 61.958 85.6613 61.958 87.3613C59.978 87.6913 57.998 88.0213 55.958 88.3613C58.928 88.8563 58.928 88.8563 61.958 89.3613C61.958 91.0113 61.958 92.6613 61.958 94.3613C56.333 94.6113 56.333 94.6113 52.958 92.3613C52.628 93.0213 52.298 93.6813 51.958 94.3613C51.7705 92.0488 51.7705 92.0488 51.958 89.3613C53.3955 87.7988 53.3955 87.7988 54.958 86.3613C55.6725 84.258 55.6725 84.258 55.958 82.3613Z" fill="#7B7E78"/>
<path d="M91.958 126.361C91.958 127.021 91.958 127.681 91.958 128.361C88.988 129.021 86.018 129.681 82.958 130.361C82.958 131.021 82.958 131.681 82.958 132.361C84.0099 132.031 85.0618 131.701 86.1455 131.361C89.3467 130.522 91.6991 130.164 94.958 130.361C95.288 131.021 95.618 131.681 95.958 132.361C90.8547 134.267 86.4946 135.787 80.958 135.361C80.958 132.721 80.958 130.081 80.958 127.361C84.6924 126.483 88.1258 126.272 91.958 126.361Z" fill="#0D0D0E"/>
<path d="M32.958 129.361C35.268 129.691 37.578 130.021 39.958 130.361C39.958 134.321 39.958 138.281 39.958 142.361C34.958 140.361 34.958 140.361 32.958 139.361C32.958 136.061 32.958 132.761 32.958 129.361Z" fill="#DFE1CB"/>
<path d="M48.9578 45.3613C53.5778 45.3613 58.1978 45.3613 62.9578 45.3613C62.9578 45.6913 62.9578 46.0213 62.9578 46.3613C62.1754 46.4103 61.3929 46.4593 60.5868 46.5098C59.5748 46.5845 58.5629 46.6593 57.5203 46.7363C56.511 46.8059 55.5017 46.8755 54.4618 46.9473C53.6355 47.0839 52.8092 47.2205 51.9578 47.3613C51.6278 48.0213 51.2978 48.6813 50.9578 49.3613C50.2978 49.3613 49.6378 49.3613 48.9578 49.3613C48.9308 51.4654 48.9114 53.5696 48.8953 55.6738C48.8837 56.8456 48.8721 58.0173 48.8602 59.2246C48.8089 62.3919 48.8089 62.3919 49.9578 65.3613C46.0828 63.4863 46.0828 63.4863 44.9578 62.3613C44.8851 60.0082 44.8741 57.653 44.8953 55.2988C44.9044 54.0085 44.9134 52.7181 44.9227 51.3887C44.9343 50.3896 44.9459 49.3906 44.9578 48.3613C45.9478 48.0313 46.9378 47.7013 47.9578 47.3613C48.2878 46.7013 48.6178 46.0413 48.9578 45.3613Z" fill="#111111"/>
<path d="M87.958 44.3613C90.2069 44.2531 92.4574 44.1756 94.708 44.1113C95.961 44.0649 97.2139 44.0185 98.5049 43.9707C101.958 44.3613 101.958 44.3613 104.396 46.0176C106.347 48.9452 106.374 50.6255 106.208 54.1113C106.172 55.0962 106.136 56.081 106.099 57.0957C106.029 58.2172 106.029 58.2172 105.958 59.3613C104.968 59.8563 104.968 59.8563 103.958 60.3613C103.909 59.6627 103.86 58.964 103.81 58.2441C103.735 57.3341 103.66 56.424 103.583 55.4863C103.513 54.5814 103.444 53.6765 103.372 52.7441C103.162 50.1819 103.162 50.1819 100.958 48.3613C98.0658 47.8974 98.0658 47.8974 94.833 47.7363C93.1895 47.6242 93.1895 47.6242 91.5127 47.5098C90.2481 47.4363 90.2481 47.4363 88.958 47.3613C88.628 46.3713 88.298 45.3813 87.958 44.3613Z" fill="#080908"/>
<path d="M45.9579 88.3613C48.2679 88.3613 50.5779 88.3613 52.9579 88.3613C52.6279 89.0213 52.2979 89.6813 51.9579 90.3613C50.9679 90.3613 49.9779 90.3613 48.9579 90.3613C49.3465 93.8127 49.3465 93.8127 50.9579 97.3613C52.9258 98.5013 54.802 99.1023 56.9813 99.7402C59.3879 100.496 61.0694 101.709 62.9579 103.361C58.1878 103.743 54.8632 103.822 50.5204 101.611C46.8137 98.3567 46.8137 98.3567 45.9579 95.3613C45.8801 93.0293 45.8682 90.6929 45.9579 88.3613Z" fill="#101217"/>
<path d="M112.958 33.3613C113.618 33.3613 114.278 33.3613 114.958 33.3613C115.007 38.1668 115.044 42.9722 115.068 47.7778C115.078 49.4133 115.091 51.0487 115.109 52.6841C115.133 55.0323 115.144 57.3802 115.153 59.7285C115.163 60.4619 115.174 61.1953 115.184 61.9509C115.185 63.756 115.08 65.5604 114.958 67.3613C114.298 68.0213 113.638 68.6813 112.958 69.3613C111.71 65.5792 111.923 61.8933 112.079 57.9707C112.103 57.2661 112.126 56.5615 112.15 55.8355C112.227 53.5939 112.311 51.3527 112.395 49.1113C112.449 47.5879 112.501 46.0645 112.554 44.541C112.682 40.8142 112.818 37.0877 112.958 33.3613Z" fill="#030304"/>
<path d="M45.958 133.361C46.6747 133.649 47.3914 133.936 48.1299 134.232C49.5298 134.791 49.5298 134.791 50.958 135.361C51.8088 135.703 52.6596 136.045 53.5361 136.396C59.4355 138.665 64.6489 139.948 70.958 140.361C69.968 140.691 68.978 141.021 67.958 141.361C67.958 142.021 67.958 142.681 67.958 143.361C60.3122 142.979 53.722 141.012 46.958 137.361C46.298 136.371 45.638 135.381 44.958 134.361C45.288 134.031 45.618 133.701 45.958 133.361Z" fill="#0F1012"/>
<path d="M33.958 126.361C42.1506 127.534 42.1506 127.534 45.5205 130.986C46.2321 132.162 46.2321 132.162 46.958 133.361C43.083 135.361 43.083 135.361 41.958 135.361C41.628 138.001 41.298 140.641 40.958 143.361C40.298 143.031 39.638 142.701 38.958 142.361C39.288 138.401 39.618 134.441 39.958 130.361C37.978 130.361 35.998 130.361 33.958 130.361C33.628 133.001 33.298 135.641 32.958 138.361C32.628 138.361 32.298 138.361 31.958 138.361C31.958 135.061 31.958 131.761 31.958 128.361C32.618 128.361 33.278 128.361 33.958 128.361C33.958 127.701 33.958 127.041 33.958 126.361Z" fill="#212022"/>
<path d="M102.958 76.3614C102.958 77.3514 102.958 78.3414 102.958 79.3614C88.768 79.3614 74.578 79.3614 59.958 79.3614C59.958 79.0314 59.958 78.7014 59.958 78.3614C65.2781 78.0748 70.5984 77.7901 75.9187 77.5069C77.7276 77.4103 79.5366 77.3133 81.3455 77.2159C83.9493 77.0756 86.5533 76.9371 89.1572 76.7989C89.9626 76.7551 90.768 76.7114 91.5978 76.6663C95.3897 76.4666 99.1591 76.3081 102.958 76.3614Z" fill="#DEDFD2"/>
<path d="M104.958 132.361C105.288 133.681 105.618 135.001 105.958 136.361C92.5093 143.065 92.5093 143.065 84.958 143.361C84.628 142.371 84.298 141.381 83.958 140.361C85.055 140.035 86.152 139.709 87.2822 139.373C88.7368 138.932 90.1912 138.491 91.6455 138.049C92.7274 137.729 92.7274 137.729 93.8311 137.402C97.9121 136.154 101.381 134.767 104.958 132.361Z" fill="#161717"/>
<path d="M48.958 90.3613C49.948 90.3613 50.938 90.3613 51.958 90.3613C52.2674 91.1657 52.5768 91.9701 52.8955 92.7988C53.7214 95.2521 53.7214 95.2521 54.958 96.3613C57.6466 96.7613 60.3215 97.1127 63.0205 97.4238C63.7791 97.5147 64.5377 97.6056 65.3193 97.6992C67.1984 97.9238 69.0782 98.143 70.958 98.3613C70.958 98.6913 70.958 99.0213 70.958 99.3613C68.396 99.6112 65.8357 99.8367 63.2705 100.049C62.1887 100.158 62.1887 100.158 61.085 100.27C57.6272 100.538 55.2052 100.465 51.9893 99.1113C49.958 97.3613 49.958 97.3613 49.1455 93.6738C49.0836 92.5807 49.0218 91.4876 48.958 90.3613Z" fill="#D7D7C7"/>
<path d="M110.958 67.3613C111.948 68.3513 112.938 69.3413 113.958 70.3613C113.006 71.3673 112.046 72.3659 111.083 73.3613C110.549 73.9182 110.016 74.4751 109.466 75.0488C107.958 76.3613 107.958 76.3613 105.958 76.3613C105.958 78.6713 105.958 80.9813 105.958 83.3613C105.298 83.0313 104.638 82.7013 103.958 82.3613C103.333 79.2988 103.333 79.2988 102.958 76.3613C101.968 76.0313 100.978 75.7013 99.958 75.3613C99.958 74.7013 99.958 74.0413 99.958 73.3613C100.866 73.4438 101.773 73.5263 102.708 73.6113C106.031 73.6654 106.031 73.6654 108.271 71.4863C109.988 69.474 109.988 69.474 110.958 67.3613Z" fill="#1B1C1C"/>
<path d="M71.958 65.3613C74.598 65.3613 77.238 65.3613 79.958 65.3613C79.958 67.3413 79.958 69.3213 79.958 71.3613C77.318 71.3613 74.678 71.3613 71.958 71.3613C71.958 69.3813 71.958 67.4013 71.958 65.3613Z" fill="#272723"/>
<path d="M103.958 77.3613C104.288 77.3613 104.618 77.3613 104.958 77.3613C104.958 79.0113 104.958 80.6613 104.958 82.3613C102.978 82.3613 100.998 82.3613 98.958 82.3613C98.628 84.0113 98.298 85.6613 97.958 87.3613C97.628 87.3613 97.298 87.3613 96.958 87.3613C96.958 85.3813 96.958 83.4013 96.958 81.3613C94.648 81.3613 92.338 81.3613 89.958 81.3613C91.958 79.3613 91.958 79.3613 94.7783 79.166C95.8689 79.1892 96.9594 79.2124 98.083 79.2363C99.1787 79.2544 100.274 79.2724 101.403 79.291C102.246 79.3142 103.089 79.3374 103.958 79.3613C103.958 78.7013 103.958 78.0413 103.958 77.3613Z" fill="#0B0A0A"/>
<path d="M47.958 117.361C53.898 118.846 53.898 118.846 59.958 120.361C59.298 121.681 58.638 123.001 57.958 124.361C54.2391 123.854 51.2235 123.245 47.958 121.361C47.958 120.041 47.958 118.721 47.958 117.361Z" fill="#DDDACA"/>
<path d="M104.958 117.361C104.712 119.252 104.712 119.252 103.958 121.361C102.11 122.408 102.11 122.408 99.8955 123.111C98.7953 123.475 98.7953 123.475 97.6729 123.846C96.824 124.101 96.824 124.101 95.958 124.361C95.298 122.711 94.638 121.061 93.958 119.361C95.4131 118.831 96.8722 118.313 98.333 117.799C99.1451 117.509 99.9572 117.219 100.794 116.92C102.958 116.361 102.958 116.361 104.958 117.361Z" fill="#CDCFBE"/>
<path d="M44.958 72.3613C47.268 72.3613 49.578 72.3613 51.958 72.3613C51.6486 72.9388 51.3393 73.5163 51.0205 74.1113C50.0322 76.2043 49.4411 78.1067 48.958 80.3613C50.278 80.6913 51.598 81.0213 52.958 81.3613C50.648 81.6913 48.338 82.0213 45.958 82.3613C45.958 80.0513 45.958 77.7413 45.958 75.3613C45.298 75.0313 44.638 74.7013 43.958 74.3613C44.288 73.7013 44.618 73.0413 44.958 72.3613Z" fill="#1F2122"/>
<path d="M46.958 124.361C48.1749 124.794 49.3918 125.228 50.6455 125.674C56.6425 127.686 62.7836 129.016 68.958 130.361C68.958 131.021 68.958 131.681 68.958 132.361C61.2788 131.977 54.793 129.923 47.958 126.361C47.628 125.701 47.298 125.041 46.958 124.361Z" fill="#6F83B7"/>
<path d="M118.896 127.799C119.246 128.314 119.597 128.83 119.958 129.361C117.958 130.361 117.958 130.361 111.958 130.361C111.958 134.321 111.958 138.281 111.958 142.361C111.628 142.361 111.298 142.361 110.958 142.361C110.628 137.411 110.298 132.461 109.958 127.361C116.958 126.361 116.958 126.361 118.896 127.799Z" fill="#191918"/>
<path d="M53.958 129.361C55.5427 129.646 57.1257 129.939 58.708 130.236C60.0306 130.48 60.0306 130.48 61.3799 130.729C63.8275 131.329 65.764 132.141 67.958 133.361C66.958 134.361 66.958 134.361 63.833 134.611C59.4195 134.327 56.8877 133.286 52.958 131.361C53.288 130.701 53.618 130.041 53.958 129.361Z" fill="#0C0B0B"/>
<path d="M82.958 79.3613C85.928 79.3613 88.898 79.3613 91.958 79.3613C91.958 79.6913 91.958 80.0213 91.958 80.3613C93.608 80.6913 95.258 81.0213 96.958 81.3613C96.958 81.6913 96.958 82.0213 96.958 82.3613C94.978 82.3613 92.998 82.3613 90.958 82.3613C90.958 83.6813 90.958 85.0013 90.958 86.3613C89.968 86.6913 88.978 87.0213 87.958 87.3613C87.958 85.7113 87.958 84.0613 87.958 82.3613C86.308 82.3613 84.658 82.3613 82.958 82.3613C82.958 81.3713 82.958 80.3813 82.958 79.3613Z" fill="#222422"/>
<path d="M63.958 89.3613C66.268 89.3613 68.578 89.3613 70.958 89.3613C70.958 91.0113 70.958 92.6613 70.958 94.3613C68.978 94.3613 66.998 94.3613 64.958 94.3613C64.628 92.7113 64.298 91.0613 63.958 89.3613Z" fill="#ADAFAB"/>
<path d="M81.958 48.3613C82.288 48.3613 82.618 48.3613 82.958 48.3613C82.958 52.9813 82.958 57.6013 82.958 62.3613C79.658 62.3613 76.358 62.3613 72.958 62.3613C72.958 61.7013 72.958 61.0413 72.958 60.3613C77.413 59.8663 77.413 59.8663 81.958 59.3613C81.958 55.7313 81.958 52.1013 81.958 48.3613Z" fill="#E1E0D4"/>
<path d="M94.958 139.361C94.958 140.021 94.958 140.681 94.958 141.361C91.658 142.021 88.358 142.681 84.958 143.361C84.628 142.371 84.298 141.381 83.958 140.361C91.583 138.236 91.583 138.236 94.958 139.361Z" fill="#1B1C20"/>
<path d="M55.2197 115.604C56.4205 115.917 56.4205 115.917 57.6455 116.236C58.4538 116.44 59.262 116.644 60.0947 116.854C60.7096 117.021 61.3245 117.189 61.958 117.361C61.628 118.351 61.298 119.341 60.958 120.361C56.9019 119.893 53.4921 119.482 49.958 117.361C52.958 115.361 52.958 115.361 55.2197 115.604Z" fill="#232223"/>
<path d="M72.958 89.3613C74.938 89.3613 76.918 89.3613 78.958 89.3613C78.958 91.0113 78.958 92.6613 78.958 94.3613C76.978 94.3613 74.998 94.3613 72.958 94.3613C72.958 92.7113 72.958 91.0613 72.958 89.3613Z" fill="#B5B6B5"/>
<path d="M90.958 82.3613C92.938 82.3613 94.918 82.3613 96.958 82.3613C96.958 84.0113 96.958 85.6613 96.958 87.3613C94.978 87.3613 92.998 87.3613 90.958 87.3613C90.958 85.7113 90.958 84.0613 90.958 82.3613Z" fill="#DCDEDA"/>
<path d="M81.958 82.3613C83.938 82.3613 85.918 82.3613 87.958 82.3613C87.958 84.0113 87.958 85.6613 87.958 87.3613C85.978 87.3613 83.998 87.3613 81.958 87.3613C81.958 85.7113 81.958 84.0613 81.958 82.3613Z" fill="#CCD0CE"/>
<path d="M47.958 82.3613C49.608 82.3613 51.258 82.3613 52.958 82.3613C52.958 84.0113 52.958 85.6613 52.958 87.3613C50.648 87.3613 48.338 87.3613 45.958 87.3613C46.618 85.7113 47.278 84.0613 47.958 82.3613Z" fill="#8492CE"/>
<path d="M99.958 90.3613C100.948 90.3613 101.938 90.3613 102.958 90.3613C103.325 95.8613 103.325 95.8613 101.583 98.2363C99.958 99.3613 99.958 99.3613 97.958 99.3613C98.618 96.3913 99.278 93.4213 99.958 90.3613Z" fill="#D8D6CA"/>
<path d="M102.958 90.3613C103.288 90.3613 103.618 90.3613 103.958 90.3613C103.958 92.0113 103.958 93.6613 103.958 95.3613C104.618 95.3613 105.278 95.3613 105.958 95.3613C104.505 99.1908 102.529 100.482 98.958 102.361C99.2468 101.681 99.5355 101 99.833 100.299C101.084 97.0324 102.032 93.7329 102.958 90.3613Z" fill="#232426"/>
<path d="M105.958 49.3613C106.288 49.3613 106.618 49.3613 106.958 49.3613C107.039 51.444 107.097 53.5276 107.146 55.6113C107.18 56.7715 107.215 57.9316 107.251 59.127C106.937 62.5902 106.419 63.9536 103.958 66.3613C103.298 66.3613 102.638 66.3613 101.958 66.3613C101.958 65.7013 101.958 65.0413 101.958 64.3613C102.618 64.3613 103.278 64.3613 103.958 64.3613C105.111 59.4187 105.498 54.4047 105.958 49.3613Z" fill="#3E3E3A"/>
<path d="M45.958 88.3613C48.268 88.3613 50.578 88.3613 52.958 88.3613C52.628 89.0213 52.298 89.6813 51.958 90.3613C50.968 90.3613 49.978 90.3613 48.958 90.3613C48.958 91.6813 48.958 93.0013 48.958 94.3613C47.968 94.6913 46.978 95.0213 45.958 95.3613C45.958 93.0513 45.958 90.7413 45.958 88.3613Z" fill="#15191C"/>
<path d="M38.958 65.3613C41.3587 68.2422 43.4309 70.9254 44.958 74.3613C41.3048 73.1116 40.1773 72.6903 37.958 69.3613C38.333 67.1738 38.333 67.1738 38.958 65.3613Z" fill="#101114"/>
<path d="M99.958 82.3613C102.928 82.8563 102.928 82.8563 105.958 83.3613C105.958 84.6947 105.958 86.028 105.958 87.3613C103.978 87.3613 101.998 87.3613 99.958 87.3613C99.958 85.7113 99.958 84.0613 99.958 82.3613Z" fill="#9BA8CE"/>
<path d="M98.958 123.361C99.288 124.351 99.618 125.341 99.958 126.361C97.318 127.021 94.678 127.681 91.958 128.361C91.958 127.701 91.958 127.041 91.958 126.361C91.298 126.031 90.638 125.701 89.958 125.361C96.708 123.361 96.708 123.361 98.958 123.361Z" fill="#171817"/>
<path d="M48.9579 90.3613C49.9479 90.3613 50.9379 90.3613 51.9579 90.3613C52.6179 92.3413 53.2779 94.3213 53.9579 96.3613C52.4729 97.3513 52.4729 97.3513 50.9579 98.3613C48.806 95.1334 48.7571 94.0773 48.9579 90.3613Z" fill="#CDD1C2"/>
<path d="M81.958 90.3613C83.938 90.3613 85.918 90.3613 87.958 90.3613C87.958 91.6813 87.958 93.0013 87.958 94.3613C85.978 94.3613 83.998 94.3613 81.958 94.3613C81.958 93.0413 81.958 91.7213 81.958 90.3613Z" fill="#D3D3D2"/>
<path d="M55.958 82.3613C57.938 82.3613 59.918 82.3613 61.958 82.3613C61.958 83.6813 61.958 85.0013 61.958 86.3613C59.978 86.3613 57.998 86.3613 55.958 86.3613C55.958 85.0413 55.958 83.7213 55.958 82.3613Z" fill="#E4E6DC"/>
<path d="M104.958 19.3614C104.628 20.6814 104.298 22.0014 103.958 23.3614C100.988 22.3714 98.018 21.3814 94.958 20.3614C98.8083 17.7945 100.544 18.5285 104.958 19.3614Z" fill="#191818"/>
<path d="M108.958 128.361C108.298 129.681 107.638 131.001 106.958 132.361C105.308 132.031 103.658 131.701 101.958 131.361C101.958 130.701 101.958 130.041 101.958 129.361C105.583 127.236 105.583 127.236 108.958 128.361Z" fill="#D1D2C2"/>
<path d="M33.958 126.361C36.928 126.856 36.928 126.856 39.958 127.361C38.638 127.691 37.318 128.021 35.958 128.361C35.958 129.021 35.958 129.681 35.958 130.361C35.298 130.361 34.638 130.361 33.958 130.361C33.628 133.001 33.298 135.641 32.958 138.361C32.628 138.361 32.298 138.361 31.958 138.361C31.958 135.061 31.958 131.761 31.958 128.361C32.618 128.361 33.278 128.361 33.958 128.361C33.958 127.701 33.958 127.041 33.958 126.361Z" fill="#484843"/>
<path d="M107.958 114.361C109.608 114.361 111.258 114.361 112.958 114.361C109.208 121.111 109.208 121.111 106.958 123.361C106.833 116.611 106.833 116.611 107.958 114.361Z" fill="#DDDECF"/>
<path d="M109.958 64.3613C110.618 65.3513 111.278 66.3413 111.958 67.3613C110.968 69.0113 109.978 70.6613 108.958 72.3613C107.968 72.0313 106.978 71.7013 105.958 71.3613C106.288 70.0413 106.618 68.7213 106.958 67.3613C107.618 67.3613 108.278 67.3613 108.958 67.3613C109.288 66.3713 109.618 65.3813 109.958 64.3613Z" fill="#DEDECE"/>
<path d="M61.958 140.361C64.928 140.361 67.898 140.361 70.958 140.361C69.968 140.691 68.978 141.021 67.958 141.361C67.958 142.021 67.958 142.681 67.958 143.361C66.308 143.361 64.658 143.361 62.958 143.361C62.628 142.371 62.298 141.381 61.958 140.361Z" fill="#17191A"/>
<path d="M64.958 82.3613C66.608 82.3613 68.258 82.3613 69.958 82.3613C69.958 83.6813 69.958 85.0013 69.958 86.3613C68.308 86.3613 66.658 86.3613 64.958 86.3613C64.958 85.0413 64.958 83.7213 64.958 82.3613Z" fill="#E0E5E3"/>
<path d="M73.958 82.3613C75.608 82.3613 77.258 82.3613 78.958 82.3613C78.958 83.6813 78.958 85.0013 78.958 86.3613C77.308 86.3613 75.658 86.3613 73.958 86.3613C73.958 85.0413 73.958 83.7213 73.958 82.3613Z" fill="#E3E9E7"/>
<path d="M34.958 135.361C36.278 137.011 37.598 138.661 38.958 140.361C38.628 141.021 38.298 141.681 37.958 142.361C35.458 141.049 35.458 141.049 32.958 139.361C32.958 138.371 32.958 137.381 32.958 136.361C33.618 136.031 34.278 135.701 34.958 135.361Z" fill="#CDCEBE"/>
<path d="M26.958 128.361C27.618 128.361 28.278 128.361 28.958 128.361C28.958 130.671 28.958 132.981 28.958 135.361C27.638 134.041 26.318 132.721 24.958 131.361C25.618 130.371 26.278 129.381 26.958 128.361Z" fill="#6E74BF"/>
<path d="M98.958 127.361C99.618 127.691 100.278 128.021 100.958 128.361C100.628 129.351 100.298 130.341 99.958 131.361C97.8955 132.049 97.8955 132.049 95.958 132.361C95.298 131.371 94.638 130.381 93.958 129.361C96.333 128.299 96.333 128.299 98.958 127.361Z" fill="#16161A"/>
<path d="M60.958 118.361C63.268 118.361 65.578 118.361 67.958 118.361C67.628 119.351 67.298 120.341 66.958 121.361C65.308 121.361 63.658 121.361 61.958 121.361C61.628 120.371 61.298 119.381 60.958 118.361Z" fill="#1B191B"/>
<path d="M52.958 96.3613C56.918 96.6913 60.878 97.0213 64.958 97.3613C64.958 97.6913 64.958 98.0213 64.958 98.3613C59.018 98.8563 59.018 98.8563 52.958 99.3613C52.958 98.3713 52.958 97.3813 52.958 96.3613Z" fill="#DFE1D3"/>
<path d="M100.958 88.3613C102.608 88.3613 104.258 88.3613 105.958 88.3613C105.958 90.6713 105.958 92.9813 105.958 95.3613C105.298 95.3613 104.638 95.3613 103.958 95.3613C103.772 94.1857 103.772 94.1857 103.583 92.9863C103.167 90.2207 103.167 90.2207 100.958 88.3613Z" fill="#040403"/>
<path d="M90.958 90.3613C92.938 90.3613 94.918 90.3613 96.958 90.3613C96.958 91.3513 96.958 92.3413 96.958 93.3613C94.978 93.3613 92.998 93.3613 90.958 93.3613C90.958 92.3713 90.958 91.3813 90.958 90.3613Z" fill="#F2F2EF"/>
<path d="M46.958 23.3613C46.958 27.293 45.5638 28.5256 42.958 31.3613C42.298 31.3613 41.638 31.3613 40.958 31.3613C42.2274 27.4473 43.4697 25.5706 46.958 23.3613Z" fill="#CCCCC1"/>
<path d="M66.1455 129.736C67.0736 129.943 68.0018 130.149 68.958 130.361C68.958 131.021 68.958 131.681 68.958 132.361C65.988 132.031 63.018 131.701 59.958 131.361C62.958 129.361 62.958 129.361 66.1455 129.736Z" fill="#59639E"/>
<path d="M102.958 76.3613C102.958 77.3513 102.958 78.3413 102.958 79.3613C99.658 79.0313 96.358 78.7013 92.958 78.3613C92.958 78.0313 92.958 77.7013 92.958 77.3613C96.3636 76.5829 99.4657 76.2615 102.958 76.3613Z" fill="#E4E3D1"/>
</svg>
