<svg width="154" height="152" viewBox="0 0 154 152" fill="none" xmlns="http://www.w3.org/2000/svg">
<path d="M75.4534 0.0351562C76.6432 0.0235547 77.833 0.0119531 79.0589 0C90.0381 0.0359975 99.8947 1.97422 109.641 7.09766C110.316 7.44651 110.992 7.79536 111.688 8.15479C130.373 18.0446 143.043 33.0464 149.614 53.2227C149.932 54.2745 150.25 55.3264 150.578 56.4102C150.948 57.5239 150.948 57.5239 151.325 58.6602C156.442 76.7304 151.6 97.4366 142.91 113.492C136.255 124.381 128.074 132.307 117.578 139.41C117.248 139.41 116.918 139.41 116.578 139.41C116.588 138.578 116.588 138.578 116.598 137.729C116.606 135.205 116.562 132.684 116.516 130.16C116.532 128.851 116.532 128.851 116.549 127.516C116.481 124.964 116.353 122.845 115.578 120.41C113.337 118.332 111.469 117.578 108.578 116.41C107.132 105.251 107.132 105.251 108.578 100.41C112.131 96.9255 115.94 95.1221 120.578 93.4102C118.321 91.0749 116.298 89.2231 113.578 87.4102C113.578 86.7502 113.578 86.0902 113.578 85.4102C116.078 83.7852 116.078 83.7852 118.578 82.4102C118.001 81.8559 117.423 81.3016 116.828 80.7305C116.086 80.006 115.343 79.2816 114.578 78.5352C113.836 77.8159 113.093 77.0966 112.328 76.3555C110.578 74.4102 110.578 74.4102 110.578 72.4102C111.724 71.3626 112.922 70.3721 114.141 69.4102C123.743 61.168 128.872 50.6983 130.328 38.1602C130.411 36.9227 130.493 35.6852 130.578 34.4102C128.635 37.3254 128.01 39.5302 127.286 42.9065C124.933 53.8495 120.493 62.2649 111.578 69.4102C110.918 69.4102 110.258 69.4102 109.578 69.4102C109.248 65.1202 108.918 60.8302 108.578 56.4102C107.918 56.4102 107.258 56.4102 106.578 56.4102C106.693 58.6399 106.821 60.8689 106.953 63.0977C107.058 64.9597 107.058 64.9597 107.164 66.8594C107.742 71.8162 109.245 75.2518 112.203 79.2227C112.987 80.2745 113.771 81.3264 114.578 82.4102C112.928 83.4002 111.278 84.3902 109.578 85.4102C110.754 86.5548 110.754 86.5548 111.953 87.7227C114.578 90.4102 114.578 90.4102 116.578 93.4102C113.278 95.3902 109.978 97.3702 106.578 99.4102C106.557 102.498 106.585 105.573 106.641 108.66C106.624 109.969 106.624 109.969 106.608 111.305C106.676 113.856 106.804 115.975 107.578 118.41C109.82 120.488 111.688 121.242 114.578 122.41C114.578 126.04 114.578 129.67 114.578 133.41C111.278 133.41 107.978 133.41 104.578 133.41C104.578 137.7 104.578 141.99 104.578 146.41C86.4066 152.218 68.9396 153.531 50.5784 147.41C50.5784 142.79 50.5784 138.17 50.5784 133.41C47.2784 133.41 43.9784 133.41 40.5784 133.41C40.5784 129.78 40.5784 126.15 40.5784 122.41C41.7141 121.931 42.8497 121.451 44.0198 120.957C46.3074 119.65 47.3717 119.003 48.2498 116.486C48.4926 114.189 48.5485 111.97 48.5159 109.66C48.532 108.867 48.5481 108.075 48.5647 107.258C48.6 105.309 48.5933 103.359 48.5784 101.41C49.2384 101.41 49.8984 101.41 50.5784 101.41C48.5261 99.1624 47.5717 98.4079 44.5784 97.4102C45.5684 98.8952 45.5684 98.8952 46.5784 100.41C46.7209 103.177 46.7661 105.837 46.7034 108.598C46.6944 109.347 46.6854 110.097 46.6761 110.869C46.6525 112.716 46.6167 114.563 46.5784 116.41C45.4428 116.859 44.3071 117.307 43.137 117.77C40.664 119.183 39.7469 119.857 38.907 122.615C38.6634 125.316 38.6086 127.949 38.6409 130.66C38.6248 131.596 38.6087 132.532 38.5921 133.496C38.5568 135.802 38.5533 138.104 38.5784 140.41C24.8939 135.899 14.5061 121.366 8.20342 109.223C5.92452 104.382 3.98092 99.5743 2.57842 94.4102C2.27098 93.366 2.27098 93.366 1.95732 92.3008C-3.13413 71.935 2.16305 52.0835 12.5784 34.4102C14.6876 31.1579 16.9658 28.2701 19.5784 25.4102C20.3287 24.58 21.0789 23.7498 21.8519 22.8945C30.3076 13.9853 40.1073 7.77724 51.5784 3.41016C52.2642 3.14832 52.95 2.88647 53.6565 2.6167C60.9283 0.115191 67.8153 -0.0388405 75.4534 0.0351562Z" fill="#79BA4E"/>
<path d="M67.5786 37.4102C72.9384 37.8305 75.5802 38.856 79.5786 42.4102C80.5686 42.7402 81.5586 43.0702 82.5786 43.4102C82.0836 40.4402 82.0836 40.4402 81.5786 37.4102C83.4536 37.6602 83.4536 37.6602 85.5786 38.4102C85.8532 39.0547 86.1278 39.6992 86.4106 40.3633C87.4123 42.6063 87.4123 42.6063 89.7856 43.3164C90.6454 43.5123 91.5053 43.7083 92.3911 43.9102C98.2393 45.5005 101.698 47.564 104.829 52.8477C107.032 57.5355 107.146 62.2429 107.305 67.3594C107.729 72.0936 109.394 75.4514 112.204 79.2227C112.987 80.2745 113.771 81.3264 114.579 82.4102C112.929 83.4002 111.279 84.3902 109.579 85.4102C110.362 86.1733 111.146 86.9364 111.954 87.7227C114.579 90.4102 114.579 90.4102 116.579 93.4102C113.279 95.3902 109.979 97.3702 106.579 99.4102C106.558 102.498 106.585 105.573 106.641 108.66C106.625 109.969 106.625 109.969 106.608 111.305C106.676 113.856 106.804 115.975 107.579 118.41C109.82 120.488 111.688 121.242 114.579 122.41C114.579 126.04 114.579 129.67 114.579 133.41C111.279 133.41 107.979 133.41 104.579 133.41C104.579 137.7 104.579 141.99 104.579 146.41C86.4068 152.218 68.9398 153.531 50.5786 147.41C50.5786 142.79 50.5786 138.17 50.5786 133.41C47.2786 133.41 43.9786 133.41 40.5786 133.41C40.5786 129.78 40.5786 126.15 40.5786 122.41C41.7143 121.931 42.8499 121.451 44.02 120.957C46.3076 119.65 47.3719 119.003 48.25 116.486C48.4928 114.189 48.5487 111.97 48.5161 109.66C48.5322 108.867 48.5483 108.075 48.5649 107.258C48.6002 105.309 48.5935 103.359 48.5786 101.41C49.2386 101.41 49.8986 101.41 50.5786 101.41C47.3015 97.7398 43.8634 95.7173 39.5786 93.4102C42.1437 89.9263 44.3346 86.9756 48.3286 85.1602C53.2224 85.5366 59.0299 87.8615 62.5786 91.4102C62.6518 94.1067 62.671 96.7771 62.6411 99.4727C62.6366 100.231 62.6321 100.99 62.6274 101.771C62.6156 103.651 62.5977 105.531 62.5786 107.41C64.242 105.747 63.9391 103.628 64.1411 101.348C64.2249 100.429 64.3087 99.5095 64.395 98.5625C64.4859 97.4971 64.4859 97.4971 64.5786 96.4102C66.5586 97.4002 68.5386 98.3902 70.5786 99.4102C70.5786 102.38 70.5786 105.35 70.5786 108.41C67.6086 108.905 67.6086 108.905 64.5786 109.41C64.5786 110.07 64.5786 110.73 64.5786 111.41C63.9186 111.41 63.2586 111.41 62.5786 111.41C63.538 113.809 64.1546 115.147 66.3813 116.529C68.7628 117.484 70.4299 117.655 72.9849 117.641C73.8112 117.639 74.6374 117.637 75.4888 117.635C76.3434 117.623 77.1981 117.61 78.0786 117.598C78.9333 117.597 79.7879 117.596 80.6685 117.596C84.4915 117.569 87.8815 117.46 91.5786 116.41C91.5786 114.43 91.5786 112.45 91.5786 110.41C91.0836 112.39 91.0836 112.39 90.5786 114.41C87.8457 115.178 85.4108 115.538 82.5747 115.543C81.8341 115.544 81.0936 115.546 80.3306 115.547C79.5668 115.543 78.803 115.539 78.0161 115.535C77.2485 115.539 76.4808 115.543 75.6899 115.547C72.3993 115.541 69.721 115.458 66.5786 114.41C66.2486 113.09 65.9186 111.77 65.5786 110.41C73.4986 110.08 81.4186 109.75 89.5786 109.41C87.9286 109.08 86.2786 108.75 84.5786 108.41C84.0501 103.125 84.0501 103.125 84.5786 100.41C87.5786 97.9102 87.5786 97.9102 90.5786 96.4102C91.0736 101.36 91.0736 101.36 91.5786 106.41C91.9086 106.41 92.2386 106.41 92.5786 106.41C92.4257 96.8864 91.0104 89.8321 86.5786 81.4102C86.5786 81.0802 86.5786 80.7502 86.5786 80.4102C91.8586 80.4102 97.1386 80.4102 102.579 80.4102C102.579 76.1202 102.579 71.8302 102.579 67.4102C97.2986 67.4102 92.0186 67.4102 86.5786 67.4102C86.5786 71.3702 86.5786 75.3302 86.5786 79.4102C83.7661 79.437 80.9537 79.4569 78.1411 79.4727C76.9375 79.4852 76.9375 79.4852 75.7095 79.498C73.6657 79.5067 71.6218 79.4624 69.5786 79.4102C68.5786 78.4102 68.5786 78.4102 68.481 75.9062C68.5135 73.0742 68.5461 70.2422 68.5786 67.4102C63.2986 67.4102 58.0186 67.4102 52.5786 67.4102C52.5786 71.3702 52.5786 75.3302 52.5786 79.4102C52.2486 79.4102 51.9186 79.4102 51.5786 79.4102C51.2486 76.1102 50.9186 72.8102 50.5786 69.4102C49.9186 70.0702 49.2586 70.7302 48.5786 71.4102C47.7632 56.5515 47.7632 56.5516 52.5786 50.4102C59.3732 43.5097 59.3732 43.5097 63.7427 43.3125C64.9608 43.3299 64.9608 43.3299 66.2036 43.3477C67.4295 43.3612 67.4295 43.3612 68.6802 43.375C69.6199 43.3924 69.6199 43.3924 70.5786 43.4102C69.5886 41.4302 68.5986 39.4502 67.5786 37.4102Z" fill="#ED8129"/>
<path d="M23.5785 26.4101C28.7789 26.9819 33.3777 28.2077 38.266 30.0976C38.9593 30.3594 39.6527 30.6213 40.367 30.891C45.7705 32.979 50.87 35.4813 55.93 38.3085C58.9866 39.5798 61.2996 39.612 64.5785 39.4101C63.5885 38.7501 62.5985 38.0901 61.5785 37.4101C61.5785 36.7501 61.5785 36.0901 61.5785 35.4101C63.4948 35.3558 65.4116 35.3172 67.3285 35.2851C68.9295 35.2503 68.9295 35.2503 70.5628 35.2148C73.5032 35.4052 75.1021 35.8834 77.5785 37.4101C78.2385 36.4201 78.8985 35.4301 79.5785 34.4101C82.8285 34.5976 82.8285 34.5976 86.5785 35.4101C87.2385 36.2763 87.8985 37.1426 88.5785 38.0351C89.5685 39.2107 89.5685 39.2107 90.5785 40.4101C97.0771 40.3077 102.246 37.4135 107.953 34.5351C125.562 25.731 125.562 25.731 132.578 26.4101C132.323 28.7532 131.986 31.0885 131.578 33.4101C130.918 33.7401 130.258 34.0701 129.578 34.4101C128.929 36.1882 128.929 36.1882 128.5 38.3476C128.312 39.1562 128.124 39.9647 127.931 40.7978C127.732 41.6598 127.533 42.5219 127.328 43.4101C125.525 50.6908 123.685 56.7235 118.578 62.4101C117.962 63.0972 117.346 63.7842 116.711 64.4921C115.055 66.2343 113.454 67.9066 111.578 69.4101C110.918 69.4101 110.258 69.4101 109.578 69.4101C109.248 65.1201 108.918 60.8301 108.578 56.4101C107.093 56.9051 107.093 56.9051 105.578 57.4101C105.176 56.5052 105.176 56.5052 104.766 55.582C101.755 49.4412 99.0393 46.648 92.5785 44.4101C91.4647 44.0801 90.351 43.7501 89.2035 43.4101C86.5785 42.4101 86.5785 42.4101 85.391 40.3476C85.1228 39.7082 84.8547 39.0688 84.5785 38.4101C83.5885 38.0801 82.5985 37.7501 81.5785 37.4101C82.0735 40.3801 82.0735 40.3801 82.5785 43.4101C79.6568 42.9426 77.5197 41.8488 75.016 40.3476C71.8005 38.1646 71.8005 38.1646 68.5785 38.4101C69.2385 39.0701 69.8985 39.7301 70.5785 40.4101C70.5785 41.4001 70.5785 42.3901 70.5785 43.4101C69.7431 43.414 69.7431 43.414 68.891 43.4179C62.315 43.7511 58.168 45.6651 53.5785 50.4101C49.0374 56.2686 49.1042 62.244 49.5785 69.4101C50.5685 68.7501 51.5585 68.0901 52.5785 67.4101C55.345 67.2676 58.005 67.2224 60.766 67.2851C61.5155 67.2941 62.2651 67.3031 63.0374 67.3124C64.8846 67.336 66.7316 67.3718 68.5785 67.4101C69.0735 72.8551 69.0735 72.8551 69.5785 78.4101C75.1885 78.7401 80.7985 79.0701 86.5785 79.4101C86.5785 75.4501 86.5785 71.4901 86.5785 67.4101C91.8585 67.4101 97.1385 67.4101 102.578 67.4101C102.578 71.7001 102.578 75.9901 102.578 80.4101C97.6285 80.7401 92.6785 81.0701 87.5785 81.4101C88.4035 82.9363 89.2285 84.4626 90.0785 86.0351C93.2201 92.8227 93.0612 99.0615 92.5785 106.41C93.2385 106.74 93.8985 107.07 94.5785 107.41C93.0935 107.905 93.0935 107.905 91.5785 108.41C90.4303 106.114 90.2708 104.333 90.016 101.785C89.8903 100.559 89.8903 100.559 89.7621 99.3085C89.7015 98.682 89.6409 98.0556 89.5785 97.4101C87.4763 98.3767 87.4763 98.3767 85.5785 100.41C84.913 103.109 84.7616 105.616 84.5785 108.41C86.5585 108.41 88.5385 108.41 90.5785 108.41C90.2485 109.07 89.9185 109.73 89.5785 110.41C81.6585 110.41 73.7385 110.41 65.5785 110.41C65.9085 111.73 66.2385 113.05 66.5785 114.41C74.4985 114.41 82.4185 114.41 90.5785 114.41C90.9085 112.76 91.2385 111.11 91.5785 109.41C91.9085 109.41 92.2385 109.41 92.5785 109.41C92.3285 112.785 92.3285 112.785 91.5785 116.41C87.4314 119.234 82.969 118.741 78.141 118.723C76.8716 118.747 76.8716 118.747 75.5765 118.771C70.7728 118.775 67.452 118.581 63.5785 115.41C62.641 113.41 62.641 113.41 62.5785 111.41C63.5685 109.925 63.5685 109.925 64.5785 108.41C67.7035 108.223 67.7035 108.223 70.5785 108.41C70.5785 105.44 70.5785 102.47 70.5785 99.4101C68.9285 98.7501 67.2785 98.0901 65.5785 97.4101C65.5295 98.0366 65.4805 98.6631 65.43 99.3085C65.3553 100.126 65.2805 100.943 65.2035 101.785C65.1338 102.597 65.0642 103.409 64.9925 104.246C64.5785 106.41 64.5785 106.41 62.5785 108.41C61.0458 105.345 61.4757 102.143 61.516 98.7851C61.5205 98.0787 61.525 97.3723 61.5296 96.6445C61.5414 94.8996 61.5594 93.1549 61.5785 91.4101C55.2805 87.7173 55.2805 87.7173 48.266 86.2226C44.4985 87.8873 42.9821 90.0874 40.5785 93.4101C42.5585 94.4001 44.5385 95.3901 46.5785 96.4101C45.5885 96.9051 45.5885 96.9051 44.5785 97.4101C44.2485 98.0701 43.9185 98.7301 43.5785 99.4101C40.6085 97.7601 37.6385 96.1101 34.5785 94.4101C35.9593 90.2677 38.1767 89.0881 41.5785 86.4101C39.9285 85.4201 38.2785 84.4301 36.5785 83.4101C37.1759 82.7217 37.1759 82.7217 37.7855 82.0195C40.4899 78.8874 43.1584 75.7713 45.5785 72.4101C45.01 72.1626 44.4415 71.9151 43.8558 71.6601C35.3379 66.9847 29.7139 58.5552 26.9886 49.4365C24.8377 41.6657 23.333 34.5009 23.5785 26.4101Z" fill="#141410"/>
<path d="M67.5785 37.4102C72.9383 37.8305 75.5801 38.856 79.5785 42.4102C81.0635 42.9052 81.0635 42.9052 82.5785 43.4102C82.0835 40.4402 82.0835 40.4402 81.5785 37.4102C83.4535 37.6602 83.4535 37.6602 85.5785 38.4102C85.8531 39.0547 86.1276 39.6992 86.4105 40.3633C87.4122 42.6063 87.4122 42.6063 89.7855 43.3164C90.6453 43.5123 91.5051 43.7083 92.391 43.9102C98.2392 45.5005 101.698 47.564 104.829 52.8477C107.031 57.5355 107.146 62.2429 107.305 67.3594C107.729 72.0936 109.394 75.4514 112.203 79.2227C112.987 80.2745 113.771 81.3264 114.578 82.4102C111.54 84.5666 108.943 85.6267 105.329 86.2852C100.144 87.296 96.0338 89.6506 91.5785 92.4102C90.7429 90.5987 89.9101 88.786 89.0785 86.9727C88.6144 85.9633 88.1504 84.954 87.6723 83.9141C86.5785 81.4102 86.5785 81.4102 86.5785 80.4102C91.8585 80.4102 97.1385 80.4102 102.579 80.4102C102.579 76.1202 102.579 71.8302 102.579 67.4102C97.2985 67.4102 92.0185 67.4102 86.5785 67.4102C86.5785 71.3702 86.5785 75.3302 86.5785 79.4102C83.7659 79.437 80.9536 79.4569 78.141 79.4727C77.3386 79.481 76.5361 79.4894 75.7094 79.498C73.6655 79.5067 71.6217 79.4624 69.5785 79.4102C68.5785 78.4102 68.5785 78.4102 68.4808 75.9062C68.5134 73.0742 68.5459 70.2422 68.5785 67.4102C63.2985 67.4102 58.0185 67.4102 52.5785 67.4102C52.5785 71.3702 52.5785 75.3302 52.5785 79.4102C52.2485 79.4102 51.9185 79.4102 51.5785 79.4102C51.2485 76.1102 50.9185 72.8102 50.5785 69.4102C49.9185 70.0702 49.2585 70.7302 48.5785 71.4102C47.7631 56.5515 47.7631 56.5516 52.5785 50.4102C59.373 43.5097 59.373 43.5097 63.7426 43.3125C64.9607 43.3299 64.9607 43.3299 66.2035 43.3477C67.4294 43.3612 67.4294 43.3612 68.6801 43.375C69.6198 43.3924 69.6198 43.3924 70.5785 43.4102C69.5885 41.4302 68.5985 39.4502 67.5785 37.4102Z" fill="#EA7F2A"/>
<path d="M25.5785 47.4102C27.5785 48.4102 27.5785 48.4102 28.3324 50.3438C28.5992 51.17 28.8661 51.9963 29.141 52.8477C32.3173 61.1706 38.6413 67.0513 45.5785 72.4102C44.2148 75.4024 42.6294 77.7004 40.4535 80.1602C39.9147 80.7738 39.3758 81.3873 38.8207 82.0195C38.4107 82.4784 38.0008 82.9373 37.5785 83.4102C39.2285 84.0702 40.8785 84.7302 42.5785 85.4102C37.2928 91.8387 37.2928 91.8387 34.5785 94.4102C35.4447 94.6577 36.311 94.9052 37.2035 95.1602C40.9568 96.5503 43.5278 97.7971 46.5785 100.41C47.1845 103.422 47.3815 105.488 47.266 108.473C47.2808 109.193 47.2956 109.913 47.3109 110.654C47.2777 112.758 47.2777 112.758 46.5785 116.41C43.8 119.049 42.3232 119.424 38.5082 119.352C31.2696 117.026 27.5933 108.731 24.2655 102.328C20.0875 94.0445 17.1934 86.6975 17.266 77.2227C17.2694 76.4809 17.2729 75.7391 17.2765 74.9749C17.4034 68.4845 18.5399 62.5814 20.5785 56.4102C20.8415 55.5929 21.1044 54.7756 21.3754 53.9336C23.2273 48.5858 23.2273 48.5858 25.5785 47.4102Z" fill="#95C66F"/>
<path d="M75.5161 17.0352C76.9711 17.0515 76.9711 17.0515 78.4556 17.0681C90.966 17.3472 104.529 20.9093 113.989 29.6328C114.513 30.2193 115.038 30.8059 115.579 31.4102C112.358 33.0933 109.126 34.7537 105.891 36.4102C104.979 36.8871 104.067 37.3641 103.127 37.8555C102.241 38.3067 101.355 38.7578 100.442 39.2227C99.2243 39.8511 99.2243 39.8511 97.9822 40.4922C95.2926 41.5194 93.4323 41.7668 90.5786 41.4102C89.6505 40.2036 89.6505 40.2036 88.7036 38.9727C86.7126 36.0354 86.7126 36.0354 82.8286 35.5977C81.7561 35.5358 80.6836 35.4739 79.5786 35.4102C78.9186 36.4002 78.2586 37.3902 77.5786 38.4102C77.0475 38.0931 76.5164 37.7759 75.9692 37.4492C73.0333 36.1731 70.5169 35.9931 67.3286 35.7852C65.7121 35.673 65.7121 35.673 64.063 35.5586C63.2431 35.5096 62.4233 35.4606 61.5786 35.4102C61.5786 36.0702 61.5786 36.7302 61.5786 37.4102C62.8986 38.0702 64.2186 38.7302 65.5786 39.4102C65.5786 39.7402 65.5786 40.0702 65.5786 40.4102C58.9863 41.0355 54.542 38.9454 48.7036 36.0352C47.8374 35.6227 46.9711 35.2102 46.0786 34.7852C39.7217 31.6964 39.7217 31.6964 38.5786 29.4102C41.0299 27.9595 43.4887 26.5249 45.9536 25.0977C46.6329 24.6935 47.3123 24.2894 48.0122 23.8731C56.9365 18.7437 65.2606 16.8784 75.5161 17.0352Z" fill="#93C56C"/>
<path d="M56.8169 87.0313C59.5438 88.1986 60.834 88.9775 62.5786 91.4102C63.2798 96.8241 63.0377 101.984 62.5786 107.41C64.242 105.747 63.9391 103.628 64.1411 101.348C64.2249 100.429 64.3087 99.5095 64.395 98.5626C64.4859 97.4972 64.4859 97.4972 64.5786 96.4102C66.5586 97.4002 68.5386 98.3902 70.5786 99.4102C70.5786 102.38 70.5786 105.35 70.5786 108.41C68.5986 108.74 66.6186 109.07 64.5786 109.41C64.5786 110.07 64.5786 110.73 64.5786 111.41C63.9186 111.41 63.2586 111.41 62.5786 111.41C63.6274 114.032 64.2279 115.204 66.7036 116.66C67.3224 116.908 67.9411 117.155 68.5786 117.41C67.5597 119.683 66.7696 121.24 64.8911 122.91C64.458 123.405 64.0249 123.9 63.5786 124.41C63.8604 126.735 64.5331 128.319 65.5786 130.41C64.898 131.153 64.2174 131.895 63.5161 132.66C61.3312 135.157 61.3312 135.157 61.7036 137.66C62.4536 139.598 62.4536 139.598 64.5786 140.41C63.9332 143.896 62.4773 146.438 60.5786 149.41C52.8286 148.535 52.8286 148.535 50.5786 147.41C50.5786 142.79 50.5786 138.17 50.5786 133.41C47.2786 133.41 43.9786 133.41 40.5786 133.41C40.5786 129.78 40.5786 126.15 40.5786 122.41C41.7143 121.931 42.8499 121.451 44.02 120.957C46.3076 119.65 47.3719 119.003 48.25 116.486C48.4928 114.189 48.5487 111.97 48.5161 109.66C48.5322 108.867 48.5483 108.075 48.5649 107.258C48.6002 105.309 48.5935 103.359 48.5786 101.41C49.2386 101.41 49.8986 101.41 50.5786 101.41C47.3015 97.7399 43.8634 95.7174 39.5786 93.4102C40.5328 92.261 41.4921 91.1159 42.4536 89.9727C42.9873 89.3347 43.521 88.6966 44.0708 88.0392C47.8324 83.9755 51.9463 85.6798 56.8169 87.0313Z" fill="#EC802B"/>
<path d="M128.578 48.4102C136.247 59.9123 137.301 73.6827 134.926 87.0938C132.1 97.9755 127.5 108.578 118.961 116.141C117.444 117.382 117.444 117.382 116.578 119.41C113.204 118.863 111.496 118.355 108.578 116.41C107.503 111.219 106.889 105.533 108.578 100.41C112.143 96.9394 115.94 95.1221 120.578 93.4102C118.321 91.0749 116.298 89.2231 113.578 87.4102C113.578 86.7502 113.578 86.0902 113.578 85.4102C116.078 83.7852 116.078 83.7852 118.578 82.4102C118.001 81.8559 117.423 81.3016 116.828 80.7305C116.086 80.006 115.343 79.2816 114.578 78.5352C113.836 77.8159 113.093 77.0966 112.328 76.3555C110.578 74.4102 110.578 74.4102 110.578 72.4102C111.724 71.3626 112.922 70.3721 114.141 69.4102C120.85 63.7006 125.534 56.6483 128.578 48.4102Z" fill="#96C66F"/>
<path d="M86.5788 67.4102C91.8588 67.4102 97.1388 67.4102 102.579 67.4102C102.579 71.7002 102.579 75.9902 102.579 80.4102C97.6288 80.7402 92.6788 81.0702 87.5788 81.4102C88.8163 83.6995 88.8163 83.6995 90.0788 86.0352C93.2204 92.8228 93.0616 99.0616 92.5788 106.41C93.2388 106.74 93.8988 107.07 94.5788 107.41C93.0938 107.905 93.0938 107.905 91.5788 108.41C90.4307 106.114 90.2711 104.333 90.0163 101.785C89.9325 100.968 89.8487 100.151 89.7624 99.3086C89.7018 98.6821 89.6412 98.0556 89.5788 97.4102C87.4767 98.3768 87.4767 98.3768 85.5788 100.41C84.9133 103.109 84.762 105.616 84.5788 108.41C86.5588 108.41 88.5388 108.41 90.5788 108.41C90.2488 109.07 89.9188 109.73 89.5788 110.41C81.6588 110.41 73.7388 110.41 65.5788 110.41C65.9088 111.73 66.2388 113.05 66.5788 114.41C74.4988 114.41 82.4188 114.41 90.5788 114.41C90.9088 112.76 91.2388 111.11 91.5788 109.41C91.9088 109.41 92.2388 109.41 92.5788 109.41C92.3288 112.785 92.3288 112.785 91.5788 116.41C87.4318 119.234 82.9693 118.741 78.1413 118.723C76.8719 118.747 76.8719 118.747 75.5769 118.771C70.7731 118.775 67.4523 118.582 63.5788 115.41C62.6413 113.41 62.6413 113.41 62.5788 111.41C63.2388 110.42 63.8988 109.43 64.5788 108.41C67.7038 108.223 67.7038 108.223 70.5788 108.41C70.5788 105.44 70.5788 102.47 70.5788 99.4102C68.1038 98.4202 68.1038 98.4202 65.5788 97.4102C65.5298 98.0366 65.4808 98.6631 65.4304 99.3086C65.3556 100.126 65.2808 100.943 65.2038 101.785C65.0994 103.003 65.0994 103.003 64.9929 104.246C64.5788 106.41 64.5788 106.41 62.5788 108.41C60.2282 103.709 61.6588 97.388 62.5788 92.4102C64.3693 87.7323 66.9632 83.6902 69.5788 79.4102C75.1888 79.4102 80.7988 79.4102 86.5788 79.4102C86.5788 75.4502 86.5788 71.4902 86.5788 67.4102Z" fill="#221D19"/>
<path d="M78.0786 117.723C78.9204 117.695 79.7621 117.667 80.6294 117.639C86.5546 117.662 86.5546 117.662 89.2988 119.667C90.6958 121.227 90.6958 121.227 92.5786 124.41C92.2036 128.035 92.2036 128.035 91.5786 131.41C93.0185 133.58 93.0185 133.58 94.5786 135.41C94.3286 137.41 94.3286 137.41 93.5786 139.41C92.1661 143.262 93.1235 145.644 94.5786 149.41C83.4114 152.353 71.9468 152.006 60.5786 150.41C61.688 146.923 62.842 143.635 64.5786 140.41C63.2586 139.75 61.9386 139.09 60.5786 138.41C61.2241 134.925 62.68 132.382 64.5786 129.41C63.9186 128.75 63.2586 128.09 62.5786 127.41C62.6796 124.481 63.7669 123.162 65.5435 120.816C69.7317 117.496 72.8807 117.631 78.0786 117.723Z" fill="#EEE7D6"/>
<path d="M132.579 26.4101C132.323 28.7532 131.986 31.0885 131.579 33.4101C130.919 33.7401 130.259 34.0701 129.579 34.4101C128.929 36.1882 128.929 36.1882 128.5 38.3476C128.218 39.5604 128.218 39.5604 127.931 40.7978C127.732 41.6598 127.533 42.5219 127.329 43.4101C125.525 50.6908 123.685 56.7235 118.579 62.4101C117.962 63.0972 117.346 63.7842 116.711 64.4921C115.055 66.2343 113.454 67.9066 111.579 69.4101C110.919 69.4101 110.259 69.4101 109.579 69.4101C109.084 62.9751 109.084 62.9751 108.579 56.4101C107.589 56.7401 106.599 57.0701 105.579 57.4101C105.31 56.8068 105.042 56.2035 104.766 55.582C101.755 49.4412 99.0395 46.648 92.5786 44.4101C91.4649 44.0801 90.3511 43.7501 89.2036 43.4101C86.5786 42.4101 86.5786 42.4101 85.3911 40.3476C85.123 39.7082 84.8549 39.0688 84.5786 38.4101C83.5886 38.0801 82.5986 37.7501 81.5786 37.4101C81.9086 39.3901 82.2386 41.3701 82.5786 43.4101C81.2586 43.0801 79.9386 42.7501 78.5786 42.4101C78.5362 40.0771 78.5377 37.7431 78.5786 35.4101C78.9086 35.0801 79.2386 34.7501 79.5786 34.4101C82.8911 34.5351 82.8911 34.5351 86.5786 35.4101C87.2386 36.2763 87.8986 37.1426 88.5786 38.0351C89.2386 38.8188 89.8986 39.6026 90.5786 40.4101C97.0773 40.3077 102.246 37.4135 107.954 34.5351C125.562 25.731 125.562 25.731 132.579 26.4101Z" fill="#18150F"/>
<path d="M60.7036 67.3477C61.4577 67.3522 62.2118 67.3567 62.9888 67.3614C64.8521 67.3732 66.7154 67.3911 68.5786 67.4102C70.2138 77.593 69.5711 83.8992 63.5786 92.4102C62.3663 91.7605 62.3663 91.7605 61.1294 91.0977C60.0608 90.5408 58.9921 89.9839 57.8911 89.4102C56.8354 88.8533 55.7796 88.2964 54.6919 87.7227C51.6193 86.4273 49.8417 86.2603 46.5786 86.4102C44.8911 85.0352 44.8911 85.0352 43.5786 83.4102C42.9186 82.7502 42.2586 82.0902 41.5786 81.4102C42.5067 80.5646 43.4349 79.7189 44.3911 78.8477C47.6359 75.6411 48.9279 72.6195 50.5786 68.4102C53.7669 66.8161 57.2076 67.3084 60.7036 67.3477Z" fill="#EC8534"/>
<path d="M26.5786 32.4102C29.1599 34.9868 31.735 37.5685 34.2974 40.1641C35.2152 41.0909 36.133 42.0177 37.0786 42.9727C37.9964 43.9021 38.9142 44.8315 39.8599 45.7891C42.4517 48.4712 42.4517 48.4712 45.4653 50.2031C47.5786 52.4102 47.5786 52.4102 47.7822 54.3127C47.6214 56.6354 47.296 58.8676 46.8911 61.1602C46.7732 61.9529 46.6552 62.7457 46.5337 63.5625C46.2396 65.5155 45.9123 67.4635 45.5786 69.4102C33.7915 61.7814 29.8706 51.6644 26.9106 38.4531C26.5786 36.4102 26.5786 36.4102 26.5786 32.4102Z" fill="#F3E3C8"/>
<path d="M127.579 33.4102C129.939 39.4102 126.619 47.5523 124.579 53.4102C121.594 59.5691 116.925 65.1246 111.579 69.4102C110.919 69.4102 110.259 69.4102 109.579 69.4102C106.937 57.9033 106.937 57.9033 107.579 52.4102C109.606 49.4738 111.59 48.1818 114.618 46.3242C118.087 44.0818 120.511 41.5044 123.204 38.4102C124.46 36.987 124.46 36.987 125.743 35.5352C126.349 34.8339 126.954 34.1327 127.579 33.4102Z" fill="#F0E1C3"/>
<path d="M128.578 32.4102C129.568 32.7402 130.558 33.0702 131.578 33.4102C130.894 48.8846 124.946 60.4181 114.059 71.2305C112.578 72.4102 112.578 72.4102 110.578 72.4102C111.302 73.2242 111.302 73.2242 112.039 74.0547C112.671 74.7701 113.303 75.4855 113.953 76.2227C114.58 76.9304 115.206 77.638 115.852 78.3672C117.578 80.4102 117.578 80.4102 119.578 83.4102C117.598 84.0702 115.618 84.7302 113.578 85.4102C114.342 86.1733 115.105 86.9364 115.891 87.7227C117.787 89.6185 119.683 91.5143 121.578 93.4102C120.333 94.2294 119.082 95.0403 117.828 95.8477C117.132 96.3001 116.436 96.7526 115.719 97.2188C113.608 98.3935 111.978 99.1329 109.578 99.4102C108.918 98.7502 108.258 98.0902 107.578 97.4102C110.218 96.0902 112.858 94.7702 115.578 93.4102C114.795 92.647 114.011 91.8839 113.203 91.0977C110.578 88.4102 110.578 88.4102 108.578 85.4102C110.228 84.0902 111.878 82.7702 113.578 81.4102C113.157 80.9512 112.735 80.4923 112.301 80.0195C111.753 79.4059 111.205 78.7923 110.641 78.1602C110.096 77.5569 109.55 76.9536 108.989 76.332C106.002 72.2622 106.47 68.0777 106.516 63.1602C106.525 61.8969 106.534 60.6336 106.543 59.332C106.555 58.3678 106.567 57.4036 106.578 56.4102C107.238 56.4102 107.898 56.4102 108.578 56.4102C109.583 59.4251 109.682 61.452 109.641 64.5977C109.632 65.4987 109.623 66.3998 109.614 67.3281C109.602 68.0152 109.59 68.7023 109.578 69.4102C122.627 59.1104 125.358 48.2106 128.578 32.4102Z" fill="#13120E"/>
<path d="M71.5786 82.4102C75.8686 82.4102 80.1586 82.4102 84.5786 82.4102C89.5786 92.1602 89.5786 92.1602 89.5786 94.4102C87.1128 96.9892 85.6315 97.4042 82.0474 97.8086C80.0828 97.797 80.0828 97.797 78.0786 97.7852C76.7689 97.7929 75.4592 97.8006 74.1099 97.8086C70.5216 97.4037 69.1327 96.8731 66.5786 94.4102C67.155 89.6553 69.1293 86.4397 71.5786 82.4102Z" fill="#EA7E28"/>
<path d="M108.579 85.4102C111.459 87.5392 114.041 89.8857 116.579 92.4102C114.396 94.7781 112.229 96.329 109.418 97.8907C108.625 98.3322 107.832 98.7737 107.014 99.2286C106.19 99.6804 105.365 100.132 104.516 100.598C103.688 101.061 102.86 101.525 102.006 102.002C95.8375 105.41 95.8374 105.41 93.5786 105.41C93.2486 100.79 92.9186 96.1702 92.5786 91.4102C103.877 84.0815 103.877 84.0815 108.579 85.4102Z" fill="#F3E7C5"/>
<path d="M54.5786 86.4102C57.406 87.9053 59.9305 89.5983 62.5786 91.4102C62.2486 96.0302 61.9186 100.65 61.5786 105.41C54.0171 101.725 46.6118 98.0521 39.5786 93.4102C40.5328 92.2609 41.4921 91.1158 42.4536 89.9727C42.9873 89.3346 43.521 88.6965 44.0708 88.0391C47.3562 84.4898 50.0875 85.396 54.5786 86.4102Z" fill="#F3E7C8"/>
<path d="M92.5786 93.4102C92.9086 93.4102 93.2386 93.4102 93.5786 93.4102C93.5786 97.3702 93.5786 101.33 93.5786 105.41C97.5386 103.43 101.499 101.45 105.579 99.4102C107.173 102.598 106.68 106.039 106.641 109.535C106.637 110.289 106.632 111.043 106.627 111.82C106.616 113.684 106.598 115.547 106.579 117.41C106.249 117.41 105.919 117.41 105.579 117.41C105.249 112.79 104.919 108.17 104.579 103.41C102.99 104.38 101.402 105.349 99.7661 106.348C97.0015 108.035 94.6575 109.384 91.5786 110.41C90.8454 112.425 90.8454 112.425 90.5786 114.41C87.8457 115.178 85.4108 115.538 82.5747 115.543C81.8341 115.544 81.0936 115.546 80.3306 115.547C79.1849 115.541 79.1849 115.541 78.0161 115.535C77.2485 115.539 76.4808 115.543 75.6899 115.547C72.3993 115.541 69.721 115.458 66.5786 114.41C66.2486 113.09 65.9186 111.77 65.5786 110.41C73.4986 110.08 81.4186 109.75 89.5786 109.41C87.1036 108.915 87.1036 108.915 84.5786 108.41C84.0501 103.125 84.0501 103.125 84.5786 100.41C87.5786 97.9102 87.5786 97.9102 90.5786 96.4102C90.9086 99.7102 91.2386 103.01 91.5786 106.41C91.9086 106.41 92.2386 106.41 92.5786 106.41C92.5786 102.12 92.5786 97.8302 92.5786 93.4102Z" fill="#2F2318"/>
<path d="M105.579 61.4102C105.909 61.4102 106.239 61.4102 106.579 61.4102C106.653 62.2558 106.728 63.1014 106.805 63.9727C107.702 71.707 109.139 76.7478 114.579 82.4102C111.54 84.5666 108.944 85.6267 105.329 86.2852C100.144 87.296 96.0339 89.6506 91.5786 92.4102C90.743 90.5987 89.9102 88.786 89.0786 86.9727C88.6146 85.9633 88.1505 84.954 87.6724 83.9141C86.5786 81.4102 86.5786 81.4102 86.5786 80.4102C91.8586 80.0802 97.1386 79.7502 102.579 79.4102C102.702 77.5539 102.826 75.6977 102.954 73.7852C103.313 69.3764 103.862 65.5289 105.579 61.4102Z" fill="#EF8B3A"/>
<path d="M86.5786 67.4102C91.8586 67.4102 97.1386 67.4102 102.579 67.4102C102.579 71.7002 102.579 75.9902 102.579 80.4102C91.6886 80.4102 80.7986 80.4102 69.5786 80.4102C69.5786 80.0802 69.5786 79.7502 69.5786 79.4102C75.1886 79.4102 80.7986 79.4102 86.5786 79.4102C86.5786 75.4502 86.5786 71.4902 86.5786 67.4102Z" fill="#261E18"/>
<path d="M126.579 31.4102C124.542 33.6437 122.499 35.872 120.454 38.0977C119.884 38.7235 119.314 39.3493 118.727 39.9941C115.221 43.7993 111.63 47.1899 107.579 50.4102C103.298 48.8247 101.371 45.8654 98.5786 42.4102C123.303 29.7721 123.303 29.7721 126.579 31.4102Z" fill="#E57A25"/>
<path d="M52.5786 67.4102C57.8586 67.4102 63.1386 67.4102 68.5786 67.4102C68.9086 71.3702 69.2386 75.3302 69.5786 79.4102C63.9686 79.4102 58.3586 79.4102 52.5786 79.4102C52.5786 75.4502 52.5786 71.4902 52.5786 67.4102Z" fill="#1E1914"/>
<path d="M29.5786 30.4102C39.4025 33.6499 48.4289 37.585 57.5786 42.4102C56.7949 43.1733 56.0111 43.9364 55.2036 44.7227C52.506 47.3191 52.506 47.3191 50.5786 50.4102C42.7042 46.9889 35.0664 38.97 29.5786 32.4102C29.5786 31.7502 29.5786 31.0902 29.5786 30.4102Z" fill="#E97F26"/>
<path d="M83.1062 79.9883C84.2521 80.1275 85.3981 80.2667 86.5788 80.4102C92.0077 89.2322 93.4018 96.1077 92.5788 106.41C93.2388 106.74 93.8988 107.07 94.5788 107.41C93.5888 107.74 92.5988 108.07 91.5788 108.41C90.4486 106.15 90.3095 104.481 90.0788 101.973C89.8226 99.1953 89.47 97.0835 88.5788 94.4102C87.2455 90.4102 85.9122 86.4102 84.5788 82.4102C80.0448 82.1209 75.9764 82.1985 71.5788 83.4102C66.6112 88.2164 65.3458 94.2839 64.8288 100.973C64.8134 101.964 64.7979 102.955 64.7819 103.977C64.5788 106.41 64.5788 106.41 62.5788 108.41C59.7629 102.778 61.9584 94.5722 63.6101 88.8164C67.9374 79.1491 73.5204 79.1635 83.1062 79.9883Z" fill="#080706"/>
<path d="M61.5786 94.4102C61.9086 94.4102 62.2386 94.4102 62.5786 94.4102C62.5786 98.7002 62.5786 102.99 62.5786 107.41C64.242 105.747 63.9391 103.628 64.1411 101.348C64.2249 100.429 64.3087 99.5095 64.395 98.5625C64.4556 97.8522 64.5162 97.142 64.5786 96.4102C67.5486 97.8952 67.5486 97.8952 70.5786 99.4102C70.5786 102.38 70.5786 105.35 70.5786 108.41C68.5986 108.74 66.6186 109.07 64.5786 109.41C64.5786 110.07 64.5786 110.73 64.5786 111.41C63.9186 111.41 63.2586 111.41 62.5786 111.41C62.063 110.853 61.5474 110.296 61.0161 109.723C57.5814 106.464 53.7602 104.624 49.5786 102.41C49.5786 107.69 49.5786 112.97 49.5786 118.41C49.2486 118.41 48.9186 118.41 48.5786 118.41C48.5786 112.8 48.5786 107.19 48.5786 101.41C49.2386 101.41 49.8986 101.41 50.5786 101.41C50.9086 100.75 51.2386 100.09 51.5786 99.4102C54.5486 101.06 57.5186 102.71 60.5786 104.41C60.9086 101.11 61.2386 97.8102 61.5786 94.4102Z" fill="#31261C"/>
<path d="M131.579 27.4102C131.579 29.3902 131.579 31.3702 131.579 33.4102C131.028 33.4579 130.478 33.5055 129.911 33.5547C126.477 34.8144 124.588 37.3929 122.266 40.0977C118.286 44.5864 114.36 48.7476 109.579 52.4102C108.919 52.4102 108.259 52.4102 107.579 52.4102C107.909 53.7302 108.239 55.0502 108.579 56.4102C107.589 56.7402 106.599 57.0702 105.579 57.4102C103.929 54.1102 102.279 50.8102 100.579 47.4102C101.899 47.7402 103.219 48.0702 104.579 48.4102C109.556 48.4102 111.138 46.5409 114.516 43.2852C115.285 42.5736 115.285 42.5736 116.069 41.8477C118.65 39.4207 121.036 36.9299 123.286 34.1914C128.876 27.4102 128.876 27.4102 131.579 27.4102Z" fill="#100D0B"/>
<path d="M23.5787 26.4102C28.8562 26.9487 32.8352 28.1836 37.5787 30.4102C37.5787 31.0702 37.5787 31.7302 37.5787 32.4102C35.2687 32.0802 32.9587 31.7502 30.5787 31.4102C30.9655 31.8575 31.3522 32.3048 31.7506 32.7656C34.7626 36.2623 37.722 39.7842 40.5787 43.4102C36.5787 43.4102 36.5787 43.4102 34.4733 41.7305C33.4427 40.6438 33.4427 40.6438 32.3912 39.5352C31.6964 38.8159 31.0016 38.0966 30.2858 37.3555C28.5787 35.4102 28.5787 35.4102 27.5787 33.4102C27.62 34.5239 27.6612 35.6377 27.7037 36.7852C27.5787 40.4102 27.5787 40.4102 25.5787 42.4102C23.9871 36.8395 23.372 32.1991 23.5787 26.4102Z" fill="#0E0C09"/>
<path d="M65.5786 110.41C73.4986 110.41 81.4186 110.41 89.5786 110.41C89.2486 111.73 88.9186 113.05 88.5786 114.41C85.3125 116.043 81.726 115.553 78.1411 115.535C77.3645 115.539 76.5878 115.543 75.7876 115.547C72.4678 115.541 69.7487 115.467 66.5786 114.41C66.2486 113.09 65.9186 111.77 65.5786 110.41Z" fill="#D6B48C"/>
<path d="M26.5786 40.4102C27.2386 40.4102 27.8986 40.4102 28.5786 40.4102C28.7256 41.1604 28.8725 41.9106 29.0239 42.6836C31.4471 53.7411 35.5151 61.5219 44.5786 68.4102C44.9086 66.7602 45.2386 65.1102 45.5786 63.4102C45.9086 63.4102 46.2386 63.4102 46.5786 63.4102C46.7661 66.7852 46.7661 66.7852 46.5786 70.4102C45.5886 71.0702 44.5986 71.7302 43.5786 72.4102C34.3886 63.9444 26.7637 55.502 25.5786 42.4102C25.9086 41.7502 26.2386 41.0902 26.5786 40.4102Z" fill="#191A17"/>
<path d="M65.5786 92.4102C65.9086 93.0702 66.2386 93.7302 66.5786 94.4102C70.2121 96.9455 73.8274 96.677 78.1411 96.6602C78.8134 96.6679 79.4856 96.6756 80.1782 96.6836C83.8628 96.669 85.4348 96.5061 88.5786 94.4102C88.5786 95.7302 88.5786 97.0502 88.5786 98.4102C87.5886 99.0702 86.5986 99.7302 85.5786 100.41C84.3741 102.962 84.3741 102.962 83.5786 105.41C83.2486 104.42 82.9186 103.43 82.5786 102.41C82.9086 101.75 83.2386 101.09 83.5786 100.41C80.2786 100.41 76.9786 100.41 73.5786 100.41C73.5786 103.05 73.5786 105.69 73.5786 108.41C72.9186 108.08 72.2586 107.75 71.5786 107.41C71.4549 105.77 71.4549 105.77 71.3286 104.098C70.9393 100.161 70.9393 100.161 67.5161 97.9727C66.5467 97.457 65.5774 96.9414 64.5786 96.4102C64.9086 95.0902 65.2386 93.7702 65.5786 92.4102Z" fill="#110F0D"/>
<path d="M114.579 35.4102C114.05 39.2168 113.271 41.6213 110.579 44.4102C107.759 45.9681 106.112 46.4474 102.891 46.2227C100.579 45.4102 100.579 45.4102 98.5786 42.4102C100.679 41.2357 102.783 40.0705 104.891 38.9102C105.486 38.5763 106.081 38.2424 106.694 37.8984C109.537 36.3419 111.285 35.4102 114.579 35.4102Z" fill="#EF832E"/>
<path d="M128.579 32.4102C129.569 32.7402 130.559 33.0702 131.579 33.4102C131.161 42.8399 129.513 53.4761 122.579 60.4102C121.589 60.0802 120.599 59.7502 119.579 59.4102C120.182 58.6445 120.785 57.8788 121.407 57.0898C124.367 52.6494 125.219 47.6853 126.329 42.5352C126.549 41.5606 126.769 40.5861 126.997 39.582C127.535 37.1937 128.062 34.8034 128.579 32.4102Z" fill="#181B16"/>
<path d="M44.5786 97.4102C46.2286 97.7402 47.8786 98.0702 49.5786 98.4102C49.9086 99.4002 50.2386 100.39 50.5786 101.41C49.9186 101.41 49.2586 101.41 48.5786 101.41C48.5786 107.02 48.5786 112.63 48.5786 118.41C41.5786 122.41 41.5786 122.41 38.5786 122.41C39.5786 119.41 39.5786 119.41 42.6411 117.723C43.6105 117.29 44.5799 116.856 45.5786 116.41C45.6056 113.806 45.6254 111.202 45.6411 108.598C45.6495 107.86 45.6579 107.122 45.6665 106.361C45.6812 103.111 45.6139 100.516 44.5786 97.4102Z" fill="#0C0A0B"/>
<path d="M61.5786 35.4102C63.4737 35.3285 65.3699 35.2707 67.2661 35.2227C68.3219 35.1879 69.3776 35.153 70.4653 35.1172C73.9328 35.4435 75.7629 36.4199 78.5786 38.4102C78.2486 39.4002 77.9186 40.3902 77.5786 41.4102C76.6505 40.9152 75.7224 40.4202 74.7661 39.9102C71.7133 38.1973 71.7133 38.1973 68.5786 38.4102C69.2386 39.0702 69.8986 39.7302 70.5786 40.4102C70.5786 41.4002 70.5786 42.3902 70.5786 43.4102C67.2786 43.4102 63.9786 43.4102 60.5786 43.4102C60.5786 42.7502 60.5786 42.0902 60.5786 41.4102C62.5586 41.4102 64.5386 41.4102 66.5786 41.4102C66.5786 40.7502 66.5786 40.0902 66.5786 39.4102C64.1036 38.4202 64.1036 38.4202 61.5786 37.4102C61.5786 36.7502 61.5786 36.0902 61.5786 35.4102Z" fill="#0A090B"/>
<path d="M74.5786 100.41C77.5486 100.41 80.5186 100.41 83.5786 100.41C83.9086 103.05 84.2386 105.69 84.5786 108.41C81.2786 108.41 77.9786 108.41 74.5786 108.41C74.5786 105.77 74.5786 103.13 74.5786 100.41Z" fill="#201D1A"/>
<path d="M64.5786 96.4102C66.5586 97.4002 68.5386 98.3902 70.5786 99.4102C70.5786 102.38 70.5786 105.35 70.5786 108.41C68.5986 108.41 66.6186 108.41 64.5786 108.41C64.5786 104.45 64.5786 100.49 64.5786 96.4102Z" fill="#EBE5D6"/>
<path d="M90.5785 96.4102C90.5785 100.37 90.5785 104.33 90.5785 108.41C88.5985 108.41 86.6185 108.41 84.5785 108.41C84.1399 103.146 84.1399 103.146 84.5785 100.41C88.4785 96.4102 88.4785 96.4102 90.5785 96.4102Z" fill="#E7DDCE"/>
<path d="M48.5786 54.4102C49.2386 54.7402 49.8986 55.0702 50.5786 55.4102C50.2486 56.4002 49.9186 57.3902 49.5786 58.4102C49.5416 60.4121 49.5067 62.4141 49.4905 64.4163C49.333 74.2686 49.333 74.2686 46.9575 77.8633C45.0161 79.4727 45.0161 79.4727 41.5786 81.4102C41.897 80.8043 42.2154 80.1984 42.5435 79.5742C43.6818 77.1944 44.1024 74.9951 44.5786 72.4102C44.9086 71.7502 45.2386 71.0902 45.5786 70.4102C45.8548 67.6876 46.0246 64.9652 46.1997 62.2344C46.5877 59.3426 47.3858 57.0613 48.5786 54.4102Z" fill="#0C0B0A"/>
<path d="M113.579 89.4102C117.355 89.9205 119.026 90.6178 121.579 93.4102C120.333 94.2294 119.082 95.0403 117.829 95.8477C117.133 96.3001 116.436 96.7526 115.719 97.2188C113.609 98.3935 111.978 99.1329 109.579 99.4102C108.919 98.7502 108.259 98.0902 107.579 97.4102C110.219 96.0902 112.859 94.7702 115.579 93.4102C114.919 92.0902 114.259 90.7702 113.579 89.4102Z" fill="#0F110E"/>
<path d="M71.5786 82.4102C75.8686 82.4102 80.1586 82.4102 84.5786 82.4102C84.5786 82.7402 84.5786 83.0702 84.5786 83.4102C81.2786 83.4102 77.9786 83.4102 74.5786 83.4102C73.9186 84.7302 73.2586 86.0502 72.5786 87.4102C72.0011 88.0289 71.4236 88.6477 70.8286 89.2852C69.1959 91.4928 69.1959 91.4928 70.3911 94.6602C70.783 95.5677 71.1749 96.4752 71.5786 97.4102C69.9286 96.4202 68.2786 95.4302 66.5786 94.4102C67.155 89.6553 69.1293 86.4397 71.5786 82.4102Z" fill="#DA7425"/>
<path d="M52.5786 68.4102C55.5486 68.4102 58.5186 68.4102 61.5786 68.4102C61.5786 68.7402 61.5786 69.0702 61.5786 69.4102C59.2686 69.4102 56.9586 69.4102 54.5786 69.4102C54.5786 72.0502 54.5786 74.6902 54.5786 77.4102C56.8886 77.4102 59.1986 77.4102 61.5786 77.4102C61.5786 75.7602 61.5786 74.1102 61.5786 72.4102C62.2386 73.0702 62.8986 73.7302 63.5786 74.4102C63.3286 76.4727 63.3286 76.4727 62.5786 78.4102C59.3641 80.0174 56.1425 79.4676 52.5786 79.4102C52.5786 75.7802 52.5786 72.1502 52.5786 68.4102Z" fill="#050504"/>
<path d="M41.5786 136.41C43.5586 136.41 45.5386 136.41 47.5786 136.41C47.5786 139.38 47.5786 142.35 47.5786 145.41C45.5986 144.75 43.6186 144.09 41.5786 143.41C41.5786 141.1 41.5786 138.79 41.5786 136.41Z" fill="#E9842F"/>
<path d="M36.5789 118.41C38.0639 119.4 38.0639 119.4 39.5789 120.41C39.8276 122.473 39.8276 122.473 39.6531 124.98C39.5983 125.876 39.5435 126.772 39.4871 127.695C39.4142 128.632 39.3414 129.57 39.2664 130.535C39.2051 131.48 39.1439 132.425 39.0808 133.398C38.9273 135.737 38.7594 138.074 38.5789 140.41C37.9189 140.41 37.2589 140.41 36.5789 140.41C36.383 136.931 36.1985 133.452 36.0164 129.973C35.9603 128.979 35.9042 127.986 35.8464 126.963C35.7981 126.019 35.7498 125.074 35.7 124.102C35.6528 123.227 35.6057 122.352 35.5571 121.451C35.5789 119.41 35.5789 119.41 36.5789 118.41Z" fill="#6A9E45"/>
<path d="M54.5786 70.4102C56.5586 70.4102 58.5386 70.4102 60.5786 70.4102C60.5786 72.7202 60.5786 75.0302 60.5786 77.4102C58.5986 77.4102 56.6186 77.4102 54.5786 77.4102C54.5786 75.1002 54.5786 72.7902 54.5786 70.4102Z" fill="#E3E5E5"/>
<path d="M96.5786 68.4102C98.5586 68.4102 100.539 68.4102 102.579 68.4102C102.579 72.0402 102.579 75.6702 102.579 79.4102C98.9486 79.4102 95.3186 79.4102 91.5786 79.4102C95.0138 77.12 96.5639 77.2317 100.579 77.4102C100.579 74.7702 100.579 72.1302 100.579 69.4102C99.2586 69.0802 97.9386 68.7502 96.5786 68.4102Z" fill="#050302"/>
<path d="M35.5786 61.4102C36.8918 62.3883 38.2042 63.3677 39.5161 64.3477C40.247 64.8929 40.9779 65.4382 41.731 66C43.5786 67.4102 43.5786 67.4102 44.5786 68.4102C44.9086 66.7602 45.2386 65.1102 45.5786 63.4102C45.9086 63.4102 46.2386 63.4102 46.5786 63.4102C46.7661 66.7852 46.7661 66.7852 46.5786 70.4102C45.5886 71.0702 44.5986 71.7302 43.5786 72.4102C40.6086 69.4402 37.6386 66.4702 34.5786 63.4102C34.9086 62.7502 35.2386 62.0902 35.5786 61.4102Z" fill="#23221F"/>
<path d="M107.579 136.41C109.559 136.41 111.539 136.41 113.579 136.41C113.579 138.06 113.579 139.71 113.579 141.41C111.599 142.4 109.619 143.39 107.579 144.41C107.579 141.77 107.579 139.13 107.579 136.41Z" fill="#ED8027"/>
<path d="M91.5786 109.41C91.9086 109.41 92.2386 109.41 92.5786 109.41C92.323 111.753 91.9859 114.089 91.5786 116.41C88.6945 117.852 86.1614 117.504 82.9536 117.473C81.7651 117.464 80.5766 117.455 79.3521 117.445C78.4368 117.434 77.5216 117.422 76.5786 117.41C79.8635 115.22 81.4096 115.057 85.2661 114.785C86.26 114.71 87.2538 114.636 88.2778 114.559C89.0371 114.51 89.7963 114.461 90.5786 114.41C90.9086 112.76 91.2386 111.11 91.5786 109.41Z" fill="#0D0A09"/>
<path d="M26.5786 32.4102C30.498 36.2143 34.0696 40.2259 37.5786 44.4102C36.5886 44.4102 35.5986 44.4102 34.5786 44.4102C33.5786 43.4102 32.5786 42.4102 31.5786 41.4102C29.4753 40.6957 29.4753 40.6957 27.5786 40.4102C27.2486 37.7702 26.9186 35.1302 26.5786 32.4102Z" fill="#DACFBC"/>
<path d="M94.5786 70.4102C96.2286 70.4102 97.8786 70.4102 99.5786 70.4102C99.5786 72.7202 99.5786 75.0302 99.5786 77.4102C97.9286 77.4102 96.2786 77.4102 94.5786 77.4102C94.5786 75.1002 94.5786 72.7902 94.5786 70.4102Z" fill="#F8F7F6"/>
<path d="M43.5786 75.4102C44.2386 75.7402 44.8986 76.0702 45.5786 76.4102C44.8671 77.0598 44.8671 77.0598 44.1411 77.7227C42.3417 79.4333 42.3417 79.4333 41.5786 82.4102C42.8986 83.0702 44.2186 83.7302 45.5786 84.4102C42.7661 85.0977 42.7661 85.0977 39.5786 85.4102C38.5886 84.4202 37.5986 83.4302 36.5786 82.4102C38.8886 80.1002 41.1986 77.7902 43.5786 75.4102Z" fill="#1F2215"/>
<path d="M114.579 82.4102C114.909 83.4002 115.239 84.3902 115.579 85.4102C114.919 85.4102 114.259 85.4102 113.579 85.4102C114.569 86.7302 115.559 88.0502 116.579 89.4102C115.259 89.7402 113.939 90.0702 112.579 90.4102C111.259 88.7602 109.939 87.1102 108.579 85.4102C112.329 82.4102 112.329 82.4102 114.579 82.4102Z" fill="#1D1B13"/>
<path d="M85.5786 35.4102C86.3211 36.1939 87.0636 36.9777 87.8286 37.7852C90.1229 39.9752 91.7002 41.2375 94.5786 42.4102C93.5786 43.4102 93.5786 43.4102 90.5161 43.4727C89.5467 43.452 88.5774 43.4314 87.5786 43.4102C86.5109 41.4455 85.5131 39.4416 84.5786 37.4102C84.9086 36.7502 85.2386 36.0902 85.5786 35.4102Z" fill="#0E0C0A"/>
<path d="M131.579 27.4102C131.579 29.3902 131.579 31.3702 131.579 33.4102C131.001 33.5339 130.424 33.6577 129.829 33.7852C127.555 34.4166 125.653 35.2987 123.579 36.4102C123.753 34.0529 124.278 32.7131 125.946 31.0312C130.258 27.4102 130.258 27.4102 131.579 27.4102Z" fill="#040404"/>
<path d="M105.579 61.4102C105.909 61.4102 106.239 61.4102 106.579 61.4102C106.579 65.0402 106.579 68.6702 106.579 72.4102C105.919 72.4102 105.259 72.4102 104.579 72.4102C104.579 74.7202 104.579 77.0302 104.579 79.4102C104.249 79.4102 103.919 79.4102 103.579 79.4102C103.21 66.7405 103.21 66.7405 105.579 61.4102Z" fill="#FA9137"/>
<path d="M57.5786 39.4102C60.5486 39.4102 63.5186 39.4102 66.5786 39.4102C66.5786 40.0702 66.5786 40.7302 66.5786 41.4102C64.5986 41.4102 62.6186 41.4102 60.5786 41.4102C60.9086 42.4002 61.2386 43.3902 61.5786 44.4102C59.5986 45.4002 59.5986 45.4002 57.5786 46.4102C57.5786 45.7502 57.5786 45.0902 57.5786 44.4102C56.9186 44.0802 56.2586 43.7502 55.5786 43.4102C56.2386 42.0902 56.8986 40.7702 57.5786 39.4102Z" fill="#252218"/>
<path d="M106.579 136.41C106.909 136.41 107.239 136.41 107.579 136.41C107.909 138.72 108.239 141.03 108.579 143.41C109.239 143.41 109.899 143.41 110.579 143.41C110.579 144.07 110.579 144.73 110.579 145.41C108.599 146.07 106.619 146.73 104.579 147.41C104.329 139.785 104.329 139.785 106.579 136.41Z" fill="#2C1C10"/>
<path d="M48.5786 58.4102C49.2386 58.4102 49.8986 58.4102 50.5786 58.4102C50.8279 60.0113 51.0524 61.6164 51.2661 63.2227C51.4575 64.5626 51.4575 64.5626 51.6528 65.9297C51.5786 68.4102 51.5786 68.4102 48.5786 71.4102C48.5786 67.1202 48.5786 62.8302 48.5786 58.4102Z" fill="#D7752A"/>
<path d="M106.579 56.4102C107.239 56.4102 107.899 56.4102 108.579 56.4102C108.909 58.7202 109.239 61.0302 109.579 63.4102C108.919 63.4102 108.259 63.4102 107.579 63.4102C107.579 65.7202 107.579 68.0302 107.579 70.4102C107.249 70.4102 106.919 70.4102 106.579 70.4102C106.579 65.7902 106.579 61.1702 106.579 56.4102Z" fill="#2B1D12"/>
<path d="M26.5786 31.4102C26.8004 32.8665 27.0056 34.3254 27.2036 35.7852C27.3196 36.5973 27.4356 37.4094 27.5552 38.2461C27.5629 38.9602 27.5706 39.6744 27.5786 40.4102C26.9186 41.0702 26.2586 41.7302 25.5786 42.4102C24.9186 39.1102 24.2586 35.8102 23.5786 32.4102C25.5786 31.4102 25.5786 31.4102 26.5786 31.4102Z" fill="#0E110E"/>
<path d="M45.5786 116.41C46.2386 117.4 46.8986 118.39 47.5786 119.41C41.9536 122.41 41.9536 122.41 38.5786 122.41C39.5786 119.41 39.5786 119.41 42.6411 117.723C43.6105 117.29 44.5799 116.856 45.5786 116.41Z" fill="#171511"/>
<path d="M85.5786 99.4102C86.8986 99.4102 88.2186 99.4102 89.5786 99.4102C89.0836 100.833 89.0836 100.833 88.5786 102.285C87.477 105.181 87.477 105.181 87.5786 107.41C86.5886 107.41 85.5986 107.41 84.5786 107.41C84.5362 105.077 84.5377 102.743 84.5786 100.41C84.9086 100.08 85.2386 99.7502 85.5786 99.4102Z" fill="#F5EDDD"/>
<path d="M57.5786 44.4102C56.1853 47.7774 54.5997 49.3961 51.5786 51.4102C51.5786 47.4102 51.5786 47.4102 52.8911 45.6602C54.5786 44.4102 54.5786 44.4102 57.5786 44.4102Z" fill="#110C08"/>
<path d="M107.578 63.4102C108.238 63.4102 108.898 63.4102 109.578 63.4102C109.723 64.5239 109.867 65.6377 110.016 66.7852C110.362 70.2316 110.362 70.2316 111.578 72.4102C110.918 73.0702 110.258 73.7302 109.578 74.4102C106.899 70.3912 107.422 68.1685 107.578 63.4102Z" fill="#030202"/>
<path d="M65.5786 92.4102C65.9086 93.0702 66.2386 93.7302 66.5786 94.4102C68.5953 95.5437 68.5953 95.5437 70.5786 96.4102C70.2486 97.4002 69.9186 98.3902 69.5786 99.4102C67.9286 98.4202 66.2786 97.4302 64.5786 96.4102C64.9086 95.0902 65.2386 93.7702 65.5786 92.4102Z" fill="#1D1813"/>
<path d="M48.5787 50.4102C49.8987 50.7402 51.2187 51.0702 52.5787 51.4102C51.5887 52.8952 51.5887 52.8952 50.5787 54.4102C49.9187 54.4102 49.2587 54.4102 48.5787 54.4102C48.2487 56.0602 47.9187 57.7102 47.5787 59.4102C46.5461 56.6219 46.5336 55.5424 47.5162 52.6602C47.8669 51.9177 48.2175 51.1752 48.5787 50.4102Z" fill="#1E1B17"/>
<path d="M44.5786 113.41C44.9086 114.73 45.2386 116.05 45.5786 117.41C42.4905 119.175 41.3455 119.41 37.5786 119.41C37.5786 118.75 37.5786 118.09 37.5786 117.41C39.2286 117.41 40.8786 117.41 42.5786 117.41C43.2386 116.09 43.8986 114.77 44.5786 113.41Z" fill="#9ECA73"/>
<path d="M82.5786 107.41C85.2186 107.74 87.8586 108.07 90.5786 108.41C90.2486 109.07 89.9186 109.73 89.5786 110.41C86.6086 110.41 83.6386 110.41 80.5786 110.41C81.2386 109.42 81.8986 108.43 82.5786 107.41Z" fill="#080808"/>
<path d="M112.579 62.4102C113.239 62.7402 113.899 63.0702 114.579 63.4102C114.329 65.2852 114.329 65.2852 113.579 67.4102C111.516 68.6602 111.516 68.6602 109.579 69.4102C110.191 66.4484 110.832 65.0296 112.579 62.4102Z" fill="#DCCFB3"/>
<path d="M62.1411 44.3477C63.3477 44.3786 63.3477 44.3786 64.5786 44.4102C62.9552 46.119 61.2854 47.7846 59.5786 49.4102C58.9186 49.4102 58.2586 49.4102 57.5786 49.4102C58.7028 44.4315 58.7028 44.4315 62.1411 44.3477Z" fill="#F28932"/>
<path d="M41.5786 84.4102C43.2286 84.4102 44.8786 84.4102 46.5786 84.4102C45.7661 86.3477 45.7661 86.3477 44.5786 88.4102C43.5886 88.7402 42.5986 89.0702 41.5786 89.4102C41.5786 87.7602 41.5786 86.1102 41.5786 84.4102Z" fill="#070706"/>
<path d="M44.5786 78.4102C44.9086 79.0702 45.2386 79.7302 45.5786 80.4102C45.2486 81.0702 44.9186 81.7302 44.5786 82.4102C45.8986 82.7402 47.2186 83.0702 48.5786 83.4102C47.5886 84.8952 47.5886 84.8952 46.5786 86.4102C44.9119 84.7435 43.2453 83.0768 41.5786 81.4102C42.5686 80.4202 43.5586 79.4302 44.5786 78.4102Z" fill="#D67F2F"/>
</svg>
