<svg width="152" height="153" viewBox="0 0 152 153" fill="none" xmlns="http://www.w3.org/2000/svg">
<path d="M121.675 15.4352C123.256 16.7886 124.819 18.1636 126.362 19.5602C127.132 20.2369 127.901 20.9137 128.694 21.611C142.124 34.1256 150.765 52.4477 151.683 70.7516C152.292 90.9427 147.642 110.284 133.55 125.373C131.84 127.121 130.114 128.854 128.362 130.56C127.76 131.162 127.158 131.764 126.538 132.384C125.956 132.966 125.956 132.966 125.362 133.56C124.372 133.23 123.382 132.9 122.362 132.56C122.362 133.88 122.362 135.2 122.362 136.56C120.041 138.304 117.874 139.71 115.362 141.123C114.714 141.509 114.066 141.895 113.397 142.293C108.865 144.927 104.309 146.832 99.3623 148.56C98.8673 146.085 98.8673 146.085 98.3623 143.56C97.3723 146.53 97.3723 146.53 96.3623 149.56C95.3723 149.23 94.3823 148.9 93.3623 148.56C93.0323 149.22 92.7023 149.88 92.3623 150.56C88.7063 152.205 85.5965 152.665 81.6436 152.615C80.8398 152.607 80.0361 152.599 79.208 152.591C78.5989 152.581 77.9899 152.571 77.3623 152.56C77.2747 148.539 77.2217 144.519 77.1748 140.498C77.1497 139.364 77.1245 138.23 77.0986 137.062C77.0345 129.733 77.3157 124.522 81.8975 118.564C86.1401 114.56 86.1401 114.56 88.3623 114.56C89.3623 117.623 89.3623 117.623 89.3623 121.56C87.446 123.586 85.443 125.11 83.1475 126.689C81.1 128.479 81.1 128.479 80.9209 131.384C81.4319 135.061 82.5953 137.554 84.3623 140.81C87.3623 146.393 87.3623 146.393 87.3623 148.56C88.0223 148.23 88.6823 147.9 89.3623 147.56C88.9176 146.608 88.4729 145.655 88.0147 144.673C87.4423 143.407 86.8708 142.14 86.2998 140.873C86.0053 140.247 85.7107 139.621 85.4072 138.976C83.6862 135.109 82.9115 132.605 84.3623 128.56C85.7998 126.748 85.7998 126.748 87.3623 125.56C88.0223 125.56 88.6823 125.56 89.3623 125.56C90.3523 130.015 90.3523 130.015 91.3623 134.56C91.6923 130.6 92.0223 126.64 92.3623 122.56C93.0223 122.56 93.6823 122.56 94.3623 122.56C95.0223 124.21 95.6823 125.86 96.3623 127.56C97.1794 125.789 97.1794 125.789 97.3623 123.56C95.9768 121.315 95.9768 121.315 93.9873 119.185C91.0615 115.666 89.4835 113.288 89.3623 108.56C91.0123 108.23 92.6623 107.9 94.3623 107.56C94.6511 108.53 94.9398 109.499 95.2373 110.498C96.0045 113.667 96.0045 113.667 98.3623 114.56C97.3723 110.6 97.3723 110.6 96.3623 106.56C97.984 105.555 99.6098 104.556 101.237 103.56C102.142 103.003 103.047 102.446 103.98 101.873C106.362 100.56 106.362 100.56 108.362 100.56C108.785 106.692 108.396 109.63 104.362 114.56C103.62 115.282 102.877 116.004 102.112 116.748C100.015 118.5 100.015 118.5 100.362 121.56C100.692 120.9 101.022 120.24 101.362 119.56C103.342 120.55 103.342 120.55 105.362 121.56C105.63 120.55 105.899 119.539 106.175 118.498C106.913 115.843 107.753 113.763 108.987 111.248C110.317 107.681 110.412 106.209 110.175 102.56C110.027 98.0682 110.027 98.0682 111.511 95.8219C112.57 94.7389 113.634 93.661 114.702 92.5875C124.216 80.9697 124.65 61.8493 123.362 47.5602C122.498 43.2834 121.199 39.5106 119.362 35.5602C118.988 34.7532 118.615 33.9463 118.23 33.1149C113.083 23.0606 105.266 14.7898 94.4629 10.8712C80.045 6.32499 67.1869 6.36631 53.2373 12.6852C43.8469 17.7427 36.9418 24.9719 32.3623 34.5602C31.9498 35.3826 31.5373 36.205 31.1123 37.0524C25.21 51.1933 26.731 70.5505 32.3623 84.5602C34.5707 88.977 36.8577 93.0556 40.3623 96.5602C40.7764 99.3805 40.7764 99.3805 40.9873 102.685C41.0621 103.781 41.1368 104.877 41.2139 106.005C41.2629 106.849 41.3118 107.692 41.3623 108.56C41.6923 105.59 42.0223 102.62 42.3623 99.5602C45.2574 101.008 47.8936 102.463 50.6123 104.185C51.6719 104.854 51.6719 104.854 52.7529 105.537C53.5496 106.043 53.5496 106.043 54.3623 106.56C54.0323 109.2 53.7023 111.84 53.3623 114.56C54.0223 114.56 54.6823 114.56 55.3623 114.56C56.0223 112.58 56.6823 110.6 57.3623 108.56C59.8373 108.065 59.8373 108.065 62.3623 107.56C61.8163 103.85 60.5665 102.645 57.6123 100.435C52.9789 96.5851 50.4125 92.1983 48.3623 86.5602C48.3623 85.5702 48.3623 84.5802 48.3623 83.5602C45.8873 84.0552 45.8873 84.0552 43.3623 84.5602C39.2313 80.2959 38.6447 77.3016 38.3623 71.5602C38.6923 70.9002 39.0223 70.2402 39.3623 69.5602C38.3723 69.5602 37.3823 69.5602 36.3623 69.5602C35.8417 54.0197 37.6235 41.7213 48.6123 29.7477C56.1815 22.6168 64.9938 20.1884 75.1201 20.275C82.1097 20.8898 89.4721 23.3544 94.3623 28.5602C95.6748 31.3102 95.6748 31.3102 96.3623 33.5602C95.6636 33.274 94.965 32.9878 94.2451 32.693C82.056 27.9032 71.5029 25.1163 58.9951 30.2477C50.1248 34.6697 45.003 40.8865 40.3623 49.5602C39.2046 53.0334 39.2936 55.9208 39.3623 59.5602C39.691 58.4 39.691 58.4 40.0264 57.2164C43.3309 46.3625 48.5514 38.0757 58.5381 32.3024C67.534 28.0915 77.313 28.1932 86.6123 31.4352C89.5079 32.5917 91.1484 33.3463 93.3623 35.5602C93.1019 40.8553 92.5059 44.1788 89.3623 48.5602C84.3188 52.3869 78.3572 55.5219 72.3623 57.5602C70.167 57.1266 70.167 57.1266 68.3623 56.5602C68.8934 56.2083 69.4245 55.8563 69.9717 55.4938C74.9625 52.0057 77.726 49.0525 80.3623 43.5602C79.4033 44.5811 79.4033 44.5811 78.4248 45.6227C69.5243 54.3745 59.8795 59.7961 47.3623 61.5602C47.3623 60.9002 47.3623 60.2402 47.3623 59.5602C46.0423 60.2202 44.7223 60.8802 43.3623 61.5602C45.1819 63.8474 45.1819 63.8474 47.8311 63.5797C49.3315 63.4772 49.3315 63.4772 50.8623 63.3727C57.4506 63.2215 61.8344 65.1358 67.3623 68.5602C63.885 64.7798 63.885 64.7798 59.3623 62.5602C59.3623 61.9002 59.3623 61.2402 59.3623 60.5602C60.0056 60.546 60.6488 60.5318 61.3115 60.5172C71.9411 59.9562 81.5952 56.7253 89.7764 49.7945C91.3623 48.5602 91.3623 48.5602 94.3623 47.5602C94.7026 48.0565 95.0429 48.5527 95.3936 49.0641C98.2021 53.0005 100.942 56.1668 104.737 59.1852C108.3 62.1315 108.3 62.1315 108.862 65.9977C108.697 66.8433 108.532 67.6889 108.362 68.5602C110.342 69.0552 110.342 69.0552 112.362 69.5602C112.417 70.9764 112.455 72.3933 112.487 73.8102C112.511 74.5991 112.534 75.388 112.558 76.2008C112.341 78.8188 111.783 80.3609 110.362 82.5602C107.862 83.7477 107.862 83.7477 105.362 84.5602C102.661 85.9107 102.485 87.3079 101.3 90.0602C98.4494 95.9561 94.5122 100.516 89.3623 104.56C87.085 105.306 87.085 105.306 85.3623 105.56C85.6717 106.591 85.9811 107.623 86.2998 108.685C86.3623 112.56 86.3623 112.56 84.9404 114.22C83.7003 115.222 82.4278 116.186 81.124 117.103C77.1358 120.402 76.9312 124.63 76.3623 129.56C75.7023 129.56 75.0423 129.56 74.3623 129.56C74.3623 137.15 74.3623 144.74 74.3623 152.56C71.0623 152.56 67.7623 152.56 64.3623 152.56C63.3623 149.56 63.3623 149.56 64.7959 146.451C65.7838 144.623 66.7987 142.812 67.8252 141.005C70.1541 136.676 70.9608 133.454 70.3623 128.56C67.0516 125.099 65.0281 123.727 60.3623 122.56C60.3623 126.19 60.3623 129.82 60.3623 133.56C61.8597 132.063 61.6943 130.572 61.9248 128.498C62.0692 127.198 62.2136 125.899 62.3623 124.56C68.0398 127.822 68.0398 127.822 69.292 130.689C69.3978 135.01 67.5456 138.055 65.5498 141.81C65.1805 142.542 64.8112 143.275 64.4307 144.029C61.6529 149.415 61.6529 149.415 59.3623 150.56C59.3829 149.446 59.4036 148.333 59.4248 147.185C59.6261 143.728 59.6261 143.728 58.3623 141.56C57.8673 145.52 57.8673 145.52 57.3623 149.56C56.3723 149.23 55.3823 148.9 54.3623 148.56C54.3623 146.58 54.3623 144.6 54.3623 142.56C53.7023 142.56 53.0423 142.56 52.3623 142.56C52.3623 144.54 52.3623 146.52 52.3623 148.56C47.9982 147.95 44.7158 146.35 40.8623 144.248C39.7589 143.653 38.6554 143.059 37.5186 142.447C34.5674 140.683 31.9846 138.776 29.3623 136.56C29.6923 135.24 30.0223 133.92 30.3623 132.56C29.6366 132.81 28.9108 133.06 28.1631 133.318C25.3623 133.56 25.3623 133.56 22.9678 131.927C6.91678 115.384 -0.0958817 96.4751 0.000989328 73.7242C0.367346 53.0061 9.00685 35.2189 23.3623 20.5602C49.7603 -4.76295 92.7725 -6.95518 121.675 15.4352Z" fill="#5666AD"/>
<path d="M72.6436 6.31012C85.0019 5.65102 97.8601 9.71704 107.362 17.5601C116.347 25.6605 123.482 37.4147 124.55 49.7171C124.63 52.0854 124.64 54.4406 124.612 56.8101C124.601 58.073 124.601 58.073 124.59 59.3614C124.386 71.1485 122.756 85.5005 114.05 94.2476C112.087 96.255 111.41 97.0901 111.124 99.9195C111.2 101.639 111.296 103.358 111.413 105.076C111.342 108.538 110.018 110.719 108.319 113.666C106.842 116.591 106.633 119.316 106.362 122.56C104.712 121.57 103.062 120.58 101.362 119.56C100.867 121.045 100.867 121.045 100.362 122.56C99.6553 120.787 99.6553 120.787 99.3623 118.56C100.726 116.771 100.726 116.771 102.675 114.935C106.839 110.539 107.768 106.476 108.362 100.56C107.664 100.993 106.965 101.426 106.245 101.873C105.335 102.43 104.425 102.986 103.487 103.56C102.582 104.117 101.677 104.674 100.745 105.248C98.3623 106.56 98.3623 106.56 96.3623 106.56C96.8573 107.426 96.8573 107.426 97.3623 108.31C98.3623 110.56 98.3623 110.56 98.3623 114.56C96.3823 113.57 96.3823 113.57 94.3623 112.56C94.3623 110.91 94.3623 109.26 94.3623 107.56C92.7123 107.89 91.0623 108.22 89.3623 108.56C91.1654 113.093 92.8062 117.216 96.1748 120.81C98.3623 123.56 98.3623 123.56 98.1748 126.435C97.9067 127.136 97.6386 127.838 97.3623 128.56C96.7023 128.23 96.0423 127.9 95.3623 127.56C94.7373 124.998 94.7373 124.998 94.3623 122.56C93.7023 122.56 93.0423 122.56 92.3623 122.56C92.3623 127.18 92.3623 131.8 92.3623 136.56C89.0452 132.137 89.0577 130.841 89.3623 125.56C86.663 127.068 86.663 127.068 84.3623 129.56C84.0822 136.283 87.6815 142.536 90.3623 148.56C89.3723 148.56 88.3823 148.56 87.3623 148.56C86.1803 146.359 85.0169 144.151 83.8623 141.935C83.5285 141.318 83.1946 140.7 82.8506 140.064C80.7976 136.084 79.6014 133.031 80.3623 128.56C82.1123 126.689 82.1123 126.689 84.3623 125.123C88.029 122.298 88.029 122.298 88.8623 117.623C88.6973 116.612 88.5323 115.601 88.3623 114.56C85.7223 116.54 83.0823 118.52 80.3623 120.56C79.3723 119.57 79.3723 119.57 78.3623 118.56C78.8677 118.208 79.373 117.856 79.8936 117.494C81.9253 115.95 83.6964 114.497 85.3623 112.56C85.4026 110.227 85.4055 107.893 85.3623 105.56C87.9248 103.56 87.9248 103.56 91.3623 101.56C97.9583 96.4685 100.61 90.2846 103.362 82.5601C103.96 82.7458 104.559 82.9314 105.175 83.1226C107.526 83.7811 107.526 83.7811 110.362 82.5601C111.482 79.6687 111.47 76.8825 111.425 73.8101C111.416 73.0109 111.407 72.2117 111.397 71.3883C111.386 70.785 111.374 70.1817 111.362 69.5601C109.877 69.0651 109.877 69.0651 108.362 68.5601C108.084 67.0751 108.084 67.0751 107.8 65.5601C106.615 60.4649 102.586 57.9205 98.6748 54.7711C96.247 52.4498 95.3429 50.7359 94.3623 47.5601C93.7191 48.0796 93.0759 48.5991 92.4131 49.1343C82.2371 56.9877 72.4072 61.7365 59.3623 60.5601C59.3623 61.2201 59.3623 61.8801 59.3623 62.5601C59.9398 62.6632 60.5173 62.7664 61.1123 62.8726C63.719 63.6691 65.3359 64.7508 67.3623 66.5601C67.3623 67.2201 67.3623 67.8801 67.3623 68.5601C62.3623 66.5601 62.3623 66.5601 60.1123 65.4976C56.7883 64.3644 54.0532 64.3643 50.5498 64.4351C48.8077 64.4622 48.8077 64.4622 47.0303 64.4898C46.1499 64.513 45.2695 64.5362 44.3623 64.5601C44.3623 63.9001 44.3623 63.2401 44.3623 62.5601C43.7023 62.2301 43.0423 61.9001 42.3623 61.5601C44.0123 60.9001 45.6623 60.2401 47.3623 59.5601C47.3623 60.2201 47.3623 60.8801 47.3623 61.5601C65.0029 55.9791 65.0029 55.9791 78.3623 43.5601C79.0223 43.5601 79.6823 43.5601 80.3623 43.5601C78.5272 49.2322 75.3354 53.2448 70.3623 56.5601C76.0707 54.9348 80.8265 52.9089 85.7334 49.5484C87.3623 48.5601 87.3623 48.5601 89.3623 48.5601C91.394 44.2259 91.8829 40.2742 92.3623 35.5601C91.115 34.9092 89.8643 34.2646 88.6123 33.6226C87.9162 33.263 87.2202 32.9033 86.503 32.5328C78.8833 29.0706 68.8426 29.2831 61.0498 32.0601C50.1689 37.1785 45.0171 45.2281 41.0498 56.1851C40.2487 60.1181 40.2218 63.5547 40.3623 67.5601C39.3723 68.0551 39.3723 68.0551 38.3623 68.5601C37.6713 56.1827 38.6345 48.1874 46.6748 38.2476C53.5973 30.8318 62.4499 26.5651 72.6123 26.1226C81.064 26.3607 89.2716 28.9943 96.3623 33.5601C93.5036 27.3067 88.2418 24.723 82.1123 22.2476C71.023 20.2146 62.9307 21.954 53.1748 27.3101C44.8108 34.0014 38.9701 42.8206 37.3623 53.5601C37.1166 56.3283 36.9511 59.0979 36.7998 61.8726C36.7567 62.6132 36.7135 63.3538 36.669 64.1168C36.5636 65.931 36.4626 67.7456 36.3623 69.5601C37.3523 69.5601 38.3423 69.5601 39.3623 69.5601C39.2798 70.5707 39.1973 71.5814 39.1123 72.6226C39.4197 77.4629 40.746 79.5538 43.3623 83.5601C45.0123 83.5601 46.6623 83.5601 48.3623 83.5601C48.5815 84.2008 48.8006 84.8415 49.0264 85.5015C52.0925 93.8647 56.1685 99.2705 63.3623 104.56C62.8673 106.54 62.8673 106.54 62.3623 108.56C60.7123 108.56 59.0623 108.56 57.3623 108.56C57.218 109.179 57.0736 109.798 56.9248 110.435C56.3623 112.56 56.3623 112.56 55.3623 114.56C54.7023 114.56 54.0423 114.56 53.3623 114.56C53.5892 113.385 53.8161 112.209 54.0498 110.998C54.2135 108.76 54.2135 108.76 53.3623 106.56C49.9865 103.68 46.2913 101.601 42.3623 99.5601C42.3623 103.52 42.3623 107.48 42.3623 111.56C40.0901 108.152 40.1737 106.866 40.1123 102.873C39.7456 97.3182 38.4968 94.6902 34.9209 90.5484C25.7162 78.806 26.1387 60.5872 27.3623 46.5601C29.5926 33.5111 37.78 22.2175 48.3623 14.5601C56.221 9.78119 63.5717 7.3043 72.6436 6.31012Z" fill="#120D0E"/>
<path d="M92.4247 26.4977C94.5346 28.7437 95.4664 30.6285 96.3622 33.5602C95.6635 33.274 94.9649 32.9879 94.245 32.693C82.0559 27.9032 71.5028 25.1163 58.995 30.2477C50.1246 34.6697 45.0029 40.8866 40.3622 49.5602C39.2045 53.0335 39.2935 55.9209 39.3622 59.5602C39.5813 58.7868 39.8005 58.0133 40.0263 57.2164C43.3308 46.3625 48.5512 38.0757 58.538 32.3024C67.5339 28.0915 77.3129 28.1932 86.6122 31.4352C89.5078 32.5917 91.1483 33.3463 93.3622 35.5602C93.1018 40.8553 92.5058 44.1788 89.3622 48.5602C84.3187 52.3869 78.3571 55.5219 72.3622 57.5602C70.1669 57.1266 70.1669 57.1266 68.3622 56.5602C68.8933 56.2083 69.4244 55.8564 69.9716 55.4938C74.9624 52.0057 77.7259 49.0526 80.3622 43.5602C79.4031 44.5811 79.4031 44.5811 78.4247 45.6227C69.5241 54.3745 59.8794 59.7962 47.3622 61.5602C47.3622 60.9002 47.3622 60.2402 47.3622 59.5602C46.0422 60.2202 44.7222 60.8802 43.3622 61.5602C45.1818 63.8474 45.1818 63.8474 47.831 63.5797C49.3314 63.4773 49.3314 63.4773 50.8622 63.3727C57.4505 63.2215 61.8343 65.1358 67.3622 68.5602C63.8848 64.7799 63.8848 64.7799 59.3622 62.5602C59.3622 61.9002 59.3622 61.2402 59.3622 60.5602C60.0054 60.546 60.6487 60.5318 61.3114 60.5172C71.941 59.9562 81.5951 56.7254 89.7763 49.7946C91.3622 48.5602 91.3622 48.5602 94.3622 47.5602C94.7025 48.0565 95.0428 48.5528 95.3935 49.0641C98.202 53.0005 100.942 56.1668 104.737 59.1852C108.3 62.1315 108.3 62.1315 108.862 65.9977C108.697 66.8433 108.532 67.6889 108.362 68.5602C110.342 69.0552 110.342 69.0552 112.362 69.5602C112.417 70.9764 112.455 72.3933 112.487 73.8102C112.51 74.5991 112.534 75.388 112.558 76.2008C112.341 78.8188 111.783 80.361 110.362 82.5602C107.862 83.7477 107.862 83.7477 105.362 84.5602C102.661 85.9107 102.485 87.308 101.3 90.0602C96.8159 99.1977 90.2703 104.721 81.038 108.783C76.8663 109.995 73.7182 110.094 69.6513 108.494C59.6943 102.902 52.3855 97.6243 48.3622 86.5602C48.3622 85.5702 48.3622 84.5802 48.3622 83.5602C45.8872 84.0552 45.8872 84.0552 43.3622 84.5602C39.2312 80.296 38.6446 77.3017 38.3622 71.5602C38.6922 70.9002 39.0222 70.2402 39.3622 69.5602C38.3722 69.5602 37.3822 69.5602 36.3622 69.5602C35.8416 54.0197 37.6234 41.7214 48.6122 29.7477C60.9863 18.0902 78.3741 17.6086 92.4247 26.4977Z" fill="#F4D2B5"/>
<path d="M92.4247 26.4977C94.5346 28.7437 95.4664 30.6285 96.3622 33.5602C95.6635 33.274 94.9649 32.9879 94.245 32.693C82.0559 27.9032 71.5028 25.1163 58.995 30.2477C50.1246 34.6697 45.0029 40.8866 40.3622 49.5602C39.2045 53.0335 39.2935 55.9209 39.3622 59.5602C39.5813 58.7868 39.8005 58.0133 40.0263 57.2164C43.3308 46.3625 48.5512 38.0757 58.538 32.3024C67.5339 28.0915 77.3129 28.1932 86.6122 31.4352C89.5078 32.5917 91.1483 33.3463 93.3622 35.5602C93.1018 40.8553 92.5058 44.1788 89.3622 48.5602C84.3187 52.3869 78.3571 55.5219 72.3622 57.5602C70.1669 57.1266 70.1669 57.1266 68.3622 56.5602C68.8933 56.2083 69.4244 55.8564 69.9716 55.4938C74.9624 52.0057 77.7259 49.0526 80.3622 43.5602C79.4031 44.5811 79.4031 44.5811 78.4247 45.6227C69.5241 54.3745 59.8794 59.7962 47.3622 61.5602C47.3622 60.9002 47.3622 60.2402 47.3622 59.5602C46.0422 60.2202 44.7222 60.8802 43.3622 61.5602C43.6922 61.8902 44.0222 62.2202 44.3622 62.5602C44.5499 64.2018 44.6864 65.8493 44.7997 67.4977C45.2432 72.9625 46.1678 78.2142 47.3622 83.5602C45.3822 84.0552 45.3822 84.0552 43.3622 84.5602C39.2312 80.296 38.6446 77.3017 38.3622 71.5602C38.6922 70.9002 39.0222 70.2402 39.3622 69.5602C38.3722 69.5602 37.3822 69.5602 36.3622 69.5602C35.8416 54.0197 37.6234 41.7214 48.6122 29.7477C60.9863 18.0902 78.3741 17.6086 92.4247 26.4977Z" fill="#DF682B"/>
<path d="M101.362 16.5601C111.485 24.4213 119.102 33.682 121.362 46.5601C122.122 57.2789 122.478 68.2036 119.362 78.5601C119.113 79.4238 118.865 80.2875 118.608 81.1773C114.789 91.8405 107.542 98.5339 97.6474 103.697C96.8933 103.982 96.1392 104.267 95.3622 104.56C94.3722 104.065 94.3722 104.065 93.3622 103.56C93.8817 103.003 94.4012 102.446 94.9365 101.873C98.327 98.1624 101.477 94.6174 103.987 90.2476C105.704 87.3013 106.489 86.4766 109.487 84.4976C113.231 81.9744 113.992 79.815 115.362 75.5601C117.622 62.3506 117.69 50.628 110.175 39.2476C107.151 36.3582 104.246 34.7987 100.558 32.9117C98.252 31.4923 96.9539 30.1219 95.2997 27.9976C91.5302 23.1781 86.3242 20.6987 80.3622 19.5601C68.3424 18.4178 59.5328 19.4565 49.3622 26.5601C42.1046 32.7842 36.9807 41.1007 35.3622 50.5601C35.1262 54.1413 35.1314 57.7218 35.1122 61.3101C35.0916 62.2614 35.071 63.2128 35.0497 64.1929C35.0144 70.6417 35.1931 78.0864 39.7792 83.1133C41.2465 84.3385 42.8024 85.4552 44.3622 86.5601C47.1564 89.0004 48.797 91.8162 50.6747 94.9976C53.4701 99.4939 55.6664 102.155 60.3622 104.56C57.3622 105.56 57.3622 105.56 54.6904 104.373C42.325 97.0915 36.2114 90.0436 31.2177 76.4429C28.0745 62.1767 28.5695 44.64 35.9404 31.814C37.6244 29.2614 39.4094 26.9118 41.3622 24.5601C41.8856 23.913 42.409 23.2659 42.9482 22.5992C57.0786 6.81444 84.0546 4.89774 101.362 16.5601Z" fill="#9A3083"/>
<path d="M42.3623 99.5602C45.231 100.943 47.9225 102.482 50.6123 104.185C51.3187 104.631 52.0251 105.077 52.7529 105.537C53.284 105.874 53.8151 106.212 54.3623 106.56C54.0323 109.2 53.7023 111.84 53.3623 114.56C54.0223 114.56 54.6823 114.56 55.3623 114.56C56.0223 112.58 56.6823 110.6 57.3623 108.56C58.1461 108.457 58.9298 108.354 59.7373 108.248C62.6928 107.784 62.6928 107.784 64.3623 104.56C64.8354 104.861 65.3085 105.161 65.7959 105.47C72.7245 109.455 77.8947 108.494 85.3623 106.56C86.2998 109.185 86.2998 109.185 86.3623 112.56C84.7656 114.35 83.0702 115.671 81.124 117.068C77.1632 120.423 76.9345 124.601 76.3623 129.56C75.7023 129.56 75.0423 129.56 74.3623 129.56C74.3623 137.15 74.3623 144.74 74.3623 152.56C71.0623 152.56 67.7623 152.56 64.3623 152.56C63.3623 149.56 63.3623 149.56 64.7959 146.451C65.7838 144.623 66.7986 142.812 67.8252 141.005C70.1541 136.676 70.9607 133.454 70.3623 128.56C67.0516 125.099 65.0281 123.727 60.3623 122.56C60.3623 126.19 60.3623 129.82 60.3623 133.56C61.8597 132.063 61.6943 130.572 61.9248 128.498C62.0692 127.198 62.2136 125.899 62.3623 124.56C68.0398 127.822 68.0398 127.822 69.292 130.689C69.3978 135.01 67.5455 138.055 65.5498 141.81C65.1805 142.542 64.8112 143.275 64.4307 144.029C61.6529 149.415 61.6529 149.415 59.3623 150.56C59.3829 149.446 59.4036 148.333 59.4248 147.185C59.6261 143.728 59.6261 143.728 58.3623 141.56C58.0323 144.2 57.7023 146.84 57.3623 149.56C55.8773 149.065 55.8773 149.065 54.3623 148.56C54.3623 146.58 54.3623 144.6 54.3623 142.56C53.7023 142.56 53.0423 142.56 52.3623 142.56C52.3623 144.54 52.3623 146.52 52.3623 148.56C47.9982 147.95 44.7158 146.35 40.8623 144.248C39.7589 143.653 38.6554 143.059 37.5186 142.447C34.5674 140.683 31.9846 138.776 29.3623 136.56C29.5264 133.771 29.5264 133.771 30.3623 130.56C32.7607 128.662 32.7607 128.662 35.7373 127.185C37.203 126.431 37.203 126.431 38.6982 125.662C41.3623 124.56 41.3623 124.56 44.3623 124.56C44.4163 123.102 44.4551 121.644 44.4873 120.185C44.5105 119.373 44.5337 118.561 44.5576 117.724C44.576 115.347 44.576 115.347 42.3623 113.56C42.167 110.302 42.167 110.302 42.2373 106.435C42.2554 105.154 42.2734 103.873 42.292 102.552C42.3152 101.565 42.3384 100.578 42.3623 99.5602Z" fill="#1E1714"/>
<path d="M108.362 100.56C108.785 106.692 108.396 109.63 104.362 114.56C103.62 115.282 102.877 116.004 102.112 116.748C100.015 118.5 100.015 118.5 100.362 121.56C100.692 120.9 101.022 120.24 101.362 119.56C102.682 120.22 104.002 120.88 105.362 121.56C106.022 120.9 106.682 120.24 107.362 119.56C107.362 121.21 107.362 122.86 107.362 124.56C108.089 124.68 108.816 124.8 109.565 124.923C112.369 125.562 114.565 126.427 117.112 127.748C118.28 128.326 118.28 128.326 119.472 128.916C122.093 131.196 122.083 133.189 122.362 136.56C120.034 138.006 117.7 139.442 115.362 140.873C114.714 141.277 114.065 141.681 113.397 142.097C108.854 144.864 104.392 146.825 99.3623 148.56C98.8673 146.085 98.8673 146.085 98.3623 143.56C97.7023 145.54 97.0423 147.52 96.3623 149.56C94.8773 149.065 94.8773 149.065 93.3623 148.56C93.0323 149.22 92.7023 149.88 92.3623 150.56C88.7062 152.205 85.5965 152.665 81.6435 152.615C80.8398 152.607 80.0361 152.599 79.208 152.591C78.5989 152.581 77.9898 152.571 77.3623 152.56C77.2746 148.539 77.2217 144.519 77.1748 140.498C77.1496 139.364 77.1245 138.23 77.0986 137.062C77.0345 129.733 77.3156 124.522 81.8974 118.564C86.14 114.56 86.14 114.56 88.3623 114.56C89.3623 117.623 89.3623 117.623 89.3623 121.56C87.446 123.586 85.443 125.11 83.1474 126.689C81.1 128.479 81.1 128.479 80.9209 131.384C81.4319 135.061 82.5952 137.554 84.3623 140.81C87.3623 146.394 87.3623 146.394 87.3623 148.56C88.3523 148.065 88.3523 148.065 89.3623 147.56C88.9175 146.608 88.4728 145.655 88.0146 144.673C87.4423 143.407 86.8707 142.14 86.2998 140.873C86.0052 140.247 85.7107 139.621 85.4072 138.976C83.6861 135.109 82.9114 132.605 84.3623 128.56C85.7998 126.748 85.7998 126.748 87.3623 125.56C88.0223 125.56 88.6823 125.56 89.3623 125.56C90.0223 128.53 90.6823 131.5 91.3623 134.56C91.6923 130.6 92.0223 126.64 92.3623 122.56C93.0223 122.56 93.6823 122.56 94.3623 122.56C95.0223 124.21 95.6823 125.86 96.3623 127.56C97.1794 125.789 97.1794 125.789 97.3623 123.56C95.9768 121.315 95.9768 121.315 93.9873 119.185C91.0615 115.666 89.4835 113.288 89.3623 108.56C91.0123 108.23 92.6623 107.9 94.3623 107.56C94.651 108.53 94.9398 109.499 95.2373 110.498C96.0044 113.667 96.0044 113.667 98.3623 114.56C97.7023 111.92 97.0423 109.28 96.3623 106.56C97.984 105.555 99.6097 104.556 101.237 103.56C102.595 102.725 102.595 102.725 103.979 101.873C106.362 100.56 106.362 100.56 108.362 100.56Z" fill="#160D14"/>
<path d="M27.3622 42.5602C28.2738 45.6321 28.435 48.2594 28.3193 51.4547C27.912 67.3312 28.5583 81.2548 38.3622 94.5602C39.0222 95.2202 39.6822 95.8802 40.3622 96.5602C40.6708 99.1696 40.6708 99.1696 40.7997 102.31C41.1161 107.119 41.8502 110.374 44.3622 114.56C45.2372 116.685 45.2372 116.685 45.3622 118.56C43.9247 120.81 43.9247 120.81 42.3622 122.56C31.2973 117.381 24.8936 107.584 20.3622 96.5602C19.8518 95.3556 19.8518 95.3556 19.331 94.1266C15.0062 81.6127 15.3922 65.2248 20.9169 53.2125C22.9217 49.5335 24.9902 46.0166 27.3622 42.5602Z" fill="#7683BA"/>
<path d="M123.362 43.5602C133.52 55.7494 135.119 68.1962 134.362 83.5602C132.56 99.0677 122.969 112.697 111.21 122.322C109.362 123.56 109.362 123.56 107.362 123.56C106.073 117.541 106.397 114.946 109.46 109.697C110.559 107.095 110.437 105.299 110.237 102.498C110.042 98.046 110.042 98.046 111.507 95.8258C112.567 94.7415 113.632 93.6623 114.702 92.5875C123.036 82.4107 123.696 66.8947 123.487 54.3727C123.478 53.3253 123.469 52.278 123.46 51.1989C123.437 48.6524 123.404 46.1064 123.362 43.5602Z" fill="#7784BC"/>
<path d="M95.3623 35.5602C98.9803 35.0325 101.191 34.917 104.433 36.6969C111.15 41.9712 114.486 48.6215 115.727 57.0299C116.034 59.7895 116.251 62.5391 116.425 65.3102C116.487 66.1972 116.55 67.0842 116.614 67.9981C116.833 73.9621 115.978 78.6839 112.362 83.5602C110.687 84.8677 108.966 85.9487 107.163 87.0719C104.147 89.5647 102.604 92.9219 100.819 96.3531C99.1886 98.8233 98.131 99.5978 95.3623 100.56C94.3723 100.56 93.3823 100.56 92.3623 100.56C93.0507 99.8679 93.0507 99.8679 93.7529 99.1617C98.5507 94.0615 101.175 89.1909 103.362 82.5602C104.259 82.8386 104.259 82.8386 105.175 83.1227C107.526 83.7811 107.526 83.7811 110.362 82.5602C111.482 79.6687 111.47 76.8825 111.425 73.8102C111.416 73.0109 111.407 72.2117 111.397 71.3883C111.386 70.785 111.374 70.1817 111.362 69.5602C109.877 69.0652 109.877 69.0652 108.362 68.5602C108.177 67.5702 107.991 66.5802 107.8 65.5602C106.615 60.4649 102.586 57.9205 98.6748 54.7711C96.2469 52.4499 95.3429 50.7359 94.3623 47.5602C93.7191 48.0796 93.0758 48.5991 92.4131 49.1344C82.2371 56.9878 72.4071 61.7365 59.3623 60.5602C59.3623 61.2202 59.3623 61.8802 59.3623 62.5602C59.9398 62.6633 60.5173 62.7664 61.1123 62.8727C63.7189 63.6691 65.3358 64.7508 67.3623 66.5602C67.3623 67.2202 67.3623 67.8802 67.3623 68.5602C62.3623 66.5602 62.3623 66.5602 60.1123 65.4977C56.7883 64.3645 54.0532 64.3644 50.5498 64.4352C49.3884 64.4532 48.2269 64.4712 47.0303 64.4898C46.1498 64.513 45.2694 64.5362 44.3623 64.5602C44.3623 63.9002 44.3623 63.2402 44.3623 62.5602C43.7023 62.2302 43.0423 61.9002 42.3623 61.5602C44.0123 60.9002 45.6623 60.2402 47.3623 59.5602C47.3623 60.2202 47.3623 60.8802 47.3623 61.5602C65.0028 55.9791 65.0028 55.9791 78.3623 43.5602C79.0223 43.5602 79.6823 43.5602 80.3623 43.5602C78.5272 49.2323 75.3354 53.2448 70.3623 56.5602C76.0707 54.9349 80.8264 52.909 85.7334 49.5484C87.3623 48.5602 87.3623 48.5602 89.3623 48.5602C89.6511 47.797 89.9398 47.0339 90.2373 46.2477C91.3623 43.5602 91.3623 43.5602 93.3623 40.5602C93.3623 42.2102 93.3623 43.8602 93.3623 45.5602C94.0223 45.5602 94.6823 45.5602 95.3623 45.5602C95.3623 42.2602 95.3623 38.9602 95.3623 35.5602Z" fill="#171212"/>
<path d="M42.3623 99.5602C43.0223 99.8902 43.6823 100.22 44.3623 100.56C44.3043 101.129 44.2463 101.697 44.1865 102.283C43.8637 107.807 44.5264 110.75 48.1709 114.955C49.5517 116.815 49.8458 118.318 50.3623 120.56C51.0065 121.833 51.6943 123.085 52.4248 124.31C53.0642 125.383 53.7036 126.455 54.3623 127.56C56.0123 125.91 57.6623 124.26 59.3623 122.56C60.3623 123.56 60.3623 123.56 60.46 125.845C60.4484 126.762 60.4368 127.678 60.4248 128.623C60.4158 129.542 60.4068 130.461 60.3975 131.408C60.3859 132.118 60.3743 132.828 60.3623 133.56C61.8597 132.063 61.6943 130.572 61.9248 128.498C62.0692 127.198 62.2136 125.899 62.3623 124.56C68.0398 127.822 68.0398 127.822 69.292 130.689C69.3978 135.01 67.5455 138.055 65.5498 141.81C65.1805 142.542 64.8112 143.275 64.4307 144.029C61.6529 149.415 61.6529 149.415 59.3623 150.56C59.3829 149.446 59.4036 148.333 59.4248 147.185C59.6261 143.728 59.6261 143.728 58.3623 141.56C58.0323 144.2 57.7023 146.84 57.3623 149.56C55.8773 149.065 55.8773 149.065 54.3623 148.56C54.3623 146.58 54.3623 144.6 54.3623 142.56C53.7023 142.56 53.0423 142.56 52.3623 142.56C52.3623 144.54 52.3623 146.52 52.3623 148.56C47.9982 147.95 44.7158 146.35 40.8623 144.248C39.7589 143.653 38.6554 143.059 37.5186 142.447C34.5674 140.683 31.9846 138.776 29.3623 136.56C29.5264 133.771 29.5264 133.771 30.3623 130.56C32.7607 128.662 32.7607 128.662 35.7373 127.185C37.203 126.431 37.203 126.431 38.6982 125.662C41.3623 124.56 41.3623 124.56 44.3623 124.56C44.4163 123.102 44.4551 121.644 44.4873 120.185C44.5105 119.373 44.5337 118.561 44.5576 117.724C44.576 115.347 44.576 115.347 42.3623 113.56C42.167 110.302 42.167 110.302 42.2373 106.435C42.2554 105.154 42.2734 103.873 42.292 102.552C42.3152 101.565 42.3384 100.578 42.3623 99.5602Z" fill="#0F0D10"/>
<path d="M92.4247 26.4977C94.5346 28.7437 95.4664 30.6285 96.3622 33.5602C95.6635 33.274 94.9649 32.9879 94.245 32.693C82.0559 27.9032 71.5028 25.1163 58.995 30.2477C50.1246 34.6697 45.0029 40.8866 40.3622 49.5602C39.1856 53.0901 39.1637 55.8548 39.3622 59.5602C40.0222 60.5502 40.6822 61.5402 41.3622 62.5602C42.3522 62.5602 43.3422 62.5602 44.3622 62.5602C44.4112 63.2382 44.4602 63.9163 44.5106 64.6149C45.0278 71.0532 45.954 77.2575 47.3622 83.5602C45.3822 84.0552 45.3822 84.0552 43.3622 84.5602C39.2312 80.296 38.6446 77.3017 38.3622 71.5602C38.6922 70.9002 39.0222 70.2402 39.3622 69.5602C38.3722 69.5602 37.3822 69.5602 36.3622 69.5602C35.8416 54.0197 37.6234 41.7214 48.6122 29.7477C60.9863 18.0902 78.3741 17.6086 92.4247 26.4977Z" fill="#DE692E"/>
<path d="M95.3624 35.5602C99.0319 35.025 101.209 34.8992 104.468 36.7672C109.867 41.0926 112.971 45.764 114.362 52.5602C114.659 57.5906 114.604 62.524 114.362 67.5602C112.11 64.8718 110.48 62.9138 109.362 59.5602C108.042 58.8685 106.706 58.2057 105.362 57.5602C103.292 55.7555 103.292 55.7555 101.237 53.6852C100.554 53.0071 99.871 52.3291 99.1671 51.6305C95.9001 47.8826 95.1069 45.2696 95.2374 40.3102C95.2645 38.9721 95.2645 38.9721 95.2921 37.607C95.3153 36.9316 95.3385 36.2561 95.3624 35.5602Z" fill="#E16A2E"/>
<path d="M108.362 100.56C108.785 106.692 108.396 109.63 104.362 114.56C103.62 115.282 102.877 116.004 102.112 116.748C100.015 118.5 100.015 118.5 100.362 121.56C100.692 120.9 101.022 120.24 101.362 119.56C102.352 119.89 103.342 120.22 104.362 120.56C104.217 127.405 101.109 131.726 96.3623 136.56C95.7023 136.56 95.0423 136.56 94.3623 136.56C92.4562 133.348 92.1396 131.021 92.2373 127.31C92.2644 125.972 92.2644 125.972 92.292 124.607C92.3152 123.932 92.3384 123.256 92.3623 122.56C93.0223 122.56 93.6823 122.56 94.3623 122.56C95.0223 124.21 95.6823 125.86 96.3623 127.56C97.1794 125.789 97.1794 125.789 97.3623 123.56C95.9768 121.315 95.9768 121.315 93.9873 119.185C91.0615 115.666 89.4835 113.288 89.3623 108.56C91.0123 108.23 92.6623 107.9 94.3623 107.56C94.6511 108.53 94.9398 109.499 95.2373 110.498C96.0045 113.667 96.0045 113.667 98.3623 114.56C97.7023 111.92 97.0423 109.28 96.3623 106.56C97.984 105.555 99.6098 104.556 101.237 103.56C102.142 103.003 103.047 102.446 103.979 101.873C106.362 100.56 106.362 100.56 108.362 100.56Z" fill="#D9622A"/>
<path d="M46.3623 127.56C48.3623 130.31 48.3623 130.31 50.3623 133.56C50.9604 134.303 51.5586 135.045 52.1748 135.81C54.0153 140.072 53.0865 144.067 52.3623 148.56C47.9982 147.95 44.7158 146.35 40.8623 144.248C39.2071 143.356 39.2071 143.356 37.5186 142.447C34.5674 140.683 31.9846 138.776 29.3623 136.56C30.7027 132.539 33.1847 131.671 36.7373 129.81C37.3277 129.481 37.9181 129.153 38.5264 128.814C42.9847 126.434 42.9847 126.434 46.3623 127.56Z" fill="#9F2F8A"/>
<path d="M106.362 126.56C112.114 128.697 117.517 130.735 122.362 134.56C122.362 135.22 122.362 135.88 122.362 136.56C120.057 138.142 117.768 139.585 115.362 140.998C114.714 141.393 114.066 141.788 113.397 142.195C108.86 144.895 104.35 146.829 99.3623 148.56C98.0604 143.302 97.4362 139.277 100.077 134.38C102.078 131.673 104.133 129.082 106.362 126.56Z" fill="#9F2F8C"/>
<path d="M88.3623 114.56C89.3623 117.623 89.3623 117.623 89.3623 121.56C87.446 123.586 85.443 125.11 83.1474 126.689C81.131 128.463 81.131 128.463 80.8584 131.22C81.5417 135.75 83.3209 139.366 85.3623 143.435C85.7438 144.219 86.1254 145.003 86.5185 145.81C87.456 147.732 88.4077 149.647 89.3623 151.56C86.4802 152.521 84.6638 152.666 81.6748 152.623C80.4624 152.609 80.4624 152.609 79.2256 152.595C78.6107 152.584 77.9958 152.572 77.3623 152.56C77.2746 148.539 77.2217 144.519 77.1748 140.498C77.1496 139.364 77.1245 138.23 77.0986 137.062C77.0345 129.733 77.3156 124.522 81.8974 118.564C86.14 114.56 86.14 114.56 88.3623 114.56Z" fill="#3B8ECC"/>
<path d="M63.3623 114.56C67.3975 116.055 70.265 118.865 72.3623 122.56C74.5046 129.119 74.6043 135.202 74.4873 142.06C74.4783 143.073 74.4693 144.087 74.46 145.13C74.4366 147.607 74.4007 150.084 74.3623 152.56C71.0623 152.56 67.7623 152.56 64.3623 152.56C63.3623 149.56 63.3623 149.56 64.7959 146.451C65.7838 144.623 66.7986 142.812 67.8252 141.005C70.1516 136.68 71.0758 133.449 70.3623 128.56C68.6375 126.5 68.6375 126.5 66.2998 125.06C64.0771 123.338 64.0771 123.338 62.3623 121.56C62.3623 117.623 62.3623 117.623 63.3623 114.56Z" fill="#3C8FCD"/>
<path d="M85.3623 106.56C87.2764 106.802 87.2764 106.802 89.3623 107.56C90.1982 109.38 90.1982 109.38 90.7373 111.685C91.7782 115.369 92.9673 117.543 95.6123 120.31C97.1982 121.986 97.1982 121.986 98.3623 123.56C98.2373 126.498 98.2373 126.498 97.3623 128.56C96.7023 128.23 96.0423 127.9 95.3623 127.56C94.7373 124.998 94.7373 124.998 94.3623 122.56C93.7023 122.56 93.0423 122.56 92.3623 122.56C92.3623 127.18 92.3623 131.8 92.3623 136.56C89.0452 132.137 89.0576 130.841 89.3623 125.56C86.663 127.068 86.663 127.068 84.3623 129.56C84.0822 136.283 87.6815 142.536 90.3623 148.56C89.3723 148.56 88.3823 148.56 87.3623 148.56C86.1803 146.359 85.0169 144.151 83.8623 141.935C83.5284 141.318 83.1946 140.7 82.8506 140.064C80.7976 136.084 79.6013 133.031 80.3623 128.56C82.1123 126.689 82.1123 126.689 84.3623 125.123C88.029 122.298 88.029 122.298 88.8623 117.623C88.6973 116.612 88.5323 115.601 88.3623 114.56C85.7223 116.54 83.0823 118.52 80.3623 120.56C79.7023 119.9 79.0423 119.24 78.3623 118.56C78.8676 118.197 79.3729 117.833 79.8936 117.459C84.2835 114.228 84.2835 114.228 85.7998 109.185C85.6554 108.319 85.5111 107.453 85.3623 106.56Z" fill="#110F0F"/>
<path d="M103.362 61.5602C103.032 64.2002 102.702 66.8402 102.362 69.5602C100.052 69.5602 97.7423 69.5602 95.3623 69.5602C96.3523 71.0452 96.3523 71.0452 97.3623 72.5602C97.1748 75.6227 97.1748 75.6227 96.3623 78.5602C93.3623 80.5602 93.3623 80.5602 91.2998 80.4352C88.7895 79.3015 88.3354 78.074 87.3623 75.5602C86.7023 75.5602 86.0423 75.5602 85.3623 75.5602C85.0323 76.5502 84.7023 77.5402 84.3623 78.5602C83.7023 78.5602 83.0423 78.5602 82.3623 78.5602C84.1304 72.9343 87.5299 69.7818 92.3623 66.5602C89.7223 66.8902 87.0823 67.2202 84.3623 67.5602C85.3892 64.2512 86.4015 63.5382 89.4873 61.8102C93.8717 60.1189 99.0409 59.3995 103.362 61.5602Z" fill="#151513"/>
<path d="M33.3624 54.5602C33.6924 54.5602 34.0224 54.5602 34.3624 54.5602C34.3998 55.7551 34.4372 56.9501 34.4757 58.1813C34.3353 71.5188 34.3353 71.5188 39.7882 83.0953C41.2448 84.3351 42.8015 85.4546 44.3624 86.5602C47.1565 89.0004 48.7971 91.8163 50.6749 94.9977C53.4702 99.494 55.6665 102.155 60.3624 104.56C57.3624 105.56 57.3624 105.56 54.6905 104.373C43.561 97.8193 37.1629 91.7869 32.3624 79.5602C31.5268 75.8988 31.1672 74.1457 32.3624 70.5602C32.5904 67.8273 32.7791 65.1098 32.9249 62.3727C32.9681 61.6231 33.0113 60.8735 33.0557 60.1012C33.1616 58.2544 33.2625 56.4073 33.3624 54.5602Z" fill="#9C3083"/>
<path d="M43.3623 100.56C47.4719 102.011 50.7949 104.071 54.3623 106.56C54.0323 109.2 53.7023 111.84 53.3623 114.56C54.0223 114.56 54.6823 114.56 55.3623 114.56C56.0223 112.58 56.6823 110.6 57.3623 108.56C59.0123 108.89 60.6623 109.22 62.3623 109.56C61.1165 115.664 58.6651 119.108 54.3623 123.56C53.0224 121.899 51.6914 120.23 50.3623 118.56C49.7603 117.894 49.1583 117.227 48.5381 116.541C45.118 112.58 42.8994 109.875 42.9248 104.498C43.0692 103.198 43.2135 101.899 43.3623 100.56Z" fill="#DC6124"/>
<path d="M37.3623 57.5602C37.6923 57.5602 38.0223 57.5602 38.3623 57.5602C38.6923 60.2002 39.0223 62.8402 39.3623 65.5602C39.3623 63.5802 39.3623 61.6002 39.3623 59.5602C40.3523 61.0452 40.3523 61.0452 41.3623 62.5602C42.3523 62.5602 43.3423 62.5602 44.3623 62.5602C44.4113 63.2382 44.4603 63.9163 44.5107 64.6149C45.0279 71.0532 45.9541 77.2575 47.3623 83.5602C46.0423 83.8902 44.7223 84.2202 43.3623 84.5602C39.2313 80.296 38.6447 77.3017 38.3623 71.5602C38.6923 70.9002 39.0223 70.2402 39.3623 69.5602C38.3723 69.2302 37.3823 68.9002 36.3623 68.5602C36.6923 64.9302 37.0223 61.3002 37.3623 57.5602Z" fill="#1E1611"/>
<path d="M62.3623 124.56C68.0399 127.822 68.0399 127.822 69.292 130.689C69.3978 135.01 67.5456 138.055 65.5498 141.81C65.1805 142.542 64.8112 143.275 64.4307 144.029C61.6529 149.415 61.6529 149.415 59.3623 150.56C59.383 149.529 59.4036 148.498 59.4248 147.435C59.4925 143.658 59.4925 143.658 58.6748 140.435C58.2745 136.752 59.4432 135.66 61.3623 132.56C61.9076 129.884 62.131 127.29 62.3623 124.56Z" fill="#963089"/>
<path d="M65.3623 109.56C65.9811 109.725 66.5998 109.89 67.2373 110.06C73.6132 111.08 80.0427 110.891 86.3623 109.56C86.2373 111.248 86.2373 111.248 85.3623 113.56C83.8767 114.787 82.3879 116.012 80.8623 117.189C78.5885 119.267 77.5363 121.756 76.3623 124.56C75.9498 124.003 75.5373 123.446 75.1123 122.873C74.5348 122.11 73.9573 121.346 73.3623 120.56C72.7229 119.715 72.0836 118.869 71.4248 117.998C69.4949 115.519 69.4949 115.519 67.1123 113.935C66.5348 113.481 65.9573 113.028 65.3623 112.56C65.3623 111.57 65.3623 110.58 65.3623 109.56Z" fill="#ECDBC4"/>
<path d="M49.3623 67.5602C55.6077 66.9096 59.5053 67.6563 64.7334 71.1735C66.3623 72.5602 66.3623 72.5602 68.3623 75.5602C68.3623 76.5502 68.3623 77.5402 68.3623 78.5602C67.3723 78.2302 66.3823 77.9002 65.3623 77.5602C65.3623 76.9002 65.3623 76.2402 65.3623 75.5602C64.7023 75.5602 64.0423 75.5602 63.3623 75.5602C63.0323 76.8802 62.7023 78.2002 62.3623 79.5602C60.0498 80.2477 60.0498 80.2477 57.3623 80.5602C55.5498 79.4977 55.5498 79.4977 54.3623 77.5602C54.1123 74.4352 54.1123 74.4352 54.3623 71.5602C54.6923 71.2302 55.0223 70.9002 55.3623 70.5602C53.3823 70.5602 51.4023 70.5602 49.3623 70.5602C49.3623 69.5702 49.3623 68.5802 49.3623 67.5602Z" fill="#131110"/>
<path d="M114.362 54.5602C114.692 54.5602 115.022 54.5602 115.362 54.5602C115.65 57.8914 115.885 61.2244 116.112 64.5602C116.234 65.962 116.234 65.962 116.358 67.3922C116.751 73.6328 116.238 78.4651 112.362 83.5602C110.686 84.8647 108.965 85.9493 107.163 87.0719C104.147 89.5648 102.604 92.9219 100.819 96.3531C99.1886 98.8233 98.131 99.5979 95.3623 100.56C94.3723 100.56 93.3823 100.56 92.3623 100.56C92.8212 100.099 93.2801 99.6372 93.7529 99.1617C98.5507 94.0616 101.175 89.1909 103.362 82.5602C103.96 82.7458 104.559 82.9314 105.175 83.1227C107.526 83.7811 107.526 83.7811 110.362 82.5602C111.022 78.9302 111.682 75.3002 112.362 71.5602C113.022 71.5602 113.682 71.5602 114.362 71.5602C114.188 71.0394 114.014 70.5186 113.835 69.9821C113.218 66.8194 113.511 64.0151 113.8 60.8102C113.902 59.6397 114.003 58.4692 114.108 57.2633C114.192 56.3713 114.276 55.4792 114.362 54.5602Z" fill="#241917"/>
<path d="M47.3623 119.56C50.6538 120.695 51.3583 121.553 53.1123 124.685C53.5248 125.634 53.9373 126.583 54.3623 127.56C56.0123 125.91 57.6623 124.26 59.3623 122.56C60.3623 123.56 60.3623 123.56 60.6748 126.685C60.291 131.445 58.9425 133.609 56.3623 137.56C47.5341 129.222 47.5341 129.222 47.1123 122.685C47.1948 121.654 47.2773 120.623 47.3623 119.56Z" fill="#D7662D"/>
<path d="M89.3623 125.56C89.4835 126.14 89.6046 126.72 89.7295 127.318C90.4972 130.897 91.2249 134.223 92.6123 137.623C93.6794 141.802 92.6317 144.47 91.3623 148.56C88.3889 146.024 87.1254 143.254 85.6123 139.685C85.1637 138.657 84.7151 137.628 84.2529 136.568C83.2969 133.339 83.3253 131.727 84.3623 128.56C86.7416 125.56 86.7416 125.56 89.3623 125.56Z" fill="#952D8A"/>
<path d="M98.3623 31.5602C107.46 35.2999 111.651 39.4987 116.237 48.0602C118.449 54.4757 117.581 61.8759 117.362 68.5602C116.702 68.5602 116.042 68.5602 115.362 68.5602C115.348 67.6888 115.334 66.8174 115.319 65.9196C114.949 56.6667 113.79 47.8471 107.651 40.5172C104.493 37.6141 101.769 35.8272 97.3623 35.5602C97.6923 34.2402 98.0223 32.9202 98.3623 31.5602Z" fill="#1D120F"/>
<path d="M105.362 87.5602C107.012 87.5602 108.662 87.5602 110.362 87.5602C111.362 90.1227 111.362 90.1227 111.362 93.5602C107.239 98.7839 101.418 102.054 95.3623 104.56C94.7023 104.23 94.0423 103.9 93.3623 103.56C93.8934 102.992 94.4245 102.423 94.9717 101.838C99.1226 97.3003 102.564 93.0401 105.362 87.5602Z" fill="#A6368C"/>
<path d="M60.3623 122.56C64.1737 122.826 66.1311 123.389 69.2373 125.685C71.9802 129.396 71.8162 130.998 71.3623 135.56C70.2782 138.514 68.8592 141.234 67.3623 143.998C66.9807 144.729 66.5992 145.461 66.2061 146.214C65.2708 148.003 64.3183 149.783 63.3623 151.56C62.1475 149.994 62.1475 149.994 61.3623 147.56C62.4009 145.078 63.4596 142.931 64.7998 140.623C67.5663 135.994 67.5663 135.994 68.2139 130.732C67.1506 128.02 65.8127 127.062 63.3623 125.56C62.7023 128.53 62.0423 131.5 61.3623 134.56C60.7023 134.23 60.0423 133.9 59.3623 133.56C59.6923 129.93 60.0223 126.3 60.3623 122.56Z" fill="#0C0A0B"/>
<path d="M91.3624 123.56C91.6924 127.85 92.0224 132.14 92.3624 136.56C89.0452 132.137 89.0577 130.841 89.3624 125.56C86.6631 127.068 86.6631 127.068 84.3624 129.56C84.0823 136.283 87.6815 142.536 90.3624 148.56C89.3724 148.56 88.3824 148.56 87.3624 148.56C86.1803 146.359 85.017 144.151 83.8624 141.935C83.5285 141.318 83.1946 140.7 82.8507 140.064C80.7912 136.071 79.7241 133.048 80.3624 128.56C84.2651 124.385 85.5137 123.56 91.3624 123.56Z" fill="#100E11"/>
<path d="M35.3623 52.5602C35.6923 52.5602 36.0223 52.5602 36.3623 52.5602C36.3623 58.1702 36.3623 63.7802 36.3623 69.5602C37.3523 69.5602 38.3423 69.5602 39.3623 69.5602C39.2798 70.5708 39.1973 71.5814 39.1123 72.6227C39.4196 77.4629 40.7459 79.5539 43.3623 83.5602C44.6823 83.5602 46.0023 83.5602 47.3623 83.5602C46.8673 85.0452 46.8673 85.0452 46.3623 86.5602C42.6094 86.3457 41.4164 85.613 38.6748 82.9352C33.814 77.2036 34.0719 69.7697 34.1748 62.6852C34.1754 61.8189 34.1761 60.9527 34.1767 60.0602C34.2216 53.7009 34.2216 53.7009 35.3623 52.5602Z" fill="#070806"/>
<path d="M103.362 61.5602C103.032 63.8702 102.702 66.1802 102.362 68.5602C94.0169 67.7056 94.0169 67.7056 90.5498 66.9352C88.1602 66.5255 86.6438 66.7997 84.3623 67.5602C85.3892 64.2512 86.4015 63.5382 89.4873 61.8102C93.8717 60.1189 99.0409 59.3995 103.362 61.5602Z" fill="#F4D3B7"/>
<path d="M86.3623 114.56C87.0223 114.56 87.6823 114.56 88.3623 114.56C89.3623 117.623 89.3623 117.623 89.3623 121.56C87.497 123.69 85.5125 125.291 83.2451 126.982C81.0879 128.51 81.0879 128.51 80.3623 131.56C79.3723 131.56 78.3823 131.56 77.3623 131.56C77.4959 124.081 80.1119 120.721 85.3623 115.56C85.6923 115.23 86.0223 114.9 86.3623 114.56Z" fill="#468CC0"/>
<path d="M107.362 62.5602C107.692 62.5602 108.022 62.5602 108.362 62.5602C108.362 64.5402 108.362 66.5202 108.362 68.5602C109.682 68.8902 111.002 69.2202 112.362 69.5602C112.417 70.9764 112.455 72.3933 112.487 73.8102C112.511 74.5991 112.534 75.388 112.558 76.2008C112.341 78.8222 111.79 80.3606 110.362 82.5602C107.737 83.8102 107.737 83.8102 105.362 84.5602C104.216 80.8956 104.785 78.5552 105.815 74.8649C106.775 70.8212 107.04 66.696 107.362 62.5602Z" fill="#2A2824"/>
<path d="M78.3623 119.56C79.0223 119.56 79.6823 119.56 80.3623 119.56C79.8866 121.138 79.8866 121.138 79.4014 122.748C77.9339 128.618 77.9029 134.538 77.7373 140.56C77.6986 141.716 77.66 142.873 77.6201 144.064C77.5265 146.896 77.4408 149.728 77.3623 152.56C76.3723 152.56 75.3823 152.56 74.3623 152.56C74.3623 144.97 74.3623 137.38 74.3623 129.56C75.0223 129.56 75.6823 129.56 76.3623 129.56C76.3211 128.467 76.2798 127.374 76.2373 126.248C76.3623 122.56 76.3623 122.56 78.3623 119.56Z" fill="#111114"/>
<path d="M49.3623 25.5602C50.0223 26.5502 50.6823 27.5402 51.3623 28.5602C50.8428 29.0823 50.3233 29.6043 49.7881 30.1422C43.3026 36.9873 38.9657 44.176 37.3623 53.5602C36.3723 53.5602 35.3823 53.5602 34.3623 53.5602C36.0326 41.6185 41.1392 34.1914 49.3623 25.5602Z" fill="#18110E"/>
<path d="M92.3623 132.56C92.6098 133.179 92.8573 133.798 93.1123 134.435C94.1863 136.71 94.1863 136.71 96.4248 137.56C98.3623 138.56 98.3623 138.56 99.2998 140.248C99.3966 143.83 97.9065 146.348 96.3623 149.56C95.3723 149.23 94.3823 148.9 93.3623 148.56C93.0323 149.22 92.7023 149.88 92.3623 150.56C91.0423 150.56 89.7223 150.56 88.3623 150.56C88.3623 149.9 88.3623 149.24 88.3623 148.56C89.3523 148.56 90.3423 148.56 91.3623 148.56C91.3417 147.653 91.3211 146.745 91.2998 145.81C91.3517 143.11 91.7193 141.132 92.3623 138.56C92.0323 137.9 91.7023 137.24 91.3623 136.56C91.7998 134.435 91.7998 134.435 92.3623 132.56Z" fill="#35251B"/>
<path d="M92.3624 122.56C93.0224 122.56 93.6824 122.56 94.3624 122.56C95.0224 124.21 95.6824 125.86 96.3624 127.56C97.043 126.818 97.043 126.818 97.7374 126.06C99.3624 124.56 99.3624 124.56 101.362 124.56C102.237 126.623 102.237 126.623 102.362 129.56C100.683 132.208 98.7184 134.49 96.3624 136.56C95.7024 136.56 95.0424 136.56 94.3624 136.56C92.4563 133.348 92.1397 131.021 92.2374 127.31C92.2645 125.972 92.2645 125.972 92.2921 124.607C92.3153 123.932 92.3385 123.256 92.3624 122.56Z" fill="#DD692C"/>
<path d="M89.3623 9.56018C97.9333 9.75065 105.03 15.0815 111.05 20.8727C113.362 23.5602 113.362 23.5602 113.362 25.5602C109.906 24.9766 108.325 23.8196 105.862 21.3727C100.974 16.8915 95.3556 14.2872 89.3623 11.5602C89.3623 10.9002 89.3623 10.2402 89.3623 9.56018Z" fill="#0C0D0F"/>
<path d="M98.3623 52.5602C104.003 53.6464 107.74 57.1799 110.925 61.8531C114.362 67.8395 114.362 67.8395 114.362 71.5602C113.702 71.5602 113.042 71.5602 112.362 71.5602C112.032 70.9002 111.702 70.2402 111.362 69.5602C110.372 69.2302 109.382 68.9002 108.362 68.5602C108.022 67.0133 108.022 67.0133 107.675 65.4352C106.612 60.8743 103.621 58.8235 100.042 56.0406C99.2105 55.3078 99.2105 55.3078 98.3623 54.5602C98.3623 53.9002 98.3623 53.2402 98.3623 52.5602Z" fill="#0D0908"/>
<path d="M69.3623 99.5602C70.8875 99.6496 72.4091 99.8056 73.9248 99.9977C74.7511 100.1 75.5774 100.201 76.4287 100.306C77.0668 100.39 77.7049 100.474 78.3623 100.56C78.0323 101.22 77.7023 101.88 77.3623 102.56C76.7023 102.56 76.0423 102.56 75.3623 102.56C75.6923 103.55 76.0223 104.54 76.3623 105.56C75.7023 105.56 75.0423 105.56 74.3623 105.56C74.3623 106.22 74.3623 106.88 74.3623 107.56C72.6748 108.248 72.6748 108.248 70.3623 108.56C67.6123 107.123 67.6123 107.123 65.3623 105.56C68.2373 100.685 68.2373 100.685 69.3623 99.5602Z" fill="#F8DCC2"/>
<path d="M28.3623 45.5602C29.0223 45.5602 29.6823 45.5602 30.3623 45.5602C30.3623 53.1502 30.3623 60.7402 30.3623 68.5602C29.3723 68.8902 28.3823 69.2202 27.3623 69.5602C27.3334 65.7477 27.3155 61.9352 27.2998 58.1227C27.2914 57.0341 27.283 55.9455 27.2744 54.8239C27.2712 53.7894 27.268 52.7549 27.2646 51.6891C27.2594 50.7307 27.2542 49.7724 27.2488 48.785C27.3623 46.5602 27.3623 46.5602 28.3623 45.5602Z" fill="#1A0F1D"/>
<path d="M57.3623 108.56C59.0123 108.89 60.6623 109.22 62.3623 109.56C61.1376 115.561 58.7931 119.31 54.3623 123.56C54.0323 123.56 53.7023 123.56 53.3623 123.56C53.0323 121.25 52.7023 118.94 52.3623 116.56C53.3214 116.251 53.3214 116.251 54.2998 115.935C56.7116 114.665 56.7116 114.665 57.1123 111.435C57.1948 110.486 57.2773 109.538 57.3623 108.56Z" fill="#E26829"/>
<path d="M63.3623 114.56C66.7344 116.005 69.0611 117.684 71.3623 120.56C71.6123 123.31 71.6123 123.31 71.3623 125.56C70.3723 125.89 69.3823 126.22 68.3623 126.56C64.0595 123.912 64.0595 123.912 62.3623 121.56C62.4873 117.748 62.4873 117.748 63.3623 114.56Z" fill="#4997C6"/>
<path d="M82.3623 113.56C80.5492 117.337 78.455 120.933 76.3623 124.56C74.4702 122.174 73.3384 120.488 72.3623 117.56C73.0498 115.435 73.0498 115.435 74.3623 113.56C77.3087 112.283 79.3537 112.593 82.3623 113.56Z" fill="#EFDAC5"/>
<path d="M67.3623 26.5602C75.9035 25.944 83.4505 27.1999 91.3623 30.5602C93.2373 32.1969 93.2373 32.1969 94.3623 33.5602C90.8063 33.1247 87.4844 32.597 84.0498 31.5602C80.1708 30.5082 76.5955 30.194 72.5967 30.0016C69.9557 29.4798 69.0449 28.6088 67.3623 26.5602Z" fill="#28160D"/>
<path d="M28.3624 67.5602C30.3624 68.5602 30.3624 68.5602 31.6163 71.9821C32.0604 73.4224 32.4962 74.8652 32.9249 76.3102C33.1459 77.0269 33.367 77.7436 33.5948 78.4821C34.7109 82.1508 35.6996 85.777 36.3624 89.5602C33.3624 88.5602 33.3624 88.5602 32.2296 86.4156C31.7384 85.095 31.7384 85.095 31.2374 83.7477C30.9048 82.875 30.5722 82.0023 30.2296 81.1031C28.6249 76.3976 28.266 72.5716 28.3624 67.5602Z" fill="#0B0A0D"/>
<path d="M91.3623 116.56C93.6956 118.894 96.029 121.227 98.3623 123.56C97.9873 126.185 97.9873 126.185 97.3623 128.56C96.7023 128.23 96.0423 127.9 95.3623 127.56C94.7373 124.998 94.7373 124.998 94.3623 122.56C93.7023 122.56 93.0423 122.56 92.3623 122.56C92.3623 125.2 92.3623 127.84 92.3623 130.56C92.0323 130.56 91.7023 130.56 91.3623 130.56C91.3623 128.25 91.3623 125.94 91.3623 123.56C90.0423 123.23 88.7223 122.9 87.3623 122.56C88.335 121.207 89.3362 119.874 90.3623 118.56C90.6923 118.56 91.0223 118.56 91.3623 118.56C91.3623 117.9 91.3623 117.24 91.3623 116.56Z" fill="#331E1B"/>
<path d="M121.362 71.5602C121.692 71.5602 122.022 71.5602 122.362 71.5602C122.181 79.2958 120.214 84.8802 116.362 91.5602C115.372 91.5602 114.382 91.5602 113.362 91.5602C113.639 90.8847 113.917 90.2092 114.202 89.5133C116.013 84.9039 117.607 80.2189 119.241 75.5446C120.362 72.5602 120.362 72.5602 121.362 71.5602Z" fill="#0D090E"/>
<path d="M33.3624 54.5602C33.6924 54.5602 34.0224 54.5602 34.3624 54.5602C34.423 55.7899 34.4836 57.0197 34.546 58.2867C34.6305 59.9196 34.7151 61.5524 34.7999 63.1852C34.8392 63.9934 34.8786 64.8017 34.9191 65.6344C35.1055 69.1623 35.3542 72.515 35.9874 75.9977C36.3624 78.5602 36.3624 78.5602 34.9249 80.9352C34.4093 81.4714 33.8937 82.0077 33.3624 82.5602C32.9984 81.1251 32.6466 79.687 32.2999 78.2477C32.0041 77.0469 32.0041 77.0469 31.7023 75.8219C31.3624 73.5602 31.3624 73.5602 32.3624 70.5602C32.5904 67.8273 32.7791 65.1098 32.9249 62.3727C32.9681 61.6231 33.0113 60.8735 33.0558 60.1012C33.1616 58.2544 33.2625 56.4073 33.3624 54.5602Z" fill="#79286A"/>
<path d="M58.3623 132.56C59.0223 132.89 59.6823 133.22 60.3623 133.56C59.8563 135.729 59.3625 137.56 58.3623 139.56C58.1361 141.264 57.9534 142.973 57.7998 144.685C57.716 145.595 57.6322 146.505 57.5459 147.443C57.4853 148.142 57.4247 148.84 57.3623 149.56C56.3723 149.23 55.3823 148.9 54.3623 148.56C54.3623 146.58 54.3623 144.6 54.3623 142.56C53.7023 142.56 53.0423 142.56 52.3623 142.56C53.4301 140.425 54.6536 138.456 55.9248 136.435C56.3798 135.711 56.8349 134.986 57.3037 134.24C57.653 133.686 58.0024 133.131 58.3623 132.56Z" fill="#1E1612"/>
<path d="M40.3622 69.5602C43.347 74.0374 44.3622 78.1984 44.3622 83.5602C41.3622 82.5602 41.3622 82.5602 39.6747 79.8102C38.4122 76.6839 37.9027 74.8684 38.3622 71.5602C39.0222 70.9002 39.6822 70.2402 40.3622 69.5602Z" fill="#DAC2AC"/>
<path d="M35.3623 41.5602C36.0223 42.2202 36.6823 42.8802 37.3623 43.5602C36.3723 47.1902 35.3823 50.8202 34.3623 54.5602C30.3623 50.5602 30.3623 50.5602 30.1904 48.4196C30.5811 46.4664 30.9717 44.5133 31.3623 42.5602C33.2373 41.9352 33.2373 41.9352 35.3623 41.5602Z" fill="#952D81"/>
<path d="M103.362 61.5602C103.362 62.2202 103.362 62.8802 103.362 63.5602C102.527 63.4906 102.527 63.4906 101.675 63.4195C96.2221 63.1616 92.7143 63.9372 87.9912 66.6852C86.3623 67.5602 86.3623 67.5602 84.3623 67.5602C85.3892 64.2512 86.4015 63.5382 89.4873 61.8102C93.8717 60.1189 99.0409 59.3995 103.362 61.5602Z" fill="#1E1B18"/>
<path d="M78.3623 43.5602C79.0223 43.5602 79.6823 43.5602 80.3623 43.5602C78.9017 48.0747 76.6317 51.1387 73.3623 54.5602C70.5498 55.9352 70.5498 55.9352 68.3623 56.5602C68.6909 53.4933 69.2584 52.6473 71.6748 50.6227C72.5617 49.9421 73.4486 49.2614 74.3623 48.5602C75.0842 47.6527 75.8061 46.7452 76.5498 45.8102C77.1479 45.0677 77.7461 44.3252 78.3623 43.5602Z" fill="#1B100C"/>
<path d="M110.362 68.5602C111.022 68.8902 111.682 69.2202 112.362 69.5602C112.417 70.9764 112.455 72.3933 112.487 73.8102C112.511 74.5991 112.534 75.388 112.558 76.2008C112.337 78.8653 111.864 80.3504 110.362 82.5602C108.382 83.5502 108.382 83.5502 106.362 84.5602C107.682 79.2802 109.002 74.0002 110.362 68.5602Z" fill="#E5D0B3"/>
<path d="M70.3623 6.56019C77.3127 6.29401 83.5974 6.94814 90.3623 8.56019C90.0323 9.55019 89.7023 10.5402 89.3623 11.5602C86.9432 11.3044 84.5282 11.0313 82.1123 10.7477C81.4304 10.6774 80.7485 10.6072 80.0459 10.5348C76.0038 10.0443 73.3568 9.37722 70.3623 6.56019Z" fill="#171925"/>
<path d="M78.3623 119.56C79.0223 119.56 79.6823 119.56 80.3623 119.56C80.1573 120.348 79.9524 121.135 79.7412 121.947C77.7905 129.834 76.7473 137.449 76.3623 145.56C76.0323 145.56 75.7023 145.56 75.3623 145.56C75.0323 140.28 74.7023 135 74.3623 129.56C75.0223 129.56 75.6823 129.56 76.3623 129.56C76.3211 128.467 76.2798 127.374 76.2373 126.248C76.3623 122.56 76.3623 122.56 78.3623 119.56Z" fill="#0A0706"/>
<path d="M69.3623 115.56C76.2498 122.085 76.2498 122.085 76.4873 127.31C76.4461 128.053 76.4048 128.795 76.3623 129.56C75.3723 129.89 74.3823 130.22 73.3623 130.56C73.0942 129.343 72.8261 128.126 72.5498 126.873C71.6812 123.316 70.2891 120.68 68.3623 117.56C68.6923 116.9 69.0223 116.24 69.3623 115.56Z" fill="#222526"/>
<path d="M114.362 49.5602C115.022 49.5602 115.682 49.5602 116.362 49.5602C117.617 53.3232 117.469 56.8323 117.425 60.7477C117.42 61.4973 117.416 62.2469 117.411 63.0192C117.399 64.8662 117.381 66.7132 117.362 68.5602C116.702 68.5602 116.042 68.5602 115.362 68.5602C115.032 62.2902 114.702 56.0202 114.362 49.5602Z" fill="#120A0C"/>
<path d="M95.3623 119.56C97.8373 120.55 97.8373 120.55 100.362 121.56C100.692 120.9 101.022 120.24 101.362 119.56C102.352 119.89 103.342 120.22 104.362 120.56C104.032 122.87 103.702 125.18 103.362 127.56C102.702 127.56 102.042 127.56 101.362 127.56C101.362 126.57 101.362 125.58 101.362 124.56C100.372 124.89 99.3823 125.22 98.3623 125.56C95.3623 121.81 95.3623 121.81 95.3623 119.56Z" fill="#CA5D25"/>
<path d="M121.362 52.5602C121.692 52.5602 122.022 52.5602 122.362 52.5602C122.362 55.5302 122.362 58.5002 122.362 61.5602C123.022 61.5602 123.682 61.5602 124.362 61.5602C124.032 65.8502 123.702 70.1402 123.362 74.5602C122.372 73.9002 121.382 73.2402 120.362 72.5602C120.114 70.4972 120.114 70.4972 120.288 67.9899C120.343 67.094 120.398 66.1981 120.454 65.275C120.527 64.3379 120.6 63.4007 120.675 62.4352C120.736 61.4903 120.797 60.5454 120.86 59.5719C121.014 57.2334 121.182 54.8968 121.362 52.5602Z" fill="#241324"/>
<path d="M44.3623 64.5602C47.6623 64.5602 50.9623 64.5602 54.3623 64.5602C54.3623 65.2202 54.3623 65.8802 54.3623 66.5602C53.5786 66.8489 52.7948 67.1377 51.9873 67.4352C49.2656 68.4093 49.2656 68.4093 47.3623 70.5602C46.3723 70.5602 45.3823 70.5602 44.3623 70.5602C44.3623 68.5802 44.3623 66.6002 44.3623 64.5602Z" fill="#F8DAC0"/>
<path d="M88.3623 114.56C88.6923 116.87 89.0223 119.18 89.3623 121.56C88.3723 122.055 88.3723 122.055 87.3623 122.56C87.0323 121.9 86.7023 121.24 86.3623 120.56C85.3723 120.23 84.3823 119.9 83.3623 119.56C83.0323 120.55 82.7023 121.54 82.3623 122.56C81.7023 122.56 81.0423 122.56 80.3623 122.56C81.8794 119.02 84.1155 114.56 88.3623 114.56Z" fill="#4790C3"/>
<path d="M48.3623 100.56C51.9498 101.893 55.1988 103.391 58.3623 105.56C58.3623 106.22 58.3623 106.88 58.3623 107.56C56.3823 108.55 56.3823 108.55 54.3623 109.56C54.0323 108.57 53.7023 107.58 53.3623 106.56C51.4063 105.163 49.4079 103.822 47.3623 102.56C47.6923 101.9 48.0223 101.24 48.3623 100.56Z" fill="#070706"/>
<path d="M112.362 91.5602C113.352 91.8902 114.342 92.2202 115.362 92.5602C114.558 93.3852 113.754 94.2102 112.925 95.0602C109.807 98.7413 109.607 101.824 109.362 106.56C109.032 106.56 108.702 106.56 108.362 106.56C107.362 99.9352 107.362 99.9352 107.362 96.5602C109.862 93.8727 109.862 93.8727 112.362 91.5602Z" fill="#221315"/>
<path d="M36.3623 88.5602C39.2943 91.4129 42.0055 94.211 44.3623 97.5602C43.3723 97.5602 42.3823 97.5602 41.3623 97.5602C41.0323 98.8802 40.7023 100.2 40.3623 101.56C40.1148 100.694 39.8673 99.8277 39.6123 98.9352C38.2945 95.3772 36.5604 92.6376 34.3623 89.5602C35.0223 89.2302 35.6823 88.9002 36.3623 88.5602Z" fill="#1B151D"/>
<path d="M38.3624 45.5602C39.3524 46.2202 40.3424 46.8802 41.3624 47.5602C41.1574 48.1544 40.9525 48.7487 40.7413 49.361C38.6588 55.7679 37.7328 61.8426 37.3624 68.5602C37.0324 68.5602 36.7024 68.5602 36.3624 68.5602C35.9934 52.8153 35.9934 52.8153 38.3624 45.5602Z" fill="#B9582C"/>
<path d="M70.3622 122.56C71.0222 122.56 71.6822 122.56 72.3622 122.56C74.7908 130.989 74.7908 130.989 73.3622 135.56C71.3622 134.56 71.3622 134.56 70.6942 132.599C70.4371 131.404 70.4371 131.404 70.1747 130.185C69.9955 129.394 69.8164 128.602 69.6317 127.787C69.3622 125.56 69.3622 125.56 70.3622 122.56Z" fill="#3D8ABF"/>
<path d="M86.3623 123.56C88.0123 123.56 89.6623 123.56 91.3623 123.56C91.6923 127.85 92.0223 132.14 92.3623 136.56C89.0452 132.137 89.0576 130.841 89.3623 125.56C88.3723 125.89 87.3823 126.22 86.3623 126.56C86.3623 125.57 86.3623 124.58 86.3623 123.56Z" fill="#0E0B0D"/>
<path d="M70.3623 96.5602C73.9923 96.5602 77.6223 96.5602 81.3623 96.5602C81.6923 97.2202 82.0223 97.8802 82.3623 98.5602C78.035 100.789 75.0783 100.485 70.3623 99.5602C70.3623 98.5702 70.3623 97.5802 70.3623 96.5602Z" fill="#2A251F"/>
<path d="M47.3623 83.5602C49.0725 86.1254 50.2665 88.4398 51.4873 91.2477C51.8405 92.0559 52.1937 92.8642 52.5576 93.6969C52.8232 94.3118 53.0887 94.9267 53.3623 95.5602C52.3723 95.8902 51.3823 96.2202 50.3623 96.5602C46.3623 89.8102 46.3623 89.8102 46.3623 87.5602C45.7023 87.2302 45.0423 86.9002 44.3623 86.5602C45.3523 85.5702 46.3423 84.5802 47.3623 83.5602Z" fill="#1E171A"/>
<path d="M45.3623 63.5602C47.2997 63.5331 49.2373 63.5138 51.1748 63.4977C52.2537 63.4861 53.3327 63.4745 54.4443 63.4625C57.3623 63.5602 57.3623 63.5602 60.3623 64.5602C59.7023 65.8802 59.0423 67.2002 58.3623 68.5602C55.7223 68.2302 53.0823 67.9002 50.3623 67.5602C51.6823 67.2302 53.0023 66.9002 54.3623 66.5602C54.3623 65.9002 54.3623 65.2402 54.3623 64.5602C51.3923 64.5602 48.4223 64.5602 45.3623 64.5602C45.3623 64.2302 45.3623 63.9002 45.3623 63.5602Z" fill="#CAAF97"/>
<path d="M42.3623 99.5602C43.3523 100.055 43.3523 100.055 44.3623 100.56C44.3159 101.14 44.2695 101.72 44.2217 102.318C43.9522 108.151 44.6501 111.036 48.3623 115.56C47.3723 116.22 46.3823 116.88 45.3623 117.56C42.9063 115.007 42.3743 113.701 42.0693 110.107C42.1041 108.854 42.1389 107.601 42.1748 106.31C42.2019 105.047 42.2289 103.784 42.2568 102.482C42.2916 101.518 42.3264 100.554 42.3623 99.5602Z" fill="#301C16"/>
<path d="M63.3623 109.56C64.0223 109.56 64.6823 109.56 65.3623 109.56C65.6511 110.2 65.9398 110.839 66.2373 111.498C67.1905 113.712 67.1905 113.712 69.3623 114.56C69.3623 115.55 69.3623 116.54 69.3623 117.56C67.3623 116.56 65.3623 115.56 63.3623 114.56C63.3623 115.55 63.3623 116.54 63.3623 117.56C62.7023 117.56 62.0423 117.56 61.3623 117.56C61.885 114.797 62.471 112.234 63.3623 109.56Z" fill="#111211"/>
<path d="M91.3623 47.5602C89.8609 51.7641 87.1896 53.4513 83.3623 55.5602C82.3723 55.2302 81.3823 54.9002 80.3623 54.5602C83.1455 51.4677 87.0519 47.5602 91.3623 47.5602Z" fill="#140F0F"/>
<path d="M71.6123 27.4977C72.69 27.5067 73.7676 27.5157 74.8779 27.525C75.6978 27.5366 76.5176 27.5482 77.3623 27.5602C77.3623 27.8902 77.3623 28.2202 77.3623 28.5602C75.1149 29.092 72.8642 29.6102 70.6123 30.1227C68.7329 30.5577 68.7329 30.5577 66.8154 31.0016C63.7676 31.4946 62.1859 31.6368 59.3623 30.5602C62.9255 26.997 66.7539 27.4449 71.6123 27.4977Z" fill="#0A0605"/>
<path d="M57.3623 60.5602C58.0223 60.5602 58.6823 60.5602 59.3623 60.5602C59.3623 61.2202 59.3623 61.8802 59.3623 62.5602C59.9398 62.6633 60.5173 62.7664 61.1123 62.8727C63.7189 63.6691 65.3358 64.7508 67.3623 66.5602C67.3623 67.2202 67.3623 67.8802 67.3623 68.5602C63.5713 67.1107 59.9748 65.4085 56.3623 63.5602C56.6923 62.5702 57.0223 61.5802 57.3623 60.5602Z" fill="#27221F"/>
<path d="M86.3623 109.56C86.0498 111.498 86.0498 111.498 85.3623 113.56C82.0653 114.659 80.9574 114.431 77.6748 113.623C76.4624 113.331 76.4624 113.331 75.2256 113.033C74.3033 112.799 74.3033 112.799 73.3623 112.56C73.3623 112.23 73.3623 111.9 73.3623 111.56C74.9657 111.223 76.5701 110.891 78.1748 110.56C79.0681 110.375 79.9614 110.189 80.8818 109.998C83.3623 109.56 83.3623 109.56 86.3623 109.56Z" fill="#DCC8AF"/>
<path d="M35.3623 78.5602C37.0123 80.2102 38.6623 81.8602 40.3623 83.5602C39.3723 85.0452 39.3723 85.0452 38.3623 86.5602C37.3723 86.5602 36.3823 86.5602 35.3623 86.5602C34.2373 80.8102 34.2373 80.8102 35.3623 78.5602Z" fill="#912F7E"/>
<path d="M44.3623 73.5602C46.6586 77.0047 46.9025 79.4983 47.3623 83.5602C46.0423 83.8902 44.7223 84.2202 43.3623 84.5602C43.3354 82.9144 43.316 81.2686 43.2998 79.6227C43.2882 78.7062 43.2766 77.7896 43.2646 76.8453C43.3623 74.5602 43.3623 74.5602 44.3623 73.5602Z" fill="#282321"/>
<path d="M37.3623 79.5602C39.2373 79.8727 39.2373 79.8727 41.3623 80.5602C42.0223 81.5502 42.6823 82.5402 43.3623 83.5602C44.6823 83.5602 46.0023 83.5602 47.3623 83.5602C47.0323 84.5502 46.7023 85.5402 46.3623 86.5602C42.0742 86.0837 40.0958 84.9012 37.3623 81.5602C37.3623 80.9002 37.3623 80.2402 37.3623 79.5602Z" fill="#100E0E"/>
<path d="M88.3623 65.5602C90.0123 65.8902 91.6623 66.2202 93.3623 66.5602C91.9547 69.3754 90.1365 70.1731 87.3623 71.5602C86.3723 71.2302 85.3823 70.9002 84.3623 70.5602C84.6923 69.9002 85.0223 69.2402 85.3623 68.5602C86.0223 68.5602 86.6823 68.5602 87.3623 68.5602C87.6923 67.5702 88.0223 66.5802 88.3623 65.5602Z" fill="#F2D8BE"/>
<path d="M46.3623 120.56C46.6923 120.56 47.0223 120.56 47.3623 120.56C47.651 121.633 47.9398 122.705 48.2373 123.81C49.0905 126.654 49.9259 128.995 51.3623 131.56C50.3723 131.89 49.3823 132.22 48.3623 132.56C45.8746 129.276 45.3305 127.948 45.6748 123.748C45.9017 122.696 46.1285 121.644 46.3623 120.56Z" fill="#281917"/>
<path d="M98.3623 52.5602C101.618 52.909 102.381 53.5815 104.612 56.1227C105.19 56.9271 105.767 57.7314 106.362 58.5602C105.372 58.8902 104.382 59.2202 103.362 59.5602C101.653 57.9368 99.9878 56.267 98.3623 54.5602C98.3623 53.9002 98.3623 53.2402 98.3623 52.5602Z" fill="#170F0E"/>
<path d="M57.3623 139.56C60.7373 144.06 60.7373 144.06 60.3623 148.56C59.3723 148.89 58.3823 149.22 57.3623 149.56C57.3623 146.26 57.3623 142.96 57.3623 139.56Z" fill="#120C0D"/>
<path d="M52.3623 106.56C53.0223 106.56 53.6823 106.56 54.3623 106.56C54.0323 109.2 53.7023 111.84 53.3623 114.56C54.0223 114.56 54.6823 114.56 55.3623 114.56C55.6923 113.9 56.0223 113.24 56.3623 112.56C56.6923 113.55 57.0223 114.54 57.3623 115.56C55.7062 115.942 54.0377 116.274 52.3623 116.56C52.0323 116.23 51.7023 115.9 51.3623 115.56C51.4517 114.035 51.6077 112.513 51.7998 110.998C51.9016 110.171 52.0035 109.345 52.1084 108.494C52.1922 107.856 52.276 107.218 52.3623 106.56Z" fill="#D35B1D"/>
<path d="M52.3623 95.5602C54.3423 97.2102 56.3223 98.8602 58.3623 100.56C58.0323 101.55 57.7023 102.54 57.3623 103.56C52.4873 99.9352 52.4873 99.9352 51.3623 96.5602C51.6923 96.2302 52.0223 95.9002 52.3623 95.5602Z" fill="#0B070A"/>
<path d="M120.362 52.5602C120.692 52.5602 121.022 52.5602 121.362 52.5602C121.362 57.1802 121.362 61.8002 121.362 66.5602C118.362 63.5602 118.362 63.5602 118.175 60.8727C118.237 60.1096 118.299 59.3464 118.362 58.5602C119.022 58.5602 119.682 58.5602 120.362 58.5602C120.362 56.5802 120.362 54.6002 120.362 52.5602Z" fill="#A33489"/>
<path d="M37.3623 57.5602C37.6923 57.5602 38.0223 57.5602 38.3623 57.5602C38.6923 60.8602 39.0223 64.1602 39.3623 67.5602C40.3523 67.8902 41.3423 68.2202 42.3623 68.5602C42.0323 69.8802 41.7023 71.2002 41.3623 72.5602C40.7023 71.9002 40.0423 71.2402 39.3623 70.5602C38.3723 69.9002 37.3823 69.2402 36.3623 68.5602C36.6923 64.9302 37.0223 61.3002 37.3623 57.5602Z" fill="#2F2520"/>
<path d="M100.362 62.5602C100.362 62.8902 100.362 63.2202 100.362 63.5602C99.1557 63.7458 99.1557 63.7458 97.9248 63.9352C97.0792 64.1414 96.2336 64.3477 95.3623 64.5602C95.0323 65.2202 94.7023 65.8802 94.3623 66.5602C96.3423 66.5602 98.3223 66.5602 100.362 66.5602C100.362 66.8902 100.362 67.2202 100.362 67.5602C93.8392 67.9294 93.8392 67.9294 91.4248 66.0602C91.0742 65.5652 90.7236 65.0702 90.3623 64.5602C93.7643 62.4667 96.415 62.3808 100.362 62.5602Z" fill="#AD937F"/>
<path d="M111.362 42.5602C112.022 42.5602 112.682 42.5602 113.362 42.5602C115.166 45.3194 115.375 46.4499 114.987 49.8102C114.781 50.7177 114.575 51.6252 114.362 52.5602C112.839 49.623 111.561 46.6433 110.362 43.5602C110.692 43.2302 111.022 42.9002 111.362 42.5602Z" fill="#281612"/>
<path d="M63.3623 143.56C64.6823 143.89 66.0023 144.22 67.3623 144.56C66.0423 146.87 64.7223 149.18 63.3623 151.56C62.2373 149.81 62.2373 149.81 61.3623 147.56C62.2373 145.31 62.2373 145.31 63.3623 143.56Z" fill="#0D0E15"/>
<path d="M87.3623 125.56C87.6923 125.56 88.0223 125.56 88.3623 125.56C88.3623 127.87 88.3623 130.18 88.3623 132.56C86.7123 132.23 85.0623 131.9 83.3623 131.56C84.514 129.092 85.4101 127.512 87.3623 125.56Z" fill="#A1309C"/>
<path d="M64.3623 123.56C67.7295 124.954 69.3483 126.539 71.3623 129.56C70.3723 129.89 69.3823 130.22 68.3623 130.56C66.7123 128.58 65.0623 126.6 63.3623 124.56C63.6923 124.23 64.0223 123.9 64.3623 123.56Z" fill="#16151B"/>
<path d="M101.362 93.5602C99.8979 98.1973 99.8979 98.1973 97.4248 99.8727C95.3623 100.56 95.3623 100.56 92.3623 100.56C93.4811 99.3876 94.6075 98.2222 95.7373 97.0602C96.677 96.0856 96.677 96.0856 97.6357 95.0914C99.3623 93.5602 99.3623 93.5602 101.362 93.5602Z" fill="#1E1816"/>
<path d="M35.3623 130.56C35.3623 133.56 35.3623 133.56 33.3623 135.748C32.7023 136.346 32.0423 136.944 31.3623 137.56C30.7023 137.23 30.0423 136.9 29.3623 136.56C30.6078 132.824 31.9964 132.373 35.3623 130.56Z" fill="#912D81"/>
<path d="M94.3623 120.56C95.6823 121.55 97.0023 122.54 98.3623 123.56C98.0323 125.21 97.7023 126.86 97.3623 128.56C96.7023 128.23 96.0423 127.9 95.3623 127.56C94.955 125.239 94.6179 122.903 94.3623 120.56Z" fill="#211311"/>
<path d="M56.3623 107.56C57.0223 107.89 57.6823 108.22 58.3623 108.56C57.3723 110.54 56.3823 112.52 55.3623 114.56C54.7023 114.56 54.0423 114.56 53.3623 114.56C53.3623 112.58 53.3623 110.6 53.3623 108.56C54.3523 108.23 55.3423 107.9 56.3623 107.56Z" fill="#20140C"/>
<path d="M83.3623 113.56C83.6923 114.88 84.0223 116.2 84.3623 117.56C83.0423 118.55 81.7223 119.54 80.3623 120.56C79.7023 119.9 79.0423 119.24 78.3623 118.56C80.0123 116.91 81.6623 115.26 83.3623 113.56Z" fill="#202020"/>
<path d="M85.3623 106.56C85.6923 107.55 86.0223 108.54 86.3623 109.56C84.0523 110.22 81.7423 110.88 79.3623 111.56C79.0323 110.57 78.7023 109.58 78.3623 108.56C83.1123 106.56 83.1123 106.56 85.3623 106.56Z" fill="#2D2925"/>
<path d="M110.362 68.5602C111.022 68.8902 111.682 69.2202 112.362 69.5602C112.362 71.8702 112.362 74.1802 112.362 76.5602C111.372 76.5602 110.382 76.5602 109.362 76.5602C109.692 73.9202 110.022 71.2802 110.362 68.5602Z" fill="#EDD7B8"/>
<path d="M86.3623 125.56C85.1585 128.054 83.908 130.242 82.3623 132.56C82.3623 131.57 82.3623 130.58 82.3623 129.56C81.7023 129.23 81.0423 128.9 80.3623 128.56C82.9873 125.56 82.9873 125.56 86.3623 125.56Z" fill="#191421"/>
<path d="M78.3623 123.56C79.9248 125.31 79.9248 125.31 81.3623 127.56C81.0498 129.81 81.0498 129.81 80.3623 131.56C79.3723 131.56 78.3823 131.56 77.3623 131.56C77.6923 128.92 78.0223 126.28 78.3623 123.56Z" fill="#3976AA"/>
<path d="M101.362 58.5602C103.837 59.5502 103.837 59.5502 106.362 60.5602C106.362 61.5502 106.362 62.5402 106.362 63.5602C105.042 63.8902 103.722 64.2202 102.362 64.5602C102.692 63.5702 103.022 62.5802 103.362 61.5602C102.702 61.2302 102.042 60.9002 101.362 60.5602C101.362 59.9002 101.362 59.2402 101.362 58.5602Z" fill="#D8B6A0"/>
<path d="M30.3623 47.5602C32.8373 48.0552 32.8373 48.0552 35.3623 48.5602C35.0323 50.5402 34.7023 52.5202 34.3623 54.5602C32.3623 52.7477 32.3623 52.7477 30.3623 50.5602C30.3623 49.5702 30.3623 48.5802 30.3623 47.5602Z" fill="#872876"/>
<path d="M84.3623 7.56018C87.3323 8.05518 87.3323 8.05518 90.3623 8.56018C90.0323 9.55018 89.7023 10.5402 89.3623 11.5602C86.7223 11.2302 84.0823 10.9002 81.3623 10.5602C82.3523 10.2302 83.3423 9.90018 84.3623 9.56018C84.3623 8.90018 84.3623 8.24018 84.3623 7.56018Z" fill="#1B141B"/>
<path d="M55.3623 142.56C57.3623 144.56 57.3623 144.56 57.4873 147.185C57.4461 147.969 57.4048 148.753 57.3623 149.56C56.3723 149.23 55.3823 148.9 54.3623 148.56C54.3196 146.894 54.3217 145.226 54.3623 143.56C54.6923 143.23 55.0223 142.9 55.3623 142.56Z" fill="#AC6C32"/>
<path d="M99.3623 132.56C100.022 132.56 100.682 132.56 101.362 132.56C100.612 134.998 100.612 134.998 99.3623 137.56C97.2373 138.373 97.2373 138.373 95.3623 138.56C98.2373 133.685 98.2373 133.685 99.3623 132.56Z" fill="#110F0D"/>
<path d="M78.3623 119.56C79.0223 119.56 79.6823 119.56 80.3623 119.56C79.7023 122.2 79.0423 124.84 78.3623 127.56C77.7023 127.23 77.0423 126.9 76.3623 126.56C77.2373 120.685 77.2373 120.685 78.3623 119.56Z" fill="#10110F"/>
<path d="M98.3623 98.5602C99.0223 98.8902 99.6823 99.2202 100.362 99.5602C100.032 100.55 99.7023 101.54 99.3623 102.56C96.2998 103.748 96.2998 103.748 93.3623 104.56C95.0123 102.58 96.6623 100.6 98.3623 98.5602Z" fill="#902F7E"/>
<path d="M60.3623 65.5602C62.3423 66.0552 62.3423 66.0552 64.3623 66.5602C64.0323 67.8802 63.7023 69.2002 63.3623 70.5602C62.0423 69.9002 60.7223 69.2402 59.3623 68.5602C59.6923 67.5702 60.0223 66.5802 60.3623 65.5602Z" fill="#E4C7AD"/>
<path d="M92.3623 40.5602C92.4654 41.1789 92.5686 41.7977 92.6748 42.4352C93.2376 44.9254 93.2376 44.9254 96.3623 46.5602C94.7123 47.2202 93.0623 47.8802 91.3623 48.5602C90.7023 47.9002 90.0423 47.2402 89.3623 46.5602C90.3523 44.5802 91.3423 42.6002 92.3623 40.5602Z" fill="#2C1E1A"/>
</svg>
