<svg width="153" height="152" viewBox="0 0 153 152" fill="none" xmlns="http://www.w3.org/2000/svg">
<path d="M119.883 13.8549C123.398 16.6843 126.665 19.6935 129.883 22.8549C131.045 23.9802 131.045 23.9802 132.23 25.1283C145.132 38.4506 152.294 56.9368 152.258 75.4174C152.256 76.2814 152.255 77.1455 152.253 78.0358C152.039 89.4453 149.395 100.796 143.883 110.855C143.448 111.677 143.014 112.5 142.566 113.347C139.013 119.493 134.627 124.548 129.695 129.605C129.089 130.238 128.483 130.871 127.858 131.524C126.983 132.391 126.983 132.391 126.09 133.277C125.569 133.798 125.048 134.32 124.511 134.858C122.883 135.855 122.883 135.855 120.682 135.516C119.792 135.189 119.792 135.189 118.883 134.855C118.689 135.441 118.496 136.028 118.297 136.632C116.302 139.768 113.525 140.898 110.258 142.417C109.621 142.722 108.985 143.026 108.329 143.34C106.521 144.195 104.702 145.026 102.883 145.855C102.13 146.2 101.377 146.546 100.602 146.902C84.1243 153.744 66.4918 151.459 49.8828 146.855C49.5528 145.535 49.2228 144.215 48.8828 142.855C49.8728 142.855 50.8628 142.855 51.8828 142.855C51.9097 140.396 51.9296 137.938 51.9453 135.48C51.9578 134.432 51.9578 134.432 51.9707 133.363C52.0663 129.482 52.0663 129.482 50.8828 125.855C48.4078 126.35 48.4078 126.35 45.8828 126.855C45.3878 133.29 45.3878 133.29 44.8828 139.855C44.5528 139.855 44.2228 139.855 43.8828 139.855C43.8338 138.974 43.7848 138.094 43.7343 137.187C43.6596 136.025 43.5848 134.864 43.5078 133.667C43.4382 132.519 43.3686 131.37 43.2968 130.187C42.9077 127.055 42.2018 124.702 40.8828 121.855C38.9028 122.35 38.9028 122.35 36.8828 122.855C36.5528 128.135 36.2228 133.415 35.8828 138.855C34.8928 138.195 33.9028 137.535 32.8828 136.855C32.8828 136.195 32.8828 135.535 32.8828 134.855C32.1609 134.958 31.439 135.061 30.6953 135.167C26.7657 134.731 25.3473 132.695 22.8828 129.855C22.188 129.115 21.4932 128.375 20.7773 127.613C6.64875 112.419 0.451439 96.1846 0.570279 75.4174C0.576563 73.9069 0.576563 73.9069 0.582974 72.3658C0.692466 65.1644 1.40001 58.6611 3.88278 51.8549C4.16122 51.0144 4.43965 50.1739 4.72653 49.308C11.7233 29.8858 27.2895 15.0435 45.5698 6.16199C68.774 -4.49128 99.2196 -0.952615 119.883 13.8549Z" fill="#72AE51"/>
<path d="M119.883 13.8549C123.398 16.6843 126.665 19.6935 129.883 22.8549C131.045 23.9802 131.045 23.9802 132.231 25.1283C145.133 38.4515 152.293 56.9361 152.258 75.4174C152.257 76.7113 152.257 76.7113 152.255 78.0314C152.057 88.97 149.338 98.8858 144.883 108.855C141.48 107.796 138.869 106.846 135.883 104.855C136.027 103.781 136.172 102.707 136.32 101.601C136.508 100.165 136.696 98.7286 136.883 97.2924C136.978 96.5879 137.074 95.8834 137.172 95.1576C137.747 90.7009 138.138 86.3578 137.883 81.8549C136.112 79.6675 136.112 79.6675 133.883 77.8549C133.109 76.5245 133.109 76.5245 132.32 75.1674C131.035 72.5508 131.035 72.5508 127.883 71.8549C127.857 70.6225 127.831 69.3902 127.805 68.1205C127.311 51.7523 124.144 36.4311 111.82 24.5424C100.93 15.652 86.7856 10.0872 72.6603 10.5736C57.669 12.0917 44.9445 18.6665 34.8829 29.8549C26.397 41.101 23.4786 54.1303 23.3517 68.0267C22.8829 70.8549 22.8829 70.8549 20.9181 72.5853C20.2465 73.0043 19.5749 73.4232 18.8829 73.8549C18.1954 75.513 17.5273 77.1795 16.8829 78.8549C15.3979 79.8449 15.3979 79.8449 13.8829 80.8549C12.6235 88.4112 14.4332 96.4381 15.8829 103.855C13.2429 105.505 10.6029 107.155 7.88292 108.855C-0.141398 92.5295 -2.51259 71.9252 2.97667 54.3392C3.27573 53.5194 3.57479 52.6995 3.88292 51.8549C4.16135 51.0144 4.43979 50.1739 4.72667 49.308C11.7235 29.8858 27.2896 15.0435 45.5699 6.16199C68.7741 -4.49128 99.2198 -0.952615 119.883 13.8549Z" fill="#15B6CE"/>
<path d="M73.622 36.5047C75.3757 36.4882 77.1293 36.4609 78.8827 36.4227C81.4117 36.3679 83.9391 36.3461 86.4687 36.3314C87.2511 36.3087 88.0335 36.2861 88.8396 36.2627C92.7279 36.2778 94.4799 36.4758 97.359 39.1854C99.1917 42.3962 99.6586 44.9366 100.07 48.6048C100.208 49.7547 100.346 50.9045 100.488 52.0892C100.618 53.3319 100.749 54.5745 100.883 55.8548C100.97 56.5082 101.056 57.1616 101.146 57.8348C102.027 64.7087 102.102 71.5564 102.133 78.4798C102.153 79.6683 102.174 80.8569 102.195 82.0814C102.233 90.4971 101.463 96.988 95.5624 103.499C87.7632 109.793 77.3848 109.718 67.8827 108.855C61.7573 107.722 57.1922 105.465 52.8827 100.855C48.5479 93.8979 48.3534 87.3011 48.5702 79.2923C48.5871 78.1479 48.6041 77.0034 48.6215 75.8243C48.681 72.4997 48.7735 69.1781 48.8827 65.8548C48.9103 64.9805 48.9378 64.1062 48.9662 63.2054C49.6365 44.4914 49.6365 44.4914 55.8827 37.8548C60.7512 35.4206 68.2074 36.5423 73.622 36.5047Z" fill="#F0CBAA"/>
<path d="M105.461 21.9681C106.26 22.5907 107.059 23.2134 107.883 23.8548C108.958 24.6805 108.958 24.6805 110.055 25.5228C117.441 32.0074 123.45 43.0764 124.883 52.8548C125.032 55.7796 125.047 58.7001 125.051 61.6283C125.056 62.8912 125.056 62.8912 125.061 64.1797C125.066 65.9565 125.068 67.7333 125.068 69.5101C125.07 72.2137 125.088 74.9169 125.107 77.6205C125.11 79.3522 125.112 81.084 125.113 82.8158C125.12 83.617 125.128 84.4183 125.135 85.2439C125.115 90.1565 124.448 94.1927 122.883 98.8548C122.223 98.8548 121.563 98.8548 120.883 98.8548C120.883 93.9048 120.883 88.9548 120.883 83.8548C119.171 83.4011 117.459 82.9473 115.695 82.4798C111.969 81.4921 108.438 80.3496 104.883 78.8548C104.829 76.6051 104.79 74.355 104.758 72.1048C104.735 70.8519 104.711 69.5989 104.687 68.308C104.876 64.9687 105.383 63.6981 106.883 60.8548C107.236 57.9775 107.236 57.9775 107.195 54.9173C107.22 53.3879 107.22 53.3879 107.246 51.8275C106.832 48.4414 105.728 46.6855 103.883 43.8548C103.379 42.3694 102.918 40.8687 102.508 39.3548C100.879 34.3454 98.6859 31.4922 94.0529 28.786C87.6514 25.6436 82.0088 25.2168 74.9453 25.2923C73.925 25.2685 72.9047 25.2447 71.8535 25.2201C64.6145 25.2339 58.8598 26.6334 52.8828 30.8548C48.9771 35.3782 47.3528 40.0878 45.8828 45.8548C45.2228 46.8448 44.5628 47.8348 43.8828 48.8548C43.5651 51.4281 43.5651 51.4281 43.6328 54.2298C43.6276 55.1657 43.6224 56.1016 43.6171 57.0658C43.7427 59.8555 43.7427 59.8555 44.8906 62.2494C46.1878 65.6558 46.0756 68.5356 46.0078 72.1673C45.9897 73.4216 45.9717 74.6759 45.9531 75.9681C45.9299 76.9207 45.9067 77.8734 45.8828 78.8548C43.5924 79.692 41.3006 80.5247 39.0078 81.3548C38.0313 81.7126 38.0313 81.7126 37.0351 82.0775C32.1093 83.8548 32.1093 83.8548 29.8828 83.8548C29.8828 88.8048 29.8828 93.7548 29.8828 98.8548C29.2228 98.8548 28.5628 98.8548 27.8828 98.8548C25.288 94.9708 25.5768 90.8488 25.582 86.3548C25.5777 85.5233 25.5734 84.6918 25.569 83.8351C25.5632 82.0733 25.5627 80.3115 25.5671 78.5497C25.5702 75.8918 25.5469 73.2352 25.5214 70.5775C25.4563 53.6677 28.108 39.8513 40.0703 27.0423C58.1433 10.164 84.9463 7.49264 105.461 21.9681Z" fill="#81C7DD"/>
<path d="M109.711 21.8197C118.983 29.4565 125.733 40.9958 127.883 52.8549C128.07 56.4799 128.07 56.4799 127.883 58.8549C127.223 58.8549 126.563 58.8549 125.883 58.8549C125.883 67.7649 125.883 76.6749 125.883 85.8549C126.543 85.8549 127.203 85.8549 127.883 85.8549C126.943 98.1457 126.943 98.1457 124.883 102.855C122.258 103.917 122.258 103.917 118.883 104.855C117.644 105.751 116.438 106.694 115.258 107.667C110.252 111.569 104.83 113.737 98.8828 115.855C98.0269 116.177 97.1709 116.499 96.2891 116.831C80.3414 121.85 62.1418 120.11 46.8828 113.855C45.9173 113.471 44.9518 113.087 43.957 112.691C43.2725 112.415 42.588 112.139 41.8828 111.855C42.3778 110.37 42.3778 110.37 42.8828 108.855C46.9028 110.161 50.8378 111.595 54.7578 113.171C70.1254 118.115 90.2913 116.388 104.883 109.855C105.873 109.195 106.863 108.535 107.883 107.855C101.851 105.087 101.851 105.087 95.543 105.734C93.4447 107.065 93.4447 107.065 91.5742 108.558C87.1066 111.984 81.1725 111.156 75.8203 111.23C74.3208 111.286 74.3208 111.286 72.791 111.343C65.7242 111.426 59.5702 110.34 53.8828 105.855C53.113 103.684 53.113 103.684 52.8828 101.855C55.6607 102.917 58.2932 104.064 60.9453 105.417C69.2655 109.489 80.2276 109.073 88.9453 106.355C94.1913 104.166 97.3065 100.889 99.8828 95.8549C103.735 83.5126 101.348 66.8402 100.07 54.1049C100 53.3629 99.9303 52.621 99.8582 51.8566C99.321 47.2257 98.343 41.315 94.8828 37.8549C89.6832 37.5626 84.481 37.5408 79.2739 37.5048C77.5202 37.4882 75.7666 37.461 74.0132 37.4227C71.485 37.3679 68.9584 37.3461 66.4297 37.3314C65.6493 37.3088 64.8689 37.2861 64.0649 37.2627C60.0255 37.2784 58.1392 37.6532 54.9268 40.1806C50.9363 45.4017 50.5507 51.5103 49.8828 57.8549C49.2228 57.8549 48.5628 57.8549 47.8828 57.8549C47.3878 53.3999 47.3878 53.3999 46.8828 48.8549C46.2228 51.1649 45.5628 53.4749 44.8828 55.8549C44.5528 55.8549 44.2228 55.8549 43.8828 55.8549C43.8288 54.3969 43.79 52.9384 43.7578 51.4799C43.7346 50.6678 43.7114 49.8557 43.6875 49.0189C43.8828 46.8549 43.8828 46.8549 45.8828 44.8549C46.3159 42.9986 46.3159 42.9986 46.7578 41.1049C48.1877 35.1144 50.753 31.3769 55.9453 28.0424C62.0648 24.4129 67.5487 24.6047 74.5078 24.5424C76.0914 24.4989 76.0914 24.4989 77.707 24.4545C86.0737 24.3871 92.3032 25.82 98.7578 31.2924C102.632 35.9637 104.262 40.0203 105.883 45.8549C106.543 46.8449 107.203 47.8349 107.883 48.8549C108.148 51.6322 108.148 51.6322 108.133 54.7924C108.141 56.3528 108.141 56.3528 108.148 57.9447C107.883 60.8549 107.883 60.8549 106.875 62.7807C105.391 65.8829 105.695 68.6971 105.758 72.1049C105.799 74.3324 105.84 76.5599 105.883 78.8549C110.833 80.5049 115.783 82.1549 120.883 83.8549C120.883 88.8049 120.883 93.7549 120.883 98.8549C121.543 98.8549 122.203 98.8549 122.883 98.8549C123.763 93.5309 124.057 88.3834 124.086 82.9916C124.092 82.1596 124.097 81.3275 124.103 80.4703C124.113 78.7181 124.119 76.9658 124.123 75.2135C124.133 72.5604 124.164 69.9082 124.195 67.2553C124.305 54.7722 124.305 54.7722 120.883 42.8549C120.446 41.8314 120.009 40.8078 119.559 39.7533C113.542 28.6165 105.393 20.8995 93.3672 16.5971C79.83 12.6139 66.7065 12.2305 53.7461 18.3314C42.1723 24.6919 33.2318 33.6337 29.0378 46.4337C26.8796 54.2029 26.4144 61.6353 26.3203 69.6674C26.1122 83.7219 26.1122 83.7219 23.8828 89.8549C23.5528 89.8549 23.2228 89.8549 22.8828 89.8549C22.8828 86.5549 22.8828 83.2549 22.8828 79.8549C19.1349 80.9151 19.1349 80.9151 15.8828 82.8549C14.9136 85.6469 14.9321 87.8488 14.8828 90.8549C14.2228 90.5249 13.5628 90.1949 12.8828 89.8549C12.8828 86.8849 12.8828 83.9149 12.8828 80.8549C14.8628 79.8649 14.8628 79.8649 16.8828 78.8549C17.5866 76.8676 18.254 74.8671 18.8828 72.8549C19.8728 72.1949 20.8628 71.5349 21.8828 70.8549C22.3227 68.0126 22.3227 68.0126 22.3203 64.6674C23.1597 49.1946 27.9244 34.5184 39.5195 23.7338C46.8119 17.9361 54.7625 13.0273 63.8828 10.8549C64.8316 10.628 65.7803 10.4011 66.7578 10.1674C82.6849 8.57467 96.5698 12.6899 109.711 21.8197Z" fill="#1D1E24"/>
<path d="M46.8829 47.8549C47.2129 47.8549 47.5429 47.8549 47.8829 47.8549C47.8829 51.1549 47.8829 54.4549 47.8829 57.8549C48.5429 57.8549 49.2029 57.8549 49.8829 57.8549C49.862 58.8325 49.841 59.81 49.8195 60.8173C49.7463 64.4887 49.7009 68.16 49.6632 71.8319C49.6432 73.4127 49.6161 74.9935 49.5812 76.5741C49.2765 88.6346 49.2765 88.6346 53.0167 99.994C53.8829 101.855 53.8829 101.855 53.8829 104.855C61.1493 109.222 66.9488 110.648 75.3829 110.48C76.8351 110.509 76.8351 110.509 78.3165 110.538C84.7317 110.495 89.2241 109.184 94.8068 106.024C96.8829 104.855 96.8829 104.855 99.8829 103.855C102.145 104.632 102.145 104.632 104.57 105.792C105.783 106.363 105.783 106.363 107.02 106.945C107.635 107.245 108.249 107.545 108.883 107.855C99.6247 115.631 87.1729 116.326 75.6329 116.355C74.557 116.361 73.4812 116.367 72.3727 116.373C61.7071 116.208 52.2113 114.057 42.8829 108.855C42.8829 109.515 42.8829 110.175 42.8829 110.855C44.713 111.654 46.5472 112.444 48.3829 113.23C49.9143 113.891 49.9143 113.891 51.4767 114.566C59.3644 117.551 66.2521 118.213 74.6329 118.167C76.2364 118.16 76.2364 118.16 77.8722 118.152C85.2547 118.043 91.923 117.473 98.8829 114.855C99.8807 114.503 100.878 114.151 101.906 113.788C108.256 111.365 113.581 108.278 119.02 104.21C120.883 102.855 120.883 102.855 121.883 102.855C122.149 105.136 122.149 105.136 121.883 107.855C111.568 118.626 92.3984 123.757 77.7718 124.279C60.1786 124.398 44.2127 118.831 29.8829 108.855C28.9471 108.205 28.0112 107.555 27.047 106.886C25.3188 105.678 23.5955 104.463 21.879 103.238C19.9386 101.824 19.9386 101.824 17.8829 100.855C17.0314 98.3431 17.0314 98.3431 16.2579 95.1674C15.9975 94.1322 15.7371 93.0971 15.4689 92.0306C14.8841 88.8611 14.6524 86.0685 14.8829 82.8549C16.6329 80.9799 16.6329 80.9799 18.8829 79.8549C20.2029 79.8549 21.5229 79.8549 22.8829 79.8549C23.2129 81.5049 23.5429 83.1549 23.8829 84.8549C24.5429 84.1949 25.2029 83.5349 25.8829 82.8549C25.9435 83.6747 26.0041 84.4945 26.0665 85.3392C26.1503 86.4169 26.2341 87.4945 26.3204 88.6049C26.4016 89.6722 26.4828 90.7395 26.5665 91.8392C26.8238 94.2917 27.2011 96.4941 27.8829 98.8549C28.5429 98.8549 29.2029 98.8549 29.8829 98.8549C29.8829 93.9049 29.8829 88.9549 29.8829 83.8549C31.4092 83.2155 32.9354 82.5761 34.5079 81.9174C35.7957 81.3779 35.7957 81.3779 37.1095 80.8275C40.0285 79.8038 42.8242 79.2809 45.8829 78.8549C45.7683 76.6251 45.6408 74.3961 45.5079 72.1674C45.4383 70.926 45.3687 69.6846 45.297 68.4056C44.9132 65.1145 44.1034 62.8863 42.8829 59.8549C42.6876 56.9603 42.6876 56.9603 42.7579 54.0424C42.776 53.0665 42.794 52.0907 42.8126 51.0853C42.8358 50.3493 42.859 49.6132 42.8829 48.8549C43.5429 49.5149 44.2029 50.1749 44.8829 50.8549C45.5429 49.8649 46.2029 48.8749 46.8829 47.8549Z" fill="#0F0F10"/>
<path d="M125.883 58.8549C126.543 58.8549 127.203 58.8549 127.883 58.8549C127.883 63.1449 127.883 67.4349 127.883 71.8549C129.203 72.1849 130.523 72.5149 131.883 72.8549C133.551 74.6674 133.551 74.6674 135.07 76.8549C135.834 77.9377 135.834 77.9377 136.613 79.0424C137.032 79.6405 137.451 80.2386 137.883 80.8549C138.213 81.1849 138.543 81.5149 138.883 81.8549C138.73 89.6495 137.646 97.2725 135.883 104.855C136.625 105.123 137.368 105.391 138.133 105.667C140.759 106.802 142.642 108.107 144.883 109.855C138.878 120.037 131.402 127.767 122.883 135.855C121.398 135.36 121.398 135.36 119.883 134.855C120.57 131.745 121.611 128.966 122.879 126.046C123.273 125.134 123.667 124.222 124.072 123.283C124.484 122.337 124.896 121.392 125.32 120.417C126.132 118.544 126.943 116.67 127.754 114.796C128.114 113.968 128.474 113.14 128.845 112.287C129.896 109.824 130.898 107.345 131.883 104.855C131.42 105.162 130.958 105.469 130.481 105.785C108.475 120.342 86.7297 129.948 59.668 125.242C44.8448 121.65 32.0218 113.834 19.8828 104.855C23.5956 114.993 27.529 124.974 31.8828 134.855C27.8828 134.855 27.8828 134.855 25.6953 132.98C24.7491 131.946 23.8133 130.903 22.8828 129.855C22.1867 129.115 21.4906 128.375 20.7734 127.613C15.8838 122.346 11.6521 116.974 7.88281 110.855C9.49558 106.603 10.4641 106.506 14.8828 103.855C14.2228 99.2349 13.5628 94.6149 12.8828 89.8549C13.8728 89.5249 14.8628 89.1949 15.8828 88.8549C15.9692 89.6979 16.0555 90.541 16.1445 91.4095C16.285 92.5052 16.4255 93.601 16.5703 94.7299C16.6979 95.8204 16.8255 96.911 16.957 98.0345C17.5774 101.037 17.5774 101.037 20.1797 102.038C21.0717 102.308 21.9638 102.577 22.8828 102.855C24.4334 103.873 25.9536 104.939 27.4453 106.042C44.852 118.373 64.2666 125.805 85.9868 122.538C98.0223 120.201 111.629 116.241 120.883 107.855C122.403 104.803 122.403 104.803 122.883 101.855C123.543 100.865 124.203 99.8749 124.883 98.8549C125.484 96.641 126.02 94.4088 126.508 92.1674C126.768 90.9879 127.029 89.8084 127.297 88.5931C127.49 87.6895 127.684 86.7859 127.883 85.8549C127.223 85.8549 126.563 85.8549 125.883 85.8549C125.883 76.9449 125.883 68.0349 125.883 58.8549Z" fill="#131816"/>
<path d="M109.711 21.8197C118.983 29.4565 125.733 40.9958 127.883 52.8549C128.07 56.4799 128.07 56.4799 127.883 58.8549C127.223 58.8549 126.563 58.8549 125.883 58.8549C125.883 67.7649 125.883 76.6749 125.883 85.8549C126.543 85.8549 127.203 85.8549 127.883 85.8549C126.943 98.1457 126.943 98.1457 124.883 102.855C122.258 103.917 122.258 103.917 118.883 104.855C117.644 105.751 116.438 106.694 115.258 107.667C110.252 111.569 104.83 113.737 98.8828 115.855C98.0269 116.177 97.1709 116.499 96.2891 116.831C80.3414 121.85 62.1418 120.11 46.8828 113.855C45.9173 113.471 44.9518 113.087 43.957 112.691C43.2725 112.415 42.588 112.139 41.8828 111.855C42.3778 110.37 42.3778 110.37 42.8828 108.855C46.9028 110.161 50.8378 111.595 54.7578 113.171C70.1254 118.115 90.2913 116.388 104.883 109.855C105.873 109.195 106.863 108.535 107.883 107.855C101.851 105.087 101.851 105.087 95.543 105.734C93.4447 107.065 93.4447 107.065 91.5742 108.558C87.1066 111.984 81.1725 111.156 75.8203 111.23C74.3208 111.286 74.3208 111.286 72.791 111.343C65.7242 111.426 59.5702 110.34 53.8828 105.855C53.113 103.684 53.113 103.684 52.8828 101.855C55.6607 102.917 58.2932 104.064 60.9453 105.417C69.275 109.494 80.2403 109.09 88.9453 106.292C93.3815 104.464 96.0037 102.141 98.7617 98.2455C99.1317 97.7866 99.5016 97.3277 99.8828 96.8549C100.543 96.8549 101.203 96.8549 101.883 96.8549C101.553 98.5049 101.223 100.155 100.883 101.855C102.44 102.39 104.004 102.908 105.57 103.417C106.44 103.707 107.311 103.997 108.207 104.296C111.178 104.917 112.999 104.754 115.883 103.855C118.097 102.068 118.097 102.068 118.078 99.6908C118.055 98.8787 118.032 98.0666 118.008 97.2299C117.99 96.4126 117.972 95.5953 117.953 94.7533C117.93 94.1268 117.907 93.5003 117.883 92.8549C118.543 92.8549 119.203 92.8549 119.883 92.8549C119.553 90.8749 119.223 88.8949 118.883 86.8549C114.263 85.2049 109.643 83.5549 104.883 81.8549C104.883 83.8349 104.883 85.8149 104.883 87.8549C103.893 88.3499 103.893 88.3499 102.883 88.8549C102.883 83.5749 102.883 78.2949 102.883 72.8549C103.543 72.8549 104.203 72.8549 104.883 72.8549C105.213 74.8349 105.543 76.8149 105.883 78.8549C110.833 80.5049 115.783 82.1549 120.883 83.8549C120.883 88.8049 120.883 93.7549 120.883 98.8549C121.543 98.8549 122.203 98.8549 122.883 98.8549C123.763 93.5309 124.057 88.3834 124.086 82.9916C124.092 82.1596 124.097 81.3275 124.103 80.4703C124.113 78.7181 124.119 76.9658 124.123 75.2135C124.133 72.5604 124.164 69.9082 124.195 67.2553C124.305 54.7722 124.305 54.7722 120.883 42.8549C120.446 41.8314 120.009 40.8078 119.559 39.7533C113.542 28.6165 105.393 20.8995 93.3672 16.5971C79.83 12.6139 66.7065 12.2305 53.7461 18.3314C42.1723 24.6919 33.2318 33.6337 29.0378 46.4337C26.8796 54.2029 26.4144 61.6353 26.3203 69.6674C26.1122 83.7219 26.1122 83.7219 23.8828 89.8549C23.5528 89.8549 23.2228 89.8549 22.8828 89.8549C22.8828 86.5549 22.8828 83.2549 22.8828 79.8549C19.1349 80.9151 19.1349 80.9151 15.8828 82.8549C14.9136 85.6469 14.9321 87.8488 14.8828 90.8549C14.2228 90.5249 13.5628 90.1949 12.8828 89.8549C12.8828 86.8849 12.8828 83.9149 12.8828 80.8549C14.8628 79.8649 14.8628 79.8649 16.8828 78.8549C17.5866 76.8676 18.254 74.8671 18.8828 72.8549C19.8728 72.1949 20.8628 71.5349 21.8828 70.8549C22.3227 68.0126 22.3227 68.0126 22.3203 64.6674C23.1597 49.1946 27.9244 34.5184 39.5195 23.7338C46.8119 17.9361 54.7625 13.0273 63.8828 10.8549C64.8316 10.628 65.7803 10.4011 66.7578 10.1674C82.6849 8.57467 96.5698 12.6899 109.711 21.8197Z" fill="#11181B"/>
<path d="M105.461 21.9681C106.26 22.5907 107.059 23.2134 107.883 23.8548C108.958 24.6805 108.958 24.6805 110.055 25.5228C117.44 32.0069 123.451 43.0768 124.883 52.8548C125.032 55.7913 125.047 58.7236 125.051 61.6634C125.056 62.93 125.056 62.93 125.061 64.222C125.066 66.003 125.068 67.784 125.068 69.5651C125.07 72.2796 125.088 74.9938 125.107 77.7084C125.11 79.4434 125.112 81.1784 125.113 82.9134C125.12 83.7199 125.128 84.5263 125.135 85.3571C125.117 89.9189 124.617 93.5582 122.883 97.8548C122.553 97.8548 122.223 97.8548 121.883 97.8548C121.873 96.6203 121.864 95.3858 121.854 94.1139C121.814 89.4747 121.748 84.8361 121.675 80.1974C121.647 78.2007 121.626 76.2039 121.612 74.2071C121.477 56.2628 119.967 42.6926 107.16 29.015C96.972 19.5495 84.6406 17.3274 71.2655 17.6127C59.044 18.1359 49.245 23.9483 40.9452 32.7923C29.5388 46.3336 29.4104 62.245 29.1952 79.1673C29.162 80.987 29.1275 82.8067 29.0917 84.6263C29.0077 89.0357 28.9405 93.445 28.8827 97.8548C27.4076 96.88 27.4076 96.88 25.8827 94.8548C25.5836 91.9803 25.4625 89.3274 25.4843 86.4525C25.4814 85.6196 25.4785 84.7866 25.4756 83.9284C25.4735 82.1607 25.4791 80.3928 25.4916 78.6251C25.5075 75.9583 25.4919 73.2931 25.4726 70.6263C25.4498 53.7128 28.1075 39.8518 40.0702 27.0423C58.1432 10.164 84.9463 7.49264 105.461 21.9681Z" fill="#F1F2F1"/>
<path d="M22.8829 79.8549C22.9229 81.0614 22.9628 82.268 23.004 83.5111C23.319 94.075 23.319 94.075 28.8204 102.605C31.2425 104.365 31.2425 104.365 33.8829 105.855C34.7698 106.401 35.6567 106.948 36.5704 107.511C48.8039 114.601 60.5148 118.244 74.6329 118.167C76.2364 118.16 76.2364 118.16 77.8722 118.152C85.2547 118.043 91.923 117.473 98.8829 114.855C99.8807 114.503 100.878 114.151 101.906 113.788C108.256 111.365 113.581 108.278 119.02 104.21C120.883 102.855 120.883 102.855 121.883 102.855C122.149 105.136 122.149 105.136 121.883 107.855C111.568 118.626 92.3984 123.757 77.7718 124.279C60.1786 124.398 44.2127 118.831 29.8829 108.855C28.9471 108.205 28.0112 107.555 27.047 106.886C25.3188 105.678 23.5955 104.463 21.879 103.238C19.9386 101.824 19.9386 101.824 17.8829 100.855C17.0314 98.3431 17.0314 98.3431 16.2579 95.1674C15.9975 94.1322 15.7371 93.0971 15.4689 92.0306C14.8841 88.8611 14.6524 86.0685 14.8829 82.8549C17.662 79.8773 18.6812 79.8549 22.8829 79.8549Z" fill="#AFAEB7"/>
<path d="M102.883 72.8549C103.543 72.8549 104.203 72.8549 104.883 72.8549C105.378 75.8249 105.378 75.8249 105.883 78.8549C110.833 80.5049 115.783 82.1549 120.883 83.8549C120.883 89.1349 120.883 94.4149 120.883 99.8549C121.543 100.185 122.203 100.515 122.883 100.855C113.279 111.389 98.6609 118.123 84.426 119.007C70.9414 119.586 59.4447 119.004 46.8828 113.855C45.9173 113.471 44.9518 113.087 43.957 112.691C43.2725 112.415 42.588 112.139 41.8828 111.855C42.2128 110.865 42.5428 109.875 42.8828 108.855C46.9028 110.161 50.8378 111.595 54.7578 113.171C70.1254 118.115 90.2913 116.388 104.883 109.855C105.873 109.195 106.863 108.535 107.883 107.855C101.851 105.087 101.851 105.087 95.543 105.734C93.4447 107.065 93.4447 107.065 91.5742 108.558C87.1066 111.983 81.1725 111.156 75.8203 111.23C74.3208 111.286 74.3208 111.286 72.791 111.343C65.7242 111.426 59.5702 110.34 53.8828 105.855C53.113 103.684 53.113 103.684 52.8828 101.855C55.6607 102.917 58.2932 104.064 60.9453 105.417C69.275 109.494 80.2403 109.09 88.9453 106.292C93.3815 104.464 96.0037 102.141 98.7617 98.2455C99.1317 97.7866 99.5016 97.3277 99.8828 96.8549C100.543 96.8549 101.203 96.8549 101.883 96.8549C101.388 99.3299 101.388 99.3299 100.883 101.855C102.44 102.39 104.004 102.908 105.57 103.417C106.44 103.707 107.311 103.997 108.207 104.296C111.178 104.916 112.999 104.754 115.883 103.855C118.097 102.068 118.097 102.068 118.078 99.6908C118.055 98.8787 118.032 98.0666 118.008 97.2299C117.99 96.4126 117.972 95.5953 117.953 94.7533C117.93 94.1268 117.907 93.5003 117.883 92.8549C118.543 92.8549 119.203 92.8549 119.883 92.8549C119.388 89.8849 119.388 89.8849 118.883 86.8549C114.263 85.2049 109.643 83.5549 104.883 81.8549C104.883 83.8349 104.883 85.8149 104.883 87.8549C104.223 88.1849 103.563 88.5149 102.883 88.8549C102.883 83.5749 102.883 78.2949 102.883 72.8549Z" fill="#131212"/>
<path d="M102.883 46.8549C103.543 47.1849 104.203 47.5149 104.883 47.8549C106.166 51.7044 105.949 54.8022 105.883 58.8549C106.543 58.8549 107.203 58.8549 107.883 58.8549C107.573 59.6799 107.264 60.5049 106.945 61.3549C105.764 65.2461 105.301 68.8165 104.883 72.8549C104.223 72.8549 103.563 72.8549 102.883 72.8549C103.213 77.8049 103.543 82.7549 103.883 87.8549C104.378 84.8849 104.378 84.8849 104.883 81.8549C110.328 82.8835 115.001 84.101 119.883 86.8549C119.883 88.8349 119.883 90.8149 119.883 92.8549C119.223 92.8549 118.563 92.8549 117.883 92.8549C118.213 93.5149 118.543 94.1749 118.883 94.8549C119.24 98.7161 119.403 101.022 117.32 104.355C114.883 105.855 114.883 105.855 111.57 105.792C107.72 104.814 104.47 103.539 100.883 101.855C101.213 100.205 101.543 98.5549 101.883 96.8549C101.223 96.5249 100.563 96.1949 99.8828 95.8549C100.046 95.3428 100.209 94.8307 100.377 94.3031C101.047 91.0611 100.994 87.9935 100.98 84.683C100.979 84.0006 100.978 83.3181 100.976 82.6151C100.971 80.4449 100.958 78.2749 100.945 76.1049C100.94 74.6296 100.936 73.1543 100.932 71.6791C100.921 68.071 100.903 64.4629 100.883 60.8549C101.213 60.8549 101.543 60.8549 101.883 60.8549C102.213 56.2349 102.543 51.6149 102.883 46.8549Z" fill="#14191B"/>
<path d="M18.8828 103.855C22.9897 106.15 26.9572 108.526 30.8647 111.153C42.4882 118.918 54.358 122.783 67.8828 125.855C67.8828 126.185 67.8828 126.515 67.8828 126.855C65.9028 126.855 63.9228 126.855 61.8828 126.855C61.5528 128.175 61.2228 129.495 60.8828 130.855C60.2228 129.865 59.5628 128.875 58.8828 127.855C57.5628 128.185 56.2428 128.515 54.8828 128.855C54.8338 129.914 54.7848 130.974 54.7344 132.066C54.6593 133.454 54.5838 134.842 54.5078 136.23C54.4614 137.278 54.4614 137.278 54.4141 138.347C54.1094 143.628 54.1094 143.628 51.8828 145.855C50.8928 145.525 49.9028 145.195 48.8828 144.855C48.8828 144.195 48.8828 143.535 48.8828 142.855C49.8728 142.855 50.8628 142.855 51.8828 142.855C51.9097 140.396 51.9296 137.938 51.9453 135.48C51.9579 134.432 51.9579 134.432 51.9707 133.363C52.0664 129.482 52.0664 129.482 50.8828 125.855C49.2328 126.185 47.5828 126.515 45.8828 126.855C45.5528 131.145 45.2228 135.435 44.8828 139.855C44.5528 139.855 44.2228 139.855 43.8828 139.855C43.8338 138.974 43.7848 138.094 43.7344 137.187C43.6596 136.025 43.5848 134.864 43.5078 133.667C43.4382 132.519 43.3686 131.37 43.2969 130.187C42.9077 127.055 42.2018 124.702 40.8828 121.855C39.5628 122.185 38.2428 122.515 36.8828 122.855C36.5528 128.135 36.2228 133.415 35.8828 138.855C30.2529 133.225 30.2529 133.225 28.5312 129.343C28.1548 128.502 27.7784 127.661 27.3906 126.794C27.0168 125.927 26.643 125.061 26.2578 124.167C25.8762 123.32 25.4947 122.472 25.1016 121.599C22.545 115.803 20.5638 109.96 18.8828 103.855Z" fill="#74AF50"/>
<path d="M131.883 104.855C128.993 116.303 124.271 129.523 116.883 138.855C114.234 139.042 114.234 139.042 111.883 138.855C111.724 138.179 111.566 137.504 111.402 136.808C109.966 131.318 109.02 127.862 103.883 124.855C102.571 124.146 101.245 123.46 99.8828 122.855C103.298 120.739 106.748 118.937 110.383 117.23C115.874 114.532 120.765 111.344 125.693 107.751C129.694 104.855 129.694 104.855 131.883 104.855Z" fill="#74B153"/>
<path d="M55.8828 105.855C56.4089 106.183 56.935 106.512 57.4771 106.85C63.3611 110.217 68.574 110.492 75.2578 110.417C76.7235 110.453 76.7235 110.453 78.2188 110.49C84.6862 110.477 89.1835 109.22 94.811 106.026C96.8828 104.855 96.8828 104.855 99.8828 103.855C102.145 104.632 102.145 104.632 104.57 105.792C105.783 106.363 105.783 106.363 107.02 106.945C107.942 107.395 107.942 107.395 108.883 107.855C99.6246 115.631 87.1728 116.326 75.6328 116.355C74.5569 116.361 73.481 116.367 72.3726 116.373C61.7069 116.208 52.2112 114.057 42.8828 108.855C42.8828 108.195 42.8828 107.535 42.8828 106.855C51.0591 103.081 51.0591 103.081 55.8828 105.855Z" fill="#B871B1"/>
<path d="M37.8828 120.855C39.8828 120.917 39.8828 120.917 41.8828 121.855C43.1328 124.417 43.1328 124.417 43.8828 126.855C44.8728 126.195 45.8628 125.535 46.8828 124.855C49.5078 125.105 49.5078 125.105 51.8828 125.855C53.4 128.889 53.108 132.029 53.1328 135.355C53.1534 136.045 53.1741 136.734 53.1953 137.445C53.2109 139.449 53.2109 139.449 52.8828 142.855C49.8828 144.855 49.8828 144.855 47.8828 145.855C45.0625 144.64 45.0625 144.64 41.7578 142.917C40.6621 142.351 39.5664 141.786 38.4375 141.203C37.5945 140.758 36.7514 140.313 35.8828 139.855C35.829 137.063 35.7892 134.272 35.7578 131.48C35.7411 130.686 35.7243 129.892 35.707 129.074C35.6895 127 35.7795 124.926 35.8828 122.855C36.5428 122.195 37.2028 121.535 37.8828 120.855Z" fill="#639F46"/>
<path d="M71.8906 26.7416C81.1734 26.537 89.4606 26.6998 96.8828 32.8549C98.2578 35.1049 98.2578 35.1048 98.8828 36.8548C98.1555 36.3702 98.1555 36.3702 97.4136 35.8758C93.7907 34.4143 90.24 34.5297 86.3906 34.5189C85.5671 34.5123 84.7435 34.5056 83.895 34.4987C82.1551 34.4886 80.4152 34.4839 78.6753 34.4842C76.0238 34.4799 73.3739 34.4436 70.7227 34.4056C69.0287 34.3998 67.3346 34.3958 65.6406 34.3939C64.8529 34.3795 64.0652 34.3652 63.2537 34.3504C57.8759 34.3946 55.0853 35.4773 50.8828 38.8548C52.8086 32.8635 56.4703 30.6827 61.8828 27.8549C65.2955 26.936 68.3757 26.8739 71.8906 26.7416Z" fill="#C078A1"/>
<path d="M46.8828 47.8549C47.2128 47.8549 47.5428 47.8549 47.8828 47.8549C47.8828 51.1549 47.8828 54.4549 47.8828 57.8549C48.5428 57.8549 49.2028 57.8549 49.8828 57.8549C49.5528 68.0849 49.2228 78.3149 48.8828 88.8549C48.2228 88.5249 47.5628 88.1949 46.8828 87.8549C44.6951 88.4018 42.53 89.041 40.3828 89.7299C39.2175 90.0985 38.0522 90.4672 36.8516 90.847C33.9973 91.741 33.9973 91.741 31.8828 92.8549C31.5528 90.8749 31.2228 88.8949 30.8828 86.8549C32.3391 86.1837 33.7979 85.518 35.2578 84.8549C36.0699 84.4836 36.882 84.1124 37.7188 83.7299C39.8828 82.8549 39.8828 82.8549 41.8828 82.8549C41.8828 82.1949 41.8828 81.5349 41.8828 80.8549C41.2228 80.5249 40.5628 80.1949 39.8828 79.8549C41.8628 79.5249 43.8428 79.1949 45.8828 78.8549C45.7682 76.6251 45.6407 74.3961 45.5078 72.1674C45.4382 70.926 45.3686 69.6846 45.2969 68.4056C44.9131 65.1145 44.1033 62.8863 42.8828 59.8549C42.6875 56.9603 42.6875 56.9603 42.7578 54.0424C42.7759 53.0665 42.7939 52.0907 42.8125 51.0853C42.8357 50.3493 42.8589 49.6132 42.8828 48.8549C43.5428 49.5149 44.2028 50.1749 44.8828 50.8549C45.5428 49.8649 46.2028 48.8749 46.8828 47.8549Z" fill="#0A0C0C"/>
<path d="M90.8828 26.8549C96.2739 28.5492 99.338 31.6807 102.57 36.2299C104.13 39.3496 104.951 42.4999 105.883 45.8549C106.543 46.8449 107.203 47.8349 107.883 48.8549C108.078 51.3353 108.078 51.3353 108.008 54.0424C107.99 54.9434 107.972 55.8445 107.953 56.7728C107.93 57.4599 107.907 58.147 107.883 58.8549C107.223 58.8549 106.563 58.8549 105.883 58.8549C105.223 55.2249 104.563 51.5949 103.883 47.8549C103.553 52.4749 103.223 57.0949 102.883 61.8549C101.893 61.3599 101.893 61.3599 100.883 60.8549C100.428 59.0607 100.428 59.0607 100.137 56.7416C99.9637 55.4876 99.9637 55.4876 99.7871 54.2084C99.5608 52.4431 99.3368 50.6774 99.1152 48.9115C98.3902 42.7681 98.3902 42.7681 94.8828 37.8549C91.4076 36.6965 88.2101 36.6268 84.5898 36.5385C83.5308 36.5073 83.5308 36.5073 82.4504 36.4755C80.1988 36.4102 77.9471 36.3512 75.6953 36.2924C74.1673 36.2492 72.6393 36.2055 71.1113 36.1615C67.3686 36.0545 63.6258 35.9532 59.8828 35.8549C60.2128 35.1949 60.5428 34.5349 60.8828 33.8549C65.67 33.8301 70.4571 33.812 75.2444 33.7999C76.873 33.7949 78.5016 33.7881 80.1301 33.7794C82.4709 33.7673 84.8116 33.7616 87.1523 33.7572C87.8806 33.752 88.6088 33.7469 89.3591 33.7416C92.4788 33.7412 94.8991 33.8603 97.8828 34.8549C94.5619 32.0849 94.5619 32.0849 90.8828 29.8549C90.8828 28.8649 90.8828 27.8749 90.8828 26.8549Z" fill="#252426"/>
<path d="M92.8828 13.8549C102.149 15.2843 110.786 21.947 116.883 28.8549C122.935 37.722 128.758 47.7654 127.883 58.8549C127.223 58.8549 126.563 58.8549 125.883 58.8549C125.883 67.7649 125.883 76.6749 125.883 85.8549C126.543 85.8549 127.203 85.8549 127.883 85.8549C127.431 91.7698 126.725 97.2069 124.883 102.855C123.563 102.525 122.243 102.195 120.883 101.855C120.883 100.865 120.883 99.8749 120.883 98.8549C121.543 98.8549 122.203 98.8549 122.883 98.8549C123.763 93.5309 124.057 88.3834 124.086 82.9916C124.094 81.7435 124.094 81.7435 124.103 80.4703C124.113 78.718 124.119 76.9658 124.123 75.2135C124.133 72.5604 124.164 69.9081 124.195 67.2552C124.305 54.7722 124.305 54.7722 120.883 42.8549C120.446 41.8313 120.009 40.8078 119.559 39.7533C113.218 28.0162 104.703 21.6564 92.8828 15.8549C92.8828 15.1949 92.8828 14.5349 92.8828 13.8549Z" fill="#161A19"/>
<path d="M37.8829 31.8549C38.5196 33.6478 38.5196 33.6478 38.8829 35.8549C38.161 36.948 37.4391 38.0411 36.6954 39.1674C28.8878 51.0376 29.2414 65.6327 29.1329 79.2924C29.1046 81.1029 29.0747 82.9135 29.043 84.724C28.9701 89.1009 28.92 93.4775 28.8829 97.8549C27.4078 96.88 27.4078 96.88 25.8829 94.8549C25.5837 91.9803 25.4626 89.3274 25.4844 86.4525C25.4816 85.6196 25.4787 84.7866 25.4757 83.9285C25.4737 82.1607 25.4792 80.3929 25.4918 78.6251C25.5076 75.9583 25.492 73.2931 25.4727 70.6263C25.4577 59.3704 25.587 48.0344 31.8829 38.2299C32.3779 37.4332 32.8729 36.6366 33.3829 35.8158C34.8829 33.8549 34.8829 33.8549 37.8829 31.8549Z" fill="#EBEDEC"/>
<path d="M46.8828 89.8549C47.0878 90.5535 47.2927 91.2522 47.5039 91.972C47.908 93.3372 47.908 93.3372 48.3203 94.7299C48.5871 95.6348 48.854 96.5397 49.1289 97.472C49.809 99.8376 49.809 99.8376 50.8828 101.855C49.3275 102.559 47.7632 103.242 46.1953 103.917C45.3252 104.3 44.4551 104.683 43.5586 105.078C39.6689 106.208 37.1113 105.486 33.5703 103.667C31.8828 101.855 31.8828 101.855 31.5703 98.7924C31.8828 95.8549 31.8828 95.8549 32.8828 93.8549C34.8322 93.0682 36.8188 92.3724 38.8203 91.7299C39.9018 91.3767 40.9834 91.0235 42.0977 90.6595C44.8828 89.8549 44.8828 89.8549 46.8828 89.8549Z" fill="#8E8996"/>
<path d="M127.883 74.8549C128.873 75.1849 129.863 75.5149 130.883 75.8549C131.027 76.4736 131.172 77.0924 131.32 77.7299C131.668 80.0509 131.668 80.0509 133.926 81.058C135.883 82.8549 135.883 82.8549 136.125 86.0345C136.004 87.254 135.883 88.4735 135.758 89.7299C135.599 91.5513 135.599 91.5513 135.438 93.4095C134.922 96.6096 134.466 99.0338 132.883 101.855C130.719 103.218 130.719 103.218 128.258 104.167C127.032 104.657 127.032 104.657 125.781 105.156C125.155 105.386 124.528 105.617 123.883 105.855C124.194 104.271 124.507 102.688 124.82 101.105C124.994 100.223 125.168 99.3414 125.348 98.433C125.66 96.9305 125.997 95.4321 126.396 93.9506C126.885 91.8467 127.085 89.9 127.199 87.7455C127.262 86.6143 127.262 86.6143 127.326 85.4603C127.385 84.2944 127.385 84.2944 127.445 83.1049C127.488 82.3121 127.532 81.5193 127.576 80.7025C127.682 78.7535 127.783 76.8042 127.883 74.8549Z" fill="#A4A2A7"/>
<path d="M104.883 89.8549C106.842 90.4989 108.8 91.1451 110.758 91.7924C111.848 92.152 112.939 92.5117 114.062 92.8822C116.883 93.8549 116.883 93.8549 118.883 94.8549C119.362 101.088 119.362 101.088 117.32 104.355C114.883 105.855 114.883 105.855 111.57 105.792C107.72 104.814 104.47 103.539 100.883 101.855C101.36 100.229 101.839 98.6043 102.32 96.9799C102.587 96.0749 102.854 95.17 103.129 94.2377C103.883 91.8549 103.883 91.8549 104.883 89.8549Z" fill="#8F8FA1"/>
<path d="M133.883 106.855C138.357 108.048 140.302 109.041 142.883 112.855C137.567 121.315 131.057 127.999 123.883 134.855C123.223 134.525 122.563 134.195 121.883 133.855C122.414 132.744 122.945 131.633 123.492 130.488C127.197 122.699 130.863 114.942 133.883 106.855Z" fill="#E3F3B1"/>
<path d="M22.8827 79.8549C22.9923 81.1078 23.1019 82.3608 23.2147 83.6517C23.3742 85.3028 23.5344 86.9539 23.6952 88.6049C23.7655 89.4299 23.8357 90.2549 23.9081 91.1049C24.4882 97.0418 24.4882 97.0418 27.8827 101.855C26.5627 102.845 25.2427 103.835 23.8827 104.855C20.0597 103.156 18.3693 102.099 16.8163 98.1283C15.4968 92.9904 14.5326 88.1831 14.8827 82.8549C17.6618 79.8773 18.681 79.8549 22.8827 79.8549Z" fill="#A1A5AC"/>
<path d="M15.8829 105.855C18.0574 108.029 18.8113 109.691 20.0118 112.503C20.4069 113.426 20.802 114.349 21.209 115.3C21.617 116.267 22.025 117.234 22.4454 118.23C23.0631 119.668 23.0631 119.668 23.6934 121.136C27.0164 128.946 27.0164 128.946 27.8829 132.855C20.4321 128.821 13.8217 121.374 9.88286 113.855C9.82036 111.73 9.82036 111.73 10.8829 109.855C13.4454 107.605 13.4454 107.605 15.8829 105.855Z" fill="#E4EEB5"/>
<path d="M55.8828 105.855C56.4307 106.181 56.9785 106.508 57.543 106.844C62.8679 109.794 67.3492 110.497 73.3828 110.605C74.6164 110.649 74.6164 110.649 75.875 110.695C77.8771 110.765 79.88 110.812 81.8828 110.855C81.8828 111.185 81.8828 111.515 81.8828 111.855C77.5928 111.855 73.3028 111.855 68.8828 111.855C68.2228 113.175 67.5628 114.495 66.8828 115.855C58.0033 115.639 50.7647 112.796 42.8828 108.855C42.8828 108.195 42.8828 107.535 42.8828 106.855C51.0591 103.081 51.0591 103.081 55.8828 105.855Z" fill="#AD6DAE"/>
<path d="M80.8828 13.8549C80.8828 14.5149 80.8828 15.1749 80.8828 15.8549C79.9882 15.9644 79.0936 16.074 78.1719 16.1869C62.0783 18.2972 50.9957 22.8187 38.8828 33.8549C37.8928 33.1949 36.9028 32.5349 35.8828 31.8549C49.3938 16.8086 61.6601 13.4349 80.8828 13.8549Z" fill="#F1F3F3"/>
<path d="M89.8828 73.8549C89.381 78.2037 86.7858 80.7493 83.8828 83.8549C80.353 86.5326 76.1444 86.4182 71.8828 85.8549C68.3828 84.3549 68.3828 84.3549 65.8828 82.8549C65.8828 82.1949 65.8828 81.5349 65.8828 80.8549C66.5428 81.0199 67.2028 81.1849 67.8828 81.3549C70.2689 81.7525 72.4754 82.0137 74.8828 82.1049C75.5222 82.1306 76.1616 82.1564 76.8203 82.183C79.5441 81.8813 79.5441 81.8813 83.8828 78.8549C77.2828 78.8549 70.6828 78.8549 63.8828 78.8549C63.5528 77.8649 63.2228 76.8749 62.8828 75.8549C64.8531 75.764 64.8531 75.764 66.8633 75.6713C68.599 75.5868 70.3346 75.5022 72.0703 75.4174C72.9346 75.378 73.7989 75.3387 74.6895 75.2982C79.7882 75.0443 84.8288 73.8549 89.8828 73.8549Z" fill="#242120"/>
<path d="M103.008 126.98C105.883 127.855 105.883 127.855 107.883 129.855C108.426 135.832 108.426 135.832 106.82 138.855C103.655 140.489 101.233 139.708 97.8828 138.855C95.7173 135.607 95.3312 134.624 95.8828 130.855C98.1189 127.587 98.9927 126.819 103.008 126.98Z" fill="#DE4939"/>
<path d="M37.8828 120.855C39.8828 120.917 39.8828 120.917 41.8828 121.855C44.6707 126.176 44.4818 131.878 43.8828 136.855C43.2228 137.515 42.5628 138.175 41.8828 138.855C39.3203 138.605 39.3203 138.605 36.8828 137.855C35.4586 135.006 35.7129 132.527 35.6953 129.355C35.674 127.607 35.674 127.607 35.6523 125.824C35.8828 122.855 35.8828 122.855 37.8828 120.855Z" fill="#1C2521"/>
<path d="M105.883 124.855C109.177 127.737 110.652 129.596 111.445 133.917C110.725 137.681 109.739 139.292 106.883 141.855C103.508 142.98 103.508 142.98 99.8829 142.855C95.5765 140.506 95.5765 140.506 93.8829 137.855C92.8779 133.536 93.1391 130.126 95.3829 126.292C98.887 124.278 102.013 123.843 105.883 124.855ZM97.5704 128.417C95.5305 130.858 95.5305 130.858 95.9454 134.48C96.558 138.11 96.558 138.11 99.8829 139.855C102.678 140.204 104.248 140.227 106.695 138.792C108.573 135.729 108.32 133.353 107.883 129.855C106.248 127.795 106.248 127.795 103.883 126.855C99.9702 126.482 99.9702 126.482 97.5704 128.417Z" fill="#1A1611"/>
<path d="M55.8828 126.855C59.4185 127.391 59.4185 127.391 60.8828 128.855C60.956 131.551 60.9752 134.222 60.9453 136.917C60.9408 137.676 60.9363 138.435 60.9316 139.216C60.9198 141.096 60.9019 142.975 60.8828 144.855C59.5628 145.185 58.2428 145.515 56.8828 145.855C53.6642 142.407 53.5023 139.866 53.5703 135.23C53.5742 134.083 53.578 132.935 53.582 131.753C53.8828 128.855 53.8828 128.855 55.8828 126.855Z" fill="#0E110C"/>
<path d="M76.3828 96.7924C78.8828 97.8549 78.8828 97.8549 80.6953 101.417C81.0872 102.552 81.4791 103.686 81.8828 104.855C81.5528 105.185 81.2228 105.515 80.8828 105.855C81.8728 106.515 82.8628 107.175 83.8828 107.855C82.8828 108.855 82.8828 108.855 79.5039 108.953C78.1093 108.946 76.7148 108.934 75.3203 108.917C74.2539 108.911 74.2539 108.911 73.166 108.904C71.4049 108.892 69.6439 108.874 67.8828 108.855C67.8828 108.195 67.8828 107.535 67.8828 106.855C68.5428 106.855 69.2028 106.855 69.8828 106.855C69.9859 105.576 70.0891 104.297 70.1953 102.98C70.3711 100.8 70.3711 100.8 70.8828 98.8549C73.8828 96.8549 73.8828 96.8549 76.3828 96.7924Z" fill="#E0C6A7"/>
<path d="M102.883 72.8549C103.543 72.8549 104.203 72.8549 104.883 72.8549C105.213 74.8349 105.543 76.8149 105.883 78.8549C110.833 80.5049 115.783 82.1549 120.883 83.8549C120.883 89.1349 120.883 94.4149 120.883 99.8549C121.543 100.185 122.203 100.515 122.883 100.855C118.133 105.73 118.133 105.73 115.883 106.855C116.758 102.98 116.758 102.98 117.883 101.855C117.955 100.336 117.967 98.8132 117.945 97.2924C117.936 96.4661 117.927 95.6398 117.918 94.7885C117.906 94.1504 117.895 93.5123 117.883 92.8549C118.543 92.8549 119.203 92.8549 119.883 92.8549C119.553 90.8749 119.223 88.8949 118.883 86.8549C114.263 85.2049 109.643 83.5549 104.883 81.8549C104.883 83.8349 104.883 85.8149 104.883 87.8549C103.893 88.3499 103.893 88.3499 102.883 88.8549C102.883 83.5749 102.883 78.2949 102.883 72.8549Z" fill="#0D0E0E"/>
<path d="M126.883 48.8549C133.366 57.289 135.262 65.3922 134.883 75.8549C130.124 74.1047 130.124 74.1047 127.883 71.8549C126.829 67.9544 126.904 64.1259 126.945 60.1049C126.929 59.0259 126.913 57.947 126.896 56.8353C126.861 54.1739 126.858 51.5163 126.883 48.8549Z" fill="#67C8D9"/>
<path d="M60.8828 33.8549C65.6333 33.731 70.3828 33.6404 75.1345 33.5802C76.7496 33.5551 78.3646 33.5211 79.9792 33.4777C82.3055 33.4168 84.6302 33.3886 86.957 33.3666C88.0339 33.3279 88.0339 33.3279 89.1325 33.2884C93.0719 33.2862 94.7198 33.7243 97.834 36.2182C100.083 39.1131 100.551 40.5548 100.695 44.1674C100.743 45.0504 100.791 45.9334 100.84 46.8432C100.854 47.507 100.868 48.1709 100.883 48.8549C98.8828 45.8549 98.8828 45.8549 97.5078 42.2924C96.2516 38.9217 96.2516 38.9217 94.2432 37.6659C91.0105 36.5551 87.874 36.4983 84.4922 36.4408C83.7876 36.4215 83.083 36.4021 82.357 36.3821C80.1157 36.3226 77.8744 36.276 75.6328 36.2299C74.1094 36.1917 72.5859 36.1526 71.0625 36.1127C67.3361 36.0169 63.6096 35.9328 59.8828 35.8549C60.2128 35.1949 60.5428 34.5349 60.8828 33.8549Z" fill="#0A0B08"/>
<path d="M42.8828 108.855C46.9028 110.161 50.8378 111.595 54.7578 113.171C60.5983 115.05 66.6795 115.138 72.7578 115.417C74.0765 115.482 74.0765 115.482 75.4219 115.548C77.5754 115.654 79.7291 115.755 81.8828 115.855C81.8828 116.185 81.8828 116.515 81.8828 116.855C78.9128 116.855 75.9428 116.855 72.8828 116.855C72.8828 117.515 72.8828 118.175 72.8828 118.855C62.0305 120.029 51.7719 115.948 41.8828 111.855C42.2128 110.865 42.5428 109.875 42.8828 108.855Z" fill="#171616"/>
<path d="M55.8828 121.855C56.5634 121.927 57.2441 121.999 57.9453 122.074C70.2795 123.255 82.5697 123.316 94.8828 121.855C94.8828 122.515 94.8828 123.175 94.8828 123.855C88.0811 125.606 81.8316 126.191 74.8203 126.167C73.8787 126.183 72.937 126.2 71.9668 126.216C65.9028 126.22 61.4258 125.329 55.8828 122.855C55.8828 122.525 55.8828 122.195 55.8828 121.855Z" fill="#0E0E0F"/>
<path d="M45.8828 81.8549C45.8828 83.8349 45.8828 85.8149 45.8828 87.8549C45.0398 88.132 44.1967 88.4092 43.3281 88.6947C41.6846 89.238 41.6846 89.238 40.0078 89.7924C38.9173 90.152 37.8267 90.5117 36.7031 90.8822C33.9752 91.754 33.9752 91.754 31.8828 92.8549C31.5528 90.8749 31.2228 88.8949 30.8828 86.8549C32.2976 86.2049 33.7147 85.5601 35.1328 84.9174C35.9217 84.5577 36.7106 84.1981 37.5234 83.8275C40.34 82.6664 42.828 81.8549 45.8828 81.8549Z" fill="#95979C"/>
<path d="M104.883 81.8549C110.328 82.8835 115.001 84.101 119.883 86.8549C119.553 88.5049 119.223 90.1549 118.883 91.8549C118.207 91.6499 117.532 91.4449 116.836 91.2338C115.944 90.9644 115.052 90.6949 114.133 90.4174C113.251 90.1505 112.369 89.8837 111.461 89.6088C109.277 88.9702 107.094 88.3871 104.883 87.8549C104.883 85.8749 104.883 83.8949 104.883 81.8549Z" fill="#8E9097"/>
<path d="M101.883 74.8549C102.213 74.8549 102.543 74.8549 102.883 74.8549C103.213 79.1449 103.543 83.4349 103.883 87.8549C105.058 87.9786 106.234 88.1024 107.445 88.2299C111.439 88.7344 115.076 89.5342 118.883 90.8549C119.213 91.5149 119.543 92.1749 119.883 92.8549C119.223 92.8549 118.563 92.8549 117.883 92.8549C117.553 93.5149 117.223 94.1749 116.883 94.8549C113.253 93.5349 109.623 92.2149 105.883 90.8549C104.893 93.1649 103.903 95.4749 102.883 97.8549C101.893 97.1949 100.903 96.5349 99.8828 95.8549C100.041 95.2796 100.2 94.7044 100.363 94.1117C100.862 91.9455 101.082 89.9616 101.199 87.7455C101.262 86.6143 101.262 86.6143 101.326 85.4603C101.365 84.683 101.405 83.9057 101.445 83.1049C101.488 82.3121 101.532 81.5193 101.576 80.7025C101.682 78.7535 101.783 76.8042 101.883 74.8549Z" fill="#2A2A28"/>
<path d="M124.883 55.8549C125.213 55.8549 125.543 55.8549 125.883 55.8549C125.883 65.7549 125.883 75.6549 125.883 85.8549C126.543 85.8549 127.203 85.8549 127.883 85.8549C127.431 91.7698 126.725 97.2069 124.883 102.855C123.563 102.525 122.243 102.195 120.883 101.855C120.883 100.865 120.883 99.8749 120.883 98.8549C121.543 98.8549 122.203 98.8549 122.883 98.8549C123.727 93.6445 124.082 88.5695 124.199 83.2963C124.22 82.5071 124.241 81.718 124.262 80.9049C124.327 78.4091 124.386 75.9133 124.445 73.4174C124.489 71.7149 124.532 70.0124 124.576 68.3099C124.683 64.1583 124.784 60.0066 124.883 55.8549Z" fill="#434444"/>
<path d="M26.8828 101.855C30.2322 103.462 33.4013 105.292 36.5703 107.23C37.5436 107.815 38.5168 108.4 39.5195 109.003C41.8828 110.855 41.8828 110.855 42.7148 113.081C42.7703 113.667 42.8257 114.252 42.8828 114.855C38.6287 114.281 35.7841 112.801 32.1953 110.48C31.2427 109.874 30.2901 109.268 29.3086 108.644C26.8828 106.855 26.8828 106.855 24.8828 103.855C25.5428 103.195 26.2028 102.535 26.8828 101.855Z" fill="#B0ACB7"/>
<path d="M46.8828 79.8549C47.2128 79.8549 47.5428 79.8549 47.8828 79.8549C48.004 80.6399 48.1252 81.4249 48.25 82.2338C49.1547 87.9054 50.1407 93.3798 51.8828 98.8549C50.8928 99.1849 49.9028 99.5149 48.8828 99.8549C47.2629 96.3113 46.7787 93.7277 46.8828 89.8549C46.1236 90.1436 45.3643 90.4324 44.582 90.7299C43.5882 91.1011 42.5943 91.4724 41.5703 91.8549C40.5842 92.2261 39.598 92.5974 38.582 92.9799C35.8828 93.8549 35.8828 93.8549 32.8828 93.8549C32.5528 94.5149 32.2228 95.1749 31.8828 95.8549C32.1172 93.9955 32.1172 93.9955 32.8828 91.8549C37.0174 89.0871 41.8719 87.2083 46.8828 87.8549C46.8828 85.2149 46.8828 82.5749 46.8828 79.8549Z" fill="#1B1918"/>
<path d="M99.8828 100.855C100.987 101.288 100.987 101.288 102.113 101.73C103.089 102.101 104.065 102.472 105.07 102.855C106.515 103.412 106.515 103.412 107.988 103.98C110.805 104.831 112.964 105.026 115.883 104.855C115.883 105.845 115.883 106.835 115.883 107.855C114.094 108.86 112.302 109.859 110.508 110.855C109.51 111.412 108.512 111.969 107.484 112.542C104.883 113.855 104.883 113.855 102.883 113.855C102.553 112.865 102.223 111.875 101.883 110.855C103.863 109.865 105.843 108.875 107.883 107.855C105.243 106.865 102.603 105.875 99.8828 104.855C99.8828 103.535 99.8828 102.215 99.8828 100.855Z" fill="#1D1A1D"/>
<path d="M43.8828 20.8549C44.5428 21.5149 45.2028 22.1749 45.8828 22.8549C45.3143 23.3769 44.7459 23.899 44.1602 24.4369C38.8964 29.4546 34.9438 34.4731 31.293 40.765C30.8276 41.4547 30.3623 42.1443 29.8828 42.8549C29.2228 42.8549 28.5628 42.8549 27.8828 42.8549C29.2126 33.3946 36.678 26.5065 43.8828 20.8549Z" fill="#0D1314"/>
<path d="M87.8828 110.855C86.957 113.335 86.957 113.335 84.8828 115.855C81.8121 116.51 78.8176 116.324 75.6953 116.167C74.8503 116.145 74.0054 116.122 73.1348 116.099C71.05 116.04 68.9662 115.95 66.8828 115.855C67.4922 113.902 67.4922 113.902 68.8828 111.855C71.7109 111.245 71.7109 111.245 75.1328 111.105C76.2517 111.048 77.3706 110.991 78.5234 110.933C81.6449 110.86 84.7606 110.836 87.8828 110.855Z" fill="#C27CBA"/>
<path d="M46.8828 124.855C48.5328 125.185 50.1828 125.515 51.8828 125.855C51.8828 129.815 51.8828 133.775 51.8828 137.855C51.5528 137.855 51.2228 137.855 50.8828 137.855C50.5528 134.555 50.2228 131.255 49.8828 127.855C49.2228 127.855 48.5628 127.855 47.8828 127.855C47.9963 130.001 48.1239 132.147 48.2578 134.292C48.3274 135.487 48.397 136.682 48.4688 137.913C48.6054 138.884 48.742 139.855 48.8828 140.855C49.5428 141.185 50.2028 141.515 50.8828 141.855C48.0156 141.281 47.0214 140.993 44.8828 138.855C44.6172 136.105 44.6172 136.105 44.6328 132.855C44.6277 131.782 44.6225 130.71 44.6172 129.605C44.8828 126.855 44.8828 126.855 46.8828 124.855Z" fill="#171915"/>
<path d="M84.8828 47.8549C89.4384 48.4104 89.4384 48.4104 90.8828 49.8549C91.0078 53.3549 91.0078 53.3549 90.8828 56.8549C89.8828 57.8549 89.8828 57.8549 86.8828 57.9799C83.8828 57.8549 83.8828 57.8549 82.8828 56.8549C82.6953 53.4174 82.6953 53.4174 82.8828 49.8549C83.5428 49.1949 84.2028 48.5349 84.8828 47.8549Z" fill="#161311"/>
<path d="M50.8828 39.8549C51.5428 40.1849 52.2028 40.5149 52.8828 40.8549C51.8928 46.4649 50.9028 52.0749 49.8828 57.8549C49.2228 57.8549 48.5628 57.8549 47.8828 57.8549C47.5528 54.8849 47.2228 51.9149 46.8828 48.8549C46.2228 51.1649 45.5628 53.4749 44.8828 55.8549C44.5528 55.8549 44.2228 55.8549 43.8828 55.8549C43.8288 54.3969 43.79 52.9384 43.7578 51.4799C43.723 50.2617 43.723 50.2617 43.6875 49.0189C43.8828 46.8549 43.8828 46.8549 45.8828 44.8549C46.5253 42.7861 46.5253 42.7861 46.8828 40.8549C47.8728 41.1849 48.8628 41.5149 49.8828 41.8549C50.2128 41.1949 50.5428 40.5349 50.8828 39.8549Z" fill="#070A0A"/>
<path d="M22.8827 51.8549C23.2127 51.8549 23.5427 51.8549 23.8827 51.8549C23.8599 54.9607 23.7827 58.0628 23.6952 61.1674C23.6894 62.0484 23.6836 62.9295 23.6777 63.8373C23.5941 66.2782 23.4744 68.4841 22.8827 70.8549C20.332 72.9603 20.332 72.9603 17.8827 73.8549C17.6759 68.6628 18.3312 64.4503 19.8202 59.4799C20.1799 58.2552 20.5395 57.0306 20.9101 55.7689C21.8827 52.8549 21.8827 52.8549 22.8827 51.8549Z" fill="#6ECADF"/>
<path d="M65.0077 48.0424C66.8827 48.8549 66.8827 48.8549 67.8827 50.8549C68.0702 53.8549 68.0702 53.8549 67.8827 56.8549C67.2227 57.5149 66.5627 58.1749 65.8827 58.8549C63.2577 58.4799 63.2577 58.4799 60.8827 57.8549C59.5472 51.42 59.5472 51.42 61.0702 48.8549C62.8827 47.8549 62.8827 47.8549 65.0077 48.0424Z" fill="#0E0D0A"/>
<path d="M58.5525 34.2838C61.7305 35.0626 64.7851 35.0774 68.0547 35.1712C68.7371 35.192 69.4195 35.2128 70.1226 35.2342C72.2926 35.2994 74.4627 35.3584 76.6328 35.4173C78.1081 35.4606 79.5833 35.5042 81.0586 35.5482C84.6665 35.655 88.2746 35.7564 91.8828 35.8548C91.8828 36.1848 91.8828 36.5148 91.8828 36.8548C90.879 36.8642 89.8753 36.8735 88.8411 36.8832C85.104 36.9231 81.3677 36.9889 77.6311 37.0624C76.0163 37.0905 74.4014 37.1118 72.7864 37.1258C70.4597 37.1473 68.1347 37.194 65.8086 37.2455C65.0907 37.2467 64.3728 37.2479 63.6331 37.2492C58.7399 37.391 56.4421 38.5759 52.8828 41.8548C52.2228 41.8548 51.5628 41.8548 50.8828 41.8548C50.2228 42.5148 49.5628 43.1748 48.8828 43.8548C48.9627 41.06 49.3628 39.3734 51.3672 37.3744C56.2082 33.6815 56.2082 33.6815 58.5525 34.2838Z" fill="#413835"/>
<path d="M102.883 40.8549C103.543 41.8449 104.203 42.8349 104.883 43.8549C105.419 44.5355 105.955 45.2161 106.508 45.9174C108.508 50.1912 108.126 54.2113 107.883 58.8549C107.223 58.8549 106.563 58.8549 105.883 58.8549C105.223 55.2249 104.563 51.5949 103.883 47.8549C103.553 52.4749 103.223 57.0949 102.883 61.8549C102.223 61.5249 101.563 61.1949 100.883 60.8549C100.776 54.426 100.824 48.2072 101.883 41.8549C102.213 41.5249 102.543 41.1949 102.883 40.8549Z" fill="#060808"/>
<path d="M58.9453 40.6049C63.3062 40.8817 67.7936 41.2139 71.8828 42.8549C72.2128 43.8449 72.5428 44.8349 72.8828 45.8549C71.8348 45.7479 70.7868 45.6409 69.707 45.5306C68.3282 45.4087 66.9493 45.2877 65.5703 45.1674C64.88 45.0945 64.1897 45.0217 63.4785 44.9467C59.4183 44.5536 59.4183 44.5536 55.9023 46.3353C55.5659 46.8368 55.2295 47.3382 54.8828 47.8549C54.2578 45.4799 54.2578 45.4799 53.8828 42.8549C55.8828 40.8549 55.8828 40.8549 58.9453 40.6049Z" fill="#1D1A15"/>
<path d="M125.883 58.8549C126.543 58.8549 127.203 58.8549 127.883 58.8549C128.698 68.0324 128.994 76.6731 127.883 85.8549C127.223 85.8549 126.563 85.8549 125.883 85.8549C125.883 76.9449 125.883 68.0349 125.883 58.8549Z" fill="#020102"/>
<path d="M84.8828 78.8548C81.3141 82.7634 78.1248 82.9897 72.918 83.2806C70.0257 82.6755 68.7944 81.0231 66.8828 78.8548C69.5075 78.6605 72.1323 78.4741 74.7578 78.2923C75.8774 78.2082 75.8774 78.2082 77.0195 78.1224C82.6562 77.7416 82.6562 77.7416 84.8828 78.8548Z" fill="#E9E6E0"/>
<path d="M24.8828 69.8549C25.2128 69.8549 25.5428 69.8549 25.8828 69.8549C26.2518 83.4881 26.2518 83.4881 23.8828 89.8549C23.5528 89.8549 23.2228 89.8549 22.8828 89.8549C22.8828 86.5549 22.8828 83.2549 22.8828 79.8549C20.9028 80.1849 18.9228 80.5149 16.8828 80.8549C17.9316 78.233 18.5321 77.0611 21.0078 75.6049C21.6266 75.3574 22.2453 75.1099 22.8828 74.8549C23.2128 75.5149 23.5428 76.1749 23.8828 76.8549C24.2128 74.5449 24.5428 72.2349 24.8828 69.8549Z" fill="#191818"/>
<path d="M95.8828 40.8549C96.8828 41.8549 96.8828 41.8549 96.9453 44.4174C96.9247 45.2217 96.9041 46.0261 96.8828 46.8549C96.2228 46.8549 95.5628 46.8549 94.8828 46.8549C94.5528 45.8649 94.2228 44.8749 93.8828 43.8549C93.2073 43.9992 92.5319 44.1436 91.8359 44.2924C90.9439 44.478 90.0519 44.6636 89.1328 44.8549C87.8102 45.1333 87.8102 45.1333 86.4609 45.4174C83.8828 45.8549 83.8828 45.8549 79.8828 45.8549C79.8828 44.8649 79.8828 43.8749 79.8828 42.8549C85.2729 41.0199 90.1804 40.3287 95.8828 40.8549Z" fill="#28241F"/>
<path d="M68.8828 24.8549C71.7997 24.8008 74.7156 24.7612 77.6328 24.7299C78.4578 24.7131 79.2828 24.6963 80.1328 24.6791C80.932 24.6726 81.7312 24.6662 82.5547 24.6595C83.2878 24.6491 84.021 24.6386 84.7764 24.6278C87.1818 24.8871 88.7953 25.6626 90.8828 26.8549C90.8828 27.5149 90.8828 28.1749 90.8828 28.8549C83.2928 28.1949 75.7028 27.5349 67.8828 26.8549C68.2128 26.1949 68.5428 25.5349 68.8828 24.8549Z" fill="#050504"/>
<path d="M36.8827 121.855C37.2127 121.855 37.5427 121.855 37.8827 121.855C37.8827 126.475 37.8827 131.095 37.8827 135.855C38.8727 135.525 39.8627 135.195 40.8827 134.855C41.2127 132.875 41.5427 130.895 41.8827 128.855C42.2127 128.855 42.5427 128.855 42.8827 128.855C42.8827 131.825 42.8827 134.795 42.8827 137.855C41.2327 138.185 39.5827 138.515 37.8827 138.855C35.4777 135.247 35.6431 133.506 35.6952 129.23C35.7017 128.062 35.7081 126.894 35.7148 125.691C35.8827 122.855 35.8827 122.855 36.8827 121.855Z" fill="#12161A"/>
<path d="M47.8829 127.855C48.5429 127.855 49.2029 127.855 49.8829 127.855C50.2129 129.175 50.5429 130.495 50.8829 131.855C51.5429 130.535 52.2029 129.215 52.8829 127.855C52.9368 129.813 52.9756 131.771 53.0079 133.73C53.0311 134.82 53.0543 135.911 53.0782 137.035C52.8829 139.855 52.8829 139.855 50.8829 141.855C49.3946 140.71 49.3946 140.71 47.8829 138.855C47.5899 136.156 47.5899 136.156 47.6954 133.167C47.7224 132.173 47.7495 131.18 47.7774 130.156C47.8122 129.396 47.847 128.637 47.8829 127.855Z" fill="#3D6539"/>
<path d="M45.8828 65.8549C46.2128 65.8549 46.5428 65.8549 46.8828 65.8549C47.2128 69.8149 47.5428 73.7749 47.8828 77.8549C48.2128 77.8549 48.5428 77.8549 48.8828 77.8549C48.8828 81.4849 48.8828 85.1149 48.8828 88.8549C47.8928 88.5249 46.9028 88.1949 45.8828 87.8549C45.8828 85.8749 45.8828 83.8949 45.8828 81.8549C44.5628 82.1849 43.2428 82.5149 41.8828 82.8549C41.8828 82.1949 41.8828 81.5349 41.8828 80.8549C41.2228 80.5249 40.5628 80.1949 39.8828 79.8549C41.8628 79.5249 43.8428 79.1949 45.8828 78.8549C45.8828 74.5649 45.8828 70.2749 45.8828 65.8549Z" fill="#232C2D"/>
<path d="M73.8828 59.8549C74.5428 59.8549 75.2028 59.8549 75.8828 59.8549C75.3255 63.1986 74.5311 65.888 72.8828 68.8549C75.5228 68.8549 78.1628 68.8549 80.8828 68.8549C80.5528 69.5149 80.2228 70.1749 79.8828 70.8549C76.5828 70.8549 73.2828 70.8549 69.8828 70.8549C69.8828 65.4226 70.6194 63.9822 73.8828 59.8549Z" fill="#111212"/>
<path d="M60.8828 114.855C67.8128 115.185 74.7428 115.515 81.8828 115.855C81.8828 116.185 81.8828 116.515 81.8828 116.855C78.9128 116.855 75.9428 116.855 72.8828 116.855C72.8828 117.515 72.8828 118.175 72.8828 118.855C71.2999 118.909 69.7164 118.948 68.1328 118.98C67.2511 119.003 66.3694 119.026 65.4609 119.05C62.7692 118.846 61.1838 118.22 58.8828 116.855C59.5428 116.855 60.2028 116.855 60.8828 116.855C60.8828 116.195 60.8828 115.535 60.8828 114.855Z" fill="#372D36"/>
<path d="M108.883 129.855C109.543 130.185 110.203 130.515 110.883 130.855C111.221 134.487 111.112 136.443 109.32 139.667C106.225 142.445 103.967 142.619 99.8828 142.855C100.213 141.865 100.543 140.875 100.883 139.855C101.667 139.628 102.45 139.401 103.258 139.167C106.37 137.611 106.536 136.887 107.695 133.73C108.109 132.444 108.511 131.154 108.883 129.855Z" fill="#1B1B15"/>
<path d="M102.883 72.8549C103.543 72.8549 104.203 72.8549 104.883 72.8549C104.965 73.8036 105.048 74.7524 105.133 75.7299C105.534 78.9595 105.534 78.9595 107.945 80.2299C108.585 80.4361 109.224 80.6424 109.883 80.8549C108.233 81.1849 106.583 81.5149 104.883 81.8549C104.883 83.8349 104.883 85.8149 104.883 87.8549C103.893 88.3499 103.893 88.3499 102.883 88.8549C102.883 83.5749 102.883 78.2949 102.883 72.8549Z" fill="#040607"/>
<path d="M76.5078 97.1674C78.8828 97.8549 78.8828 97.8549 79.8828 98.8549C79.9235 100.521 79.9255 102.189 79.8828 103.855C77.5728 104.185 75.2628 104.515 72.8828 104.855C74.2028 104.525 75.5228 104.195 76.8828 103.855C77.2128 102.535 77.5428 101.215 77.8828 99.8549C76.2328 99.8549 74.5828 99.8549 72.8828 99.8549C72.5528 100.845 72.2228 101.835 71.8828 102.855C71.5528 101.535 71.2228 100.215 70.8828 98.8549C73.8828 96.8549 73.8828 96.8549 76.5078 97.1674Z" fill="#1A1A17"/>
<path d="M53.8828 141.855C54.2541 142.35 54.6253 142.845 55.0078 143.355C57.6298 145.452 59.6212 145.072 62.8828 144.855C62.8828 145.845 62.8828 146.835 62.8828 147.855C63.2128 148.515 63.5428 149.175 63.8828 149.855C59.2628 148.865 54.6428 147.875 49.8828 146.855C51.2028 145.205 52.5228 143.555 53.8828 141.855Z" fill="#69AA49"/>
<path d="M124.883 121.855C125.873 121.855 126.863 121.855 127.883 121.855C126.465 126.327 124.77 130.566 122.883 134.855C121.893 134.855 120.903 134.855 119.883 134.855C120.562 131.739 121.624 129.003 122.945 126.105C123.308 125.306 123.67 124.506 124.043 123.683C124.32 123.08 124.597 122.476 124.883 121.855Z" fill="#1E221C"/>
<path d="M63.8828 29.8548C63.2228 29.8548 62.5628 29.8548 61.8828 29.8548C61.8828 30.5148 61.8828 31.1748 61.8828 31.8548C62.5428 32.1848 63.2028 32.5148 63.8828 32.8548C62.9779 33.1275 62.9779 33.1275 62.0547 33.4056C56.027 35.2747 56.027 35.2747 50.8828 38.8548C52.0646 34.2588 54.3694 32.3691 58.0312 29.6752C60.3733 28.6375 61.5173 29.0108 63.8828 29.8548Z" fill="#D484AD"/>
<path d="M44.8828 87.8549C44.8828 88.8449 44.8828 89.8349 44.8828 90.8549C43.4473 91.3605 42.0093 91.8591 40.5703 92.3549C39.3696 92.7725 39.3696 92.7725 38.1445 93.1986C35.8828 93.8549 35.8828 93.8549 32.8828 93.8549C32.5528 94.5149 32.2228 95.1749 31.8828 95.8549C32.1094 93.9955 32.1094 93.9955 32.8828 91.8549C34.8438 90.5892 34.8438 90.5892 37.2578 89.6049C38.0493 89.2697 38.8408 88.9345 39.6562 88.5892C41.8828 87.8549 41.8828 87.8549 44.8828 87.8549Z" fill="#1C1D1C"/>
<path d="M92.8828 33.8549C95.1953 34.4174 95.1953 34.4174 97.8828 35.8549C100.363 40.3013 101.254 43.7859 100.883 48.8549C98.8828 45.8549 98.8828 45.8549 97.5078 42.3549C95.9343 38.9657 95.0311 37.7004 91.8828 35.8549C92.2128 35.1949 92.5428 34.5349 92.8828 33.8549Z" fill="#151611"/>
<path d="M55.8829 129.855C56.8729 130.185 57.8629 130.515 58.8829 130.855C58.8829 134.815 58.8829 138.775 58.8829 142.855C58.2229 142.855 57.5629 142.855 56.8829 142.855C55.8779 139.84 55.7795 137.813 55.8204 134.667C55.8294 133.766 55.8384 132.865 55.8477 131.937C55.8593 131.25 55.8709 130.563 55.8829 129.855Z" fill="#C33D3D"/>
<path d="M37.8828 123.855C38.8728 124.185 39.8628 124.515 40.8828 124.855C40.8828 128.485 40.8828 132.115 40.8828 135.855C39.8928 135.855 38.9028 135.855 37.8828 135.855C37.8828 131.895 37.8828 127.935 37.8828 123.855Z" fill="#3E7FB1"/>
<path d="M46.8828 47.8549C47.2128 47.8549 47.5428 47.8549 47.8828 47.8549C47.8828 52.4749 47.8828 57.0949 47.8828 61.8549C47.2228 61.8549 46.5628 61.8549 45.8828 61.8549C45.0013 59.2105 44.7211 57.5743 44.6953 54.8549C44.6811 54.1742 44.667 53.4936 44.6523 52.7924C44.8828 50.8549 44.8828 50.8549 46.8828 47.8549Z" fill="#976677"/>
<path d="M113.883 84.8549C116.358 85.3499 116.358 85.3499 118.883 85.8549C119.213 87.5049 119.543 89.1549 119.883 90.8549C118.893 91.1849 117.903 91.5149 116.883 91.8549C115.893 91.1949 114.903 90.5349 113.883 89.8549C113.695 87.2299 113.695 87.2299 113.883 84.8549Z" fill="#999BA2"/>
<path d="M69.8828 71.8549C72.8528 71.8549 75.8228 71.8549 78.8828 71.8549C78.2228 73.1749 77.5628 74.4949 76.8828 75.8549C74.2428 75.8549 71.6028 75.8549 68.8828 75.8549C69.2128 74.5349 69.5428 73.2149 69.8828 71.8549Z" fill="#FBD7B1"/>
<path d="M26.8828 17.8549C27.5428 18.5149 28.2028 19.1749 28.8828 19.8549C25.5828 23.1549 22.2828 26.4549 18.8828 29.8549C18.5528 28.8649 18.2228 27.8749 17.8828 26.8549C20.8528 23.8849 23.8228 20.9149 26.8828 17.8549Z" fill="#12AEC3"/>
<path d="M121.883 102.855C122.195 105.167 122.195 105.167 121.883 107.855C119.383 109.667 119.383 109.667 116.883 110.855C116.223 109.865 115.563 108.875 114.883 107.855C120.758 102.855 120.758 102.855 121.883 102.855Z" fill="#ADA8B2"/>
<path d="M91.8828 43.8549C91.5528 44.8449 91.2228 45.8349 90.8828 46.8549C89.0352 47.5853 89.0352 47.5853 86.8203 48.0424C86.0868 48.2009 85.3534 48.3595 84.5977 48.5228C83.7488 48.6872 83.7488 48.6872 82.8828 48.8549C82.5528 47.8649 82.2228 46.8749 81.8828 45.8549C85.5025 44.5386 87.9785 43.8549 91.8828 43.8549Z" fill="#F7DBBF"/>
<path d="M104.883 117.855C104.883 118.845 104.883 119.835 104.883 120.855C99.9328 122.34 99.9328 122.34 94.8828 123.855C94.8828 123.195 94.8828 122.535 94.8828 121.855C94.2228 121.525 93.5628 121.195 92.8828 120.855C94.5068 120.351 96.132 119.852 97.7578 119.355C98.6627 119.076 99.5677 118.798 100.5 118.511C102.883 117.855 102.883 117.855 104.883 117.855Z" fill="#222021"/>
<path d="M65.8828 80.8549C70.1728 81.5149 74.4628 82.1749 78.8828 82.8549C78.8828 83.5149 78.8828 84.1749 78.8828 84.8549C77.279 84.909 75.6747 84.9477 74.0703 84.9799C73.177 85.0031 72.2837 85.0263 71.3633 85.0502C68.8828 84.8549 68.8828 84.8549 65.8828 82.8549C65.8828 82.1949 65.8828 81.5349 65.8828 80.8549Z" fill="#151412"/>
<path d="M42.8829 48.8549C43.2129 48.8549 43.5429 48.8549 43.8829 48.8549C44.0041 49.7817 44.1253 50.7085 44.2501 51.6635C44.4177 52.861 44.5853 54.0585 44.7579 55.2924C44.9203 56.4873 45.0828 57.6823 45.2501 58.9135C45.4589 59.8841 45.6678 60.8548 45.8829 61.8549C46.5429 62.1849 47.2029 62.5149 47.8829 62.8549C46.8929 64.3399 46.8929 64.3399 45.8829 65.8549C42.2669 60.2802 42.5757 55.2492 42.8829 48.8549Z" fill="#14181C"/>
<path d="M46.8828 117.855C50.1828 118.845 53.4828 119.835 56.8828 120.855C56.8828 121.845 56.8828 122.835 56.8828 123.855C53.2528 122.865 49.6228 121.875 45.8828 120.855C46.2128 119.865 46.5428 118.875 46.8828 117.855Z" fill="#1C1F1A"/>
<path d="M123.883 47.8549C124.543 47.8549 125.203 47.8549 125.883 47.8549C127.685 51.6847 128.079 54.6361 127.883 58.8549C127.223 58.8549 126.563 58.8549 125.883 58.8549C124.46 55.0317 123.642 51.942 123.883 47.8549Z" fill="#1A201F"/>
<path d="M102.883 46.8549C103.873 47.3499 103.873 47.3499 104.883 47.8549C106.06 51.3848 106.081 54.1494 105.883 57.8549C105.223 58.8449 104.563 59.8349 103.883 60.8549C102.93 56.0918 102.8 51.6882 102.883 46.8549Z" fill="#A26A8A"/>
<path d="M53.8828 30.8549C54.5428 31.1849 55.2028 31.5149 55.8828 31.8549C54.9583 33.3629 54.0177 34.8611 53.0703 36.3549C52.5482 37.1902 52.0262 38.0255 51.4883 38.8861C50.9585 39.5358 50.4287 40.1855 49.8828 40.8549C48.8928 40.8549 47.9028 40.8549 46.8828 40.8549C48.1221 35.8979 49.6686 33.7383 53.8828 30.8549Z" fill="#101518"/>
<path d="M122.883 101.855C124.204 104.032 124.896 105.407 124.82 107.98C123.883 109.855 123.883 109.855 121.32 111.105C120.516 111.352 119.712 111.6 118.883 111.855C119.358 110.375 119.838 108.896 120.32 107.417C120.587 106.594 120.854 105.77 121.129 104.921C121.883 102.855 121.883 102.855 122.883 101.855Z" fill="#0C0F0E"/>
<path d="M14.8828 88.8549C16.7907 92.0298 17.0437 93.9607 16.5078 97.6049C16.397 98.4041 16.2861 99.2033 16.1719 100.027C16.0765 100.63 15.9811 101.233 15.8828 101.855C13.6484 97.8219 13.3378 94.4052 12.8828 89.8549C13.5428 89.5249 14.2028 89.1949 14.8828 88.8549Z" fill="#192224"/>
<path d="M128.883 71.8549C132.758 73.7299 132.758 73.7299 133.883 74.8549C133.923 76.521 133.926 78.1887 133.883 79.8549C132.563 79.5249 131.243 79.1949 129.883 78.8549C129.883 77.8649 129.883 76.8749 129.883 75.8549C129.223 75.1949 128.563 74.5349 127.883 73.8549C128.213 73.1949 128.543 72.5349 128.883 71.8549Z" fill="#0F1414"/>
<path d="M99.8828 124.855C102.633 124.542 102.633 124.542 105.883 124.855C108.258 127.355 108.258 127.355 109.883 129.855C109.223 130.515 108.563 131.175 107.883 131.855C107.326 131.215 106.769 130.576 106.195 129.917C103.662 127.658 102.199 127.223 98.8828 126.855C99.2128 126.195 99.5428 125.535 99.8828 124.855Z" fill="#0A0B0D"/>
<path d="M42.8828 111.855C44.8628 112.515 46.8428 113.175 48.8828 113.855C48.2228 115.175 47.5628 116.495 46.8828 117.855C44.9028 117.195 42.9228 116.535 40.8828 115.855C41.5428 115.525 42.2028 115.195 42.8828 114.855C42.8828 113.865 42.8828 112.875 42.8828 111.855Z" fill="#ACA8B0"/>
<path d="M82.8828 79.8549C83.5428 80.8449 84.2028 81.8349 84.8828 82.8549C80.4021 86.2154 77.2773 86.1292 71.8828 85.8549C71.8828 85.5249 71.8828 85.1949 71.8828 84.8549C74.1928 84.8549 76.5028 84.8549 78.8828 84.8549C78.8828 83.8649 78.8828 82.8749 78.8828 81.8549C80.2028 81.1949 81.5228 80.5349 82.8828 79.8549Z" fill="#3E3831"/>
<path d="M81.8828 24.8549C84.5228 25.1849 87.1628 25.5149 89.8828 25.8549C90.2128 26.8449 90.5428 27.8349 90.8828 28.8549C87.9128 28.5249 84.9428 28.1949 81.8828 27.8549C81.8828 26.8649 81.8828 25.8749 81.8828 24.8549Z" fill="#131415"/>
<path d="M84.8828 10.8549C87.7316 11.0564 90.1338 11.9986 92.8828 12.8549C92.8828 13.8449 92.8828 14.8349 92.8828 15.8549C89.2528 15.1949 85.6228 14.5349 81.8828 13.8549C82.8728 12.8649 83.8628 11.8749 84.8828 10.8549Z" fill="#222A29"/>
<path d="M86.8828 73.8549C87.8728 73.8549 88.8628 73.8549 89.8828 73.8549C89.2859 77.1974 88.1468 79.3192 85.8828 81.8549C85.2228 81.8549 84.5628 81.8549 83.8828 81.8549C83.8828 81.1949 83.8828 80.5349 83.8828 79.8549C84.5428 79.8549 85.2028 79.8549 85.8828 79.8549C85.6766 79.2361 85.4703 78.6174 85.2578 77.9799C85.1341 77.2786 85.0103 76.5774 84.8828 75.8549C85.5428 75.1949 86.2028 74.5349 86.8828 73.8549Z" fill="#11100F"/>
<path d="M102.883 54.8549C103.337 55.3292 103.79 55.8036 104.258 56.2924C105.815 57.9451 105.815 57.9451 107.883 58.8549C107.223 60.8349 106.563 62.8149 105.883 64.8549C104.893 64.1949 103.903 63.5349 102.883 62.8549C102.474 60.1428 102.75 57.6111 102.883 54.8549Z" fill="#231E26"/>
<path d="M91.8828 42.8549C92.8728 43.1849 93.8628 43.5149 94.8828 43.8549C94.5528 45.5049 94.2228 47.1549 93.8828 48.8549C92.5628 49.1849 91.2428 49.5149 89.8828 49.8549C89.5528 48.8649 89.2228 47.8749 88.8828 46.8549C89.5428 46.5249 90.2028 46.1949 90.8828 45.8549C91.2128 44.8649 91.5428 43.8749 91.8828 42.8549Z" fill="#F2D3B5"/>
<path d="M112.883 26.8549C116.174 27.9899 116.879 28.8477 118.633 31.9799C119.045 32.9286 119.458 33.8774 119.883 34.8549C117.128 34.4749 116.063 34.0475 114.133 31.9799C112.883 29.8549 112.883 29.8549 112.883 26.8549Z" fill="#0B1517"/>
<path d="M92.8828 36.8549C95.8761 37.9524 96.7289 38.5317 98.1328 41.4799C98.3803 42.2636 98.6278 43.0474 98.8828 43.8549C98.2228 44.5149 97.5628 45.1749 96.8828 45.8549C96.5528 44.5349 96.2228 43.2149 95.8828 41.8549C94.2328 41.5249 92.5828 41.1949 90.8828 40.8549C91.5428 39.5349 92.2028 38.2149 92.8828 36.8549Z" fill="#BAA18D"/>
<path d="M25.8828 126.855C26.8728 127.185 27.8628 127.515 28.8828 127.855C30.5703 131.417 30.5703 131.417 31.8828 134.855C30.5628 134.855 29.2428 134.855 27.8828 134.855C27.2228 132.215 26.5628 129.575 25.8828 126.855Z" fill="#1B1F17"/>
<path d="M136.883 104.855C140.843 106.835 140.843 106.835 144.883 108.855C143.893 109.845 142.903 110.835 141.883 111.855C139.903 110.535 137.923 109.215 135.883 107.855C136.213 106.865 136.543 105.875 136.883 104.855Z" fill="#112023"/>
<path d="M26.8828 101.855C30.7578 103.605 30.7578 103.605 31.8828 105.855C31.2228 105.855 30.5628 105.855 29.8828 105.855C29.5528 106.515 29.2228 107.175 28.8828 107.855C27.5628 106.535 26.2428 105.215 24.8828 103.855C25.5428 103.195 26.2028 102.535 26.8828 101.855Z" fill="#B7B8C5"/>
<path d="M20.8828 74.8549C21.5428 74.8549 22.2028 74.8549 22.8828 74.8549C22.8828 76.5049 22.8828 78.1549 22.8828 79.8549C20.9028 80.1849 18.9228 80.5149 16.8828 80.8549C18.0345 78.3869 18.9306 76.807 20.8828 74.8549Z" fill="#4E5153"/>
<path d="M59.8828 44.8549C63.2578 44.7299 63.2578 44.7299 66.8828 44.8549C67.5428 45.5149 68.2028 46.1749 68.8828 46.8549C67.8928 47.5149 66.9028 48.1749 65.8828 48.8549C63.2578 48.1049 63.2578 48.1049 60.8828 46.8549C60.5528 46.1949 60.2228 45.5349 59.8828 44.8549Z" fill="#F0D6B8"/>
<path d="M26.8828 41.8549C27.8728 42.5149 28.8628 43.1749 29.8828 43.8549C29.2228 46.4949 28.5628 49.1349 27.8828 51.8549C27.5528 51.1949 27.2228 50.5349 26.8828 49.8549C26.2228 49.8549 25.5628 49.8549 24.8828 49.8549C25.5428 47.2149 26.2028 44.5749 26.8828 41.8549Z" fill="#1A2123"/>
<path d="M89.8828 40.8549C91.8824 40.8123 93.8832 40.8141 95.8828 40.8549C96.8828 41.8549 96.8828 41.8549 96.9453 44.4174C96.9247 45.2217 96.9041 46.0261 96.8828 46.8549C96.2228 46.8549 95.5628 46.8549 94.8828 46.8549C94.5528 45.8649 94.2228 44.8749 93.8828 43.8549C91.8677 43.1216 91.8677 43.1216 89.8828 42.8549C89.8828 42.1949 89.8828 41.5349 89.8828 40.8549Z" fill="#0E100C"/>
<path d="M92.8828 13.8549C96.2265 14.4121 98.9159 15.2066 101.883 16.8549C101.883 17.5149 101.883 18.1749 101.883 18.8549C98.5391 18.2976 95.8497 17.5031 92.8828 15.8549C92.8828 15.1949 92.8828 14.5349 92.8828 13.8549Z" fill="#0F110F"/>
<path d="M18.8828 61.8549C19.2128 61.8549 19.5428 61.8549 19.8828 61.8549C20.1107 63.8731 20.3386 65.8913 20.5664 67.9095C20.7958 69.9289 20.7958 69.9289 21.8828 71.8549C19.9028 72.8449 19.9028 72.8449 17.8828 73.8549C17.8013 69.6935 17.9004 65.9076 18.8828 61.8549Z" fill="#55BAD0"/>
<path d="M62.8828 11.8549C62.8828 12.5149 62.8828 13.1749 62.8828 13.8549C63.5428 14.1849 64.2028 14.5149 64.8828 14.8549C58.8281 15.8314 58.8281 15.8314 56.8828 15.8549C56.2228 15.1949 55.5628 14.5349 54.8828 13.8549C57.7888 12.5982 59.6789 11.8549 62.8828 11.8549Z" fill="#1B2A2E"/>
<path d="M45.8828 129.855C46.2128 129.855 46.5428 129.855 46.8828 129.855C47.004 130.637 47.1252 131.42 47.25 132.226C47.4176 133.238 47.5852 134.25 47.7578 135.292C47.9203 136.302 48.0827 137.311 48.25 138.351C48.4589 139.177 48.6677 140.004 48.8828 140.855C49.5428 141.185 50.2028 141.515 50.8828 141.855C47.0078 140.98 47.0078 140.98 45.8828 139.855C45.8108 138.169 45.799 136.48 45.8203 134.792C45.8294 133.873 45.8384 132.954 45.8477 132.007C45.8593 131.297 45.8709 130.587 45.8828 129.855Z" fill="#08030C"/>
<path d="M72.8828 99.8549C74.5328 99.8549 76.1828 99.8549 77.8828 99.8549C77.5528 101.175 77.2228 102.495 76.8828 103.855C75.2328 103.855 73.5828 103.855 71.8828 103.855C72.2128 102.535 72.5428 101.215 72.8828 99.8549Z" fill="#777167"/>
<path d="M46.8828 79.8549C47.2128 79.8549 47.5428 79.8549 47.8828 79.8549C48.2128 83.8149 48.5428 87.7749 48.8828 91.8549C47.8928 92.3499 47.8928 92.3499 46.8828 92.8549C46.8828 91.8649 46.8828 90.8749 46.8828 89.8549C46.2228 89.8549 45.5628 89.8549 44.8828 89.8549C44.8828 89.1949 44.8828 88.5349 44.8828 87.8549C45.5428 87.8549 46.2028 87.8549 46.8828 87.8549C46.8828 85.2149 46.8828 82.5749 46.8828 79.8549Z" fill="#080808"/>
<path d="M41.8828 128.855C42.2128 128.855 42.5428 128.855 42.8828 128.855C42.8828 131.825 42.8828 134.795 42.8828 137.855C41.2328 138.185 39.5828 138.515 37.8828 138.855C37.8828 138.195 37.8828 137.535 37.8828 136.855C38.8728 136.855 39.8628 136.855 40.8828 136.855C41.2128 134.215 41.5428 131.575 41.8828 128.855Z" fill="#0E090B"/>
<path d="M50.8828 122.855C51.5428 122.855 52.2028 122.855 52.8828 122.855C52.8828 123.515 52.8828 124.175 52.8828 124.855C53.5428 124.855 54.2028 124.855 54.8828 124.855C54.5528 126.835 54.2228 128.815 53.8828 130.855C52.3371 128.536 51.0866 126.348 49.8828 123.855C50.2128 123.525 50.5428 123.195 50.8828 122.855Z" fill="#78BE56"/>
<path d="M55.8828 121.855C59.8428 122.185 63.8028 122.515 67.8828 122.855C67.8828 123.185 67.8828 123.515 67.8828 123.855C59.3114 125.283 59.3114 125.283 55.8828 122.855C55.8828 122.525 55.8828 122.195 55.8828 121.855Z" fill="#131412"/>
<path d="M130.883 106.855C131.873 107.515 132.863 108.175 133.883 108.855C132.893 110.835 131.903 112.815 130.883 114.855C130.223 114.855 129.563 114.855 128.883 114.855C129.543 112.215 130.203 109.575 130.883 106.855Z" fill="#121411"/>
<path d="M58.8828 133.855C59.2128 133.855 59.5428 133.855 59.8828 133.855C60.2128 137.485 60.5428 141.115 60.8828 144.855C59.5628 145.185 58.2428 145.515 56.8828 145.855C56.5528 145.195 56.2228 144.535 55.8828 143.855C56.8728 143.855 57.8628 143.855 58.8828 143.855C58.8828 140.555 58.8828 137.255 58.8828 133.855Z" fill="#151C11"/>
<path d="M94.8828 136.855C99.3378 138.835 99.3378 138.835 103.883 140.855C103.883 141.185 103.883 141.515 103.883 141.855C98.3828 142.222 98.3828 142.222 96.0078 140.48C94.8828 138.855 94.8828 138.855 94.8828 136.855Z" fill="#110E0F"/>
<path d="M37.8828 110.855C39.5328 111.185 41.1828 111.515 42.8828 111.855C42.8828 112.845 42.8828 113.835 42.8828 114.855C41.2328 114.525 39.5828 114.195 37.8828 113.855C37.8828 112.865 37.8828 111.875 37.8828 110.855Z" fill="#BFBAC2"/>
<path d="M12.8828 107.855C14.9453 108.292 14.9453 108.292 16.8828 108.855C14.8828 111.855 14.8828 111.855 12.7578 112.542C12.1391 112.645 11.5203 112.749 10.8828 112.855C11.7578 108.98 11.7578 108.98 12.8828 107.855Z" fill="#EDF7C2"/>
<path d="M73.8828 59.8549C74.5428 59.8549 75.2028 59.8549 75.8828 59.8549C75.1328 64.6049 75.1328 64.6049 72.8828 66.8549C72.2228 66.1949 71.5628 65.5349 70.8828 64.8549C72.2578 62.3549 72.2578 62.3549 73.8828 59.8549Z" fill="#25211E"/>
<path d="M55.8828 37.8549C56.2128 38.5149 56.5428 39.1749 56.8828 39.8549C57.8728 40.1849 58.8628 40.5149 59.8828 40.8549C59.0991 41.123 58.3153 41.3911 57.5078 41.6674C54.6017 42.703 54.6017 42.703 52.8828 45.8549C52.8828 41.5866 53.2589 40.916 55.8828 37.8549Z" fill="#D3B69D"/>
<path d="M57.8828 36.8549C61.8428 36.8549 65.8028 36.8549 69.8828 36.8549C69.8828 37.1849 69.8828 37.5149 69.8828 37.8549C66.5828 37.8549 63.2828 37.8549 59.8828 37.8549C59.8828 38.5149 59.8828 39.1749 59.8828 39.8549C58.8928 39.8549 57.9028 39.8549 56.8828 39.8549C57.2128 38.8649 57.5428 37.8749 57.8828 36.8549Z" fill="#FADEBB"/>
<path d="M107.883 22.8549C109.758 23.1674 109.758 23.1674 111.883 23.8549C112.543 24.8449 113.203 25.8349 113.883 26.8549C113.223 27.5149 112.563 28.1749 111.883 28.8549C110.507 27.5652 109.175 26.228 107.883 24.8549C107.883 24.1949 107.883 23.5349 107.883 22.8549Z" fill="#172427"/>
<path d="M110.883 135.855C111.213 136.845 111.543 137.835 111.883 138.855C113.898 139.588 113.898 139.588 115.883 139.855C114.233 140.515 112.583 141.175 110.883 141.855C110.223 140.865 109.563 139.875 108.883 138.855C109.543 137.865 110.203 136.875 110.883 135.855Z" fill="#69A84C"/>
</svg>
