<svg width="153" height="154" viewBox="0 0 153 154" fill="none" xmlns="http://www.w3.org/2000/svg">
<path d="M119.609 13.7159C122.116 15.6547 124.483 17.676 126.832 19.8019C127.602 20.4786 128.371 21.1554 129.164 21.8526C142.812 34.5703 151.241 53.4378 152.082 72.048C152.617 93.9835 145.629 113.53 130.742 129.942C127.366 133.228 123.64 136.039 119.832 138.802C117.402 136.372 116.411 133.885 115.027 130.775C113.945 128.656 113.945 128.656 111.75 127.489C109.832 125.802 109.832 125.802 109.188 122.517C109.132 121.27 109.077 120.024 109.02 118.739C108.951 117.49 108.883 116.241 108.813 114.954C108.832 111.802 108.832 111.802 109.832 109.802C110.438 103.635 109.744 98.4667 107.488 92.712C106.832 90.8019 106.832 90.8019 106.832 87.8019C108.293 86.337 108.293 86.337 110.207 84.8644C112.966 82.7359 114.456 81.0205 115.832 77.8019C115.172 77.8019 114.512 77.8019 113.832 77.8019C113.935 76.585 114.038 75.3681 114.145 74.1144C114.151 70.619 114.111 70.0962 111.582 67.4269C110.675 66.5606 109.767 65.6944 108.832 64.8019C107.259 61.5507 106.017 58.2114 104.832 54.8019C106.482 54.4719 108.132 54.1419 109.832 53.8019C109.264 53.5711 108.695 53.3404 108.109 53.1026C95.0385 47.5819 95.0385 47.5819 92.3946 41.4894C92.1161 40.1591 92.1161 40.1591 91.8321 38.8019C91.5021 39.1319 91.1721 39.4619 90.8321 39.8019C91.1621 40.4619 91.4921 41.1219 91.8321 41.8019C91.9016 43.3421 91.9166 44.8852 91.8946 46.4269C91.8855 47.2441 91.8765 48.0614 91.8672 48.9034C91.8556 49.5299 91.844 50.1564 91.8321 50.8019C91.2339 50.0181 90.6358 49.2344 90.0196 48.4269C87.9212 45.6561 87.9212 45.6561 84.8321 43.8019C83.8214 43.8019 82.8108 43.8019 81.7696 43.8019C80.8002 43.8019 79.8308 43.8019 78.8321 43.8019C78.1721 43.1419 77.5121 42.4819 76.8321 41.8019C76.5021 42.7919 76.1721 43.7819 75.8321 44.8019C74.1821 44.4719 72.5321 44.1419 70.8321 43.8019C71.1621 44.7919 71.4921 45.7819 71.8321 46.8019C76.4521 46.4719 81.0721 46.1419 85.8321 45.8019C86.4302 46.895 87.0283 47.9881 87.6446 49.1144C89.1225 51.7126 90.5303 53.8454 92.8321 55.8019C93.1621 53.1619 93.4921 50.5219 93.8321 47.8019C99.5215 50.1198 102.72 54.0342 105.145 59.5519C109.177 70.8235 105.553 81.8504 100.633 92.3644C95.7541 100.663 88.9147 106.545 79.8321 109.802C73.0322 111.383 67.5278 108.329 61.8321 104.802C55.6207 100.529 51.2722 95.0323 48.8321 87.8644C48.5021 87.1837 48.1721 86.5031 47.8321 85.8019C46.6564 85.5853 46.6564 85.5853 45.4571 85.3644C42.8321 84.8019 42.8321 84.8019 40.5821 82.2394C38.5162 78.1814 38.143 75.3105 37.8321 70.8019C36.8421 71.7919 35.8521 72.7819 34.8321 73.8019C32.0055 66.7356 32.0055 60.8681 34.8321 53.8019C36.1521 53.8019 37.4721 53.8019 38.8321 53.8019C38.8321 53.1419 38.8321 52.4819 38.8321 51.8019C38.1927 51.4925 37.5533 51.1831 36.8946 50.8644C34.8321 49.8019 34.8321 49.8019 33.8321 48.8019C33.1644 42.5261 34.9122 37.3645 37.8321 31.8019C38.4921 31.4719 39.1521 31.1419 39.8321 30.8019C40.5127 32.0084 40.5127 32.0084 41.2071 33.2394C42.5793 35.8904 42.5793 35.8904 44.8321 36.8019C46.2055 36.9519 47.5849 37.0502 48.9649 37.1183C49.7705 37.1602 50.5762 37.2021 51.4063 37.2452C52.6689 37.3042 52.6689 37.3042 53.9571 37.3644C55.2313 37.4291 55.2313 37.4291 56.5313 37.4952C58.6313 37.6014 60.7317 37.7022 62.8321 37.8019C62.8321 37.1419 62.8321 36.4819 62.8321 35.8019C61.1692 35.8541 61.1692 35.8541 59.4727 35.9073C58.0092 35.9355 56.5456 35.9628 55.0821 35.9894C54.3524 36.0145 53.6228 36.0396 52.8711 36.0655C49.6048 36.1101 47.2579 36.0322 44.3555 34.462C42.8321 32.8019 42.8321 32.8019 42.2071 30.0519C43.3587 24.0631 47.6573 20.398 52.5196 16.9894C57.2857 14.1759 62.4048 13.4703 67.8321 12.8019C60.5528 12.0671 55.7621 12.5591 49.836 17.0011C47.2941 19.2853 45.1527 21.7372 43.1211 24.4816C42.6957 24.9173 42.2703 25.353 41.8321 25.8019C40.8421 25.8019 39.8521 25.8019 38.8321 25.8019C38.5562 26.5263 38.2803 27.2508 37.9961 27.9972C36.8848 30.6747 35.5957 33.135 34.2071 35.6769C31.5567 40.923 31.2137 44.7789 32.3946 50.5519C32.8321 52.8019 32.8321 52.8019 31.8321 55.8019C30.9571 66.9606 32.1029 74.5393 39.2696 83.1769C41.3149 85.4054 42.7863 86.7768 45.4571 88.2394C48.6966 90.3706 49.6913 93.0513 51.4414 96.4464C54.2575 101.216 58.2602 104.754 62.8321 107.802C63.1953 109.86 63.1953 109.86 63.1446 112.239C63.1407 113.022 63.1368 113.804 63.1328 114.61C62.8321 116.802 62.8321 116.802 60.8321 119.802C58.4403 120.545 56.1435 121.141 53.7071 121.677C43.4485 124.143 43.4485 124.143 36.2461 131.345C34.9936 133.798 33.8632 136.249 32.8321 138.802C16.7795 130.046 7.97722 113.77 2.37503 96.9972C-2.60833 76.8486 0.289122 55.0157 10.7031 37.2042C21.7894 19.1157 38.4238 6.83935 58.9727 1.71984C79.881 -2.7706 102.083 1.63695 119.609 13.7159ZM109.832 69.8019C110.492 69.8019 111.152 69.8019 111.832 69.8019C112.965 72.8118 113.761 75.5735 113.832 78.8019C112.321 81.6778 110.404 83.8218 107.832 85.8019C107.172 85.8019 106.512 85.8019 105.832 85.8019C107.165 80.4685 108.499 75.1352 109.832 69.8019Z" fill="#151A19"/>
<path d="M119.609 13.7159C122.116 15.6547 124.483 17.676 126.832 19.8019C127.602 20.4786 128.371 21.1554 129.164 21.8526C142.812 34.5703 151.241 53.4378 152.082 72.048C152.617 93.9835 145.629 113.53 130.742 129.942C127.366 133.228 123.64 136.039 119.832 138.802C117.831 136.801 117.101 135.404 115.957 132.864C114.66 130.143 114.101 128.988 111.582 127.239C111.005 126.765 110.427 126.291 109.832 125.802C109.582 122.114 109.582 122.114 109.832 118.802C110.492 119.462 111.152 120.122 111.832 120.802C121.038 113.325 126.355 105.771 130.832 94.8019C131.154 94.1071 131.477 93.4123 131.809 92.6964C136.363 81.6936 134.661 66.7614 130.832 55.8019C128.256 50.1312 125.27 44.2395 120.832 39.8019C120.189 39.7103 119.546 39.6188 118.883 39.5245C116.832 38.8019 116.832 38.8019 115.445 36.4308C114.801 34.9129 114.801 34.9129 114.145 33.3644C109.243 23.0446 102.655 15.8208 91.8321 11.8019C88.349 10.6792 85.0432 10.6355 81.3946 10.6144C80.2821 10.6002 79.1696 10.586 78.0235 10.5714C74.8736 10.6332 74.8736 10.6332 72.3125 11.8292C69.1964 13.0511 66.9054 12.7927 63.5821 12.5519C56.7033 12.4508 52.8292 14.148 47.8321 18.8019C46.162 20.6407 44.5989 22.4853 43.1211 24.4816C42.6957 24.9173 42.2703 25.353 41.8321 25.8019C40.8421 25.8019 39.8521 25.8019 38.8321 25.8019C38.5562 26.5263 38.2803 27.2508 37.9961 27.9972C36.8848 30.6747 35.5957 33.135 34.2071 35.6769C31.5567 40.923 31.2137 44.7789 32.3946 50.5519C32.8321 52.8019 32.8321 52.8019 31.8321 55.8019C30.9571 66.9606 32.1029 74.5393 39.2696 83.1769C41.3149 85.4054 42.7863 86.7768 45.4571 88.2394C48.6966 90.3706 49.6913 93.0513 51.4414 96.4464C54.2575 101.216 58.2602 104.754 62.8321 107.802C63.1953 109.86 63.1953 109.86 63.1446 112.239C63.1407 113.022 63.1368 113.804 63.1328 114.61C62.8321 116.802 62.8321 116.802 60.8321 119.802C58.4403 120.545 56.1435 121.141 53.7071 121.677C43.4485 124.143 43.4485 124.143 36.2461 131.345C34.9936 133.798 33.8632 136.249 32.8321 138.802C16.7795 130.046 7.97722 113.77 2.37503 96.9972C-2.60833 76.8486 0.289122 55.0157 10.7031 37.2042C21.7894 19.1157 38.4238 6.83935 58.9727 1.71984C79.881 -2.7706 102.083 1.63695 119.609 13.7159Z" fill="#24BCD2"/>
<path d="M85.8319 45.8019C86.43 46.895 87.0282 47.9881 87.6444 49.1144C89.1224 51.7126 90.5302 53.8454 92.8319 55.8019C93.1619 53.1619 93.4919 50.5219 93.8319 47.8019C99.5214 50.1198 102.72 54.0342 105.144 59.5519C109.177 70.8235 105.553 81.8504 100.633 92.3644C95.754 100.663 88.9146 106.545 79.8319 109.802C73.0321 111.383 67.5276 108.329 61.8319 104.802C51.7385 97.8577 47.6855 87.3351 44.8319 75.8019C44.4913 72.0806 44.484 68.5203 44.8319 64.8019C53.0056 64.3533 58.8076 64.3944 65.8319 68.8019C65.8319 68.1419 65.8319 67.4819 65.8319 66.8019C59.3435 63.2912 54.1837 62.2493 46.8319 62.8019C48.2428 54.304 48.2428 54.304 51.4022 51.3175C57.9407 47.9841 65.7202 47.8213 72.9179 47.1964C77.4405 46.7405 81.2353 45.6997 85.8319 45.8019Z" fill="#F4D4B8"/>
<path d="M91.707 107.364C95.9484 110.233 97.6258 113.737 98.582 118.677C98.6645 119.708 98.747 120.739 98.832 121.802C99.242 121.369 99.6519 120.936 100.074 120.489C100.613 119.932 101.152 119.376 101.707 118.802C102.241 118.245 102.774 117.688 103.324 117.114C104.832 115.802 104.832 115.802 106.832 115.802C108.044 118.225 107.778 119.499 107.582 122.177C107.493 124.592 107.493 124.592 107.832 126.802C110.079 128.95 110.079 128.95 112.832 130.802C114.499 133.328 115.918 135.911 116.832 138.802C115.832 141.802 115.832 141.802 114.055 143.005C112.985 143.523 112.985 143.523 111.895 144.052C111.184 144.408 110.474 144.763 109.742 145.13C109.112 145.352 108.481 145.573 107.832 145.802C107.172 145.472 106.512 145.142 105.832 144.802C105.832 143.482 105.832 142.162 105.832 140.802C105.541 141.356 105.249 141.91 104.949 142.482C101.599 148.402 101.599 148.402 97.832 150.364C94.8077 150.805 92.7483 150.66 89.832 149.802C89.832 147.162 89.832 144.522 89.832 141.802C89.172 141.802 88.512 141.802 87.832 141.802C87.832 145.102 87.832 148.402 87.832 151.802C71.2871 155.938 53.6826 151.325 38.832 143.802C37.4689 142.843 36.1211 141.858 34.832 140.802C35.0801 135.717 36.7461 132.964 40.0977 129.341C45.1486 124.859 52.736 123.336 59.2891 122.482C62.8467 122.93 64.0011 124.505 66.3945 127.114C69.0561 129.979 71.5511 132.647 74.832 134.802C76.8688 135.025 76.8688 135.025 78.832 133.802C80.669 131.897 82.2167 129.911 83.832 127.802C81.4692 127.572 81.4692 127.572 79.207 130.302C78.4233 131.127 77.6395 131.952 76.832 132.802C73.1216 131.224 70.533 128.895 67.582 126.177C66.69 125.36 65.798 124.542 64.8789 123.7C64.2034 123.074 63.528 122.447 62.832 121.802C63.822 117.842 64.812 113.882 65.832 109.802C67.0695 110.297 67.0695 110.297 68.332 110.802C74.1258 112.457 79.3046 112.566 84.832 109.802C85.492 112.442 86.152 115.082 86.832 117.802C87.492 117.802 88.152 117.802 88.832 117.802C88.337 116.812 88.337 116.812 87.832 115.802C87.6979 113.129 87.7888 110.479 87.832 107.802C89.832 106.802 89.832 106.802 91.707 107.364Z" fill="#32342E"/>
<path d="M98.7852 27.38C104.21 29.8058 108.212 33.6687 112.438 37.7784C114.722 39.9289 114.722 39.9289 117.582 40.88C118.696 41.3363 118.696 41.3363 119.832 41.8018C120.645 44.9268 120.645 44.9268 120.832 47.8018C121.492 47.8018 122.152 47.8018 122.832 47.8018C122.832 45.8218 122.832 43.8418 122.832 41.8018C133.088 53.9891 136.207 67.9646 135.122 83.5807C133.257 97.8602 124.719 111.698 113.832 120.802C112.347 121.297 112.347 121.297 110.832 121.802C108.974 117.211 108.908 114.604 109.832 109.802C110.321 103.582 109.77 98.5319 107.488 92.712C106.832 90.8018 106.832 90.8018 106.832 87.8018C108.293 86.337 108.293 86.337 110.207 84.8643C112.965 82.7359 114.456 81.0205 115.832 77.8018C115.172 77.8018 114.512 77.8018 113.832 77.8018C113.935 76.585 114.038 75.3681 114.145 74.1143C114.151 70.619 114.111 70.0962 111.582 67.4268C110.675 66.5606 109.767 65.6943 108.832 64.8018C107.259 61.5507 106.017 58.2113 104.832 54.8018C106.482 54.4718 108.132 54.1418 109.832 53.8018C109.264 53.5711 108.695 53.3404 108.109 53.1026C97.7627 48.7325 97.7627 48.7325 93.832 44.8018C92.582 41.6143 92.582 41.6143 91.832 38.8018C88.5828 36.6357 88.2335 36.5885 84.6445 37.1768C83.3864 37.3831 82.1283 37.5893 80.832 37.8018C81.2467 32.9642 83.2519 30.9454 86.832 27.8018C90.5852 25.9253 94.8369 26.2113 98.7852 27.38ZM109.832 69.8018C110.492 69.8018 111.152 69.8018 111.832 69.8018C112.965 72.8118 113.761 75.5735 113.832 78.8018C112.321 81.6778 110.404 83.8217 107.832 85.8018C107.172 85.8018 106.512 85.8018 105.832 85.8018C107.165 80.4685 108.499 75.1352 109.832 69.8018Z" fill="#79CAE0"/>
<path d="M29.832 40.8019C30.162 40.8019 30.492 40.8019 30.832 40.8019C31.1951 42.7377 31.5472 44.6756 31.8945 46.6144C32.0917 47.6933 32.2889 48.7723 32.4921 49.8839C32.832 52.8019 32.832 52.8019 31.832 55.8019C30.9571 66.9606 32.1028 74.5393 39.2695 83.1769C41.3148 85.4054 42.7862 86.7768 45.457 88.2394C48.6965 90.3706 49.6912 93.0513 51.4413 96.4464C54.2574 101.216 58.2601 104.754 62.832 107.802C63.1952 109.86 63.1952 109.86 63.1445 112.239C63.1406 113.022 63.1367 113.804 63.1327 114.61C62.832 116.802 62.832 116.802 60.832 119.802C58.3691 120.7 56.0477 121.416 53.5195 122.052C52.855 122.238 52.1904 122.423 51.5058 122.614C47.6182 123.63 44.6385 124.207 40.832 122.802C29.1738 114.525 20.3052 100.943 17.832 86.8019C17.5453 83.5254 17.4978 80.2772 17.5195 76.9894C17.5244 76.1072 17.5293 75.225 17.5344 74.316C17.7538 62.0964 21.3027 49.9404 29.832 40.8019Z" fill="#79C9DF"/>
<path d="M61.832 122.802C64.1484 124.665 64.1484 124.665 66.3945 127.114C70.2451 131.399 70.2451 131.399 74.832 134.802C78.2373 134.597 80.1102 132.974 82.582 130.739C83.1956 130.192 83.8092 129.644 84.4414 129.079C84.9003 128.658 85.3592 128.236 85.832 127.802C89.4327 136.012 88.7865 143.074 87.832 151.802C72.036 156.876 52.9672 150.963 38.832 143.802C37.4689 142.843 36.1211 141.858 34.832 140.802C35.0801 135.717 36.7461 132.964 40.0977 129.341C45.2688 124.752 54.9515 121.935 61.832 122.802Z" fill="#61BFDB"/>
<path d="M62.582 11.6769C63.5669 11.695 64.5517 11.713 65.5664 11.7316C66.6879 11.7664 66.6879 11.7664 67.832 11.8019C68.327 12.7919 68.327 12.7919 68.832 13.8019C68.0702 13.8767 67.3083 13.9514 66.5234 14.0285C57.4645 15.1821 51.7769 17.9532 45.2695 24.3019C43.486 27.4037 43.2843 29.2808 43.832 32.8019C47.5527 35.2824 50.6974 35.2457 55.0195 35.4269C55.7691 35.4656 56.5187 35.5043 57.291 35.5441C59.1376 35.6382 60.9848 35.7211 62.832 35.8019C62.832 36.4619 62.832 37.1219 62.832 37.8019C59.9352 37.9102 57.0424 37.9894 54.1445 38.0519C53.3279 38.0854 52.5113 38.1189 51.6699 38.1535C47.5291 38.2205 45.4045 38.1604 41.8125 35.9113C39.832 33.8019 39.832 33.8019 38.832 31.8019C35.051 39.9656 35.051 39.9656 34.832 48.8019C36.7325 50.6451 36.7325 50.6451 38.832 51.8019C38.832 52.4619 38.832 53.1219 38.832 53.8019C37.512 53.8019 36.192 53.8019 34.832 53.8019C33.8761 58.5817 33.5933 62.9485 33.832 67.8019C34.492 68.7919 35.152 69.7819 35.832 70.8019C36.822 70.8019 37.812 70.8019 38.832 70.8019C38.9416 71.4774 39.0512 72.1529 39.164 72.8488C39.3226 73.7408 39.4812 74.6329 39.6445 75.5519C39.7953 76.4336 39.9462 77.3154 40.1015 78.2238C40.9174 81.1032 41.7131 82.6877 43.832 84.8019C45.085 85.0281 45.085 85.0281 46.3633 85.2589C48.832 85.8019 48.832 85.8019 50.2383 87.8761C50.5992 88.7385 50.9601 89.6009 51.332 90.4894C55.3318 99.1413 60.4823 103.457 68.832 107.802C74.7293 109.768 79.2667 109.357 84.832 106.802C92.028 102.888 97.767 97.4645 100.832 89.8019C102.152 89.8019 103.472 89.8019 104.832 89.8019C108.385 96.167 108.978 102.61 107.832 109.802C106.28 112.711 104.524 114.884 101.832 116.802C101.172 116.802 100.512 116.802 99.832 116.802C99.832 116.142 99.832 115.482 99.832 114.802C98.842 114.802 97.852 114.802 96.832 114.802C96.2133 113.833 95.5945 112.863 94.957 111.864C92.9567 108.226 92.9567 108.226 87.832 107.802C88.492 111.432 89.152 115.062 89.832 118.802C88.512 118.472 87.192 118.142 85.832 117.802C85.172 115.492 84.512 113.182 83.832 110.802C83.337 111.132 82.842 111.462 82.332 111.802C77.3258 113.804 73.1401 113.363 68.332 111.302C67.507 110.807 66.682 110.312 65.832 109.802C65.6625 111.218 65.4966 112.635 65.332 114.052C65.1928 115.235 65.1928 115.235 65.0508 116.443C64.7705 119.071 64.7705 119.071 64.832 122.802C67.0292 125.265 67.0292 125.265 69.832 127.552C70.7601 128.351 71.6883 129.15 72.6445 129.974C73.3664 130.577 74.0883 131.18 74.832 131.802C78.2341 130.188 80.9353 128.216 83.832 125.802C84.162 126.792 84.492 127.782 84.832 128.802C83.7649 130.004 82.6776 131.188 81.582 132.364C80.6771 133.356 80.6771 133.356 79.7539 134.368C77.832 135.802 77.832 135.802 75.9179 135.794C73.0394 134.425 71.0344 132.535 68.707 130.364C67.8382 129.561 66.9694 128.758 66.0742 127.931C64.6432 126.572 63.2273 125.197 61.832 123.802C53.1063 124.269 44.8236 126.466 37.832 131.802C37.502 130.812 37.172 129.822 36.832 128.802C43.3473 123.076 50.0585 121.37 58.3554 119.548C59.1727 119.302 59.99 119.056 60.832 118.802C62.6143 115.237 62.7258 111.662 61.832 107.802C59.5053 105.011 56.7106 102.995 53.832 100.802C51.4285 98.1386 49.9267 96.0128 48.457 92.7394C46.4524 89.1158 44.2817 88.0575 40.832 85.8019C34.784 80.0749 31.1304 74.7622 30.625 66.3605C30.5208 57.2761 30.5208 57.2761 31.4101 53.0636C32.0499 50.6476 32.0499 50.6476 30.832 47.8019C29.6053 39.5656 34.391 32.4635 38.832 25.8019C39.822 25.8019 40.812 25.8019 41.832 25.8019C42.0718 25.227 42.3115 24.6521 42.5586 24.0597C44.0864 21.351 45.8683 19.7204 48.207 17.6769C48.9779 16.9937 49.7487 16.3105 50.5429 15.6066C54.6797 12.3452 57.2885 11.5509 62.582 11.6769Z" fill="#22221F"/>
<path d="M97.8321 16.8018C98.7583 17.3084 98.7583 17.3084 99.7032 17.8253C105.202 21.2792 108.386 26.4081 111.832 31.8018C111.502 32.4618 111.172 33.1218 110.832 33.8018C110.217 33.3081 109.602 32.8144 108.969 32.3057C107.756 31.3447 107.756 31.3447 106.52 30.3643C105.719 29.7263 104.919 29.0882 104.094 28.4307C99.2093 24.9128 93.6214 25.2055 87.8321 25.8018C83.3311 27.972 80.8584 30.2427 78.8321 34.8018C78.0349 37.7803 77.3934 40.7707 76.8321 43.8018C74.8521 44.2968 74.8521 44.2968 72.8321 44.8018C71.8493 43.1999 70.871 41.5952 69.8946 39.9893C69.3493 39.096 68.8041 38.2027 68.2423 37.2823C65.4157 32.3104 64.8232 27.4004 65.8321 21.8018C68.2829 17.5165 71.3475 14.6266 75.6446 12.2393C83.7987 11.1202 90.6842 12.8738 97.8321 16.8018Z" fill="#F3E6BD"/>
<path d="M98.7852 27.38C104.21 29.8058 108.212 33.6687 112.438 37.7784C114.846 39.8135 116.858 40.8193 119.832 41.8018C120.2 49.2882 120.2 49.2882 118.586 51.5401C115.325 53.8863 111.673 53.2707 107.832 52.8018C102.704 51.1218 97.7306 48.6048 93.832 44.8018C92.582 41.6143 92.582 41.6143 91.832 38.8018C88.5828 36.6357 88.2335 36.5885 84.6445 37.1768C83.3864 37.3831 82.1283 37.5893 80.832 37.8018C81.2467 32.9642 83.2519 30.9454 86.832 27.8018C90.5852 25.9253 94.8369 26.2113 98.7852 27.38Z" fill="#F3E6BE"/>
<path d="M61.832 122.802C64.1836 124.7 64.1836 124.7 66.457 127.177C68.8786 129.78 70.8614 131.821 73.832 133.802C73.832 134.462 73.832 135.122 73.832 135.802C67.232 135.802 60.632 135.802 53.832 135.802C53.2752 137.431 52.7183 139.061 52.1445 140.739C51.1953 143.517 51.1953 143.517 49.832 145.802C47.5195 146.802 47.5195 146.802 44.832 146.802C42.1562 145.587 42.1562 145.587 39.5195 143.864C38.6365 143.298 37.7535 142.733 36.8438 142.15C36.1799 141.705 35.516 141.26 34.832 140.802C35.0801 135.717 36.7461 132.964 40.0977 129.341C45.2635 124.757 54.9578 121.927 61.832 122.802Z" fill="#ABD3E7"/>
<path d="M69.832 43.8019C70.492 45.1219 71.152 46.4419 71.832 47.8019C70.7351 47.9952 69.6381 48.1886 68.5078 48.3878C67.0533 48.6506 65.5989 48.9136 64.1445 49.1769C63.4233 49.3032 62.7021 49.4295 61.959 49.5597C56.1874 50.5558 56.1874 50.5558 50.832 52.8019C49.5957 54.9479 49.5957 54.9479 49.0195 57.4269C48.7862 58.2441 48.5529 59.0614 48.3125 59.9034C48.154 60.5299 47.9954 61.1564 47.832 61.8019C49.1108 61.6988 50.3895 61.5956 51.707 61.4894C57.5656 61.4428 61.8741 63.9037 66.832 66.8019C66.337 68.2869 66.337 68.2869 65.832 69.8019C64.7802 69.1625 63.7283 68.5231 62.6445 67.8644C56.9986 64.9855 51.0623 64.9918 44.832 64.8019C45.3185 71.6501 46.192 78.1323 47.832 84.8019C45.852 85.2969 45.852 85.2969 43.832 85.8019C39.386 81.3559 38.7156 76.7889 37.832 70.8019C36.842 71.7919 35.852 72.7819 34.832 73.8019C32.0055 66.7356 32.0055 60.8682 34.832 53.8019C36.152 53.8019 37.472 53.8019 38.832 53.8019C38.832 53.1419 38.832 52.4819 38.832 51.8019C39.3799 51.7155 39.9277 51.6291 40.4922 51.5402C47.3476 50.3251 53.7675 48.2316 60.3164 45.923C63.5056 44.906 66.5216 44.2538 69.832 43.8019Z" fill="#1A1918"/>
<path d="M62.582 11.6769C63.5669 11.695 64.5517 11.713 65.5664 11.7316C66.6879 11.7664 66.6879 11.7664 67.832 11.8019C68.327 12.7919 68.327 12.7919 68.832 13.8019C68.0702 13.8767 67.3083 13.9514 66.5234 14.0285C57.4645 15.1821 51.7769 17.9532 45.2695 24.3019C43.486 27.4037 43.2843 29.2808 43.832 32.8019C47.5527 35.2824 50.6974 35.2457 55.0195 35.4269C55.7691 35.4656 56.5187 35.5043 57.291 35.5441C59.1376 35.6382 60.9848 35.7211 62.832 35.8019C62.832 36.4619 62.832 37.1219 62.832 37.8019C59.9352 37.9102 57.0424 37.9894 54.1445 38.0519C53.3279 38.0854 52.5113 38.1189 51.6699 38.1535C47.5291 38.2205 45.4045 38.1604 41.8125 35.9113C39.832 33.8019 39.832 33.8019 38.832 31.8019C35.051 39.9656 35.051 39.9656 34.832 48.8019C36.7325 50.6451 36.7325 50.6451 38.832 51.8019C38.832 52.4619 38.832 53.1219 38.832 53.8019C37.512 53.8019 36.192 53.8019 34.832 53.8019C33.8761 58.5817 33.5933 62.9485 33.832 67.8019C34.492 68.7919 35.152 69.7819 35.832 70.8019C36.822 70.8019 37.812 70.8019 38.832 70.8019C38.9416 71.4774 39.0512 72.1529 39.164 72.8488C39.3226 73.7408 39.4812 74.6329 39.6445 75.5519C39.7953 76.4336 39.9462 77.3154 40.1015 78.2238C40.9174 81.1032 41.7131 82.6877 43.832 84.8019C45.085 85.0281 45.085 85.0281 46.3633 85.2589C48.832 85.8019 48.832 85.8019 50.2383 87.8761C50.5992 88.7385 50.9601 89.6009 51.332 90.4894C53.8713 96.0441 56.261 100.259 61.6445 103.489C62.3664 103.923 63.0883 104.356 63.832 104.802C63.832 105.792 63.832 106.782 63.832 107.802C57.6451 105.671 52.8137 101.401 49.6406 95.6379C49.0291 94.2716 48.4197 92.9045 47.8125 91.5363C46.2158 88.712 43.5387 87.5002 40.832 85.8019C34.7796 80.0844 31.13 74.7557 30.625 66.3605C30.5208 57.2761 30.5208 57.2761 31.4101 53.0636C32.0499 50.6476 32.0499 50.6476 30.832 47.8019C29.6053 39.5656 34.391 32.4635 38.832 25.8019C39.822 25.8019 40.812 25.8019 41.832 25.8019C42.0718 25.227 42.3115 24.6521 42.5586 24.0597C44.0864 21.351 45.8683 19.7204 48.207 17.6769C48.9779 16.9937 49.7487 16.3105 50.5429 15.6066C54.6797 12.3452 57.2885 11.5509 62.582 11.6769Z" fill="#151E1F"/>
<path d="M88.832 37.8019C90.707 37.9269 90.707 37.9269 92.832 38.8019C93.1723 40.1322 93.1723 40.1322 93.5195 41.4894C95.511 46.5155 99.0922 48.4459 103.832 50.8019C107.455 52.0454 111.087 53.0038 114.832 53.8019C114.832 54.1319 114.832 54.4619 114.832 54.8019C111.862 55.1319 108.892 55.4619 105.832 55.8019C106.121 56.4284 106.41 57.0548 106.707 57.7003C107.078 58.5176 107.45 59.3348 107.832 60.1769C108.203 60.989 108.575 61.8011 108.957 62.6378C109.832 64.8019 109.832 64.8019 109.832 66.8019C110.471 67.1113 111.111 67.4206 111.77 67.7394C113.832 68.8019 113.832 68.8019 114.832 69.8019C114.656 72.4927 114.214 75.1304 113.832 77.8019C114.492 77.8019 115.152 77.8019 115.832 77.8019C114.44 82.2295 112.311 84.7575 108.832 87.8019C108.172 87.8019 107.512 87.8019 106.832 87.8019C107.306 88.8538 107.781 89.9056 108.27 90.9894C110.83 97.0534 111.685 103.233 110.832 109.802C108.832 112.427 108.832 112.427 106.832 113.802C106.502 113.142 106.172 112.482 105.832 111.802C106.162 111.142 106.492 110.482 106.832 109.802C106.955 107.68 107.008 105.553 107.02 103.427C107.034 102.285 107.048 101.143 107.062 99.9659C106.839 96.901 106.292 95.422 104.832 92.8019C104.832 91.8119 104.832 90.8219 104.832 89.8019C103.842 89.8019 102.852 89.8019 101.832 89.8019C102.121 88.7513 102.41 87.7007 102.707 86.6183C105.666 75.5766 107.57 67.6577 102.707 56.8683C101.832 54.8019 101.832 54.8019 101.832 52.8019C101.255 52.5338 100.677 52.2656 100.082 51.9894C97.7994 50.7847 95.8582 49.3939 93.832 47.8019C93.502 50.4419 93.172 53.0819 92.832 55.8019C89.832 54.8019 89.832 54.8019 88.6641 52.9542C88.3276 52.2233 87.9912 51.4924 87.6445 50.7394C87.3004 50.0059 86.9562 49.2724 86.6016 48.5167C86.3476 47.9508 86.0937 47.3849 85.832 46.8019C84.3683 46.945 84.3683 46.945 82.875 47.0909C81.6027 47.2018 80.3304 47.3127 79.0195 47.4269C77.755 47.5429 76.4904 47.6589 75.1875 47.7784C71.832 47.8019 71.832 47.8019 68.832 45.8019C69.492 45.8019 70.152 45.8019 70.832 45.8019C70.502 44.8119 70.172 43.8219 69.832 42.8019C72.802 43.2969 72.802 43.2969 75.832 43.8019C76.162 43.1419 76.492 42.4819 76.832 41.8019C86.0049 42.9747 86.0049 42.9747 89.457 46.4269C90.1377 47.6025 90.1377 47.6025 90.832 48.8019C91.0763 43.0044 91.0763 43.0044 88.832 37.8019ZM109.832 69.8019C109.627 70.6217 109.422 71.4416 109.211 72.2863C108.085 76.7915 106.958 81.2967 105.832 85.8019C110.079 84.285 111.904 81.8069 113.832 77.8019C113.569 74.8781 112.801 72.6112 111.832 69.8019C111.172 69.8019 110.512 69.8019 109.832 69.8019Z" fill="#171614"/>
<path d="M38.832 30.8019C39.4508 31.6063 40.0695 32.4106 40.707 33.2394C42.5737 35.8406 42.5737 35.8406 44.832 36.8019C48.3419 37.0018 51.8451 37.1472 55.3594 37.2316C60.1747 37.4333 63.7055 38.0633 67.832 40.8019C69.207 42.9894 69.207 42.9894 69.832 44.8019C68.7698 45.0558 67.7077 45.3098 66.6133 45.5714C65.1859 45.9178 63.7588 46.2656 62.332 46.6144C61.5946 46.7945 60.8572 46.9747 60.0974 47.1603C56.4134 48.0814 52.895 49.0558 49.3945 50.5519C45.2105 52.02 41.2267 52.686 36.832 51.8019C34.2118 49.7895 33.8765 49.1132 33.3945 45.7394C33.9239 40.9751 35.288 34.346 38.832 30.8019Z" fill="#F1E5BD"/>
<path d="M67.832 14.8019C67.172 15.7506 66.512 16.6994 65.832 17.6769C62.3727 23.6909 63.4026 30.2704 64.832 36.8019C61.9139 36.7148 58.9989 36.6079 56.082 36.4894C55.257 36.4668 54.432 36.4442 53.582 36.421C50.0132 36.2627 47.47 36.1463 44.293 34.4308C42.832 32.8019 42.832 32.8019 42.207 30.0519C43.2449 24.6552 46.5451 21.5061 50.8711 18.2823C56.9651 14.3224 60.538 13.5394 67.832 14.8019Z" fill="#F3E7BF"/>
<path d="M104.832 115.802C105.492 115.802 106.152 115.802 106.832 115.802C108.044 118.225 107.778 119.499 107.582 122.177C107.493 124.592 107.493 124.592 107.832 126.802C110.079 128.95 110.079 128.95 112.832 130.802C114.499 133.328 115.918 135.911 116.832 138.802C115.832 141.802 115.832 141.802 114.055 143.005C113.342 143.35 112.629 143.696 111.895 144.052C111.184 144.408 110.474 144.763 109.742 145.13C109.112 145.352 108.481 145.573 107.832 145.802C107.172 145.472 106.512 145.142 105.832 144.802C105.418 142.735 105.418 142.735 105.207 140.239C105.132 139.413 105.057 138.587 104.98 137.735C104.907 136.778 104.907 136.778 104.832 135.802C101.428 136.937 101.231 137.355 99.6445 140.364C99.0464 141.499 98.4483 142.633 97.832 143.802C97.172 143.802 96.512 143.802 95.832 143.802C95.8733 142.853 95.9145 141.904 95.957 140.927C95.9201 134.875 95.6927 128.15 91.207 123.677C90.0314 122.749 90.0314 122.749 88.832 121.802C93.1003 121.802 93.7709 122.178 96.832 124.802C97.162 123.482 97.492 122.162 97.832 120.802C98.492 120.802 99.152 120.802 99.832 120.802C100.657 119.977 101.482 119.152 102.332 118.302C103.157 117.477 103.982 116.652 104.832 115.802Z" fill="#1A1B18"/>
<path d="M65.832 109.802C67.0695 110.297 67.0695 110.297 68.332 110.802C74.1258 112.457 79.3046 112.566 84.832 109.802C86.4253 115.144 87.6781 119.361 85.832 124.802C83.0537 127.763 80.0341 130.311 76.832 132.802C73.1216 131.224 70.533 128.895 67.582 126.177C66.69 125.36 65.798 124.542 64.8789 123.7C64.2034 123.074 63.528 122.447 62.832 121.802C63.822 117.842 64.812 113.882 65.832 109.802Z" fill="#F3D6BD"/>
<path d="M119.832 43.8019C120.162 45.1219 120.492 46.4419 120.832 47.8019C121.492 47.8019 122.152 47.8019 122.832 47.8019C122.523 48.5444 122.213 49.2869 121.895 50.0519C119.942 54.8558 119.942 54.8558 120.832 59.8019C121.633 67.0776 120.292 72.4067 116.832 78.8019C115.842 78.4719 114.852 78.1419 113.832 77.8019C113.935 76.585 114.038 75.3681 114.145 74.1144C114.151 70.6191 114.111 70.0962 111.582 67.4269C110.221 66.1275 110.221 66.1275 108.832 64.8019C107.259 61.5508 106.017 58.2114 104.832 54.8019C106.482 54.4719 108.132 54.1419 109.832 53.8019C109.832 53.4719 109.832 53.1419 109.832 52.8019C114.287 52.3069 114.287 52.3069 118.832 51.8019C119.162 49.1619 119.492 46.5219 119.832 43.8019ZM109.832 69.8019C110.492 69.8019 111.152 69.8019 111.832 69.8019C112.965 72.8118 113.761 75.5735 113.832 78.8019C112.321 81.6778 110.404 83.8218 107.832 85.8019C107.172 85.8019 106.512 85.8019 105.832 85.8019C107.165 80.4685 108.499 75.1352 109.832 69.8019Z" fill="#232927"/>
<path d="M103.832 90.8019C108.501 96.8923 108.821 102.163 107.832 109.802C106.296 112.723 104.526 114.883 101.832 116.802C101.172 116.802 100.512 116.802 99.832 116.802C99.1823 115.193 99.1823 115.193 98.5195 113.552C97.2788 110.639 95.8813 108.242 93.832 105.802C95.2144 102.831 96.8336 100.332 98.832 97.7394C100.583 95.4584 102.235 93.198 103.832 90.8019Z" fill="#F0E5BE"/>
<path d="M102.02 25.9268C105.74 28.407 109.314 31.0429 112.832 33.8018C112.502 34.4618 112.172 35.1218 111.832 35.8018C107.802 34.4202 105.136 32.445 101.832 29.8018C97.6286 27.5297 93.5176 27.1758 88.8321 27.8018C85.2466 29.4387 84.039 30.4916 81.8321 33.8018C81.8321 34.7918 81.8321 35.7818 81.8321 36.8018C82.9459 36.5956 84.0596 36.3893 85.2071 36.1768C86.4034 36.0531 87.5996 35.9293 88.8321 35.8018C90.8321 37.8018 90.8321 37.8018 90.8321 39.8018C91.1621 40.4618 91.4921 41.1218 91.8321 41.8018C91.9016 43.3421 91.9166 44.8852 91.8946 46.4268C91.8856 47.2441 91.8766 48.0614 91.8673 48.9034C91.8557 49.5299 91.8441 50.1564 91.8321 50.8018C91.234 50.0181 90.6359 49.2343 90.0196 48.4268C87.9213 45.6561 87.9213 45.6561 84.8321 43.8018C81.7069 43.6348 81.7069 43.6348 78.8321 43.8018C77.2773 40.6923 77.5457 38.2392 77.8321 34.8018C82.9165 24.8287 91.7519 22.3029 102.02 25.9268Z" fill="#161614"/>
<path d="M63.832 108.802C64.162 108.802 64.492 108.802 64.832 108.802C64.832 113.469 64.832 118.135 64.832 122.802C67.0292 125.265 67.0292 125.265 69.832 127.552C70.7602 128.351 71.6883 129.15 72.6445 129.974C73.3664 130.577 74.0883 131.18 74.832 131.802C78.2342 130.188 80.9353 128.216 83.832 125.802C84.327 127.287 84.327 127.287 84.832 128.802C83.7649 130.004 82.6776 131.188 81.582 132.364C80.9787 133.026 80.3755 133.687 79.7539 134.368C77.832 135.802 77.832 135.802 75.918 135.794C73.0394 134.425 71.0344 132.535 68.707 130.364C67.8382 129.561 66.9694 128.758 66.0742 127.931C64.6432 126.572 63.2273 125.197 61.832 123.802C53.1063 124.269 44.8236 126.466 37.832 131.802C37.502 130.812 37.172 129.822 36.832 128.802C41.4067 124.782 45.8516 122.297 51.8438 121.302C55.0933 120.737 57.8392 120.2 60.832 118.802C62.7486 115.583 63.4156 112.501 63.832 108.802Z" fill="#0C1012"/>
<path d="M62.582 11.6769C63.5668 11.695 64.5516 11.713 65.5663 11.7316C66.6878 11.7664 66.6878 11.7664 67.832 11.8019C68.327 12.7919 68.327 12.7919 68.832 13.8019C68.0701 13.8767 67.3083 13.9514 66.5234 14.0285C57.4644 15.1821 51.7769 17.9532 45.2695 24.3019C43.486 27.4037 43.2842 29.2808 43.832 32.8019C47.5526 35.2824 50.6974 35.2457 55.0195 35.4269C55.769 35.4656 56.5186 35.5043 57.2909 35.5441C59.1375 35.6382 60.9847 35.7211 62.832 35.8019C62.832 36.4619 62.832 37.1219 62.832 37.8019C59.9351 37.9102 57.0423 37.9894 54.1445 38.0519C53.3278 38.0854 52.5112 38.1189 51.6698 38.1535C47.529 38.2205 45.4045 38.1604 41.8124 35.9113C39.832 33.8019 39.832 33.8019 38.832 31.8019C38.172 32.4619 37.512 33.1219 36.832 33.8019C35.832 30.8019 35.832 30.8019 37.082 28.1144C37.6595 27.3513 38.237 26.5882 38.832 25.8019C39.822 25.8019 40.812 25.8019 41.832 25.8019C42.0717 25.227 42.3115 24.6521 42.5585 24.0597C44.0863 21.351 45.8683 19.7204 48.207 17.6769C48.9778 16.9937 49.7487 16.3105 50.5429 15.6066C54.6797 12.3452 57.2885 11.5509 62.582 11.6769Z" fill="#0C0F0F"/>
<path d="M34.832 53.8019C38.792 54.1319 42.752 54.4619 46.832 54.8019C44.9379 61.4314 41.7496 66.0482 36.832 70.8019C36.172 71.7919 35.512 72.7819 34.832 73.8019C32.0055 66.7356 32.0055 60.8682 34.832 53.8019Z" fill="#EDE5C2"/>
<path d="M105.832 73.8019C106.822 74.1319 107.812 74.4619 108.832 74.8019C108.364 78.8579 107.952 82.2678 105.832 85.8019C106.977 84.6572 106.977 84.6572 108.145 83.4894C109.031 82.6025 109.918 81.7156 110.832 80.8019C111.667 79.9047 111.667 79.9047 112.52 78.9894C113.832 77.8019 113.832 77.8019 115.832 77.8019C114.44 82.2295 112.311 84.7575 108.832 87.8019C108.172 87.8019 107.512 87.8019 106.832 87.8019C107.306 88.8538 107.781 89.9056 108.27 90.9894C110.83 97.0534 111.685 103.233 110.832 109.802C108.832 112.427 108.832 112.427 106.832 113.802C106.502 113.142 106.172 112.482 105.832 111.802C106.162 111.142 106.492 110.482 106.832 109.802C106.955 107.68 107.008 105.553 107.02 103.427C107.034 102.285 107.048 101.143 107.062 99.9659C106.839 96.901 106.292 95.422 104.832 92.8019C104.832 91.8119 104.832 90.8219 104.832 89.8019C103.842 89.8019 102.852 89.8019 101.832 89.8019C103.152 84.5219 104.472 79.2419 105.832 73.8019Z" fill="#080B0C"/>
<path d="M49.832 67.8019C55.924 67.4363 59.8436 68.2374 64.5391 72.2667C66.0423 73.7066 67.445 75.2497 68.832 76.8019C68.832 77.4619 68.832 78.1219 68.832 78.8019C67.9658 78.4306 67.9658 78.4306 67.082 78.0519C66.3395 77.9694 65.597 77.8869 64.832 77.8019C64.1927 78.4619 63.5533 79.1219 62.8945 79.8019C62.2139 80.4619 61.5333 81.1219 60.832 81.8019C58.207 81.7394 58.207 81.7394 55.832 80.8019C53.832 77.8019 53.832 77.8019 54.207 74.6144C54.4133 73.6862 54.6195 72.7581 54.832 71.8019C51.862 71.3069 51.862 71.3069 48.832 70.8019C49.162 69.8119 49.492 68.8219 49.832 67.8019Z" fill="#161615"/>
<path d="M104.832 54.8019C108.792 55.1319 112.752 55.4619 116.832 55.8019C117.844 58.8371 117.998 60.9992 118.02 64.1769C118.034 65.1127 118.048 66.0486 118.062 67.0128C117.819 69.9631 117.063 72.1255 115.832 74.8019C115.502 74.8019 115.172 74.8019 114.832 74.8019C114.585 73.8944 114.337 72.9869 114.082 72.0519C113.103 68.7989 113.103 68.7989 110.957 67.0519C107.621 63.5192 106.503 59.3382 104.832 54.8019Z" fill="#EFE4BB"/>
<path d="M99.832 67.8019C100.492 68.1319 101.152 68.4619 101.832 68.8019C101.832 69.7919 101.832 70.7819 101.832 71.8019C98.862 71.3069 98.862 71.3069 95.832 70.8019C96.162 71.4619 96.492 72.1219 96.832 72.8019C97.0195 75.8019 97.0195 75.8019 96.832 78.8019C94.832 80.8019 94.832 80.8019 91.8945 81.1144C88.832 80.8019 88.832 80.8019 86.957 79.3019C86.5858 78.8069 86.2145 78.3119 85.832 77.8019C84.842 78.1319 83.852 78.4619 82.832 78.8019C83.0847 75.3905 84.0671 74.5825 86.6445 72.1769C91.3886 68.642 93.8287 67.4103 99.832 67.8019Z" fill="#0E0E0D"/>
<path d="M106.832 115.802C108.439 119.016 108.307 122.316 107.832 125.802C105.725 129.714 103.193 132.889 99.832 135.802C99.172 135.802 98.512 135.802 97.832 135.802C97.4313 128.293 97.7713 123.326 102.894 117.427C104.832 115.802 104.832 115.802 106.832 115.802Z" fill="#E9DEB5"/>
<path d="M36.832 69.8019C37.492 70.1319 38.152 70.4619 38.832 70.8019C39.4393 73.2715 39.7895 75.7454 40.1719 78.2589C40.9246 81.1583 41.7089 82.6883 43.832 84.8019C44.6673 84.9527 45.5027 85.1035 46.3633 85.2589C48.832 85.8019 48.832 85.8019 50.2383 87.8761C50.5992 88.7385 50.9602 89.6009 51.332 90.4894C53.8713 96.0441 56.261 100.259 61.6445 103.489C62.3664 103.923 63.0883 104.356 63.832 104.802C63.832 105.792 63.832 106.782 63.832 107.802C57.6451 105.671 52.8137 101.401 49.6406 95.6378C49.0298 94.2731 48.4217 92.9073 47.8164 91.5402C46.2126 88.7081 43.5522 87.4884 40.832 85.8019C34.832 79.7882 34.832 79.7882 34.832 76.8019C35.492 76.8019 36.152 76.8019 36.832 76.8019C36.832 74.4919 36.832 72.1819 36.832 69.8019Z" fill="#1D2120"/>
<path d="M44.832 64.8019C44.881 65.4915 44.93 66.1812 44.9805 66.8917C45.4693 73.036 46.3603 78.8168 47.832 84.8019C46.512 85.1319 45.192 85.4619 43.832 85.8019C39.4133 81.3831 38.6031 76.7877 37.832 70.8019C37.832 69.8119 37.832 68.8219 37.832 67.8019C40.3639 65.4446 41.3039 64.8019 44.832 64.8019Z" fill="#282622"/>
<path d="M91.7071 107.364C94.8672 109.502 96.166 111.346 97.8321 114.802C97.8677 118.209 97.4409 121.454 96.8321 124.802C92.4903 122.836 89.976 120.09 87.8321 115.802C87.698 113.129 87.789 110.479 87.8321 107.802C89.8321 106.802 89.8321 106.802 91.7071 107.364Z" fill="#EEDFB7"/>
<path d="M108.832 112.802C109.837 115.817 109.935 117.844 109.895 120.989C109.886 121.89 109.876 122.791 109.867 123.72C109.856 124.407 109.844 125.094 109.832 125.802C110.448 126.073 111.064 126.343 111.699 126.622C115.851 128.918 117.884 133.606 119.832 137.802C120.162 138.462 120.492 139.122 120.832 139.802C118.582 139.802 118.582 139.802 115.832 138.802C114.619 136.848 113.733 134.844 112.809 132.739C111.595 130.331 110.101 129.21 107.832 127.802C106.57 125.277 106.733 123.49 106.77 120.677C106.779 119.767 106.788 118.857 106.797 117.919C106.808 117.22 106.82 116.522 106.832 115.802C105.883 116.586 104.935 117.369 103.957 118.177C103.423 118.618 102.89 119.059 102.34 119.513C101.122 120.554 99.9654 121.668 98.832 122.802C97.832 121.802 97.832 121.802 97.7695 118.239C97.7902 117.105 97.8108 115.971 97.832 114.802C98.492 114.802 99.152 114.802 99.832 114.802C99.832 115.462 99.832 116.122 99.832 116.802C100.575 116.142 101.317 115.482 102.082 114.802C104.832 112.802 104.832 112.802 108.832 112.802Z" fill="#0C1112"/>
<path d="M108.832 127.802C112.49 131.163 115.011 134.147 116.832 138.802C115.832 141.802 115.832 141.802 114.055 143.005C113.342 143.35 112.629 143.696 111.895 144.052C111.184 144.408 110.474 144.763 109.742 145.13C109.112 145.352 108.481 145.573 107.832 145.802C107.172 145.472 106.512 145.142 105.832 144.802C106.162 144.142 106.492 143.482 106.832 142.802C106.863 140.039 106.765 137.29 106.672 134.528C106.836 131.733 107.399 130.174 108.832 127.802Z" fill="#9FD3E5"/>
<path d="M75.0195 100.614C75.9206 100.641 76.8216 100.669 77.75 100.696C78.7806 100.749 78.7806 100.749 79.832 100.802C80.6766 104.18 80.9405 106.477 79.832 109.802C70.712 110.106 70.712 110.106 67.832 107.802C66.8945 105.864 66.8945 105.864 66.832 103.802C69.1983 100.536 71.1248 100.463 75.0195 100.614Z" fill="#F4DAC2"/>
<path d="M88.832 122.802C91.3 123.954 92.8798 124.85 94.832 126.802C95.9501 131.498 95.9146 136.007 95.832 140.802C89.957 136.052 89.957 136.052 88.832 133.802C88.7616 131.928 88.7477 130.052 88.7695 128.177C88.7785 127.174 88.7875 126.171 88.7968 125.138C88.8084 124.367 88.82 123.596 88.832 122.802Z" fill="#EADEBB"/>
<path d="M107.832 24.8019C111.719 26.2636 112.84 28.1031 114.582 31.8019C115.224 33.1322 115.224 33.1322 115.879 34.4894C116.832 36.8019 116.832 36.8019 116.832 38.8019C117.636 38.9463 118.441 39.0906 119.27 39.2394C121.832 39.8019 121.832 39.8019 122.832 40.8019C122.873 43.1349 122.874 45.4689 122.832 47.8019C122.172 47.8019 121.512 47.8019 120.832 47.8019C120.502 45.8219 120.172 43.8419 119.832 41.8019C119.09 41.7194 118.347 41.6369 117.582 41.5519C114.32 40.6622 113.022 39.3168 110.832 36.8019C111.162 35.8119 111.492 34.8219 111.832 33.8019C111.082 31.9897 111.082 31.9897 109.895 30.2394C107.832 26.9883 107.832 26.9883 107.832 24.8019Z" fill="#121817"/>
<path d="M89.832 38.8019C91.9679 42.0057 92.0634 42.8213 91.957 46.4894C91.939 47.2976 91.9209 48.1059 91.9023 48.9386C91.8675 49.8609 91.8675 49.8609 91.832 50.8019C91.2339 50.0181 90.6358 49.2344 90.0195 48.4269C87.9212 45.6561 87.9212 45.6561 84.832 43.8019C81.7068 43.6349 81.7068 43.6349 78.832 43.8019C80.7238 38.1265 84.4734 38.3147 89.832 38.8019Z" fill="#E3D4B0"/>
<path d="M62.832 21.8019C65.832 23.8019 65.832 23.8019 66.4219 26.1222C66.5366 27.0477 66.6513 27.9733 66.7695 28.9269C67.5925 34.2657 69.1804 38.1173 71.832 42.8019C70.842 43.1319 69.852 43.4619 68.832 43.8019C68.2339 43.1831 67.6358 42.5644 67.0195 41.9269C64.8239 39.6651 64.8239 39.6651 61.832 37.8019C62.492 36.8119 63.152 35.8219 63.832 34.8019C63.502 33.8119 63.172 32.8219 62.832 31.8019C62.764 30.0739 62.7471 28.3435 62.7695 26.6144C62.7786 25.7133 62.7876 24.8123 62.7969 23.8839C62.8085 23.1968 62.8201 22.5098 62.832 21.8019Z" fill="#272623"/>
<path d="M66.832 125.802C70.1979 127.244 72.3425 129.135 74.832 131.802C78.268 130.275 80.9512 128.203 83.832 125.802C84.162 126.792 84.492 127.782 84.832 128.802C83.7649 130.004 82.6776 131.188 81.582 132.364C80.6771 133.356 80.6771 133.356 79.7539 134.368C77.832 135.802 77.832 135.802 75.8633 135.739C73.3531 134.581 71.6184 133.106 69.582 131.239C68.8756 130.599 68.1692 129.958 67.4414 129.298C66.9103 128.804 66.3792 128.311 65.832 127.802C66.162 127.142 66.492 126.482 66.832 125.802Z" fill="#1C2020"/>
<path d="M101.832 135.802C102.822 135.802 103.812 135.802 104.832 135.802C105.174 140.077 105.045 142.398 103.019 146.239C102.298 147.085 101.576 147.931 100.832 148.802C99.8419 148.802 98.8519 148.802 97.8319 148.802C97.4899 144.526 97.6192 142.205 99.6444 138.364C100.366 137.519 101.088 136.673 101.832 135.802Z" fill="#E7DFBA"/>
<path d="M107.832 126.802C108.977 130.236 108.527 131.325 107.832 134.802C107.743 137.475 107.787 140.126 107.832 142.802C106.842 142.142 105.852 141.482 104.832 140.802C104.645 138.177 104.645 138.177 104.832 135.802C101.839 136.8 100.884 137.554 98.832 139.802C98.502 138.482 98.172 137.162 97.832 135.802C98.3025 135.404 98.773 135.005 99.2578 134.595C99.8804 134.065 100.503 133.535 101.145 132.989C101.759 132.467 102.374 131.945 103.008 131.407C104.686 129.93 106.271 128.401 107.832 126.802Z" fill="#242826"/>
<path d="M63.832 105.802C65.5645 106.513 65.5645 106.513 67.332 107.239C71.5177 108.824 75.3844 109.405 79.832 109.802C79.832 110.792 79.832 111.782 79.832 112.802C74.1593 113.095 70.8414 112.807 65.832 109.802C65.832 111.452 65.832 113.102 65.832 114.802C64.842 114.472 63.852 114.142 62.832 113.802C62.707 108.052 62.707 108.052 63.832 105.802Z" fill="#242A2A"/>
<path d="M49.6445 61.3331C56.3698 61.237 61.0842 63.442 66.832 66.8018C66.502 67.7918 66.172 68.7818 65.832 69.8018C64.7595 69.1625 63.687 68.5231 62.582 67.8643C57.2212 65.1357 51.7556 64.9993 45.832 64.8018C47.832 61.8018 47.832 61.8018 49.6445 61.3331Z" fill="#2C2A25"/>
<path d="M109.832 69.8019C110.492 69.8019 111.152 69.8019 111.832 69.8019C113.578 73.2929 112.677 77.0889 111.832 80.8019C109.895 83.8644 109.895 83.8644 107.832 85.8019C107.172 85.8019 106.512 85.8019 105.832 85.8019C107.165 80.4685 108.499 75.1352 109.832 69.8019Z" fill="#E8D3B1"/>
<path d="M36.832 69.8019C37.492 70.1319 38.152 70.4619 38.832 70.8019C39.4393 73.2715 39.7895 75.7454 40.1719 78.2589C40.9053 81.0843 41.8751 82.6551 43.832 84.8019C45.9262 85.5981 45.9262 85.5981 47.832 85.8019C47.172 86.4619 46.512 87.1219 45.832 87.8019C43.0661 87.6133 41.9527 86.9135 39.9102 85.0245C39.3069 84.3117 38.7036 83.5988 38.082 82.8644C37.4684 82.1541 36.8548 81.4438 36.2227 80.712C34.832 78.8019 34.832 78.8019 34.832 76.8019C35.492 76.8019 36.152 76.8019 36.832 76.8019C36.832 74.4919 36.832 72.1819 36.832 69.8019Z" fill="#090C0B"/>
<path d="M101.832 61.8019C103.559 63.3292 103.559 63.3292 104.832 64.8019C104.07 64.8393 103.308 64.8767 102.523 64.9152C95.8453 65.3404 90.0488 66.3057 83.832 68.8019C84.832 65.8019 84.832 65.8019 86.6172 64.6339C91.9698 62.2376 95.9607 61.0933 101.832 61.8019Z" fill="#25231E"/>
<path d="M109.832 133.802C111.482 133.802 113.132 133.802 114.832 133.802C115.492 136.112 116.152 138.422 116.832 140.802C114.852 141.792 112.872 142.782 110.832 143.802C108.404 137.516 108.404 137.516 109.832 133.802Z" fill="#8DC7DD"/>
<path d="M39.8322 69.8019C40.4922 69.8019 41.1522 69.8019 41.8322 69.8019C42.8222 74.7519 43.8122 79.7019 44.8322 84.8019C40.8322 82.8019 40.8322 82.8019 39.5822 81.1769C38.4607 77.6256 38.6492 74.5218 38.8322 70.8019C39.1622 70.4719 39.4922 70.1419 39.8322 69.8019Z" fill="#E4D2B6"/>
<path d="M51.207 121.989C52.832 122.802 52.832 122.802 53.832 124.802C52.8536 125.057 52.8536 125.057 51.8555 125.318C46.4648 126.812 42.2845 128.404 37.832 131.802C37.502 130.812 37.172 129.822 36.832 128.802C40.8933 125.233 45.5428 121.542 51.207 121.989Z" fill="#12191B"/>
<path d="M84.832 127.802C85.162 127.802 85.492 127.802 85.832 127.802C86.162 130.442 86.492 133.082 86.832 135.802C83.3588 136.96 80.4714 136.871 76.832 136.802C77.7893 135.676 78.7479 134.551 79.707 133.427C80.2407 132.8 80.7744 132.174 81.3242 131.528C82.4464 130.244 83.6258 129.008 84.832 127.802Z" fill="#9DD1E0"/>
<path d="M89.832 140.802C91.152 141.132 92.472 141.462 93.832 141.802C95.3104 144.759 94.8924 147.544 94.832 150.802C93.182 150.472 91.532 150.142 89.832 149.802C89.832 146.832 89.832 143.862 89.832 140.802Z" fill="#E9DEB7"/>
<path d="M46.832 38.8019C49.7294 38.6665 52.6205 38.5676 55.5195 38.4894C56.3362 38.4475 57.1528 38.4056 57.9941 38.3624C62.522 38.2708 64.2445 38.3335 67.9141 41.2589C69.832 43.8019 69.832 43.8019 69.832 44.8019C67.522 44.8019 65.212 44.8019 62.832 44.8019C63.492 44.1419 64.152 43.4819 64.832 42.8019C63.842 42.4719 62.852 42.1419 61.832 41.8019C61.832 41.1419 61.832 40.4819 61.832 39.8019C56.882 39.8019 51.932 39.8019 46.832 39.8019C46.832 39.4719 46.832 39.1419 46.832 38.8019Z" fill="#FAF1CE"/>
<path d="M97.832 25.8019C104.297 25.9676 108.136 29.8054 112.832 33.8019C112.502 34.4619 112.172 35.1219 111.832 35.8019C107.802 34.4203 105.136 32.4451 101.832 29.8019C99.1526 28.5617 99.1526 28.5617 96.832 27.8019C97.162 27.1419 97.492 26.4819 97.832 25.8019Z" fill="#23231F"/>
<path d="M107.832 66.8019C112.582 67.5519 112.582 67.5519 114.832 69.8019C114.799 72.5306 114.268 75.0985 113.832 77.8019C113.502 77.8019 113.172 77.8019 112.832 77.8019C112.502 75.1619 112.172 72.5219 111.832 69.8019C111.172 69.8019 110.512 69.8019 109.832 69.8019C109.502 71.4519 109.172 73.1019 108.832 74.8019C108.172 74.8019 107.512 74.8019 106.832 74.8019C107.162 72.1619 107.492 69.5219 107.832 66.8019Z" fill="#111211"/>
<path d="M37.832 53.8019C39.4567 53.7479 41.0818 53.7091 42.707 53.6769C43.612 53.6537 44.5169 53.6305 45.4492 53.6066C47.832 53.8019 47.832 53.8019 49.832 55.8019C48.512 58.7719 47.192 61.7419 45.832 64.8019C44.512 64.4719 43.192 64.1419 41.832 63.8019C43.482 60.8319 45.132 57.8619 46.832 54.8019C43.862 54.8019 40.892 54.8019 37.832 54.8019C37.832 54.4719 37.832 54.1419 37.832 53.8019Z" fill="#33322D"/>
<path d="M105.832 73.8019C106.822 74.1319 107.812 74.4619 108.832 74.8019C108.279 78.8318 107.676 82.8221 106.832 86.8019C105.842 86.8019 104.852 86.8019 103.832 86.8019C103.832 87.4619 103.832 88.1219 103.832 88.8019C103.172 88.4719 102.512 88.1419 101.832 87.8019C103.152 83.1819 104.472 78.5619 105.832 73.8019Z" fill="#1A1A18"/>
<path d="M100.832 89.8019C102.152 90.1319 103.472 90.4619 104.832 90.8019C103.788 92.4595 102.721 94.1027 101.645 95.7394C101.053 96.6559 100.461 97.5724 99.8516 98.5167C97.5248 101.149 96.2706 101.523 92.832 101.802C93.242 101.271 93.6519 100.74 94.0742 100.193C94.613 99.4861 95.1519 98.7797 95.707 98.0519C96.2407 97.3558 96.7744 96.6597 97.3242 95.9425C98.7244 93.9547 99.8106 92.0034 100.832 89.8019Z" fill="#201F1D"/>
<path d="M49.832 67.8019C54.3801 67.6235 57.7115 67.804 61.832 69.8019C60.3945 71.4269 60.3945 71.4269 57.832 72.8019C54.735 72.4661 51.8139 71.6875 48.832 70.8019C49.162 69.8119 49.492 68.8219 49.832 67.8019Z" fill="#141311"/>
<path d="M102.832 54.8019C105.832 55.8019 105.832 55.8019 107 57.798C107.336 58.6036 107.673 59.4093 108.02 60.2394C108.364 61.0425 108.708 61.8456 109.062 62.673C109.832 64.8019 109.832 64.8019 109.832 66.8019C109.172 66.8019 108.512 66.8019 107.832 66.8019C107.502 68.1219 107.172 69.4419 106.832 70.8019C106.543 69.585 106.255 68.3681 105.957 67.1144C105.34 64.6211 104.664 62.383 103.707 59.9894C102.832 57.8019 102.832 57.8019 102.832 54.8019Z" fill="#1D1D19"/>
<path d="M51.832 137.802C53.152 138.462 54.472 139.122 55.832 139.802C55.832 140.792 55.832 141.782 55.832 142.802C55.172 142.802 54.512 142.802 53.832 142.802C53.172 144.782 52.512 146.762 51.832 148.802C50.512 148.142 49.192 147.482 47.832 146.802C49.152 143.832 50.472 140.862 51.832 137.802Z" fill="#74C3DB"/>
<path d="M107.832 99.8019C108.822 99.8019 109.812 99.8019 110.832 99.8019C111.462 108.975 111.462 108.975 108.832 112.427C108.172 112.881 107.512 113.334 106.832 113.802C106.502 113.142 106.172 112.482 105.832 111.802C106.162 111.142 106.492 110.482 106.832 109.802C107.058 108.098 107.241 106.389 107.395 104.677C107.478 103.767 107.562 102.857 107.648 101.919C107.709 101.22 107.77 100.522 107.832 99.8019Z" fill="#262B2A"/>
<path d="M52.832 97.8019C55.5973 99.0186 58.0826 100.556 60.582 102.239C61.1956 102.651 61.8092 103.062 62.4414 103.485C63.1298 104.137 63.1298 104.137 63.832 104.802C63.832 105.792 63.832 106.782 63.832 107.802C59.0664 106.4 55.8732 103.648 52.832 99.8019C52.832 99.1419 52.832 98.4819 52.832 97.8019Z" fill="#0D0F0F"/>
<path d="M26.832 17.8019C27.822 18.1319 28.812 18.4619 29.832 18.8019C28.2132 20.4745 26.5868 22.1398 24.957 23.8019C24.0521 24.73 23.1472 25.6581 22.2148 26.6144C19.832 28.8019 19.832 28.8019 17.832 28.8019C19.2405 25.5866 20.9355 23.48 23.457 21.0519C24.0887 20.4383 24.7203 19.8247 25.3711 19.1925C25.8532 18.7336 26.3353 18.2747 26.832 17.8019Z" fill="#23B3C7"/>
<path d="M30.832 67.8019C31.822 67.8019 32.812 67.8019 33.832 67.8019C34.492 68.7919 35.152 69.7819 35.832 70.8019C36.162 70.8019 36.492 70.8019 36.832 70.8019C36.832 72.7819 36.832 74.7619 36.832 76.8019C35.842 77.1319 34.852 77.4619 33.832 77.8019C32.842 74.5019 31.852 71.2019 30.832 67.8019Z" fill="#2F3530"/>
<path d="M94.832 64.8019C103.403 64.5162 103.403 64.5162 106.832 66.8019C102.041 68.431 98.7757 69.0077 93.832 67.8019C94.162 66.8119 94.492 65.8219 94.832 64.8019Z" fill="#F8DABF"/>
<path d="M69.832 43.8019C70.492 45.1219 71.152 46.4419 71.832 47.8019C68.202 48.1319 64.572 48.4619 60.832 48.8019C60.502 47.8119 60.172 46.8219 59.832 45.8019C63.132 45.1419 66.432 44.4819 69.832 43.8019Z" fill="#433F3A"/>
<path d="M105.832 90.8019C106.492 90.8019 107.152 90.8019 107.832 90.8019C109.975 94.2785 110.045 97.0142 109.957 101.052C109.939 102.13 109.921 103.207 109.902 104.318C109.879 105.137 109.856 105.957 109.832 106.802C109.502 106.802 109.172 106.802 108.832 106.802C108.711 106.138 108.59 105.474 108.465 104.79C107.607 100.268 106.792 96.0025 104.832 91.8019C105.162 91.4719 105.492 91.1419 105.832 90.8019Z" fill="#15191A"/>
<path d="M69.832 97.8019C73.792 97.8019 77.752 97.8019 81.832 97.8019C81.832 98.4619 81.832 99.1219 81.832 99.8019C79.4266 101.005 77.8821 100.903 75.207 100.864C73.9811 100.851 73.9811 100.851 72.7305 100.837C71.7907 100.82 71.7907 100.82 70.832 100.802C70.502 99.8119 70.172 98.8219 69.832 97.8019Z" fill="#171613"/>
<path d="M116.832 69.8019C117.822 69.8019 118.812 69.8019 119.832 69.8019C118.842 72.7719 117.852 75.7419 116.832 78.8019C115.842 78.4719 114.852 78.1419 113.832 77.8019C113.832 76.8119 113.832 75.8219 113.832 74.8019C114.492 74.8019 115.152 74.8019 115.832 74.8019C116.162 73.1519 116.492 71.5019 116.832 69.8019ZM111.832 77.8019C112.822 78.2969 112.822 78.2969 113.832 78.8019C112.842 79.2969 112.842 79.2969 111.832 79.8019C111.832 79.1419 111.832 78.4819 111.832 77.8019Z" fill="#1C201F"/>
<path d="M44.832 64.8019C48.462 64.8019 52.092 64.8019 55.832 64.8019C51.832 66.8019 51.832 66.8019 48.832 66.8019C47.842 68.7819 46.852 70.7619 45.832 72.8019C45.502 72.8019 45.172 72.8019 44.832 72.8019C44.832 70.1619 44.832 67.5219 44.832 64.8019Z" fill="#F6DCC2"/>
<path d="M95.832 65.8019C94.842 66.2969 94.842 66.2969 93.832 66.8019C93.832 67.4619 93.832 68.1219 93.832 68.8019C91.852 69.4619 89.872 70.1219 87.832 70.8019C87.832 70.1419 87.832 69.4819 87.832 68.8019C87.172 68.4719 86.512 68.1419 85.832 67.8019C92.457 64.6769 92.457 64.6769 95.832 65.8019Z" fill="#E8CEB4"/>
<path d="M93.832 47.8019C95.152 48.4619 96.472 49.1219 97.832 49.8019C96.7075 52.7738 95.6091 55.1363 93.832 57.8019C93.502 57.4719 93.172 57.1419 92.832 56.8019C92.9214 55.2767 93.0774 53.7551 93.2695 52.2394C93.3714 51.4131 93.4732 50.5868 93.5781 49.7355C93.6619 49.0974 93.7457 48.4593 93.832 47.8019Z" fill="#D8C3AC"/>
<path d="M68.8319 15.8019C68.1286 18.7791 67.2495 21.6544 66.2694 24.5519C65.8653 25.7507 65.8653 25.7507 65.453 26.9738C65.2481 27.577 65.0431 28.1803 64.8319 28.8019C64.5019 28.8019 64.1719 28.8019 63.8319 28.8019C63.3631 20.6756 63.3631 20.6756 65.2069 17.2394C66.8319 15.8019 66.8319 15.8019 68.8319 15.8019Z" fill="#10110F"/>
<path d="M105.832 135.802C106.162 135.802 106.492 135.802 106.832 135.802C106.832 139.432 106.832 143.062 106.832 146.802C105.842 147.132 104.852 147.462 103.832 147.802C103.172 147.142 102.512 146.482 101.832 145.802C102.306 145.08 102.781 144.358 103.27 143.614C104.774 140.907 105.398 138.84 105.832 135.802Z" fill="#151515"/>
<path d="M86.832 118.802C88.812 119.297 88.812 119.297 90.832 119.802C90.502 120.462 90.172 121.122 89.832 121.802C89.6058 123.506 89.4231 125.215 89.2695 126.927C89.1438 128.292 89.1438 128.292 89.0156 129.685C88.955 130.383 88.8945 131.082 88.832 131.802C88.502 131.802 88.172 131.802 87.832 131.802C87.6155 130.41 87.6155 130.41 87.3945 128.989C86.911 125.795 86.911 125.795 85.832 122.802C86.2695 120.614 86.2695 120.614 86.832 118.802Z" fill="#32312A"/>
<path d="M70.832 109.802C73.802 109.802 76.772 109.802 79.832 109.802C79.832 110.792 79.832 111.782 79.832 112.802C77.192 112.802 74.552 112.802 71.832 112.802C71.502 111.812 71.172 110.822 70.832 109.802Z" fill="#33302D"/>
<path d="M36.832 69.8019C37.492 70.1319 38.152 70.4619 38.832 70.8019C39.2461 72.8683 39.2461 72.8683 39.457 75.3644C39.5318 76.1907 39.6066 77.017 39.6836 77.8683C39.7326 78.5064 39.7816 79.1445 39.832 79.8019C38.512 80.1319 37.192 80.4619 35.832 80.8019C35.502 79.4819 35.172 78.1619 34.832 76.8019C35.492 76.8019 36.152 76.8019 36.832 76.8019C36.832 74.4919 36.832 72.1819 36.832 69.8019Z" fill="#0F1212"/>
<path d="M41.832 64.8019C42.822 65.1319 43.812 65.4619 44.832 65.8019C44.502 67.1219 44.172 68.4419 43.832 69.8019C41.852 70.1319 39.872 70.4619 37.832 70.8019C37.832 69.8119 37.832 68.8219 37.832 67.8019C39.6445 66.0519 39.6445 66.0519 41.832 64.8019Z" fill="#1C1C1A"/>
<path d="M117.832 38.8019C121.707 39.6769 121.707 39.6769 122.832 40.8019C122.873 43.1349 122.874 45.4689 122.832 47.8019C122.172 47.8019 121.512 47.8019 120.832 47.8019C120.502 45.8219 120.172 43.8419 119.832 41.8019C118.842 41.4719 117.852 41.1419 116.832 40.8019C117.162 40.1419 117.492 39.4819 117.832 38.8019Z" fill="#141B1B"/>
<path d="M41.832 27.8019C42.162 27.8019 42.492 27.8019 42.832 27.8019C43.1208 28.7713 43.4095 29.7406 43.707 30.7394C44.4742 33.9085 44.4742 33.9085 46.832 34.8019C46.832 35.7919 46.832 36.7819 46.832 37.8019C42.1551 36.325 42.1551 36.325 40.5195 33.6769C40.2927 33.0581 40.0658 32.4394 39.832 31.8019C40.492 31.8019 41.152 31.8019 41.832 31.8019C41.832 30.4819 41.832 29.1619 41.832 27.8019Z" fill="#2C2C25"/>
<path d="M87.832 141.802C88.492 141.802 89.152 141.802 89.832 141.802C90.0273 143.82 90.2227 145.838 90.418 147.857C90.6958 150.029 90.6958 150.029 92.832 151.802C90.8945 152.364 90.8945 152.364 88.832 152.802C87.832 151.802 87.832 151.802 87.7344 149.517C87.746 148.6 87.7576 147.684 87.7695 146.739C87.7786 145.82 87.7876 144.901 87.7969 143.954C87.8085 143.244 87.8201 142.534 87.832 141.802Z" fill="#131414"/>
<path d="M31.832 47.8019C34.3256 49.0057 36.5135 50.2562 38.832 51.8019C38.832 52.4619 38.832 53.1219 38.832 53.8019C36.852 53.8019 34.872 53.8019 32.832 53.8019C32.502 51.8219 32.172 49.8419 31.832 47.8019Z" fill="#101112"/>
<path d="M83.832 43.8019C85.582 43.9269 85.582 43.9269 87.832 44.8019C90.082 47.8644 90.082 47.8644 91.832 50.8019C90.842 51.4619 89.852 52.1219 88.832 52.8019C88.3783 51.8325 87.9245 50.8631 87.457 49.8644C86.1742 46.7311 86.1742 46.7311 83.832 45.8019C83.832 45.1419 83.832 44.4819 83.832 43.8019Z" fill="#20201C"/>
<path d="M90.832 36.8019C88.0455 39.5884 85.6778 39.4585 81.832 39.8019C81.172 39.4719 80.512 39.1419 79.832 38.8019C82.0871 34.2917 86.6746 36.0959 90.832 36.8019Z" fill="#2A2722"/>
<path d="M52.832 16.8019C52.832 19.8019 52.832 19.8019 51.082 21.8448C50.3395 22.5525 49.597 23.2602 48.832 23.9894C48.0895 24.7048 47.347 25.4202 46.582 26.1573C45.7158 26.9714 45.7158 26.9714 44.832 27.8019C44.172 27.4719 43.512 27.1419 42.832 26.8019C48.9824 19.319 48.9824 19.319 52.832 16.8019Z" fill="#DED7B6"/>
<path d="M63.832 108.802C64.162 108.802 64.492 108.802 64.832 108.802C64.9129 110.426 64.9712 112.051 65.0195 113.677C65.0543 114.582 65.0891 115.487 65.125 116.419C65.0283 117.205 64.9316 117.992 64.832 118.802C61.832 120.802 61.832 120.802 59.6445 120.427C59.0464 120.221 58.4483 120.014 57.832 119.802C58.822 119.472 59.812 119.142 60.832 118.802C61.859 116.473 61.859 116.473 62.5195 113.739C62.7709 112.82 63.0223 111.901 63.2812 110.954C63.463 110.244 63.6448 109.534 63.832 108.802Z" fill="#161B1C"/>
<path d="M69.832 42.8019C70.3889 43.1319 70.9458 43.4619 71.5195 43.8019C74.1349 44.9328 76.0127 44.9585 78.832 44.8019C78.832 45.4619 78.832 46.1219 78.832 46.8019C72.207 48.0519 72.207 48.0519 68.832 45.8019C69.492 45.8019 70.152 45.8019 70.832 45.8019C70.502 44.8119 70.172 43.8219 69.832 42.8019Z" fill="#040406"/>
<path d="M84.832 124.802C85.822 124.802 86.812 124.802 87.832 124.802C88.162 127.772 88.492 130.742 88.832 133.802C87.842 133.472 86.852 133.142 85.832 132.802C85.832 131.152 85.832 129.502 85.832 127.802C85.172 127.802 84.512 127.802 83.832 127.802C84.162 126.812 84.492 125.822 84.832 124.802Z" fill="#0A0D0D"/>
<path d="M60.832 46.8019C60.832 47.4619 60.832 48.1219 60.832 48.8019C58.192 49.7919 55.552 50.7819 52.832 51.8019C52.502 50.8119 52.172 49.8219 51.832 48.8019C55.203 47.3037 57.0365 46.8019 60.832 46.8019Z" fill="#201F1D"/>
<path d="M87.832 40.8019C89.152 41.1319 90.472 41.4619 91.832 41.8019C91.832 44.7719 91.832 47.7419 91.832 50.8019C88.9983 47.5985 88.3115 45.021 87.832 40.8019Z" fill="#F2E2BF"/>
<path d="M110.832 34.8019C116.494 36.2788 116.494 36.2788 118.207 38.9269C118.516 39.855 118.516 39.855 118.832 40.8019C116.05 40.4259 114.244 40.1287 112.02 38.3644C110.832 36.8019 110.832 36.8019 110.832 34.8019Z" fill="#0B0D0C"/>
<path d="M83.832 29.8019C84.162 30.4619 84.492 31.1219 84.832 31.8019C85.492 32.1319 86.152 32.4619 86.832 32.8019C86.172 32.8019 85.512 32.8019 84.832 32.8019C85.162 33.7919 85.492 34.7819 85.832 35.8019C84.182 36.4619 82.532 37.1219 80.832 37.8019C81.3793 34.4273 81.8869 32.7195 83.832 29.8019Z" fill="#E9DEBB"/>
<path d="M62.832 21.8019C64.317 22.7919 64.317 22.7919 65.832 23.8019C66.125 25.9659 66.125 25.9659 66.0195 28.4269C65.9925 29.2441 65.9654 30.0614 65.9375 30.9034C65.9027 31.5299 65.8679 32.1564 65.832 32.8019C64.842 32.4719 63.852 32.1419 62.832 31.8019C62.832 28.5019 62.832 25.2019 62.832 21.8019Z" fill="#32322B"/>
<path d="M38.832 26.8019C39.822 27.1319 40.812 27.4619 41.832 27.8019C41.832 29.1219 41.832 30.4419 41.832 31.8019C40.842 31.8019 39.852 31.8019 38.832 31.8019C38.172 32.4619 37.512 33.1219 36.832 33.8019C36.502 32.8119 36.172 31.8219 35.832 30.8019C37.2695 28.6144 37.2695 28.6144 38.832 26.8019Z" fill="#0A0E0E"/>
<path d="M89.832 140.802C90.492 140.802 91.152 140.802 91.832 140.802C91.832 143.112 91.832 145.422 91.832 147.802C92.492 148.132 93.152 148.462 93.832 148.802C93.172 148.802 92.512 148.802 91.832 148.802C91.502 149.462 91.172 150.122 90.832 150.802C89.832 149.802 89.832 149.802 89.7344 147.735C89.746 146.912 89.7576 146.088 89.7695 145.239C89.7786 144.413 89.7876 143.587 89.7969 142.735C89.8085 142.097 89.8201 141.459 89.832 140.802Z" fill="#D6CDAB"/>
<path d="M105.832 24.8019C111.403 29.9447 111.403 29.9447 111.832 33.8019C108.832 32.1144 108.832 32.1144 105.832 29.8019C105.457 27.0519 105.457 27.0519 105.832 24.8019Z" fill="#E5D9B0"/>
<path d="M66.832 125.802C68.7695 126.489 68.7695 126.489 70.832 127.802C71.582 130.427 71.582 130.427 71.832 132.802C69.852 131.152 67.872 129.502 65.832 127.802C66.162 127.142 66.492 126.482 66.832 125.802Z" fill="#222729"/>
<path d="M90.832 118.802C92.812 119.462 94.792 120.122 96.832 120.802C96.832 122.122 96.832 123.442 96.832 124.802C94.2102 123.753 93.0383 123.153 91.582 120.677C91.3345 120.058 91.087 119.439 90.832 118.802Z" fill="#DFD5AF"/>
<path d="M83.832 128.802C84.162 129.462 84.492 130.122 84.832 130.802C83.8945 133.427 83.8945 133.427 82.832 135.802C81.182 135.802 79.532 135.802 77.832 135.802C79.812 133.492 81.792 131.182 83.832 128.802Z" fill="#BBE3ED"/>
<path d="M93.832 67.8019C99.582 67.6769 99.582 67.6769 101.832 68.8019C101.832 69.7919 101.832 70.7819 101.832 71.8019C98.957 71.4894 98.957 71.4894 95.832 70.8019C95.172 69.8119 94.512 68.8219 93.832 67.8019Z" fill="#37332B"/>
<path d="M92.832 65.8019C88.377 67.2869 88.377 67.2869 83.832 68.8019C84.832 65.8019 84.832 65.8019 86.6445 64.4894C88.832 63.8019 88.832 63.8019 92.832 65.8019Z" fill="#161512"/>
<path d="M59.832 63.8019C62.7695 64.5519 62.7695 64.5519 65.832 65.8019C66.707 67.9269 66.707 67.9269 66.832 69.8019C64.522 68.4819 62.212 67.1619 59.832 65.8019C59.832 65.1419 59.832 64.4819 59.832 63.8019Z" fill="#191917"/>
<path d="M38.832 30.8019C39.822 32.1219 40.812 33.4419 41.832 34.8019C40.842 35.7919 39.852 36.7819 38.832 37.8019C37.842 37.1419 36.852 36.4819 35.832 35.8019C36.822 34.1519 37.812 32.5019 38.832 30.8019Z" fill="#E4DBB9"/>
<path d="M43.832 21.8019C44.492 21.8019 45.152 21.8019 45.832 21.8019C45.582 23.6769 45.582 23.6769 44.832 25.8019C42.7695 27.0519 42.7695 27.0519 40.832 27.8019C40.172 27.1419 39.512 26.4819 38.832 25.8019C39.822 25.8019 40.812 25.8019 41.832 25.8019C42.492 24.4819 43.152 23.1619 43.832 21.8019Z" fill="#111A1A"/>
<path d="M67.832 11.8019C69.152 11.8019 70.472 11.8019 71.832 11.8019C71.457 14.2394 71.457 14.2394 70.832 16.8019C69.842 17.2969 69.842 17.2969 68.832 17.8019C67.842 16.4819 66.852 15.1619 65.832 13.8019C66.492 13.1419 67.152 12.4819 67.832 11.8019Z" fill="#222C29"/>
<path d="M105.832 73.8019C106.822 74.1319 107.812 74.4619 108.832 74.8019C108.502 77.1119 108.172 79.4219 107.832 81.8019C107.502 81.1419 107.172 80.4819 106.832 79.8019C106.172 79.8019 105.512 79.8019 104.832 79.8019C105.162 77.8219 105.492 75.8419 105.832 73.8019Z" fill="#3E3A33"/>
<path d="M109.832 69.8019C110.492 69.8019 111.152 69.8019 111.832 69.8019C113.186 72.5107 112.897 74.8112 112.832 77.8019C112.502 76.4819 112.172 75.1619 111.832 73.8019C111.172 73.8019 110.512 73.8019 109.832 73.8019C109.502 74.4619 109.172 75.1219 108.832 75.8019C109.162 73.8219 109.492 71.8419 109.832 69.8019Z" fill="#D8C6A8"/>
<path d="M101.832 132.802C102.162 133.462 102.492 134.122 102.832 134.802C103.492 135.132 104.152 135.462 104.832 135.802C103.842 136.132 102.852 136.462 101.832 136.802C100.165 138.302 100.165 138.302 98.832 139.802C98.502 138.482 98.172 137.162 97.832 135.802C99.152 134.812 100.472 133.822 101.832 132.802Z" fill="#20201A"/>
<path d="M52.832 122.802C53.162 123.462 53.492 124.122 53.832 124.802C51.522 125.132 49.212 125.462 46.832 125.802C46.502 124.812 46.172 123.822 45.832 122.802C48.948 121.763 49.8583 121.712 52.832 122.802Z" fill="#1D2E34"/>
<path d="M89.832 120.802C92.4539 121.851 93.6257 122.451 95.082 124.927C95.3295 125.546 95.577 126.164 95.832 126.802C92.9477 125.509 90.9598 124.142 88.832 121.802C89.162 121.472 89.492 121.142 89.832 120.802Z" fill="#0A0A0B"/>
<path d="M85.832 109.802C87.355 112.739 88.633 115.719 89.832 118.802C88.512 118.472 87.192 118.142 85.832 117.802C85.832 115.162 85.832 112.522 85.832 109.802Z" fill="#131313"/>
<path d="M97.832 95.8019C98.492 96.1319 99.152 96.4619 99.832 96.8019C99.1445 98.7394 99.1445 98.7394 97.832 100.802C95.207 101.552 95.207 101.552 92.832 101.802C94.482 99.8219 96.132 97.8419 97.832 95.8019Z" fill="#2A2925"/>
<path d="M49.832 67.8019C52.142 67.8019 54.452 67.8019 56.832 67.8019C56.502 68.7919 56.172 69.7819 55.832 70.8019C53.522 70.8019 51.212 70.8019 48.832 70.8019C49.162 69.8119 49.492 68.8219 49.832 67.8019Z" fill="#2A2721"/>
<path d="M102.832 57.8019C104.609 60.4675 105.708 62.8299 106.832 65.8019C105.512 65.4719 104.192 65.1419 102.832 64.8019C103.162 64.4719 103.492 64.1419 103.832 63.8019C102.842 62.8119 101.852 61.8219 100.832 60.8019C101.492 60.8019 102.152 60.8019 102.832 60.8019C102.832 59.8119 102.832 58.8219 102.832 57.8019Z" fill="#D4BEA8"/>
</svg>
