<svg width="153" height="152" viewBox="0 0 153 152" fill="none" xmlns="http://www.w3.org/2000/svg">
<path d="M119.806 13.2376C137.477 26.3591 148.989 44.768 152.287 66.5814C154.534 87.1283 148.932 106.643 136.287 122.956C130.842 129.419 125.865 134.715 118.287 138.581C117.688 137.798 117.09 137.014 116.474 136.206C114.376 133.436 114.376 133.436 111.287 131.581C112.313 129.371 113.344 127.508 114.849 125.581C116.319 123.537 116.848 122.036 117.287 119.581C116.627 119.581 115.967 119.581 115.287 119.581C115.06 120.303 114.833 121.025 114.599 121.769C113.038 125.113 110.983 127.097 108.287 129.581C102.345 128.018 94.5139 124.922 90.9897 119.636C90.2866 117.581 90.2866 117.581 90.2866 113.581C89.6266 113.581 88.9666 113.581 88.2866 113.581C88.7816 115.438 88.7816 115.438 89.2866 117.331C90.0855 120.327 90.2866 122.382 90.2866 125.581C88.7123 127.363 88.7123 127.363 86.5991 129.081C85.8682 129.679 85.1373 130.278 84.3842 130.894C83.692 131.451 82.9998 132.008 82.2866 132.581C81.3791 133.406 80.4716 134.231 79.5366 135.081C77.2866 136.581 77.2866 136.581 75.3481 136.318C71.9511 135.104 69.3247 132.746 66.5366 130.519C65.9346 130.046 65.3326 129.574 64.7123 129.087C63.2325 127.924 61.7589 126.754 60.2866 125.581C60.6166 124.674 60.9466 123.766 61.2866 122.831C62.4826 119.511 62.4826 119.511 62.2866 115.581C61.9566 116.468 61.6266 117.355 61.2866 118.269C58.4427 122.979 54.3426 125.718 49.0327 127.218C48.4564 127.338 47.8802 127.458 47.2866 127.581C47.2866 128.241 47.2866 128.901 47.2866 129.581C48.6066 129.911 49.9266 130.241 51.2866 130.581C51.2866 129.921 51.2866 129.261 51.2866 128.581C53.5366 126.831 53.5366 126.831 56.2866 125.581C59.9625 126.893 62.7942 129.448 65.7866 131.894C66.725 132.653 67.6634 133.412 68.6303 134.195C71.1823 136.488 73.2312 138.842 75.2866 141.581C75.8228 140.853 76.3591 140.125 76.9116 139.374C79.4674 136.369 82.1129 134.23 85.2866 131.894C86.8334 130.743 86.8334 130.743 88.4116 129.57C92.9541 126.428 92.9541 126.428 95.2866 125.581C98.0366 126.831 98.0366 126.831 100.287 128.581C100.287 129.241 100.287 129.901 100.287 130.581C101.297 130.664 102.308 130.746 103.349 130.831C107.755 131.476 110.644 133.01 114.287 135.581C115.486 138.222 115.486 138.222 116.287 140.581C96.3701 150.769 76.138 155.475 54.1108 148.937C47.8462 146.852 42.0437 143.784 36.2866 140.581C36.8383 135.945 36.8383 135.945 38.8803 134.288C39.5094 133.993 40.1384 133.698 40.7866 133.394C44.3237 131.998 44.3237 131.998 45.2866 129.581C44.7297 129.375 44.1728 129.169 43.5991 128.956C39.2562 126.374 36.2427 122.205 34.2866 117.581C34.5713 121.567 35.2686 123.848 37.9116 126.769C39.0872 128.161 39.0872 128.161 40.2866 129.581C39.0283 133.356 37.3183 135.043 34.2866 137.581C28.5029 137.255 24.1776 131.352 20.2866 127.581C19.6511 126.972 19.0156 126.362 18.3608 125.734C4.83399 111.585 -0.338246 91.2961 0.017034 72.222C0.774469 54.3868 8.29851 37.6829 20.2866 24.5814C20.877 23.8994 21.4673 23.2175 22.0756 22.5149C47.1809 -4.78041 89.7917 -6.49282 119.806 13.2376Z" fill="#212121"/>
<path d="M119.806 13.2376C137.477 26.3591 148.989 44.768 152.287 66.5814C154.534 87.1283 148.932 106.643 136.287 122.956C130.842 129.419 125.865 134.715 118.287 138.581C117.688 137.798 117.09 137.014 116.474 136.206C114.376 133.436 114.376 133.436 111.287 131.581C112.46 129.04 113.777 126.853 115.349 124.519C118.299 120.047 119.142 115.861 118.287 110.581C117.145 108.075 115.843 105.796 114.38 103.464C113.287 101.581 113.287 101.581 113.287 99.5814C114.599 98.5072 115.964 97.4971 117.349 96.5189C124.286 91.2531 130.623 84.3949 132.287 75.5814C133.05 67.0234 132.939 59.4511 127.669 52.4251C125.336 49.6607 123.154 47.1683 120.146 45.1321C117.835 43.2044 117.593 41.9918 116.974 39.0814C114.546 30.0905 108.826 21.1777 101.287 15.5814C89.0885 8.81466 75.4547 6.05622 61.7631 9.45635C49.2784 14.3347 41.5123 22.2565 36.0366 34.3314C35.0594 36.6179 34.21 38.8288 33.4741 41.2064C32.2294 43.6957 31.0717 44.7869 29.0366 46.6439C23.109 52.3726 19.0073 59.8114 18.6616 68.1439C19.4345 80.3354 25.3126 89.1492 34.1616 97.0814C35.5301 98.2556 36.9028 99.4251 38.2866 100.581C37.9256 101.21 37.5647 101.839 37.1928 102.488C34.0898 108.211 32.3415 112.071 33.2866 118.581C34.912 122.96 36.8565 126.387 40.2866 129.581C39.0283 133.356 37.3183 135.043 34.2866 137.581C28.5029 137.255 24.1776 131.352 20.2866 127.581C19.6511 126.972 19.0156 126.362 18.3608 125.734C4.83399 111.585 -0.338246 91.2961 0.017034 72.222C0.774469 54.3868 8.29851 37.6829 20.2866 24.5814C20.877 23.8994 21.4673 23.2175 22.0756 22.5149C47.1809 -4.78041 89.7917 -6.49282 119.806 13.2376Z" fill="#6EB450"/>
<path d="M95.2866 11.5813C104.902 16.3972 111.651 23.921 116.287 33.5813C116.762 35.2795 117.201 36.9884 117.599 38.7063C118.981 44.0275 121.942 46.3346 126.126 49.7023C130.959 53.9057 133.011 59.2116 133.525 65.4992C133.78 76.7176 130.727 84.2275 123.287 92.5813C116.154 99.5813 116.154 99.5813 113.287 99.5813C113.72 100.283 114.153 100.984 114.599 101.706C118.08 107.637 120.273 111.675 119.287 118.581C118.627 119.571 117.967 120.561 117.287 121.581C117.287 120.921 117.287 120.261 117.287 119.581C116.627 119.581 115.967 119.581 115.287 119.581C115.06 120.303 114.833 121.025 114.599 121.769C113.038 125.113 110.983 127.097 108.287 129.581C102.345 128.018 94.514 124.922 90.9897 119.636C90.2866 117.581 90.2866 117.581 90.2866 113.581C89.6266 113.581 88.9666 113.581 88.2866 113.581C88.7816 115.438 88.7816 115.438 89.2866 117.331C90.0855 120.327 90.2866 122.382 90.2866 125.581C88.7124 127.363 88.7124 127.363 86.5991 129.081C85.8682 129.679 85.1373 130.278 84.3843 130.894C83.6921 131.451 82.9998 132.008 82.2866 132.581C81.3791 133.406 80.4716 134.231 79.5366 135.081C77.2866 136.581 77.2866 136.581 75.3481 136.318C71.9512 135.104 69.3248 132.746 66.5366 130.519C65.6336 129.81 65.6336 129.81 64.7124 129.087C63.2325 127.924 61.7589 126.754 60.2866 125.581C60.5934 124.671 60.9002 123.761 61.2163 122.823C61.9974 120.457 62.7402 118.104 63.4116 115.706C63.7004 114.675 63.9891 113.644 64.2866 112.581C63.6266 112.581 62.9666 112.581 62.2866 112.581C62.2866 110.601 62.2866 108.621 62.2866 106.581C61.7143 106.326 61.1419 106.071 60.5522 105.808C58.0449 104.45 56.1536 102.862 54.0366 100.956C52.977 100.009 52.977 100.009 51.896 99.0422C51.3649 98.5601 50.8338 98.078 50.2866 97.5813C51.2766 97.0863 51.2766 97.0863 52.2866 96.5813C52.2866 95.9213 52.2866 95.2613 52.2866 94.5813C51.2966 95.0763 51.2966 95.0763 50.2866 95.5813C43.2009 96.1527 43.2009 96.1527 39.7866 94.0188C37.6648 90.5708 37.7525 88.5868 38.2866 84.5813C39.4206 81.7904 40.7726 79.1835 42.2866 76.5813C43.6066 76.5813 44.9266 76.5813 46.2866 76.5813C46.6733 77.5945 47.0601 78.6077 47.4585 79.6516C47.9842 81.0033 48.5102 82.3548 49.0366 83.7063C49.2893 84.3714 49.5419 85.0366 49.8022 85.7219C54.0018 96.4308 61.7439 104.807 72.2866 109.581C78.2837 110.781 83.341 107.723 88.2866 104.581C97.8598 97.0726 101.38 87.1795 104.588 75.8508C105.101 74.0779 105.688 72.3269 106.287 70.5813C106.947 70.2513 107.607 69.9213 108.287 69.5813C108.942 67.0539 108.942 67.0539 109.287 64.5813C112.768 65.9738 113.765 67.213 115.287 70.5813C115.947 70.9113 116.607 71.2413 117.287 71.5813C112.793 60.8461 103.204 58.0767 93.1401 53.8625C86.9865 51.1753 81.0344 48.4174 77.2866 42.5813C77.2866 41.2613 77.2866 39.9413 77.2866 38.5813C76.1935 38.4575 75.1004 38.3338 73.9741 38.2063C70.2866 37.5813 70.2866 37.5813 67.2866 35.5813C67.2866 34.9213 67.2866 34.2613 67.2866 33.5813C66.4062 33.7372 65.5258 33.8932 64.6187 34.0539C63.4572 34.2486 62.2958 34.4432 61.0991 34.6438C59.3763 34.9396 59.3763 34.9396 57.6187 35.2414C54.2866 35.5813 54.2866 35.5813 51.7866 34.9563C48.0627 34.3977 45.8002 35.8725 42.4741 37.5188C41.3127 38.0847 40.1512 38.6505 38.9546 39.2336C38.0742 39.6783 37.1937 40.123 36.2866 40.5813C36.7739 39.4153 36.7739 39.4153 37.271 38.2258C38.3749 35.6888 38.3749 35.6888 38.5366 33.2688C40.7784 25.2355 48.5437 18.4575 55.4702 14.257C58.6574 12.5903 60.6387 11.5813 64.2866 11.5813C64.2866 10.9213 64.2866 10.2613 64.2866 9.58125C63.6266 9.25125 62.9666 8.92125 62.2866 8.58125C72.5549 5.15848 85.7082 7.07897 95.2866 11.5813Z" fill="#1C1D1D"/>
<path d="M75.2864 43.5813C75.6989 43.9564 76.1114 44.3315 76.5364 44.718C84.3681 51.6582 92.3982 55.6265 102.091 59.3469C105.286 60.5813 105.286 60.5813 107.286 61.5813C106.982 74.3943 103.776 88.67 95.2864 98.5813C94.763 99.2129 94.2397 99.8446 93.7005 100.495C88.8517 105.845 82.6147 110.121 75.3138 110.898C66.6922 109.997 58.5934 102.051 53.2864 95.5813C49.7937 90.6824 48.2892 84.7699 46.5364 79.0813C46.3132 78.3692 46.0899 77.657 45.8599 76.9233C44.4188 71.991 44.0782 67.7176 44.2864 62.5813C45.2764 62.2513 46.2664 61.9213 47.2864 61.5813C47.6164 62.2413 47.9464 62.9013 48.2864 63.5813C48.9464 63.2513 49.6064 62.9213 50.2864 62.5813C56.1673 61.9697 60.0703 62.6552 65.2864 65.5813C65.9464 65.2513 66.6064 64.9213 67.2864 64.5813C63.5305 61.152 59.0517 60.017 54.2864 58.5813C57.2547 56.2192 60.2841 54.4858 63.6614 52.7688C68.4169 50.2287 71.7349 47.6128 75.2864 43.5813Z" fill="#AE7247"/>
<path d="M131.287 64.5813C131.617 64.5813 131.947 64.5813 132.287 64.5813C132.907 76.8528 131.798 82.7211 123.787 91.8938C121.14 94.7807 118.574 97.4294 115.287 99.5813C114.627 99.5813 113.967 99.5813 113.287 99.5813C113.72 100.283 114.153 100.984 114.599 101.706C118.08 107.637 120.273 111.675 119.287 118.581C118.627 119.571 117.967 120.561 117.287 121.581C117.287 120.921 117.287 120.261 117.287 119.581C116.627 119.581 115.967 119.581 115.287 119.581C115.06 120.303 114.833 121.025 114.599 121.769C113.038 125.113 110.983 127.097 108.287 129.581C102.345 128.018 94.5139 124.922 90.9896 119.636C90.2865 117.581 90.2865 117.581 90.2865 113.581C89.6265 113.581 88.9665 113.581 88.2865 113.581C88.7815 115.438 88.7815 115.438 89.2865 117.331C90.0854 120.327 90.2865 122.382 90.2865 125.581C88.7123 127.363 88.7123 127.363 86.599 129.081C85.8681 129.679 85.1372 130.278 84.3842 130.894C83.6919 131.451 82.9997 132.008 82.2865 132.581C81.379 133.406 80.4715 134.231 79.5365 135.081C77.2865 136.581 77.2865 136.581 75.348 136.318C71.9511 135.104 69.3247 132.746 66.5365 130.519C65.6335 129.81 65.6335 129.81 64.7123 129.087C63.2324 127.924 61.7588 126.754 60.2865 125.581C60.5933 124.671 60.9001 123.761 61.2162 122.823C61.9973 120.457 62.7401 118.104 63.4115 115.706C63.7003 114.675 63.989 113.644 64.2865 112.581C63.6265 112.581 62.9665 112.581 62.2865 112.581C62.2865 110.601 62.2865 108.621 62.2865 106.581C61.7142 106.326 61.1418 106.071 60.5521 105.808C58.0448 104.45 56.1535 102.862 54.0365 100.956C53.3301 100.325 52.6237 99.693 51.8959 99.0422C51.3648 98.5601 50.8337 98.078 50.2865 97.5813C51.2765 97.0863 51.2765 97.0863 52.2865 96.5813C52.2865 95.9213 52.2865 95.2613 52.2865 94.5813C51.6265 94.9113 50.9665 95.2413 50.2865 95.5813C43.2008 96.1527 43.2008 96.1527 39.7865 94.0188C37.6647 90.5709 37.7524 88.5869 38.2865 84.5813C39.4205 81.7904 40.7725 79.1835 42.2865 76.5813C43.6065 76.5813 44.9265 76.5813 46.2865 76.5813C46.6732 77.5945 47.0599 78.6077 47.4584 79.6516C47.984 81.0033 48.5101 82.3549 49.0365 83.7063C49.4155 84.704 49.4155 84.704 49.8021 85.7219C54.0017 96.4309 61.7438 104.807 72.2865 109.581C78.2836 110.781 83.3408 107.723 88.2865 104.581C97.8597 97.0726 101.379 87.1796 104.588 75.8508C105.101 74.078 105.688 72.327 106.287 70.5813C106.947 70.2513 107.607 69.9213 108.287 69.5813C108.287 70.9013 108.287 72.2213 108.287 73.5813C109.277 73.9113 110.267 74.2413 111.287 74.5813C114.97 79.5601 116.347 85.4597 116.287 91.5813C115.792 93.0663 115.792 93.0663 115.287 94.5813C124.207 87.4979 129.58 80.2388 130.912 68.7063C131.043 67.3319 131.17 65.9571 131.287 64.5813Z" fill="#222223"/>
<path d="M58.1147 126.234C60.8515 127.932 63.2925 129.855 65.7866 131.894C67.1943 133.033 67.1943 133.033 68.6304 134.195C71.1823 136.488 73.2312 138.842 75.2866 141.581C75.8229 140.853 76.3591 140.125 76.9116 139.374C79.4675 136.369 82.1129 134.23 85.2866 131.894C86.3179 131.127 87.3491 130.36 88.4116 129.57C92.9541 126.428 92.9541 126.428 95.2866 125.581C98.0366 126.831 98.0366 126.831 100.287 128.581C100.287 129.241 100.287 129.901 100.287 130.581C101.297 130.664 102.308 130.746 103.349 130.831C107.755 131.476 110.644 133.01 114.287 135.581C115.486 138.222 115.486 138.222 116.287 140.581C96.3701 150.768 76.138 155.475 54.1108 148.937C47.8463 146.852 42.0438 143.784 36.2866 140.581C36.5967 137.506 36.7564 136.025 39.1772 133.999C39.9558 133.593 40.7344 133.187 41.5366 132.769C42.3049 132.35 43.0732 131.931 43.8647 131.499C46.5072 130.498 48.4849 130.407 51.2866 130.581C51.2866 129.921 51.2866 129.261 51.2866 128.581C55.5032 125.302 55.5032 125.302 58.1147 126.234Z" fill="#3CBFCA"/>
<path d="M69.2866 8.58134C71.1131 8.787 72.9398 8.99095 74.7686 9.17558C87.9064 10.5538 98.9076 13.8867 107.798 24.3626C109.265 26.4629 110.287 27.9739 110.287 30.5813C106.897 29.2833 103.734 27.7947 100.537 26.0813C96.4232 23.9755 92.7086 22.9394 88.1929 22.1126C85.4478 21.3476 84.0826 19.7227 82.2866 17.5813C76.9745 15.8106 72.283 16.0831 67.2866 18.5813C66.1748 19.2813 66.1748 19.2813 65.0405 19.9954C62.0507 21.7172 59.0776 22.9308 55.8491 24.1438C54.7573 24.5576 53.6654 24.9714 52.5405 25.3977C49.4719 26.5139 46.3898 27.5657 43.2866 28.5813C43.2866 29.2413 43.2866 29.9013 43.2866 30.5813C42.6266 30.5813 41.9666 30.5813 41.2866 30.5813C41.2866 31.2413 41.2866 31.9013 41.2866 32.5813C42.3604 32.0154 43.4342 31.4495 44.5405 30.8665C45.9764 30.1251 47.4127 29.3842 48.8491 28.6438C49.9058 28.0841 49.9058 28.0841 50.9839 27.513C55.4933 25.2063 59.2315 23.9998 64.2866 23.5813C64.2866 26.2213 64.2866 28.8613 64.2866 31.5813C62.8886 31.8018 62.8886 31.8018 61.4624 32.0267C52.2115 33.6542 44.672 36.2119 36.2866 40.5813C36.7739 39.4154 36.7739 39.4154 37.271 38.2259C38.3749 35.6889 38.3749 35.6889 38.5366 33.2688C40.7784 25.2356 48.5437 18.4576 55.4702 14.2571C58.6574 12.5904 60.6387 11.5813 64.2866 11.5813C64.2866 10.9213 64.2866 10.2613 64.2866 9.58134C63.6266 9.25134 62.9666 8.92134 62.2866 8.58134C65.6288 7.46727 66.0561 7.71434 69.2866 8.58134Z" fill="#222323"/>
<path d="M49.8374 97.2727C53.1789 97.6937 54.2375 99.0572 56.4741 101.519C59.0737 104.457 59.0737 104.457 62.2866 106.581C62.2866 108.561 62.2866 110.541 62.2866 112.581C62.9466 112.581 63.6066 112.581 64.2866 112.581C64.2866 114.231 64.2866 115.881 64.2866 117.581C63.6266 116.921 62.9666 116.261 62.2866 115.581C61.9566 116.468 61.6266 117.355 61.2866 118.269C58.4428 122.979 54.3427 125.718 49.0327 127.218C48.4565 127.338 47.8803 127.458 47.2866 127.581C47.2866 128.241 47.2866 128.901 47.2866 129.581C47.9466 129.911 48.6066 130.241 49.2866 130.581C47.3066 131.076 47.3066 131.076 45.2866 131.581C45.2866 130.921 45.2866 130.261 45.2866 129.581C44.4513 129.272 44.4513 129.272 43.5991 128.956C39.2562 126.374 36.2428 122.205 34.2866 117.581C33.6266 117.911 32.9666 118.241 32.2866 118.581C32.1616 110.831 32.1616 110.831 33.2866 108.581C34.2766 108.251 35.2666 107.921 36.2866 107.581C37.8698 105.332 39.2132 102.992 40.5913 100.613C42.2866 98.5813 42.2866 98.5813 44.6694 97.8C46.395 97.6558 48.1183 97.4807 49.8374 97.2727Z" fill="#222122"/>
<path d="M64.2866 109.581C65.256 109.911 66.2254 110.241 67.2241 110.581C73.2808 112.305 78.671 112.463 84.2866 109.581C85.2766 109.581 86.2666 109.581 87.2866 109.581C87.7925 111.496 88.2911 113.413 88.7866 115.331C89.0651 116.399 89.3435 117.466 89.6304 118.566C90.2866 121.581 90.2866 121.581 90.2866 125.581C88.7124 127.363 88.7124 127.363 86.5991 129.081C85.8682 129.679 85.1373 130.278 84.3843 130.894C83.6921 131.451 82.9998 132.008 82.2866 132.581C81.3791 133.406 80.4716 134.231 79.5366 135.081C77.2866 136.581 77.2866 136.581 75.3481 136.318C71.9512 135.104 69.3248 132.746 66.5366 130.519C65.9346 130.046 65.3326 129.574 64.7124 129.087C63.2325 127.924 61.7589 126.754 60.2866 125.581C60.5934 124.702 60.9002 123.823 61.2163 122.917C62.1505 120.006 62.8442 117.206 63.4116 114.206C63.5792 113.332 63.7468 112.458 63.9194 111.558C64.0406 110.906 64.1618 110.253 64.2866 109.581Z" fill="#A97047"/>
<path d="M64.2864 9.58126C64.2864 10.2413 64.2864 10.9013 64.2864 11.5813C63.4163 11.9448 63.4163 11.9448 62.5286 12.3156C52.5109 16.6137 44.1851 22.4957 39.2864 32.5813C39.2864 33.5713 39.2864 34.5613 39.2864 35.5813C38.2864 37.7688 38.2864 37.7688 37.2864 39.5813C37.9619 39.2203 38.6374 38.8594 39.3333 38.4875C40.2253 38.0234 41.1174 37.5594 42.0364 37.0813C43.359 36.3852 43.359 36.3852 44.7083 35.675C47.2864 34.5813 47.2864 34.5813 51.2864 34.5813C51.2864 35.2413 51.2864 35.9013 51.2864 36.5813C50.3686 37.017 49.4508 37.4527 48.5052 37.9016C37.8313 43.0436 29.0156 47.6781 23.2864 58.5813C20.7874 65.8791 21.0978 75.1047 24.4114 82.0188C27.7085 87.6882 31.1827 92.851 37.2864 95.5813C36.7914 94.5913 36.7914 94.5913 36.2864 93.5813C35.2561 82.2981 35.2561 82.2981 38.1614 77.9563C39.4979 76.4625 40.8692 74.9985 42.2864 73.5813C42.9839 72.2638 43.656 70.9321 44.2864 69.5813C45.7471 72.2286 46.2864 73.4757 46.2864 76.5813C44.9664 76.5813 43.6464 76.5813 42.2864 76.5813C40.1571 81.8337 38.8755 85.8286 39.2864 91.5813C40.4077 93.3904 40.4077 93.3904 42.2864 94.5813C44.7993 94.9434 44.7993 94.9434 47.4739 94.7688C48.375 94.7417 49.276 94.7146 50.2044 94.6867C50.8915 94.6519 51.5785 94.6171 52.2864 94.5813C52.2864 95.2413 52.2864 95.9013 52.2864 96.5813C51.2906 96.7669 51.2906 96.7669 50.2747 96.9563C44.8671 98.1634 44.8671 98.1634 40.5794 101.456C39.3614 103.458 38.3065 105.473 37.2864 107.581C36.6264 108.571 35.9664 109.561 35.2864 110.581C34.5989 108.956 34.5989 108.956 34.2864 106.581C35.7239 103.331 35.7239 103.331 37.2864 100.581C36.7785 100.157 36.2707 99.7331 35.7474 99.2961C26.5981 91.5003 19.582 83.5523 17.9778 71.2063C17.582 63.1452 19.8239 57.2657 24.2864 50.5813C26.2693 48.492 28.3495 46.5754 30.4739 44.632C33.1814 41.5687 34.0851 38.2277 35.3138 34.382C38.8897 24.085 45.9771 16.2397 55.5364 11.0813C58.5409 9.71121 60.9471 9.16384 64.2864 9.58126Z" fill="#101211"/>
<path d="M58.1147 126.234C60.8515 127.932 63.2925 129.855 65.7866 131.894C67.1943 133.033 67.1943 133.033 68.6304 134.195C71.1823 136.488 73.2312 138.842 75.2866 141.581C75.8229 140.853 76.3591 140.125 76.9116 139.374C79.4675 136.369 82.1129 134.23 85.2866 131.894C86.3179 131.127 87.3491 130.36 88.4116 129.57C92.9541 126.428 92.9541 126.428 95.2866 125.581C98.0366 126.831 98.0366 126.831 100.287 128.581C100.287 129.241 100.287 129.901 100.287 130.581C100.947 130.911 101.607 131.241 102.287 131.581C98.0387 137.534 92.8335 139.688 86.2866 142.581C85.4719 142.95 84.6572 143.319 83.8179 143.698C77.2637 146.306 72.7712 145.49 66.3779 142.769C64.2044 141.803 62.056 140.797 59.9116 139.769C58.8577 139.272 58.8577 139.272 57.7825 138.766C53.6153 136.668 51.3006 134.986 49.2866 130.581C49.9466 130.581 50.6066 130.581 51.2866 130.581C51.2866 129.921 51.2866 129.261 51.2866 128.581C55.5032 125.302 55.5032 125.302 58.1147 126.234Z" fill="#0D171A"/>
<path d="M131.287 64.5813C131.617 64.5813 131.947 64.5813 132.287 64.5813C132.907 76.8528 131.798 82.7211 123.787 91.8938C121.14 94.7807 118.574 97.4294 115.287 99.5813C114.627 99.5813 113.967 99.5813 113.287 99.5813C113.648 100.127 114.008 100.672 114.38 101.234C117.949 107.032 118.825 110.797 118.287 117.581C118.021 117.046 117.756 116.511 117.482 115.96C116.593 114.191 115.69 112.429 114.779 110.671C114.245 109.631 113.711 108.591 113.162 107.519C112.623 106.476 112.084 105.433 111.529 104.359C110.287 101.581 110.287 101.581 110.287 98.5813C106.327 97.9213 102.367 97.2613 98.2866 96.5813C99.0315 92.8569 99.8318 89.8833 101.162 86.3938C102.879 81.8077 104.308 77.2086 105.576 72.4797C106.287 70.5813 106.287 70.5813 108.287 69.5813C108.287 70.9013 108.287 72.2213 108.287 73.5813C109.277 73.9113 110.267 74.2413 111.287 74.5813C114.97 79.5601 116.347 85.4597 116.287 91.5813C115.957 92.5713 115.627 93.5613 115.287 94.5813C124.207 87.4979 129.58 80.2388 130.912 68.7063C131.043 67.3319 131.17 65.9571 131.287 64.5813Z" fill="#0E0F0D"/>
<path d="M74.2866 39.5813C77.7104 40.7226 78.0127 41.3881 80.0366 44.2063C84.6969 49.7237 90.9077 52.0121 97.3853 54.7698C113.446 61.6248 113.446 61.6248 117.287 68.5813C117.287 69.5713 117.287 70.5613 117.287 71.5813C113.518 70.3251 113.207 68.9212 111.287 65.5813C110.627 65.2513 109.967 64.9213 109.287 64.5813C109.287 67.5513 109.287 70.5213 109.287 73.5813C106.287 70.5813 106.287 70.5813 106.212 68.3196C106.34 67.5191 106.468 66.7186 106.599 65.8938C106.719 65.0856 106.839 64.2773 106.962 63.4446C107.069 62.8297 107.176 62.2148 107.287 61.5813C106.049 61.1894 104.812 60.7975 103.537 60.3938C92.6911 56.7275 83.4877 52.7824 75.2866 44.5813C74.9205 45.017 74.5544 45.4527 74.1772 45.9016C69.0452 51.5468 63.1914 54.4861 56.2866 57.5813C57.3346 58.0705 57.3346 58.0705 58.4038 58.5696C59.3139 59.0066 60.224 59.4436 61.1616 59.8938C62.0665 60.3231 62.9715 60.7523 63.9038 61.1946C66.2866 62.5813 66.2866 62.5813 68.2866 65.5813C67.2966 65.9113 66.3066 66.2413 65.2866 66.5813C64.4204 66.1069 63.5541 65.6325 62.6616 65.1438C57.5571 62.7806 52.6057 62.8083 47.2866 64.5813C47.2866 63.5913 47.2866 62.6013 47.2866 61.5813C45.9666 61.9113 44.6466 62.2413 43.2866 62.5813C43.2866 64.2313 43.2866 65.8813 43.2866 67.5813C42.9566 66.5913 42.6266 65.6013 42.2866 64.5813C41.1419 65.7879 41.1419 65.7879 39.9741 67.0188C37.2866 69.5813 37.2866 69.5813 34.2866 70.5813C35.0123 66.5945 36.7297 64.7812 39.8804 62.218C45.9797 58.0693 52.9199 55.0789 59.6499 52.0852C66.38 48.9926 70.5406 46.0546 74.2866 39.5813Z" fill="#100F0E"/>
<path d="M134.287 66.5813C134.617 66.5813 134.947 66.5813 135.287 66.5813C135.786 83.4055 134.11 98.6033 123.111 112.288C120.918 115.044 120.609 117.12 120.287 120.581C119.957 120.581 119.627 120.581 119.287 120.581C119.272 119.964 119.258 119.346 119.244 118.71C118.902 112.637 117.589 108.541 114.345 103.394C113.287 101.581 113.287 101.581 113.287 99.5813C114.599 98.5071 115.964 97.497 117.349 96.5188C126.701 89.3575 130.462 81.9272 133.287 70.5813C133.485 69.7937 133.684 69.0061 133.888 68.1946C134.02 67.6622 134.151 67.1298 134.287 66.5813Z" fill="#88BD71"/>
<path d="M42.2865 76.5813C43.6065 76.5813 44.9265 76.5813 46.2865 76.5813C46.6732 77.5945 47.0599 78.6077 47.4584 79.6516C47.984 81.0033 48.5101 82.3549 49.0365 83.7063C49.2892 84.3715 49.5418 85.0366 49.8021 85.7219C54.0017 96.4309 61.7438 104.807 72.2865 109.581C78.2169 110.767 83.3334 107.608 88.2865 104.581C89.2988 103.594 90.3004 102.595 91.2865 101.581C93.2627 100.535 95.2602 99.5269 97.2865 98.5813C96.1545 101.463 95.275 102.59 92.724 104.456C89.9964 106.425 89.9964 106.425 89.474 109.831C89.3812 111.193 89.3812 111.193 89.2865 112.581C88.6265 112.581 87.9665 112.581 87.2865 112.581C87.2865 111.591 87.2865 110.601 87.2865 109.581C86.3171 110.076 85.3478 110.571 84.349 111.081C79.3695 113.194 74.3431 113.557 69.1576 111.902C67.5019 111.199 65.8883 110.399 64.2865 109.581C64.2865 110.571 64.2865 111.561 64.2865 112.581C63.6265 112.581 62.9665 112.581 62.2865 112.581C62.2865 110.601 62.2865 108.621 62.2865 106.581C61.7142 106.326 61.1418 106.071 60.5521 105.808C58.0448 104.45 56.1535 102.862 54.0365 100.956C53.3301 100.325 52.6237 99.693 51.8959 99.0422C51.3648 98.5601 50.8337 98.078 50.2865 97.5813C50.9465 97.2513 51.6065 96.9213 52.2865 96.5813C52.2865 95.9213 52.2865 95.2613 52.2865 94.5813C51.6265 94.9113 50.9665 95.2413 50.2865 95.5813C43.2008 96.1527 43.2008 96.1527 39.7865 94.0188C37.6647 90.5709 37.7524 88.5869 38.2865 84.5813C39.4205 81.7904 40.7725 79.1835 42.2865 76.5813Z" fill="#12100E"/>
<path d="M88.2866 113.581C88.9466 113.581 89.6066 113.581 90.2866 113.581C90.6269 115.345 90.6269 115.345 90.9741 117.144C93.0696 122.858 97.9507 124.79 103.06 127.527C106.182 128.847 106.182 128.847 109.056 127.988C111.448 126.48 112.349 125.457 113.599 122.956C114.156 121.843 114.713 120.729 115.287 119.581C115.947 119.581 116.607 119.581 117.287 119.581C116.848 124.411 115.858 126.355 112.287 129.581C112.287 130.241 112.287 130.901 112.287 131.581C113.277 132.406 114.267 133.231 115.287 134.081C116.277 134.906 117.267 135.731 118.287 136.581C118.287 137.241 118.287 137.901 118.287 138.581C116.967 138.251 115.647 137.921 114.287 137.581C114.287 136.921 114.287 136.261 114.287 135.581C109.703 133.659 105.007 132.124 100.287 130.581C100.287 129.921 100.287 129.261 100.287 128.581C96.8984 126.943 96.8984 126.943 93.2866 126.581C90.9713 128.028 89.2134 129.716 87.2749 131.636C85.4309 133.44 83.6116 134.838 81.4741 136.269C78.6755 138.299 77.2223 139.82 75.2866 142.581C74.8741 142.073 74.4616 141.566 74.0366 141.042C69.0993 135.157 63.543 129.513 56.2866 126.581C53.5673 127.368 53.5673 127.368 51.2866 128.581C51.2866 129.241 51.2866 129.901 51.2866 130.581C49.9666 130.251 48.6466 129.921 47.2866 129.581C47.2866 128.921 47.2866 128.261 47.2866 127.581C48.0343 127.229 48.7819 126.877 49.5522 126.515C55.8743 123.346 59.5177 121.174 62.2866 114.581C62.6166 114.581 62.9466 114.581 63.2866 114.581C62.7846 118.31 62.2446 121.943 61.2866 125.581C63.3585 127.285 65.442 128.969 67.5366 130.644C68.1231 131.129 68.7097 131.614 69.314 132.115C71.2449 133.689 71.2449 133.689 74.2866 135.581C78.3858 135.078 80.8731 132.826 84.0366 130.269C85.0215 129.489 86.0063 128.709 87.021 127.906C89.752 125.645 89.752 125.645 89.2866 121.581C88.7916 120.591 88.7916 120.591 88.2866 119.581C88.2466 117.582 88.2432 115.581 88.2866 113.581Z" fill="#0E1212"/>
<path d="M18.2865 76.5813C21.2062 78.0411 21.5382 80.1236 22.849 83.0813C25.9728 89.5365 29.9982 93.8369 35.2865 98.5813C36.2765 99.5713 37.2665 100.561 38.2865 101.581C36.3065 105.541 34.3265 109.501 32.2865 113.581C24.8461 106.781 19.7831 96.5583 18.2865 86.5813C18.1562 83.2396 18.1633 79.9229 18.2865 76.5813Z" fill="#89BD72"/>
<path d="M70.2864 18.5813C70.802 18.7463 71.3176 18.9113 71.8489 19.0813C74.4547 19.7226 74.4547 19.7226 77.8489 19.3938C81.2864 19.5813 81.2864 19.5813 83.2239 21.2063C84.8883 24.9268 84.8538 28.01 83.4739 31.8313C82.2864 33.5813 82.2864 33.5813 79.2864 35.5813C74.3815 36.1351 72.3866 36.3377 68.2864 33.5188C65.7671 29.8186 65.5798 27.9781 66.2864 23.5813C68.2864 20.6438 68.2864 20.6438 70.2864 18.5813Z" fill="#111418"/>
<path d="M86.2866 23.5813C96.447 24.4648 104.88 28.5814 112.287 35.5813C114.349 38.5188 114.349 38.5188 115.287 40.5813C111.366 39.4157 107.821 37.8767 104.162 36.0813C98.339 33.3662 92.6346 32.3236 86.2866 31.5813C86.2866 28.9413 86.2866 26.3013 86.2866 23.5813Z" fill="#33B2C4"/>
<path d="M64.2866 23.5813C64.2866 26.2213 64.2866 28.8613 64.2866 31.5813C62.8886 31.8017 62.8886 31.8017 61.4624 32.0266C52.2115 33.6542 44.672 36.2119 36.2866 40.5813C38.3175 34.2048 42.7019 31.8416 48.2866 28.5813C58.5122 23.5813 58.5122 23.5813 64.2866 23.5813Z" fill="#36B4C0"/>
<path d="M93.2866 125.581C98.0366 127.456 98.0366 127.456 100.287 128.581C98.3 133.638 94.5973 135.933 89.8413 138.284C88.0199 139.05 88.0199 139.05 86.1616 139.831C85.5416 140.099 84.9215 140.368 84.2827 140.644C81.4458 141.84 79.3971 142.581 76.2866 142.581C77.6559 137.564 80.7295 135.302 84.7866 132.394C89.213 129.2 89.213 129.2 93.2866 125.581Z" fill="#32BDC9"/>
<path d="M56.2866 125.581C59.9579 127.187 62.7737 129.471 65.8491 132.019C66.7992 132.801 67.7492 133.584 68.728 134.39C70.6774 136.06 72.5165 137.728 74.2866 139.581C73.9566 140.571 73.6266 141.561 73.2866 142.581C57.6122 136.907 57.6122 136.907 52.2866 131.581C52.4741 129.581 52.4741 129.581 53.2866 127.581C54.2766 126.921 55.2666 126.261 56.2866 125.581Z" fill="#31BECB"/>
<path d="M107.287 76.5813C110.287 77.5813 110.287 77.5813 111.974 80.7063C113.415 84.44 113.817 87.5683 113.287 91.5813C111.724 94.0188 111.724 94.0188 109.287 95.5813C105.537 95.8313 105.537 95.8313 102.287 95.5813C104.037 79.8313 104.037 79.8313 107.287 76.5813Z" fill="#E1B735"/>
<path d="M59.2866 66.5813C64.2393 68.9226 66.3709 71.4728 68.2866 76.5813C68.2866 77.9013 68.2866 79.2213 68.2866 80.5813C67.6266 80.5813 66.9666 80.5813 66.2866 80.5813C65.6266 79.5913 64.9666 78.6013 64.2866 77.5813C63.6266 78.2413 62.9666 78.9013 62.2866 79.5813C59.7866 79.3938 59.7866 79.3938 57.2866 78.5813C55.2866 75.5813 55.2866 75.5813 55.6616 72.3938C55.8679 71.4657 56.0741 70.5375 56.2866 69.5813C53.6466 69.9113 51.0066 70.2413 48.2866 70.5813C47.9566 69.5913 47.6266 68.6013 47.2866 67.5813C51.0015 65.7238 55.2323 66.1391 59.2866 66.5813Z" fill="#272622"/>
<path d="M42.2865 76.5813C42.9465 76.5813 43.6065 76.5813 44.2865 76.5813C45.1516 79.1823 46.0038 81.7864 46.849 84.3938C47.0959 85.1318 47.3428 85.8698 47.5971 86.6301C49.3998 92.2415 49.3998 92.2415 48.2865 95.5813C44.7901 95.8992 42.8891 95.9777 39.9115 94.0188C37.6226 90.5853 37.7432 88.6567 38.2865 84.5813C39.4205 81.7904 40.7725 79.1835 42.2865 76.5813Z" fill="#E9BA38"/>
<path d="M97.474 66.4564C98.5607 66.4744 99.6474 66.4925 100.767 66.5111C102.014 66.5459 102.014 66.5459 103.287 66.5814C103.287 67.5714 103.287 68.5614 103.287 69.5814C100.317 69.2514 97.3465 68.9214 94.2865 68.5814C94.6165 69.2414 94.9465 69.9014 95.2865 70.5814C95.474 74.0814 95.474 74.0814 95.2865 77.5814C94.6265 78.2414 93.9665 78.9014 93.2865 79.5814C90.724 79.3314 90.724 79.3314 88.2865 78.5814C87.9565 77.9214 87.6265 77.2614 87.2865 76.5814C86.2965 77.9014 85.3065 79.2214 84.2865 80.5814C83.7822 75.286 84.9989 72.7143 88.2865 68.5814C91.8133 66.2302 93.3153 66.3669 97.474 66.4564Z" fill="#111111"/>
<path d="M74.7866 94.2063C75.7457 94.1986 76.7047 94.1908 77.6929 94.1829C80.6174 94.6321 81.494 95.292 83.2866 97.5813C82.3545 99.9116 81.5966 101.34 79.5991 102.894C76.134 103.924 73.7584 103.511 70.2866 102.581C67.8491 100.019 67.8491 100.019 66.2866 97.5813C68.8306 94.3326 70.7535 94.1738 74.7866 94.2063Z" fill="#181717"/>
<path d="M94.2866 68.5813C100.037 69.4563 100.037 69.4563 102.287 70.5813C100.397 78.7688 100.397 78.7688 96.2866 81.5813C93.4933 82.3487 91.2407 82.4875 88.2866 82.5813C87.2966 81.9213 86.3066 81.2613 85.2866 80.5813C85.6166 78.9313 85.9466 77.2813 86.2866 75.5813C86.9466 75.9113 87.6066 76.2413 88.2866 76.5813C88.2866 77.2413 88.2866 77.9013 88.2866 78.5813C89.9527 78.624 91.6204 78.6219 93.2866 78.5813C94.5193 77.5729 94.5193 77.5729 94.3843 75.5149C94.3727 74.6912 94.3611 73.8675 94.3491 73.0188C94.3401 72.1925 94.3311 71.3662 94.3218 70.5149C94.3102 69.8768 94.2986 69.2387 94.2866 68.5813Z" fill="#E8E8E8"/>
<path d="M56.2866 69.5813C56.2454 70.5094 56.2041 71.4376 56.1616 72.3938C56.0153 75.7394 56.0153 75.7394 58.2866 78.5813C62.2174 78.0068 62.2174 78.0068 65.2866 75.5813C65.6166 77.2313 65.9466 78.8813 66.2866 80.5813C62.5179 83.0938 60.7551 83.1115 56.2866 82.5813C52.9116 80.5188 52.9116 80.5188 50.2866 77.5813C49.4116 73.7688 49.4116 73.7688 49.2866 70.5813C51.7494 69.3499 53.5661 69.5097 56.2866 69.5813Z" fill="#F3F4F4"/>
<path d="M45.2865 61.5813C45.9465 61.5813 46.6065 61.5813 47.2865 61.5813C47.6784 62.0557 48.0703 62.53 48.474 63.0188C51.1526 65.328 53.8473 65.2568 57.2865 65.5813C57.2865 65.9113 57.2865 66.2413 57.2865 66.5813C53.9865 66.9113 50.6865 67.2413 47.2865 67.5813C48.2765 69.0663 48.2765 69.0663 49.2865 70.5813C49.5959 71.7157 49.9053 72.85 50.224 74.0188C51.1944 77.2725 52.0802 79.0741 54.2865 81.5813C51.2865 82.5813 51.2865 82.5813 49.2084 81.9329C45.5333 79.3484 45.1204 74.7935 44.2865 70.5813C44.0342 67.81 44.0834 65.3737 44.2865 62.5813C44.6165 62.2513 44.9465 61.9213 45.2865 61.5813Z" fill="#A26E45"/>
<path d="M85.2866 20.5813C87.4156 20.9771 89.5398 21.3987 91.6616 21.8313C92.845 22.0633 94.0283 22.2954 95.2476 22.5344C98.2866 23.5813 98.2866 23.5813 99.7007 25.6907C99.894 26.3146 100.087 26.9385 100.287 27.5813C99.6949 27.3763 99.1033 27.1714 98.4937 26.9602C94.45 25.5815 90.5181 24.2638 86.2866 23.5813C86.2866 26.2213 86.2866 28.8613 86.2866 31.5813C87.6066 31.9113 88.9266 32.2413 90.2866 32.5813C89.4204 32.8288 88.5541 33.0763 87.6616 33.3313C84.2015 34.4474 84.2015 34.4474 81.2866 36.7063C77.9295 38.8045 76.1652 38.9507 72.2866 38.5813C72.6166 37.5913 72.9466 36.6013 73.2866 35.5813C75.353 34.8508 75.353 34.8508 77.8491 34.3938C78.6754 34.2352 79.5017 34.0767 80.353 33.9133C80.9911 33.8038 81.6292 33.6942 82.2866 33.5813C82.3356 32.8942 82.3846 32.2072 82.4351 31.4993C82.5098 30.5982 82.5846 29.6972 82.6616 28.7688C82.766 27.4288 82.766 27.4288 82.8726 26.0618C83.2866 23.5813 83.2866 23.5813 85.2866 20.5813Z" fill="#121613"/>
<path d="M131.287 64.5813C131.617 64.5813 131.947 64.5813 132.287 64.5813C132.991 78.5077 130.738 84.2169 121.603 94.4797C119.229 96.6339 117.316 97.6088 114.287 98.5813C114.835 94.8734 116.117 93.592 119.037 91.3313C127.087 84.5941 130.154 76.6222 131.138 66.3391C131.187 65.759 131.236 65.179 131.287 64.5813Z" fill="#0C0E0D"/>
<path d="M33.2866 111.581C33.6166 111.581 33.9466 111.581 34.2866 111.581C34.5341 112.778 34.7816 113.974 35.0366 115.206C36.6641 121.648 39.9243 125.709 45.2866 129.581C44.2866 132.581 44.2866 132.581 42.6929 133.609C42.0638 133.909 41.4347 134.209 40.7866 134.519C37.8686 135.992 37.8686 135.992 36.3491 138.831C36.3285 139.409 36.3079 139.986 36.2866 140.581C36.9466 140.911 37.6066 141.241 38.2866 141.581C37.2966 141.581 36.3066 141.581 35.2866 141.581C35.2866 140.591 35.2866 139.601 35.2866 138.581C34.2966 138.251 33.3066 137.921 32.2866 137.581C32.9466 137.581 33.6066 137.581 34.2866 137.581C34.5547 136.963 34.8229 136.344 35.0991 135.706C36.2866 133.581 36.2866 133.581 39.2866 131.581C38.1172 129.048 36.9358 127.148 35.1616 124.956C32.6369 120.412 32.9249 116.665 33.2866 111.581Z" fill="#0E0F10"/>
<path d="M78.2866 20.5813C80.2866 22.5813 80.2866 22.5813 80.5366 25.5813C80.2866 28.5813 80.2866 28.5813 78.2866 30.5813C75.2866 30.8313 75.2866 30.8313 72.2866 30.5813C71.6266 29.9213 70.9666 29.2613 70.2866 28.5813C70.5366 25.0188 70.5366 25.0188 71.2866 21.5813C73.7994 20.3249 75.5036 20.3726 78.2866 20.5813Z" fill="#3B78B4"/>
<path d="M44.2866 76.5813C44.9466 76.5813 45.6066 76.5813 46.2866 76.5813C46.6733 77.5945 47.0601 78.6077 47.4585 79.6516C47.9842 81.0033 48.5102 82.3549 49.0366 83.7063C49.2893 84.3715 49.5419 85.0366 49.8022 85.7219C52.1222 91.6379 55.4167 96.5503 59.2866 101.581C58.6266 102.241 57.9666 102.901 57.2866 103.581C54.9766 101.601 52.6666 99.6213 50.2866 97.5813C50.9466 97.2513 51.6066 96.9213 52.2866 96.5813C52.2866 95.9213 52.2866 95.2613 52.2866 94.5813C50.9666 94.9113 49.6466 95.2413 48.2866 95.5813C48.1654 95.0012 48.0443 94.4211 47.9194 93.8235C47.1474 90.2244 46.347 86.7591 45.1616 83.2688C44.2866 80.5813 44.2866 80.5813 44.2866 76.5813Z" fill="#1D1711"/>
<path d="M68.2866 20.5813C69.2866 22.5813 69.2866 22.5813 69.2241 26.0813C68.8824 29.6401 68.8824 29.6401 71.2866 31.5813C73.1948 31.9364 73.1948 31.9364 75.2866 31.8938C76.3384 31.9189 76.3384 31.9189 77.4116 31.9446C78.0303 31.8247 78.6491 31.7048 79.2866 31.5813C81.4116 28.3937 81.7886 26.3162 82.2866 22.5813C82.9466 22.9113 83.6066 23.2413 84.2866 23.5813C84.4642 27.4882 84.5217 30.2874 82.2866 33.5813C78.5972 36.0409 75.5682 36.381 71.2866 35.5813C68.2866 33.5188 68.2866 33.5188 66.2866 30.5813C65.7505 26.1399 65.7862 24.3318 68.2866 20.5813Z" fill="#C3C07B"/>
<path d="M59.4116 59.2063C60.4454 59.5492 61.4793 59.8921 62.5444 60.2453C65.453 61.6623 66.6186 62.8549 68.2866 65.5813C67.2966 65.9113 66.3066 66.2413 65.2866 66.5813C64.4204 66.1069 63.5541 65.6325 62.6616 65.1438C57.5571 62.7806 52.6057 62.8082 47.2866 64.5813C47.4741 62.2063 47.4741 62.2063 48.2866 59.5813C52.4613 57.1441 54.9578 57.6547 59.4116 59.2063Z" fill="#1C1913"/>
<path d="M121.287 46.5813C124.563 47.9711 126.301 49.4801 128.412 52.3313C128.909 52.9861 129.407 53.641 129.919 54.3157C132.917 59.2831 133.529 63.7192 133.412 69.4563C133.394 70.6087 133.376 71.7611 133.357 72.9485C133.322 74.2517 133.322 74.2517 133.287 75.5813C132.297 74.9213 131.307 74.2613 130.287 73.5813C129.986 70.8938 129.986 70.8938 129.974 67.5813C129.543 59.2979 126.305 53.2394 120.287 47.5813C120.617 47.2513 120.947 46.9213 121.287 46.5813Z" fill="#121614"/>
<path d="M62.2866 114.581C62.6166 114.581 62.9466 114.581 63.2866 114.581C62.4016 121.156 62.4016 121.156 61.6616 123.894C61.0769 125.687 61.0769 125.687 62.2866 127.581C61.3997 127.375 60.5129 127.169 59.5991 126.956C56.0614 126.556 54.4203 127.014 51.2866 128.581C51.2866 129.241 51.2866 129.901 51.2866 130.581C49.9666 130.251 48.6466 129.921 47.2866 129.581C47.2866 128.921 47.2866 128.261 47.2866 127.581C48.0343 127.229 48.7819 126.877 49.5522 126.515C55.8743 123.346 59.5177 121.174 62.2866 114.581Z" fill="#0B0C0B"/>
<path d="M117.287 35.5813C121.14 36.8659 122.047 38.5679 124.412 41.8313C125.115 42.7852 125.819 43.7391 126.544 44.7219C128.221 47.4732 128.905 49.4143 129.287 52.5813C128.828 52.183 128.369 51.7847 127.896 51.3743C126.976 50.5796 126.976 50.5796 126.037 49.7688C125.4 49.2132 124.763 48.6576 124.107 48.0852C122.275 46.4872 122.275 46.4872 119.912 45.2063C117.199 42.4933 117.532 39.3175 117.287 35.5813Z" fill="#8EC676"/>
<path d="M95.1616 59.2688C96.0253 59.2314 96.889 59.194 97.7788 59.1555C101.036 59.7084 102.19 61.1098 104.287 63.5813C103.49 63.5465 102.693 63.5117 101.873 63.4758C95.7562 63.3196 91.6787 63.4014 86.2866 66.5813C85.2966 66.2513 84.3066 65.9213 83.2866 65.5813C89.2756 59.4347 89.2756 59.4347 95.1616 59.2688Z" fill="#1F1B18"/>
<path d="M87.2867 69.5813C87.6167 70.2413 87.9467 70.9013 88.2867 71.5813C88.9467 71.5813 89.6067 71.5813 90.2867 71.5813C90.6167 73.2313 90.9467 74.8813 91.2867 76.5813C92.6067 76.2513 93.9267 75.9213 95.2867 75.5813C94.6267 76.9013 93.9667 78.2213 93.2867 79.5813C90.8492 79.2063 90.8492 79.2063 88.2867 78.5813C87.9567 77.9213 87.6267 77.2613 87.2867 76.5813C86.2967 77.9013 85.3067 79.2213 84.2867 80.5813C83.9606 75.9067 84.5809 73.4146 87.2867 69.5813Z" fill="#181715"/>
<path d="M103.287 67.5813C103.617 68.2413 103.947 68.9013 104.287 69.5813C104.947 69.5813 105.607 69.5813 106.287 69.5813C105.627 73.2113 104.967 76.8413 104.287 80.5813C103.957 79.9213 103.627 79.2613 103.287 78.5813C100.658 80.1034 98.443 81.425 96.2866 83.5813C95.6266 82.9213 94.9666 82.2613 94.2866 81.5813C95.0497 81.0657 95.8129 80.55 96.5991 80.0188C99.9024 77.0228 100.773 74.7242 102.287 70.5813C101.627 70.2513 100.967 69.9213 100.287 69.5813C101.277 69.5813 102.267 69.5813 103.287 69.5813C103.287 68.9213 103.287 68.2613 103.287 67.5813Z" fill="#80573B"/>
<path d="M72.2866 15.5813C77.192 15.2928 80.4421 15.3193 84.2866 18.5813C84.2866 19.9013 84.2866 21.2213 84.2866 22.5813C83.2966 21.9213 82.3066 21.2613 81.2866 20.5813C79.2669 20.6134 77.247 20.647 75.228 20.7102C72.5484 20.5323 71.1532 19.4478 69.2866 17.5813C70.2766 17.5813 71.2666 17.5813 72.2866 17.5813C72.2866 16.9213 72.2866 16.2613 72.2866 15.5813Z" fill="#070606"/>
<path d="M105.287 30.5813C109.465 33.1456 112.412 35.6006 115.287 39.5813C114.297 40.0763 114.297 40.0763 113.287 40.5813C111.044 39.6846 108.839 38.6898 106.662 37.6438C105.473 37.0779 104.285 36.512 103.06 35.929C102.145 35.4842 101.23 35.0395 100.287 34.5813C100.287 34.2513 100.287 33.9213 100.287 33.5813C101.937 33.2513 103.587 32.9213 105.287 32.5813C105.287 31.9213 105.287 31.2613 105.287 30.5813Z" fill="#34ACBF"/>
<path d="M50.2866 62.5813C60.0266 62.0084 60.0266 62.0084 64.2866 65.5813C64.2866 66.2413 64.2866 66.9013 64.2866 67.5813C59.62 66.9147 54.9533 66.248 50.2866 65.5813C50.2866 64.5913 50.2866 63.6013 50.2866 62.5813Z" fill="#B67A4A"/>
<path d="M59.2866 66.5813C61.4116 69.0813 61.4116 69.0813 62.2866 71.5813C60.6366 71.2513 58.9866 70.9213 57.2866 70.5813C57.2866 69.9213 57.2866 69.2613 57.2866 68.5813C54.3166 69.2413 51.3466 69.9013 48.2866 70.5813C47.9566 69.5913 47.6266 68.6013 47.2866 67.5813C50.9744 65.7374 55.2715 65.9554 59.2866 66.5813Z" fill="#13120F"/>
<path d="M48.2866 70.5813C48.6166 70.5813 48.9466 70.5813 49.2866 70.5813C49.5547 71.6538 49.8229 72.7263 50.0991 73.8313C51.1489 77.1464 52.0327 79.0201 54.2866 81.5813C51.2866 82.5813 51.2866 82.5813 49.1616 81.9563C47.2866 80.5813 47.2866 80.5813 46.5366 77.9563C46.4541 77.1725 46.3716 76.3888 46.2866 75.5813C46.9466 75.5813 47.6066 75.5813 48.2866 75.5813C48.2866 73.9313 48.2866 72.2813 48.2866 70.5813Z" fill="#845D3F"/>
<path d="M129.287 58.5813C130.277 58.5813 131.267 58.5813 132.287 58.5813C133.421 62.1912 133.387 65.5655 133.349 69.3313C133.34 70.5018 133.331 71.6722 133.322 72.8782C133.31 73.7702 133.299 74.6622 133.287 75.5813C132.297 74.9213 131.307 74.2613 130.287 73.5813C129.903 70.9717 129.684 68.5755 129.599 65.9563C129.565 65.2499 129.531 64.5435 129.496 63.8157C129.413 62.0714 129.348 60.3264 129.287 58.5813Z" fill="#191D17"/>
<path d="M74.2866 19.5813C77.6616 19.3938 77.6616 19.3938 81.2866 19.5813C83.2866 22.5813 83.2866 22.5813 83.1499 24.554C82.9681 25.2436 82.7864 25.9333 82.5991 26.6438C82.4303 27.336 82.2614 28.0283 82.0874 28.7415C81.2866 30.5813 81.2866 30.5813 78.2866 32.5813C78.2866 29.5813 78.2866 29.5813 79.2866 28.5813C79.3274 26.5817 79.3292 24.5808 79.2866 22.5813C76.8116 21.5913 76.8116 21.5913 74.2866 20.5813C74.2866 20.2513 74.2866 19.9213 74.2866 19.5813Z" fill="#1F211F"/>
<path d="M69.2866 140.581C70.8707 140.696 72.4539 140.824 74.0366 140.956C75.3592 141.061 75.3592 141.061 76.7085 141.167C79.2773 141.58 81.045 142.293 83.2866 143.581C77.6763 145.202 73.8242 146.137 68.2866 143.581C68.6166 142.591 68.9466 141.601 69.2866 140.581Z" fill="#142424"/>
<path d="M74.2866 82.5813C74.9466 82.5813 75.6066 82.5813 76.2866 82.5813C76.6166 85.2213 76.9466 87.8613 77.2866 90.5813C75.6366 90.9113 73.9866 91.2413 72.2866 91.5813C73.1616 84.8313 73.1616 84.8313 74.2866 82.5813Z" fill="#C68455"/>
<path d="M108.287 76.5813C112.216 80.5102 113.229 82.8386 113.412 88.3938C113.37 89.4457 113.329 90.4975 113.287 91.5813C112.297 92.0763 112.297 92.0763 111.287 92.5813C111.287 90.2713 111.287 87.9613 111.287 85.5813C110.627 85.5813 109.967 85.5813 109.287 85.5813C108.957 82.6113 108.627 79.6413 108.287 76.5813Z" fill="#D5AF32"/>
<path d="M83.2866 133.581C83.6166 134.241 83.9466 134.901 84.2866 135.581C83.1616 138.644 83.1616 138.644 81.2866 141.581C78.5991 142.456 78.5991 142.456 76.2866 142.581C77.6368 138.162 79.5478 136.238 83.2866 133.581Z" fill="#2CB1BC"/>
<path d="M97.2866 57.5813C99.7671 58.261 99.7671 58.261 102.474 59.4563C103.375 59.8456 104.276 60.2349 105.205 60.636C106.235 61.1039 106.235 61.1039 107.287 61.5813C107.287 63.5613 107.287 65.5413 107.287 67.5813C106.627 67.5813 105.967 67.5813 105.287 67.5813C105.287 66.5913 105.287 65.6013 105.287 64.5813C104.627 64.2513 103.967 63.9213 103.287 63.5813C102.668 62.8388 102.668 62.8388 102.037 62.0813C99.6199 60.0098 97.3919 59.9263 94.2866 59.5813C95.2766 58.9213 96.2666 58.2613 97.2866 57.5813Z" fill="#895B3C"/>
<path d="M31.2866 39.5813C32.0327 41.3157 32.0327 41.3157 32.2866 43.5813C30.6343 45.7219 30.6343 45.7219 28.3491 47.8313C27.5976 48.5377 26.8461 49.2441 26.0718 49.9719C25.4827 50.503 24.8936 51.0341 24.2866 51.5813C24.2866 46.9722 26.9613 44.0013 30.0366 40.7063C30.4491 40.335 30.8616 39.9638 31.2866 39.5813Z" fill="#93C47C"/>
<path d="M117.287 35.5813C120.287 36.5813 120.287 36.5813 122.099 38.8938C123.287 41.5813 123.287 41.5813 122.474 43.8938C122.082 44.4507 121.69 45.0075 121.287 45.5813C118.287 43.5813 118.287 43.5813 117.775 41.636C117.612 39.6178 117.449 37.5995 117.287 35.5813Z" fill="#83BB6E"/>
<path d="M39.2866 26.5813C39.9466 26.5813 40.6066 26.5813 41.2866 26.5813C41.1216 27.1794 40.9566 27.7775 40.7866 28.3938C40.1752 30.6947 40.1752 30.6947 40.2866 33.5813C38.2866 35.7688 38.2866 35.7688 36.2866 37.5813C35.5366 36.0188 35.5366 36.0188 35.2866 33.5813C36.4175 31.0784 37.808 28.9112 39.2866 26.5813Z" fill="#080609"/>
<path d="M37.2865 84.5813C37.6165 84.5813 37.9465 84.5813 38.2865 84.5813C40.3981 93.9913 40.3981 93.9913 41.2865 98.5813C40.9565 97.9213 40.6265 97.2613 40.2865 96.5813C39.6265 96.5813 38.9665 96.5813 38.2865 96.5813C35.5919 92.5394 36.0545 90.3761 36.2865 85.5813C36.6165 85.2513 36.9465 84.9213 37.2865 84.5813Z" fill="#09090B"/>
<path d="M55.5991 58.4563C56.156 58.8276 56.7129 59.1988 57.2866 59.5813C55.6366 59.5813 53.9866 59.5813 52.2866 59.5813C52.2866 60.2413 52.2866 60.9013 52.2866 61.5813C53.6066 61.9113 54.9266 62.2413 56.2866 62.5813C53.3166 63.2413 50.3466 63.9013 47.2866 64.5813C47.4741 62.2063 47.4741 62.2063 48.2866 59.5813C51.1377 57.809 52.4132 57.2508 55.5991 58.4563Z" fill="#463424"/>
<path d="M58.2866 101.581C62.0995 103.028 63.6137 104.883 65.2866 108.581C64.9741 110.894 64.9741 110.894 64.2866 112.581C63.6266 112.581 62.9666 112.581 62.2866 112.581C62.2866 110.601 62.2866 108.621 62.2866 106.581C60.9666 105.921 59.6466 105.261 58.2866 104.581C58.2866 103.591 58.2866 102.601 58.2866 101.581Z" fill="#0D0C0C"/>
<path d="M39.8491 132.519C41.0557 132.55 41.0557 132.55 42.2866 132.581C41.0801 133.448 41.0801 133.448 39.8491 134.331C37.308 136.563 36.6354 137.326 36.2866 140.581C36.9466 140.911 37.6066 141.241 38.2866 141.581C37.2966 141.581 36.3066 141.581 35.2866 141.581C35.2866 140.591 35.2866 139.601 35.2866 138.581C34.2966 138.251 33.3066 137.921 32.2866 137.581C32.9466 137.581 33.6066 137.581 34.2866 137.581C34.7507 136.622 34.7507 136.622 35.2241 135.644C36.7956 132.593 36.7956 132.593 39.8491 132.519Z" fill="#151F1E"/>
<path d="M115.287 119.581C115.947 119.581 116.607 119.581 117.287 119.581C117.012 123.613 116.752 125.15 113.724 127.956C112.92 128.493 112.115 129.029 111.287 129.581C111.287 125.335 113.104 123.196 115.287 119.581Z" fill="#0B0A09"/>
<path d="M69.2866 97.5813C72.9166 97.5813 76.5466 97.5813 80.2866 97.5813C80.2866 98.2413 80.2866 98.9013 80.2866 99.5813C77.4879 100.981 75.3816 100.834 72.2866 100.581C71.2966 99.5913 70.3066 98.6013 69.2866 97.5813Z" fill="#A73E46"/>
<path d="M86.2866 105.581C86.6166 106.901 86.9466 108.221 87.2866 109.581C82.8316 111.066 82.8316 111.066 78.2866 112.581C78.2866 111.591 78.2866 110.601 78.2866 109.581C80.9266 108.261 83.5666 106.941 86.2866 105.581Z" fill="#1C1713"/>
<path d="M102.287 82.5813C102.617 83.2413 102.947 83.9013 103.287 84.5813C103.947 84.9113 104.607 85.2413 105.287 85.5813C104.297 88.5513 103.307 91.5213 102.287 94.5813C101.957 93.9213 101.627 93.2613 101.287 92.5813C100.627 92.2513 99.9666 91.9213 99.2866 91.5813C100.277 88.6113 101.267 85.6413 102.287 82.5813Z" fill="#1D1912"/>
<path d="M87.2866 24.5813C89.2666 24.5813 91.2466 24.5813 93.2866 24.5813C92.9566 25.9013 92.6266 27.2213 92.2866 28.5813C90.6366 28.9113 88.9866 29.2413 87.2866 29.5813C87.2866 27.9313 87.2866 26.2813 87.2866 24.5813Z" fill="#3CC4D6"/>
<path d="M68.2866 95.5813C69.2766 96.2413 70.2666 96.9013 71.2866 97.5813C70.9566 97.9113 70.6266 98.2413 70.2866 98.5813C72.2666 99.5713 74.2466 100.561 76.2866 101.581C76.2866 101.911 76.2866 102.241 76.2866 102.581C73.5366 102.894 73.5366 102.894 70.2866 102.581C67.9116 100.081 67.9116 100.081 66.2866 97.5813C66.9466 96.9213 67.6066 96.2613 68.2866 95.5813Z" fill="#181510"/>
<path d="M45.2866 85.5813C47.2866 86.5813 47.2866 86.5813 47.9546 88.3938C48.126 89.1157 48.2975 89.8375 48.4741 90.5813C48.6533 91.3032 48.8325 92.025 49.0171 92.7688C49.106 93.3669 49.195 93.965 49.2866 94.5813C48.2866 95.5813 48.2866 95.5813 45.2241 95.6438C44.2547 95.6232 43.2854 95.6025 42.2866 95.5813C42.9672 95.045 43.6479 94.5088 44.3491 93.9563C46.6692 91.6697 46.6692 91.6697 46.0366 88.3313C45.6654 86.97 45.6654 86.97 45.2866 85.5813Z" fill="#DBB23B"/>
<path d="M65.2866 52.5813C58.7866 56.5813 58.7866 56.5813 54.2866 56.5813C54.2866 55.9213 54.2866 55.2613 54.2866 54.5813C61.7152 51.0099 61.7152 51.0099 65.2866 52.5813Z" fill="#09090A"/>
<path d="M48.2866 28.5813C50.2666 28.5813 52.2466 28.5813 54.2866 28.5813C53.2966 29.0763 53.2966 29.0763 52.2866 29.5813C52.2866 30.9013 52.2866 32.2213 52.2866 33.5813C50.6366 33.2513 48.9866 32.9213 47.2866 32.5813C47.6166 31.2613 47.9466 29.9413 48.2866 28.5813Z" fill="#3BC2D0"/>
<path d="M91.2866 74.5813C91.2866 75.2413 91.2866 75.9013 91.2866 76.5813C92.6066 76.2513 93.9266 75.9213 95.2866 75.5813C94.6266 76.9013 93.9666 78.2213 93.2866 79.5813C91.6366 79.2513 89.9866 78.9213 88.2866 78.5813C87.9566 77.5913 87.6266 76.6013 87.2866 75.5813C89.2866 74.5813 89.2866 74.5813 91.2866 74.5813Z" fill="#292B2A"/>
<path d="M131.287 64.5813C131.617 64.5813 131.947 64.5813 132.287 64.5813C132.287 69.2013 132.287 73.8213 132.287 78.5813C131.297 78.9113 130.307 79.2413 129.287 79.5813C129.431 78.7769 129.575 77.9725 129.724 77.1438C130.384 72.9677 130.848 68.7853 131.287 64.5813Z" fill="#090A08"/>
<path d="M83.2866 34.5813C81.6525 36.2897 80.4176 37.5159 78.2866 38.5813C76.287 38.6213 74.2861 38.6248 72.2866 38.5813C72.6166 37.5913 72.9466 36.6013 73.2866 35.5813C79.4445 33.3006 79.4445 33.3006 83.2866 34.5813Z" fill="#1B1A14"/>
<path d="M64.2866 9.58134C64.2866 10.2413 64.2866 10.9013 64.2866 11.5813C59.3366 13.0663 59.3366 13.0663 54.2866 14.5813C55.2866 11.5813 55.2866 11.5813 57.0366 10.3938C59.5862 9.47315 61.5959 9.43185 64.2866 9.58134Z" fill="#0E0E0E"/>
<path d="M80.2866 97.5813C80.9466 98.5713 81.6066 99.5613 82.2866 100.581C78.7747 102.989 76.5601 103.948 72.2866 103.581C72.6166 102.591 72.9466 101.601 73.2866 100.581C76.7516 100.086 76.7516 100.086 80.2866 99.5813C80.2866 98.9213 80.2866 98.2613 80.2866 97.5813Z" fill="#2E1B16"/>
<path d="M52.2866 59.5813C54.9266 59.5813 57.5666 59.5813 60.2866 59.5813C60.6166 60.5713 60.9466 61.5613 61.2866 62.5813C58.3166 62.2513 55.3466 61.9213 52.2866 61.5813C52.2866 60.9213 52.2866 60.2613 52.2866 59.5813Z" fill="#0F0F0D"/>
<path d="M102.287 35.5813C105.63 36.1386 108.32 36.933 111.287 38.5813C111.287 39.2413 111.287 39.9013 111.287 40.5813C107.943 40.024 105.253 39.2296 102.287 37.5813C102.287 36.9213 102.287 36.2613 102.287 35.5813Z" fill="#0B0A0A"/>
<path d="M68.2866 137.581C69.9366 137.911 71.5866 138.241 73.2866 138.581C73.6166 139.901 73.9466 141.221 74.2866 142.581C71.9766 141.921 69.6666 141.261 67.2866 140.581C67.6166 139.591 67.9466 138.601 68.2866 137.581Z" fill="#2CB1BE"/>
<path d="M85.2866 132.581C88.5562 133.145 90.1124 134.081 92.2866 136.581C86.5366 136.706 86.5366 136.706 84.2866 135.581C84.6166 134.591 84.9466 133.601 85.2866 132.581Z" fill="#35C7D1"/>
<path d="M60.2866 23.5813C61.6066 23.5813 62.9266 23.5813 64.2866 23.5813C64.2866 25.8913 64.2866 28.2013 64.2866 30.5813C62.9666 30.2513 61.6466 29.9213 60.2866 29.5813C60.9466 29.5813 61.6066 29.5813 62.2866 29.5813C62.2866 28.2613 62.2866 26.9413 62.2866 25.5813C61.6266 25.5813 60.9666 25.5813 60.2866 25.5813C60.2866 24.9213 60.2866 24.2613 60.2866 23.5813Z" fill="#28A6AD"/>
<path d="M99.2866 130.581C100.277 130.911 101.267 131.241 102.287 131.581C100.637 133.231 98.9866 134.881 97.2866 136.581C96.6266 135.921 95.9666 135.261 95.2866 134.581C96.6066 133.261 97.9266 131.941 99.2866 130.581Z" fill="#0D2326"/>
<path d="M23.2866 54.5813C24.2866 56.5813 24.2866 56.5813 23.3491 59.7063C22.9985 60.655 22.6479 61.6038 22.2866 62.5813C21.2966 62.5813 20.3066 62.5813 19.2866 62.5813C19.7849 58.8938 20.3873 56.9764 23.2866 54.5813Z" fill="#0B0C0E"/>
<path d="M38.2866 84.5813C39.8096 87.5185 41.0876 90.4982 42.2866 93.5813C41.2966 93.5813 40.3066 93.5813 39.2866 93.5813C37.8083 90.6247 38.2263 87.839 38.2866 84.5813Z" fill="#CEA936"/>
<path d="M51.2866 34.5813C51.2866 35.2413 51.2866 35.9013 51.2866 36.5813C48.33 38.0596 45.5443 37.6416 42.2866 37.5813C45.2686 34.5993 47.0742 34.5813 51.2866 34.5813Z" fill="#0F171A"/>
<path d="M69.2866 8.58122C70.2766 9.24122 71.2666 9.90122 72.2866 10.5812C69.6466 10.9112 67.0066 11.2412 64.2866 11.5812C64.2866 10.9212 64.2866 10.2612 64.2866 9.58122C63.6266 9.25122 62.9666 8.92122 62.2866 8.58122C65.4671 7.52106 66.2464 7.53615 69.2866 8.58122Z" fill="#192119"/>
<path d="M84.2866 129.581C84.6166 130.901 84.9466 132.221 85.2866 133.581C82.8116 135.066 82.8116 135.066 80.2866 136.581C80.2866 135.261 80.2866 133.941 80.2866 132.581C82.2866 130.831 82.2866 130.831 84.2866 129.581Z" fill="#111C1B"/>
<path d="M51.2866 128.581C52.6066 130.231 53.9266 131.881 55.2866 133.581C54.2966 134.241 53.3066 134.901 52.2866 135.581C51.2966 133.931 50.3066 132.281 49.2866 130.581C49.9466 130.581 50.6066 130.581 51.2866 130.581C51.2866 129.921 51.2866 129.261 51.2866 128.581Z" fill="#122B2E"/>
<path d="M97.2866 94.5813C97.9466 94.9113 98.6066 95.2413 99.2866 95.5813C99.1616 97.4563 99.1616 97.4563 98.2866 99.5813C95.2241 100.831 95.2241 100.831 92.2866 101.581C93.9366 99.2713 95.5866 96.9613 97.2866 94.5813Z" fill="#211C16"/>
<path d="M53.2866 67.5812C53.2866 68.2412 53.2866 68.9012 53.2866 69.5812C51.6366 69.9112 49.9866 70.2412 48.2866 70.5812C47.9566 69.5912 47.6266 68.6012 47.2866 67.5812C49.7775 66.3358 50.6974 66.8045 53.2866 67.5812Z" fill="#262018"/>
<path d="M87.2866 61.5813C87.9466 61.9113 88.6066 62.2413 89.2866 62.5813C88.9566 63.5713 88.6266 64.5613 88.2866 65.5813C86.2241 66.2688 86.2241 66.2688 84.2866 66.5813C84.2866 65.5913 84.2866 64.6013 84.2866 63.5813C85.2766 62.9213 86.2666 62.2613 87.2866 61.5813Z" fill="#11100F"/>
<path d="M98.2866 13.5813C99.9366 14.5713 101.587 15.5613 103.287 16.5813C102.957 17.5713 102.627 18.5613 102.287 19.5813C100.637 18.2613 98.9866 16.9413 97.2866 15.5813C97.6166 14.9213 97.9466 14.2613 98.2866 13.5813Z" fill="#121711"/>
</svg>
