<svg width="152" height="153" viewBox="0 0 152 153" fill="none" xmlns="http://www.w3.org/2000/svg">
<path d="M75.8023 0.00383636C77.4458 0.0173715 77.4458 0.0173715 79.1224 0.0311801C96.8642 0.40998 114.202 7.46919 127.427 19.4413C128.417 20.2941 128.417 20.2941 129.427 21.164C140.828 31.652 149.739 47.9281 151.427 63.4413C151.588 67.359 151.612 71.2707 151.615 75.1913C151.627 76.2252 151.639 77.259 151.652 78.3242C151.69 98.4519 143.821 115.312 130.091 129.871C122.58 137.118 114.001 142.361 104.427 146.441C103.281 146.93 102.135 147.418 100.955 147.922C84.3608 154.325 64.6611 153.628 48.4444 146.58C34.1357 140.179 19.0553 130.657 11.4273 116.441C11.4273 113.441 11.4273 113.441 12.9273 111.754C13.4223 111.321 13.9173 110.888 14.4273 110.441C11.4573 110.936 11.4573 110.936 8.42734 111.441C-0.654867 91.5179 -3.02386 70.3047 4.42734 49.4413C7.86838 40.9047 12.4376 33.4293 18.4273 26.4413C19.0964 25.5577 19.0964 25.5577 19.7789 24.6562C32.8658 7.85749 55.1246 -0.2018 75.8023 0.00383636Z" fill="#46ABD8"/>
<path d="M75.8023 0.00383636C77.4458 0.0173715 77.4458 0.0173715 79.1224 0.0311801C96.8642 0.40998 114.202 7.46919 127.427 19.4413C128.417 20.2941 128.417 20.2941 129.427 21.164C140.828 31.652 149.739 47.9281 151.427 63.4413C151.588 67.359 151.612 71.2707 151.615 75.1913C151.627 76.2252 151.639 77.259 151.652 78.3242C151.669 87.5887 150.361 95.7419 146.927 104.379C146.505 105.46 146.082 106.542 145.646 107.656C144.427 110.441 144.427 110.441 142.427 113.441C137.586 112.853 133.467 111.365 129.052 109.379C128.412 109.097 127.771 108.816 127.111 108.525C125.547 107.837 123.987 107.14 122.427 106.441C122.462 105.584 122.497 104.727 122.533 103.844C122.693 97.0946 122.288 92.6202 119.427 86.4413C118.796 82.7852 118.595 79.1445 118.427 75.4413C118.363 74.5016 118.298 73.5619 118.232 72.5937C117.788 61.5871 120.975 51.4046 125.427 41.4413C124.21 41.8538 122.994 42.2663 121.74 42.6913C120.713 43.0394 120.713 43.0394 119.666 43.3945C114.447 45.8353 111.56 49.3404 108.615 54.1913C108.01 55.1762 107.406 56.161 106.783 57.1757C106.336 57.9234 105.888 58.671 105.427 59.4413C103.755 56.4147 102.964 53.6239 102.24 50.2538C100.424 43.6348 97.7179 38.1412 91.735 34.3764C87.7425 32.1477 83.6235 30.2513 79.4273 28.4413C80.4273 26.4413 80.4273 26.4413 83.3648 25.0663C86.5899 23.3551 87.131 22.6822 88.4273 19.4413C89.4173 18.9463 89.4173 18.9463 90.4273 18.4413C90.5621 15.5627 90.5621 15.5627 89.4273 12.4413C84.3953 8.20516 78.7282 7.91626 72.4273 8.44134C72.0973 9.10134 71.7673 9.76134 71.4273 10.4413C72.0461 10.5445 72.6648 10.6476 73.3023 10.7538C75.4273 11.4413 75.4273 11.4413 77.4273 14.4413C76.4328 19.5244 74.1593 21.9893 70.4273 25.4413C69.4373 26.9263 69.4373 26.9263 68.4273 28.4413C65.818 29.6523 65.818 29.6523 62.6773 30.8163C53.6975 34.4704 49.809 38.5693 45.6852 47.2812C43.9688 51.5934 43.0167 55.848 42.4273 60.4413C40.0078 58.2002 38.348 55.8641 36.6148 53.0663C33.5228 48.3671 30.4898 44.1546 24.7437 42.8163C23.9793 42.6926 23.2149 42.5688 22.4273 42.4413C22.6091 43.0472 22.7909 43.6531 22.9781 44.2773C23.5101 46.0506 24.0371 47.8255 24.5601 49.6015C25.1006 51.3713 25.6734 53.1319 26.2945 54.8749C30.2947 66.4755 29.3426 79.6739 24.3336 90.8906C23.1861 94.1202 23.2333 96.8366 23.3023 100.254C23.3294 101.996 23.3294 101.996 23.357 103.773C23.3802 104.654 23.4034 105.534 23.4273 106.441C21.4927 107.281 19.5545 108.113 17.6148 108.941C15.9964 109.637 15.9964 109.637 14.3453 110.348C11.4273 111.441 11.4273 111.441 8.42734 111.441C-0.654867 91.5179 -3.02386 70.3047 4.42734 49.4413C7.86838 40.9047 12.4376 33.4293 18.4273 26.4413C19.0964 25.5577 19.0964 25.5577 19.7789 24.6562C32.8658 7.85749 55.1246 -0.2018 75.8023 0.00383636Z" fill="#17B6D3"/>
<path d="M72.4272 7.44139C78.943 6.89841 84.0108 7.55762 89.4272 11.4414C91.4272 14.4414 91.4272 14.4414 91.0522 17.1289C90.846 17.892 90.6397 18.6551 90.4272 19.4414C89.7672 19.4414 89.1072 19.4414 88.4272 19.4414C88.3447 20.0395 88.2622 20.6376 88.1772 21.2539C87.2055 24.0882 85.9442 24.8868 83.4272 26.4414C81.9422 26.9364 81.9422 26.9364 80.4272 27.4414C81.2961 27.8655 82.1649 28.2896 83.0601 28.7265C93.5567 34.0688 99.4248 39.1653 103.427 50.4414C104.205 53.1001 104.836 55.7322 105.427 58.4414C105.768 57.7891 106.108 57.1369 106.458 56.4648C109.842 50.3631 113.183 45.7743 119.427 42.4414C122.927 41.5664 122.927 41.5664 125.427 41.4414C125.245 42.024 125.064 42.6067 124.876 43.207C124.037 45.9454 123.228 48.6915 122.427 51.4414C122.141 52.403 121.855 53.3647 121.56 54.3555C119.57 61.5382 119.024 68.0123 119.427 75.4414C119.491 76.9032 119.491 76.9032 119.556 78.3945C119.835 82.7327 120.229 85.9887 121.99 90.0039C124.229 95.3585 124.263 100.935 122.427 106.441C123.033 106.612 123.639 106.782 124.263 106.957C130.487 108.757 136.454 110.938 142.427 113.441C133.033 128.694 120.948 139.401 104.427 146.441C103.281 146.93 102.135 147.419 100.955 147.922C84.3607 154.325 64.661 153.628 48.4443 146.58C34.1356 140.179 19.0552 130.657 11.4272 116.441C11.4272 115.451 11.4272 114.461 11.4272 113.441C12.4172 112.946 12.4172 112.946 13.4272 112.441C13.4272 111.451 13.4272 110.461 13.4272 109.441C16.7272 108.451 20.0272 107.461 23.4272 106.441C23.0972 105.451 22.7672 104.461 22.4272 103.441C21.8315 96.8884 22.6849 92.4535 25.4272 86.4414C28.8353 73.6561 28.0792 62.7063 23.4741 50.4451C21.3362 44.7145 21.3362 44.7145 22.4272 41.4414C28.3252 42.2694 31.4808 45.1334 35.4272 49.4414C37.6449 52.6671 39.5916 55.9857 41.4272 59.4414C41.6477 58.316 41.6477 58.316 41.8726 57.168C44.0797 47.0964 47.486 38.673 56.2085 32.668C58.6379 31.3249 61.0683 30.3852 63.6772 29.4414C68.3078 27.7537 70.038 25.8376 72.4272 21.4414C73.4172 20.7814 74.4072 20.1214 75.4272 19.4414C76.1607 16.3758 76.1607 16.3758 76.4272 13.4414C74.7772 12.4514 73.1272 11.4614 71.4272 10.4414C71.7572 9.45139 72.0872 8.46139 72.4272 7.44139ZM53.0952 38.4492C47.507 45.1237 45.0497 53.0587 43.4272 61.4414C42.7672 62.1014 42.1072 62.7614 41.4272 63.4414C40.7389 62.3373 40.7389 62.3373 40.0366 61.2109C39.423 60.2351 38.8094 59.2593 38.1772 58.2539C37.574 57.291 36.9707 56.328 36.3491 55.3359C32.1339 48.8601 32.1339 48.8601 25.4272 45.4414C25.9054 47.2125 26.3848 48.9833 26.8647 50.7539C27.1316 51.74 27.3984 52.7262 27.6733 53.7422C28.208 55.6566 28.7987 57.5557 29.4272 59.4414C29.5093 61.2145 29.5347 62.9906 29.5249 64.7656C29.5201 66.3077 29.5201 66.3077 29.5151 67.8808C29.5068 68.9527 29.4984 70.0246 29.4897 71.1289C29.4852 72.2123 29.4807 73.2958 29.4761 74.4121C29.4643 77.0886 29.4478 79.765 29.4272 82.4414C30.9122 81.9464 30.9122 81.9464 32.4272 81.4414C32.0972 84.0814 31.7672 86.7214 31.4272 89.4414C33.0772 89.7714 34.7272 90.1014 36.4272 90.4414C36.765 89.4424 37.1027 88.4433 37.4507 87.414C37.9008 86.1105 38.3514 84.8072 38.8022 83.5039C39.024 82.8445 39.2457 82.1852 39.4741 81.5058C41.2007 76.5547 41.2007 76.5547 43.4272 75.4414C43.1385 75.9364 42.8497 76.4314 42.5522 76.9414C41.2896 79.543 41.2896 79.543 40.5796 82.9297C39.3197 88.1021 37.5897 93.0962 35.8647 98.1289C35.2356 99.9651 34.6092 101.802 33.9858 103.641C33.7105 104.443 33.4352 105.246 33.1516 106.073C31.073 112.869 30.2926 119.308 32.7397 126.066C38.8732 135.342 51.5501 138.913 61.8022 141.191C78.2741 142.327 96.4847 141.678 109.615 130.379C113.593 126.652 115.273 123.983 115.822 118.5C115.672 112.122 113.313 106.423 111.115 100.504C110.304 98.2663 109.496 96.028 108.689 93.789C108.108 92.1863 108.108 92.1863 107.515 90.5513C106.222 86.8554 105.09 83.1293 104.016 79.365C103.468 77.3849 103.468 77.3849 102.427 75.4414C106.122 77.9044 106.33 79.4019 107.615 83.5664C107.959 84.6621 108.303 85.7578 108.658 86.8867C108.912 87.7298 109.166 88.5728 109.427 89.4414C110.747 89.4414 112.067 89.4414 113.427 89.4414C112.932 85.4814 112.932 85.4814 112.427 81.4414C113.747 81.4414 115.067 81.4414 116.427 81.4414C116.437 80.8378 116.446 80.2342 116.456 79.6123C116.864 58.5842 116.864 58.5842 120.685 49.5859C121.719 47.3021 121.719 47.3021 120.427 44.4414C114.148 49.0737 110.536 54.0981 106.873 60.9648C105.427 63.4414 105.427 63.4414 103.427 64.4414C103.345 63.1833 103.262 61.9251 103.177 60.6289C101.849 49.3512 97.4045 41.2558 88.6929 33.9961C78.3757 27.468 61.6752 30.5564 53.0952 38.4492Z" fill="#0F171B"/>
<path d="M87.0522 33.0665C91.7834 36.0392 95.4787 39.4206 97.8647 44.504C98.4477 47.5484 98.2956 49.4889 97.4272 52.4415C96.5404 51.6371 95.6535 50.8327 94.7397 50.004C92.0444 47.7376 90.0066 46.7573 86.4272 46.4415C87.4172 47.7615 88.4072 49.0815 89.4272 50.4415C88.4372 51.4315 87.4472 52.4215 86.4272 53.4415C87.3347 53.8333 88.2422 54.2252 89.1772 54.629C92.6988 56.5929 94.3817 57.9798 96.4272 61.4415C96.9101 65.3043 96.7904 67.6426 95.1772 71.1915C92.2763 74.9213 90.7226 76.2796 85.9272 76.879C81.9419 76.3808 80.852 75.5451 78.4272 72.4415C78.1768 75.316 78.1768 75.316 78.4272 78.4415C79.4066 79.4617 80.4062 80.463 81.4272 81.4415C81.8022 83.9415 81.8022 83.9415 81.4272 86.4415C80.4487 87.4625 79.4474 88.4621 78.4272 89.4415C77.7053 92.0476 77.7053 92.0476 77.4272 94.4415C83.288 94.9624 87.5416 93.5016 92.9741 91.3165C95.4272 90.4415 95.4272 90.4415 98.4272 90.4415C95.9773 96.4551 90.9068 100.263 85.4272 103.441C80.0086 105.324 75.1562 105.807 69.4897 105.816C68.7298 105.841 67.9699 105.865 67.187 105.891C60.2576 105.926 55.0792 103.828 49.9272 99.1915C49.4322 98.614 48.9372 98.0365 48.4272 97.4415C48.7572 96.7815 49.0872 96.1215 49.4272 95.4415C50.1027 95.863 50.7782 96.2845 51.4741 96.7188C52.3662 97.2667 53.2582 97.8145 54.1772 98.379C55.4998 99.1969 55.4998 99.1969 56.8491 100.031C63.1811 103.495 70.3874 103.127 77.4272 102.441C81.6297 101.132 85.5138 99.4484 89.4272 97.4415C88.2877 97.6 87.1482 97.7586 85.9741 97.9219C73.8307 99.4252 62.8416 99.1802 51.4272 94.4415C49.4315 93.7622 47.4325 93.0923 45.4272 92.4415C44.9941 93.648 44.9941 93.648 44.5522 94.879C43.4272 97.4415 43.4272 97.4415 41.4272 98.4415C42.3022 92.6915 42.3022 92.6915 43.4272 90.4415C41.9422 89.9465 41.9422 89.9465 40.4272 89.4415C40.5421 87.8574 40.6696 86.2742 40.8022 84.6915C40.8719 83.8098 40.9415 82.928 41.0132 82.0196C41.4257 79.4508 42.1389 77.6831 43.4272 75.4415C40.2688 78.0207 39.4347 80.7968 38.2397 84.629C37.8956 85.7157 37.5514 86.8023 37.1968 87.9219C36.9428 88.7534 36.6889 89.5848 36.4272 90.4415C34.7772 90.1115 33.1272 89.7815 31.4272 89.4415C31.7572 86.8015 32.0872 84.1615 32.4272 81.4415C30.9422 81.9365 30.9422 81.9365 29.4272 82.4415C29.4482 81.8076 29.4691 81.1737 29.4907 80.5206C30.0191 63.5637 30.0191 63.5637 25.4272 47.4415C25.4272 46.7815 25.4272 46.1215 25.4272 45.4415C32.4958 47.1047 35.6903 54.2073 39.3022 59.9415C40.0143 61.1059 40.7241 62.2717 41.4272 63.4415C43.9209 60.9478 43.9875 59.3725 44.6772 55.9415C46.8655 46.8618 50.6531 40.0796 58.3022 34.5977C66.185 30.3086 78.7209 29.1914 87.0522 33.0665Z" fill="#4BABD8"/>
<path d="M30.4272 108.441C30.2622 109.266 30.0972 110.091 29.9272 110.941C28.9852 117.535 28.5206 122.703 32.4272 128.441C40.0577 137.009 51.8526 141.811 63.2144 142.646C66.3712 142.746 69.5189 142.763 72.6772 142.754C73.733 142.77 74.7887 142.786 75.8765 142.803C88.2059 142.81 102.074 140.164 111.478 131.566C116.063 126.314 116.565 123.048 116.49 116.316C116.485 115.562 116.481 114.808 116.476 114.031C116.464 112.168 116.446 110.305 116.427 108.441C122.13 107.931 126.2 109.702 131.302 111.941C132.478 112.442 132.478 112.442 133.677 112.953C135.598 113.773 137.513 114.606 139.427 115.441C139.427 121.156 134.207 125.434 130.427 129.441C122.657 136.993 114.399 142.253 104.427 146.441C103.239 146.949 102.05 147.457 100.826 147.98C84.3183 154.382 64.5661 153.586 48.4443 146.58C34.1356 140.179 19.0552 130.657 11.4272 116.441C11.4272 115.451 11.4272 114.461 11.4272 113.441C23.9124 107.701 23.9124 107.701 30.4272 108.441Z" fill="#2FAED4"/>
<path d="M88.8179 34.1757C93.6571 37.9813 97.2176 41.1241 98.4272 47.4413C98.0522 50.3163 98.0522 50.3163 97.4272 52.4413C96.5404 51.637 95.6535 50.8326 94.7397 50.0038C92.0444 47.7374 90.0066 46.7572 86.4272 46.4413C87.4172 47.7613 88.4072 49.0813 89.4272 50.4413C88.1147 51.9413 88.1147 51.9413 86.4272 53.4413C85.4372 53.4413 84.4472 53.4413 83.4272 53.4413C83.4272 54.1013 83.4272 54.7613 83.4272 55.4413C81.7772 56.7952 80.1098 58.1281 78.4272 59.4413C76.0281 64.2396 76.3397 70.54 76.1772 75.8163C76.1515 76.6284 76.1257 77.4405 76.0991 78.2773C76.5008 80.9264 77.3869 81.7768 79.4272 83.4413C78.4272 86.4413 78.4272 86.4413 76.6772 87.6913C73.8459 88.6351 72.2507 88.3329 69.4272 87.4413C68.7672 86.7813 68.1072 86.1213 67.4272 85.4413C67.7358 83.5702 67.7358 83.5702 68.4272 81.4413C70.4527 73.9752 71.48 66.397 69.853 58.7382C69.4272 56.4413 69.4272 56.4413 70.4272 54.4413C69.891 54.3382 69.3547 54.2351 68.8022 54.1288C66.4272 53.4413 66.4272 53.4413 63.5522 51.8788C60.1208 50.3004 58.1543 49.9552 54.4272 50.4413C53.0599 51.3943 51.7246 52.3951 50.4272 53.4413C47.6772 54.1288 47.6772 54.1288 45.4272 54.4413C47.9231 44.9833 51.9847 38.3942 60.4976 33.3515C68.2524 29.6938 81.5231 29.5923 88.8179 34.1757Z" fill="#47ABD6"/>
<path d="M89.4274 54.4414C92.3567 56.2545 94.8638 58.3143 96.4274 61.4414C96.805 66.4454 96.5394 69.4402 93.4274 73.4414C90.8927 76.0665 89.6091 76.4186 85.9274 76.8789C81.942 76.3807 80.8521 75.545 78.4274 72.4414C78.1769 75.3159 78.1769 75.3159 78.4274 78.4414C79.4068 79.4616 80.4063 80.4629 81.4274 81.4414C81.9274 83.8789 81.9274 83.8789 81.4274 86.4414C78.6872 89.5136 77.0153 90.3574 72.9274 90.9414C68.9278 90.37 67.291 89.2182 64.4274 86.4414C64.8971 84.2494 65.4069 82.4787 66.4899 80.5039C67.618 78.022 67.5771 76.1373 67.4274 73.4414C66.9117 73.9364 66.3961 74.4314 65.8649 74.9414C62.4897 77.0184 60.3294 76.9206 56.4274 76.4414C53.038 74.3046 51.7015 73.2639 50.4274 69.4414C49.9412 64.499 49.9346 62.3612 52.3024 57.9414C54.7941 55.3353 56.9377 54.948 60.4899 54.7539C64.2677 54.9731 65.1185 55.1551 67.9899 57.8164C70.4632 62.333 70.6107 65.7851 70.6149 70.8789C70.6271 71.6555 70.6394 72.4322 70.652 73.2324C70.6621 77.1537 70.6499 79.1075 68.4274 82.4414C68.7358 84.5941 68.7358 84.5941 69.4274 86.4414C72.3422 87.251 73.8885 87.6598 76.7399 86.5039C77.5752 85.9779 77.5752 85.9779 78.4274 85.4414C77.2073 82.7508 77.2073 82.7508 75.4274 80.4414C75.2025 77.1086 75.3284 73.7782 75.4274 70.4414C75.4441 69.6318 75.4609 68.8223 75.4781 67.9882C75.822 62.2116 77.2797 59.4879 81.4274 55.4414C84.3303 53.9899 86.2 54.069 89.4274 54.4414Z" fill="#172125"/>
<path d="M124.427 44.4414C125.087 44.4414 125.747 44.4414 126.427 44.4414C127.392 46.4591 128.349 48.4807 129.302 50.5039C130.103 52.1919 130.103 52.1919 130.92 53.9141C133.919 60.9301 134.816 67.0237 134.802 74.5664C134.801 75.4935 134.799 76.4206 134.797 77.3757C134.606 88.1362 131.601 97.0177 126.427 106.441C125.107 106.441 123.787 106.441 122.427 106.441C122.48 105.156 122.48 105.156 122.533 103.844C122.693 97.0947 122.288 92.6203 119.427 86.4414C118.796 82.7853 118.595 79.1446 118.427 75.4414C118.363 74.5017 118.298 73.562 118.232 72.5938C117.849 63.0977 119.776 52.8223 124.427 44.4414Z" fill="#6DC3DB"/>
<path d="M76.4272 17.4415C75.1889 21.1566 73.2062 22.7303 70.4272 25.4415C69.7672 26.4315 69.1072 27.4215 68.4272 28.4415C65.8179 29.6524 65.8179 29.6524 62.6772 30.8165C53.6974 34.4706 49.8089 38.5694 45.6851 47.2813C43.9687 51.5935 43.0167 55.8481 42.4272 60.4415C40.012 58.1978 38.3092 55.8491 36.5522 53.0665C34.7271 50.2442 32.9949 47.8689 30.4897 45.629C29.8091 44.9071 29.1285 44.1852 28.4272 43.4415C28.6129 38.0928 33.7937 34.5696 37.4038 31.129C46.831 22.5404 63.4933 13.914 76.4272 17.4415Z" fill="#6FC3DC"/>
<path d="M88.4272 19.4414C100.111 19.6751 110.202 26.5861 118.537 34.2305C120.52 36.5504 121.476 38.5587 122.427 41.4414C121.787 41.8191 121.146 42.1968 120.486 42.5859C113.368 47.1154 109.45 52.0753 105.427 59.4414C103.755 56.4148 102.964 53.624 102.24 50.2539C100.424 43.6348 97.7178 38.1413 91.7349 34.3765C87.7424 32.1477 83.6234 30.2514 79.4272 28.4414C80.4272 26.4414 80.4272 26.4414 83.3647 25.0664C86.4991 23.4033 87.3032 22.7012 88.4272 19.4414Z" fill="#70C2DB"/>
<path d="M72.4272 7.44139C78.943 6.89841 84.0108 7.55762 89.4272 11.4414C91.4272 14.4414 91.4272 14.4414 91.0522 17.1289C90.7429 18.2736 90.7429 18.2736 90.4272 19.4414C89.7672 19.4414 89.1072 19.4414 88.4272 19.4414C88.3447 20.0395 88.2622 20.6376 88.1772 21.2539C87.2055 24.0882 85.9442 24.8868 83.4272 26.4414C82.4372 26.7714 81.4472 27.1014 80.4272 27.4414C81.2961 27.8655 82.1649 28.2896 83.0601 28.7265C93.5567 34.0688 99.4248 39.1653 103.427 50.4414C104.205 53.1001 104.836 55.7322 105.427 58.4414C105.768 57.7891 106.108 57.1369 106.458 56.4648C109.842 50.3631 113.183 45.7743 119.427 42.4414C122.927 41.5664 122.927 41.5664 125.427 41.4414C125.245 42.024 125.064 42.6067 124.876 43.207C124.336 44.9688 123.81 46.7349 123.294 48.5039C122.75 50.3476 122.176 52.183 121.56 54.0039C118.434 64.2452 119.152 74.8503 119.427 85.4414C118.767 84.4514 118.107 83.4614 117.427 82.4414C114.952 83.4314 114.952 83.4314 112.427 84.4414C112.427 83.4514 112.427 82.4614 112.427 81.4414C113.747 81.4414 115.067 81.4414 116.427 81.4414C116.406 80.8378 116.385 80.2342 116.364 79.6123C115.696 57.4523 115.696 57.4523 120.427 47.4414C120.097 47.1114 119.767 46.7814 119.427 46.4414C114.125 50.0203 111.259 54.593 108.144 60.071C107.287 61.5567 106.362 63.0032 105.427 64.4414C104.767 64.4414 104.107 64.4414 103.427 64.4414C103.185 63.4514 102.943 62.4614 102.693 61.4414C99.8692 50.1808 97.4675 41.3593 87.4272 34.4414C82.8395 31.999 78.1995 32.009 73.1147 31.8164C72.2788 31.7777 71.4428 31.739 70.5815 31.6992C68.5305 31.6054 66.4789 31.5223 64.4272 31.4414C64.7572 30.4514 65.0872 29.4614 65.4272 28.4414C66.4172 28.1114 67.4072 27.7814 68.4272 27.4414C69.78 25.4545 71.1129 23.4539 72.4272 21.4414C73.4172 20.7814 74.4072 20.1214 75.4272 19.4414C76.1607 16.3758 76.1607 16.3758 76.4272 13.4414C74.7772 12.4514 73.1272 11.4614 71.4272 10.4414C71.7572 9.45139 72.0872 8.46139 72.4272 7.44139Z" fill="#0E1516"/>
<path d="M102.427 75.4414C104.362 76.2651 104.362 76.2651 106.427 77.4414C107.474 80.2617 107.474 80.2617 108.177 83.5664C108.42 84.6621 108.662 85.7578 108.912 86.8867C109.082 87.7298 109.252 88.5728 109.427 89.4414C110.747 89.4414 112.067 89.4414 113.427 89.4414C113.427 87.4614 113.427 85.4814 113.427 83.4414C114.747 83.1114 116.067 82.7814 117.427 82.4414C117.427 80.7914 117.427 79.1414 117.427 77.4414C117.757 77.4414 118.087 77.4414 118.427 77.4414C118.551 79.1739 118.551 79.1739 118.677 80.9414C119.062 84.2135 119.847 86.4715 121.49 89.3164C124.006 93.9204 123.984 98.3013 123.427 103.441C123.097 104.431 122.767 105.421 122.427 106.441C123.033 106.612 123.639 106.782 124.263 106.957C130.487 108.757 136.454 110.938 142.427 113.441C141.437 114.431 140.447 115.421 139.427 116.441C138.27 115.948 137.112 115.454 135.919 114.945C134.381 114.298 132.841 113.651 131.302 113.004C130.542 112.678 129.781 112.353 128.998 112.018C124.805 110.265 120.985 108.958 116.427 108.441C116.757 109.431 117.087 110.421 117.427 111.441C117.572 113.605 117.648 115.773 117.677 117.941C117.716 119.658 117.716 119.658 117.755 121.41C117.427 124.441 117.427 124.441 115.912 126.348C115.177 126.889 115.177 126.889 114.427 127.441C114.532 126.732 114.636 126.023 114.744 125.293C115.616 113.854 111.632 104.376 107.689 93.8086C105.461 87.7847 103.843 81.7012 102.427 75.4414Z" fill="#121516"/>
<path d="M89.4273 54.4413C92.3567 56.2544 94.8638 58.3143 96.4273 61.4413C96.805 66.4454 96.5393 69.4402 93.4273 73.4413C90.8927 76.0665 89.6091 76.4186 85.9273 76.8788C81.942 76.3807 80.8521 75.545 78.4273 72.4413C78.4273 74.7513 78.4273 77.0613 78.4273 79.4413C77.7673 79.4413 77.1073 79.4413 76.4273 79.4413C76.2916 76.5647 76.1929 73.6946 76.1148 70.8163C76.0729 70.0081 76.031 69.1998 75.9879 68.3671C75.9009 64.0873 76.0593 61.3125 78.8219 57.9179C82.4703 54.45 84.407 53.8621 89.4273 54.4413Z" fill="#0C0E0F"/>
<path d="M30.4272 108.441C30.2622 109.266 30.0972 110.091 29.9272 110.941C28.9701 117.642 28.6517 122.526 32.4272 128.441C34.3478 130.851 36.3486 133.168 38.4272 135.441C37.7672 135.441 37.1072 135.441 36.4272 135.441C36.0972 136.431 35.7672 137.421 35.4272 138.441C29.9981 136.914 26.4369 133.207 22.4272 129.441C21.4721 128.548 21.4721 128.548 20.4976 127.637C16.9075 124.17 13.8986 120.791 11.4272 116.441C11.4272 115.451 11.4272 114.461 11.4272 113.441C23.9124 107.701 23.9124 107.701 30.4272 108.441Z" fill="#3DADD9"/>
<path d="M22.427 50.4414C23.087 50.4414 23.747 50.4414 24.427 50.4414C29.8462 63.8685 30.0371 77.0199 24.5598 90.5898C23.7395 92.2539 23.7395 92.2539 22.427 94.4414C17.1227 88.896 17.0831 80.598 17.2356 73.3398C17.7681 65.2766 19.2795 57.8809 22.427 50.4414Z" fill="#6FC7DD"/>
<path d="M33.4271 99.4414C34.0871 99.4414 34.7471 99.4414 35.4271 99.4414C35.2943 100.033 35.1616 100.625 35.0248 101.234C34.6594 102.869 34.2976 104.505 33.9388 106.141C33.5818 107.746 33.201 109.346 32.8021 110.941C31.9065 116.912 31.4242 122.537 34.9193 127.816C43.0356 136.563 57.0536 140.116 68.5404 140.562C82.6023 140.824 98.0527 139.356 109.115 129.754C110.238 128.669 111.346 127.568 112.427 126.441C113.087 125.781 113.747 125.121 114.427 124.441C114.922 126.421 114.922 126.421 115.427 128.441C104.58 139.48 91.6784 143.605 76.4567 143.822C60.9457 143.796 46.0974 142.775 34.2943 131.383C30.1082 126.765 28.0819 123.497 28.1302 117.043C28.6973 112.074 29.8 103.069 33.4271 99.4414Z" fill="#0D1419"/>
<path d="M120.427 44.4414C121.658 48.1346 121.035 48.7618 119.552 52.2539C116.198 61.611 116.58 71.6034 116.427 81.4414C115.107 81.4414 113.787 81.4414 112.427 81.4414C112.757 84.0814 113.087 86.7214 113.427 89.4414C112.107 89.4414 110.787 89.4414 109.427 89.4414C109.173 88.61 108.919 87.7785 108.658 86.9219C108.314 85.8352 107.969 84.7485 107.615 83.6289C107.278 82.55 106.942 81.471 106.595 80.3594C105.5 77.6223 104.674 76.2765 102.427 74.4414C104.077 74.7714 105.727 75.1014 107.427 75.4414C107.51 74.4927 107.592 73.5439 107.677 72.5664C108.367 67.5516 110.431 63.0569 112.427 58.4414C111.107 58.7714 109.787 59.1014 108.427 59.4414C111.258 52.7191 114.688 48.8993 120.427 44.4414Z" fill="#41A0CF"/>
<path d="M59.4272 83.4414C58.4272 85.4414 58.4272 85.4414 56.1772 86.2226C53.4272 86.9414 53.4272 86.9414 50.6772 87.6601C48.2527 88.2086 48.2527 88.2086 47.4272 90.4414C48.1311 90.5638 48.8349 90.6863 49.5601 90.8125C52.5926 91.4777 55.3775 92.4657 58.3022 93.5039C69.4911 96.9515 79.6564 96.3066 90.6226 92.414C93.2229 91.5122 95.7199 90.9124 98.4272 90.4414C95.9773 96.455 90.9068 100.263 85.4272 103.441C80.0086 105.324 75.1562 105.807 69.4897 105.816C68.7298 105.841 67.9699 105.865 67.187 105.891C60.2576 105.926 55.0792 103.828 49.9272 99.1914C49.4322 98.6139 48.9372 98.0364 48.4272 97.4414C48.7572 96.7814 49.0872 96.1214 49.4272 95.4414C50.1027 95.8629 50.7782 96.2844 51.4741 96.7187C52.3662 97.2666 53.2582 97.8144 54.1772 98.3789C55.4998 99.1968 55.4998 99.1968 56.8491 100.031C63.1811 103.495 70.3874 103.126 77.4272 102.441C81.6297 101.132 85.5138 99.4483 89.4272 97.4414C88.2877 97.5999 87.1482 97.7585 85.9741 97.9218C73.8307 99.4251 62.8416 99.1801 51.4272 94.4414C49.4315 93.7621 47.4325 93.0922 45.4272 92.4414C45.1385 93.2458 44.8497 94.0501 44.5522 94.8789C43.4272 97.4414 43.4272 97.4414 41.4272 98.4414C42.0528 93.0616 43.2825 89.3181 47.4272 85.6914C51.4113 83.2014 54.8415 83.3549 59.4272 83.4414Z" fill="#0D0E0F"/>
<path d="M25.4272 45.4414C31.0599 46.7667 33.4566 50.8318 36.4272 55.4414C37.4832 57.4125 38.5096 59.4023 39.4272 61.4414C38.7672 61.4414 38.1072 61.4414 37.4272 61.4414C37.0972 60.7814 36.7672 60.1214 36.4272 59.4414C36.5716 60.5964 36.716 61.7514 36.8647 62.9414C37.3856 67.1081 37.9064 71.2747 38.4272 75.4414C39.0872 75.4414 39.7472 75.4414 40.4272 75.4414C38.5001 85.9995 38.5001 85.9995 36.4272 90.4414C34.7772 90.1114 33.1272 89.7814 31.4272 89.4414C31.7572 86.8014 32.0872 84.1614 32.4272 81.4414C30.9422 81.9364 30.9422 81.9364 29.4272 82.4414C29.4482 81.8075 29.4691 81.1736 29.4907 80.5205C30.0191 63.5636 30.0191 63.5636 25.4272 47.4414C25.4272 46.7814 25.4272 46.1214 25.4272 45.4414Z" fill="#45A5D5"/>
<path d="M56.4272 82.4414C57.5719 82.6889 57.5719 82.6889 58.7397 82.9414C61.4632 83.5329 61.4632 83.5329 64.4272 83.4414C64.6954 84.0602 64.9635 84.6789 65.2397 85.3164C66.3828 87.7409 66.3828 87.7409 69.4272 89.4414C71.4843 89.682 71.4843 89.682 73.6147 89.5664C74.8729 89.5252 76.131 89.4839 77.4272 89.4414C77.9897 91.3789 77.9897 91.3789 78.4272 93.4414C78.0972 93.7714 77.7672 94.1014 77.4272 94.4414C78.4172 95.1014 79.4072 95.7614 80.4272 96.4414C68.2162 97.414 58.7638 94.8046 47.4272 90.4414C47.7572 89.4514 48.0872 88.4614 48.4272 87.4414C50.7124 86.4922 50.7124 86.4922 53.4897 85.7539C54.4088 85.5025 55.3279 85.2512 56.2749 84.9922C56.9852 84.8104 57.6954 84.6287 58.4272 84.4414C57.7672 83.7814 57.1072 83.1214 56.4272 82.4414Z" fill="#44A3CC"/>
<path d="M41.427 75.4414C42.087 75.4414 42.747 75.4414 43.427 75.4414C41.4187 83.8856 39.0553 92.1697 36.427 100.441C35.437 100.441 34.447 100.441 33.427 100.441C32.437 102.916 32.437 102.916 31.427 105.441C29.052 105.629 29.052 105.629 26.427 105.441C23.9375 101.707 23.7829 98.7663 24.427 94.4414C27.1106 87.0996 27.1106 87.0996 30.427 85.4414C30.427 86.7614 30.427 88.0814 30.427 89.4414C33.397 89.9364 33.397 89.9364 36.427 90.4414C36.6204 89.61 36.8137 88.7785 37.0129 87.9219C37.2733 86.8352 37.5337 85.7485 37.802 84.6289C38.1849 83.0105 38.1849 83.0105 38.5754 81.3594C39.427 78.4414 39.427 78.4414 41.427 75.4414Z" fill="#171B18"/>
<path d="M38.4272 134.441C39.0357 134.756 39.6441 135.07 40.271 135.395C48.4128 139.37 56.6393 141.468 65.4272 143.441C64.7672 144.06 64.1072 144.679 63.4272 145.316C61.1988 147.198 61.1988 147.198 61.4272 149.441C52.0153 149.441 44.4419 144.972 36.4272 140.441C35.7672 139.781 35.1072 139.121 34.4272 138.441C35.7472 137.121 37.0672 135.801 38.4272 134.441Z" fill="#22B0D4"/>
<path d="M49.4272 93.4414C50.1027 93.6464 50.7782 93.8513 51.4741 94.0625C52.3662 94.3319 53.2582 94.6013 54.1772 94.8789C55.059 95.1457 55.9407 95.4126 56.8491 95.6875C60.4635 96.7444 63.6571 97.5679 67.439 97.5742C68.5704 97.5771 68.5704 97.5771 69.7246 97.5801C70.5134 97.5756 71.3021 97.5711 72.1147 97.5664C73.3211 97.5635 73.3211 97.5635 74.5518 97.5605C79.9096 97.5215 85.1208 97.2275 90.4272 96.4414C86.071 101.268 80.3621 103.103 74.0093 103.836C64.9077 104.104 56.4072 102.711 49.4272 96.4414C49.4272 95.4514 49.4272 94.4614 49.4272 93.4414Z" fill="#E9EDED"/>
<path d="M87.4273 57.4414C92.3023 59.1914 92.3023 59.1914 93.4273 61.4414C93.8406 64.5001 93.9037 67.3882 93.4273 70.4414C91.3023 73.0664 91.3023 73.0664 88.4273 74.4414C84.4699 74.5222 82.9684 73.9398 80.0523 71.2539C78.1245 67.9173 77.7821 66.2322 78.4273 62.4414C80.4273 60.0664 80.4273 60.0664 82.4273 58.4414C82.4273 60.4214 82.4273 62.4014 82.4273 64.4414C84.0773 64.4414 85.7273 64.4414 87.4273 64.4414C87.4273 62.1314 87.4273 59.8214 87.4273 57.4414Z" fill="#E7E8EA"/>
<path d="M56.427 57.4414C57.417 57.7714 58.407 58.1014 59.427 58.4414C59.097 58.7714 58.767 59.1014 58.427 59.4414C58.3864 61.1076 58.3843 62.7753 58.427 64.4414C60.407 64.4414 62.387 64.4414 64.427 64.4414C65.087 63.1214 65.747 61.8014 66.427 60.4414C68.0335 63.6544 68.0383 66.9661 67.427 70.4414C65.0376 73.1722 63.4537 74.2104 59.927 75.0039C56.1511 74.1543 54.7138 72.5122 52.427 69.4414C51.7204 65.0446 51.9077 63.2041 54.427 59.5039C55.087 58.8233 55.747 58.1427 56.427 57.4414Z" fill="#ECECED"/>
<path d="M25.4272 45.4414C31.0599 46.7667 33.4566 50.8318 36.4272 55.4414C37.4832 57.4125 38.5096 59.4023 39.4272 61.4414C38.7672 61.4414 38.1072 61.4414 37.4272 61.4414C37.0972 60.7814 36.7672 60.1214 36.4272 59.4414C36.7572 64.0614 37.0872 68.6814 37.4272 73.4414C36.7672 73.4414 36.1072 73.4414 35.4272 73.4414C34.7672 70.1414 34.1072 66.8414 33.4272 63.4414C32.7672 63.4414 32.1072 63.4414 31.4272 63.4414C31.4272 66.7414 31.4272 70.0414 31.4272 73.4414C31.0972 73.4414 30.7672 73.4414 30.4272 73.4414C30.3886 72.1343 30.3886 72.1343 30.3491 70.8008C29.9902 63.2636 28.9232 56.8398 26.2671 49.7695C25.4272 47.4414 25.4272 47.4414 25.4272 45.4414Z" fill="#3E9ECB"/>
<path d="M59.4272 83.4414C58.4272 85.4414 58.4272 85.4414 56.1772 86.2226C53.4272 86.9414 53.4272 86.9414 50.6772 87.6601C48.2527 88.2086 48.2527 88.2086 47.4272 90.4414C48.4907 90.627 48.4907 90.627 49.5757 90.8164C52.5253 91.4629 55.2114 92.422 58.0522 93.4414C66.6898 96.1847 75.4257 96.2513 84.4272 96.4414C80.6053 98.9893 77.4262 98.8246 72.9897 98.8164C72.1844 98.8162 71.3791 98.8161 70.5493 98.8159C63.6069 98.6842 57.8324 97.1005 51.4272 94.4414C49.4315 93.7621 47.4325 93.0922 45.4272 92.4414C45.1385 93.2458 44.8497 94.0501 44.5522 94.8789C43.4272 97.4414 43.4272 97.4414 41.4272 98.4414C42.0528 93.0616 43.2825 89.3181 47.4272 85.6914C51.4113 83.2014 54.8415 83.3549 59.4272 83.4414Z" fill="#131615"/>
<path d="M92.4273 40.4414C95.8972 43.0061 97.208 44.5475 98.2398 48.7539C98.3017 49.6408 98.3635 50.5276 98.4273 51.4414C97.4373 51.4414 96.4473 51.4414 95.4273 51.4414C94.8085 50.7814 94.1898 50.1214 93.5523 49.4414C91.6061 47.2947 91.6061 47.2947 89.1148 46.8164C85.5024 47.6565 83.6192 49.599 80.9781 52.1289C79.4273 53.4414 79.4273 53.4414 77.4273 53.4414C76.8605 49.5873 77.3908 48.4917 79.7398 45.2539C83.9527 40.845 86.347 39.7076 92.4273 40.4414Z" fill="#14181A"/>
<path d="M120.427 44.4414C121.688 48.2249 120.941 49.7056 119.677 53.4414C119.332 54.4933 118.986 55.5452 118.63 56.6289C117.427 59.4414 117.427 59.4414 115.892 60.9609C113.788 63.088 113.45 65.2538 112.74 68.1289C112.488 69.1228 112.237 70.1166 111.978 71.1406C111.796 71.8999 111.615 72.6591 111.427 73.4414C110.437 73.4414 109.447 73.4414 108.427 73.4414C108.924 67.7804 109.972 63.5647 112.427 58.4414C111.107 58.7714 109.787 59.1014 108.427 59.4414C111.258 52.7191 114.688 48.8993 120.427 44.4414Z" fill="#44A0CC"/>
<path d="M61.4272 44.4414C64.617 46.1812 66.8742 47.8884 69.4272 50.4414C69.4272 51.4314 69.4272 52.4214 69.4272 53.4414C66.8789 53.0167 64.7675 52.628 62.4897 51.3789C59.6236 50.0761 57.5467 50.1231 54.4272 50.4414C51.6094 51.8303 51.6094 51.8303 49.4272 53.4414C48.6772 51.1914 48.6772 51.1914 48.4272 48.4414C51.4295 43.3922 56.1291 43.5048 61.4272 44.4414Z" fill="#0E1114"/>
<path d="M26.4272 78.4414C26.7572 78.4414 27.0872 78.4414 27.4272 78.4414C27.4272 80.4214 27.4272 82.4014 27.4272 84.4414C28.4172 84.7714 29.4072 85.1014 30.4272 85.4414C29.7879 86.3695 29.1485 87.2977 28.4897 88.2539C25.2359 93.2826 25.2431 96.6397 25.4272 102.441C25.7572 103.101 26.0872 103.761 26.4272 104.441C28.9546 105.097 28.9546 105.097 31.4272 105.441C31.0972 106.431 30.7672 107.421 30.4272 108.441C29.775 108.563 29.1227 108.684 28.4507 108.809C23.6408 109.731 19.037 110.743 14.4272 112.441C13.9322 110.956 13.9322 110.956 13.4272 109.441C16.7272 108.451 20.0272 107.461 23.4272 106.441C23.0972 105.451 22.7672 104.461 22.4272 103.441C21.8335 96.9098 22.6547 92.43 25.4272 86.4414C25.9386 83.7661 26.1887 81.1604 26.4272 78.4414Z" fill="#0D1F28"/>
<path d="M115.427 85.4414C118.89 88.9041 120.352 91.7027 121.427 96.4414C121.427 99.2919 121.021 101.623 120.427 104.441C119.427 105.441 119.427 105.441 116.865 105.504C116.061 105.483 115.256 105.463 114.427 105.441C113.895 104.175 113.377 102.903 112.865 101.629C112.575 100.921 112.285 100.214 111.986 99.4844C111.427 97.4414 111.427 97.4414 112.427 94.4414C113.417 94.4414 114.407 94.4414 115.427 94.4414C115.427 91.4714 115.427 88.5014 115.427 85.4414Z" fill="#E6BE33"/>
<path d="M71.4272 119.441C75.4817 119.01 76.977 119.141 80.4272 121.441C80.7397 124.441 80.7397 124.441 80.4272 127.441C78.4272 129.441 78.4272 129.441 74.8022 129.566C73.6885 129.525 72.5747 129.484 71.4272 129.441C72.0872 131.091 72.7472 132.741 73.4272 134.441C76.3972 134.441 79.3672 134.441 82.4272 134.441C82.0972 135.431 81.7672 136.421 81.4272 137.441C75.4019 139.008 75.4019 139.008 72.6265 137.395C71.1615 136.15 69.7866 134.801 68.4272 133.441C68.7397 131.066 68.7397 131.066 69.4272 128.441C72.8625 126.151 74.4126 126.263 78.4272 126.441C78.4272 125.121 78.4272 123.801 78.4272 122.441C75.4572 122.441 72.4872 122.441 69.4272 122.441C70.0872 121.451 70.7472 120.461 71.4272 119.441Z" fill="#142730"/>
<path d="M29.4273 85.4414C29.4273 88.7747 29.4273 92.1081 29.4273 95.4414C31.0773 95.4414 32.7273 95.4414 34.4273 95.4414C33.4373 98.7414 32.4473 102.041 31.4273 105.441C29.7773 105.441 28.1273 105.441 26.4273 105.441C23.9401 101.711 23.7759 98.7634 24.4273 94.4414C25.6317 91.2806 27.0025 87.8662 29.4273 85.4414Z" fill="#F0CE35"/>
<path d="M83.4272 54.4415C86.3464 54.0939 88.5592 53.9087 91.1265 55.4844C93.3106 57.2878 95.1493 58.8856 96.4272 61.4415C96.8049 66.4455 96.5393 69.4403 93.4272 73.4415C90.8411 76.12 89.6458 76.4223 85.8647 76.754C82.4272 76.4415 82.4272 76.4415 79.4272 74.4415C79.4272 73.4515 79.4272 72.4615 79.4272 71.4415C80.4791 71.9674 80.4791 71.9674 81.5522 72.504C84.9777 73.621 86.9733 73.3625 90.4272 72.4415C92.8421 70.0266 92.7234 69.3144 92.7397 66.004C92.7565 65.2215 92.7733 64.439 92.7905 63.6329C92.3508 60.9802 91.471 60.1185 89.4272 58.4415C88.4372 59.1015 87.4472 59.7615 86.4272 60.4415C86.4272 59.1215 86.4272 57.8015 86.4272 56.4415C85.4372 55.7815 84.4472 55.1215 83.4272 54.4415Z" fill="#0B0E0F"/>
<path d="M71.4272 74.4414C71.7572 75.1014 72.0872 75.7614 72.4272 76.4414C73.0872 76.4414 73.7472 76.4414 74.4272 76.4414C77.2667 80.1159 78.4272 81.7103 78.4272 86.4414C75.9633 87.9928 74.7464 88.4718 71.8022 88.1914C69.4272 87.4414 69.4272 87.4414 67.4272 85.4414C67.8538 81.6027 69.8806 77.9382 71.4272 74.4414Z" fill="#53B1DA"/>
<path d="M112.427 75.4414C112.757 76.7614 113.087 78.0814 113.427 79.4414C114.087 79.4414 114.747 79.4414 115.427 79.4414C115.427 80.1014 115.427 80.7614 115.427 81.4414C114.437 81.4414 113.447 81.4414 112.427 81.4414C112.757 84.0814 113.087 86.7214 113.427 89.4414C112.107 89.4414 110.787 89.4414 109.427 89.4414C108.922 88.0059 108.423 86.5679 107.927 85.1289C107.649 84.3284 107.37 83.5279 107.083 82.7031C106.427 80.4414 106.427 80.4414 106.427 77.4414C108.407 76.7814 110.387 76.1214 112.427 75.4414Z" fill="#3BA1D4"/>
<path d="M121.427 104.441C121.757 105.101 122.087 105.761 122.427 106.441C124.434 107.213 124.434 107.213 126.865 107.816C132.221 109.323 137.3 111.292 142.427 113.441C141.437 114.431 140.447 115.421 139.427 116.441C138.27 115.948 137.112 115.454 135.919 114.945C134.381 114.298 132.841 113.651 131.302 113.004C130.542 112.678 129.781 112.353 128.998 112.018C124.805 110.265 120.985 108.958 116.427 108.441C116.097 109.101 115.767 109.761 115.427 110.441C115.427 109.451 115.427 108.461 115.427 107.441C116.232 107.318 117.036 107.194 117.865 107.066C118.71 106.86 119.556 106.654 120.427 106.441C120.757 105.781 121.087 105.121 121.427 104.441Z" fill="#0E1A1E"/>
<path d="M98.4272 90.4414C96.4188 95.3712 92.7862 98.5354 88.4272 101.441C87.4372 100.781 86.4472 100.121 85.4272 99.4414C86.7472 98.7814 88.0672 98.1214 89.4272 97.4414C86.4572 97.1114 83.4872 96.7814 80.4272 96.4414C83.614 94.848 86.6577 93.5404 89.9897 92.3164C90.9398 91.9632 91.8898 91.61 92.8687 91.2461C95.4272 90.4414 95.4272 90.4414 98.4272 90.4414Z" fill="#21323A"/>
<path d="M59.4272 83.4414C58.4272 85.4414 58.4272 85.4414 56.1772 86.2226C53.4272 86.9414 53.4272 86.9414 50.6772 87.6601C48.2527 88.2086 48.2527 88.2086 47.4272 90.4414C48.4172 90.7714 49.4072 91.1014 50.4272 91.4414C49.2516 91.5342 49.2516 91.5342 48.0522 91.6289C47.186 91.897 46.3197 92.1651 45.4272 92.4414C44.1943 94.8984 44.1943 94.8984 43.4272 97.4414C42.4372 97.9364 42.4372 97.9364 41.4272 98.4414C42.0528 93.0616 43.2825 89.3181 47.4272 85.6914C51.4113 83.2014 54.8415 83.3549 59.4272 83.4414Z" fill="#121C1F"/>
<path d="M38.4272 134.441C41.0288 135.438 41.0288 135.438 44.0522 136.879C45.0551 137.352 46.058 137.825 47.0913 138.312C47.8622 138.685 48.633 139.058 49.4272 139.441C49.4272 139.771 49.4272 140.101 49.4272 140.441C47.7772 140.771 46.1272 141.101 44.4272 141.441C44.0972 142.431 43.7672 143.421 43.4272 144.441C40.4572 142.791 37.4872 141.141 34.4272 139.441C36.4272 135.441 36.4272 135.441 38.4272 134.441Z" fill="#21A9CE"/>
<path d="M112.427 104.441C115.067 105.101 117.707 105.761 120.427 106.441C120.427 106.771 120.427 107.101 120.427 107.441C118.777 107.441 117.127 107.441 115.427 107.441C115.751 107.966 116.074 108.491 116.408 109.031C117.717 112.126 117.728 114.651 117.74 118.004C117.757 119.14 117.773 120.275 117.791 121.445C117.427 124.441 117.427 124.441 115.908 126.344C115.419 126.706 114.931 127.068 114.427 127.441C114.45 126.535 114.474 125.629 114.498 124.695C114.603 117.579 114.321 111.307 112.427 104.441Z" fill="#0B1012"/>
<path d="M125.427 41.4414C125.005 43.0912 124.564 44.7362 124.115 46.3789C123.871 47.2954 123.627 48.212 123.376 49.1562C123.063 49.9104 122.75 50.6645 122.427 51.4414C121.437 51.7714 120.447 52.1014 119.427 52.4414C119.757 50.1314 120.087 47.8214 120.427 45.4414C117.787 47.4214 115.147 49.4014 112.427 51.4414C115.43 45.4364 118.515 41.4414 125.427 41.4414Z" fill="#0A1011"/>
<path d="M87.4272 82.4414C92.393 83.0874 96.3591 83.6784 100.49 86.6289C102.784 89.9596 103.192 92.44 103.427 96.4414C102.767 96.4414 102.107 96.4414 101.427 96.4414C101.303 95.1833 101.18 93.9252 101.052 92.6289C100.626 90.3818 100.626 90.3818 99.4272 88.4414C96.2141 86.8074 92.9397 86.1593 89.4272 85.4414C88.7672 85.1114 88.1072 84.7814 87.4272 84.4414C87.4272 83.7814 87.4272 83.1214 87.4272 82.4414Z" fill="#14262D"/>
<path d="M102.427 75.4414C104.33 76.0625 104.33 76.0625 106.427 77.4414C107.369 80.2266 107.369 80.2266 107.99 83.5039C108.543 86.7097 108.543 86.7097 109.427 89.4414C110.417 89.7714 111.407 90.1014 112.427 90.4414C111.437 90.9364 111.437 90.9364 110.427 91.4414C109.294 93.4581 109.294 93.4581 108.427 95.4414C107.422 92.4847 106.424 89.5258 105.427 86.5664C105.141 85.7246 104.855 84.8829 104.56 84.0156C104.289 83.21 104.019 82.4043 103.74 81.5742C103.488 80.8306 103.237 80.087 102.978 79.3208C102.427 77.4414 102.427 77.4414 102.427 75.4414Z" fill="#0F1F25"/>
<path d="M33.4274 99.4414C34.0874 99.4414 34.7474 99.4414 35.4274 99.4414C33.8091 106.786 32.126 114.115 30.4274 121.441C30.0974 121.441 29.7674 121.441 29.4274 121.441C28.914 113.141 29.7202 106.922 33.4274 99.4414Z" fill="#0E0E0E"/>
<path d="M96.4272 43.4414C100.237 46.2122 100.496 50.0701 101.427 54.4414C99.1772 54.7539 99.1772 54.7539 96.4272 54.4414C95.0939 52.7747 93.7606 51.1081 92.4272 49.4414C89.758 49.0227 89.758 49.0227 87.4272 49.4414C87.0972 48.4514 86.7672 47.4614 86.4272 46.4414C92.8272 46.9337 92.8272 46.9337 95.8647 49.5039C96.6382 50.463 96.6382 50.463 97.4272 51.4414C97.0972 48.8014 96.7672 46.1614 96.4272 43.4414Z" fill="#4DA4CF"/>
<path d="M60.9272 58.3164C63.4272 58.4414 63.4272 58.4414 64.4272 59.4414C64.4681 61.441 64.4698 63.4419 64.4272 65.4414C62.4277 65.4839 60.4268 65.4822 58.4272 65.4414C57.4272 64.4414 57.4272 64.4414 57.3022 61.9414C57.4706 58.5737 57.5595 58.4848 60.9272 58.3164Z" fill="#111010"/>
<path d="M31.4272 129.441C34.7945 130.835 36.4132 132.42 38.4272 135.441C37.7672 135.441 37.1072 135.441 36.4272 135.441C36.0972 136.431 35.7672 137.421 35.4272 138.441C30.8342 136.955 27.9916 134.591 24.4272 131.441C28.003 131.441 29.4802 132.53 32.4272 134.441C32.0972 132.791 31.7672 131.141 31.4272 129.441Z" fill="#2AB0D9"/>
<path d="M113.427 57.4414C114.087 57.4414 114.747 57.4414 115.427 57.4414C114.738 61.1008 113.859 64.6658 112.865 68.2539C112.595 69.2297 112.326 70.2055 112.048 71.2109C111.741 72.315 111.741 72.315 111.427 73.4414C110.437 73.4414 109.447 73.4414 108.427 73.4414C108.871 67.2315 110.343 62.836 113.427 57.4414Z" fill="#0F262D"/>
<path d="M67.4272 57.4414C70.1065 61.4603 69.5833 63.683 69.4272 68.4414C68.4272 66.4414 67.4272 64.4414 66.4272 62.4414C65.7672 63.1014 65.1072 63.7614 64.4272 64.4414C64.3344 63.2658 64.3344 63.2658 64.2397 62.0664C63.9716 61.2002 63.7035 60.3339 63.4272 59.4414C60.9509 58.0668 60.9509 58.0668 58.4272 57.4414C58.4272 57.1114 58.4272 56.7814 58.4272 56.4414C62.1767 55.3999 64.1667 55.1928 67.4272 57.4414Z" fill="#222729"/>
<path d="M26.4272 78.4414C26.7572 78.4414 27.0872 78.4414 27.4272 78.4414C27.4272 80.4214 27.4272 82.4014 27.4272 84.4414C28.4172 84.7714 29.4072 85.1014 30.4272 85.4414C29.8291 86.2045 29.231 86.9677 28.6147 87.7539C25.6164 92.1819 24.6349 97.2994 23.4272 102.441C23.0972 102.441 22.7672 102.441 22.4272 102.441C22.0451 96.2012 22.8051 92.2099 25.4272 86.4414C25.9377 83.7659 26.1887 81.1604 26.4272 78.4414Z" fill="#1B2427"/>
<path d="M75.4272 70.4414C75.7572 70.4414 76.0872 70.4414 76.4272 70.4414C76.4272 73.4114 76.4272 76.3814 76.4272 79.4414C77.7472 79.7714 79.0672 80.1014 80.4272 80.4414C81.4272 81.4414 81.4272 81.4414 81.8022 83.7539C81.4272 86.4414 81.4272 86.4414 78.9272 88.7539C78.1022 89.3108 77.2772 89.8677 76.4272 90.4414C75.7672 89.4514 75.1072 88.4614 74.4272 87.4414C75.7472 86.7814 77.0672 86.1214 78.4272 85.4414C77.2072 82.7509 77.2072 82.7509 75.4272 80.4414C75.3552 78.7553 75.3434 77.0664 75.3647 75.3789C75.3738 74.4598 75.3828 73.5407 75.3921 72.5938C75.4037 71.8835 75.4153 71.1732 75.4272 70.4414Z" fill="#14262C"/>
<path d="M83.4272 54.4414C87.5549 53.95 89.1802 54.283 92.7397 56.5664C95.6648 59.6956 96.2317 61.2367 96.4272 65.4414C95.4372 66.1014 94.4472 66.7614 93.4272 67.4414C92.7672 64.8014 92.1072 62.1614 91.4272 59.4414C88.5018 59.2178 88.5018 59.2178 86.4272 60.4414C86.4272 59.1214 86.4272 57.8014 86.4272 56.4414C85.4372 55.7814 84.4472 55.1214 83.4272 54.4414Z" fill="#1A262A"/>
<path d="M59.74 55.0664C60.9568 55.1902 62.1737 55.3139 63.4275 55.4414C63.4275 55.7714 63.4275 56.1014 63.4275 56.4414C61.7878 56.8127 61.7878 56.8127 60.115 57.1914C56.5255 58.1597 56.5255 58.1597 54.49 60.0664C52.906 63.607 53.2345 66.5826 53.4275 70.4414C52.4375 70.9364 52.4375 70.9364 51.4275 71.4414C49.8062 68.1988 49.8693 64.9458 50.4275 61.4414C52.3712 57.1178 54.9774 55.0833 59.74 55.0664Z" fill="#0A0D0F"/>
<path d="M60.4272 49.4414C60.7572 50.1014 61.0872 50.7614 61.4272 51.4414C60.4372 51.4414 59.4472 51.4414 58.4272 51.4414C58.4272 52.1014 58.4272 52.7614 58.4272 53.4414C60.0772 53.7714 61.7272 54.1014 63.4272 54.4414C63.4272 54.7714 63.4272 55.1014 63.4272 55.4414C62.1485 55.5858 60.8697 55.7302 59.5522 55.8789C57.1703 56.1479 55.5827 56.3637 53.4272 57.4414C53.4479 56.6577 53.4685 55.8739 53.4897 55.0664C53.6141 52.4603 53.6141 52.4603 52.4272 50.4414C55.136 49.087 57.4366 49.3764 60.4272 49.4414Z" fill="#3F9AC6"/>
<path d="M115.427 58.4414C115.757 58.4414 116.087 58.4414 116.427 58.4414C116.097 63.7214 115.767 69.0014 115.427 74.4414C114.437 74.4414 113.447 74.4414 112.427 74.4414C112.047 68.2425 112.592 63.9937 115.427 58.4414Z" fill="#52B5E7"/>
<path d="M30.4272 56.4414C33.4272 57.4414 33.4272 57.4414 34.5952 59.5156C36.4587 64.2922 37.9773 68.2159 37.4272 73.4414C36.7672 73.4414 36.1072 73.4414 35.4272 73.4414C35.1591 72.4927 34.891 71.5439 34.6147 70.5664C33.2668 65.8438 31.8463 61.1431 30.4272 56.4414Z" fill="#16262D"/>
<path d="M83.4272 139.441C79.7231 141.817 76.4974 141.646 72.1772 141.566C70.914 141.548 69.6507 141.53 68.3491 141.512C67.3849 141.489 66.4207 141.465 65.4272 141.441C65.0972 140.781 64.7672 140.121 64.4272 139.441C71.0057 138.486 76.8454 138.548 83.4272 139.441Z" fill="#3DA3CE"/>
<path d="M48.4272 95.4414C49.1749 95.8629 49.9226 96.2845 50.6929 96.7188C51.6777 97.2666 52.6626 97.8145 53.6772 98.3789C54.6518 98.9242 55.6263 99.4695 56.6304 100.031C58.9634 101.208 60.8808 101.962 63.4272 102.441C63.4272 103.431 63.4272 104.421 63.4272 105.441C57.9806 104.781 53.677 102.328 49.4897 98.8164C48.4272 97.4414 48.4272 97.4414 48.4272 95.4414Z" fill="#182125"/>
<path d="M35.427 58.4414C38.1481 60.7914 39.394 62.9982 40.427 66.4414C40.097 67.4314 39.767 68.4214 39.427 69.4414C39.7027 71.4502 40.0294 73.4532 40.427 75.4414C39.767 75.7714 39.107 76.1014 38.427 76.4414C37.767 75.7814 37.107 75.1214 36.427 74.4414C37.087 74.4414 37.747 74.4414 38.427 74.4414C38.2105 73.7054 37.9939 72.9693 37.7708 72.2109C37.4923 71.2351 37.2139 70.2593 36.927 69.2539C36.5094 67.8095 36.5094 67.8095 36.0833 66.3359C35.4602 63.5879 35.304 61.2454 35.427 58.4414Z" fill="#52B4E2"/>
<path d="M83.4272 58.4414C86.0522 58.8164 86.0522 58.8164 88.4272 59.4414C88.47 61.1075 88.4679 62.7752 88.4272 64.4414C87.4272 65.4414 87.4272 65.4414 84.8647 65.5039C83.6582 65.473 83.6582 65.473 82.4272 65.4414C81.8022 63.0664 81.8022 63.0664 81.4272 60.4414C82.0872 59.7814 82.7472 59.1214 83.4272 58.4414Z" fill="#080807"/>
<path d="M117.427 68.4414C117.757 68.4414 118.087 68.4414 118.427 68.4414C119.42 74.1483 119.532 79.6555 119.427 85.4414C118.767 84.4514 118.107 83.4614 117.427 82.4414C115.777 83.1014 114.127 83.7614 112.427 84.4414C112.427 83.4514 112.427 82.4614 112.427 81.4414C113.747 81.4414 115.067 81.4414 116.427 81.4414C116.416 80.7543 116.404 80.0673 116.392 79.3594C116.383 78.4583 116.374 77.5573 116.365 76.6289C116.353 75.7356 116.342 74.8423 116.33 73.9219C116.427 71.4414 116.427 71.4414 117.427 68.4414Z" fill="#152126"/>
<path d="M85.4272 30.4414C90.601 32.6892 94.2042 34.6069 97.4272 39.4414C92.3172 39.4414 91.1476 37.766 87.4272 34.4414C86.4372 33.7814 85.4472 33.1214 84.4272 32.4414C84.7572 31.7814 85.0872 31.1214 85.4272 30.4414Z" fill="#121F25"/>
<path d="M39.4272 87.4414C40.7472 88.4314 42.0672 89.4214 43.4272 90.4414C42.7672 93.0814 42.1072 95.7214 41.4272 98.4414C40.1072 97.7814 38.7872 97.1214 37.4272 96.4414C38.0872 93.4714 38.7472 90.5014 39.4272 87.4414Z" fill="#3F9DCA"/>
<path d="M28.4271 114.441C29.4171 114.771 30.4071 115.101 31.4271 115.441C31.5598 116.14 31.6926 116.839 31.8294 117.559C32.006 118.469 32.1826 119.379 32.3646 120.316C32.6256 121.674 32.6256 121.674 32.8919 123.059C33.3267 125.441 33.3267 125.441 34.4271 127.441C33.4371 127.771 32.4471 128.101 31.4271 128.441C28.4215 123.432 28.1336 120.114 28.4271 114.441Z" fill="#142127"/>
<path d="M82.4272 44.4414C83.0872 44.7714 83.7472 45.1014 84.4272 45.4414C83.8864 49.2275 82.31 50.9954 79.4272 53.4414C78.7672 53.4414 78.1072 53.4414 77.4272 53.4414C77.1147 51.1914 77.1147 51.1914 77.4272 48.4414C79.9272 46.1289 79.9272 46.1289 82.4272 44.4414Z" fill="#0C0C0E"/>
<path d="M27.4272 78.4414C27.7572 79.7614 28.0872 81.0814 28.4272 82.4414C30.0772 81.7814 31.7272 81.1214 33.4272 80.4414C32.7672 83.4114 32.1072 86.3814 31.4272 89.4414C32.0872 89.7714 32.7472 90.1014 33.4272 90.4414C32.1072 90.1114 30.7872 89.7814 29.4272 89.4414C29.7572 87.7914 30.0872 86.1414 30.4272 84.4414C29.4372 84.4414 28.4472 84.4414 27.4272 84.4414C27.4272 82.4614 27.4272 80.4814 27.4272 78.4414Z" fill="#080809"/>
<path d="M102.427 48.4414C103.087 48.4414 103.747 48.4414 104.427 48.4414C105.81 50.0677 107.147 51.7339 108.427 53.4414C107.437 55.4214 106.447 57.4014 105.427 59.4414C103.307 55.9073 102.895 52.4975 102.427 48.4414Z" fill="#6BBAD6"/>
<path d="M113.427 124.441C114.087 125.761 114.747 127.081 115.427 128.441C113.117 130.421 110.807 132.401 108.427 134.441C107.437 133.781 106.447 133.121 105.427 132.441C105.921 132.031 106.415 131.622 106.923 131.199C107.564 130.66 108.205 130.122 108.865 129.566C109.503 129.033 110.141 128.499 110.798 127.949C112.535 126.519 112.535 126.519 113.427 124.441Z" fill="#10222B"/>
<path d="M65.4272 82.4414C65.7572 83.4314 66.0872 84.4214 66.4272 85.4414C68.5244 86.4642 68.5244 86.4642 70.9897 87.1289C71.816 87.3803 72.6423 87.6316 73.4937 87.8906C74.4508 88.1633 74.4508 88.1633 75.4272 88.4414C75.4272 89.1014 75.4272 89.7614 75.4272 90.4414C71.4895 90.8077 69.8618 90.7437 66.5522 88.4414C65.851 87.7814 65.1497 87.1214 64.4272 86.4414C64.7572 85.1214 65.0872 83.8014 65.4272 82.4414Z" fill="#0D1215"/>
<path d="M71.4272 119.441C75.4817 119.01 76.977 119.141 80.4272 121.441C80.0972 123.091 79.7672 124.741 79.4272 126.441C79.0972 125.121 78.7672 123.801 78.4272 122.441C75.4572 122.441 72.4872 122.441 69.4272 122.441C70.0872 121.451 70.7472 120.461 71.4272 119.441Z" fill="#121C21"/>
<path d="M77.427 71.4414C80.5372 73.9861 81.4284 76.6004 82.427 80.4414C82.552 83.3164 82.552 83.3164 82.427 85.4414C82.1589 84.8433 81.8908 84.2452 81.6145 83.6289C80.5837 81.3961 80.5837 81.3961 78.802 80.1289C76.6139 77.4435 77.2387 74.7691 77.427 71.4414Z" fill="#45A2CE"/>
<path d="M22.4272 41.4414C25.8339 41.8897 27.5064 42.4942 30.4272 44.4414C30.0972 45.4314 29.7672 46.4214 29.4272 47.4414C27.7772 47.1114 26.1272 46.7814 24.4272 46.4414C24.4272 45.4514 24.4272 44.4614 24.4272 43.4414C23.7672 44.7614 23.1072 46.0814 22.4272 47.4414C22.0451 45.7853 21.7133 44.1168 21.4272 42.4414C21.7572 42.1114 22.0872 41.7814 22.4272 41.4414Z" fill="#122023"/>
<path d="M121.427 104.441C121.757 105.101 122.087 105.761 122.427 106.441C124.955 107.097 124.955 107.097 127.427 107.441C127.097 108.431 126.767 109.421 126.427 110.441C123.127 109.781 119.827 109.121 116.427 108.441C116.097 109.101 115.767 109.761 115.427 110.441C115.427 109.451 115.427 108.461 115.427 107.441C116.232 107.318 117.036 107.194 117.865 107.066C118.71 106.86 119.556 106.654 120.427 106.441C120.757 105.781 121.087 105.121 121.427 104.441Z" fill="#152B30"/>
<path d="M88.4272 100.441C85.6564 104.251 81.7986 104.51 77.4272 105.441C77.4272 104.451 77.4272 103.461 77.4272 102.441C81.2505 101.019 84.3401 100.201 88.4272 100.441Z" fill="#12191D"/>
<path d="M79.4272 71.4414C80.5101 71.9364 80.5101 71.9364 81.6147 72.4414C84.4442 73.4474 86.4562 73.6112 89.4272 73.4414C89.4272 74.4314 89.4272 75.4214 89.4272 76.4414C82.8022 76.6914 82.8022 76.6914 79.4272 74.4414C79.4272 73.4514 79.4272 72.4614 79.4272 71.4414Z" fill="#172123"/>
<path d="M31.4272 63.4414C32.0872 63.4414 32.7472 63.4414 33.4272 63.4414C34.5015 69.3008 34.5015 69.3008 34.4272 71.4414C33.4372 72.7614 32.4472 74.0814 31.4272 75.4414C31.4272 71.4814 31.4272 67.5214 31.4272 63.4414Z" fill="#56BAEA"/>
<path d="M66.4272 52.4414C65.3022 54.0039 65.3022 54.0039 63.4272 55.4414C60.2397 55.1289 60.2397 55.1289 57.4272 54.4414C57.7572 53.4514 58.0872 52.4614 58.4272 51.4414C62.0505 50.2337 63.0687 50.8983 66.4272 52.4414Z" fill="#47AAD9"/>
<path d="M120.427 44.4414C121.635 48.0647 120.97 49.0829 119.427 52.4414C119.097 51.4514 118.767 50.4614 118.427 49.4414C117.107 50.4314 115.787 51.4214 114.427 52.4414C113.767 52.1114 113.107 51.7814 112.427 51.4414C115.067 49.1314 117.707 46.8214 120.427 44.4414Z" fill="#4499C1"/>
<path d="M59.4272 143.441C61.4072 143.441 63.3872 143.441 65.4272 143.441C64.7672 144.06 64.1072 144.679 63.4272 145.316C61.1988 147.198 61.1988 147.198 61.4272 149.441C58.4572 148.946 58.4572 148.946 55.4272 148.441C56.4172 147.781 57.4072 147.121 58.4272 146.441C58.7572 145.451 59.0872 144.461 59.4272 143.441Z" fill="#20BBDE"/>
<path d="M115.427 85.4414C118.519 87.971 119.337 90.666 120.427 94.4414C119.767 94.4414 119.107 94.4414 118.427 94.4414C118.097 95.1014 117.767 95.7614 117.427 96.4414C117.091 94.9837 116.759 93.5252 116.427 92.0664C116.242 91.2543 116.056 90.4422 115.865 89.6055C115.427 87.4414 115.427 87.4414 115.427 85.4414Z" fill="#CAAE42"/>
<path d="M29.4272 85.4414C29.4272 88.5835 29.0944 91.3723 28.4272 94.4414C27.4372 94.9364 27.4372 94.9364 26.4272 95.4414C25.7672 96.4314 25.1072 97.4214 24.4272 98.4414C24.8773 92.816 26.1117 89.8265 29.4272 85.4414Z" fill="#B7A743"/>
<path d="M47.4272 42.4414C48.0872 42.4414 48.7472 42.4414 49.4272 42.4414C48.87 45.7851 48.0755 48.4745 46.4272 51.4414C45.7672 51.4414 45.1072 51.4414 44.4272 51.4414C44.9252 47.7065 45.3022 45.629 47.4272 42.4414Z" fill="#0B0F11"/>
<path d="M28.4272 88.4414C30.0772 89.4314 31.7272 90.4214 33.4272 91.4414C33.0972 92.1014 32.7672 92.7614 32.4272 93.4414C31.7672 93.4414 31.1072 93.4414 30.4272 93.4414C30.4272 94.1014 30.4272 94.7614 30.4272 95.4414C31.0872 95.7714 31.7472 96.1014 32.4272 96.4414C31.1072 96.1114 29.7872 95.7814 28.4272 95.4414C28.4272 93.1314 28.4272 90.8214 28.4272 88.4414Z" fill="#2B3F44"/>
<path d="M30.4272 45.4414C36.3022 50.0664 36.3022 50.0664 37.4272 53.4414C35.6772 53.3164 35.6772 53.3164 33.4272 52.4414C31.1772 49.3789 31.1772 49.3789 29.4272 46.4414C29.7572 46.1114 30.0872 45.7814 30.4272 45.4414Z" fill="#090E10"/>
<path d="M96.4272 39.4414C98.9272 41.6914 98.9272 41.6914 101.427 44.4414C101.427 45.7614 101.427 47.0814 101.427 48.4414C100.767 48.4414 100.107 48.4414 99.4272 48.4414C98.1072 45.8014 96.7872 43.1614 95.4272 40.4414C95.7572 40.1114 96.0872 39.7814 96.4272 39.4414Z" fill="#0B1013"/>
<path d="M24.4272 102.441C25.0872 103.101 25.7472 103.761 26.4272 104.441C28.9979 105.089 28.9979 105.089 31.4272 105.441C31.0972 106.431 30.7672 107.421 30.4272 108.441C28.7772 108.441 27.1272 108.441 25.4272 108.441C25.0972 106.461 24.7672 104.481 24.4272 102.441Z" fill="#22261C"/>
<path d="M98.4272 90.4414C97.6772 92.3789 97.6772 92.3789 96.4272 94.4414C94.2972 95.2402 92.6942 95.4414 90.4272 95.4414C91.4272 92.4414 91.4272 92.4414 93.3022 91.2539C95.4272 90.4414 95.4272 90.4414 98.4272 90.4414Z" fill="#0E1415"/>
<path d="M41.4272 75.4414C42.0872 75.4414 42.7472 75.4414 43.4272 75.4414C42.7672 78.7414 42.1072 82.0414 41.4272 85.4414C40.4372 85.1114 39.4472 84.7814 38.4272 84.4414C38.7354 83.1279 39.0489 81.8156 39.3647 80.5039C39.5388 79.773 39.7128 79.0421 39.8921 78.2891C40.4272 76.4414 40.4272 76.4414 41.4272 75.4414Z" fill="#11232D"/>
<path d="M26.4272 55.4414C27.4172 55.7714 28.4072 56.1014 29.4272 56.4414C29.7572 58.7514 30.0872 61.0614 30.4272 63.4414C29.4372 63.1114 28.4472 62.7814 27.4272 62.4414C27.0972 60.1314 26.7672 57.8214 26.4272 55.4414Z" fill="#132026"/>
<path d="M119.427 86.4414C120.99 88.0664 120.99 88.0664 122.427 90.4414C122.115 93.6914 122.115 93.6914 121.427 96.4414C119.904 93.5042 118.626 90.5245 117.427 87.4414C118.087 87.1114 118.747 86.7814 119.427 86.4414Z" fill="#23241A"/>
<path d="M117.427 77.4414C117.757 77.4414 118.087 77.4414 118.427 77.4414C118.757 80.7414 119.087 84.0414 119.427 87.4414C118.437 87.1114 117.447 86.7814 116.427 86.4414C116.427 85.7814 116.427 85.1214 116.427 84.4414C115.767 84.4414 115.107 84.4414 114.427 84.4414C114.427 83.7814 114.427 83.1214 114.427 82.4414C115.417 82.4414 116.407 82.4414 117.427 82.4414C117.427 80.7914 117.427 79.1414 117.427 77.4414Z" fill="#0A0606"/>
<path d="M69.4272 123.441C71.4072 123.441 73.3872 123.441 75.4272 123.441C75.4272 124.101 75.4272 124.761 75.4272 125.441C76.0872 125.771 76.7472 126.101 77.4272 126.441C75.1172 126.441 72.8072 126.441 70.4272 126.441C70.0972 125.451 69.7672 124.461 69.4272 123.441Z" fill="#4DB6E5"/>
<path d="M39.4272 83.4414C40.3579 86.0472 40.5764 87.0834 39.4897 89.6914C38.9638 90.5577 38.9638 90.5577 38.4272 91.4414C37.7672 91.4414 37.1072 91.4414 36.4272 91.4414C37.1772 85.6914 37.1772 85.6914 39.4272 83.4414Z" fill="#070C0F"/>
<path d="M37.4272 96.4414C38.4172 96.7714 39.4072 97.1014 40.4272 97.4414C40.4272 99.4414 40.4272 99.4414 39.0522 100.941C38.516 101.436 37.9797 101.931 37.4272 102.441C36.7672 103.101 36.1072 103.761 35.4272 104.441C36.3022 97.5664 36.3022 97.5664 37.4272 96.4414Z" fill="#4DB1DE"/>
<path d="M102.427 75.4414C104.407 76.4314 104.407 76.4314 106.427 77.4414C106.427 79.4214 106.427 81.4014 106.427 83.4414C105.767 83.1114 105.107 82.7814 104.427 82.4414C103.696 80.1273 103.026 77.7931 102.427 75.4414Z" fill="#0D141B"/>
<path d="M108.427 134.441C104.802 137.441 104.802 137.441 101.427 137.441C101.757 136.451 102.087 135.461 102.427 134.441C104.918 133.196 105.838 133.665 108.427 134.441Z" fill="#090C0F"/>
<path d="M116.427 108.441C118.407 108.441 120.387 108.441 122.427 108.441C122.757 109.101 123.087 109.761 123.427 110.441C122.499 110.627 122.499 110.627 121.552 110.816C119.236 111.313 119.236 111.313 117.427 113.441C117.097 111.791 116.767 110.141 116.427 108.441Z" fill="#42B3E2"/>
<path d="M23.4273 97.4414C23.7573 97.4414 24.0873 97.4414 24.4273 97.4414C24.7573 101.071 25.0873 104.701 25.4273 108.441C24.4373 108.771 23.4473 109.101 22.4273 109.441C22.3457 105.28 22.4448 101.494 23.4273 97.4414Z" fill="#101314"/>
<path d="M112.427 104.441C115.067 105.101 117.707 105.761 120.427 106.441C120.427 106.771 120.427 107.101 120.427 107.441C119.643 107.565 118.86 107.689 118.052 107.816C115.287 108.233 115.287 108.233 113.427 110.441C113.097 108.461 112.767 106.481 112.427 104.441Z" fill="#0C0908"/>
<path d="M49.4272 93.4414C51.9022 93.9364 51.9022 93.9364 54.4272 94.4414C54.4272 96.0914 54.4272 97.7414 54.4272 99.4414C51.9272 98.1289 51.9272 98.1289 49.4272 96.4414C49.4272 95.4514 49.4272 94.4614 49.4272 93.4414Z" fill="#DFE5E6"/>
<path d="M45.4272 92.4414C47.0772 92.4414 48.7272 92.4414 50.4272 92.4414C49.7672 93.7614 49.1072 95.0814 48.4272 96.4414C47.1072 96.1114 45.7872 95.7814 44.4272 95.4414C44.7572 94.4514 45.0872 93.4614 45.4272 92.4414Z" fill="#4597BB"/>
<path d="M32.4272 83.4414C32.7572 84.7614 33.0872 86.0814 33.4272 87.4414C34.4172 87.4414 35.4072 87.4414 36.4272 87.4414C36.4272 88.4314 36.4272 89.4214 36.4272 90.4414C34.7772 90.1114 33.1272 89.7814 31.4272 89.4414C31.7572 87.4614 32.0872 85.4814 32.4272 83.4414Z" fill="#348EBA"/>
<path d="M93.4272 59.4414C94.0872 59.4414 94.7472 59.4414 95.4272 59.4414C95.7572 61.4214 96.0872 63.4014 96.4272 65.4414C94.9422 66.4314 94.9422 66.4314 93.4272 67.4414C93.0466 65.1153 92.7145 62.7809 92.4272 60.4414C92.7572 60.1114 93.0872 59.7814 93.4272 59.4414Z" fill="#2D363B"/>
</svg>
