<svg width="152" height="152" viewBox="0 0 152 152" fill="none" xmlns="http://www.w3.org/2000/svg">
<path d="M119.425 13.415C123.753 16.76 127.606 20.5086 131.425 24.415C132.079 25.0363 132.732 25.6576 133.406 26.2978C145.835 38.9833 151.684 57.6138 151.863 75.0399C151.519 95.0732 144.665 113.769 130.659 128.239C130.252 128.627 129.845 129.015 129.425 129.415C125.634 127.965 122.038 126.263 118.425 124.415C120.791 127.03 123.367 128.679 126.425 130.415C124.923 134.644 121.882 136.502 118.238 138.79C117.622 139.181 117.006 139.571 116.372 139.974C108.005 145.107 94.664 152.567 84.675 150.977C83.9325 150.792 83.19 150.606 82.425 150.415C81.105 150.745 79.785 151.075 78.425 151.415C81.395 143 81.395 143 84.425 134.415C83.765 134.415 83.105 134.415 82.425 134.415C82.3129 135.13 82.2007 135.846 82.0852 136.583C81.3805 139.606 80.2922 141.978 78.8625 144.727C78.18 146.052 78.18 146.052 77.4836 147.403C77.1343 148.067 76.785 148.731 76.425 149.415C73.6938 147.032 72.5152 144.722 71.1633 141.38C70.7669 140.406 70.3705 139.432 69.9621 138.429C69.558 137.413 69.1539 136.398 68.7375 135.352C68.3218 134.333 67.9061 133.314 67.4778 132.265C64.425 124.7 64.425 124.7 64.425 122.415C67.065 122.415 69.705 122.415 72.425 122.415C71.7869 122.21 71.1489 122.005 70.4914 121.794C69.6652 121.524 68.8389 121.255 67.9875 120.977C67.1638 120.711 66.3401 120.444 65.4914 120.169C63.425 119.415 63.425 119.415 62.425 118.415C62.3526 116.395 62.3413 114.373 62.3625 112.352C62.3716 111.248 62.3806 110.143 62.3899 109.005C62.4015 108.15 62.4131 107.295 62.425 106.415C63.085 106.415 63.745 106.415 64.425 106.415C64.095 105.755 63.765 105.095 63.425 104.415C61.4004 103.763 61.4004 103.763 59.425 103.415C59.425 104.075 59.425 104.735 59.425 105.415C60.085 105.415 60.745 105.415 61.425 105.415C61.367 106.252 61.309 107.088 61.2493 107.95C60.7237 121.511 65.3178 132.69 71.1889 144.669C73.425 149.232 73.425 149.232 73.425 151.415C69.7409 150.187 69.4014 149.201 67.4641 145.927C66.9121 144.998 66.36 144.069 65.7912 143.111C65.2166 142.118 64.642 141.126 64.05 140.102C63.4651 139.102 62.8802 138.102 62.2776 137.072C57.8484 129.393 54.2302 121.83 51.425 113.415C51.2742 114.166 51.1234 114.918 50.968 115.692C48.6112 119.851 45.1216 120.495 40.7375 121.977C39.1483 122.536 37.561 123.099 35.9758 123.669C35.2058 123.944 34.4357 124.218 33.6423 124.501C31.452 125.404 29.5879 126.485 27.593 127.755C24.425 129.415 24.425 129.415 22.1946 128.876C9.51815 118.41 3.11871 102.256 0.425036 86.4149C-1.58205 64.526 3.44362 44.4206 17.1125 27.04C42.9942 -2.08187 86.8816 -9.32531 119.425 13.415Z" fill="#0A5055"/>
<path d="M57.425 23.4149C58.0572 33.4423 58.0572 33.4423 55.8 36.9149C55.0162 37.7399 54.2325 38.5649 53.425 39.4149C52.4332 41.1672 51.4787 42.9409 50.55 44.7274C47.961 49.5769 45.2377 54.4069 41.425 58.4149C40.765 58.4149 40.105 58.4149 39.425 58.4149C39.755 59.4049 40.085 60.3949 40.425 61.4149C41.91 60.9199 41.91 60.9199 43.425 60.4149C44.085 63.3849 44.745 66.3549 45.425 69.4149C45.3438 68.6041 45.2625 67.7933 45.1789 66.9579C44.6417 57.5408 46.9817 52.8712 52.425 45.4149C53.4323 43.702 54.4144 41.9738 55.3625 40.2274C55.7634 39.4914 56.1643 38.7553 56.5773 37.9969C56.857 37.4749 57.1368 36.9528 57.425 36.4149C58.085 36.4149 58.745 36.4149 59.425 36.4149C60.4674 37.6083 61.4591 38.8463 62.425 40.1024C68.2448 46.9386 75.8159 49.6612 84.425 51.4149C83.9093 50.6518 83.3937 49.8887 82.8625 49.1024C82.3881 48.2155 81.9137 47.3287 81.425 46.4149C81.92 44.9299 81.92 44.9299 82.425 43.4149C82.9097 43.7642 83.3943 44.1136 83.8937 44.4735C88.8224 47.8193 92.433 49.3116 98.425 49.4149C99.085 48.7549 99.745 48.0949 100.425 47.4149C100.92 48.4049 100.92 48.4049 101.425 49.4149C102.415 48.9199 102.415 48.9199 103.425 48.4149C102.791 47.4339 102.157 46.453 101.503 45.4422C99.1668 41.3537 98.5823 37.6156 98.175 32.9774C98.0976 32.2459 98.0203 31.5143 97.9406 30.7606C97.7544 28.9801 97.5876 27.1977 97.425 25.4149C102.183 26.1805 102.183 26.1805 104.362 28.2899C106.814 32.0036 108.898 35.8473 110.964 39.786C112.424 42.5793 112.424 42.5793 114.8 45.4149C117.226 49.8929 117.1 54.4184 116.425 59.4149C115.765 60.4049 115.105 61.3949 114.425 62.4149C113.765 62.4149 113.105 62.4149 112.425 62.4149C112.477 63.285 112.477 63.285 112.53 64.1727C112.744 70.3422 111.827 74.2814 107.987 79.2899C106.425 80.4149 106.425 80.4149 102.425 80.4149C102.278 81.0324 102.131 81.6498 101.98 82.286C99.4227 91.9409 94.7655 99.7082 86.425 105.415C81.5268 108.087 76.982 109.41 71.425 108.415C69.2698 107.543 67.2975 106.548 65.2843 105.388C63.3456 104.373 61.5592 103.863 59.425 103.415C59.425 104.075 59.425 104.735 59.425 105.415C60.085 105.415 60.745 105.415 61.425 105.415C61.367 106.252 61.309 107.088 61.2492 107.95C60.7236 121.51 65.3177 132.69 71.1889 144.669C73.425 149.232 73.425 149.232 73.425 151.415C69.7408 150.187 69.4013 149.201 67.464 145.927C66.912 144.998 66.3599 144.069 65.7912 143.111C65.2166 142.118 64.642 141.125 64.05 140.102C63.4651 139.102 62.8801 138.102 62.2775 137.072C57.8483 129.393 54.2301 121.83 51.425 113.415C50.765 114.405 50.105 115.395 49.425 116.415C49.425 113.445 49.425 110.475 49.425 107.415C52.065 106.095 54.705 104.775 57.425 103.415C57.425 103.085 57.425 102.755 57.425 102.415C56.2287 102.188 55.0325 101.961 53.8 101.727C49.2079 100.592 46.8631 98.6186 43.425 95.4149C42.7211 95.0282 42.0173 94.6415 41.2922 94.243C38.8917 91.8928 38.9263 90.0258 38.8156 86.7567C38.8104 86.0458 38.8053 85.3349 38.8 84.6024C38.7067 79.5432 38.2945 75.1785 36.425 70.4149C37.085 70.4149 37.745 70.4149 38.425 70.4149C38.0097 66.9541 37.5741 63.8184 36.3625 60.5399C35.1067 56.3541 34.5904 52.7386 35.425 48.4149C36.7255 46.0461 38.2249 43.9734 39.8468 41.8133C41.593 39.1596 42.4688 36.6873 43.425 33.6649C45.8319 26.5734 49.32 22.45 57.425 23.4149Z" fill="#F3D0B2"/>
<path d="M111.425 77.4149C111.755 77.4149 112.085 77.4149 112.425 77.4149C113.494 81.6921 114.193 86.0405 113.425 90.4149C111.425 93.0399 111.425 93.0399 108.425 95.4149C107.797 95.9434 107.17 96.4719 106.523 97.0165C102.581 100.209 99.6613 102.153 94.4251 102.415C94.4251 103.075 94.4251 103.735 94.4251 104.415C96.7351 105.405 99.0451 106.395 101.425 107.415C101.92 112.365 101.92 112.365 102.425 117.415C103.569 117.813 104.712 118.212 105.89 118.622C107.381 119.156 108.872 119.692 110.363 120.227C111.117 120.488 111.872 120.749 112.65 121.018C114.609 121.73 116.522 122.566 118.425 123.415C118.755 124.405 119.085 125.395 119.425 126.415C121.055 127.639 121.055 127.639 122.988 128.602C124.122 129.201 125.256 129.799 126.425 130.415C124.923 134.644 121.882 136.502 118.238 138.79C117.622 139.181 117.006 139.571 116.372 139.974C108.005 145.107 94.6641 152.567 84.6751 150.977C83.5614 150.699 83.5614 150.699 82.4251 150.415C80.4451 150.91 80.4451 150.91 78.4251 151.415C80.4051 145.805 82.3851 140.195 84.4251 134.415C83.7651 134.415 83.1051 134.415 82.4251 134.415C82.2569 135.488 82.2569 135.488 82.0853 136.583C81.3806 139.606 80.2922 141.978 78.8626 144.727C78.1801 146.052 78.1801 146.052 77.4837 147.403C77.1344 148.067 76.785 148.731 76.4251 149.415C73.6939 147.032 72.5153 144.722 71.1634 141.38C70.767 140.406 70.3706 139.432 69.9622 138.429C69.356 136.906 69.356 136.906 68.7376 135.352C68.3219 134.333 67.9062 133.314 67.4778 132.265C64.4251 124.7 64.4251 124.7 64.4251 122.415C67.0651 122.415 69.7051 122.415 72.4251 122.415C71.787 122.21 71.1489 122.005 70.4915 121.794C69.6652 121.524 68.8389 121.255 67.9876 120.977C67.1639 120.711 66.3402 120.444 65.4915 120.169C63.4251 119.415 63.4251 119.415 62.4251 118.415C62.3527 116.395 62.3413 114.373 62.3626 112.352C62.3716 111.248 62.3807 110.143 62.39 109.005C62.4016 108.15 62.4132 107.295 62.4251 106.415C63.0851 106.415 63.7451 106.415 64.4251 106.415C64.7551 105.755 65.0851 105.095 65.4251 104.415C66.2501 104.91 67.0751 105.405 67.9251 105.915C72.9914 108.086 76.7739 108.314 81.9134 106.571C90.1945 102.852 95.3529 97.5834 98.7376 89.1649C99.0225 88.3554 99.3074 87.5459 99.6009 86.7118C100.392 84.5072 101.337 82.4864 102.425 80.4149C102.425 81.0749 102.425 81.7349 102.425 82.4149C103.741 82.1602 105.053 81.8856 106.363 81.6024C107.094 81.4516 107.824 81.3008 108.577 81.1454C109.492 80.7838 109.492 80.7838 110.425 80.4149C110.755 79.4249 111.085 78.4349 111.425 77.4149Z" fill="#0C0B0A"/>
<path d="M41.425 28.4149C42.5907 31.9119 42.2879 32.3939 40.8 35.6024C40.247 36.7974 40.247 36.7974 39.6828 38.0165C38.4834 40.3036 37.1425 42.3559 35.675 44.4774C33.0807 48.5211 32.5557 51.6987 33.425 56.4149C34.0644 58.4141 34.8144 60.3241 35.6281 62.2587C36.8372 65.5303 37.3906 68.8865 37.9953 72.3134C38.3398 74.4603 38.3398 74.4603 39.425 76.4149C39.4437 78.2689 39.4603 80.1229 39.4616 81.9769C39.4078 88.7472 39.4078 88.7472 42.1633 94.7352C44.1967 96.2148 46.1537 97.3455 48.425 98.4149C49.415 99.0749 50.405 99.7349 51.425 100.415C53.7461 101.123 56.0788 101.795 58.425 102.415C56.8013 105.662 53.6711 106.116 50.425 107.415C50.425 110.715 50.425 114.015 50.425 117.415C46.5626 119.571 43.8653 120.995 39.425 120.415C27.2209 112.234 20.7981 99.6152 17.8117 85.5204C15.7324 68.823 18.3647 55.1794 28.2297 41.1884C36.3201 30.9674 36.3201 30.9674 41.425 28.4149Z" fill="#126A6F"/>
<path d="M106.425 26.4149C120.378 34.6512 129.431 47.4617 133.773 63.0594C134.908 68.8976 134.853 74.5023 134.425 80.4149C134.319 81.9289 134.319 81.9289 134.21 83.4735C132.646 96.7077 125.734 107.227 116.425 116.415C115.76 117.168 115.095 117.921 114.409 118.696C112.425 120.415 112.425 120.415 110.39 120.657C109.386 120.475 109.386 120.475 108.363 120.29C107.691 120.184 107.019 120.079 106.327 119.97C104.425 119.415 104.425 119.415 101.425 117.415C100.913 115.032 100.913 115.032 100.738 112.29C100.639 110.925 100.639 110.925 100.538 109.532C100.501 108.833 100.464 108.135 100.425 107.415C98.115 106.425 95.805 105.435 93.425 104.415C93.755 103.425 94.085 102.435 94.425 101.415C96.3784 100.951 98.3332 100.493 100.296 100.071C103.825 98.9833 105.762 96.9567 108.425 94.4149C109.143 93.831 109.861 93.247 110.601 92.6454C113.079 89.6156 112.678 87.9529 112.363 84.1024C112.067 75.2942 114.494 67.2774 118.425 59.4149C119.44 51.6624 117.6 46.6127 113.55 40.1024C112.634 38.5661 111.719 37.0283 110.808 35.4891C110.385 34.7845 109.963 34.0799 109.528 33.3539C108.255 31.1165 107.269 28.8456 106.425 26.4149Z" fill="#116B70"/>
<path d="M57.425 23.4149C58.0572 33.4423 58.0572 33.4423 55.8 36.9149C55.0162 37.7399 54.2325 38.5649 53.425 39.4149C52.4332 41.1672 51.4787 42.9409 50.55 44.7274C47.961 49.5769 45.2377 54.4069 41.425 58.4149C40.765 58.4149 40.105 58.4149 39.425 58.4149C39.755 59.4049 40.085 60.3949 40.425 61.4149C41.91 60.9199 41.91 60.9199 43.425 60.4149C44.085 63.3849 44.745 66.3549 45.425 69.4149C46.085 68.7549 46.745 68.0949 47.425 67.4149C47.545 67.9987 47.6651 68.5825 47.7887 69.1839C50.8316 84.7282 50.8316 84.7282 58.425 98.4149C59.2087 99.4462 59.9925 100.477 60.8 101.54C61.3362 102.159 61.8725 102.777 62.425 103.415C61.435 103.415 60.445 103.415 59.425 103.415C59.425 104.075 59.425 104.735 59.425 105.415C60.085 105.415 60.745 105.415 61.425 105.415C61.367 106.252 61.309 107.088 61.2492 107.95C60.7236 121.51 65.3177 132.69 71.1889 144.669C73.425 149.232 73.425 149.232 73.425 151.415C69.7408 150.187 69.4013 149.201 67.464 145.927C66.912 144.998 66.3599 144.069 65.7912 143.111C65.2166 142.118 64.642 141.125 64.05 140.102C63.4651 139.102 62.8801 138.102 62.2775 137.072C57.8483 129.393 54.2301 121.83 51.425 113.415C50.765 114.405 50.105 115.395 49.425 116.415C49.425 113.445 49.425 110.475 49.425 107.415C52.065 106.095 54.705 104.775 57.425 103.415C57.425 103.085 57.425 102.755 57.425 102.415C56.2287 102.188 55.0325 101.961 53.8 101.727C49.2079 100.592 46.8631 98.6186 43.425 95.4149C42.7211 95.0282 42.0173 94.6415 41.2922 94.243C38.8917 91.8928 38.9263 90.0258 38.8156 86.7567C38.8104 86.0458 38.8053 85.3349 38.8 84.6024C38.7067 79.5432 38.2945 75.1785 36.425 70.4149C37.085 70.4149 37.745 70.4149 38.425 70.4149C38.0097 66.9541 37.5741 63.8184 36.3625 60.5399C35.1067 56.3541 34.5904 52.7386 35.425 48.4149C36.7255 46.0461 38.2249 43.9734 39.8468 41.8133C41.593 39.1596 42.4688 36.6873 43.425 33.6649C45.8319 26.5734 49.32 22.45 57.425 23.4149Z" fill="#1A1917"/>
<path d="M84.2375 15.6024C89.7979 18.7642 93.1081 22.4571 95.425 28.4149C97.0956 35.1284 97.6513 41.5153 97.425 48.4149C91.1236 46.6574 86.6257 44.3674 81.425 40.4149C80.435 40.0849 79.445 39.7549 78.425 39.4149C78.755 42.0549 79.085 44.6949 79.425 47.4149C73.3122 47.1014 68.9821 44.2767 64.425 40.4149C61.1799 36.7717 59.1633 33.2145 58.8625 28.2899C59.7244 22.353 61.8198 19.6349 66.55 16.0399C72.3012 13.0903 78.2424 13.7351 84.2375 15.6024Z" fill="#F4D566"/>
<path d="M89.425 15.4149C91.4277 16.9788 92.8012 18.4244 94.425 20.4149C94.425 21.0749 94.425 21.7349 94.425 22.4149C95.6006 22.4149 96.7763 22.4149 97.9875 22.4149C102.805 23.0436 104.833 25.2456 107.765 28.9657C110.131 32.4563 112.148 36.0699 114.07 39.8211C115.205 41.9941 116.436 43.9483 117.8 45.9774C119.98 50.5892 120.109 54.3967 119.425 59.4149C118.113 62.9149 118.113 62.9149 116.425 66.4149C115.601 68.9409 114.861 71.4841 114.12 74.036C113.296 76.8551 112.376 79.6362 111.425 82.4149C111.095 81.7549 110.765 81.0949 110.425 80.4149C109.435 81.0749 108.445 81.7349 107.425 82.4149C104.738 82.5399 104.738 82.5399 102.425 82.4149C102.425 81.4249 102.425 80.4349 102.425 79.4149C103.188 79.3324 103.951 79.2499 104.738 79.1649C108 78.2545 108.736 77.286 110.425 74.4149C111.43 71.4 111.528 69.3731 111.488 66.2274C111.478 65.3263 111.469 64.4253 111.46 63.4969C111.449 62.8098 111.437 62.1228 111.425 61.4149C112.415 61.4149 113.405 61.4149 114.425 61.4149C116.485 57.294 116.183 52.8675 115.425 48.4149C113.185 43.7724 110.349 39.6486 107.425 35.4149C106.521 33.857 105.624 32.2953 104.738 30.7274C103.095 28.0733 102.492 27.4506 99.6125 25.9149C98.5297 25.6674 98.5297 25.6674 97.425 25.4149C97.7138 26.3224 98.0025 27.2299 98.3 28.1649C99.5815 32.5561 100.159 37.0209 100.765 41.5477C101.48 44.6521 102.657 46.7848 104.425 49.4149C103.105 49.4149 101.785 49.4149 100.425 49.4149C99.3938 49.683 98.3625 49.9511 97.3 50.2274C91.7767 50.4946 88.1116 48.1401 83.425 45.4149C83.2669 48.4676 83.2669 48.4676 84.425 51.4149C74.67 50.8729 67.3479 46.973 60.6047 39.9657C59.425 38.4149 59.425 38.4149 59.425 36.4149C56.6747 38.8551 55.1801 41.4814 53.4875 44.7274C51.8275 47.9067 50.3725 50.4771 48.05 53.2274C45.3046 58.6127 46.1326 64.4859 46.425 70.4149C45.765 70.0849 45.105 69.7549 44.425 69.4149C44.011 67.3485 44.011 67.3485 43.8 64.8524C43.7252 64.0261 43.6505 63.1998 43.5735 62.3485C43.5245 61.7104 43.4755 61.0723 43.425 60.4149C42.105 61.0749 40.785 61.7349 39.425 62.4149C39.425 58.4149 39.425 58.4149 41.6711 56.1024C42.5799 55.2155 43.4887 54.3286 44.425 53.4149C45.8681 51.093 47.2058 48.8191 48.4875 46.4149C50.3262 43.0069 52.0942 39.8021 54.6242 36.8407C56.7727 33.9465 57.0032 32.1671 57.175 28.6024C57.2317 27.6266 57.2885 26.6507 57.3469 25.6454C57.3727 24.9093 57.3985 24.1732 57.425 23.4149C51.8047 24.3722 51.8047 24.3722 47.175 27.4149C45.2034 30.7948 43.8666 34.2063 42.507 37.868C41.4554 40.3434 40.2269 42.2916 38.675 44.4774C35.8758 48.7408 35.6911 52.4356 36.425 57.4149C37.0675 59.4228 37.7324 61.4237 38.425 63.4149C38.5002 65.747 38.5183 68.0834 38.425 70.4149C37.765 70.4149 37.105 70.4149 36.425 70.4149C36.1363 69.2186 35.8475 68.0224 35.55 66.7899C34.9223 64.2344 34.2271 61.8871 33.3 59.4149C32.1773 55.5655 31.5288 52.3325 32.425 48.4149C33.9711 45.5964 35.7228 43.0057 37.5539 40.3641C40.0301 36.4611 41.5506 32.3874 43.0891 28.0438C44.7278 24.819 46.3931 23.3633 49.425 21.4149C51.8547 20.7977 51.8547 20.7977 54.3 20.5399C59.0982 19.7556 61.4517 18.1137 64.9211 14.8133C71.8711 8.35069 82.1347 11.0294 89.425 15.4149ZM60.425 21.7274C58.6684 26.4482 58.4374 30.1298 60.4211 34.7196C64.0457 40.8187 68.8914 44.6656 75.425 47.4149C76.745 47.4149 78.065 47.4149 79.425 47.4149C79.095 44.7749 78.765 42.1349 78.425 39.4149C79.3738 39.9718 80.3225 40.5286 81.3 41.1024C88.9733 46.08 88.9733 46.0801 97.425 48.4149C97.8911 39.4035 97.2226 28.9128 92.05 21.2274C87.2107 16.0424 82.6332 14.328 75.675 14.0399C69.0488 14.1084 64.6973 16.7876 60.425 21.7274Z" fill="#0F1110"/>
<path d="M51.425 120.415C51.6966 120.943 51.9681 121.472 52.2478 122.016C58.7228 134.843 58.7228 134.843 66.4641 146.919C67.425 148.415 67.425 148.415 67.425 150.415C54.3932 151.627 40.1798 144.149 29.9211 136.563C28.3693 135.24 26.8847 133.839 25.425 132.415C29.5189 127.617 33.683 125.735 39.55 123.602C40.3609 123.291 41.1717 122.98 42.0071 122.659C47.975 120.415 47.975 120.415 51.425 120.415Z" fill="#6C4329"/>
<path d="M100.425 120.415C119.276 125.649 119.276 125.649 126.425 130.415C124.923 134.643 121.883 136.503 118.238 138.79C117.62 139.18 117.002 139.57 116.365 139.972C106.486 146.008 96.1782 150.366 84.425 150.415C89.3922 140.193 94.7778 130.275 100.425 120.415Z" fill="#6D4328"/>
<path d="M57.4249 23.4149C58.0571 33.4423 58.0571 33.4423 55.7999 36.9149C55.0162 37.7399 54.2324 38.5649 53.4249 39.4149C52.4332 41.1672 51.4787 42.9409 50.5499 44.7274C47.314 50.7979 43.6295 56.8136 38.4249 61.4149C37.7649 61.4149 37.1049 61.4149 36.4249 61.4149C35.031 56.2882 33.9747 51.0745 36.6242 46.2157C37.6797 44.7347 38.7548 43.2676 39.8468 41.8133C41.593 39.1596 42.4688 36.6873 43.4249 33.6649C45.8319 26.5734 49.32 22.45 57.4249 23.4149Z" fill="#F1D463"/>
<path d="M97.425 25.4149C100.557 25.6759 102.078 26.0787 104.363 28.2899C106.814 32.0036 108.898 35.8473 110.964 39.786C112.424 42.5793 112.424 42.5793 114.8 45.4149C117.226 49.8929 117.1 54.4184 116.425 59.4149C115.765 60.4049 115.105 61.3949 114.425 62.4149C103.759 52.1066 98.9105 42.9961 97.425 28.4149C97.425 27.4249 97.425 26.4349 97.425 25.4149Z" fill="#F2D568"/>
<path d="M64.425 122.415C65.5697 122.662 65.5697 122.662 66.7375 122.915C73.6244 123.849 80.61 123.888 87.425 122.415C85.1268 131.52 81.2848 139.892 77.425 148.415C76.435 148.415 75.445 148.415 74.425 148.415C72.7526 144.459 71.0881 140.5 69.425 136.54C68.9481 135.412 68.4711 134.284 67.9797 133.122C67.303 131.507 67.303 131.507 66.6125 129.86C66.1936 128.865 65.7747 127.87 65.343 126.845C64.425 124.415 64.425 124.415 64.425 122.415Z" fill="#409EC5"/>
<path d="M62.425 106.415C67.425 108.415 67.425 108.415 69.7375 109.54C74.8891 111.217 78.9446 111.073 83.8 108.915C84.6663 108.42 85.5325 107.925 86.425 107.415C87.085 107.415 87.745 107.415 88.425 107.415C88.425 111.375 88.425 115.335 88.425 119.415C83.6395 121.329 81.0219 121.712 75.9875 121.727C74.0714 121.753 74.0714 121.753 72.1165 121.778C68.2186 121.395 65.7798 120.38 62.425 118.415C62.425 114.455 62.425 110.495 62.425 106.415Z" fill="#EED0B2"/>
<path d="M111.425 77.4149C111.755 77.4149 112.085 77.4149 112.425 77.4149C113.494 81.6921 114.193 86.0405 113.425 90.4149C111.425 93.0399 111.425 93.0399 108.425 95.4149C107.797 95.9434 107.17 96.4719 106.523 97.0165C102.499 100.275 99.6931 101.913 94.425 102.415C93.765 103.075 93.105 103.735 92.425 104.415C91.435 104.415 90.445 104.415 89.425 104.415C90.7739 101.498 92.3403 99.1554 94.3625 96.6649C97.3771 92.7335 98.863 89.101 100.425 84.4149C101.065 83.0684 101.715 81.7257 102.425 80.4149C102.425 81.0749 102.425 81.7349 102.425 82.4149C103.741 82.1602 105.053 81.8856 106.363 81.6024C107.093 81.4516 107.824 81.3008 108.577 81.1454C109.492 80.7838 109.492 80.7838 110.425 80.4149C110.755 79.4249 111.085 78.4349 111.425 77.4149Z" fill="#0A0C0A"/>
<path d="M60.4251 106.415C60.4393 107.179 60.4535 107.944 60.4681 108.731C61.0492 121.782 65.5118 133.089 71.1893 144.668C73.4251 149.233 73.4251 149.233 73.4251 151.415C69.741 150.187 69.4015 149.201 67.4642 145.927C66.636 144.534 66.636 144.534 65.7911 143.112C65.2166 142.119 64.6421 141.126 64.0501 140.102C63.4659 139.099 62.8818 138.096 62.2799 137.063C50.7934 117.084 50.7934 117.084 52.4251 109.415C55.2677 107.033 56.7092 106.415 60.4251 106.415Z" fill="#724527"/>
<path d="M91.425 107.415C97.175 108.29 97.175 108.29 99.425 109.415C100.327 119.785 94.4236 128.621 89.3625 137.29C88.8334 138.213 88.3042 139.136 87.759 140.087C85.4821 144.029 83.2187 147.812 80.425 151.415C79.765 151.085 79.105 150.755 78.425 150.415C78.753 149.613 79.081 148.811 79.4189 147.984C80.6367 145.004 81.8535 142.024 83.0698 139.044C83.5962 137.755 84.1229 136.466 84.6499 135.177C85.4079 133.323 86.1645 131.469 86.9211 129.614C87.3767 128.499 87.8323 127.383 88.3018 126.234C90.0192 121.924 90.6671 118.352 90.9875 113.727C91.0713 112.548 91.1551 111.368 91.2415 110.153C91.302 109.25 91.3626 108.346 91.425 107.415Z" fill="#744425"/>
<path d="M103.425 49.4149C107.021 52.9085 110.26 56.5259 113.425 60.4149C113.095 61.0749 112.765 61.7349 112.425 62.4149C112.431 63.8322 112.478 65.2495 112.55 66.6649C112.609 71.878 111.085 75.1773 107.988 79.3524C107.472 79.703 106.956 80.0537 106.425 80.4149C104.327 79.9813 104.327 79.9813 102.425 79.4149C102.558 78.8439 102.691 78.2728 102.827 77.6844C106.04 64.9955 106.04 64.9955 103.988 52.6024C103.472 51.8805 102.956 51.1587 102.425 50.4149C102.755 50.0849 103.085 49.7549 103.425 49.4149Z" fill="#1A1916"/>
<path d="M64.425 104.415C65.415 104.91 66.405 105.405 67.425 105.915C73.1954 108.353 78.1715 108.046 83.925 105.915C85.6575 105.172 85.6575 105.172 87.425 104.415C87.425 105.075 87.425 105.735 87.425 106.415C88.085 106.415 88.745 106.415 89.425 106.415C89.425 110.045 89.425 113.675 89.425 117.415C90.085 117.415 90.745 117.415 91.425 117.415C90.8163 122.019 89.5778 125.98 87.8625 130.29C87.4075 131.442 86.9525 132.595 86.4836 133.782C86.1343 134.651 85.785 135.52 85.425 136.415C83.8881 134.005 83.3275 132.914 83.886 130.056C84.1876 129.267 84.4893 128.478 84.8 127.665C85.0965 126.866 85.393 126.066 85.6985 125.243C85.9383 124.64 86.178 124.036 86.425 123.415C85.3674 123.66 85.3674 123.66 84.2883 123.911C81.3285 124.432 78.6144 124.514 75.6125 124.477C74.6367 124.468 73.6609 124.459 72.6555 124.45C71.5514 124.433 71.5514 124.433 70.425 124.415C71.085 123.425 71.745 122.435 72.425 121.415C74.8508 120.938 74.8508 120.938 77.7375 120.79C81.4767 120.576 84.7076 120.158 88.425 119.415C88.425 115.455 88.425 111.495 88.425 107.415C86.6925 108.405 86.6925 108.405 84.925 109.415C80.6382 111.528 77.1526 112.36 72.425 111.415C69.6168 110.299 67.0192 108.96 64.425 107.415C64.425 106.425 64.425 105.435 64.425 104.415Z" fill="#0E1312"/>
<path d="M98.425 32.4149C98.755 32.4149 99.085 32.4149 99.425 32.4149C99.5346 33.2232 99.6442 34.0314 99.7571 34.8641C99.9156 35.9328 100.074 37.0014 100.238 38.1024C100.388 39.1582 100.539 40.2139 100.695 41.3016C101.449 44.5169 102.584 46.6959 104.425 49.4149C103.105 49.4149 101.785 49.4149 100.425 49.4149C99.3938 49.683 98.3625 49.9512 97.3 50.2274C91.7768 50.4947 88.1116 48.1401 83.425 45.4149C83.2669 48.4676 83.2669 48.4676 84.425 51.4149C81.785 51.0849 79.145 50.7549 76.425 50.4149C76.755 49.4249 77.085 48.4349 77.425 47.4149C78.085 47.4149 78.745 47.4149 79.425 47.4149C79.095 46.7549 78.765 46.0949 78.425 45.4149C78.3851 43.4153 78.3816 41.4144 78.425 39.4149C81.5056 40.0297 83.6384 41.0431 86.2375 42.7899C89.8532 45.1303 93.4244 46.8313 97.425 48.4149C97.3297 47.5113 97.2343 46.6077 97.136 45.6766C97.0251 44.4971 96.9143 43.3177 96.8 42.1024C96.626 40.3448 96.626 40.3448 96.4485 38.5516C96.425 35.4149 96.425 35.4149 98.425 32.4149Z" fill="#181915"/>
<path d="M100.425 61.4149C100.755 62.4049 101.085 63.3949 101.425 64.4149C98.455 63.9199 98.455 63.9199 95.425 63.4149C95.7654 65.0546 95.7654 65.0546 96.1125 66.7274C96.425 70.4149 96.425 70.4149 95.3 72.3524C92.8284 73.753 91.2235 73.7737 88.425 73.4149C87.765 72.7549 87.105 72.0949 86.425 71.4149C86.425 70.4249 86.425 69.4349 86.425 68.4149C85.105 68.4149 83.785 68.4149 82.425 68.4149C83.376 65.9079 84.3631 64.4709 86.3625 62.6649C90.9846 60.7783 95.4963 61.1818 100.425 61.4149Z" fill="#1C1B1A"/>
<path d="M55.4875 60.1024C60.0336 60.4632 63.8059 61.5549 67.425 64.4149C68.1516 66.5555 68.1516 66.5555 68.425 68.4149C67.435 68.0849 66.445 67.7549 65.425 67.4149C65.095 69.0649 64.765 70.7149 64.425 72.4149C62.175 73.1649 62.175 73.1649 59.425 73.4149C57.05 71.8524 57.05 71.8524 55.425 69.4149C55.675 66.1649 55.675 66.1649 56.425 63.4149C54.775 63.7449 53.125 64.0749 51.425 64.4149C51.425 60.3385 51.4351 60.5159 55.4875 60.1024Z" fill="#161715"/>
<path d="M61.4954 52.1063C64.697 52.4435 67.4784 53.1053 70.425 54.4149C70.425 56.0649 70.425 57.7149 70.425 59.4149C63.8 59.5399 63.8 59.5399 60.425 58.4149C58.3661 58.1916 56.3027 58.0078 54.2375 57.8524C53.1509 57.7686 52.0642 57.6848 50.9446 57.5985C50.1131 57.5379 49.2817 57.4773 48.425 57.4149C51.4472 51.3706 55.4193 51.8612 61.4954 52.1063Z" fill="#4D4231"/>
<path d="M98.425 52.4149C101.613 54.2899 101.613 54.2899 103.425 56.4149C103.425 57.0749 103.425 57.7349 103.425 58.4149C102.3 58.3975 102.3 58.3975 101.152 58.3797C94.5017 58.3211 88.025 58.5972 81.425 59.4149C81.425 57.7649 81.425 56.1149 81.425 54.4149C86.9538 52.0241 92.4968 51.6581 98.425 52.4149Z" fill="#4E432E"/>
<path d="M41.425 80.4149C44.2532 81.0477 44.2532 81.0477 47.425 82.4149C49.0344 85.0946 49.0344 85.0946 50.175 88.2899C50.5618 89.3392 50.9485 90.3885 51.3469 91.4696C51.8806 92.9275 51.8806 92.9275 52.425 94.4149C53.0687 95.7595 53.7255 97.0985 54.425 98.4149C51.0618 97.835 49.7527 96.8357 47.425 94.4149C45.7724 93.3919 44.1071 92.3888 42.425 91.4149C41.425 90.4149 41.425 90.4149 41.3274 88.1298C41.339 87.2132 41.3506 86.2967 41.3625 85.3524C41.3716 84.4333 41.3806 83.5142 41.3899 82.5673C41.4015 81.857 41.4131 81.1467 41.425 80.4149Z" fill="#ECD068"/>
<path d="M52.4249 116.415C54.6125 119.696 56.2708 123.127 57.9874 126.665C61.22 133.252 64.7761 139.562 68.6303 145.805C71.4249 150.333 71.4249 150.333 71.4249 151.415C69.7749 151.415 68.1249 151.415 66.4249 151.415C66.3094 150.844 66.1939 150.274 66.0748 149.686C65.3623 147.196 64.3455 145.305 63.0265 143.079C62.547 142.262 62.0674 141.444 61.5734 140.602C61.0706 139.757 60.5679 138.911 60.0499 138.04C51.3429 123.301 51.3429 123.301 51.7374 119.04C51.9643 118.174 52.1912 117.307 52.4249 116.415Z" fill="#110D0B"/>
<path d="M110.425 80.4149C110.993 83.8977 111.175 86.9506 110.425 90.4149C106.947 94.498 102.741 97.4273 97.425 98.4149C97.9491 97.4191 97.9491 97.4191 98.4836 96.4032C98.9387 95.5202 99.3937 94.6372 99.8625 93.7274C100.315 92.8573 100.767 91.9872 101.234 91.0907C102.523 88.4737 102.523 88.4737 102.933 85.6962C103.425 83.4149 103.425 83.4149 105.863 81.6024C108.425 80.4149 108.425 80.4149 110.425 80.4149Z" fill="#F2D568"/>
<path d="M117.425 56.4149C117.755 56.4149 118.085 56.4149 118.425 56.4149C117.879 63.5148 115.788 69.7263 113.425 76.4149C112.755 78.4138 112.087 80.4134 111.425 82.4149C111.095 81.7549 110.765 81.0949 110.425 80.4149C109.435 81.0749 108.445 81.7349 107.425 82.4149C104.738 82.5399 104.738 82.5399 102.425 82.4149C102.425 81.4249 102.425 80.4349 102.425 79.4149C103.188 79.3324 103.951 79.2499 104.738 79.1649C108 78.2545 108.736 77.2861 110.425 74.4149C111.43 71.4 111.528 69.3731 111.488 66.2274C111.479 65.3264 111.47 64.4253 111.46 63.4969C111.449 62.8099 111.437 62.1228 111.425 61.4149C112.415 61.4149 113.405 61.4149 114.425 61.4149C116.07 58.9516 116.07 58.9516 117.425 56.4149Z" fill="#0D0D0C"/>
<path d="M58.425 23.4149C58.755 23.4149 59.085 23.4149 59.425 23.4149C59.4392 23.9718 59.4534 24.5287 59.468 25.1024C59.8513 31.2342 61.1725 35.8559 65.425 40.4149C69.2217 43.1609 73.2425 45.3236 77.425 47.4149C77.425 48.0749 77.425 48.7349 77.425 49.4149C70.3214 49.0597 65.9781 44.7127 60.925 40.1649C59.425 38.4149 59.425 38.4149 59.425 36.4149C57.445 37.4049 57.445 37.4049 55.425 38.4149C55.7334 36.2893 56.0469 34.1644 56.3625 32.0399C56.5366 30.8566 56.7106 29.6732 56.8899 28.454C57.425 25.4149 57.425 25.4149 58.425 23.4149Z" fill="#171512"/>
<path d="M64.425 104.415C65.415 104.91 66.405 105.405 67.425 105.915C73.1954 108.353 78.1715 108.046 83.925 105.915C85.6575 105.172 85.6575 105.172 87.425 104.415C87.425 105.075 87.425 105.735 87.425 106.415C88.085 106.415 88.745 106.415 89.425 106.415C89.425 110.375 89.425 114.335 89.425 118.415C89.095 118.415 88.765 118.415 88.425 118.415C88.425 114.785 88.425 111.155 88.425 107.415C86.6925 108.405 86.6925 108.405 84.925 109.415C80.6382 111.528 77.1526 112.36 72.425 111.415C69.6168 110.299 67.0192 108.96 64.425 107.415C64.425 106.425 64.425 105.435 64.425 104.415Z" fill="#27231E"/>
<path d="M41.4252 60.4149C42.0852 60.4149 42.7452 60.4149 43.4252 60.4149C43.9285 63.0185 44.428 65.6227 44.9252 68.2274C45.0683 68.9654 45.2114 69.7034 45.3588 70.4637C45.9344 73.4929 46.4252 76.3241 46.4252 79.4149C43.8403 78.4345 42.4768 77.4757 40.6752 75.3524C38.9879 71.3873 38.811 67.674 39.4252 63.4149C40.0852 62.4249 40.7452 61.4349 41.4252 60.4149Z" fill="#EDCBAD"/>
<path d="M108.425 60.4149C109.745 61.0749 111.065 61.7349 112.425 62.4149C112.769 68.152 112.792 72.4847 109.425 77.4149C107.238 78.7899 107.238 78.7899 105.425 79.4149C106.149 73.0229 107.228 66.7346 108.425 60.4149Z" fill="#E7C6A9"/>
<path d="M74.05 12.8524C75.0529 12.9542 76.0558 13.0561 77.0891 13.161C77.86 13.2448 78.6308 13.3286 79.425 13.4149C79.425 13.7449 79.425 14.0749 79.425 14.4149C78.8566 14.4407 78.2881 14.4665 77.7024 14.493C71.8742 14.9211 68.2174 16.0321 63.425 19.4149C61.1497 21.9867 61.1497 21.9867 59.425 24.4149C58.435 24.9099 58.435 24.9099 57.425 25.4149C57.425 24.7549 57.425 24.0949 57.425 23.4149C55.115 23.7449 52.805 24.0749 50.425 24.4149C50.755 23.0949 51.085 21.7749 51.425 20.4149C53.1885 20.353 53.1885 20.353 54.9875 20.2899C59.4837 19.7628 61.7884 17.8774 64.9797 14.7899C67.9663 11.9487 70.1072 12.4398 74.05 12.8524Z" fill="#1C1B16"/>
<path d="M106.425 32.4149C108.782 32.7929 110.082 33.0339 111.705 34.8385C112.886 36.8321 114.054 38.8244 115.175 40.8524C115.58 41.5736 115.984 42.2949 116.401 43.038C119.322 48.538 120.643 53.1623 119.425 59.4149C118.435 58.7549 117.445 58.0949 116.425 57.4149C116.363 56.1568 116.301 54.8987 116.238 53.6024C115.813 47.5314 112.499 43.1619 109.238 38.2352C107.425 35.4149 107.425 35.4149 106.425 32.4149Z" fill="#181B13"/>
<path d="M97.425 25.4149C102.425 26.4149 102.425 26.4149 104.675 28.7899C106.425 31.4149 106.425 31.4149 107.425 34.4149C106.435 34.4149 105.445 34.4149 104.425 34.4149C104.095 35.7349 103.765 37.0549 103.425 38.4149C102.105 38.0849 100.785 37.7549 99.425 37.4149C98.765 33.4549 98.105 29.4949 97.425 25.4149Z" fill="#F5D45D"/>
<path d="M79.425 67.4149C80.085 67.4149 80.745 67.4149 81.425 67.4149C81.9305 69.8537 82.4233 72.2934 82.8938 74.7391C83.3296 76.9341 83.8363 79.1149 84.3625 81.2899C84.425 84.4149 84.425 84.4149 82.425 86.8524C78.8427 88.7182 76.4106 88.7275 72.425 88.4149C72.095 87.4249 71.765 86.4349 71.425 85.4149C72.3325 85.4355 73.24 85.4562 74.175 85.4774C76.88 85.4254 78.8598 85.1231 81.425 84.4149C81.2807 83.7743 81.1363 83.1336 80.9875 82.4735C79.8847 77.3345 79.1967 72.668 79.425 67.4149Z" fill="#22201D"/>
<path d="M57.425 99.4149C61.1609 100.887 61.1609 100.887 62.425 103.415C61.435 103.415 60.445 103.415 59.425 103.415C59.425 104.075 59.425 104.735 59.425 105.415C60.085 105.415 60.745 105.415 61.425 105.415C61.095 106.735 60.765 108.055 60.425 109.415C60.425 108.425 60.425 107.435 60.425 106.415C55.6469 107.794 55.6469 107.794 52.2922 111.173C51.5783 112.885 50.9916 114.649 50.425 116.415C50.095 116.415 49.765 116.415 49.425 116.415C49.425 113.445 49.425 110.475 49.425 107.415C52.065 106.095 54.705 104.775 57.425 103.415C56.765 102.425 56.105 101.435 55.425 100.415C56.085 100.085 56.745 99.7549 57.425 99.4149Z" fill="#0D1112"/>
<path d="M81.425 43.4149C86.045 45.7249 90.665 48.0349 95.425 50.4149C95.425 50.7449 95.425 51.0749 95.425 51.4149C90.5826 52.7508 86.4907 53.6682 81.425 53.4149C81.095 52.7549 80.765 52.0949 80.425 51.4149C81.745 51.4149 83.065 51.4149 84.425 51.4149C83.6825 50.2702 83.6825 50.2702 82.925 49.1024C81.425 46.4149 81.425 46.4149 81.425 43.4149Z" fill="#EFD9BA"/>
<path d="M52.425 58.4149C58.8313 58.2064 64.3548 58.2566 70.425 60.4149C69.435 60.9099 69.435 60.9099 68.425 61.4149C67.7729 63.4396 67.7729 63.4396 67.425 65.4149C66.9288 65.1378 66.4325 64.8606 65.9211 64.5751C61.3319 62.1281 57.6095 60.847 52.425 60.4149C52.425 59.7549 52.425 59.0949 52.425 58.4149Z" fill="#F2D8BA"/>
<path d="M46.425 67.4149C48.743 71.1237 49.3808 75.0959 49.425 79.4149C48.4875 81.9149 48.4875 81.9149 47.425 83.4149C45.445 82.4249 43.465 81.4349 41.425 80.4149C42.085 79.4249 42.745 78.4349 43.425 77.4149C44.415 78.0749 45.405 78.7349 46.425 79.4149C46.2575 78.7162 46.0899 78.0176 45.9172 77.2977C45.7136 76.3877 45.5099 75.4776 45.3 74.5399C45.0912 73.635 44.8824 72.7301 44.6672 71.7977C44.5873 71.0114 44.5074 70.2251 44.425 69.4149C45.085 68.7549 45.745 68.0949 46.425 67.4149Z" fill="#24231F"/>
<path d="M90.675 58.2899C91.5671 58.3079 92.4591 58.326 93.3782 58.3446C94.3914 58.3794 94.3914 58.3794 95.425 58.4149C95.755 59.0749 96.085 59.7349 96.425 60.4149C95.8218 60.6082 95.2185 60.8016 94.5969 61.0008C93.7977 61.2612 92.9985 61.5216 92.175 61.7899C91.3861 62.0451 90.5972 62.3003 89.7844 62.5633C87.5588 63.3666 85.5157 64.312 83.425 65.4149C82.765 63.7649 82.105 62.1149 81.425 60.4149C84.6369 58.5088 86.9639 58.1922 90.675 58.2899Z" fill="#EBD2B4"/>
<path d="M101.425 80.4149C101.755 81.0749 102.085 81.7349 102.425 82.4149C103.415 82.7449 104.405 83.0749 105.425 83.4149C104.765 83.4149 104.105 83.4149 103.425 83.4149C103.343 84.4255 103.26 85.4362 103.175 86.4774C102.585 90.7928 100.736 93.7623 98.425 97.4149C97.435 96.7549 96.445 96.0949 95.425 95.4149C96.0438 94.4249 96.6625 93.4349 97.3 92.4149C99.5477 88.5174 100.501 84.8031 101.425 80.4149Z" fill="#1C1813"/>
<path d="M98.425 32.4149C98.755 32.4149 99.085 32.4149 99.425 32.4149C99.5894 33.6273 99.5894 33.6273 99.757 34.8641C99.9156 35.9328 100.074 37.0014 100.238 38.1024C100.388 39.1582 100.539 40.2139 100.695 41.3016C101.449 44.5169 102.584 46.6959 104.425 49.4149C102.425 49.4149 100.425 49.4149 98.425 49.4149C98.06 47.8341 97.7084 46.2501 97.3625 44.6649C97.1653 43.7832 96.9681 42.9015 96.7648 41.993C96.4202 39.3783 96.5993 37.8869 97.425 35.4149C97.755 34.4249 98.085 33.4349 98.425 32.4149Z" fill="#25231D"/>
<path d="M48.425 51.4149C49.085 52.7349 49.745 54.0549 50.425 55.4149C50.095 55.7449 49.765 56.0749 49.425 56.4149C53.055 56.7449 56.685 57.0749 60.425 57.4149C60.425 57.7449 60.425 58.0749 60.425 58.4149C57.785 58.4149 55.145 58.4149 52.425 58.4149C52.095 59.7349 51.765 61.0549 51.425 62.4149C49.775 61.4249 48.125 60.4349 46.425 59.4149C46.095 60.0749 45.765 60.7349 45.425 61.4149C46.175 54.7899 46.175 54.7899 48.425 51.4149Z" fill="#D7B99A"/>
<path d="M68.425 92.4149C73.375 92.4149 78.325 92.4149 83.425 92.4149C83.095 93.4049 82.765 94.3949 82.425 95.4149C78.1451 97.5549 72.9346 96.5081 68.425 95.4149C68.425 94.4249 68.425 93.4349 68.425 92.4149Z" fill="#292421"/>
<path d="M99.425 47.4149C102.092 49.9044 103.983 52.049 105.425 55.4149C104.435 55.7449 103.445 56.0749 102.425 56.4149C101.868 55.9612 101.311 55.5074 100.738 55.0399C97.3876 52.6859 94.4791 52.7528 90.425 52.4149C90.425 52.0849 90.425 51.7549 90.425 51.4149C90.9909 51.2937 91.5568 51.1726 92.1399 51.0477C93.2401 50.7964 93.2401 50.7964 94.3625 50.5399C95.0934 50.3775 95.8243 50.2151 96.5774 50.0477C98.6321 49.5853 98.6321 49.5853 99.425 47.4149Z" fill="#DBC2A1"/>
<path d="M78.425 39.4149C79.415 39.7449 80.405 40.0749 81.425 40.4149C80.765 41.7349 80.105 43.0549 79.425 44.4149C80.085 44.4149 80.745 44.4149 81.425 44.4149C84.425 48.7995 84.425 48.7995 84.425 51.4149C81.785 51.0849 79.145 50.7549 76.425 50.4149C76.755 49.4249 77.085 48.4349 77.425 47.4149C78.085 47.4149 78.745 47.4149 79.425 47.4149C79.095 46.7549 78.765 46.0949 78.425 45.4149C78.3851 43.4153 78.3816 41.4144 78.425 39.4149Z" fill="#2D291D"/>
<path d="M54.425 52.4149C60.1635 52.2108 65.0304 52.1435 70.425 54.4149C70.425 56.0649 70.425 57.7149 70.425 59.4149C68.775 59.0849 67.125 58.7549 65.425 58.4149C66.415 58.0849 67.405 57.7549 68.425 57.4149C68.425 56.7549 68.425 56.0949 68.425 55.4149C67.4118 55.3415 67.4118 55.3415 66.3782 55.2665C65.4861 55.1917 64.5941 55.117 63.675 55.0399C62.7933 54.9703 61.9116 54.9007 61.0032 54.829C58.4344 54.4164 56.6666 53.7033 54.425 52.4149Z" fill="#1B1D18"/>
<path d="M59.425 103.415C61.9 103.91 61.9 103.91 64.425 104.415C64.425 105.075 64.425 105.735 64.425 106.415C63.765 106.415 63.105 106.415 62.425 106.415C62.755 111.035 63.085 115.655 63.425 120.415C62.435 120.085 61.445 119.755 60.425 119.415C60.3979 117.832 60.3786 116.248 60.3625 114.665C60.3509 113.783 60.3393 112.901 60.3274 111.993C60.4168 109.633 60.7559 107.67 61.425 105.415C60.765 105.415 60.105 105.415 59.425 105.415C59.425 104.755 59.425 104.095 59.425 103.415Z" fill="#060607"/>
<path d="M54.425 36.4149C55.085 37.4049 55.745 38.3949 56.425 39.4149C54.775 42.7149 53.125 46.0149 51.425 49.4149C50.105 49.0849 48.785 48.7549 47.425 48.4149C49.735 44.4549 52.045 40.4949 54.425 36.4149Z" fill="#25231D"/>
<path d="M40.425 34.4149C41.415 35.0749 42.405 35.7349 43.425 36.4149C41.0414 40.7566 38.6439 44.6213 35.425 48.4149C34.7766 46.6376 34.7766 46.6376 34.425 44.4149C35.386 42.5985 35.386 42.5985 36.8 40.8524C38.619 38.5711 39.4786 37.2544 40.425 34.4149Z" fill="#121513"/>
<path d="M91.425 57.4149C92.6832 57.3737 93.9413 57.3324 95.2375 57.2899C95.9452 57.2667 96.6529 57.2435 97.3821 57.2196C99.425 57.4149 99.425 57.4149 102.425 59.4149C102.755 60.4049 103.085 61.3949 103.425 62.4149C102.765 63.0749 102.105 63.7349 101.425 64.4149C101.095 63.7549 100.765 63.0949 100.425 62.4149C98.2993 61.9484 98.2993 61.9484 95.8625 61.7899C95.0363 61.7152 94.21 61.6404 93.3586 61.5634C92.7206 61.5144 92.0825 61.4654 91.425 61.4149C92.745 60.7549 94.065 60.0949 95.425 59.4149C94.105 58.7549 92.785 58.0949 91.425 57.4149Z" fill="#D1B698"/>
<path d="M81.425 54.4149C82.415 54.4149 83.405 54.4149 84.425 54.4149C84.425 55.0749 84.425 55.7349 84.425 56.4149C89.705 56.4149 94.985 56.4149 100.425 56.4149C100.425 56.7449 100.425 57.0749 100.425 57.4149C91.02 58.4049 91.02 58.4049 81.425 59.4149C81.425 57.7649 81.425 56.1149 81.425 54.4149Z" fill="#141612"/>
<path d="M106.425 32.4149C108.222 32.5673 108.222 32.5673 110.425 33.4149C112.128 35.9188 112.128 35.9188 113.675 38.9774C114.456 40.4953 114.456 40.4953 115.253 42.0438C115.64 42.8263 116.027 43.6087 116.425 44.4149C115.435 44.7449 114.445 45.0749 113.425 45.4149C112.256 43.4373 111.09 41.4578 109.925 39.4774C109.275 38.3753 108.626 37.2731 107.956 36.1376C106.425 33.4149 106.425 33.4149 106.425 32.4149Z" fill="#1D201A"/>
<path d="M86.425 104.415C86.755 105.075 87.085 105.735 87.425 106.415C88.085 106.415 88.745 106.415 89.425 106.415C89.425 110.375 89.425 114.335 89.425 118.415C89.095 118.415 88.765 118.415 88.425 118.415C88.425 114.785 88.425 111.155 88.425 107.415C87.4763 107.91 86.5275 108.405 85.55 108.915C82.425 110.415 82.425 110.415 80.425 110.415C80.095 109.425 79.765 108.435 79.425 107.415C81.735 106.425 84.045 105.435 86.425 104.415Z" fill="#443D35"/>
<path d="M83.425 138.415C84.745 138.745 86.065 139.075 87.425 139.415C85.445 143.045 83.465 146.675 81.425 150.415C80.435 150.415 79.445 150.415 78.425 150.415C80.075 146.455 81.725 142.495 83.425 138.415Z" fill="#663D23"/>
<path d="M97.425 25.4149C100.667 25.7654 102.04 25.9771 104.238 28.4774C104.629 29.1168 105.021 29.7562 105.425 30.4149C104.435 30.9099 104.435 30.9099 103.425 31.4149C102.765 31.0849 102.105 30.7549 101.425 30.4149C101.095 31.0749 100.765 31.7349 100.425 32.4149C99.765 32.4149 99.105 32.4149 98.425 32.4149C98.095 30.1049 97.765 27.7949 97.425 25.4149Z" fill="#E9CB59"/>
<path d="M38.425 59.4149C40.1807 62.4373 40.6347 64.4992 40.4875 67.9774C40.3725 70.9432 40.4644 72.5331 41.425 75.4149C40.435 75.7449 39.445 76.0749 38.425 76.4149C37.765 74.4349 37.105 72.4549 36.425 70.4149C37.085 70.4149 37.745 70.4149 38.425 70.4149C37.9402 65.769 37.9402 65.769 36.425 61.4149C37.085 61.4149 37.745 61.4149 38.425 61.4149C38.425 60.7549 38.425 60.0949 38.425 59.4149Z" fill="#2C2B25"/>
<path d="M80.425 40.4149C83.8643 41.6569 86.6771 42.9723 89.425 45.4149C89.425 46.0749 89.425 46.7349 89.425 47.4149C86.4842 46.7847 84.1047 45.7548 81.425 44.4149C80.765 44.4149 80.105 44.4149 79.425 44.4149C79.755 43.0949 80.085 41.7749 80.425 40.4149Z" fill="#121110"/>
<path d="M108.425 120.415C111.725 121.405 115.025 122.395 118.425 123.415C118.425 124.405 118.425 125.395 118.425 126.415C114.795 125.425 111.165 124.435 107.425 123.415C107.755 122.425 108.085 121.435 108.425 120.415Z" fill="#110F0E"/>
<path d="M46.425 121.415C43.739 123.206 41.7624 124.075 38.7375 125.04C37.9293 125.3 37.1211 125.561 36.2883 125.829C35.6734 126.022 35.0586 126.216 34.425 126.415C34.095 125.425 33.765 124.435 33.425 123.415C41.687 119.786 41.687 119.786 46.425 121.415Z" fill="#0B0F10"/>
<path d="M96.425 24.4149C97.085 24.7449 97.745 25.0749 98.425 25.4149C98.425 29.7049 98.425 33.9949 98.425 38.4149C96.5219 35.5601 95.9631 33.9955 95.3 30.7274C95.1325 29.9192 94.9649 29.1109 94.7922 28.2782C94.6711 27.6633 94.5499 27.0484 94.425 26.4149C95.085 26.4149 95.745 26.4149 96.425 26.4149C96.425 25.7549 96.425 25.0949 96.425 24.4149Z" fill="#1D1912"/>
<path d="M54.425 96.4149C55.745 97.0749 57.065 97.7349 58.425 98.4149C57.3 99.9774 57.3 99.9774 55.425 101.415C52.2375 101.102 52.2375 101.102 49.425 100.415C49.425 99.4249 49.425 98.4349 49.425 97.4149C51.075 97.7449 52.725 98.0749 54.425 98.4149C54.425 97.7549 54.425 97.0949 54.425 96.4149Z" fill="#0A0D0C"/>
<path d="M47.425 49.4149C48.415 49.7449 49.405 50.0749 50.425 50.4149C49.1511 52.4533 47.8144 54.4534 46.425 56.4149C45.765 56.4149 45.105 56.4149 44.425 56.4149C44.425 57.0749 44.425 57.7349 44.425 58.4149C42.775 58.7449 41.125 59.0749 39.425 59.4149C40.3814 58.1218 41.3402 56.8304 42.3 55.5399C42.8337 54.8206 43.3674 54.1013 43.9172 53.3602C45.425 51.4149 45.425 51.4149 47.425 49.4149Z" fill="#161413"/>
<path d="M58.425 23.4149C58.755 23.4149 59.085 23.4149 59.425 23.4149C59.452 25.0398 59.4714 26.6649 59.4875 28.2899C59.4992 29.1948 59.5108 30.0998 59.5227 31.0321C59.425 33.4149 59.425 33.4149 58.425 35.4149C59.085 35.7449 59.745 36.0749 60.425 36.4149C58.775 37.0749 57.125 37.7349 55.425 38.4149C55.7334 36.2893 56.0469 34.1644 56.3625 32.0399C56.5366 30.8566 56.7106 29.6732 56.8899 28.454C57.425 25.4149 57.425 25.4149 58.425 23.4149Z" fill="#06050B"/>
<path d="M72.425 121.415C75.2454 121.122 75.2454 121.122 78.55 121.227C80.1936 121.268 80.1936 121.268 81.8704 121.309C82.7134 121.344 83.5565 121.379 84.425 121.415C84.425 122.075 84.425 122.735 84.425 123.415C81.2757 124.465 79.0369 124.516 75.7375 124.477C74.7437 124.468 73.7498 124.459 72.7258 124.45C71.5869 124.433 71.5869 124.433 70.425 124.415C71.085 123.425 71.745 122.435 72.425 121.415Z" fill="#182D32"/>
<path d="M68.425 141.415C71.0697 144.54 72.2692 147.503 73.425 151.415C70.425 150.415 70.425 150.415 69.2571 148.567C68.9206 147.836 68.5842 147.105 68.2375 146.352C67.8934 145.619 67.5492 144.885 67.1946 144.13C66.9406 143.564 66.6867 142.998 66.425 142.415C67.085 142.085 67.745 141.755 68.425 141.415Z" fill="#5F3B25"/>
<path d="M52.425 105.415C53.415 106.405 54.405 107.395 55.425 108.415C54.435 108.91 54.435 108.91 53.425 109.415C52.3715 111.725 51.3679 114.058 50.425 116.415C50.095 116.415 49.765 116.415 49.425 116.415C49.3441 114.957 49.2859 113.499 49.2375 112.04C49.2027 111.228 49.1679 110.416 49.1321 109.579C49.2288 108.865 49.3254 108.151 49.425 107.415C50.415 106.755 51.405 106.095 52.425 105.415Z" fill="#121E1E"/>
<path d="M40.425 75.4149C41.085 75.7449 41.745 76.0749 42.425 76.4149C41.765 80.3749 41.105 84.3349 40.425 88.4149C40.095 88.4149 39.765 88.4149 39.425 88.4149C39.3982 86.4358 39.3787 84.4566 39.3625 82.4774C39.3509 81.3753 39.3393 80.2731 39.3274 79.1376C39.425 76.4149 39.425 76.4149 40.425 75.4149Z" fill="#0B0F12"/>
<path d="M95.425 58.4149C95.755 59.0749 96.085 59.7349 96.425 60.4149C94.9704 60.804 93.5111 61.1758 92.05 61.5399C90.8319 61.8532 90.8319 61.8532 89.5891 62.1727C88.875 62.2527 88.1608 62.3326 87.425 62.4149C86.765 61.7549 86.105 61.0949 85.425 60.4149C88.827 58.3214 91.4778 58.2355 95.425 58.4149Z" fill="#FAE6C2"/>
<path d="M68.425 43.4149C72.88 45.3949 72.88 45.3949 77.425 47.4149C77.425 48.0749 77.425 48.7349 77.425 49.4149C73.6902 48.9169 71.6127 48.54 68.425 46.4149C68.425 45.4249 68.425 44.4349 68.425 43.4149Z" fill="#0F0F0F"/>
<path d="M101.425 24.4149C105.22 25.9059 107.035 28.1719 109.425 31.4149C109.095 32.0749 108.765 32.7349 108.425 33.4149C105.461 30.6069 102.98 28.2318 101.425 24.4149Z" fill="#08080A"/>
<path d="M71.425 11.4149C72.8833 11.3879 74.3417 11.3685 75.8 11.3524C76.6122 11.3408 77.4243 11.3292 78.261 11.3173C80.425 11.4149 80.425 11.4149 82.425 12.4149C82.425 13.0749 82.425 13.7349 82.425 14.4149C78.465 14.0849 74.505 13.7549 70.425 13.4149C70.755 12.7549 71.085 12.0949 71.425 11.4149Z" fill="#070B0E"/>
<path d="M111.425 77.4149C111.755 77.4149 112.085 77.4149 112.425 77.4149C113.527 81.8241 113.502 85.8987 113.425 90.4149C112.435 90.0849 111.445 89.7549 110.425 89.4149C110.343 85.2535 110.443 81.4677 111.425 77.4149Z" fill="#212F26"/>
<path d="M34.425 59.4149C35.085 59.4149 35.745 59.4149 36.425 59.4149C38.751 63.0491 38.5877 66.1858 38.425 70.4149C37.765 70.4149 37.105 70.4149 36.425 70.4149C35.765 66.7849 35.105 63.1549 34.425 59.4149Z" fill="#060607"/>
<path d="M82.425 12.4149C89.3 15.1649 89.3 15.1649 90.425 17.4149C86.2492 18.8069 84.2903 17.2381 80.425 15.4149C81.085 15.0849 81.745 14.7549 82.425 14.4149C82.425 13.7549 82.425 13.0949 82.425 12.4149Z" fill="#1D1C18"/>
<path d="M91.425 61.4149C94.395 61.4149 97.365 61.4149 100.425 61.4149C100.755 62.4049 101.085 63.3949 101.425 64.4149C98.785 64.4149 96.145 64.4149 93.425 64.4149C93.425 63.7549 93.425 63.0949 93.425 62.4149C92.765 62.0849 92.105 61.7549 91.425 61.4149Z" fill="#151513"/>
<path d="M91.425 117.415C90.2879 120.826 89.3816 121.533 86.425 123.415C85.765 123.415 85.105 123.415 84.425 123.415C84.095 122.425 83.765 121.435 83.425 120.415C89.175 117.415 89.175 117.415 91.425 117.415Z" fill="#1D1F1C"/>
<path d="M64.425 104.415C67.89 105.9 67.89 105.9 71.425 107.415C71.425 108.405 71.425 109.395 71.425 110.415C68.4875 109.665 68.4875 109.665 65.425 108.415C64.55 106.29 64.55 106.29 64.425 104.415Z" fill="#1B1715"/>
<path d="M76.425 142.415C77.415 142.745 78.405 143.075 79.425 143.415C78.435 145.395 77.445 147.375 76.425 149.415C74.925 148.04 74.925 148.04 73.425 146.415C73.425 145.755 73.425 145.095 73.425 144.415C74.085 144.415 74.745 144.415 75.425 144.415C75.755 143.755 76.085 143.095 76.425 142.415Z" fill="#348DB5"/>
<path d="M93.425 98.4149C94.085 98.4149 94.745 98.4149 95.425 98.4149C94.8516 101.282 94.5636 102.276 92.425 104.415C91.435 104.415 90.445 104.415 89.425 104.415C90.5768 101.947 91.4729 100.367 93.425 98.4149Z" fill="#171B1A"/>
<path d="M49.4251 89.4149C51.3677 92.3289 52.889 95.273 54.4251 98.4149C50.5501 97.5399 50.5501 97.5399 49.4251 96.4149C49.3841 94.0819 49.3826 91.7479 49.4251 89.4149Z" fill="#E6CA6B"/>
<path d="M103.425 72.4149C104.415 72.7449 105.405 73.0749 106.425 73.4149C106.425 75.7249 106.425 78.0349 106.425 80.4149C105.105 80.0849 103.785 79.7549 102.425 79.4149C102.755 77.1049 103.085 74.7949 103.425 72.4149Z" fill="#322E29"/>
<path d="M46.425 67.4149C48.1897 70.503 48.425 71.648 48.425 75.4149C47.435 75.7449 46.445 76.0749 45.425 76.4149C44.8 73.0399 44.8 73.0399 44.425 69.4149C45.085 68.7549 45.745 68.0949 46.425 67.4149Z" fill="#37322B"/>
<path d="M52.425 58.4149C55.395 58.4149 58.365 58.4149 61.425 58.4149C61.425 59.4049 61.425 60.3949 61.425 61.4149C58.455 61.0849 55.485 60.7549 52.425 60.4149C52.425 59.7549 52.425 59.0949 52.425 58.4149Z" fill="#FDE1B9"/>
<path d="M111.425 85.4149C111.755 85.4149 112.085 85.4149 112.425 85.4149C112.613 88.7899 112.613 88.7899 112.425 92.4149C111.435 93.0749 110.445 93.7349 109.425 94.4149C108.435 93.7549 107.445 93.0949 106.425 92.4149C107.064 92.0024 107.704 91.5899 108.363 91.1649C110.635 89.2368 111.027 88.3007 111.425 85.4149Z" fill="#181A14"/>
<path d="M106.425 63.4149C106.755 63.4149 107.085 63.4149 107.425 63.4149C107.55 71.1649 107.55 71.1649 106.425 73.4149C105.765 73.4149 105.105 73.4149 104.425 73.4149C104.883 69.9455 105.316 66.741 106.425 63.4149Z" fill="#0C0D0B"/>
<path d="M55.9875 60.3524C57.1219 60.373 58.2563 60.3937 59.425 60.4149C58.2375 62.4149 58.2375 62.4149 56.425 64.4149C53.7375 64.6649 53.7375 64.6649 51.425 64.4149C51.425 60.0697 51.5499 60.4303 55.9875 60.3524Z" fill="#51483B"/>
<path d="M86.425 18.4149C88.2375 18.6024 88.2375 18.6024 90.425 19.4149C92.175 21.9774 92.175 21.9774 93.425 24.4149C88.7481 22.938 88.7481 22.938 87.1125 20.2899C86.8857 19.6712 86.6588 19.0524 86.425 18.4149Z" fill="#E7CF6D"/>
<path d="M66.425 129.415C68.1713 132.034 68.8123 133.453 69.425 136.415C68.435 136.415 67.445 136.415 66.425 136.415C65.765 134.435 65.105 132.455 64.425 130.415C65.085 130.085 65.745 129.755 66.425 129.415Z" fill="#14191A"/>
<path d="M51.425 101.415C53.405 101.415 55.385 101.415 57.425 101.415C57.425 102.405 57.425 103.395 57.425 104.415C55.445 104.415 53.465 104.415 51.425 104.415C51.425 103.425 51.425 102.435 51.425 101.415Z" fill="#17767C"/>
<path d="M95.425 69.4149C94.765 70.7349 94.105 72.0549 93.425 73.4149C91.775 73.4149 90.125 73.4149 88.425 73.4149C88.095 72.7549 87.765 72.0949 87.425 71.4149C93.175 69.4149 93.175 69.4149 95.425 69.4149Z" fill="#151513"/>
<path d="M40.425 34.4149C41.415 35.0749 42.405 35.7349 43.425 36.4149C42.435 38.3949 41.445 40.3749 40.425 42.4149C39.3 40.6649 39.3 40.6649 38.425 38.4149C39.3 36.1649 39.3 36.1649 40.425 34.4149Z" fill="#1B1E19"/>
<path d="M101.425 80.4149C101.755 81.0749 102.085 81.7349 102.425 82.4149C103.415 82.7449 104.405 83.0749 105.425 83.4149C104.765 83.4149 104.105 83.4149 103.425 83.4149C103.425 85.0649 103.425 86.7149 103.425 88.4149C102.435 87.7549 101.445 87.0949 100.425 86.4149C100.755 84.4349 101.085 82.4549 101.425 80.4149Z" fill="#3A3327"/>
<path d="M65.425 54.4149C67.075 54.4149 68.725 54.4149 70.425 54.4149C70.425 56.0649 70.425 57.7149 70.425 59.4149C68.775 59.0849 67.125 58.7549 65.425 58.4149C66.415 58.0849 67.405 57.7549 68.425 57.4149C68.425 56.7549 68.425 56.0949 68.425 55.4149C67.435 55.0849 66.445 54.7549 65.425 54.4149Z" fill="#0B0E0E"/>
</svg>
