<svg width="153" height="153" viewBox="0 0 153 153" fill="none" xmlns="http://www.w3.org/2000/svg">
<path d="M75.2215 0.0488426C76.8699 0.0246727 76.8699 0.0246727 78.5516 1.4523e-05C89.2756 -0.00630487 98.9609 2.04924 108.471 7.04884C109.147 7.39769 109.823 7.74655 110.519 8.10597C129.958 18.3951 142.737 34.3873 149.409 55.3613C155.213 74.5323 151.621 95.1428 142.682 112.646C132.232 131.988 115.145 143.802 94.5731 150.232C75.5801 155.678 55.8075 152.414 38.6082 143.295C33.8232 140.403 29.6227 137.017 25.409 133.361C24.5943 132.745 23.7796 132.129 22.9402 131.494C10.4964 121.009 2.7706 104.222 0.40899 88.3613C-0.835519 68.3531 0.044095 49.3992 13.409 33.3613C13.8434 32.4345 14.2778 31.5077 14.7254 30.5527C21.9598 16.8392 39.1794 6.95688 53.409 2.36134C60.6624 0.231478 67.697 0.0270071 75.2215 0.0488426Z" fill="#070605"/>
<path d="M75.2213 0.0488426C76.8697 0.0246727 76.8697 0.0246727 78.5514 1.4523e-05C89.2754 -0.00630487 98.9607 2.04924 108.471 7.04884C109.147 7.39769 109.822 7.74655 110.518 8.10597C129.958 18.3951 142.736 34.3873 149.409 55.3613C155.213 74.5323 151.621 95.1428 142.682 112.646C132.231 131.988 115.145 143.802 94.5729 150.232C75.5799 155.678 55.8074 152.414 38.6081 143.295C33.823 140.403 29.6225 137.017 25.4088 133.361C24.5942 132.745 23.7795 132.129 22.9401 131.494C10.4963 121.009 2.77045 104.222 0.408843 88.3613C-0.732412 70.0131 0.272117 54.6127 9.40884 38.3613C10.5278 41.7183 10.3741 44.0267 10.2213 47.5488C10.2018 53.4198 10.6196 57.7429 14.4088 62.3613C20.0979 67.5811 24.3119 69.5009 32.0963 69.4238C33.2758 69.4148 34.4553 69.4058 35.6706 69.3965C36.5742 69.3849 37.4778 69.3733 38.4088 69.3613C37.4109 71.8673 36.4056 74.3691 35.3737 76.8613C35.0347 77.6863 34.6956 78.5113 34.3463 79.3613C34.0047 80.1863 33.6631 81.0113 33.3112 81.8613C29.2879 93.008 30.3312 109.429 35.2724 120.253C40.2815 129.447 48.2962 134.12 57.3776 138.756C59.937 140.111 62.2114 141.519 64.5338 143.236C68.9404 146.493 73.0454 147.061 78.4088 146.361C82.3379 144.967 85.5618 143.061 88.7721 140.408C92.3944 137.596 96.3366 135.865 100.471 133.924C107.837 130.006 112.276 124.487 115.456 116.846C119.395 103.839 119.491 87.6145 113.409 75.3613C112.732 73.6989 112.062 72.0332 111.409 70.3613C112.182 70.3356 112.956 70.3098 113.753 70.2832C121.173 69.8791 127.339 69.1503 132.936 63.9395C138.523 57.6564 139.105 51.228 138.85 43.0996C137.929 35.3005 133.064 30.4985 127.315 25.5527C120.421 21.2439 112.232 21.439 104.409 22.3613C99.3989 24.2384 95.7142 27.2796 92.8463 31.7988C89.9832 38.5012 90.2744 48.4895 92.4088 55.3613C91.6212 55.1448 90.8336 54.9282 90.0221 54.7051C78.2521 51.6964 67.8942 51.0057 56.4088 55.3613C56.7388 54.4332 57.0688 53.5051 57.4088 52.5488C59.2101 46.1008 59.5914 39.1747 56.7838 32.9863C53.471 27.3221 48.7026 23.884 42.5299 21.877C33.504 19.6828 27.2167 22.7173 19.4088 27.3613C18.0572 28.3364 16.716 29.3274 15.4088 30.3613C21.0862 17.1645 37.7724 8.47603 50.3971 3.334C58.7344 0.641407 66.4679 0.0234409 75.2213 0.0488426Z" fill="#DB3030"/>
<path d="M65.4088 58.3614C69.2004 60.5524 71.9934 63.7382 74.4088 67.3614C74.735 66.8793 75.0611 66.3971 75.3971 65.9004C75.8341 65.2688 76.2711 64.6371 76.7213 63.9864C77.1506 63.3599 77.5799 62.7334 78.0221 62.0879C79.9294 59.7133 81.6555 58.4846 84.6784 57.9903C89.2331 57.8713 91.7825 57.9902 95.7838 60.3614C102.812 68.394 104.825 77.6949 104.678 88.1739C104.236 93.4022 102.903 98.3454 101.409 103.361C102.461 103.444 103.513 103.526 104.596 103.611C108.807 104.44 110.56 105.178 113.409 108.361C114.772 111.95 114.878 114.162 113.471 117.756C109.731 124.674 103.797 131.493 96.1667 134.139C95.5866 134.212 95.0065 134.286 94.4088 134.361C94.0788 134.031 93.7488 133.701 93.4088 133.361C92.647 134.175 92.647 134.175 91.8698 135.006C86.4839 140.604 82.4428 144.403 74.4088 144.799C66.2384 144.506 61.7269 138.963 56.4088 133.361C54.9238 133.856 54.9238 133.856 53.4088 134.361C46.4314 131.196 40.931 125.418 36.4088 119.361C35.17 115.645 34.7415 112.218 35.4088 108.361C37.4088 105.861 37.4088 105.861 40.4088 104.361C43.1704 104.055 45.6142 104.172 48.4088 104.361C48.1923 103.86 47.9757 103.358 47.7526 102.842C44.0959 92.9044 43.4216 79.7166 46.9088 69.6114C50.7828 61.8363 56.5455 56.6459 65.4088 58.3614Z" fill="#EEC5A4"/>
<path d="M75.2214 0.0488426C76.8698 0.0246727 76.8698 0.0246727 78.5515 1.4523e-05C89.2755 -0.00630487 98.9608 2.04924 108.471 7.04884C109.147 7.39769 109.823 7.74655 110.519 8.10597C120.444 13.3596 133.67 21.1442 137.409 32.3613C136.419 33.3513 136.419 33.3513 135.409 34.3613C135.008 33.8302 134.607 33.2992 134.194 32.752C128.87 26.1363 124.315 22.9693 115.815 21.916C108.557 21.5822 102.912 21.8464 97.1511 26.5527C91.96 31.9417 91.1045 36.6949 91.0964 44.1113C91.1714 48.0074 91.2484 51.6251 92.4089 55.3613C91.6213 55.1448 90.8337 54.9282 90.0222 54.7051C78.2522 51.6964 67.8943 51.0057 56.4089 55.3613C56.7389 54.4332 57.0689 53.5051 57.4089 52.5488C59.2102 46.1008 59.5915 39.1747 56.7839 32.9863C53.4711 27.3221 48.7027 23.884 42.53 21.877C33.5041 19.6828 27.2168 22.7173 19.4089 27.3613C18.0573 28.3364 16.7161 29.3274 15.4089 30.3613C21.0863 17.1645 37.7725 8.47603 50.3972 3.334C58.7345 0.641407 66.468 0.0234409 75.2214 0.0488426Z" fill="#DC2F30"/>
<path d="M75.0964 16.9864C75.9684 16.9865 76.8404 16.9867 77.7388 16.9869C86.2438 17.1359 94.2063 18.5596 101.409 23.3614C100.501 24.0214 99.5939 24.6814 98.6589 25.3614C94.9455 28.5468 92.6707 31.5884 91.4089 36.3614C90.9394 42.6433 90.5201 49.2802 92.4089 55.3614C91.6213 55.1448 90.8337 54.9283 90.0222 54.7051C78.2522 51.6965 67.8943 51.0058 56.4089 55.3614C56.7389 54.4333 57.0689 53.5051 57.4089 52.5489C59.2074 46.1109 59.6279 39.1913 56.7214 33.0489C54.6648 29.4737 52.1632 26.4217 49.4089 23.3614C50.5639 22.7426 51.7189 22.1239 52.9089 21.4864C53.5586 21.1383 54.2083 20.7903 54.8777 20.4317C61.5528 17.6092 67.9332 16.9739 75.0964 16.9864Z" fill="#E25755"/>
<path d="M64.7214 72.9863C67.4089 73.3613 67.4089 73.3613 69.6589 75.7363C72.6147 80.17 72.5599 83.525 72.5339 88.7363C72.5378 89.5046 72.5416 90.2729 72.5456 91.0645C72.5443 91.8095 72.543 92.5546 72.5417 93.3223C72.5406 94.0008 72.5395 94.6793 72.5383 95.3784C72.4016 97.4737 71.9766 99.3436 71.4089 101.361C74.0489 101.361 76.6889 101.361 79.4089 101.361C79.0853 100.886 78.7618 100.41 78.4284 99.9199C76.9121 96.1147 77.0801 92.4824 77.0964 88.4238C77.0803 87.6253 77.0642 86.8267 77.0476 86.0039C77.0437 81.3331 77.2958 78.1029 80.4089 74.3613C83.3464 73.2988 83.3464 73.2988 86.4089 73.3613C89.2953 75.5456 90.2599 76.9144 91.4089 80.3613C91.9028 87.9213 92.2338 94.6677 88.4089 101.361C87.7489 101.361 87.0889 101.361 86.4089 101.361C86.7389 102.681 87.0689 104.001 87.4089 105.361C86.522 105.196 85.6352 105.031 84.7214 104.861C76.8025 103.746 68.9392 103.496 61.4089 106.361C61.4914 105.701 61.5739 105.041 61.6589 104.361C61.405 101.315 60.9011 100.29 59.4089 97.7363C56.749 92.7015 56.5758 87.9422 57.4089 82.3613C60.505 73.6701 60.505 73.6701 64.7214 72.9863Z" fill="#111110"/>
<path d="M133.409 65.3613C137.406 77.3527 133.799 90.4831 128.659 101.424C125.863 106.827 122.688 111.994 118.409 116.361C117.749 116.361 117.089 116.361 116.409 116.361C116.567 115.09 116.726 113.819 116.889 112.51C118.273 99.9461 119.148 86.9234 113.409 75.3613C112.732 73.6989 112.062 72.0332 111.409 70.3613C112.182 70.3355 112.956 70.3098 113.753 70.2832C120.573 69.9118 127.419 65.3613 133.409 65.3613Z" fill="#E35653"/>
<path d="M17.4089 66.3613C18.172 66.6707 18.9351 66.9801 19.7214 67.2988C24.1265 69.0404 27.3604 69.4707 32.0964 69.4238C33.2758 69.4148 34.4553 69.4058 35.6706 69.3965C36.5742 69.3849 37.4778 69.3733 38.4089 69.3613C37.4109 71.8673 36.4056 74.3691 35.3737 76.8613C34.8652 78.0988 34.8652 78.0988 34.3464 79.3613C34.0048 80.1863 33.6632 81.0113 33.3112 81.8613C31.709 86.3003 31.286 90.3955 31.3112 95.0996C31.3144 96.1663 31.3176 97.233 31.321 98.332C31.3293 99.4348 31.3377 100.538 31.3464 101.674C31.3509 102.796 31.3554 103.918 31.36 105.074C31.3718 107.837 31.3882 110.599 31.4089 113.361C27.4583 109.751 25.1107 106.419 22.7214 101.549C22.14 100.387 21.5586 99.2259 20.9596 98.0293C17.7498 90.4373 17.1301 84.0004 17.2839 75.8613C17.2929 74.9435 17.3019 74.0257 17.3112 73.0801C17.3345 70.8402 17.3673 68.6009 17.4089 66.3613Z" fill="#E45956"/>
<path d="M51.4089 110.361C51.0789 111.351 50.7489 112.341 50.4089 113.361C49.7489 113.361 49.0889 113.361 48.4089 113.361C53.5135 120.827 57.8952 124.523 66.4089 127.361C76.285 128.1 86.1001 128.034 94.3816 121.9C97.2106 119.265 98.6812 117.113 99.4089 113.361C98.7489 113.361 98.0889 113.361 97.4089 113.361C97.4089 112.701 97.4089 112.041 97.4089 111.361C100.784 111.611 100.784 111.611 104.409 112.361C105.846 114.424 105.846 114.424 106.409 116.361C105.089 116.031 103.769 115.701 102.409 115.361C102.03 116.481 102.03 116.481 101.643 117.623C100.323 120.552 99.0058 122.013 96.6589 124.174C93.8924 126.82 91.507 129.432 89.2839 132.549C85.6426 137.508 82.3688 141.302 76.0339 142.486C71.7503 142.687 68.9984 141.821 65.5144 139.346C61.7654 135.812 58.7771 131.681 55.7449 127.537C52.5702 123.221 49.2009 119.153 45.4089 115.361C44.4189 115.691 43.4289 116.021 42.4089 116.361C44.4352 111.685 46.1123 110.361 51.4089 110.361Z" fill="#0F0E0C"/>
<path d="M117.409 101.361C117.739 101.361 118.069 101.361 118.409 101.361C117.822 112.189 116.194 121.346 108.409 129.361C102.935 133.908 96.9994 137.195 90.5963 140.236C87.9049 141.621 85.7329 143.436 83.4088 145.361C79.2437 147.613 75.0602 148.065 70.4088 147.361C66.4904 145.959 63.2707 144.074 60.0651 141.424C57.2043 139.203 54.3411 137.712 51.0963 136.111C42.6424 131.617 36.4856 126.464 32.8854 117.416C32.4088 115.361 32.4088 115.361 33.1588 112.299C33.7776 111.34 33.7776 111.34 34.4088 110.361C34.7388 110.361 35.0688 110.361 35.4088 110.361C35.5532 111.64 35.6976 112.919 35.8463 114.236C37.4962 121.602 42.8654 126.981 49.0026 131.104C51.1083 132.283 53.208 133.373 55.4088 134.361C55.7388 133.701 56.0688 133.041 56.4088 132.361C57.0121 132.988 57.6154 133.614 58.237 134.26C59.0362 135.077 59.8354 135.894 60.6588 136.736C61.4477 137.548 62.2367 138.361 63.0495 139.197C67.5154 143.293 70.9542 143.822 76.8893 143.666C84.5608 142.738 89.4107 136.71 94.4088 131.361C95.0688 132.021 95.7288 132.681 96.4088 133.361C98.4252 132.048 100.419 130.713 102.409 129.361C103.234 128.825 104.059 128.289 104.909 127.736C108.982 123.867 112.817 118.806 113.788 113.154C113.824 111.07 113.824 111.07 113.409 108.361C114.399 108.031 115.389 107.701 116.409 107.361C116.739 105.381 117.069 103.401 117.409 101.361Z" fill="#19110F"/>
<path d="M79.4089 105.361C82.4318 106.747 84.0776 108.03 86.4089 110.361C86.8464 113.236 86.8464 113.236 86.4089 116.361C82.5032 120.267 79.0245 121.52 73.5964 121.736C70.0085 121.694 67.6887 121.399 64.7839 119.236C62.4089 116.361 62.4089 116.361 61.7214 113.299C62.6202 109.459 64.1489 108.457 67.4089 106.361C71.0903 104.521 75.3816 104.993 79.4089 105.361Z" fill="#0B0909"/>
<path d="M63.4089 75.3613C65.2214 75.4863 65.2214 75.4863 67.4089 76.3613C70.8221 81.2372 70.7513 85.6557 70.4089 91.3613C68.7589 92.0213 67.1089 92.6813 65.4089 93.3613C65.0789 96.0013 64.7489 98.6413 64.4089 101.361C60.8647 96.7384 60.203 93.8296 60.1589 88.0488C60.1332 86.7327 60.1074 85.4166 60.0808 84.0605C60.4185 80.2536 61.174 78.402 63.4089 75.3613Z" fill="#F1F1F0"/>
<path d="M117.409 101.361C117.739 101.361 118.069 101.361 118.409 101.361C117.822 112.189 116.195 121.346 108.409 129.361C102.94 133.905 97.0089 137.194 90.6082 140.229C87.9165 141.615 85.7164 143.414 83.4089 145.361C82.7489 145.361 82.0889 145.361 81.4089 145.361C82.8299 142.029 84.5255 140.125 87.2839 137.799C87.962 137.22 88.64 136.641 89.3386 136.045C91.3255 134.429 93.3483 132.881 95.4089 131.361C95.7389 132.021 96.0689 132.681 96.4089 133.361C98.4253 132.048 100.419 130.713 102.409 129.361C103.234 128.825 104.059 128.289 104.909 127.736C108.982 123.867 112.818 118.806 113.788 113.154C113.824 111.07 113.824 111.07 113.409 108.361C114.399 108.031 115.389 107.701 116.409 107.361C116.739 105.381 117.069 103.401 117.409 101.361Z" fill="#15100D"/>
<path d="M83.4089 75.3613C85.3464 76.1113 85.3464 76.1113 87.4089 77.3613C88.7174 80.8784 88.611 84.5216 88.6589 88.2363C88.6976 90.0268 88.6976 90.0268 88.737 91.8535C88.3804 95.6662 87.3191 98.0739 85.4089 101.361C85.0789 101.361 84.7489 101.361 84.4089 101.361C84.3715 100.735 84.3342 100.108 84.2956 99.4629C84.2299 98.6456 84.1642 97.8284 84.0964 96.9863C84.0094 95.7682 84.0094 95.7682 83.9206 94.5254C83.579 91.9821 83.579 91.9821 80.4089 90.3613C80.0789 91.0213 79.7489 91.6813 79.4089 92.3613C78.8541 80.6272 78.8541 80.6272 82.4089 76.3613C82.7389 76.0313 83.0689 75.7013 83.4089 75.3613Z" fill="#F5F4F4"/>
<path d="M97.4089 111.361C100.784 111.611 100.784 111.611 104.409 112.361C105.846 114.424 105.846 114.424 106.409 116.361C105.089 116.031 103.769 115.701 102.409 115.361C102.161 116.101 101.914 116.841 101.659 117.604C100.29 120.624 98.815 122.231 96.4089 124.486C94.0188 126.745 92.2473 128.604 90.4089 131.361C89.4189 131.031 88.4289 130.701 87.4089 130.361C87.0789 131.021 86.7489 131.681 86.4089 132.361C84.6389 132.442 82.8677 132.501 81.0964 132.549C80.1103 132.584 79.1242 132.618 78.1082 132.654C75.4089 132.361 75.4089 132.361 73.5535 130.85C73.1758 130.358 72.7981 129.867 72.4089 129.361C73.4943 129.119 74.5797 128.877 75.698 128.627C77.1435 128.289 78.5888 127.95 80.0339 127.611C80.7468 127.454 81.4596 127.297 82.1941 127.135C88.763 125.568 93.996 122.591 98.4089 117.361C99.1962 115.223 99.1962 115.223 99.4089 113.361C98.7489 113.361 98.0889 113.361 97.4089 113.361C97.4089 112.701 97.4089 112.041 97.4089 111.361Z" fill="#0D0B0B"/>
<path d="M77.4089 132.361C80.0489 132.361 82.6889 132.361 85.4089 132.361C84.4134 134.986 83.4693 136.312 81.2839 138.111C77.5924 139.716 74.3288 140.209 70.4089 139.361C67.9678 137.921 66.4184 136.421 64.4089 134.361C64.4089 134.031 64.4089 133.701 64.4089 133.361C68.9251 133.285 72.9998 133.259 77.4089 134.361C77.4089 133.701 77.4089 133.041 77.4089 132.361Z" fill="#DB676E"/>
<path d="M60.4089 81.3613C60.4579 82.3255 60.5068 83.2898 60.5573 84.2832C60.6321 85.5465 60.7068 86.8098 60.7839 88.1113C60.8535 89.3643 60.9231 90.6173 60.9948 91.9082C61.3621 94.9713 61.806 96.7811 63.4089 99.3613C63.7389 97.3813 64.0689 95.4013 64.4089 93.3613C64.7389 93.3613 65.0689 93.3613 65.4089 93.3613C65.4089 96.3313 65.4089 99.3013 65.4089 102.361C64.7489 102.361 64.0889 102.361 63.4089 102.361C63.0789 103.021 62.7489 103.681 62.4089 104.361C58.327 96.8245 56.6625 90.9363 57.4089 82.3613C59.4089 81.3613 59.4089 81.3613 60.4089 81.3613Z" fill="#2A2420"/>
<path d="M85.4089 73.3613C88.4089 74.3613 88.4089 74.3613 90.3464 77.1738C91.4711 80.5477 91.5349 81.171 90.4089 84.3613C90.0134 87.0219 89.7207 89.6892 89.4089 92.3613C89.0789 92.3613 88.7489 92.3613 88.4089 92.3613C87.7489 87.4113 87.0889 82.4613 86.4089 77.3613C85.0889 77.3613 83.7689 77.3613 82.4089 77.3613C81.7489 78.6813 81.0889 80.0013 80.4089 81.3613C79.4189 81.3613 78.4289 81.3613 77.4089 81.3613C79.6698 73.3613 79.6698 73.3613 85.4089 73.3613Z" fill="#29251F"/>
<path d="M97.4089 111.361C100.784 111.611 100.784 111.611 104.409 112.361C105.846 114.424 105.846 114.424 106.409 116.361C105.089 116.031 103.769 115.701 102.409 115.361C102.223 116.042 102.038 116.723 101.846 117.424C99.8281 121.548 96.7461 124.265 93.4089 127.361C93.0789 126.371 92.7489 125.381 92.4089 124.361C93.5886 122.678 93.5886 122.678 95.2839 120.924C97.666 118.448 98.8237 116.775 99.4089 113.361C98.7489 113.361 98.0889 113.361 97.4089 113.361C97.4089 112.701 97.4089 112.041 97.4089 111.361Z" fill="#181411"/>
<path d="M76.4089 82.3613C76.7389 82.3613 77.0689 82.3613 77.4089 82.3613C77.4695 83.3977 77.5301 84.4341 77.5925 85.502C77.677 86.8718 77.7616 88.2415 77.8464 89.6113C77.8858 90.2932 77.9251 90.9752 77.9656 91.6777C78.1756 95.0058 78.4283 98.1639 79.4089 101.361C76.7689 101.361 74.1289 101.361 71.4089 101.361C72.0217 98.3996 72.6627 96.9807 74.4089 94.3613C75.0689 94.3613 75.7289 94.3613 76.4089 94.3613C76.4089 90.4013 76.4089 86.4413 76.4089 82.3613Z" fill="#CBAC94"/>
<path d="M64.9089 72.6738C68.4878 73.658 69.5 75.2252 71.4089 78.3613C72.1589 81.6738 72.1589 81.6738 72.4089 84.3613C72.0789 83.7013 71.7489 83.0413 71.4089 82.3613C70.7489 82.3613 70.0889 82.3613 69.4089 82.3613C67.9239 79.3913 67.9239 79.3913 66.4089 76.3613C65.4189 76.3613 64.4289 76.3613 63.4089 76.3613C61.1973 79.3037 61.1973 79.3037 59.4089 82.3613C59.0789 81.3713 58.7489 80.3813 58.4089 79.3613C61.3143 73.6624 61.3143 73.6624 64.9089 72.6738Z" fill="#151513"/>
<path d="M66.4089 142.361C67.3989 142.691 68.3889 143.021 69.4089 143.361C71.4704 143.43 73.5339 143.446 75.5964 143.424C76.6831 143.415 77.7698 143.406 78.8894 143.396C79.7208 143.385 80.5523 143.373 81.4089 143.361C81.4089 144.351 81.4089 145.341 81.4089 146.361C76.6176 147.958 72.1504 147.942 67.4089 146.361C66.7489 146.031 66.0889 145.701 65.4089 145.361C65.7389 144.371 66.0689 143.381 66.4089 142.361Z" fill="#261A14"/>
<path d="M69.4089 128.361C72.3789 128.361 75.3489 128.361 78.4089 128.361C77.4189 129.846 77.4189 129.846 76.4089 131.361C76.7389 132.351 77.0689 133.341 77.4089 134.361C73.1189 134.031 68.8289 133.701 64.4089 133.361C65.7289 132.701 67.0489 132.041 68.4089 131.361C68.7389 130.371 69.0689 129.381 69.4089 128.361Z" fill="#3C2524"/>
<path d="M122.409 22.3613C125.575 22.2487 128.375 22.4093 131.409 23.3613C133.906 25.7473 135.679 28.3835 137.409 31.3613C136.419 32.8463 136.419 32.8463 135.409 34.3613C134.973 33.8186 134.538 33.2759 134.089 32.7168C130.545 28.4597 127.697 25.425 122.409 23.3613C122.409 23.0313 122.409 22.7013 122.409 22.3613Z" fill="#C82E2B"/>
<path d="M34.4089 110.361C34.7389 110.361 35.0689 110.361 35.4089 110.361C35.5069 110.941 35.6049 111.521 35.7058 112.119C36.7277 117.458 38.0927 121.05 41.4089 125.361C40.0889 125.361 38.7689 125.361 37.4089 125.361C32.6397 117.515 32.6397 117.515 32.4089 113.361C33.0689 112.371 33.7289 111.381 34.4089 110.361Z" fill="#1B1411"/>
<path d="M84.4089 127.361C84.7389 129.011 85.0689 130.661 85.4089 132.361C83.8056 132.443 82.2011 132.501 80.5964 132.549C79.7031 132.584 78.8098 132.618 77.8894 132.654C74.9925 132.312 74.1834 131.607 72.4089 129.361C73.8455 129.024 75.2832 128.692 76.7214 128.361C77.5219 128.176 78.3225 127.99 79.1472 127.799C81.4089 127.361 81.4089 127.361 84.4089 127.361Z" fill="#141311"/>
<path d="M63.4089 134.361C65.9026 135.565 68.0904 136.816 70.4089 138.361C72.3986 138.751 74.3991 139.093 76.4089 139.361C76.7389 140.351 77.0689 141.341 77.4089 142.361C72.1562 143.018 69.2565 141.435 64.948 138.748C64.4401 138.29 63.9322 137.833 63.4089 137.361C63.4089 136.371 63.4089 135.381 63.4089 134.361Z" fill="#29221D"/>
<path d="M77.4089 132.361C80.0489 132.361 82.6889 132.361 85.4089 132.361C84.3602 134.983 83.7596 136.155 81.2839 137.611C80.6652 137.859 80.0464 138.106 79.4089 138.361C78.7489 137.701 78.0889 137.041 77.4089 136.361C76.0915 135.664 74.7598 134.992 73.4089 134.361C74.7289 134.361 76.0489 134.361 77.4089 134.361C77.4089 133.701 77.4089 133.041 77.4089 132.361Z" fill="#D15F66"/>
<path d="M51.4089 110.361C51.0789 111.351 50.7489 112.341 50.4089 113.361C49.7489 113.361 49.0889 113.361 48.4089 113.361C49.3989 115.011 50.3889 116.661 51.4089 118.361C50.4189 118.691 49.4289 119.021 48.4089 119.361C47.4189 118.041 46.4289 116.721 45.4089 115.361C44.4189 115.691 43.4289 116.021 42.4089 116.361C44.4352 111.685 46.1123 110.361 51.4089 110.361Z" fill="#1D1B18"/>
<path d="M97.4089 111.361C100.784 111.611 100.784 111.611 104.409 112.361C105.846 114.424 105.846 114.424 106.409 116.361C105.089 116.031 103.769 115.701 102.409 115.361C102.079 116.021 101.749 116.681 101.409 117.361C100.749 117.031 100.089 116.701 99.4089 116.361C99.4089 115.371 99.4089 114.381 99.4089 113.361C98.7489 113.361 98.0889 113.361 97.4089 113.361C97.4089 112.701 97.4089 112.041 97.4089 111.361Z" fill="#1E1C19"/>
<path d="M113.409 115.361C114.399 115.361 115.389 115.361 116.409 115.361C115.318 119.137 114.501 121.832 111.409 124.361C110.419 124.031 109.429 123.701 108.409 123.361C109.166 122.02 109.94 120.689 110.721 119.361C111.151 118.619 111.58 117.876 112.022 117.111C112.709 116.245 112.709 116.245 113.409 115.361Z" fill="#1C1411"/>
<path d="M88.4089 77.3613C89.0689 77.3613 89.7289 77.3613 90.4089 77.3613C90.7389 79.6713 91.0689 81.9813 91.4089 84.3613C91.0789 84.3613 90.7489 84.3613 90.4089 84.3613C90.0789 87.0013 89.7489 89.6413 89.4089 92.3613C89.0789 92.3613 88.7489 92.3613 88.4089 92.3613C88.2145 90.237 88.0286 88.1118 87.8464 85.9863C87.742 84.803 87.6376 83.6196 87.53 82.4004C87.4089 79.3613 87.4089 79.3613 88.4089 77.3613Z" fill="#45413D"/>
<path d="M23.4089 20.3613C24.7289 21.0213 26.0489 21.6813 27.4089 22.3613C25.7851 23.5088 24.1598 24.6543 22.5339 25.7988C21.1766 26.756 21.1766 26.756 19.7917 27.7324C17.4089 29.3613 17.4089 29.3613 15.4089 30.3613C17.0599 26.0689 20.1465 23.4819 23.4089 20.3613Z" fill="#BC2C2C"/>
<path d="M73.4089 87.3613C74.3989 87.6913 75.3889 88.0213 76.4089 88.3613C76.4089 90.3413 76.4089 92.3213 76.4089 94.3613C75.4189 94.8563 75.4189 94.8563 74.4089 95.3613C73.7489 96.6813 73.0889 98.0013 72.4089 99.3613C72.7389 95.4013 73.0689 91.4413 73.4089 87.3613Z" fill="#FAD4B6"/>
<path d="M89.4089 83.3613C90.0689 83.6913 90.7289 84.0213 91.4089 84.3613C91.4089 87.6613 91.4089 90.9613 91.4089 94.3613C90.4189 94.6913 89.4289 95.0213 88.4089 95.3613C88.7389 91.4013 89.0689 87.4413 89.4089 83.3613Z" fill="#0C0B0A"/>
<path d="M55.4089 130.361C56.7289 130.361 58.0489 130.361 59.4089 130.361C61.1589 132.861 61.1589 132.861 62.4089 135.361C61.4189 135.691 60.4289 136.021 59.4089 136.361C57.2214 135.111 57.2214 135.111 55.4089 133.361C55.4089 132.371 55.4089 131.381 55.4089 130.361Z" fill="#D9BC9D"/>
<path d="M64.4089 93.3613C64.7389 93.3613 65.0689 93.3613 65.4089 93.3613C65.4089 96.3313 65.4089 99.3013 65.4089 102.361C64.7489 102.361 64.0889 102.361 63.4089 102.361C63.0789 103.021 62.7489 103.681 62.4089 104.361C60.9483 101.714 60.4089 100.467 60.4089 97.3613C61.0689 97.3613 61.7289 97.3613 62.4089 97.3613C62.7389 98.0213 63.0689 98.6813 63.4089 99.3613C63.7389 97.3813 64.0689 95.4013 64.4089 93.3613Z" fill="#4F4E4A"/>
<path d="M68.4089 75.3613C70.9315 77.3355 71.4019 78.3288 72.0964 81.5488C72.1996 82.477 72.3027 83.4051 72.4089 84.3613C72.0789 83.7013 71.7489 83.0413 71.4089 82.3613C70.7489 82.3613 70.0889 82.3613 69.4089 82.3613C68.7489 80.3813 68.0889 78.4013 67.4089 76.3613C67.7389 76.0313 68.0689 75.7013 68.4089 75.3613Z" fill="#22221E"/>
<path d="M110.409 123.361C110.409 126.361 110.409 126.361 108.409 128.549C107.749 129.147 107.089 129.745 106.409 130.361C105.749 129.701 105.089 129.041 104.409 128.361C106.389 126.711 108.369 125.061 110.409 123.361Z" fill="#0E0906"/>
<path d="M34.4089 110.361C34.7389 110.361 35.0689 110.361 35.4089 110.361C36.6589 117.986 36.6589 117.986 34.4089 121.361C32.6511 115.404 32.6511 115.404 32.4089 113.361C33.0689 112.371 33.7289 111.381 34.4089 110.361Z" fill="#31231F"/>
<path d="M141.409 38.3613C142.069 39.6813 142.729 41.0013 143.409 42.3613C142.419 42.3613 141.429 42.3613 140.409 42.3613C140.409 45.6613 140.409 48.9613 140.409 52.3613C140.079 52.3613 139.749 52.3613 139.409 52.3613C139.355 50.5908 139.316 48.8199 139.284 47.0488C139.261 46.0627 139.238 45.0766 139.214 44.0605C139.409 41.3613 139.409 41.3613 141.409 38.3613Z" fill="#A02926"/>
<path d="M60.4089 135.361C64.2384 136.814 65.5294 138.79 67.4089 142.361C64.542 141.076 62.4329 139.79 60.4089 137.361C60.4089 136.701 60.4089 136.041 60.4089 135.361Z" fill="#ECCDAF"/>
<path d="M69.4089 128.361C72.3789 128.361 75.3489 128.361 78.4089 128.361C78.4089 128.691 78.4089 129.021 78.4089 129.361C76.7589 129.691 75.1089 130.021 73.4089 130.361C73.4089 130.691 73.4089 131.021 73.4089 131.361C71.7589 131.361 70.1089 131.361 68.4089 131.361C68.7389 130.371 69.0689 129.381 69.4089 128.361Z" fill="#352C27"/>
<path d="M82.4089 73.3613C85.3789 73.8563 85.3789 73.8563 88.4089 74.3613C88.7389 75.3513 89.0689 76.3413 89.4089 77.3613C88.7489 78.0213 88.0889 78.6813 87.4089 79.3613C86.7489 78.3713 86.0889 77.3813 85.4089 76.3613C84.4189 76.0313 83.4289 75.7013 82.4089 75.3613C82.4089 74.7013 82.4089 74.0413 82.4089 73.3613Z" fill="#12130F"/>
<path d="M88.4089 133.361C89.0689 133.691 89.7289 134.021 90.4089 134.361C89.5964 136.299 89.5964 136.299 88.4089 138.361C87.4189 138.691 86.4289 139.021 85.4089 139.361C85.9824 136.494 86.2704 135.5 88.4089 133.361Z" fill="#EACAB0"/>
<path d="M64.4089 133.361C66.7189 133.361 69.0289 133.361 71.4089 133.361C70.7489 134.681 70.0889 136.001 69.4089 137.361C65.5339 135.611 65.5339 135.611 64.4089 133.361Z" fill="#EC6E79"/>
</svg>
