<svg width="153" height="153" viewBox="0 0 153 153" fill="none" xmlns="http://www.w3.org/2000/svg">
<path d="M123.441 16.7013C125.998 18.9429 128.452 21.2524 130.879 23.6349C131.58 24.3116 132.281 24.9884 133.004 25.6857C146.898 40.096 152.404 59.8175 152.093 79.4396C151.322 100.363 141.387 119.16 126.468 133.346C118.222 140.635 118.222 140.635 114.879 140.635C114.549 137.995 114.219 135.355 113.879 132.635C113.219 132.635 112.559 132.635 111.879 132.635C112.209 133.625 112.539 134.615 112.879 135.635C112.918 137.968 112.923 140.302 112.879 142.635C92.372 151.549 71.4013 155.713 49.8785 147.635C48.9478 147.335 48.0171 147.034 47.0582 146.725C44.7249 145.88 42.8442 145.148 40.8785 143.635C39.816 139.885 39.816 139.885 39.8785 136.635C39.5485 138.285 39.2185 139.935 38.8785 141.635C23.7095 135.686 12.9585 121.132 6.234 106.854C-1.40344 88.7175 -2.30254 66.8954 5.09142 48.4723C14.0951 27.4545 29.2899 13.1393 50.1285 4.25988C74.3038 -4.52405 103.463 0.591345 123.441 16.7013Z" fill="#75A5CF"/>
<path d="M67.8784 5.63489C71.7907 6.90373 73.9734 7.92007 75.8784 11.6349C76.4105 14.6258 76.6906 17.6043 76.8784 20.6349C77.5384 20.6349 78.1984 20.6349 78.8784 20.6349C78.9197 19.913 78.9609 19.1911 79.0034 18.4474C80.2605 14.4069 82.4212 12.9618 85.8784 10.6349C88.6284 10.1974 88.6284 10.1974 90.8784 10.6349C91.8684 11.6249 91.8684 11.6249 92.8784 12.6349C92.5034 14.7599 92.5034 14.7599 91.8784 16.6349C89.8984 16.3049 87.9184 15.9749 85.8784 15.6349C84.8884 17.9449 83.8984 20.2549 82.8784 22.6349C84.4253 22.9443 84.4253 22.9443 86.0034 23.2599C90.426 24.6063 93.4186 26.7047 95.8784 30.6349C97.0223 33.7647 98.0278 36.8915 98.9756 40.0836C100.665 45.5632 102.823 48.6712 106.878 52.6349C109.886 58.6503 107.736 65.848 105.816 71.8849C102.836 80.5182 98.9484 89.0299 93.8784 96.6349C95.607 98.7806 95.607 98.7806 97.8784 100.635C104.807 99.752 112.068 93.4056 116.878 88.6349C118.733 85.3119 119.607 82.4217 119.878 78.6349C121.198 78.6349 122.518 78.6349 123.878 78.6349C123.878 80.2849 123.878 81.9349 123.878 83.6349C124.456 83.2843 125.033 82.9336 125.628 82.5724C128.236 81.4857 129.273 81.7042 131.878 82.6349C131.003 87.3849 131.003 87.3849 129.878 89.6349C131.363 90.1299 131.363 90.1299 132.878 90.6349C132.383 92.1199 132.383 92.1199 131.878 93.6349C131.319 93.5911 130.76 93.5472 130.183 93.5021C121.407 93.5303 116.022 98.2822 109.439 103.484C107.878 104.635 107.878 104.635 105.011 106.162C102.682 107.447 102.682 107.447 102.171 109.897C102.137 110.697 102.102 111.498 102.066 112.322C102.018 113.131 101.971 113.939 101.921 114.772C101.907 115.386 101.893 116.001 101.878 116.635C102.772 117.014 102.772 117.014 103.683 117.401C108.458 120.086 111.3 125.161 113.253 130.135C113.563 131.372 113.563 131.372 113.878 132.635C113.218 132.635 112.558 132.635 111.878 132.635C112.208 133.625 112.538 134.615 112.878 135.635C112.918 137.968 112.922 140.302 112.878 142.635C92.4908 151.498 71.2797 155.851 49.8784 147.635C46.8248 146.398 43.8283 145.102 40.8784 143.635C39.5552 136.01 39.4661 130.565 43.3354 123.736C44.8096 121.729 46.1159 120.505 48.1284 119.072C51.2043 116.346 51.3304 115.714 51.7534 111.822C51.8217 110.428 51.8723 109.031 51.8784 107.635C51.1913 107.409 50.5043 107.184 49.7964 106.951C46.8446 105.62 44.5129 103.937 41.9668 101.953C35.8191 97.1743 31 93.9986 22.8784 94.6349C22.5484 93.3149 22.2184 91.9949 21.8784 90.6349C23.3634 90.1399 23.3634 90.1399 24.8784 89.6349C24.105 88.7686 24.105 88.7686 23.3159 87.8849C21.8784 85.6349 21.8784 85.6349 22.1909 83.3849C22.4178 82.8074 22.6447 82.2299 22.8784 81.6349C27.6284 82.5099 27.6284 82.5099 29.8784 83.6349C29.8784 82.3149 29.8784 80.9949 29.8784 79.6349C31.1984 79.6349 32.5184 79.6349 33.8784 79.6349C34.0118 80.4528 34.0118 80.4528 34.1479 81.2872C36.2432 90.1054 42.8105 94.4012 50.1558 99.088C51.7024 99.9863 53.2858 100.821 54.8784 101.635C56.5284 100.315 58.1784 98.9949 59.8784 97.6349C58.5159 93.9898 56.8521 90.5679 55.0601 87.1158C43.5483 64.853 43.5483 64.853 45.8784 54.6349C47.5648 51.6744 49.6769 49.2213 51.8784 46.6349C53.5058 43.8182 54.7222 41.1311 55.6987 38.0294C58.1334 30.4492 60.973 26.1826 68.0972 22.4825C68.685 22.2028 69.2728 21.9231 69.8784 21.6349C68.8884 20.6449 67.8984 19.6549 66.8784 18.6349C64.8984 19.2949 62.9184 19.9549 60.8784 20.6349C60.3834 19.1499 60.3834 19.1499 59.8784 17.6349C61.3159 15.4474 61.3159 15.4474 62.8784 13.6349C68.6284 14.3849 68.6284 14.3849 70.8784 16.6349C69.769 13.1482 68.615 9.86005 66.8784 6.63489C67.2084 6.30489 67.5384 5.97489 67.8784 5.63489Z" fill="#191918"/>
<path d="M87.1869 25.9123C89.8783 27.6349 89.8783 27.6349 91.8783 31.6349C87.5883 30.9749 83.2983 30.3149 78.8783 29.6349C78.8783 30.2949 78.8783 30.9549 78.8783 31.6349C80.6418 31.5731 80.6418 31.5731 82.4408 31.5099C90.2729 31.6621 90.2729 31.6621 93.8783 33.6349C95.3837 36.7722 96.4592 39.9434 97.5463 43.2482C99.1755 47.3905 101.426 50.101 104.523 53.2443C107.016 57.6407 106.518 62.263 105.229 67.0426C104.343 69.5551 103.36 71.997 102.316 74.4474C101.956 75.3175 101.596 76.1875 101.225 77.0839C92.6106 97.4419 92.6106 97.4419 85.3158 100.822C79.5894 102.176 74.2565 102.412 68.6283 100.572C62.3383 96.1408 58.7708 90.1806 55.6908 83.2599C55.3499 82.5082 55.0089 81.7566 54.6576 80.9821C53.7129 78.8738 52.7901 76.7577 51.8783 74.6349C51.2963 73.2892 51.2963 73.2892 50.7025 71.9162C48.5678 66.3313 47.7841 60.5473 48.8783 54.6349C50.1306 52.4393 51.5556 50.709 53.2299 48.8185C55.8721 45.3186 57.0847 41.2905 58.5072 37.174C59.8783 34.6349 59.8783 34.6349 62.3432 33.3459C63.5981 32.994 63.5981 32.994 64.8783 32.6349C65.8683 32.3049 66.8583 31.9749 67.8783 31.6349C70.2113 31.5954 72.5454 31.5909 74.8783 31.6349C74.8783 30.9749 74.8783 30.3149 74.8783 29.6349C73.2937 29.9192 71.7106 30.2127 70.1283 30.5099C69.2466 30.6724 68.3649 30.8348 67.4565 31.0021C65.0089 31.6029 63.0723 32.4149 60.8783 33.6349C61.7611 30.104 62.8154 28.6878 65.6283 26.3224C71.978 23.034 80.6668 23.395 87.1869 25.9123Z" fill="#F3F4F4"/>
<path d="M64.8783 17.6349C68.0395 19.0047 68.871 19.624 70.8783 22.6349C70.3472 22.8656 69.8161 23.0964 69.2689 23.3341C68.2093 23.8233 68.2093 23.8233 67.1283 24.3224C66.4322 24.6356 65.7361 24.9489 65.0189 25.2716C59.9211 28.5182 58.2285 32.9184 56.5033 38.5099C54.4722 44.5274 52.3387 48.1745 47.8783 52.6349C45.3873 57.617 46.5233 64.22 48.1635 69.3458C48.7364 70.9078 49.3293 72.4626 49.9408 74.0099C50.2508 74.8284 50.5608 75.647 50.8803 76.4904C53.2483 82.5416 56.1104 87.9526 59.6908 93.3849C60.0827 94.1274 60.4746 94.8699 60.8783 95.6349C59.545 99.6349 57.3825 100.473 53.8783 102.635C51.2712 100.701 48.6681 98.7624 46.0658 96.8224C45.3278 96.2752 44.5898 95.728 43.8295 95.1642C42.7612 94.3666 42.7612 94.3666 41.6713 93.5529C41.0167 93.0658 40.3621 92.5788 39.6876 92.077C35.0688 88.3956 35.0688 88.3956 34.3666 85.5919C34.2038 83.6062 34.0411 81.6206 33.8783 79.6349C32.5583 79.6349 31.2383 79.6349 29.8783 79.6349C29.8783 80.9549 29.8783 82.2749 29.8783 83.6349C27.5683 83.3049 25.2583 82.9749 22.8783 82.6349C23.4542 85.0205 24.1006 87.3017 24.8783 89.6349C23.2283 90.6249 21.5783 91.6149 19.8783 92.6349C17.3197 87.7522 17.5326 82.9469 17.5658 77.5724C17.5714 76.6315 17.5771 75.6907 17.5829 74.7213C17.8544 59.1294 23.2515 46.1508 33.8783 34.6349C42.3314 26.5103 52.5508 21.4668 63.8783 18.6349C64.2083 18.3049 64.5383 17.9749 64.8783 17.6349Z" fill="#8EBFDC"/>
<path d="M89.8784 20.6349C102.689 21.1687 112.362 28.8075 121.003 37.6349C129.565 47.6236 135.27 60.9298 135.128 74.0724C135.14 75.1407 135.14 75.1407 135.152 76.2306C135.133 81.3248 134.27 85.7354 132.878 90.6349C131.888 90.3049 130.898 89.9749 129.878 89.6349C130.208 87.3249 130.538 85.0149 130.878 82.6349C127.413 83.1299 127.413 83.1299 123.878 83.6349C123.878 81.9849 123.878 80.3349 123.878 78.6349C122.558 78.6349 121.238 78.6349 119.878 78.6349C119.831 79.2734 119.784 79.9119 119.735 80.5697C119.07 85.7898 118.159 88.9894 114.105 92.4904C112.592 93.6291 111.057 94.7397 109.503 95.8224C108.351 96.6973 108.351 96.6973 107.175 97.59C101.546 101.705 101.546 101.705 98.7666 101.413C96.1991 100.355 94.7209 98.6747 92.8784 96.6349C93.3141 95.9543 93.7498 95.2736 94.1987 94.5724C101.129 83.2915 109.106 68.288 106.878 54.6349C105.579 52.3734 104.092 50.5401 102.398 48.5607C100.025 45.5536 99.0906 42.224 97.8784 38.6349C95.4797 32.3039 92.5885 27.5177 87.8784 22.6349C88.5384 21.9749 89.1984 21.3149 89.8784 20.6349Z" fill="#90BFDB"/>
<path d="M51.8784 118.635C52.7292 119.066 52.7292 119.066 53.5971 119.506C55.8396 120.616 58.0971 121.67 60.3784 122.697C61.1312 123.039 61.884 123.381 62.6596 123.733C71.7916 127.446 83.6843 127.036 92.6909 123.26C94.4364 122.418 96.1683 121.547 97.8784 120.635C99.2113 119.967 100.544 119.3 101.878 118.635C108.056 124.974 112.974 130.464 113.066 139.635C113.004 140.625 112.942 141.615 112.878 142.635C92.6087 151.446 71.1563 155.988 49.8784 147.635C47.1061 146.417 44.5237 145.116 41.8784 143.635C41.2762 135.623 42.1538 129.041 47.48 122.74C48.8897 121.314 50.3775 119.965 51.8784 118.635Z" fill="#F8F9F9"/>
<path d="M87.1871 25.9123C89.8785 27.6349 89.8785 27.6349 91.8785 31.6349C87.5885 30.9749 83.2985 30.3149 78.8785 29.6349C78.8785 30.2949 78.8785 30.9549 78.8785 31.6349C80.6419 31.5731 80.6419 31.5731 82.441 31.5099C90.273 31.6621 90.273 31.6621 93.8785 33.6349C96.0205 37.8249 97.4534 42.1595 98.8785 46.6349C99.3735 47.6249 99.3735 47.6249 99.8785 48.6349C96.8785 49.6349 96.8785 49.6349 92.8785 49.6349C92.0535 50.1299 91.2285 50.6249 90.3785 51.1349C87.8785 52.6349 87.8785 52.6349 83.8785 52.6349C84.5385 53.2949 85.1985 53.9549 85.8785 54.6349C85.801 58.8154 85.4735 60.9549 82.691 64.1349C79.8785 65.6349 79.8785 65.6349 76.8785 65.6974C73.1006 64.3594 71.3223 62.7976 68.8785 59.6349C68.441 56.9474 68.441 56.9474 68.8785 54.6349C69.5385 53.9749 70.1985 53.3149 70.8785 52.6349C69.7853 52.5524 68.6922 52.4699 67.566 52.3849C63.8785 51.6349 63.8785 51.6349 61.941 50.0099C60.1495 46.0054 60.1755 42.5715 61.6753 38.4396C62.6395 36.3704 63.5326 34.4805 64.8785 32.6349C68.3517 31.4772 71.2391 31.5663 74.8785 31.6349C74.8785 30.9749 74.8785 30.3149 74.8785 29.6349C73.2938 29.9192 71.7108 30.2127 70.1285 30.5099C69.2467 30.6724 68.365 30.8348 67.4566 31.0021C65.009 31.6029 63.0725 32.4149 60.8785 33.6349C61.7612 30.104 62.8156 28.6878 65.6285 26.3224C71.9781 23.034 80.6669 23.395 87.1871 25.9123Z" fill="#EEEEEF"/>
<path d="M60.8785 99.6349C65.4803 100.402 65.4803 100.402 67.6207 101.654C70.7251 103.003 73.3797 102.937 76.7535 102.947C78.544 102.973 78.544 102.973 80.3707 102.998C84.1765 102.604 86.5583 101.471 89.8785 99.6349C93.1751 99.535 94.1228 100.851 96.6285 103.072C99.4111 106.63 99.5465 109.955 99.2886 114.365C98.8785 116.635 98.8785 116.635 97.3785 119.072C91.0523 123.026 85.2529 124.144 77.941 124.01C77.1512 124.001 76.3614 123.992 75.5477 123.984C69.9181 123.842 64.9323 123.289 59.8785 120.635C58.8679 120.119 57.8572 119.604 56.816 119.072C54.1905 115.769 54.1261 113.332 54.3043 109.186C55.2483 104.992 57.7473 102.449 60.8785 99.6349Z" fill="#F6F7F8"/>
<path d="M53.8784 56.6349C55.8584 57.1299 55.8584 57.1299 57.8784 57.6349C57.5484 58.9549 57.2184 60.2749 56.8784 61.6349C58.2702 62.5991 59.667 63.556 61.0659 64.5099C62.2319 65.3104 62.2319 65.3104 63.4214 66.1271C69.7893 70.0349 75.5322 70.3919 82.8784 69.6349C88.8425 67.9581 93.4241 64.8665 97.8784 60.6349C98.2084 59.9749 98.5384 59.3149 98.8784 58.6349C98.2184 58.6349 97.5584 58.6349 96.8784 58.6349C96.8784 57.9749 96.8784 57.3149 96.8784 56.6349C98.1984 56.9649 99.5184 57.2949 100.878 57.6349C100.532 60.7521 100.313 62.2389 97.9487 64.3927C95.3271 67.232 94.8753 69.515 94.0034 73.2599C91.9234 81.0907 88.9472 87.243 83.5034 93.2599C79.8563 95.1703 76.904 95.5304 72.8784 94.6349C65.8563 89.9535 62.405 80.1398 60.3784 72.2599C59.4344 68.6623 58.3933 66.8146 55.6284 64.3224C54.7209 63.4355 53.8134 62.5486 52.8784 61.6349C53.0034 58.7599 53.0034 58.7599 53.8784 56.6349Z" fill="#4A83B3"/>
<path d="M67.8785 5.63489C71.7908 6.90373 73.9735 7.92007 75.8785 11.6349C76.4106 14.6258 76.6907 17.6043 76.8785 20.6349C77.5385 20.6349 78.1985 20.6349 78.8785 20.6349C78.9198 19.913 78.961 19.1911 79.0035 18.4474C80.2605 14.4069 82.4213 12.9618 85.8785 10.6349C88.6285 10.1974 88.6285 10.1974 90.8785 10.6349C91.5385 11.2949 92.1985 11.9549 92.8785 12.6349C92.5035 14.7599 92.5035 14.7599 91.8785 16.6349C89.8985 16.3049 87.9185 15.9749 85.8785 15.6349C84.8885 17.9449 83.8985 20.2549 82.8785 22.6349C84.4254 22.9443 84.4254 22.9443 86.0035 23.2599C90.4261 24.6063 93.4187 26.7047 95.8785 30.6349C97.0224 33.7647 98.0279 36.8915 98.9757 40.0836C100.665 45.5632 102.823 48.6712 106.879 52.6349C109.104 57.0857 108.351 63.1574 106.879 67.7599C106.549 68.3786 106.219 68.9974 105.879 69.6349C105.549 69.6349 105.219 69.6349 104.879 69.6349C104.971 68.7519 105.064 67.8689 105.16 66.9591C105.687 58.1974 104.475 54.002 98.859 47.3224C95.7875 43.1544 94.8118 38.6612 93.8785 33.6349C88.8848 32.9066 83.8874 32.25 78.8785 31.6349C78.8785 30.9749 78.8785 30.3149 78.8785 29.6349C82.8785 29.6349 86.8785 29.6349 90.8785 29.6349C84.5122 24.5857 77.7528 24.9536 69.8785 25.6349C67.028 26.6645 65.3105 27.7819 62.8785 29.6349C62.8785 30.2949 62.8785 30.9549 62.8785 31.6349C63.3735 31.3049 63.8685 30.9749 64.3785 30.6349C67.9694 29.1985 71.0231 29.5064 74.8785 29.6349C74.8785 30.2949 74.8785 30.9549 74.8785 31.6349C74.2146 31.7445 73.5508 31.854 72.8668 31.9669C65.8001 33.0339 65.8001 33.0339 59.8785 36.6349C58.776 39.0568 57.8743 41.5102 56.984 44.0177C55.8625 46.6729 54.5851 48.4888 52.7535 50.6974C49.5065 54.707 48.5566 58.5841 47.8785 63.6349C47.2185 63.3049 46.5585 62.9749 45.8785 62.6349C45.3205 57.4264 45.416 54.6987 48.691 50.5099C49.2414 49.8434 49.7919 49.177 50.359 48.4904C52.958 45.3168 54.4721 41.9258 55.6988 38.0294C58.1335 30.4492 60.9731 26.1826 68.0973 22.4825C68.6851 22.2028 69.2729 21.9231 69.8785 21.6349C68.8885 20.6449 67.8985 19.6549 66.8785 18.6349C64.8985 19.2949 62.9185 19.9549 60.8785 20.6349C60.5485 19.6449 60.2185 18.6549 59.8785 17.6349C61.316 15.4474 61.316 15.4474 62.8785 13.6349C68.6285 14.3849 68.6285 14.3849 70.8785 16.6349C69.7691 13.1482 68.6151 9.86005 66.8785 6.63489C67.2085 6.30489 67.5385 5.97489 67.8785 5.63489Z" fill="#1D1E1F"/>
<path d="M20.8784 93.6349C29.8716 92.5399 35.8095 95.8142 43.1284 100.635C43.9867 101.175 44.845 101.714 45.7292 102.27C51.5064 106.282 51.5064 106.282 52.5227 109.977C52.641 113.288 52.7216 115.612 50.5554 118.24C48.9409 119.572 48.9409 119.572 45.8784 121.635C45.5484 122.295 45.2184 122.955 44.8784 123.635C34.5751 120.097 27.8358 110.93 22.8784 101.635C21.5342 98.6458 20.8784 96.9339 20.8784 93.6349Z" fill="#8FBFDC"/>
<path d="M126.566 94.0099C127.374 94.1207 128.182 94.2316 129.015 94.3458C129.937 94.4889 129.937 94.4889 130.878 94.6349C130.33 105.051 122.412 112.545 115.464 119.483C111.755 122.57 111.755 122.57 108.878 122.635C106.957 121.736 106.957 121.736 105.128 120.26C104.515 119.798 103.901 119.337 103.269 118.861C101.379 115.835 101.112 113.459 101.246 109.917C102.495 105.409 106.389 103.524 110.191 101.197C111.369 100.425 111.369 100.425 112.572 99.6368C114.658 98.275 116.765 96.9533 118.878 95.6349C122.232 93.3994 122.786 93.462 126.566 94.0099Z" fill="#90BFDB"/>
<path d="M51.8783 108.635C52.8683 108.965 53.8583 109.295 54.8783 109.635C54.9402 110.707 55.0021 111.78 55.0658 112.885C55.562 116.662 55.562 116.662 57.9408 118.947C64.1583 122.519 70.7911 123.022 77.8158 123.01C78.6034 123.011 79.3911 123.012 80.2025 123.014C85.5039 122.917 89.6733 122.181 94.3471 119.51C95.8783 118.635 95.8783 118.635 97.8783 118.635C98.2083 115.335 98.5383 112.035 98.8783 108.635C99.8683 108.635 100.858 108.635 101.878 108.635C101.878 111.275 101.878 113.915 101.878 116.635C102.474 116.888 103.069 117.14 103.683 117.401C108.458 120.086 111.299 125.161 113.253 130.135C113.563 131.372 113.563 131.372 113.878 132.635C112.888 132.635 111.898 132.635 110.878 132.635C110.532 131.856 110.532 131.856 110.179 131.061C107.976 126.349 105.767 123.091 101.878 119.635C99.7253 120.709 97.5838 121.792 95.4604 122.924C85.0061 127.967 73.5772 128.62 62.5658 124.822C59.2818 123.477 56.6502 121.849 53.8783 119.635C49.7591 121.161 47.2858 124.083 44.8783 127.635C42.5587 132.738 42.2935 138.107 41.8783 143.635C41.5483 143.635 41.2183 143.635 40.8783 143.635C39.5557 136.013 39.4623 130.564 43.3354 123.74C44.8064 121.733 46.1319 120.465 48.1283 119.01C51.1016 116.442 51.3053 115.99 51.7533 112.322C51.7946 111.106 51.8358 109.889 51.8783 108.635Z" fill="#242526"/>
<path d="M53.8784 56.6349C55.8584 57.1299 55.8584 57.1299 57.8784 57.6349C57.5484 58.9549 57.2184 60.2749 56.8784 61.6349C58.2702 62.5991 59.667 63.556 61.0659 64.5099C62.2319 65.3104 62.2319 65.3104 63.4214 66.1271C67.8143 68.8229 71.5607 69.889 76.6909 70.2599C78.1546 70.372 78.1546 70.372 79.6479 70.4865C80.384 70.5354 81.1201 70.5844 81.8784 70.6349C81.8784 71.2949 81.8784 71.9549 81.8784 72.6349C77.5884 72.6349 73.2984 72.6349 68.8784 72.6349C69.2084 74.2849 69.5384 75.9349 69.8784 77.6349C74.8284 77.6349 79.7784 77.6349 84.8784 77.6349C84.8784 78.2949 84.8784 78.9549 84.8784 79.6349C82.2725 79.7698 79.6736 79.8689 77.0659 79.9474C76.3279 79.9893 75.5899 80.0312 74.8296 80.0743C72.6714 80.1232 72.6714 80.1232 68.8784 79.6349C66.0352 76.4273 65.8784 74.9727 65.8784 70.6349C64.8884 71.1299 64.8884 71.1299 63.8784 71.6349C64.616 73.8688 65.3678 76.0963 66.1284 78.3224C66.5461 79.5638 66.9637 80.8051 67.394 82.0841C68.8523 85.5724 70.2599 87.9262 72.8784 90.6349C76.2781 91.9658 76.2781 91.9658 79.8784 91.6349C82.6704 89.3431 82.6704 89.3431 84.8784 86.6349C85.8684 86.3049 86.8584 85.9749 87.8784 85.6349C86.5284 90.0532 84.8848 92.2833 80.8784 94.6349C78.0642 95.2501 75.6918 95.2607 72.8784 94.6349C65.8563 89.9535 62.405 80.1398 60.3784 72.2599C59.4344 68.6623 58.3933 66.8146 55.6284 64.3224C54.7209 63.4355 53.8134 62.5486 52.8784 61.6349C53.0034 58.7599 53.0034 58.7599 53.8784 56.6349Z" fill="#101212"/>
<path d="M119.878 78.6349C121.198 78.6349 122.518 78.6349 123.878 78.6349C123.878 80.2849 123.878 81.9349 123.878 83.6349C124.745 83.109 124.745 83.109 125.628 82.5724C128.236 81.4857 129.273 81.7042 131.878 82.6349C131.003 87.3849 131.003 87.3849 129.878 89.6349C131.363 90.1299 131.363 90.1299 132.878 90.6349C132.548 91.6249 132.218 92.6149 131.878 93.6349C131.319 93.5911 130.76 93.5472 130.183 93.5021C121.446 93.5302 116.078 98.2199 109.521 103.398C107.92 104.604 106.215 105.668 104.511 106.725C101.482 108.484 101.482 108.484 101.003 112.385C100.962 113.457 100.921 114.53 100.878 115.635C100.548 115.635 100.218 115.635 99.8784 115.635C99.5484 112.665 99.2184 109.695 98.8784 106.635C101.42 104.884 103.961 103.134 106.503 101.385C107.216 100.894 107.929 100.403 108.664 99.8966C110.074 98.9264 111.485 97.9586 112.898 96.9933C114.14 96.1413 115.377 95.2812 116.604 94.4093C120.364 91.7817 123.293 91.0017 127.878 90.6349C127.218 90.3049 126.558 89.9749 125.878 89.6349C125.878 88.6449 125.878 87.6549 125.878 86.6349C124.558 86.3049 123.238 85.9749 121.878 85.6349C121.505 86.3542 121.131 87.0735 120.746 87.8146C118.588 91.0736 116.017 93.3387 113.003 95.7599C112.487 96.1891 111.97 96.6184 111.437 97.0607C108.404 99.544 105.384 101.864 101.878 103.635C101.218 103.305 100.558 102.975 99.8784 102.635C103.324 98.9922 106.842 96.2267 111.003 93.4474C116.22 89.6403 118.376 86.8181 119.644 80.506C119.76 79.5798 119.76 79.5798 119.878 78.6349Z" fill="#111110"/>
<path d="M103.878 66.6349C105.878 69.6349 105.878 69.6349 105.664 71.6232C102.934 80.4013 98.9828 88.9783 93.8784 96.6349C96.3926 99.3287 98.5508 101.083 101.878 102.635C105.572 100.003 109.235 97.3346 112.878 94.6349C113.622 94.0883 114.366 93.5418 115.132 92.9786C118.352 90.4515 119.69 89.3145 120.816 85.2599C120.837 84.3936 120.857 83.5274 120.878 82.6349C121.538 83.6249 122.198 84.6149 122.878 85.6349C125.462 85.8852 125.462 85.8852 127.878 85.6349C127.218 86.9549 126.558 88.2749 125.878 89.6349C126.868 89.9649 127.858 90.2949 128.878 90.6349C128.878 90.9649 128.878 91.2949 128.878 91.6349C128.26 91.7089 127.641 91.783 127.003 91.8593C119.993 92.9415 115.551 95.3854 110.003 99.6974C108.552 100.798 107.096 101.893 105.636 102.983C105.009 103.467 104.381 103.952 103.734 104.452C101.779 105.698 100.144 106.206 97.8784 106.635C96.2284 104.655 94.5784 102.675 92.8784 100.635C92.3215 100.779 91.7647 100.924 91.1909 101.072C90.4278 101.258 89.6647 101.444 88.8784 101.635C87.579 101.975 87.579 101.975 86.2534 102.322C85.0778 102.477 85.0778 102.477 83.8784 102.635C83.2184 101.975 82.5584 101.315 81.8784 100.635C82.889 100.367 83.8997 100.099 84.9409 99.8224C93.6375 96.0352 97.1876 84.1358 100.617 75.8966C101.801 72.8346 102.872 69.7593 103.878 66.6349Z" fill="#171819"/>
<path d="M96.8784 56.6349C98.1984 56.9649 99.5184 57.2949 100.878 57.6349C100.533 60.7404 100.319 62.2345 97.9604 64.3771C95.2959 67.2666 94.7587 69.7143 93.8159 73.5099C92.6233 78.2496 91.2034 82.3274 88.8784 86.6349C87.8884 85.9749 86.8984 85.3149 85.8784 84.6349C86.3115 83.6952 86.3115 83.6952 86.7534 82.7365C87.1247 81.9192 87.4959 81.1019 87.8784 80.2599C88.4353 79.0417 88.4353 79.0417 89.0034 77.799C90.0034 75.7149 90.0034 75.7149 89.8784 73.6349C88.8884 75.6149 87.8984 77.5949 86.8784 79.6349C86.2184 79.6349 85.5584 79.6349 84.8784 79.6349C84.8784 78.9749 84.8784 78.3149 84.8784 77.6349C79.9284 77.6349 74.9784 77.6349 69.8784 77.6349C69.5484 75.9849 69.2184 74.3349 68.8784 72.6349C73.1684 72.6349 77.4584 72.6349 81.8784 72.6349C82.2084 71.6449 82.5384 70.6549 82.8784 69.6349C84.7339 68.6427 84.7339 68.6427 87.0659 67.7599C91.8087 65.7932 96.4851 63.4215 98.8784 58.6349C98.2184 58.6349 97.5584 58.6349 96.8784 58.6349C96.8784 57.9749 96.8784 57.3149 96.8784 56.6349Z" fill="#1E2325"/>
<path d="M79.8784 129.635C83.2534 131.76 83.2534 131.76 85.8784 134.635C86.6221 138.279 86.3597 139.84 84.4409 143.01C80.657 145.409 77.2341 145.544 72.8784 144.635C70.2534 142.572 70.2534 142.572 68.8784 139.635C68.8784 135.821 69.0286 133.611 71.5659 130.697C74.6836 129.265 76.4735 129.09 79.8784 129.635Z" fill="#1A1C1C"/>
<path d="M80.8784 105.635C83.8784 107.697 83.8784 107.697 85.8784 110.635C85.9448 114.487 85.7507 116.633 83.1909 119.572C80.092 120.996 78.2566 121.186 74.8784 120.635C71.515 118.149 70.0778 116.721 69.3159 112.572C69.8784 109.635 69.8784 109.635 71.4409 107.26C74.853 104.985 76.8545 105 80.8784 105.635Z" fill="#1D2123"/>
<path d="M80.8784 50.6349C83.8784 52.1974 83.8784 52.1974 85.8784 54.6349C86.032 58.9362 85.5348 60.8847 82.6909 64.1349C79.8784 65.6349 79.8784 65.6349 76.8784 65.6974C73.1006 64.3594 71.3223 62.7975 68.8784 59.6349C68.2534 57.0724 68.2534 57.0724 68.8784 54.6349C72.533 50.5373 75.5095 49.8679 80.8784 50.6349Z" fill="#252522"/>
<path d="M69.5034 35.5724C72.8784 36.6349 72.8784 36.6349 74.8159 38.3224C76.2243 41.3877 76.3561 43.2908 75.8784 46.6349C74.3784 49.5099 74.3784 49.5099 71.8784 51.6349C68.8697 52.3311 67.0513 52.0882 63.8784 51.6349C60.9967 49.3835 60.9044 47.8133 60.3784 44.1974C60.8784 40.6349 60.8784 40.6349 62.9409 37.6349C65.8784 35.6349 65.8784 35.6349 69.5034 35.5724Z" fill="#EDEDF0"/>
<path d="M89.8784 36.6349C92.7602 38.8863 92.8525 40.4565 93.3784 44.0724C92.8784 47.6349 92.8784 47.6349 90.6909 50.6349C87.8784 52.6349 87.8784 52.6349 85.3784 52.7599C81.9457 51.2152 80.1223 49.6708 77.8784 46.6349C77.8784 43.1154 78.2473 40.7857 79.9409 37.6974C83.139 35.9436 86.3317 35.9847 89.8784 36.6349Z" fill="#CACACE"/>
<path d="M47.8783 56.6349C48.2083 56.6349 48.5383 56.6349 48.8783 56.6349C48.9531 57.3271 49.0279 58.0193 49.1049 58.7325C50.8068 71.3967 56.1 89.0983 66.0658 97.7599C70.0965 100.447 73.3183 100.84 78.0658 101.197C79.1525 101.281 80.2392 101.365 81.3588 101.451C82.606 101.542 82.606 101.542 83.8783 101.635C83.8783 102.295 83.8783 102.955 83.8783 103.635C66.4339 104.528 66.4339 104.528 60.8783 99.6349C60.0957 97.9712 59.3229 96.2999 58.6579 94.5858C57.8685 92.6103 56.9595 90.7589 55.976 88.8732C44.8173 67.3913 44.8173 67.3913 46.6283 59.8849C47.0408 58.8124 47.4533 57.7399 47.8783 56.6349Z" fill="#171918"/>
<path d="M127.878 87.6349C128.208 88.2949 128.538 88.9549 128.878 89.6349C130.903 90.287 130.903 90.287 132.878 90.6349C132.548 91.6249 132.218 92.6149 131.878 93.6349C131.319 93.5911 130.76 93.5472 130.183 93.5021C121.446 93.5302 116.078 98.2199 109.521 103.398C107.92 104.604 106.215 105.668 104.511 106.725C101.482 108.484 101.482 108.484 101.003 112.385C100.962 113.457 100.921 114.53 100.878 115.635C100.548 115.635 100.218 115.635 99.8784 115.635C99.5484 112.665 99.2184 109.695 98.8784 106.635C101.42 104.884 103.961 103.134 106.503 101.385C107.216 100.894 107.929 100.403 108.664 99.8966C110.074 98.9264 111.485 97.9586 112.898 96.9933C114.14 96.1413 115.377 95.2812 116.604 94.4093C120.364 91.7817 123.293 91.0017 127.878 90.6349C127.878 89.6449 127.878 88.6549 127.878 87.6349Z" fill="#10100F"/>
<path d="M77.3784 132.385C80.8784 132.635 80.8784 132.635 82.8784 134.635C83.1284 137.635 83.1284 137.635 82.8784 140.635C80.8784 142.635 80.8784 142.635 77.9409 142.947C74.8784 142.635 74.8784 142.635 73.0034 141.447C71.4951 139.017 71.5182 137.445 71.8784 134.635C73.8784 132.635 73.8784 132.635 77.3784 132.385Z" fill="#326291"/>
<path d="M98.8784 108.635C99.8684 108.635 100.858 108.635 101.878 108.635C101.878 111.275 101.878 113.915 101.878 116.635C102.474 116.888 103.07 117.14 103.683 117.401C108.458 120.086 111.3 125.161 113.253 130.135C113.46 130.96 113.666 131.785 113.878 132.635C112.888 132.635 111.898 132.635 110.878 132.635C110.648 132.115 110.417 131.596 110.179 131.061C107.976 126.349 105.767 123.091 101.878 119.635C101.301 119.944 100.723 120.254 100.128 120.572C98.0355 121.561 96.1331 122.152 93.8784 122.635C94.5384 121.315 95.1984 119.995 95.8784 118.635C96.5384 118.635 97.1984 118.635 97.8784 118.635C98.2084 115.335 98.5384 112.035 98.8784 108.635Z" fill="#1E2123"/>
<path d="M86.8784 71.6349C86.0034 76.5099 86.0034 76.5099 84.8784 77.6349C82.3479 77.708 79.8454 77.7274 77.3159 77.6974C76.605 77.6929 75.8941 77.6884 75.1616 77.6837C73.4005 77.6719 71.6395 77.654 69.8784 77.6349C69.5484 75.9849 69.2184 74.3349 68.8784 72.6349C71.3158 72.467 73.7533 72.3005 76.1909 72.1349C76.8812 72.0872 77.5715 72.0395 78.2827 71.9904C81.155 71.7961 83.9986 71.6349 86.8784 71.6349Z" fill="#E8EAE9"/>
<path d="M69.5034 35.5724C72.8784 36.6349 72.8784 36.6349 74.8159 38.3224C76.2243 41.3877 76.3561 43.2908 75.8784 46.6349C74.3784 49.5099 74.3784 49.5099 71.8784 51.6349C68.8697 52.3311 67.0513 52.0882 63.8784 51.6349C60.9967 49.3835 60.9044 47.8133 60.3784 44.1974C60.8784 40.6349 60.8784 40.6349 62.9409 37.6349C65.8784 35.6349 65.8784 35.6349 69.5034 35.5724ZM64.0034 39.7599C62.3499 42.5158 62.4848 44.4856 62.8784 47.6349C63.8589 49.6989 63.8589 49.6989 65.8784 50.6349C69.5258 50.4116 71.2621 50.2512 73.8784 47.6349C74.2233 43.5823 74.1801 42.0873 71.8784 38.6349C68.7479 38.2352 66.7476 38.1134 64.0034 39.7599Z" fill="#2C2C2A"/>
<path d="M77.3159 52.3224C79.8784 52.6349 79.8784 52.6349 81.7534 53.8224C82.8784 55.6349 82.8784 55.6349 82.6909 58.1974C81.8784 60.6349 81.8784 60.6349 79.8784 62.6349C77.0082 63.0029 75.4706 63.01 73.0034 61.4474C71.8784 59.6349 71.8784 59.6349 72.0659 57.0724C73.1348 53.8656 73.901 52.7602 77.3159 52.3224Z" fill="#E99C43"/>
<path d="M89.8784 36.6349C92.7602 38.8863 92.8525 40.4565 93.3784 44.0724C92.8784 47.6349 92.8784 47.6349 90.6909 50.6349C87.8784 52.6349 87.8784 52.6349 85.3784 52.7599C81.9457 51.2152 80.1223 49.6708 77.8784 46.6349C77.8784 43.1154 78.2473 40.7857 79.9409 37.6974C83.139 35.9436 86.3317 35.9847 89.8784 36.6349ZM81.5034 40.2599C79.5747 42.5853 79.5747 42.5853 79.9409 45.7599C80.6454 48.9267 80.6454 48.9267 83.8784 50.6349C87.2008 50.3108 88.4862 50.0271 90.8784 47.6349C91.2233 43.5823 91.1801 42.0874 88.8784 38.6349C85.5819 38.0277 84.282 38.3588 81.5034 40.2599Z" fill="#242422"/>
<path d="M77.3159 107.322C79.8784 107.635 79.8784 107.635 81.6909 108.822C83.2804 111.248 83.2433 112.789 82.8784 115.635C80.8784 117.635 80.8784 117.635 77.8784 117.885C74.8784 117.635 74.8784 117.635 72.8784 115.635C72.6284 112.635 72.6284 112.635 72.8784 109.635C74.8784 107.635 74.8784 107.635 77.3159 107.322Z" fill="#3A70A8"/>
<path d="M120.878 82.6349C121.538 83.6249 122.198 84.6149 122.878 85.6349C125.462 85.8852 125.462 85.8852 127.878 85.6349C127.218 86.9549 126.558 88.2749 125.878 89.6349C126.868 89.9649 127.858 90.2949 128.878 90.6349C128.878 90.9649 128.878 91.2949 128.878 91.6349C128.262 91.7082 127.646 91.7815 127.012 91.8571C119.944 92.9463 115.383 95.4576 109.753 99.7599C108.988 100.323 108.222 100.887 107.433 101.467C105.57 102.841 103.719 104.23 101.878 105.635C101.218 105.305 100.558 104.975 99.8784 104.635C100.736 103.983 101.593 103.33 102.476 102.658C105.421 100.412 108.351 98.1473 111.275 95.8741C112.596 94.853 113.929 93.8472 115.265 92.8458C118.319 90.4514 119.761 89.0563 120.816 85.2599C120.837 84.3936 120.857 83.5274 120.878 82.6349Z" fill="#604024"/>
<path d="M47.8784 56.6349C48.2084 56.6349 48.5384 56.6349 48.8784 56.6349C48.9532 57.3271 49.0279 58.0193 49.105 58.7325C50.3144 67.7323 53.328 75.3667 56.8784 83.6349C57.5504 85.2994 58.2194 86.9652 58.8784 88.6349C57.3934 89.1299 57.3934 89.1299 55.8784 89.6349C51.8249 80.7837 48.0031 72.186 45.8784 62.6349C46.2084 62.6349 46.5384 62.6349 46.8784 62.6349C47.2084 60.6549 47.5384 58.6749 47.8784 56.6349Z" fill="#212325"/>
<path d="M30.8784 83.6349C32.8784 86.6349 32.8784 86.6349 33.9917 88.9279C36.7037 92.819 40.2429 95.1995 44.0659 97.9474C44.8155 98.4972 45.5651 99.047 46.3374 99.6134C48.1787 100.962 50.0256 102.302 51.8784 103.635C47.0248 103.635 43.5213 100.114 39.6792 97.3654C35.4683 94.4423 31.8886 92.7641 26.8784 91.6349C26.8784 90.3149 26.8784 88.9949 26.8784 87.6349C26.2184 87.3049 25.5584 86.9749 24.8784 86.6349C24.8784 85.9749 24.8784 85.3149 24.8784 84.6349C27.3534 85.1299 27.3534 85.1299 29.8784 85.6349C30.2084 84.9749 30.5384 84.3149 30.8784 83.6349Z" fill="#5E3E21"/>
<path d="M95.8784 37.6349C96.8684 37.9649 97.8584 38.2949 98.8784 38.6349C99.5827 40.5466 100.278 42.4621 100.917 44.3966C101.979 46.8695 103.308 48.4835 105.066 50.5099C108.185 54.4336 108.526 57.4252 108.222 62.3575C107.822 65.0079 107.142 67.2663 105.878 69.6349C105.548 69.6349 105.218 69.6349 104.878 69.6349C104.971 68.7519 105.064 67.8689 105.16 66.9591C105.692 58.1144 104.399 53.8201 98.7261 47.0568C96.244 43.8033 95.8784 41.6551 95.8784 37.6349Z" fill="#101314"/>
<path d="M62.8784 13.6349C65.8159 13.8224 65.8159 13.8224 68.8784 14.6349C69.5778 15.9514 70.2457 17.2851 70.8784 18.6349C73.4336 19.4466 73.4336 19.4466 75.8784 19.6349C75.5484 20.9549 75.2184 22.2749 74.8784 23.6349C73.5584 23.9649 72.2384 24.2949 70.8784 24.6349C70.4659 23.8099 70.0534 22.9849 69.6284 22.1349C69.0509 21.3099 68.4734 20.4849 67.8784 19.6349C66.5584 19.6349 65.2384 19.6349 63.8784 19.6349C62.5584 19.6349 61.2384 19.6349 59.8784 19.6349C61.7534 14.7599 61.7534 14.7599 62.8784 13.6349Z" fill="#0C0C0D"/>
<path d="M50.8785 116.635C51.8685 116.965 52.8585 117.295 53.8785 117.635C53.136 118.357 52.3935 119.079 51.6285 119.822C44.3004 127.317 42.6475 133.395 41.8785 143.635C41.5485 143.635 41.2185 143.635 40.8785 143.635C39.5614 136.045 39.4194 130.552 43.3434 123.776C45.585 120.65 47.614 118.693 50.8785 116.635Z" fill="#222527"/>
<path d="M56.8785 38.6349C58.0113 42.3615 58.0113 42.3615 56.816 44.8224C55.6857 46.4631 54.544 48.0962 53.3746 49.7091C50.024 54.4645 48.1276 57.7806 47.8785 63.6349C47.2185 63.3049 46.5585 62.9749 45.8785 62.6349C45.3323 57.5372 45.3751 54.748 48.566 50.6349C49.1087 49.9852 49.6514 49.3355 50.2105 48.6661C52.7773 45.5403 54.7984 42.0956 56.8785 38.6349Z" fill="#101214"/>
<path d="M36.8784 96.6349C40.6598 97.2785 43.2716 99.0307 46.4409 101.135C49.3061 103.032 51.6143 104.547 54.8784 105.635C54.5484 108.935 54.2184 112.235 53.8784 115.635C53.5484 115.635 53.2184 115.635 52.8784 115.635C52.8578 114.589 52.8372 113.544 52.8159 112.467C51.5518 107.3 49.2243 106.039 44.8784 103.322C37.9571 98.7922 37.9571 98.7922 36.8784 96.6349Z" fill="#0C0D0C"/>
<path d="M44.8784 96.6349C48.4723 97.9698 51.6333 99.5951 54.8784 101.635C56.5284 100.315 58.1784 98.9949 59.8784 97.6349C60.2084 98.6249 60.5384 99.6149 60.8784 100.635C59.474 102.899 57.6816 104.656 55.8784 106.635C51.6117 106.161 49.6329 103.752 46.8784 100.635C45.5659 98.3224 45.5659 98.3224 44.8784 96.6349Z" fill="#131312"/>
<path d="M92.8784 120.635C93.2084 121.625 93.5384 122.615 93.8784 123.635C85.8732 127.723 77.6349 126.904 68.8784 126.635C69.5384 125.645 70.1984 124.655 70.8784 123.635C73.5219 123.3 75.9783 123.122 78.6284 123.072C83.7741 122.945 88.0088 122.541 92.8784 120.635Z" fill="#3E3E3E"/>
<path d="M79.8784 129.635C82.7534 131.322 82.7534 131.322 84.8784 133.635C85.1909 136.385 85.1909 136.385 84.8784 138.635C84.3628 137.81 83.8472 136.985 83.3159 136.135C81.0376 133.313 81.0376 133.313 77.3784 133.01C73.7192 133.313 73.7192 133.313 71.4409 136.135C70.9253 136.96 70.4097 137.785 69.8784 138.635C69.6284 135.822 69.6284 135.822 69.8784 132.635C72.7862 129.28 75.5995 129.024 79.8784 129.635Z" fill="#0F1316"/>
<path d="M103.878 66.6349C105.878 69.6349 105.878 69.6349 105.558 71.799C103.666 77.5857 101.495 83.1356 98.8784 88.6349C97.7026 87.1075 97.7026 87.1075 96.8784 84.6349C97.6911 81.9561 98.5588 79.608 99.6909 77.0724C100.26 75.7379 100.829 74.4033 101.398 73.0685C101.887 71.9354 102.375 70.8023 102.878 69.6349C103.208 68.6449 103.538 67.6549 103.878 66.6349Z" fill="#252829"/>
<path d="M93.8784 35.6349C95.7057 38.3758 96.8154 40.7731 98.0034 43.8224C98.3566 44.7234 98.7098 45.6245 99.0737 46.5529C99.3393 47.2399 99.6048 47.927 99.8784 48.6349C96.8784 49.6349 96.8784 49.6349 92.8784 49.6349C91.7086 47.2952 91.7123 45.801 91.6909 43.1974C91.6767 42.4149 91.6626 41.6325 91.6479 40.8263C91.8784 38.6349 91.8784 38.6349 93.8784 35.6349Z" fill="#E3E3E5"/>
<path d="M90.8784 10.6349C91.5384 11.2949 92.1984 11.9549 92.8784 12.6349C92.5034 14.7599 92.5034 14.7599 91.8784 16.6349C90.9709 16.4493 90.0634 16.2636 89.1284 16.0724C86.1953 15.6775 84.614 15.688 81.8784 16.6349C81.8784 13.6349 81.8784 13.6349 83.5659 11.9474C86.2822 10.4057 87.8019 10.2301 90.8784 10.6349Z" fill="#0B0A0B"/>
<path d="M67.8784 40.6349C70.0034 41.0099 70.0034 41.0099 71.8784 41.6349C72.5034 44.0099 72.5034 44.0099 72.8784 46.6349C72.2184 47.2949 71.5584 47.9549 70.8784 48.6349C69.5584 48.6349 68.2384 48.6349 66.8784 48.6349C66.2534 45.7599 66.2534 45.7599 65.8784 42.6349C66.5384 41.9749 67.1984 41.3149 67.8784 40.6349Z" fill="#151514"/>
<path d="M67.8784 5.63489C70.7936 6.7089 72.6565 7.41299 74.8784 9.63489C75.1909 12.0724 75.1909 12.0724 74.8784 14.6349C73.3589 16.295 73.3589 16.295 71.8784 17.6349C71.2017 16.3903 70.5375 15.1389 69.8784 13.8849C69.5072 13.1888 69.1359 12.4927 68.7534 11.7755C67.8784 9.63489 67.8784 9.63489 67.8784 5.63489Z" fill="#131416"/>
<path d="M83.8784 40.6349C84.8684 40.6349 85.8584 40.6349 86.8784 40.6349C87.2084 42.9449 87.5384 45.2549 87.8784 47.6349C86.2223 48.0171 84.5538 48.3488 82.8784 48.6349C81.8784 47.6349 81.8784 47.6349 81.6909 45.1974C81.8784 42.6349 81.8784 42.6349 83.8784 40.6349Z" fill="#0E0E0D"/>
<path d="M90.8784 71.6349C91.8684 71.9649 92.8584 72.2949 93.8784 72.6349C93.4516 74.2211 93.0115 75.8038 92.5659 77.3849C92.3223 78.2666 92.0787 79.1483 91.8276 80.0568C90.8572 82.6926 89.6684 84.489 87.8784 86.6349C87.2184 85.9749 86.5584 85.3149 85.8784 84.6349C86.1556 84.0316 86.4327 83.4283 86.7183 82.8068C87.2616 81.6079 87.2616 81.6079 87.8159 80.3849C88.1756 79.596 88.5352 78.8071 88.9058 77.9943C89.7788 75.8767 90.3918 73.8682 90.8784 71.6349Z" fill="#202426"/>
<path d="M98.8784 108.635C99.8684 108.635 100.858 108.635 101.878 108.635C101.878 111.605 101.878 114.575 101.878 117.635C101.218 117.635 100.558 117.635 99.8784 117.635C99.6309 118.274 99.3834 118.914 99.1284 119.572C97.8784 121.635 97.8784 121.635 95.7534 122.385C94.8253 122.509 94.8253 122.509 93.8784 122.635C94.5384 121.315 95.1984 119.995 95.8784 118.635C96.5384 118.635 97.1984 118.635 97.8784 118.635C98.2084 115.335 98.5384 112.035 98.8784 108.635Z" fill="#27292A"/>
<path d="M71.8784 24.6349C71.8784 25.2949 71.8784 25.9549 71.8784 26.6349C70.8884 26.6349 69.8984 26.6349 68.8784 26.6349C68.8784 27.2949 68.8784 27.9549 68.8784 28.6349C70.5284 28.6349 72.1784 28.6349 73.8784 28.6349C73.8784 28.9649 73.8784 29.2949 73.8784 29.6349C73.2751 29.7561 72.6719 29.8772 72.0503 30.0021C71.2511 30.1697 70.4519 30.3372 69.6284 30.5099C68.4451 30.7535 68.4451 30.7535 67.2378 31.0021C64.9101 31.6264 62.9881 32.4833 60.8784 33.6349C61.5549 30.929 62.2356 29.1197 64.4995 27.4122C69.2877 24.6349 69.2877 24.6349 71.8784 24.6349Z" fill="#D9DADC"/>
<path d="M120.878 82.6349C121.538 83.6249 122.198 84.6149 122.878 85.6349C125.462 85.8852 125.462 85.8852 127.878 85.6349C127.218 86.9549 126.558 88.2749 125.878 89.6349C126.868 89.9649 127.858 90.2949 128.878 90.6349C128.878 90.9649 128.878 91.2949 128.878 91.6349C126.898 91.6349 124.918 91.6349 122.878 91.6349C122.878 90.9749 122.878 90.3149 122.878 89.6349C121.888 89.3049 120.898 88.9749 119.878 88.6349C120.208 86.6549 120.538 84.6749 120.878 82.6349Z" fill="#583A20"/>
<path d="M79.8783 105.635C79.8783 106.295 79.8783 106.955 79.8783 107.635C77.8983 108.295 75.9183 108.955 73.8783 109.635C73.5483 111.285 73.2183 112.935 72.8783 114.635C71.8883 114.965 70.8983 115.295 69.8783 115.635C69.5568 112.098 69.4652 110.239 71.5033 107.26C74.4821 105.222 76.3415 105.313 79.8783 105.635Z" fill="#171C22"/>
<path d="M80.8784 50.6349C81.2084 51.6249 81.5384 52.6149 81.8784 53.6349C80.3006 53.5112 80.3006 53.5112 78.6909 53.3849C74.3408 53.6702 72.9469 54.6594 69.8784 57.6349C70.1909 55.2599 70.1909 55.2599 70.8784 52.6349C74.5226 50.2055 76.5908 50.4731 80.8784 50.6349Z" fill="#16110A"/>
<path d="M68.8784 100.635C73.8284 100.965 78.7784 101.295 83.8784 101.635C83.8784 102.295 83.8784 102.955 83.8784 103.635C79.2584 103.635 74.6384 103.635 69.8784 103.635C69.5484 102.645 69.2184 101.655 68.8784 100.635Z" fill="#1F1F1E"/>
<path d="M71.8784 38.6349C72.8684 38.6349 73.8584 38.6349 74.8784 38.6349C76.305 41.4881 76.1888 43.4694 75.8784 46.6349C74.2534 49.5099 74.2534 49.5099 71.8784 51.6349C68.6284 51.9474 68.6284 51.9474 65.8784 51.6349C66.4765 51.3461 67.0747 51.0574 67.6909 50.7599C70.0717 49.5875 70.0717 49.5875 72.8784 47.6349C73.1691 44.219 72.9656 41.8965 71.8784 38.6349Z" fill="#1A1A17"/>
<path d="M62.8784 41.6349C65.8784 43.6349 65.8784 43.6349 66.5659 46.2599C66.7206 47.4355 66.7206 47.4355 66.8784 48.6349C69.1884 47.9749 71.4984 47.3149 73.8784 46.6349C72.1909 48.6974 72.1909 48.6974 69.8784 50.6349C66.4869 50.4734 65.2955 50.0519 62.8784 47.6349C62.7534 44.5099 62.7534 44.5099 62.8784 41.6349Z" fill="#BBBBBF"/>
<path d="M81.8784 36.6349C82.5384 36.9649 83.1984 37.2949 83.8784 37.6349C83.8784 38.2949 83.8784 38.9549 83.8784 39.6349C83.2184 39.6349 82.5584 39.6349 81.8784 39.6349C80.9406 44.685 80.9406 44.685 81.8784 49.6349C80.8884 49.3049 79.8984 48.9749 78.8784 48.6349C78.1284 45.4474 78.1284 45.4474 77.8784 41.6349C79.8159 38.6974 79.8159 38.6974 81.8784 36.6349Z" fill="#2D2D2B"/>
<path d="M119.878 78.6349C121.858 79.1299 121.858 79.1299 123.878 79.6349C123.38 83.3698 123.004 85.4473 120.878 88.6349C120.218 88.6349 119.558 88.6349 118.878 88.6349C118.753 80.8849 118.753 80.8849 119.878 78.6349Z" fill="#20201D"/>
<path d="M81.8784 51.6349C83.1984 52.6249 84.5184 53.6149 85.8784 54.6349C85.6228 56.978 85.2857 59.3133 84.8784 61.6349C83.8884 62.1299 83.8884 62.1299 82.8784 62.6349C82.734 61.5211 82.5897 60.4074 82.4409 59.2599C82.0947 55.8135 82.0947 55.8135 80.8784 53.6349C81.2084 52.9749 81.5384 52.3149 81.8784 51.6349Z" fill="#2F2C25"/>
<path d="M96.8784 56.6349C98.1984 56.9649 99.5184 57.2949 100.878 57.6349C100.402 61.923 99.2194 63.9014 95.8784 66.6349C95.2184 66.6349 94.5584 66.6349 93.8784 66.6349C95.25 63.6808 96.8671 61.1948 98.8784 58.6349C98.2184 58.6349 97.5584 58.6349 96.8784 58.6349C96.8784 57.9749 96.8784 57.3149 96.8784 56.6349Z" fill="#090908"/>
<path d="M79.8784 105.635C82.3159 106.697 82.3159 106.697 84.8784 108.635C85.6909 112.322 85.6909 112.322 85.8784 115.635C84.8884 116.13 84.8884 116.13 83.8784 116.635C83.4453 115.212 83.4453 115.212 83.0034 113.76C82.1102 110.583 82.1102 110.583 79.8784 108.635C79.8784 107.645 79.8784 106.655 79.8784 105.635Z" fill="#242729"/>
<path d="M47.8784 56.6349C48.2084 56.6349 48.5384 56.6349 48.8784 56.6349C49.5384 61.2549 50.1984 65.8749 50.8784 70.6349C49.8884 70.6349 48.8984 70.6349 47.8784 70.6349C47.2184 67.9949 46.5584 65.3549 45.8784 62.6349C46.2084 62.6349 46.5384 62.6349 46.8784 62.6349C47.2084 60.6549 47.5384 58.6749 47.8784 56.6349Z" fill="#3A3D3F"/>
<path d="M83.8784 36.6349C86.6909 36.3849 86.6909 36.3849 89.8784 36.6349C92.3458 38.8555 92.8399 40.0706 93.0659 43.3849C93.004 44.1274 92.9422 44.8699 92.8784 45.6349C91.3728 43.6711 89.9871 41.8523 88.8784 39.6349C85.8491 38.9772 85.8491 38.9772 82.8784 38.6349C83.2084 37.9749 83.5384 37.3149 83.8784 36.6349Z" fill="#141413"/>
<path d="M82.8784 22.6349C88.2918 23.78 90.8127 24.975 93.8784 29.6349C90.2789 29.6349 89.6274 28.8008 86.8784 26.6349C85.5601 25.9391 84.2305 25.2626 82.8784 24.6349C82.8784 23.9749 82.8784 23.3149 82.8784 22.6349Z" fill="#121313"/>
<path d="M84.8784 26.6349C87.3159 26.8224 87.3159 26.8224 89.8784 27.6349C90.5384 28.9549 91.1984 30.2749 91.8784 31.6349C85.9384 30.6449 85.9384 30.6449 79.8784 29.6349C81.1984 28.9749 82.5184 28.3149 83.8784 27.6349C84.2084 27.3049 84.5384 26.9749 84.8784 26.6349Z" fill="#D0D1D3"/>
<path d="M62.8784 13.6349C64.9409 14.0724 64.9409 14.0724 66.8784 14.6349C66.2184 14.6349 65.5584 14.6349 64.8784 14.6349C64.5484 16.2849 64.2184 17.9349 63.8784 19.6349C62.5584 19.6349 61.2384 19.6349 59.8784 19.6349C61.7534 14.7599 61.7534 14.7599 62.8784 13.6349Z" fill="#15191B"/>
<path d="M64.8784 17.6349C68.0396 19.0047 68.8711 19.624 70.8784 22.6349C69.1284 23.3849 69.1284 23.3849 66.8784 23.6349C64.6284 21.6974 64.6284 21.6974 62.8784 19.6349C63.5384 18.9749 64.1984 18.3149 64.8784 17.6349Z" fill="#76ABCF"/>
<path d="M85.8784 10.6349C88.2534 10.5099 88.2534 10.5099 90.8784 10.6349C91.5384 11.2949 92.1984 11.9549 92.8784 12.6349C92.5034 14.7599 92.5034 14.7599 91.8784 16.6349C89.4034 15.6449 89.4034 15.6449 86.8784 14.6349C87.5384 14.3049 88.1984 13.9749 88.8784 13.6349C88.8784 12.9749 88.8784 12.3149 88.8784 11.6349C87.8884 11.3049 86.8984 10.9749 85.8784 10.6349Z" fill="#1B2022"/>
<path d="M50.8784 116.635C51.8684 116.965 52.8584 117.295 53.8784 117.635C49.1284 122.51 49.1284 122.51 46.8784 123.635C46.2184 122.975 45.5584 122.315 44.8784 121.635C49.2729 117.631 49.2729 117.631 50.8784 116.635Z" fill="#1B1E21"/>
<path d="M123.753 91.8849C124.455 92.1324 125.156 92.3799 125.878 92.6349C125.322 92.903 124.765 93.1711 124.191 93.4474C121.681 94.7361 119.285 96.1642 116.878 97.6349C116.218 96.9749 115.558 96.3149 114.878 95.6349C120.171 91.5733 120.171 91.5733 123.753 91.8849Z" fill="#151514"/>
<path d="M103.878 104.635C103.569 105.151 103.26 105.666 102.941 106.197C101.588 109.302 101.265 112.286 100.878 115.635C100.548 115.635 100.218 115.635 99.8784 115.635C99.5484 112.665 99.2184 109.695 98.8784 106.635C101.878 104.635 101.878 104.635 103.878 104.635Z" fill="#060605"/>
<path d="M85.8784 85.6349C86.5384 85.6349 87.1984 85.6349 87.8784 85.6349C86.609 89.5489 85.3667 91.4256 81.8784 93.6349C81.2184 92.9749 80.5584 92.3149 79.8784 91.6349C81.8784 89.6349 83.8784 87.6349 85.8784 85.6349Z" fill="#0B0C0A"/>
<path d="M85.8783 134.635C86.2476 140.173 86.2476 140.173 84.3783 142.51C83.8833 142.881 83.3883 143.252 82.8783 143.635C81.7773 140.332 81.9277 138.919 82.8783 135.635C84.8783 134.635 84.8783 134.635 85.8783 134.635Z" fill="#24292B"/>
<path d="M76.8784 130.635C81.3278 130.274 81.3278 130.274 83.6909 131.822C85.2452 134.195 85.1038 135.855 84.8784 138.635C84.3009 137.872 83.7234 137.109 83.1284 136.322C81.1614 133.973 79.3937 132.342 76.8784 130.635Z" fill="#050605"/>
<path d="M73.8784 126.635C75.8584 126.635 77.8384 126.635 79.8784 126.635C79.5484 127.625 79.2184 128.615 78.8784 129.635C76.8984 129.965 74.9184 130.295 72.8784 130.635C73.2084 129.315 73.5384 127.995 73.8784 126.635Z" fill="#EBEDEF"/>
<path d="M127.878 83.6349C128.868 83.6349 129.858 83.6349 130.878 83.6349C131.208 84.6249 131.538 85.6149 131.878 86.6349C130.566 88.1349 130.566 88.1349 128.878 89.6349C127.888 89.6349 126.898 89.6349 125.878 89.6349C126.538 87.6549 127.198 85.6749 127.878 83.6349Z" fill="#201F1C"/>
<path d="M87.8784 70.6349C88.2084 70.6349 88.5384 70.6349 88.8784 70.6349C88.5484 73.2749 88.2184 75.9149 87.8784 78.6349C86.8884 78.9649 85.8984 79.2949 84.8784 79.6349C85.4357 76.2912 86.2302 73.6018 87.8784 70.6349Z" fill="#161B1A"/>
<path d="M91.8784 65.6349C92.8684 65.9649 93.8584 66.2949 94.8784 66.6349C94.8784 68.2849 94.8784 69.9349 94.8784 71.6349C93.8884 71.9649 92.8984 72.2949 91.8784 72.6349C92.2084 71.3149 92.5384 69.9949 92.8784 68.6349C92.2184 68.6349 91.5584 68.6349 90.8784 68.6349C91.2084 67.6449 91.5384 66.6549 91.8784 65.6349Z" fill="#191A19"/>
<path d="M108.878 125.635C109.868 125.965 110.858 126.295 111.878 126.635C113.066 129.697 113.066 129.697 113.878 132.635C112.888 132.635 111.898 132.635 110.878 132.635C110.218 130.325 109.558 128.015 108.878 125.635Z" fill="#141719"/>
<path d="M24.8784 84.6349C27.8484 85.1299 27.8484 85.1299 30.8784 85.6349C30.5484 86.9549 30.2184 88.2749 29.8784 89.6349C28.8884 89.6349 27.8984 89.6349 26.8784 89.6349C26.8784 88.9749 26.8784 88.3149 26.8784 87.6349C26.2184 87.3049 25.5584 86.9749 24.8784 86.6349C24.8784 85.9749 24.8784 85.3149 24.8784 84.6349Z" fill="#4E3620"/>
<path d="M68.8784 72.6349C72.5084 72.6349 76.1384 72.6349 79.8784 72.6349C79.8784 72.9649 79.8784 73.2949 79.8784 73.6349C78.8059 73.7793 77.7334 73.9236 76.6284 74.0724C73.9618 74.4724 71.4644 74.9108 68.8784 75.6349C68.8784 74.6449 68.8784 73.6549 68.8784 72.6349Z" fill="#D8DAD9"/>
<path d="M70.8784 22.6349C70.5484 23.6249 70.2184 24.6149 69.8784 25.6349C67.3159 26.8224 67.3159 26.8224 64.8784 27.6349C64.5484 26.6449 64.2184 25.6549 63.8784 24.6349C68.6284 22.6349 68.6284 22.6349 70.8784 22.6349Z" fill="#202527"/>
</svg>
