<svg width="152" height="153" viewBox="0 0 152 153" fill="none" xmlns="http://www.w3.org/2000/svg">
<path d="M121.181 15.1633C122.54 16.3029 123.895 17.4482 125.243 18.6008C125.821 19.0237 126.398 19.4465 126.993 19.8821C139.401 29.3029 148.807 47.3349 151.243 62.6008C152.892 84.0042 150.646 105.85 136.56 123.031C133.929 126.042 131.125 128.83 128.243 131.601C127.587 132.265 126.931 132.929 126.255 133.613C110.551 148.576 89.5928 153.463 68.5439 152.976C51.8322 152.135 36.5397 143.519 24.2431 132.601C23.2144 131.713 23.2144 131.713 22.165 130.808C9.55233 119.164 1.13865 101.5 0.105893 84.3181C-0.740098 62.6534 3.31842 43.1643 18.2431 26.6008C19.0449 25.7062 19.8467 24.8116 20.6728 23.8899C46.9017 -3.85956 90.484 -8.31361 121.181 15.1633Z" fill="#6EC4DD"/>
<path d="M121.181 15.1633C122.54 16.3029 123.895 17.4482 125.243 18.6008C125.821 19.0237 126.398 19.4465 126.993 19.8821C139.401 29.3029 148.807 47.3349 151.243 62.6008C152.892 84.0042 150.646 105.85 136.56 123.031C133.929 126.042 131.125 128.83 128.243 131.601C127.587 132.265 126.931 132.929 126.255 133.613C110.551 148.576 89.5928 153.463 68.5439 152.976C51.8322 152.135 36.5397 143.519 24.2431 132.601C23.2144 131.713 23.2144 131.713 22.165 130.808C9.55233 119.164 1.13865 101.5 0.105893 84.3181C-0.740098 62.6534 3.31842 43.1643 18.2431 26.6008C19.0449 25.7062 19.8467 24.8116 20.6728 23.8899C46.9017 -3.85956 90.484 -8.31361 121.181 15.1633ZM31.2431 37.6008C20.621 51.5838 15.8692 66.1184 17.2431 83.6008C20.3631 101.363 29.5269 116.019 44.2431 126.601C47.5229 128.062 47.5229 128.062 50.2431 128.601C50.2843 129.281 50.3256 129.962 50.3681 130.663C51.9681 136.035 55.5926 139.59 60.3056 142.476C70.0392 146.204 83.5101 146.136 93.3017 142.491C99.763 139.527 101.452 135.47 103.935 129.062C105.464 126.186 106.324 125.848 109.243 124.601C119.53 116.451 126.336 107.73 131.243 95.6008C131.775 94.4175 131.775 94.4175 132.317 93.2102C137.152 79.583 134.827 63.4908 128.806 50.7883C121.068 35.4316 108.839 25.0915 92.4306 19.6008C70.0797 12.8811 46.8745 20.6126 31.2431 37.6008Z" fill="#17B7CF"/>
<path d="M79.2432 27.6008C79.7382 28.5908 79.7382 28.5908 80.2432 29.6008C79.4659 31.5461 79.4659 31.5461 78.3057 33.7258C77.7353 34.8125 77.7353 34.8125 77.1534 35.9211C76.853 36.4754 76.5527 37.0297 76.2432 37.6008C76.9032 37.2708 77.5632 36.9408 78.2432 36.6008C80.5762 36.5606 82.9103 36.5576 85.2432 36.6008C85.2432 37.2608 85.2432 37.9208 85.2432 38.6008C84.4389 38.7246 83.6345 38.8483 82.8057 38.9758C81.9601 39.1821 81.1145 39.3883 80.2432 39.6008C79.9132 40.2608 79.5832 40.9208 79.2432 41.6008C80.522 41.7452 81.8007 41.8896 83.1182 42.0383C85.5002 42.3073 87.0878 42.5231 89.2432 43.6008C89.0782 44.364 88.9132 45.1271 88.7432 45.9133C88.1518 48.6368 88.1518 48.6368 88.2432 51.6008C88.8414 50.6521 89.4395 49.7033 90.0557 48.7258C92.2432 45.6008 92.2432 45.6008 95.2432 43.6008C99.1587 43.1658 101.463 43.1651 104.931 45.1008C112.473 53.2549 114.616 64.724 114.312 75.4993C114.223 77.5072 114.132 79.515 114.038 81.5227C113.786 87.3982 113.786 87.3982 116.212 92.6086C116.882 93.2661 117.553 93.9235 118.243 94.6008C118.806 97.6008 118.806 97.6008 118.243 100.601C114.893 104.763 110.616 107.6 106.243 110.601C106.924 111.343 107.604 112.086 108.306 112.851C110.243 115.601 110.243 115.601 109.993 117.913C109.746 118.47 109.498 119.027 109.243 119.601C104.902 120.828 101.961 120.228 97.6182 119.163C89.8832 117.493 82.2639 117.292 74.3682 117.288C73.2279 117.283 72.0876 117.278 70.9127 117.273C64.8717 117.322 59.2556 117.762 53.3721 119.162C50.2755 119.8 47.3935 119.738 44.2432 119.601C43.7482 117.126 43.7482 117.126 43.2432 114.601C44.7282 113.611 44.7282 113.611 46.2432 112.601C46.2432 111.611 46.2432 110.621 46.2432 109.601C44.0499 107.749 44.0499 107.749 41.3057 106.038C36.3373 102.789 36.3373 102.789 35.2432 100.601C34.8756 94.8109 34.8756 94.8109 35.2432 92.6008C35.7419 92.1551 36.2405 91.7093 36.7542 91.25C38.422 89.7143 38.422 89.7143 38.5203 87.5706C38.4586 86.4177 38.4586 86.4177 38.3956 85.2415C38.3497 83.949 38.3497 83.949 38.3028 82.6304C38.2625 81.7131 38.2222 80.7959 38.1807 79.8508C37.9165 68.0104 39.0299 57.4385 46.2432 47.6008C48.9475 44.8966 50.4749 43.7449 54.2432 43.0383C58.3021 43.7994 59.6494 45.4461 62.2432 48.6008C63.2961 50.2346 64.3159 51.8926 65.2432 53.6008C64.5441 50.0022 64.5441 50.0022 63.5557 46.4758C63.2432 44.6008 63.2432 44.6008 65.2432 41.6008C65.701 38.8621 65.701 38.8621 65.8682 35.9133C65.943 34.9195 66.0178 33.9256 66.0948 32.9016C66.1438 32.1424 66.1928 31.3831 66.2432 30.6008C66.9032 30.9308 67.5632 31.2608 68.2432 31.6008C68.8682 34.6633 68.8682 34.6633 69.2432 37.6008C69.9651 36.879 70.687 36.1571 71.4307 35.4133C75.337 31.5071 75.337 31.5071 79.2432 27.6008Z" fill="#F6F6F6"/>
<path d="M58.2432 53.6008C64.2507 56.9539 66.3473 62.7471 68.3174 69.0227C69.743 74.9571 69.708 81.0271 69.8682 87.1008C69.9068 88.3048 69.9455 89.5088 69.9854 90.7493C70.079 93.6996 70.1647 96.65 70.2432 99.6008C71.3821 99.5834 71.3821 99.5834 72.5439 99.5657C74.0347 99.5521 74.0347 99.5521 75.5557 99.5383C76.5418 99.5267 77.5279 99.5151 78.5439 99.5032C81.2432 99.6008 81.2432 99.6008 84.2432 100.601C84.2222 99.7799 84.2013 98.959 84.1797 98.1133C84.1108 95.0139 84.061 91.9149 84.0234 88.8149C83.9939 86.8351 83.943 84.8556 83.8916 82.8762C83.7864 72.4831 85.1307 62.607 92.6064 54.7922C94.2432 53.6008 94.2432 53.6008 97.7432 52.8508C102.186 53.8028 104.115 55.3303 107.243 58.6008C111.395 65.4222 112.564 72.2727 112.431 80.1008C112.43 81.1817 112.43 81.1817 112.429 82.2844C112.392 86.8131 111.978 91.1325 111.243 95.6008C112.233 95.6008 113.223 95.6008 114.243 95.6008C112.793 99.2341 111.021 100.718 107.743 102.788C106.949 103.298 106.155 103.807 105.337 104.331C100.91 107.015 97.365 107.086 92.2432 106.601C90.8518 106.148 89.4755 105.647 88.1182 105.101C79.4617 101.912 69.6401 102.618 61.1494 105.913C57.1393 107.36 53.8595 107.295 49.9502 105.616C45.8803 103.465 42.141 101.255 39.2432 97.6008C39.2432 96.9408 39.2432 96.2808 39.2432 95.6008C39.9032 95.6008 40.5632 95.6008 41.2432 95.6008C41.2275 94.8959 41.2117 94.1909 41.1956 93.4646C41.1325 90.2184 41.094 86.9724 41.0557 83.7258C41.0305 82.6172 41.0054 81.5086 40.9795 80.3665C40.9058 72.0136 41.3903 63.7882 46.8057 57.0383C50.5915 53.2525 52.9232 53.15 58.2432 53.6008Z" fill="#0A0C0B"/>
<path d="M84.2432 24.6008C83.6156 27.5296 82.657 29.9618 81.2432 32.6008C81.9032 32.2708 82.5632 31.9408 83.2432 31.6008C85.5762 31.5606 87.9103 31.5576 90.2432 31.6008C90.7382 33.5808 90.7382 33.5808 91.2432 35.6008C90.5832 35.9308 89.9232 36.2608 89.2432 36.6008C89.7382 39.0758 89.7382 39.0758 90.2432 41.6008C91.1958 41.5428 92.1484 41.4848 93.1299 41.425C103.355 41.0572 103.355 41.0572 107.306 43.4758C115.15 56.1283 117.569 67.302 117.865 82.0725C117.888 82.9997 117.911 83.9268 117.935 84.8821C117.953 86.136 117.953 86.136 117.972 87.4153C118.114 89.8918 118.114 89.8918 120.243 92.6008C121.034 96.5256 121.109 100.134 119.04 103.64C116.447 106.717 113.623 109.391 110.243 111.601C110.738 111.993 111.233 112.385 111.743 112.788C113.243 114.601 113.243 114.601 113.681 117.101C113.243 119.601 113.243 119.601 111.493 121.413C109.243 122.601 109.243 122.601 105.243 122.601C105.114 123.436 105.114 123.436 104.981 124.288C103.787 130.775 101.95 137.005 96.3135 140.952C86.8887 145.896 73.3401 146.482 63.1182 143.476C56.557 140.722 52.5524 137.001 49.8057 130.413C48.7501 127.538 48.2432 125.687 48.2432 122.601C47.4801 122.663 46.7169 122.725 45.9307 122.788C43.2432 122.601 43.2432 122.601 41.3682 121.538C39.5953 118.485 40.5833 115.96 41.2432 112.601C41.2432 111.611 41.2432 110.621 41.2432 109.601C39.4921 108.014 39.4921 108.014 37.3057 106.476C34.1306 103.819 32.6359 102.12 32.0557 97.9758C31.823 94.9776 32.0737 93.8568 33.7588 91.3118C35.7055 87.7565 35.4053 84.7667 35.1807 80.8508C34.8514 69.2493 36.7925 56.4666 43.2432 46.6008C46.4257 43.3609 49.3972 40.6829 54.0557 40.4758C56.9143 40.5879 59.4656 40.9473 62.2432 41.6008C63.6853 38.7167 63.3371 36.1836 63.3057 32.9758C63.2967 31.7873 63.2876 30.5988 63.2784 29.3743C63.2668 28.459 63.2551 27.5438 63.2432 26.6008C66.5033 27.2946 68.0336 28.0598 70.2432 30.6008C72.8052 29.4184 74.9241 28.1185 77.2432 26.4758C80.2432 24.6008 80.2432 24.6008 84.2432 24.6008ZM79.2432 27.6008C78.5213 28.3227 77.7994 29.0446 77.0557 29.7883C73.1494 33.6946 73.1494 33.6946 69.2432 37.6008C69.1194 36.6315 68.9957 35.6621 68.8682 34.6633C68.6619 33.6527 68.4557 32.6421 68.2432 31.6008C67.5832 31.2708 66.9232 30.9408 66.2432 30.6008C66.1942 31.3369 66.1452 32.0729 66.0948 32.8313C66.02 33.8071 65.9452 34.7829 65.8682 35.7883C65.7986 36.7513 65.729 37.7142 65.6573 38.7063C65.2432 41.6008 65.2432 41.6008 64.0791 44.2766C63.8033 45.0436 63.5274 45.8106 63.2432 46.6008C63.9032 47.5908 64.5632 48.5808 65.2432 49.6008C65.2432 50.9208 65.2432 52.2408 65.2432 53.6008C64.8333 52.9627 64.4234 52.3247 64.001 51.6672C63.4622 50.8409 62.9234 50.0147 62.3682 49.1633C61.8345 48.3396 61.3009 47.5159 60.751 46.6672C58.8012 43.995 57.8087 43.6929 54.5557 43.1633C49.8026 43.7911 47.3499 46.0515 44.2432 49.6008C42.8485 52.0913 42.0467 53.9325 41.2432 56.6008C40.966 57.3846 40.6889 58.1683 40.4034 58.9758C37.9836 66.8262 38.0344 74.3488 38.3538 82.4783C38.3792 83.3553 38.4045 84.2324 38.4307 85.136C38.4829 86.3175 38.4829 86.3175 38.5362 87.5229C38.1643 90.1602 37.1204 90.7933 35.2432 92.6008C34.8445 95.6906 34.628 97.6409 35.2432 100.601C37.7065 103.789 40.1689 105.553 43.5557 107.726C44.4426 108.345 45.3294 108.963 46.2432 109.601C46.2432 110.591 46.2432 111.581 46.2432 112.601C44.7582 113.591 44.7582 113.591 43.2432 114.601C43.5732 116.251 43.9032 117.901 44.2432 119.601C46.3268 119.459 48.4101 119.312 50.4932 119.163C51.6534 119.082 52.8135 119.001 54.0088 118.917C57.0381 118.713 57.0381 118.713 59.0869 118.094C63.9237 116.988 69.0554 117.365 73.9932 117.351C75.2057 117.347 76.4182 117.343 77.6675 117.339C85.8147 117.392 93.3025 118.106 101.204 120.042C104.285 120.609 106.255 120.446 109.243 119.601C110.118 117.865 110.118 117.865 110.243 115.601C108.392 112.848 108.392 112.848 106.243 110.601C106.942 110.13 107.641 109.66 108.36 109.175C109.725 108.241 109.725 108.241 111.118 107.288C112.023 106.673 112.928 106.059 113.86 105.425C116.443 103.652 116.443 103.652 118.243 100.601C118.744 97.6854 118.744 97.6854 118.243 94.6008C117.574 93.9344 116.905 93.2679 116.216 92.5813C113.242 88.0884 114.028 84.0304 114.306 78.7883C114.649 65.9592 113.328 54.3525 104.243 44.6008C101.104 43.0315 98.7046 43.2488 95.2432 43.6008C91.6658 46.4465 89.4134 49.603 87.2432 53.6008C87.9099 50.2675 88.5765 46.9342 89.2432 43.6008C85.7354 41.9973 83.0996 41.3805 79.2432 41.6008C79.5732 40.9408 79.9032 40.2808 80.2432 39.6008C82.8057 38.9758 82.8057 38.9758 85.2432 38.6008C85.2432 37.9408 85.2432 37.2808 85.2432 36.6008C80.5927 36.3315 80.5927 36.3315 76.2432 37.6008C76.5435 37.0465 76.8439 36.4922 77.1534 35.9211C77.7238 34.8345 77.7238 34.8345 78.3057 33.7258C78.88 32.6469 78.88 32.6469 79.4659 31.5461C79.7224 30.9042 79.9789 30.2622 80.2432 29.6008C79.7482 28.6108 79.7482 28.6108 79.2432 27.6008Z" fill="#121C1F"/>
<path d="M40.2433 76.6008C40.5733 76.6008 40.9033 76.6008 41.2433 76.6008C41.2433 82.8708 41.2433 89.1408 41.2433 95.6008C40.5833 95.6008 39.9233 95.6008 39.2433 95.6008C42.8794 100.6 46.3308 103.592 52.2433 105.601C56.4559 106.137 59.3718 105.613 63.2433 104.101C71.9613 100.966 81.6725 101.607 90.2081 104.909C95.0691 106.561 99.2369 106.503 103.927 104.394C108.229 101.928 111.445 99.7536 114.243 95.6008C113.253 95.6008 112.263 95.6008 111.243 95.6008C111.243 93.2908 111.243 90.9808 111.243 88.6008C111.903 88.2708 112.563 87.9408 113.243 87.6008C115.945 90.862 118.027 93.5171 118.868 97.7258C117.511 103.967 111.221 107.185 106.243 110.601C106.924 111.343 107.605 112.086 108.306 112.851C110.243 115.601 110.243 115.601 109.993 117.913C109.746 118.47 109.498 119.027 109.243 119.601C104.902 120.828 101.961 120.228 97.6183 119.163C89.8832 117.493 82.2639 117.292 74.3683 117.288C73.2279 117.283 72.0876 117.278 70.9127 117.273C64.8717 117.322 59.2557 117.762 53.3722 119.162C50.2755 119.8 47.3935 119.738 44.2433 119.601C43.9133 117.951 43.5833 116.301 43.2433 114.601C44.2333 113.941 45.2233 113.281 46.2433 112.601C46.2433 111.611 46.2433 110.621 46.2433 109.601C44.05 107.749 44.05 107.749 41.3058 106.038C36.3373 102.789 36.3373 102.789 35.2433 100.601C34.7718 93.1748 34.7718 93.1748 36.6808 90.8508C37.1964 90.4383 37.712 90.0258 38.2433 89.6008C39.152 86.7233 39.4975 83.8452 39.8058 80.8508C39.8896 80.0516 39.9733 79.2524 40.0597 78.429C40.1203 77.8257 40.1808 77.2224 40.2433 76.6008Z" fill="#EEC241"/>
<path d="M83.2432 31.6008C85.5532 31.6008 87.8632 31.6008 90.2432 31.6008C90.7382 33.5808 90.7382 33.5808 91.2432 35.6008C90.5832 35.9308 89.9232 36.2608 89.2432 36.6008C89.7382 39.0758 89.7382 39.0758 90.2432 41.6008C91.1958 41.5428 92.1484 41.4848 93.1299 41.425C103.355 41.0572 103.355 41.0572 107.306 43.4758C115.15 56.1283 117.569 67.302 117.865 82.0725C117.888 82.9997 117.911 83.9268 117.935 84.8821C117.953 86.136 117.953 86.136 117.972 87.4153C118.114 89.8918 118.114 89.8918 120.243 92.6008C121.034 96.5256 121.109 100.134 119.04 103.64C116.447 106.717 113.623 109.391 110.243 111.601C110.738 111.993 111.233 112.385 111.743 112.788C113.243 114.601 113.243 114.601 113.681 117.101C113.243 119.601 113.243 119.601 111.493 121.413C109.243 122.601 109.243 122.601 105.243 122.601C105.157 123.158 105.07 123.715 104.981 124.288C103.787 130.775 101.95 137.005 96.3135 140.952C86.8887 145.896 73.3401 146.482 63.1182 143.476C57.5579 141.17 52.9226 137.603 50.3057 132.101C49.2747 128.705 48.9855 126.122 49.2432 122.601C52.2367 124.098 52.3317 126.311 53.4307 129.413C55.4664 134.647 55.4664 134.647 59.5557 138.226C69.8184 142.053 80.8746 143.724 91.376 139.57C96.6773 136.819 98.8198 132.984 100.665 127.566C101.247 125.589 101.761 123.604 102.243 121.601C100.923 121.601 99.6032 121.601 98.2432 121.601C97.9957 122.797 97.7482 123.993 97.4932 125.226C96.4133 129.376 95.1773 132.366 92.2432 135.601C84.8854 139.821 75.3978 139.762 67.3291 137.945C62.8656 136.417 60.032 134.997 57.6182 130.851C57.1644 129.778 56.7107 128.706 56.2432 127.601C57.2332 127.106 57.2332 127.106 58.2432 126.601C58.7382 125.611 58.7382 125.611 59.2432 124.601C59.5525 125.694 59.8619 126.787 60.1807 127.913C61.1944 130.232 61.8741 131.366 64.0244 132.734C71.4991 135.523 80.1517 135.804 87.8057 133.538C92.7869 130.731 93.4451 127.43 94.9307 122.163C95.0338 121.648 95.1369 121.132 95.2432 120.601C93.2632 120.601 91.2832 120.601 89.2432 120.601C90.2332 120.271 91.2232 119.941 92.2432 119.601C92.2432 118.941 92.2432 118.281 92.2432 117.601C97.5232 118.261 102.803 118.921 108.243 119.601C108.738 117.621 108.738 117.621 109.243 115.601C107.392 112.848 107.392 112.848 105.243 110.601C106.697 109.428 108.156 108.263 109.618 107.101C110.43 106.451 111.242 105.801 112.079 105.132C114.243 103.601 114.243 103.601 116.243 103.601C116.522 102.21 116.765 100.813 116.993 99.4133C117.132 98.636 117.272 97.8587 117.415 97.0579C117.49 94.4167 117.49 94.4167 115.255 92.4758C112.18 88.082 113.03 83.9939 113.306 78.7883C113.634 66.8599 112.705 54.8413 104.243 45.6008C101.151 44.055 98.6489 44.3072 95.2432 44.6008C91.7029 47.2308 89.5941 50.9065 87.2432 54.6008C86.2885 52.4312 86.0992 51.0375 86.8447 48.7766C87.6019 47.0324 88.4193 45.3146 89.2432 43.6008C84.2932 42.6108 84.2932 42.6108 79.2432 41.6008C79.5732 40.6108 79.9032 39.6208 80.2432 38.6008C81.8932 38.6008 83.5432 38.6008 85.2432 38.6008C85.2432 37.9408 85.2432 37.2808 85.2432 36.6008C80.7882 37.0958 80.7882 37.0958 76.2432 37.6008C76.5732 36.2808 76.9032 34.9608 77.2432 33.6008C79.5532 33.6008 81.8632 33.6008 84.2432 33.6008C83.7482 32.6108 83.7482 32.6108 83.2432 31.6008Z" fill="#16130F"/>
<path d="M101.243 56.6008C106.744 61.4621 108.889 67.5195 109.396 74.7839C109.496 77.2662 109.541 79.7416 109.556 82.2258C109.561 83.0253 109.567 83.8247 109.573 84.6484C109.419 97.3415 109.419 97.3415 105.403 101.511C104.711 101.891 104.019 102.272 103.306 102.663C102.616 103.067 101.926 103.47 101.216 103.886C99.2432 104.601 99.2432 104.601 96.2432 103.601C96.5655 102.9 96.8877 102.198 97.2198 101.476C99.3214 95.5719 99.3556 88.9592 96.6807 83.2883C94.2222 81.22 94.2222 81.22 90.4932 81.7883C89.4207 82.0565 88.3482 82.3246 87.2432 82.6008C86.6619 73.2027 87.5534 65.7665 93.1182 57.9758C96.1349 56.0238 97.7217 55.8822 101.243 56.6008Z" fill="#8DCBDF"/>
<path d="M54.6807 56.1008C58.2432 56.6008 58.2432 56.6008 60.4932 58.5383C64.9003 66.2509 65.8118 73.8107 66.2432 82.6008C63.6032 82.2708 60.9632 81.9408 58.2432 81.6008C54.4474 86.1083 53.739 89.2536 53.9697 95.1204C54.34 98.4793 55.1339 101.412 56.2432 104.601C52.2135 103.383 48.6416 102.125 45.2432 99.6008C43.3117 94.2342 43.9754 88.0303 43.9307 82.4133C43.9017 81.219 43.8727 80.0247 43.8428 78.7942C43.786 70.8574 44.4441 64.1676 49.6638 57.8931C51.2432 56.6008 51.2432 56.6008 54.6807 56.1008Z" fill="#8DCBE0"/>
<path d="M68.2432 119.601C70.1924 121.351 70.1924 121.351 71.9307 123.601C72.9979 124.964 74.095 126.305 75.2432 127.601C75.9032 127.601 76.5632 127.601 77.2432 127.601C78.0584 126.261 78.8455 124.903 79.6182 123.538C81.1807 121.316 81.1807 121.316 83.2432 119.601C87.3912 119.183 91.1764 119.759 95.2432 120.601C94.7813 125.312 94.3832 128.954 91.2432 132.601C83.4475 136.711 74.7172 136.751 66.2432 134.601C62.8213 133.303 61.4016 131.883 59.6807 128.663C58.3543 125.604 58.2432 124.103 58.2432 120.601C61.6557 119.821 64.7498 119.216 68.2432 119.601Z" fill="#EBA735"/>
<path d="M83.2432 31.6008C85.5532 31.6008 87.8632 31.6008 90.2432 31.6008C90.5732 32.9208 90.9032 34.2408 91.2432 35.6008C90.2532 36.0958 90.2532 36.0958 89.2432 36.6008C89.5732 38.2508 89.9032 39.9008 90.2432 41.6008C91.1958 41.5428 92.1484 41.4848 93.1299 41.425C103.355 41.0572 103.355 41.0572 107.306 43.4758C115.111 56.0655 117.565 67.1979 117.865 81.8967C118.001 88.4677 118.001 88.4677 120.243 94.6008C117.243 94.6008 117.243 94.6008 115.052 92.7766C112.392 88.106 113.027 84.0458 113.306 78.7883C113.634 66.8599 112.705 54.8413 104.243 45.6008C101.151 44.055 98.6489 44.3072 95.2432 44.6008C91.7029 47.2308 89.5941 50.9065 87.2432 54.6008C86.2885 52.4312 86.0992 51.0375 86.8447 48.7766C87.6019 47.0324 88.4193 45.3146 89.2432 43.6008C85.9432 42.9408 82.6432 42.2808 79.2432 41.6008C79.5732 40.6108 79.9032 39.6208 80.2432 38.6008C81.8932 38.6008 83.5432 38.6008 85.2432 38.6008C85.2432 37.9408 85.2432 37.2808 85.2432 36.6008C80.7882 37.0958 80.7882 37.0958 76.2432 37.6008C76.5732 36.2808 76.9032 34.9608 77.2432 33.6008C79.5532 33.6008 81.8632 33.6008 84.2432 33.6008C83.9132 32.9408 83.5832 32.2808 83.2432 31.6008Z" fill="#161818"/>
<path d="M51.2431 121.601C52.5631 121.601 53.8831 121.601 55.2431 121.601C55.4971 122.288 55.751 122.975 56.0127 123.683C56.3569 124.584 56.701 125.485 57.0556 126.413C57.3921 127.307 57.7285 128.2 58.0752 129.12C59.9367 133.074 61.7079 134.333 65.6181 136.288C73.3798 138.99 82.7863 138.681 90.4385 135.71C95.2814 132.733 96.728 126.778 98.2431 121.601C99.5631 121.601 100.883 121.601 102.243 121.601C101.898 128.052 100.525 132.649 96.2431 137.601C88.8732 143.44 80.1926 143.024 71.2431 142.601C65.8724 141.904 60.3083 140.301 56.2431 136.601C53.0066 131.771 50.8956 127.489 51.2431 121.601Z" fill="#E5BB3C"/>
<path d="M92.2432 117.601C92.2432 118.261 92.2432 118.921 92.2432 119.601C91.373 119.57 91.373 119.57 90.4854 119.538C86.6588 119.639 84.1604 119.724 81.3096 122.448C79.8382 124.449 78.4901 126.454 77.2432 128.601C74.0077 127.206 73.2098 126.552 71.1182 123.476C69.3502 121.178 68.6188 120.659 65.7002 120.21C63.1894 120.224 60.7396 120.339 58.2432 120.601C58.2432 122.581 58.2432 124.561 58.2432 126.601C57.5832 126.601 56.9232 126.601 56.2432 126.601C55.9132 124.951 55.5832 123.301 55.2432 121.601C53.9232 121.601 52.6032 121.601 51.2432 121.601C50.5832 122.921 49.9232 124.241 49.2432 125.601C48.9132 124.611 48.5832 123.621 48.2432 122.601C46.5932 122.601 44.9432 122.601 43.2432 122.601C45.8334 118.715 47.1629 118.817 51.6807 117.913C63.886 115.626 80.2383 114.037 92.2432 117.601Z" fill="#0E0B0B"/>
<path d="M97.7431 52.8508C102.186 53.8028 104.115 55.3303 107.243 58.6008C112.38 67.0395 112.51 74.9177 112.368 84.5383C112.359 85.6991 112.35 86.8599 112.341 88.0559C112.317 90.9044 112.284 93.7525 112.243 96.6008C110.923 96.2708 109.603 95.9408 108.243 95.6008C108.259 94.9565 108.274 94.3121 108.291 93.6482C108.354 90.6742 108.392 87.7003 108.431 84.7258C108.456 83.7126 108.481 82.6994 108.507 81.6555C108.584 73.5747 107.525 66.5353 103.431 59.4758C101.325 57.3664 101.325 57.3664 98.2431 56.9758C95.1364 57.357 95.1364 57.357 93.0556 59.6008C88.3107 67.4544 87.6429 74.5554 87.2431 83.6008C86.9131 83.6008 86.5831 83.6008 86.2431 83.6008C85.9131 81.9508 85.5831 80.3008 85.2431 78.6008C84.9131 78.6008 84.5831 78.6008 84.2431 78.6008C83.5266 70.541 86.1808 62.8564 91.0556 56.4133C93.4326 53.9286 94.1995 53.6102 97.7431 52.8508Z" fill="#101414"/>
<path d="M92.2432 117.601C98.1832 118.591 98.1832 118.591 104.243 119.601C103.583 120.921 102.923 122.241 102.243 123.601C102.243 122.941 102.243 122.281 102.243 121.601C100.923 121.601 99.6032 121.601 98.2432 121.601C97.9957 122.797 97.7482 123.993 97.4932 125.226C96.4133 129.376 95.1773 132.366 92.2432 135.601C84.8854 139.821 75.3978 139.762 67.3291 137.945C62.8656 136.417 60.032 134.997 57.6182 130.851C57.1644 129.778 56.7107 128.706 56.2432 127.601C56.9032 127.271 57.5632 126.941 58.2432 126.601C58.5732 125.941 58.9032 125.281 59.2432 124.601C59.5525 125.694 59.8619 126.787 60.1807 127.913C61.1944 130.232 61.8741 131.366 64.0244 132.734C71.4991 135.523 80.1517 135.804 87.8057 133.538C92.7869 130.731 93.4451 127.43 94.9307 122.163C95.0338 121.648 95.1369 121.132 95.2432 120.601C93.2632 120.601 91.2832 120.601 89.2432 120.601C90.2332 120.271 91.2232 119.941 92.2432 119.601C92.2432 118.941 92.2432 118.281 92.2432 117.601Z" fill="#262013"/>
<path d="M58.2432 53.6008C63.7754 56.6886 65.9539 61.8424 67.9346 67.6165C69.2671 72.3501 69.6588 76.6964 69.2432 81.6008C67.7432 83.6008 67.7432 83.6008 66.2432 84.6008C64.9525 82.0196 65.0228 79.9209 64.8682 77.0383C64.3606 70.4315 62.8878 64.9723 59.9932 59.0383C58.1671 57.2933 58.1671 57.2933 54.8057 57.0383C51.1687 57.2758 51.1687 57.2758 48.9307 59.7258C44.9827 66.4519 44.8433 72.8572 44.6182 80.4758C44.5795 81.5458 44.5408 82.6157 44.501 83.718C44.4071 86.3455 44.3214 88.9729 44.2432 91.6008C43.9132 91.6008 43.5832 91.6008 43.2432 91.6008C42.7482 84.1758 42.7482 84.1758 42.2432 76.6008C41.9132 76.6008 41.5832 76.6008 41.2432 76.6008C41.5582 68.0323 42.6159 61.5222 48.5557 55.1008C52.0985 53.1235 54.2405 53.029 58.2432 53.6008Z" fill="#181B1A"/>
<path d="M84.2432 24.6008C83.6156 27.5296 82.6569 29.9618 81.2432 32.6008C82.8932 32.6008 84.5432 32.6008 86.2432 32.6008C84.2432 34.6008 84.2432 34.6008 81.6182 34.7258C80.8344 34.6846 80.0507 34.6433 79.2432 34.6008C78.2432 31.6008 78.2432 31.6008 78.2432 29.6008C75.1623 30.2559 75.1623 30.2559 74.1807 32.4758C73.8713 33.1771 73.5619 33.8783 73.2432 34.6008C72.2532 36.0858 72.2532 36.0858 71.2432 37.6008C70.5832 37.6008 69.9232 37.6008 69.2432 37.6008C68.5832 35.6208 67.9232 33.6408 67.2432 31.6008C66.9132 34.9008 66.5832 38.2008 66.2432 41.6008C65.2532 41.6008 64.2632 41.6008 63.2432 41.6008C63.2432 36.6508 63.2432 31.7008 63.2432 26.6008C67.0805 27.5602 67.8398 27.8369 70.2432 30.6008C72.8052 29.4184 74.9241 28.1185 77.2432 26.4758C80.2432 24.6008 80.2432 24.6008 84.2432 24.6008Z" fill="#141919"/>
<path d="M113.243 56.6008C117.731 64.6147 117.609 72.7444 117.81 81.6829C117.839 82.6277 117.869 83.5726 117.899 84.5461C117.918 85.3971 117.937 86.248 117.956 87.1248C118.276 89.8881 119.11 92.0714 120.243 94.6008C117.243 94.6008 117.243 94.6008 115.063 92.8079C112.35 88.0265 112.893 83.6779 113.118 78.2883C113.36 71.2979 113.314 65.3196 111.243 58.6008C111.903 58.6008 112.563 58.6008 113.243 58.6008C113.243 57.9408 113.243 57.2808 113.243 56.6008Z" fill="#131718"/>
<path d="M64.2432 41.6008C64.2432 42.5908 64.2432 43.5808 64.2432 44.6008C64.5732 45.3846 64.9032 46.1683 65.2432 46.9758C66.2902 49.7244 66.4095 51.6895 66.2432 54.6008C64.1293 52.6983 62.7681 50.881 61.1807 48.4758C59.5517 45.5502 59.5517 45.5502 57.2432 44.6008C51.9633 44.0008 49.4118 45.4247 45.2432 48.6008C44.5832 47.9408 43.9232 47.2808 43.2432 46.6008C50.6335 40.3351 54.4285 40.0305 64.2432 41.6008Z" fill="#1E282A"/>
<path d="M67.2432 116.601C67.5732 117.591 67.9032 118.581 68.2432 119.601C64.9432 119.931 61.6432 120.261 58.2432 120.601C58.2432 122.581 58.2432 124.561 58.2432 126.601C57.5832 126.601 56.9232 126.601 56.2432 126.601C55.9132 124.951 55.5832 123.301 55.2432 121.601C53.9232 121.601 52.6032 121.601 51.2432 121.601C50.5832 122.921 49.9232 124.241 49.2432 125.601C48.9132 124.611 48.5832 123.621 48.2432 122.601C46.5932 122.601 44.9432 122.601 43.2432 122.601C45.2432 119.601 45.2432 119.601 48.7275 118.652C50.1471 118.392 51.5692 118.147 52.9932 117.913C53.697 117.784 54.4008 117.654 55.126 117.521C59.2108 116.803 63.0801 116.463 67.2432 116.601Z" fill="#3C2F1A"/>
<path d="M34.2432 102.601C37.7416 103.235 40.084 104.653 42.9932 106.663C43.7924 107.211 44.5916 107.759 45.415 108.323C46.32 108.956 46.32 108.956 47.2432 109.601C46.8682 111.538 46.8682 111.538 46.2432 113.601C45.2532 114.096 45.2532 114.096 44.2432 114.601C44.4315 117.046 44.4315 117.046 45.2432 119.601C47.2107 120.961 47.2107 120.961 49.2432 121.601C45.8682 121.726 45.8682 121.726 42.2432 121.601C41.5832 120.941 40.9232 120.281 40.2432 119.601C40.4988 117.258 40.8359 114.922 41.2432 112.601C41.5922 109.593 41.5922 109.593 39.7119 108.031C39.0622 107.517 38.4125 107.004 37.7432 106.476C36.5628 105.534 35.3924 104.58 34.2432 103.601C34.2432 103.271 34.2432 102.941 34.2432 102.601Z" fill="#161614"/>
<path d="M112.243 87.6008C118.22 93.4241 118.22 93.4241 118.306 97.7258C118.285 98.6746 118.264 99.6233 118.243 100.601C115.933 100.931 113.623 101.261 111.243 101.601C111.243 102.261 111.243 102.921 111.243 103.601C109.923 103.271 108.603 102.941 107.243 102.601C108.773 101.364 110.303 100.127 111.833 98.8899C113.376 97.6342 113.376 97.6342 114.243 95.6008C113.253 95.6008 112.263 95.6008 111.243 95.6008C111.201 93.2679 111.202 90.9338 111.243 88.6008C111.573 88.2708 111.903 87.9408 112.243 87.6008Z" fill="#E8C63F"/>
<path d="M94.2432 41.6008C103.157 40.8219 103.157 40.8219 107.118 43.6633C113.915 53.0588 113.915 53.0588 113.243 58.6008C112.583 58.6008 111.923 58.6008 111.243 58.6008C111.012 58.0092 110.782 57.4175 110.544 56.8079C108.507 51.872 106.766 47.7164 102.243 44.6008C99.1943 44.2107 96.2969 44.3014 93.2432 44.6008C93.5732 43.6108 93.9032 42.6208 94.2432 41.6008Z" fill="#151A1A"/>
<path d="M42.2432 74.6008C42.5732 74.6008 42.9032 74.6008 43.2432 74.6008C43.5732 83.1808 43.9032 91.7608 44.2432 100.601C42.9232 99.9408 41.6032 99.2808 40.2432 98.6008C39.9132 97.6108 39.5832 96.6208 39.2432 95.6008C39.9032 95.6008 40.5632 95.6008 41.2432 95.6008C41.2379 95.0357 41.2327 94.4706 41.2273 93.8884C41.2065 91.3342 41.1935 88.7801 41.1807 86.2258C41.1723 85.3364 41.1639 84.4469 41.1553 83.5305C41.1521 82.6797 41.1488 81.829 41.1455 80.9524C41.1403 80.1669 41.135 79.3813 41.1296 78.572C41.2432 76.6008 41.2432 76.6008 42.2432 74.6008Z" fill="#0B0A09"/>
<path d="M37.2432 73.6008C37.5732 73.6008 37.9032 73.6008 38.2432 73.6008C38.4918 76.2045 38.7177 78.8067 38.9307 81.4133C39.0399 82.5203 39.0399 82.5203 39.1514 83.6497C39.3174 85.8079 39.3174 85.8079 39.2432 89.6008C37.7744 91.2883 37.7744 91.2883 36.2432 92.6008C35.881 95.1137 35.881 95.1137 36.0557 97.7883C36.0827 98.6894 36.1098 99.5904 36.1377 100.519C36.1725 101.206 36.2073 101.893 36.2432 102.601C35.2532 102.601 34.2632 102.601 33.2432 102.601C32.9915 101.209 32.7678 99.8118 32.5557 98.4133C32.428 97.636 32.3004 96.8587 32.1689 96.0579C32.2432 93.6008 32.2432 93.6008 33.6494 91.2883C35.6646 87.8902 36.0288 84.6406 36.4307 80.7883C36.5125 80.0955 36.5944 79.4026 36.6787 78.6887C36.8774 76.994 37.0618 75.2975 37.2432 73.6008Z" fill="#1B1C1D"/>
<path d="M40.2432 76.6008C40.5732 76.6008 40.9032 76.6008 41.2432 76.6008C41.2432 82.8708 41.2432 89.1408 41.2432 95.6008C40.2532 95.6008 39.2632 95.6008 38.2432 95.6008C38.2432 96.2608 38.2432 96.9208 38.2432 97.6008C37.2532 97.9308 36.2632 98.2608 35.2432 98.6008C35.0557 95.7883 35.0557 95.7883 35.2432 92.6008C36.6807 90.9758 36.6807 90.9758 38.2432 89.6008C39.1484 86.7218 39.4974 83.8459 39.8057 80.8508C39.8895 80.0516 39.9732 79.2524 40.0596 78.429C40.1202 77.8257 40.1807 77.2224 40.2432 76.6008Z" fill="#CFBA65"/>
<path d="M65.2431 63.6008C68.911 67.2688 69.3602 72.8808 69.5556 77.9133C69.2431 81.6008 69.2431 81.6008 67.7431 83.6008C67.2481 83.9308 66.7531 84.2608 66.2431 84.6008C64.6076 81.33 64.8191 77.7013 64.6181 74.1008C64.5665 73.3158 64.5149 72.5308 64.4618 71.7219C64.1193 65.8484 64.1193 65.8484 65.2431 63.6008Z" fill="#2C3335"/>
<path d="M42.2433 64.6008C41.6504 71.9425 41.0051 79.2747 40.2433 86.6008C39.5833 86.2708 38.9233 85.9408 38.2433 85.6008C38.1622 82.8502 38.1028 80.102 38.0558 77.3508C38.0306 76.5735 38.0055 75.7962 37.9796 74.9954C37.9052 69.1949 37.9052 69.1949 39.6925 66.054C41.2433 64.6008 41.2433 64.6008 42.2433 64.6008Z" fill="#EAEBEA"/>
<path d="M83.2432 31.6008C85.5532 31.6008 87.8632 31.6008 90.2432 31.6008C90.5732 32.9208 90.9032 34.2408 91.2432 35.6008C89.2632 36.5908 87.2832 37.5808 85.2432 38.6008C85.2432 37.9408 85.2432 37.2808 85.2432 36.6008C80.7882 37.0958 80.7882 37.0958 76.2432 37.6008C76.5732 36.2808 76.9032 34.9608 77.2432 33.6008C79.5532 33.6008 81.8632 33.6008 84.2432 33.6008C83.9132 32.9408 83.5832 32.2808 83.2432 31.6008Z" fill="#162022"/>
<path d="M111.243 71.6008C111.573 71.6008 111.903 71.6008 112.243 71.6008C112.243 79.8508 112.243 88.1008 112.243 96.6008C110.923 96.2708 109.603 95.9408 108.243 95.6008C108.573 89.3308 108.903 83.0608 109.243 76.6008C109.573 76.6008 109.903 76.6008 110.243 76.6008C110.573 74.9508 110.903 73.3008 111.243 71.6008Z" fill="#2F302E"/>
<path d="M63.2432 26.6008C68.2866 27.8617 68.2866 27.8617 70.2432 30.6008C70.4307 33.2883 70.4307 33.2883 70.2432 35.6008C69.5832 35.2708 68.9232 34.9408 68.2432 34.6008C67.9132 33.6108 67.5832 32.6208 67.2432 31.6008C66.9132 34.9008 66.5832 38.2008 66.2432 41.6008C65.2532 41.6008 64.2632 41.6008 63.2432 41.6008C63.2432 36.6508 63.2432 31.7008 63.2432 26.6008Z" fill="#090C0D"/>
<path d="M87.2431 62.6008C88.2331 63.2608 89.2231 63.9208 90.2431 64.6008C89.7675 65.8731 89.7675 65.8731 89.2822 67.1711C88.2144 70.6956 87.8427 73.8075 87.6181 77.4758C87.5434 78.6283 87.4686 79.7807 87.3916 80.968C87.3426 81.8368 87.2936 82.7057 87.2431 83.6008C86.9131 83.6008 86.5831 83.6008 86.2431 83.6008C85.9131 81.9508 85.5831 80.3008 85.2431 78.6008C84.9131 78.6008 84.5831 78.6008 84.2431 78.6008C83.8646 72.6708 85.1374 68.1284 87.2431 62.6008Z" fill="#282D2E"/>
<path d="M109.243 94.6008C109.573 95.2608 109.903 95.9208 110.243 96.6008C111.563 96.2708 112.883 95.9408 114.243 95.6008C112.785 99.2873 110.941 100.762 107.618 102.851C106.801 103.372 105.984 103.892 105.142 104.429C104.202 105.009 104.202 105.009 103.243 105.601C102.583 105.271 101.923 104.941 101.243 104.601C101.243 103.941 101.243 103.281 101.243 102.601C102.006 102.168 102.769 101.735 103.556 101.288C106.562 99.4003 107.642 97.7194 109.243 94.6008Z" fill="#131515"/>
<path d="M53.2432 53.6008C57.3101 53.8355 59.5688 53.9797 62.6182 56.7883C64.364 59.81 64.9218 62.1466 65.2432 65.6008C64.5832 65.6008 63.9232 65.6008 63.2432 65.6008C62.165 63.9211 62.165 63.9211 60.9932 61.7258C59.0719 58.4798 58.5122 57.7227 54.9307 56.1008C54.0438 55.9358 53.1569 55.7708 52.2432 55.6008C52.5732 54.9408 52.9032 54.2808 53.2432 53.6008Z" fill="#131516"/>
<path d="M114.243 70.6008C114.573 70.6008 114.903 70.6008 115.243 70.6008C115.28 71.7094 115.318 72.818 115.356 73.9602C115.422 75.4238 115.488 76.8873 115.556 78.3508C115.578 79.0804 115.601 79.81 115.624 80.5618C115.839 84.8716 116.299 87.4116 119.243 90.6008C119.931 92.8508 119.931 92.8508 120.243 94.6008C117.243 94.6008 117.243 94.6008 115.04 92.7141C112.484 88.2849 113.026 84.7638 113.493 79.7883C113.559 78.9047 113.625 78.021 113.692 77.1106C113.857 74.9391 114.047 72.7697 114.243 70.6008Z" fill="#454643"/>
<path d="M92.2432 140.601C92.2432 141.261 92.2432 141.921 92.2432 142.601C85.6251 145.063 79.2388 144.79 72.2432 144.601C75.6765 142.593 78.8898 142.037 82.8057 141.476C83.9413 141.308 85.077 141.141 86.2471 140.968C89.2432 140.601 89.2432 140.601 92.2432 140.601Z" fill="#0C0D0B"/>
<path d="M113.243 99.6008C114.563 99.9308 115.883 100.261 117.243 100.601C115.779 104.992 113.265 105.48 109.243 107.601C108.253 106.941 107.263 106.281 106.243 105.601C106.243 104.941 106.243 104.281 106.243 103.601C107.893 103.601 109.543 103.601 111.243 103.601C111.243 102.941 111.243 102.281 111.243 101.601C111.903 101.601 112.563 101.601 113.243 101.601C113.243 100.941 113.243 100.281 113.243 99.6008Z" fill="#F3CD3C"/>
<path d="M71.2432 118.601C74.2132 118.601 77.1832 118.601 80.2432 118.601C79.5832 120.251 78.9232 121.901 78.2432 123.601C76.9232 123.601 75.6032 123.601 74.2432 123.601C72.4932 121.101 72.4932 121.101 71.2432 118.601Z" fill="#CE796B"/>
<path d="M44.2432 95.6008C44.4881 96.2144 44.733 96.828 44.9854 97.4602C46.4937 100.027 47.6857 100.639 50.3682 101.851C51.0926 102.186 51.8171 102.521 52.5635 102.866C53.1178 103.109 53.6721 103.351 54.2432 103.601C54.2432 104.591 54.2432 105.581 54.2432 106.601C50.1903 105.376 46.7996 103.902 43.2432 101.601C43.5732 99.6208 43.9032 97.6408 44.2432 95.6008Z" fill="#1B1C1B"/>
<path d="M43.2432 68.6008C43.5732 68.6008 43.9032 68.6008 44.2432 68.6008C44.2432 76.1908 44.2432 83.7808 44.2432 91.6008C43.9132 91.6008 43.5832 91.6008 43.2432 91.6008C42.9132 86.6508 42.5832 81.7008 42.2432 76.6008C41.9132 76.6008 41.5832 76.6008 41.2432 76.6008C41.1182 73.7258 41.1182 73.7258 41.2432 70.6008C41.9032 69.9408 42.5632 69.2808 43.2432 68.6008Z" fill="#303D42"/>
<path d="M51.2432 121.601C52.5632 121.601 53.8832 121.601 55.2432 121.601C55.5732 124.901 55.9032 128.201 56.2432 131.601C54.9232 130.941 53.6032 130.281 52.2432 129.601C51.4043 126.923 51.4255 124.427 51.2432 121.601Z" fill="#EDC845"/>
<path d="M95.2432 120.601C96.2332 120.601 97.2232 120.601 98.2432 120.601C97.9596 122.04 97.666 123.477 97.3682 124.913C97.2057 125.714 97.0433 126.514 96.876 127.339C96.2432 129.601 96.2432 129.601 94.2432 132.601C93.2532 132.271 92.2632 131.941 91.2432 131.601C91.7175 130.528 92.1919 129.456 92.6807 128.351C93.7808 125.792 94.6948 123.342 95.2432 120.601Z" fill="#1A150F"/>
<path d="M70.8057 116.538C71.94 116.559 73.0744 116.58 74.2432 116.601C74.5732 117.261 74.9032 117.921 75.2432 118.601C74.2532 118.931 73.2632 119.261 72.2432 119.601C72.9032 120.921 73.5632 122.241 74.2432 123.601C72.3682 123.351 72.3682 123.351 70.2432 122.601C69.1182 120.601 69.1182 120.601 68.2432 118.601C67.5832 118.271 66.9232 117.941 66.2432 117.601C67.2432 116.601 67.2432 116.601 70.8057 116.538Z" fill="#080708"/>
<path d="M47.4072 115.159C48.2193 115.45 49.0314 115.74 49.8682 116.038C50.6854 116.326 51.5027 116.613 52.3447 116.909C52.9712 117.138 53.5977 117.366 54.2432 117.601C50.599 120.03 48.5308 119.763 44.2432 119.601C43.9132 118.281 43.5832 116.961 43.2432 115.601C45.2432 114.601 45.2432 114.601 47.4072 115.159Z" fill="#F6CE46"/>
<path d="M91.2431 42.6008C91.9031 42.6008 92.5631 42.6008 93.2431 42.6008C93.5731 43.5908 93.9031 44.5808 94.2431 45.6008C93.8306 45.9721 93.4181 46.3433 92.9931 46.7258C90.735 49.1452 89.0327 51.8239 87.2431 54.6008C86.2996 52.0618 86.074 50.9917 87.1689 48.4602C87.6265 47.7641 88.0841 47.068 88.5556 46.3508C89.0055 45.6444 89.4554 44.938 89.9189 44.2102C90.3559 43.6791 90.7929 43.148 91.2431 42.6008Z" fill="#222424"/>
<path d="M49.2431 122.601C52.1944 124.076 52.3124 126.102 53.3681 129.163C53.7214 130.175 54.0746 131.187 54.4385 132.23C54.704 133.012 54.9696 133.795 55.2431 134.601C54.2531 134.931 53.2631 135.261 52.2431 135.601C50.0246 130.979 48.8603 127.833 49.2431 122.601Z" fill="#191A17"/>
<path d="M67.2432 116.601C67.5732 117.591 67.9032 118.581 68.2432 119.601C63.6232 119.931 59.0032 120.261 54.2432 120.601C54.2432 119.941 54.2432 119.281 54.2432 118.601C58.7802 117.149 62.4238 116.366 67.2432 116.601Z" fill="#211C15"/>
<path d="M94.2432 132.601C91.1632 136.273 88.9949 137.169 84.2432 137.601C83.9132 136.611 83.5832 135.621 83.2432 134.601C87.0664 133.178 90.156 132.36 94.2432 132.601Z" fill="#231D12"/>
<path d="M112.243 87.6008C113.952 89.2242 115.618 90.894 117.243 92.6008C117.243 93.2608 117.243 93.9208 117.243 94.6008C115.263 94.9308 113.283 95.2608 111.243 95.6008C111.201 93.2679 111.202 90.9338 111.243 88.6008C111.573 88.2708 111.903 87.9408 112.243 87.6008Z" fill="#E2C872"/>
<path d="M41.2432 121.601C43.5532 121.931 45.8632 122.261 48.2432 122.601C48.5732 124.581 48.9032 126.561 49.2432 128.601C43.5816 126.139 43.5816 126.139 41.8682 123.413C41.6619 122.815 41.4557 122.217 41.2432 121.601Z" fill="#7BCDEA"/>
<path d="M105.243 103.601C107.243 104.976 107.243 104.976 109.243 106.601C109.243 108.601 109.243 108.601 107.743 110.226C107.248 110.68 106.753 111.133 106.243 111.601C106.573 112.261 106.903 112.921 107.243 113.601C106.253 113.601 105.263 113.601 104.243 113.601C103.913 110.631 103.583 107.661 103.243 104.601C103.903 104.271 104.563 103.941 105.243 103.601Z" fill="#E3B834"/>
<path d="M94.2432 53.6008C94.9032 53.9308 95.5632 54.2608 96.2432 54.6008C94.4107 57.7423 92.6062 60.8269 90.2432 63.6008C89.5832 63.6008 88.9232 63.6008 88.2432 63.6008C88.6574 58.7683 90.7073 56.774 94.2432 53.6008Z" fill="#181B1D"/>
<path d="M79.2432 27.6008C79.5732 28.2608 79.9032 28.9208 80.2432 29.6008C79.1807 32.6008 79.1807 32.6008 77.2432 35.6008C74.0557 36.9758 74.0557 36.9758 71.2432 37.6008C75.2432 30.0294 75.2432 30.0294 79.2432 27.6008Z" fill="#DCDEE0"/>
<path d="M60.2432 43.6008C60.9032 43.6008 61.5632 43.6008 62.2432 43.6008C64.6082 46.5919 66.1587 48.6294 66.4932 52.4758C66.4107 53.1771 66.3282 53.8783 66.2432 54.6008C62.9703 51.8189 61.2789 48.3213 59.2432 44.6008C59.5732 44.2708 59.9032 43.9408 60.2432 43.6008Z" fill="#181919"/>
<path d="M109.243 111.601C111.243 112.788 111.243 112.788 113.243 114.601C113.493 117.288 113.493 117.288 113.243 119.601C112.253 119.931 111.263 120.261 110.243 120.601C109.934 119.652 109.624 118.703 109.306 117.726C108.369 114.74 108.369 114.74 107.243 112.601C107.903 112.271 108.563 111.941 109.243 111.601Z" fill="#1A201D"/>
<path d="M70.2432 99.6008C75.1932 99.6008 80.1432 99.6008 85.2432 99.6008C85.2432 100.261 85.2432 100.921 85.2432 101.601C82.9304 102.757 81.4423 102.8 78.8682 102.851C77.7119 102.89 77.7119 102.89 76.5322 102.929C74.2432 102.601 74.2432 102.601 70.2432 99.6008Z" fill="#3D3D3A"/>
<path d="M109.243 118.601C109.903 119.591 110.563 120.581 111.243 121.601C109.263 121.931 107.283 122.261 105.243 122.601C104.913 123.921 104.583 125.241 104.243 126.601C103.583 126.601 102.923 126.601 102.243 126.601C102.573 124.621 102.903 122.641 103.243 120.601C105.223 119.941 107.203 119.281 109.243 118.601Z" fill="#0F1013"/>
<path d="M64.2432 140.601C70.1832 141.591 70.1832 141.591 76.2432 142.601C72.2635 144.591 71.5664 144.825 67.4932 144.226C66.6939 144.115 65.8947 144.004 65.0713 143.89C64.468 143.795 63.8647 143.699 63.2432 143.601C63.5732 142.611 63.9032 141.621 64.2432 140.601Z" fill="#121817"/>
<path d="M38.2432 95.6008C39.5632 97.2508 40.8832 98.9008 42.2432 100.601C41.2532 101.096 41.2532 101.096 40.2432 101.601C40.2432 100.941 40.2432 100.281 40.2432 99.6008C39.2532 99.6008 38.2632 99.6008 37.2432 99.6008C37.2432 100.261 37.2432 100.921 37.2432 101.601C38.2332 101.931 39.2232 102.261 40.2432 102.601C39.5832 103.261 38.9232 103.921 38.2432 104.601C36.6807 102.788 36.6807 102.788 35.2432 100.601C35.5732 99.6108 35.9032 98.6208 36.2432 97.6008C36.9032 97.6008 37.5632 97.6008 38.2432 97.6008C38.2432 96.9408 38.2432 96.2808 38.2432 95.6008Z" fill="#DBBB3B"/>
<path d="M66.2431 72.6008C67.2331 72.9308 68.2231 73.2608 69.2431 73.6008C69.6123 81.1085 69.6123 81.1085 67.7431 83.6008C67.0006 84.0958 67.0006 84.0958 66.2431 84.6008C64.9315 81.9777 65.3466 80.3705 65.6806 77.4758C65.7824 76.5658 65.8843 75.6557 65.9892 74.718C66.073 74.0193 66.1568 73.3207 66.2431 72.6008Z" fill="#31393C"/>
<path d="M98.2432 121.601C99.5632 121.601 100.883 121.601 102.243 121.601C101.913 123.581 101.583 125.561 101.243 127.601C100.583 127.601 99.9232 127.601 99.2432 127.601C98.9132 128.261 98.5832 128.921 98.2432 129.601C98.2432 126.961 98.2432 124.321 98.2432 121.601Z" fill="#EDC83E"/>
<path d="M45.2432 119.601C47.1885 119.308 47.1885 119.308 49.3682 119.413C50.6469 119.475 51.9257 119.537 53.2432 119.601C53.2432 120.261 53.2432 120.921 53.2432 121.601C52.5832 121.601 51.9232 121.601 51.2432 121.601C50.5832 122.921 49.9232 124.241 49.2432 125.601C48.9132 124.611 48.5832 123.621 48.2432 122.601C46.5932 122.601 44.9432 122.601 43.2432 122.601C43.9032 121.611 44.5632 120.621 45.2432 119.601Z" fill="#2A312A"/>
<path d="M77.2432 33.6008C80.5432 33.6008 83.8432 33.6008 87.2432 33.6008C83.3393 37.5046 81.5814 37.1633 76.2432 37.6008C76.5732 36.2808 76.9032 34.9608 77.2432 33.6008Z" fill="#313535"/>
<path d="M51.2432 53.6008C53.9307 54.4758 53.9307 54.4758 56.2432 55.6008C56.2432 55.9308 56.2432 56.2608 56.2432 56.6008C52.932 57.7296 49.6534 58.8139 46.2432 59.6008C47.613 56.4397 48.2322 55.6081 51.2432 53.6008Z" fill="#1E2527"/>
<path d="M63.2432 25.6008C65.6182 25.4758 65.6182 25.4758 68.2432 25.6008C68.9032 26.2608 69.5632 26.9208 70.2432 27.6008C71.5606 28.2983 72.8923 28.9704 74.2432 29.6008C72.2632 30.5908 72.2632 30.5908 70.2432 31.6008C69.645 30.9821 69.0469 30.3633 68.4307 29.7258C66.2351 27.4641 66.2351 27.4641 63.2432 25.6008Z" fill="#61AEC3"/>
<path d="M71.2432 123.601C73.8832 123.931 76.5232 124.261 79.2432 124.601C78.5832 125.921 77.9232 127.241 77.2432 128.601C74.082 127.231 73.2505 126.612 71.2432 123.601Z" fill="#201812"/>
<path d="M109.243 48.6008C112.04 50.6684 112.27 51.7452 112.931 55.2883C113.034 56.3815 113.137 57.4746 113.243 58.6008C112.583 58.6008 111.923 58.6008 111.243 58.6008C109.927 54.9811 109.243 52.5052 109.243 48.6008Z" fill="#0D1011"/>
<path d="M112.243 119.601C112.903 119.931 113.563 120.261 114.243 120.601C113.123 121.607 111.997 122.605 110.868 123.601C109.928 124.436 109.928 124.436 108.97 125.288C107.243 126.601 107.243 126.601 105.243 126.601C105.243 125.281 105.243 123.961 105.243 122.601C107.547 121.534 109.883 120.537 112.243 119.601Z" fill="#66C4D0"/>
<path d="M79.2432 29.6008C80.2332 29.9308 81.2232 30.2608 82.2432 30.6008C81.9132 31.2608 81.5832 31.9208 81.2432 32.6008C82.8932 32.6008 84.5432 32.6008 86.2432 32.6008C84.2432 34.6008 84.2432 34.6008 81.6182 34.7258C80.8344 34.6846 80.0507 34.6433 79.2432 34.6008C78.9132 33.6108 78.5832 32.6208 78.2432 31.6008C78.5732 30.9408 78.9032 30.2808 79.2432 29.6008Z" fill="#080B0C"/>
<path d="M109.243 107.601C111.493 107.851 111.493 107.851 113.243 108.601C111.493 110.663 111.493 110.663 109.243 112.601C106.993 112.351 106.993 112.351 105.243 111.601C106.993 109.538 106.993 109.538 109.243 107.601Z" fill="#0D0B0C"/>
<path d="M32.2432 93.6008C33.2332 93.9308 34.2232 94.2608 35.2432 94.6008C35.5732 97.2408 35.9032 99.8808 36.2432 102.601C35.2532 102.601 34.2632 102.601 33.2432 102.601C32.9132 99.6308 32.5832 96.6608 32.2432 93.6008Z" fill="#2B2C21"/>
<path d="M85.2432 77.6008C85.5732 77.6008 85.9032 77.6008 86.2432 77.6008C86.5732 80.2408 86.9032 82.8808 87.2432 85.6008C85.7582 86.5908 85.7582 86.5908 84.2432 87.6008C84.2163 86.1218 84.1968 84.6426 84.1807 83.1633C84.1691 82.3396 84.1575 81.5159 84.1455 80.6672C84.2432 78.6008 84.2432 78.6008 85.2432 77.6008Z" fill="#010202"/>
<path d="M94.2432 41.6008C96.8832 41.6008 99.5232 41.6008 102.243 41.6008C102.243 42.2608 102.243 42.9208 102.243 43.6008C97.7882 44.0958 97.7882 44.0958 93.2432 44.6008C93.5732 43.6108 93.9032 42.6208 94.2432 41.6008Z" fill="#121211"/>
<path d="M101.243 125.601C102.233 125.931 103.223 126.261 104.243 126.601C103.583 128.911 102.923 131.221 102.243 133.601C100.814 131.246 100.157 130.121 100.618 127.351C100.824 126.773 101.031 126.196 101.243 125.601Z" fill="#1D1D14"/>
<path d="M109.243 94.6008C109.573 95.2608 109.903 95.9208 110.243 96.6008C111.563 96.2708 112.883 95.9408 114.243 95.6008C113.913 96.5908 113.583 97.5808 113.243 98.6008C111.593 98.9308 109.943 99.2608 108.243 99.6008C108.573 97.9508 108.903 96.3008 109.243 94.6008Z" fill="#0B0A08"/>
</svg>
