<svg width="153" height="157" viewBox="0 0 153 157" fill="none" xmlns="http://www.w3.org/2000/svg">
<path d="M44.8351 0.28125C48.2465 0.635682 49.3937 1.72667 51.8546 4.0625C52.552 4.71219 53.2494 5.36187 53.9679 6.03125C54.4874 6.53656 55.0069 7.04188 55.5421 7.5625C56.2021 6.5725 56.8621 5.5825 57.5421 4.5625C68.7885 0.667923 81.6543 1.91174 92.8976 4.90625C95.5733 5.68292 95.5733 5.68292 98.5421 5.5625C100.026 4.27255 101.509 2.98254 102.991 1.69141C104.542 0.5625 104.542 0.5625 107.23 0C109.542 0.5625 109.542 0.5625 111.23 2.0625C114.546 8.37905 114.833 14.5875 114.542 21.5625C115.202 21.5625 115.862 21.5625 116.542 21.5625C116.542 19.5825 116.542 17.6025 116.542 15.5625C131.448 22.5186 141.884 38.673 147.546 53.6016C154.427 74.0544 153.229 94.4002 143.855 113.812C134.21 132.693 117.895 146.051 97.7921 152.598C96.7196 152.916 95.6471 153.234 94.5421 153.562C93.3356 153.932 93.3356 153.932 92.1046 154.309C72.9963 159.119 53.2638 154.764 36.5304 145.121C30.4393 141.372 25.4869 136.687 20.5421 131.562C19.8061 130.857 19.07 130.152 18.3117 129.426C4.07781 114.972 -0.130712 94.7653 0.00307083 75.1968C0.609441 54.3043 10.3034 37.3659 24.5421 22.5625C32.3276 15.5625 32.3276 15.5625 35.5421 15.5625C36.0371 20.0175 36.0371 20.0175 36.5421 24.5625C36.6517 23.4049 36.7613 22.2473 36.8742 21.0547C37.0337 19.5156 37.1939 17.9765 37.3546 16.4375C37.4249 15.677 37.4951 14.9164 37.5675 14.1328C38.9828 0.99908 38.9828 0.99908 44.8351 0.28125Z" fill="#EFC646"/>
<path d="M35.5421 15.5625C36.0795 18.9142 36.594 22.2691 37.1046 25.625C37.3318 27.0394 37.3318 27.0394 37.5636 28.4824C38.5367 34.9771 38.6734 40.2788 36.4992 46.5898C35.4326 49.9026 35.2419 52.6512 35.2296 56.125C35.2129 57.2194 35.1961 58.3138 35.1789 59.4414C35.5813 62.899 36.6938 64.6671 38.5421 67.5625C38.3605 70.7111 37.7933 73.5728 37.0187 76.625C34.8701 85.344 35.273 93.7084 36.421 102.566C36.5421 104.562 36.5421 104.562 35.5421 106.562C34.8634 112.508 34.8634 112.508 37.8546 117.438C40.5384 119.618 40.5384 119.618 43.5421 121.562C43.2121 124.533 42.8821 127.503 42.5421 130.562C44.4293 131.027 44.4293 131.027 46.3546 131.5C49.1033 132.503 50.2473 132.968 51.5656 135.625C52.0097 137.213 52.4341 138.807 52.839 140.406C53.8826 143.607 55.7296 144.848 58.5421 146.562C59.1815 146.954 59.8209 147.346 60.4796 147.75C69.6661 151.369 82.3417 150.827 91.5265 147.527C96.5827 145.107 98.5007 141.843 100.417 136.812C101.362 134.457 101.362 134.457 102.542 132.562C106.292 131.5 106.292 131.5 109.542 131.562C109.542 128.922 109.542 126.283 109.542 123.562C108.882 123.562 108.222 123.562 107.542 123.562C107.542 122.902 107.542 122.243 107.542 121.562C109.542 120.229 111.542 118.896 113.542 117.562C116.011 115.094 116.497 114.008 116.855 110.5C116.752 107.375 116.752 107.375 114.542 104.562C114.75 102.793 114.97 101.024 115.237 99.2617C116.248 90.3113 116.481 81.1348 113.101 72.6758C112.163 69.1268 113.193 66.3922 114.585 63.082C116.733 57.4286 116.358 50.8956 113.98 45.375C113.69 44.8246 113.4 44.2741 113.101 43.707C112.207 40.2761 112.973 37.001 113.542 33.5625C113.664 32.7927 113.786 32.0229 113.912 31.2297C114.297 28.8384 114.698 26.4503 115.105 24.0625C115.243 23.2401 115.382 22.4177 115.525 21.5703C115.862 19.5675 116.202 17.5649 116.542 15.5625C133.605 24.7051 143.543 41.5452 149.507 59.4609C155.109 79.5473 151.505 99.7576 141.745 117.828C131.405 135.946 114.273 147.705 94.5421 153.562C93.3356 153.932 93.3356 153.932 92.1046 154.309C72.9963 159.119 53.2638 154.764 36.5304 145.121C30.4393 141.372 25.4869 136.687 20.5421 131.562C19.8061 130.857 19.07 130.152 18.3117 129.426C4.07781 114.972 -0.130712 94.7653 0.00307083 75.1968C0.609441 54.3043 10.3034 37.3659 24.5421 22.5625C32.3276 15.5625 32.3276 15.5625 35.5421 15.5625Z" fill="#6C97C7"/>
<path d="M44.8349 0.28125C48.2464 0.635682 49.3935 1.72667 51.8545 4.0625C52.5519 4.71219 53.2492 5.36187 53.9678 6.03125C54.4873 6.53656 55.0067 7.04188 55.542 7.5625C56.202 6.5725 56.862 5.5825 57.542 4.5625C68.7883 0.667923 81.6542 1.91174 92.8974 4.90625C95.5731 5.68292 95.5731 5.68292 98.542 5.5625C100.025 4.27255 101.509 2.98254 102.991 1.69141C104.542 0.5625 104.542 0.5625 107.229 0C109.542 0.5625 109.542 0.5625 111.229 2.0625C116.204 11.5386 116.786 24.4806 113.964 34.6445C113.061 38.749 114.124 42.4817 115.604 46.3125C117.358 52.3909 117.518 58.3861 114.917 64.1875C112.83 69.31 114.487 73.2601 116.112 78.3477C116.754 81.6572 116.688 84.9553 116.667 88.3125C116.666 89.0275 116.666 89.7426 116.666 90.4792C116.641 94.1622 116.488 97.7363 115.917 101.375C115.175 104.714 115.175 104.714 117.542 107.562C118.12 110.742 118.083 112.703 116.339 115.473C113.635 118.798 111.894 120.834 107.542 121.562C107.542 122.223 107.542 122.882 107.542 123.562C108.202 123.562 108.862 123.562 109.542 123.562C110.229 126.375 110.229 126.375 110.542 129.562C109.417 131.375 109.417 131.375 107.542 132.562C106.308 132.698 106.308 132.698 105.05 132.836C102.36 133.296 102.36 133.296 101.354 135.707C101.086 136.587 100.818 137.468 100.542 138.375C98.9681 142.788 97.7448 145.161 93.542 147.562C88.8551 149.467 84.6644 149.813 79.667 149.688C78.9786 149.678 78.2903 149.669 77.581 149.66C75.9012 149.637 74.2215 149.601 72.542 149.562C72.542 149.232 72.542 148.903 72.542 148.562C73.6996 148.392 74.8571 148.222 76.0498 148.047C77.589 147.803 79.128 147.558 80.667 147.312C81.4275 147.203 82.1881 147.093 82.9717 146.98C87.9989 146.157 91.5709 144.959 95.542 141.562C97.0751 139.042 97.0751 139.042 97.917 136.312C98.2341 135.42 98.5512 134.528 98.8779 133.609C99.0971 132.934 99.3162 132.258 99.542 131.562C98.222 131.562 96.902 131.562 95.542 131.562C95.4298 132.166 95.3177 132.769 95.2021 133.391C94.3448 136.865 93.5884 139.652 90.831 142.051C82.8598 146.125 72.7899 145.803 64.3545 143.312C61.1088 142.027 59.0399 140.858 57.542 137.562C57.542 136.242 57.542 134.923 57.542 133.562C58.202 133.562 58.862 133.562 59.542 133.562C59.9957 134.346 60.4495 135.13 60.917 135.938C62.7644 138.922 63.2884 139.435 66.542 140.562C69.5251 140.851 72.4846 140.841 75.4795 140.812C76.2781 140.82 77.0766 140.828 77.8994 140.836C82.1405 140.822 85.8041 140.797 89.542 138.562C90.9746 136.656 90.9746 136.656 91.8545 134.438C92.3437 133.351 92.3437 133.351 92.8428 132.242C93.0735 131.688 93.3042 131.134 93.542 130.562C91.562 130.562 89.582 130.562 87.542 130.562C88.532 130.232 89.522 129.903 90.542 129.562C90.542 128.902 90.542 128.243 90.542 127.562C91.278 127.707 92.0141 127.851 92.7724 128C93.7483 128.186 94.7241 128.371 95.7295 128.562C96.6924 128.748 97.6553 128.934 98.6474 129.125C101.335 129.531 103.83 129.642 106.542 129.562C106.542 128.242 106.542 126.923 106.542 125.562C105.057 124.572 105.057 124.572 103.542 123.562C103.542 122.572 103.542 121.582 103.542 120.562C104.499 120.056 104.499 120.056 105.476 119.539C106.302 119.093 107.128 118.647 107.979 118.188C108.803 117.747 109.627 117.306 110.476 116.852C112.677 115.728 112.677 115.728 113.542 113.562C113.79 109.417 113.79 109.417 112.542 105.562C112.504 103.658 112.529 101.752 112.585 99.8477C112.606 98.6856 112.627 97.5235 112.649 96.3262C112.702 93.8936 112.767 91.4612 112.845 89.0293C112.981 79.8538 111.699 71.5516 106.229 63.9375C102.9 60.9956 100.959 60.4822 96.542 60.5625C94.2369 61.894 94.2369 61.894 92.542 63.5625C91.882 63.5625 91.222 63.5625 90.542 63.5625C89.882 64.8825 89.222 66.2025 88.542 67.5625C88.4801 66.9644 88.4182 66.3662 88.3545 65.75C87.6703 63.4254 87.6703 63.4254 85.667 61.75C79.6114 59.4489 72.7343 61.1629 66.542 62.5625C65.552 63.0575 65.552 63.0575 64.542 63.5625C64.542 65.2125 64.542 66.8625 64.542 68.5625C63.882 68.5625 63.222 68.5625 62.542 68.5625C61.9232 67.6137 61.3045 66.665 60.667 65.6875C58.2687 62.1379 58.2687 62.1379 54.542 60.5625C52.0849 59.979 52.0849 59.979 49.542 60.5625C43.3224 65.4168 40.0159 72.9474 38.542 80.5625C38.173 88.2268 38.4929 95.7543 39.5185 103.355C39.542 105.562 39.542 105.562 37.542 108.562C37.1528 111.5 37.1528 111.5 38.542 114.562C41.3554 116.895 44.3708 118.756 47.542 120.562C47.167 122.5 47.167 122.5 46.542 124.562C45.552 125.058 45.552 125.058 44.542 125.562C44.5732 127.53 44.5732 127.53 45.542 129.562C48.5381 130.867 48.5381 130.867 51.542 131.562C51.212 132.883 50.882 134.202 50.542 135.562C50.212 134.902 49.882 134.243 49.542 133.562C47.2199 132.858 44.886 132.19 42.542 131.562C41.542 130.562 41.542 130.562 41.3545 127.688C41.542 124.562 41.542 124.562 43.542 121.562C42.7995 121.336 42.057 121.109 41.292 120.875C37.8454 119.23 36.478 117.861 34.542 114.562C34.2053 110.388 34.4743 107.006 35.1045 102.875C35.5356 99.6108 35.2014 97.7314 34.542 94.5625C33.9516 87.3758 34.8958 81.1735 36.9834 74.2891C37.7442 70.5755 37.3012 67.9644 35.499 64.6367C33.2022 59.6587 33.6963 52.3689 35.2529 47.2031C35.5339 46.5173 35.8149 45.8316 36.1045 45.125C37.6235 41.236 37.5261 38.3322 37.1045 34.1875C36.5095 28.1857 36.6807 22.5618 37.292 16.5625C37.3662 15.7615 37.4404 14.9605 37.5168 14.1353C38.9846 0.998844 38.9846 0.998844 44.8349 0.28125Z" fill="#191416"/>
<path d="M55.042 67.25C60.6099 69.338 62.9701 73.3882 65.5459 78.5898C68.7071 86.3018 68.6865 94.3518 68.6045 102.562C68.6 103.433 68.5955 104.303 68.5908 105.199C68.5792 107.32 68.5612 109.441 68.542 111.562C69.532 111.067 69.532 111.067 70.542 110.562C72.1856 110.467 73.8332 110.433 75.4795 110.438C76.3548 110.435 77.2301 110.432 78.1318 110.43C80.542 110.562 80.542 110.562 83.542 111.562C83.5211 110.832 83.5001 110.102 83.4785 109.35C83.3944 105.984 83.3431 102.617 83.292 99.25C83.2417 97.5281 83.2417 97.5281 83.1904 95.7715C83.0874 86.6741 84.3266 78.2299 90.167 70.9375C92.8373 68.2672 93.651 67.6615 97.3545 67.25C101.439 67.6505 102.722 68.5945 105.542 71.5625C108.672 76.688 110.665 81.5931 110.675 87.6445C110.676 88.4122 110.677 89.1798 110.679 89.9707C110.675 90.7641 110.671 91.5575 110.667 92.375C110.671 93.1568 110.675 93.9386 110.679 94.7441C110.671 99.4436 110.307 103.913 109.542 108.562C109.48 109.284 109.418 110.006 109.355 110.75C107.985 113.806 105.357 114.93 102.542 116.562C96.1509 118.693 91.0298 117.82 84.9053 115.242C78.4402 113.383 70.4636 113.439 64.2295 116.062C58.8596 118.247 54.5072 118.632 49.0068 116.648C44.4839 114.426 44.4839 114.426 42.542 112.562C41.1827 106.319 41.2828 100.048 41.2295 93.6875C41.2005 92.5415 41.1715 91.3955 41.1416 90.2148C41.0841 82.525 41.9125 76.9468 46.8838 70.9417C49.5323 68.3455 51.3589 67.5788 55.042 67.25Z" fill="#0C0C0C"/>
<path d="M52.9171 59.625C57.1944 60.7312 58.7906 62.1637 61.5421 65.5625C61.8721 66.5525 62.2021 67.5425 62.5421 68.5625C63.2021 68.5625 63.8621 68.5625 64.5421 68.5625C64.2121 66.9125 63.8821 65.2625 63.5421 63.5625C66.6187 60.8483 68.4011 60.2238 72.4796 60.4375C75.3974 60.5486 77.4577 60.5855 80.2921 59.8125C82.5421 59.5625 82.5421 59.5625 85.8546 61.3125C86.7414 62.055 87.6283 62.7975 88.5421 63.5625C88.5421 64.5525 88.5421 65.5425 88.5421 66.5625C89.3052 65.7788 90.0683 64.995 90.8546 64.1875C95.5709 59.5808 95.5709 59.5808 99.8546 59.5C105.715 61.1885 107.863 64.6248 110.804 69.7695C115.019 79.1624 115.324 92.2839 112.519 102.168C112.196 102.958 111.874 103.748 111.542 104.562C110.882 104.562 110.222 104.562 109.542 104.562C109.563 103.979 109.584 103.395 109.606 102.793C110.377 85.5858 110.377 85.5858 103.167 70.4375C100.657 68.3659 100.657 68.3659 97.5421 68C93.6643 68.7271 92.2353 69.6567 89.5421 72.5625C86.1161 78.8281 84.47 84.5188 84.2257 91.6406C84.1628 93.3809 84.1628 93.3809 84.0987 95.1562C84.0594 96.3628 84.0201 97.5694 83.9796 98.8125C83.9148 100.646 83.9148 100.646 83.8487 102.516C83.7427 105.531 83.6419 108.547 83.5421 111.562C78.5921 111.562 73.6421 111.562 68.5421 111.562C68.4931 110.319 68.4441 109.075 68.3936 107.793C67.8753 88.7966 67.8753 88.7966 60.5421 71.5625C57.7516 69.0181 56.9954 68.5707 53.1046 68.5C48.5511 69.8581 47.1668 71.6629 44.5421 75.5625C42.6695 79.4211 42.3047 82.4663 42.3467 86.7383C42.3532 87.8952 42.3596 89.0521 42.3663 90.2441C42.383 91.4423 42.3998 92.6405 42.4171 93.875C42.4261 95.0925 42.4351 96.31 42.4444 97.5645C42.4679 100.564 42.5008 103.563 42.5421 106.562C41.2221 106.232 39.9021 105.903 38.5421 105.562C36.9025 91.2164 35.5858 76.9575 44.1046 64.4375C47.051 60.9622 48.2822 59.5392 52.9171 59.625Z" fill="#F6F6F7"/>
<path d="M107.229 0C109.542 0.5625 109.542 0.5625 111.292 2.375C113.856 6.86256 113.734 11.1014 113.729 16.125C113.73 16.9311 113.731 17.7373 113.731 18.5679C113.68 24.4123 113.131 29.9142 111.542 35.5625C110.882 35.5625 110.222 35.5625 109.542 35.5625C110.031 38.6949 110.78 41.0868 112.104 44C114.377 49.8436 114.34 56.4064 113.542 62.5625C112.019 64.4805 112.019 64.4805 110.542 65.5625C109.964 64.7788 109.387 63.995 108.792 63.1875C106.166 60.1243 104.675 58.8093 100.651 58.3438C96.0359 58.1386 94.2366 58.7597 90.542 61.5625C87.3711 60.7118 85.2856 59.3916 82.542 57.5625C82.1152 46.2111 82.1152 46.2111 85.5771 42.2109C87.8367 40.5279 90.155 39.0543 92.542 37.5625C92.872 36.9025 93.202 36.2425 93.542 35.5625C92.9387 35.9956 92.3354 36.4288 91.7139 36.875C90.9146 37.4319 90.1154 37.9887 89.292 38.5625C88.5031 39.1194 87.7142 39.6762 86.9014 40.25C84.542 41.5625 84.542 41.5625 80.542 41.5625C81.0738 35.9119 82.594 31.4763 85.042 26.375C85.3944 25.6354 85.7468 24.8958 86.1099 24.1338C90.349 15.5363 97.1 2.12013 107.229 0Z" fill="#E06F95"/>
<path d="M44.8662 0.332031C49.7413 0.751937 52.4016 4.03468 55.542 7.5625C62.0223 16.6185 67.5644 26.321 68.542 37.5625C64.2806 34.4381 61.1847 30.953 57.9795 26.8125C57.4956 26.1907 57.0118 25.5689 56.5134 24.9282C48.542 14.5016 48.542 14.5016 48.542 7.5625C47.882 7.5625 47.222 7.5625 46.542 7.5625C50.5145 20.5412 58.0116 30.0321 67.542 39.5625C67.5829 41.8955 67.5844 44.2296 67.542 46.5625C63.582 44.9125 59.622 43.2625 55.542 41.5625C55.542 42.2225 55.542 42.8825 55.542 43.5625C56.3876 43.81 57.2332 44.0575 58.1045 44.3125C61.9262 45.7022 65.0606 47.4737 68.542 49.5625C68.0572 56.8341 68.0572 56.8341 65.7295 60.125C63.542 61.5625 63.542 61.5625 61.4795 61.4375C59.542 60.5625 59.542 60.5625 56.542 58.5625C53.428 57.8923 50.6485 57.8387 47.542 58.5625C45.0545 60.5899 43.286 62.8815 41.542 65.5625C39.6045 64.75 39.6045 64.75 37.542 63.5625C35.4481 57.281 36.3989 52.5689 38.6045 46.5C40.3239 41.6807 40.8317 38.6221 39.542 33.5625C38.5845 28.0135 38.3272 22.6136 38.292 17C38.2713 16.1756 38.2507 15.3513 38.2295 14.502C38.1969 9.41163 38.7662 5.99957 41.542 1.5625C42.542 0.5625 42.542 0.5625 44.8662 0.332031Z" fill="#DE6E94"/>
<path d="M36.5421 33.5625C38.5421 36.5625 38.5421 36.5625 38.2921 39.875C37.5421 43.5625 37.5421 43.5625 36.5147 46.3828C35.4755 49.7801 35.2421 52.5798 35.2296 56.125C35.2128 57.2194 35.1961 58.3138 35.1788 59.4414C35.5813 62.899 36.6937 64.6671 38.5421 67.5625C38.3604 70.7111 37.7933 73.5728 37.0186 76.625C34.87 85.344 35.273 93.7084 36.421 102.566C36.5421 104.562 36.5421 104.562 35.5421 106.562C34.8633 112.508 34.8633 112.508 37.8546 117.438C40.5383 119.618 40.5383 119.618 43.5421 121.562C43.2121 122.553 42.8821 123.543 42.5421 124.562C35.6006 123.857 31.8873 118.577 27.5421 113.562C18.337 101.23 15.492 86.6479 16.5421 71.5625C19.0516 58.7713 25.2416 48.6073 33.6866 38.875C35.7157 36.6202 35.7157 36.6202 36.5421 33.5625Z" fill="#85B3D6"/>
<path d="M113.542 35.5625C115.238 37.2052 116.893 38.8736 118.542 40.5625C119.17 41.1825 119.798 41.8026 120.444 42.4414C130.014 52.4149 134.965 65.1297 134.854 78.875C134.849 79.6177 134.843 80.3605 134.837 81.1257C134.499 96.5403 127.39 110.715 116.542 121.562C115.552 121.232 114.562 120.903 113.542 120.562C114.037 119.531 114.532 118.5 115.042 117.438C116.505 114.013 116.969 111.318 116.542 107.562C115.882 106.572 115.222 105.582 114.542 104.562C114.75 102.793 114.97 101.024 115.237 99.2617C116.248 90.3113 116.481 81.1348 113.101 72.6758C112.162 69.1268 113.193 66.3922 114.585 63.082C117.4 55.6711 115.438 48.5623 112.542 41.5625C112.292 38.625 112.292 38.625 112.542 36.5625C112.872 36.2325 113.202 35.9025 113.542 35.5625Z" fill="#85B4D6"/>
<path d="M90.542 127.562C90.542 128.222 90.542 128.882 90.542 129.562C91.532 129.892 92.522 130.222 93.542 130.562C92.3384 134.975 91.1095 137.644 87.542 140.562C83.5618 141.889 79.8984 141.825 75.7295 141.875C74.9348 141.904 74.1401 141.933 73.3213 141.963C67.9134 142.021 64.8048 141.208 60.542 137.562C59.667 135.312 59.667 135.312 59.542 133.562C58.882 133.562 58.222 133.562 57.542 133.562C58.8401 138.35 58.8401 138.35 62.2529 141.695C70.833 144.981 82.2234 145.092 90.8311 141.828C94.1712 139.357 94.8269 135.483 95.542 131.562C96.862 131.562 98.182 131.562 99.542 131.562C98.9426 136.306 98.2608 139.692 95.167 143.437C90.6567 146.696 84.8966 147.497 79.542 148.562C80.862 149.222 82.182 149.882 83.542 150.562C62.7466 151.05 62.7466 151.05 54.542 144.562C51.8923 141.73 50.928 139.423 50.542 135.562C50.9795 133.25 50.9795 133.25 51.542 131.562C50.552 131.232 49.562 130.902 48.542 130.562C48.542 130.232 48.542 129.902 48.542 129.562C60.7191 125.903 78.2806 123.475 90.542 127.562Z" fill="#171515"/>
<path d="M95.542 5.56247C95.1179 6.19411 94.6938 6.82575 94.2568 7.47653C88.2835 16.5875 82.7837 26.11 79.542 36.5625C76.902 36.5625 74.262 36.5625 71.542 36.5625C71.1501 35.4693 70.7582 34.3762 70.3545 33.25C67.2098 24.9181 63.507 17.148 58.6787 9.65622C57.542 7.56247 57.542 7.56247 57.542 4.56247C70.6894 1.55735 82.5596 1.93947 95.542 5.56247Z" fill="#6D96C5"/>
<path d="M37.542 13.5625C37.872 13.5625 38.202 13.5625 38.542 13.5625C38.625 14.4163 38.625 14.4163 38.7097 15.2874C38.9647 17.9001 39.2221 20.5125 39.4795 23.125C39.5665 24.0203 39.6535 24.9155 39.7431 25.8379C39.8302 26.7177 39.9172 27.5975 40.0068 28.5039C40.0918 29.3715 40.1768 30.2391 40.2644 31.1331C40.5022 33.2146 40.8547 35.2825 41.2295 37.3438C41.5861 41.0173 40.9621 43.0946 39.6045 46.5C37.5116 52.2862 36.264 57.0025 38.417 63C39.4727 64.7214 39.4727 64.7214 41.542 65.5625C41.7895 64.985 42.037 64.4075 42.292 63.8125C43.8413 61.0237 44.9237 59.4423 47.542 57.5625C51.7191 56.8625 55.2877 56.715 58.8545 59.125C59.4114 59.5994 59.9682 60.0737 60.542 60.5625C62.6165 60.7116 62.6165 60.7116 64.542 59.5625C66.7905 57.0859 66.7905 57.0859 68.542 54.5625C68.872 54.8925 69.202 55.2225 69.542 55.5625C69.5304 54.4913 69.5188 53.4201 69.5068 52.3164C69.4974 50.9193 69.4883 49.5221 69.4795 48.125C69.4711 47.4179 69.4627 46.7109 69.4541 45.9824C69.4454 44.1756 69.4898 42.3686 69.542 40.5625C70.542 39.5625 70.542 39.5625 73.3545 39.1875C76.542 39.5625 76.542 39.5625 78.917 41.3125C81.3714 46.2214 81.3376 51.1726 80.542 56.5625C79.3271 59.4258 79.3271 59.4258 77.542 61.5625C75.167 61.9805 75.167 61.9805 72.542 61.75C68.2976 61.3758 68.2976 61.3758 64.542 63.5625C64.2917 66.1463 64.2917 66.1463 64.542 68.5625C63.882 68.5625 63.222 68.5625 62.542 68.5625C61.9232 67.6137 61.3045 66.665 60.667 65.6875C58.2687 62.1379 58.2687 62.1379 54.542 60.5625C52.0849 59.979 52.0849 59.979 49.542 60.5625C43.3224 65.4168 40.0159 72.9474 38.542 80.5625C38.173 88.2268 38.4929 95.7543 39.5185 103.355C39.542 105.562 39.542 105.562 37.542 108.562C37.1528 111.5 37.1528 111.5 38.542 114.562C41.3554 116.895 44.3708 118.756 47.542 120.562C47.167 122.5 47.167 122.5 46.542 124.562C45.552 125.058 45.552 125.058 44.542 125.562C44.5732 127.53 44.5732 127.53 45.542 129.562C48.5381 130.867 48.5381 130.867 51.542 131.562C51.212 132.883 50.882 134.202 50.542 135.562C50.212 134.902 49.882 134.243 49.542 133.562C47.2199 132.858 44.886 132.19 42.542 131.562C41.542 130.562 41.542 130.562 41.3545 127.688C41.542 124.562 41.542 124.562 43.542 121.562C42.7995 121.336 42.057 121.109 41.292 120.875C37.8454 119.23 36.478 117.861 34.542 114.562C34.2053 110.388 34.4743 107.006 35.1045 102.875C35.5356 99.6108 35.2014 97.7314 34.542 94.5625C33.9516 87.3758 34.8958 81.1735 36.9834 74.2891C37.7442 70.5755 37.3012 67.9644 35.499 64.6367C33.2022 59.6587 33.6963 52.3689 35.2529 47.2031C35.5339 46.5173 35.8149 45.8316 36.1045 45.125C38.0868 40.0816 37.3408 35.5282 36.8037 30.2266C36.4031 24.6177 36.9397 19.1408 37.542 13.5625Z" fill="#0F1011"/>
<path d="M54.0419 69.875C57.8396 70.9194 59.5985 73.3124 61.5419 76.5625C64.3584 82.6727 65.1386 88.9011 65.5419 95.5625C63.2319 95.2325 60.9219 94.9025 58.5419 94.5625C55.5235 97.8748 55.1802 100.072 55.2919 104.5C55.3074 105.52 55.3228 106.539 55.3388 107.59C55.5263 110.335 55.9302 112.884 56.5419 115.562C51.6823 115.11 48.8059 114.28 45.5419 110.562C42.0997 101.93 41.7962 87.5787 44.7294 78.8125C47.1038 74.555 49.1692 71.215 54.0419 69.875Z" fill="#92CADF"/>
<path d="M97.542 69.8125C100.882 70.6476 102.304 71.9096 104.464 74.5664C107.459 80.1123 107.875 85.7298 107.792 91.875C107.782 92.6198 107.773 93.3645 107.763 94.1318C107.492 106.6 107.492 106.6 105.542 110.562C102.225 113.7 99.1431 115.562 94.542 115.562C94.872 114.572 95.202 113.582 95.542 112.562C97.3211 106.272 96.9929 100.69 94.542 94.5625C89.7523 94.3282 89.7523 94.3282 85.542 96.5625C86.0474 88.3709 86.8762 79.7566 91.8545 72.9375C94.542 70.5625 94.542 70.5625 97.542 69.8125Z" fill="#96CADF"/>
<path d="M55.042 67.25C61.1379 69.536 63.392 74.2267 66.1709 79.8711C68.4936 86.3083 68.1191 93.2995 68.2295 100.062C68.2627 101.471 68.2972 102.88 68.333 104.289C68.4151 107.713 68.4844 111.138 68.542 114.562C61.7533 117.283 56.1876 119.238 49.0068 116.648C44.4839 114.426 44.4839 114.426 42.542 112.562C41.1827 106.319 41.2828 100.048 41.2295 93.6875C41.2005 92.5415 41.1715 91.3955 41.1416 90.2148C41.0841 82.525 41.9125 76.9468 46.8838 70.9417C49.5323 68.3455 51.3589 67.5788 55.042 67.25ZM46.542 75.5625C41.4329 84.7237 42.3482 98.6392 44.7881 108.672C46.0245 111.773 47.6266 113.039 50.542 114.562C53.7296 115.359 53.7296 115.359 56.542 115.562C56.3022 114.513 56.3022 114.513 56.0576 113.441C55.5159 110.417 55.3386 107.572 55.292 104.5C55.2662 103.478 55.2404 102.456 55.2139 101.402C55.5854 98.1869 56.2722 96.8377 58.542 94.5625C61.3949 94.2146 62.9675 94.2752 65.542 95.5625C64.9686 86.0919 63.7699 77.2741 56.542 70.5625C51.6301 69.2117 49.4914 71.8369 46.542 75.5625Z" fill="#0A0B0B"/>
<path d="M69.542 129.563C71.5912 131.398 72.9346 133.293 74.542 135.563C76.4125 135.432 76.4125 135.432 78.542 134.563C79.0576 133.696 79.5732 132.83 80.1045 131.938C82.542 129.563 82.542 129.563 85.2412 129.457C88.0344 129.725 90.778 130.081 93.542 130.563C92.3384 134.976 91.1095 137.644 87.542 140.563C83.5618 141.889 79.8984 141.825 75.7295 141.875C74.9348 141.904 74.1401 141.933 73.3213 141.963C67.943 142.021 64.7158 141.289 60.542 137.563C59.667 133.813 59.667 133.813 59.542 130.563C62.9847 129.503 65.9591 129.051 69.542 129.563Z" fill="#EAA43D"/>
<path d="M52.542 131.562C53.862 131.562 55.182 131.562 56.542 131.562C56.7263 132.177 56.9107 132.792 57.1006 133.426C58.8195 138.251 58.8195 138.251 62.3193 141.828C70.811 145.054 82.3384 145.048 90.8311 141.828C94.1712 139.357 94.8269 135.483 95.542 131.562C96.862 131.562 98.182 131.562 99.542 131.562C98.4335 140.335 98.4335 140.335 94.792 143.5C88.6042 147.427 83.2338 147.879 76.1045 147.812C75.284 147.82 74.4635 147.828 73.6182 147.836C67.2363 147.816 61.8257 147.44 56.7295 143.25C53.4631 139.237 52.542 136.741 52.542 131.562Z" fill="#E8C036"/>
<path d="M72.1396 20.4648C73.628 20.4715 75.1163 20.4835 76.6045 20.5C77.3631 20.5045 78.1217 20.509 78.9033 20.5137C80.7829 20.5255 82.6625 20.5434 84.542 20.5625C83.9747 24.6353 83.0674 28.1471 81.4795 31.9375C81.1173 32.8115 80.755 33.6855 80.3818 34.5859C80.1047 35.2382 79.8275 35.8905 79.542 36.5625C76.902 36.5625 74.262 36.5625 71.542 36.5625C69.497 31.4946 67.9875 27.0194 67.542 21.5625C68.542 20.5625 68.542 20.5625 72.1396 20.4648Z" fill="#85B4D2"/>
<path d="M55.0421 67.25C60.6664 69.3591 63.0167 73.4839 65.6163 78.7305C67.1211 82.3596 67.9452 84.8527 66.5421 88.5625C65.8821 88.8925 65.2221 89.2225 64.5421 89.5625C64.3719 88.838 64.2018 88.1136 64.0265 87.3672C62.5005 81.2796 61.0856 76.106 56.5421 71.5625C53.1256 71.418 53.1256 71.418 49.5421 72.5625C44.6629 78.0788 44.3477 84.6391 44.3546 91.6875C44.3547 92.4436 44.3548 93.1997 44.3548 93.9788C44.4189 100.28 44.676 106.83 47.5421 112.562C45.5621 113.058 45.5621 113.058 43.5421 113.562C40.3549 108.782 41.1702 103.584 41.1715 97.9583C41.1671 95.899 41.1309 93.842 41.0929 91.7832C41.0684 83.4546 41.4076 77.5314 46.8836 70.9502C49.5272 68.344 51.3564 67.5791 55.0421 67.25Z" fill="#0E1010"/>
<path d="M73.3545 39.1875C76.542 39.5625 76.542 39.5625 78.917 41.3125C81.3616 46.2017 81.2251 51.1848 80.542 56.5625C78.542 58.5625 78.542 58.5625 76.5967 58.7578C74.5785 58.6927 72.5602 58.6276 70.542 58.5625C70.3482 55.5836 70.1616 52.6046 69.9795 49.625C69.9234 48.7749 69.8673 47.9247 69.8096 47.0488C69.7371 45.8355 69.7371 45.8355 69.6631 44.5977C69.616 43.8488 69.5688 43.0999 69.5203 42.3284C69.5571 39.3374 70.3847 39.5835 73.3545 39.1875Z" fill="#E47BA0"/>
<path d="M100.542 67.5625C105.843 70.5918 108.408 75.6939 110.086 81.417C110.559 83.6448 110.656 85.6156 110.64 87.8906C110.636 88.6899 110.633 89.4891 110.63 90.3125C110.622 91.1375 110.613 91.9625 110.604 92.8125C110.6 93.653 110.595 94.4935 110.591 95.3594C110.579 97.4271 110.561 99.4948 110.542 101.563C109.552 101.563 108.562 101.563 107.542 101.563C107.486 99.7527 107.486 99.7527 107.429 97.9063C107.363 96.2917 107.297 94.6771 107.229 93.0625C107.207 92.271 107.184 91.4796 107.161 90.6641C106.864 84.0838 105.311 78.9325 102.229 73.0625C100.539 71.3021 100.539 71.3021 97.6045 71C94.4637 71.3115 94.4637 71.3115 92.3545 73.4375C89.9326 77.6133 88.7353 81.9066 87.542 86.5625C86.882 86.5625 86.222 86.5625 85.542 86.5625C84.882 87.5525 84.222 88.5425 83.542 89.5625C83.9848 81.5925 86.4892 74.8502 91.9795 68.9375C95.1923 67.2136 96.9439 66.9628 100.542 67.5625Z" fill="#282A2A"/>
<path d="M46.542 7.5625C47.202 7.5625 47.862 7.5625 48.542 7.5625C48.7379 8.15676 48.9339 8.75102 49.1357 9.36328C52.7549 19.3941 59.0829 27.2638 66.292 35.0039C67.542 36.5625 67.542 36.5625 67.542 38.5625C71.007 38.0675 71.007 38.0675 74.542 37.5625C73.5559 38.071 73.5559 38.071 72.5498 38.5898C70.1664 40.5063 70.1664 40.5063 70.2217 44.0664C70.2668 45.4201 70.3326 46.7732 70.417 48.125C70.5439 50.6242 70.5827 53.0551 70.542 55.5625C69.882 56.2225 69.222 56.8825 68.542 57.5625C68.6245 56.3663 68.707 55.17 68.792 53.9375C68.6755 51.6766 68.6755 51.6766 67.542 49.5625C63.7741 46.9932 59.7697 45.2459 55.542 43.5625C55.542 42.9025 55.542 42.2425 55.542 41.5625C59.6695 42.1695 62.8741 43.6006 66.542 45.5625C67.2176 42.9053 67.2176 42.9053 66.542 39.5625C64.8067 37.5217 62.8752 35.7879 60.9092 33.9688C58.1785 31.193 55.9349 28.194 53.7295 25C53.0012 23.9468 52.2729 22.8937 51.5225 21.8086C48.6339 17.0741 46.542 13.2366 46.542 7.5625Z" fill="#13100E"/>
<path d="M90.542 127.562C95.987 128.553 95.987 128.553 101.542 129.562C101.212 130.553 100.882 131.543 100.542 132.562C98.067 132.067 98.067 132.067 95.542 131.562C95.4298 132.166 95.3177 132.769 95.2021 133.391C94.3449 136.865 93.5884 139.652 90.8311 142.051C82.8598 146.125 72.7899 145.803 64.3545 143.312C61.1088 142.027 59.0399 140.858 57.542 137.562C57.542 136.242 57.542 134.923 57.542 133.562C58.202 133.562 58.862 133.562 59.542 133.562C59.9957 134.346 60.4495 135.13 60.917 135.938C62.7644 138.922 63.2885 139.435 66.542 140.562C69.5251 140.851 72.4846 140.841 75.4795 140.812C76.6774 140.824 76.6774 140.824 77.8994 140.836C82.1405 140.822 85.8041 140.797 89.542 138.562C90.9746 136.656 90.9746 136.656 91.8545 134.438C92.1806 133.713 92.5068 132.989 92.8428 132.242C93.0735 131.688 93.3043 131.134 93.542 130.562C91.562 130.562 89.582 130.562 87.542 130.562C88.532 130.232 89.522 129.903 90.542 129.562C90.542 128.902 90.542 128.243 90.542 127.562Z" fill="#201B11"/>
<path d="M115.542 114.562C114.153 117.919 112.625 119.635 109.542 121.562C108.882 121.562 108.222 121.562 107.542 121.562C107.542 122.223 107.542 122.882 107.542 123.562C108.202 123.562 108.862 123.562 109.542 123.562C110.229 126.375 110.229 126.375 110.542 129.562C109.417 131.375 109.417 131.375 107.542 132.562C106.72 132.653 105.897 132.743 105.05 132.836C102.36 133.296 102.36 133.296 101.354 135.707C101.086 136.587 100.818 137.468 100.542 138.375C98.9681 142.788 97.7448 145.161 93.542 147.562C88.8551 149.467 84.6644 149.813 79.667 149.688C78.9786 149.678 78.2903 149.669 77.5811 149.66C75.9012 149.637 74.2216 149.601 72.542 149.562C72.542 149.232 72.542 148.903 72.542 148.562C73.6996 148.392 74.8571 148.222 76.0498 148.047C77.589 147.803 79.128 147.558 80.667 147.312C81.4275 147.203 82.1881 147.093 82.9717 146.98C88.0018 146.157 91.5584 144.947 95.542 141.562C97.0356 139.134 97.0356 139.134 97.9795 136.5C99.6101 132.882 100.635 130.984 104.354 129.438C105.406 129.149 106.458 128.86 107.542 128.562C106.233 125.441 106.233 125.441 103.542 123.562C103.542 122.572 103.542 121.582 103.542 120.562C105.659 118.957 105.659 118.957 108.417 117.375C109.322 116.845 110.227 116.315 111.159 115.77C113.542 114.562 113.542 114.562 115.542 114.562Z" fill="#121213"/>
<path d="M71.1279 126.43C72.0586 126.428 72.9893 126.427 73.9482 126.426C74.9279 126.43 75.9076 126.434 76.917 126.438C77.8889 126.434 78.8609 126.43 79.8623 126.426C80.7956 126.427 81.7289 126.428 82.6904 126.43C83.977 126.431 83.977 126.431 85.2896 126.433C87.542 126.563 87.542 126.563 90.542 127.563C90.542 128.223 90.542 128.883 90.542 129.563C89.3251 129.604 88.1082 129.645 86.8545 129.688C83.3293 130.095 81.7892 130.873 79.542 133.625C78.552 135.079 78.552 135.079 77.542 136.563C74.3666 136.222 73.5192 135.538 71.292 133.125C69.542 130.563 69.542 130.563 69.542 128.563C68.222 128.233 66.902 127.903 65.542 127.563C67.1537 125.951 68.9033 126.433 71.1279 126.43Z" fill="#11120F"/>
<path d="M114.542 76.5625C116.98 80.302 116.808 84.0069 116.73 88.3125C116.725 89.0275 116.72 89.7426 116.714 90.4792C116.667 94.157 116.481 97.7407 115.917 101.375C115.175 104.714 115.175 104.714 117.542 107.562C117.792 110.625 117.792 110.625 117.542 113.562C116.882 114.223 116.222 114.882 115.542 115.562C113.542 113.562 113.542 113.562 113.48 110.562C113.5 109.572 113.521 108.582 113.542 107.562C113.212 106.902 112.882 106.243 112.542 105.562C112.514 103.721 112.554 101.879 112.628 100.039C112.694 98.3839 112.694 98.3839 112.761 96.6953C112.812 95.5377 112.864 94.3802 112.917 93.1875C112.983 91.4627 112.983 91.4627 113.05 89.7031C113.443 80.3282 113.443 80.3282 114.542 76.5625Z" fill="#1D2326"/>
<path d="M114.542 51.5625C114.872 51.5625 115.202 51.5625 115.542 51.5625C115.596 53.6664 115.635 55.7707 115.667 57.875C115.69 59.0468 115.713 60.2185 115.737 61.4258C115.542 64.5625 115.542 64.5625 113.542 67.5625C113.518 70.7736 113.518 70.7736 113.917 74.25C114.028 75.4295 114.139 76.609 114.253 77.8242C114.348 78.7279 114.444 79.6315 114.542 80.5625C112.183 78.2031 111.743 76.4709 110.729 73.3125C108.792 67.8692 106.983 63.441 101.667 60.5391C99.9908 59.8023 98.2686 59.1719 96.542 58.5625C96.542 58.2325 96.542 57.9025 96.542 57.5625C101.858 57.0562 104.367 58.3154 108.542 61.5625C110.417 63.3125 110.417 63.3125 111.542 64.5625C113.574 60.2283 114.063 56.2765 114.542 51.5625Z" fill="#100F0F"/>
<path d="M34.542 107.562C36.542 108.562 36.542 108.562 37.667 111.812C39.526 116.533 43.1943 118.322 47.542 120.562C47.167 122.5 47.167 122.5 46.542 124.562C45.882 124.893 45.222 125.222 44.542 125.562C44.5732 127.53 44.5732 127.53 45.542 129.562C48.5382 130.867 48.5382 130.867 51.542 131.562C51.212 132.883 50.882 134.202 50.542 135.562C50.212 134.902 49.882 134.243 49.542 133.562C47.2199 132.858 44.8861 132.19 42.542 131.562C41.542 130.562 41.542 130.562 41.3545 127.688C41.542 124.562 41.542 124.562 43.542 121.562C42.7995 121.336 42.057 121.109 41.292 120.875C37.8771 119.245 36.488 117.806 34.542 114.562C34.292 110.75 34.292 110.75 34.542 107.562Z" fill="#141213"/>
<path d="M58.542 68.5625C63.2263 72.9215 65.8226 78.4939 67.542 84.5625C67.2334 86.7344 67.2334 86.7344 66.542 88.5625C65.882 88.8925 65.222 89.2225 64.542 89.5625C64.3718 88.838 64.2017 88.1136 64.0264 87.3672C62.5004 81.2796 61.0855 76.106 56.542 71.5625C54.5424 71.5217 52.5415 71.5199 50.542 71.5625C50.212 70.5725 49.882 69.5825 49.542 68.5625C52.8946 66.8862 54.9875 67.5554 58.542 68.5625Z" fill="#212526"/>
<path d="M37.5419 80.5625C37.8719 81.8825 38.2019 83.2025 38.5419 84.5625C39.5319 84.5625 40.5219 84.5625 41.5419 84.5625C41.8719 91.8225 42.2019 99.0825 42.5419 106.562C41.2219 106.232 39.9019 105.903 38.5419 105.562C37.5873 97.2099 37.4315 88.9647 37.5419 80.5625Z" fill="#D6D6D3"/>
<path d="M46.542 7.5625C47.202 7.5625 47.862 7.5625 48.542 7.5625C48.7379 8.15676 48.9339 8.75102 49.1357 9.36328C52.2988 18.1299 57.4576 25.1258 63.6045 32.0625C64.2439 32.8875 64.8832 33.7125 65.542 34.5625C65.212 35.5525 64.882 36.5425 64.542 37.5625C46.8119 19.44 46.8119 19.44 46.542 7.5625Z" fill="#1E1514"/>
<path d="M62.5419 20.5625C65.1272 23.6271 66.2711 26.3231 67.2919 30.1875C67.5549 31.1491 67.8178 32.1108 68.0888 33.1016C68.5419 35.5625 68.5419 35.5625 67.5419 37.5625C66.0031 36.0177 64.4863 34.4509 62.9794 32.875C62.1325 32.0049 61.2856 31.1348 60.413 30.2383C58.5419 27.5625 58.5419 27.5625 58.5771 24.8555C59.5419 22.5625 59.5419 22.5625 62.5419 20.5625Z" fill="#D8668D"/>
<path d="M106.542 78.5625C107.532 78.8925 108.522 79.2225 109.542 79.5625C110.593 82.3262 110.661 84.9575 110.64 87.8906C110.636 88.6898 110.633 89.4891 110.63 90.3125C110.622 91.1375 110.613 91.9625 110.604 92.8125C110.6 93.653 110.595 94.4934 110.591 95.3594C110.579 97.4271 110.561 99.4948 110.542 101.562C109.552 101.562 108.562 101.562 107.542 101.562C107.212 93.9725 106.882 86.3825 106.542 78.5625Z" fill="#2A2D2E"/>
<path d="M111.542 100.562C111.872 100.562 112.202 100.562 112.542 100.562C113.967 105.016 115.079 108.833 114.542 113.562C113.042 115.438 113.042 115.438 111.542 116.562C109.067 115.572 109.067 115.572 106.542 114.562C107.202 113.572 107.862 112.582 108.542 111.562C108.783 109.505 108.783 109.505 108.667 107.375C108.626 106.117 108.584 104.859 108.542 103.562C109.532 103.893 110.522 104.222 111.542 104.562C111.542 103.242 111.542 101.923 111.542 100.562Z" fill="#E2BD41"/>
<path d="M79.542 128.562C80.2295 130.875 80.2295 130.875 80.542 133.562C79.3545 135.437 79.3545 135.437 77.542 136.562C75.6045 136.625 75.6045 136.625 73.542 135.562C71.292 132.5 71.292 132.5 69.542 129.562C72.7565 127.955 75.9781 128.505 79.542 128.562Z" fill="#1F1917"/>
<path d="M37.542 13.5625C37.872 13.5625 38.202 13.5625 38.542 13.5625C38.5973 14.1317 38.6527 14.7009 38.7097 15.2874C38.9647 17.9001 39.2221 20.5125 39.4795 23.125C39.5665 24.0203 39.6535 24.9155 39.7432 25.8379C39.8302 26.7177 39.9172 27.5975 40.0068 28.5039C40.1342 29.7977 40.1342 29.7977 40.2642 31.1177C40.5118 33.2966 40.8534 35.4311 41.2334 37.5898C41.3352 38.5708 41.4371 39.5518 41.542 40.5625C40.882 41.2225 40.222 41.8825 39.542 42.5625C38.882 42.5625 38.222 42.5625 37.542 42.5625C36.7237 32.756 36.4488 23.3842 37.542 13.5625Z" fill="#281F23"/>
<path d="M57.542 133.562C58.202 133.562 58.862 133.562 59.542 133.562C59.8926 134.326 60.2432 135.089 60.6045 135.875C63.4741 139.855 66.8633 140.543 71.542 141.562C74.8707 142.039 78.186 142.359 81.542 142.562C81.542 142.893 81.542 143.222 81.542 143.562C78.8122 143.644 76.0849 143.703 73.3545 143.75C72.5856 143.775 71.8166 143.8 71.0244 143.826C66.3539 143.886 63.3224 143.617 59.542 140.562C57.542 137.562 57.542 137.562 57.542 133.562Z" fill="#161211"/>
<path d="M34.542 83.5625C34.872 83.5625 35.202 83.5625 35.542 83.5625C35.542 86.8625 35.542 90.1625 35.542 93.5625C36.532 93.8925 37.522 94.2225 38.542 94.5625C38.7643 96.3316 38.9694 98.1029 39.167 99.875C39.283 100.861 39.399 101.847 39.5186 102.863C39.542 105.562 39.542 105.562 37.542 108.562C36.552 108.232 35.562 107.903 34.542 107.562C34.835 105.642 35.128 103.721 35.4209 101.801C35.5604 99.2234 35.0592 97.0875 34.542 94.5625C34.4767 92.626 34.4562 90.6875 34.4795 88.75C34.4885 87.7742 34.4976 86.7984 34.5069 85.793C34.5185 85.0569 34.5301 84.3209 34.542 83.5625Z" fill="#1F201F"/>
<path d="M59.542 146.562C62.793 146.644 66.0422 146.756 69.292 146.875C70.2124 146.898 71.1328 146.92 72.0811 146.943C72.9705 146.979 73.86 147.014 74.7764 147.051C75.5933 147.077 76.4103 147.103 77.252 147.13C80.0019 147.649 81.4443 148.753 83.542 150.562C67.1638 150.946 67.1638 150.946 60.542 148.562C60.212 147.902 59.882 147.243 59.542 146.562Z" fill="#222523"/>
<path d="M67.542 54.5625C68.532 54.8925 69.522 55.2225 70.542 55.5625C70.542 56.5525 70.542 57.5425 70.542 58.5625C72.852 58.5625 75.162 58.5625 77.542 58.5625C77.542 59.5525 77.542 60.5425 77.542 61.5625C76.5288 61.5277 76.5288 61.5277 75.4951 61.4922C74.6031 61.4741 73.7111 61.4561 72.792 61.4375C71.9103 61.4143 71.0286 61.3911 70.1201 61.3672C67.4284 61.5711 65.8429 62.197 63.542 63.5625C64.1874 60.0771 65.6433 57.5343 67.542 54.5625Z" fill="#2B2124"/>
<path d="M67.542 92.5625C67.872 92.5625 68.202 92.5625 68.542 92.5625C68.542 98.8325 68.542 105.102 68.542 111.562C69.202 111.232 69.862 110.903 70.542 110.562C72.249 110.493 73.9587 110.478 75.667 110.5C76.5771 110.509 77.4871 110.518 78.4248 110.527C79.1235 110.539 79.8221 110.551 80.542 110.562C80.872 111.223 81.202 111.882 81.542 112.562C79.3967 112.756 77.2508 112.942 75.1045 113.125C73.9095 113.229 72.7146 113.334 71.4834 113.441C70.0274 113.501 70.0274 113.501 68.542 113.562C67.542 112.562 67.542 112.562 67.4285 110.613C67.4363 109.364 67.4363 109.364 67.4443 108.09C67.4476 107.191 67.4508 106.292 67.4541 105.365C67.4625 104.42 67.4709 103.474 67.4795 102.5C67.484 101.551 67.4885 100.601 67.4932 99.623C67.505 97.2695 67.5215 94.916 67.542 92.5625Z" fill="#363534"/>
<path d="M68.542 28.5625C70.2883 31.1819 70.9292 32.6007 71.542 35.5625C74.182 35.8925 76.822 36.2225 79.542 36.5625C78.552 37.8825 77.562 39.2025 76.542 40.5625C75.9851 40.2325 75.4282 39.9025 74.8545 39.5625C72.2391 38.4315 70.3613 38.4059 67.542 38.5625C67.212 35.5925 66.882 32.6225 66.542 29.5625C67.202 29.2325 67.862 28.9025 68.542 28.5625Z" fill="#1E1B1F"/>
<path d="M95.542 131.562C96.862 131.562 98.182 131.562 99.542 131.562C99.2607 133.044 98.9667 134.522 98.667 136C98.5046 136.824 98.3421 137.647 98.1748 138.496C97.8616 139.519 97.8616 139.519 97.542 140.562C96.552 141.058 96.552 141.058 95.542 141.562C95.212 140.902 94.882 140.243 94.542 139.562C94.212 140.223 93.882 140.882 93.542 141.562C92.552 141.232 91.562 140.903 90.542 140.562C91.202 140.562 91.862 140.562 92.542 140.562C93.532 137.592 94.522 134.622 95.542 131.562Z" fill="#DEB536"/>
<path d="M69.542 129.563C66.242 129.893 62.942 130.223 59.542 130.563C59.542 131.553 59.542 132.543 59.542 133.563C58.552 133.893 57.562 134.223 56.542 134.563C56.542 132.253 56.542 129.943 56.542 127.563C62.13 126.42 64.7858 126.392 69.542 129.563Z" fill="#342A1A"/>
<path d="M48.542 69.5625C49.202 70.2225 49.862 70.8825 50.542 71.5625C50.2043 72.0936 49.8665 72.6247 49.5186 73.1719C49.0725 73.8783 48.6265 74.5847 48.167 75.3125C47.7261 76.0086 47.2853 76.7047 46.8311 77.4219C45.5102 79.5336 45.5102 79.5336 44.5029 81.7656C43.542 83.5625 43.542 83.5625 41.542 84.5625C42.0572 78.1225 43.9787 74.1258 48.542 69.5625Z" fill="#1A1C1C"/>
<path d="M112.542 100.562C113.202 100.562 113.862 100.562 114.542 100.562C116.721 105.103 118.141 108.413 117.542 113.562C116.882 114.223 116.222 114.882 115.542 115.562C113.542 113.562 113.542 113.562 113.479 110.875C113.5 109.782 113.521 108.689 113.542 107.562C113.24 105.225 112.914 102.89 112.542 100.562Z" fill="#262722"/>
<path d="M94.542 138.562C94.872 139.883 95.202 141.202 95.542 142.562C92.917 144.688 92.917 144.688 89.542 146.562C86.167 145.812 86.167 145.812 83.542 144.562C86.9865 142.266 89.4801 142.022 93.542 141.562C93.872 140.572 94.202 139.582 94.542 138.562Z" fill="#E4BD3A"/>
<path d="M58.542 68.5625C60.4795 70.125 60.4795 70.125 61.542 71.5625C61.212 72.5525 60.882 73.5425 60.542 74.5625C60.0057 74.0675 59.4695 73.5725 58.917 73.0625C55.9484 71.1876 53.9889 71.3275 50.542 71.5625C50.212 70.5725 49.882 69.5825 49.542 68.5625C52.692 66.9875 55.1774 67.8542 58.542 68.5625Z" fill="#2D2F30"/>
<path d="M54.542 57.5625C56.215 58.2131 57.8806 58.8828 59.542 59.5625C60.2845 59.7894 61.027 60.0162 61.792 60.25C63.542 61.5625 63.542 61.5625 64.292 65.1875C64.4157 66.8581 64.4157 66.8581 64.542 68.5625C63.882 68.5625 63.222 68.5625 62.542 68.5625C61.9232 67.6137 61.3045 66.665 60.667 65.6875C58.6627 62.7401 57.7941 61.724 54.542 60.5625C54.542 59.5725 54.542 58.5825 54.542 57.5625Z" fill="#1D1B1A"/>
<path d="M52.542 131.562C53.862 131.562 55.182 131.562 56.542 131.562C56.872 134.533 57.202 137.503 57.542 140.562C56.552 140.562 55.562 140.562 54.542 140.562C53.0438 137.192 52.542 135.358 52.542 131.562Z" fill="#F4C53E"/>
<path d="M105.542 113.562C108.729 114.438 108.729 114.438 111.542 115.562C109.179 118.088 107.877 119.451 104.542 120.562C103.882 119.902 103.222 119.243 102.542 118.562C102.542 117.572 102.542 116.582 102.542 115.562C103.532 114.902 104.522 114.243 105.542 113.562Z" fill="#E7C13F"/>
<path d="M38.5419 41.5625C39.7559 45.058 39.3192 47.2534 38.2294 50.75C37.9651 51.6304 37.7009 52.5109 37.4286 53.418C36.5419 55.5625 36.5419 55.5625 34.5419 56.5625C34.1954 50.9029 35.0613 47.5236 37.5419 42.5625C37.8719 42.2325 38.2019 41.9025 38.5419 41.5625Z" fill="#151A1D"/>
<path d="M113.542 43.5625C116.289 47.6831 116.661 50.4053 116.605 55.25C116.595 56.2439 116.586 57.2377 116.577 58.2617C116.566 59.021 116.554 59.7802 116.542 60.5625C115.552 60.2325 114.562 59.9025 113.542 59.5625C113.347 57.459 113.161 55.3547 112.98 53.25C112.875 52.0782 112.771 50.9065 112.663 49.6992C112.542 46.5625 112.542 46.5625 113.542 43.5625Z" fill="#302732"/>
<path d="M106.542 100.562C107.532 100.893 108.522 101.222 109.542 101.562C109.542 104.862 109.542 108.162 109.542 111.562C108.552 112.058 108.552 112.058 107.542 112.562C106.552 111.902 105.562 111.243 104.542 110.562C105.202 107.263 105.862 103.963 106.542 100.562Z" fill="#181D21"/>
<path d="M47.542 121.562C47.872 122.883 48.202 124.202 48.542 125.562C47.552 125.893 46.562 126.222 45.542 126.562C45.542 127.223 45.542 127.882 45.542 128.562C47.522 127.902 49.502 127.243 51.542 126.562C51.542 127.223 51.542 127.882 51.542 128.562C52.202 128.893 52.862 129.222 53.542 129.562C47.4873 130.539 47.4873 130.539 45.542 130.562C44.882 129.902 44.222 129.243 43.542 128.562C43.8606 125.27 45.0871 123.697 47.542 121.562Z" fill="#D8B33D"/>
<path d="M108.542 34.5625C109.862 34.8925 111.182 35.2225 112.542 35.5625C112.872 39.1925 113.202 42.8225 113.542 46.5625C110.245 44.9142 109.784 41.8926 108.542 38.5625C108.542 37.2425 108.542 35.9225 108.542 34.5625Z" fill="#131011"/>
<path d="M71.542 141.563C74.5811 141.27 74.5811 141.27 78.167 141.375C79.3555 141.402 80.544 141.429 81.7686 141.457C82.6838 141.492 83.599 141.527 84.542 141.563C84.212 142.553 83.882 143.543 83.542 144.563C78.922 144.563 74.302 144.563 69.542 144.563C70.202 143.573 70.862 142.583 71.542 141.563Z" fill="#3D341B"/>
<path d="M65.542 35.5625C66.532 36.0575 66.532 36.0575 67.542 36.5625C67.542 37.2225 67.542 37.8825 67.542 38.5625C71.007 38.0675 71.007 38.0675 74.542 37.5625C73.9026 37.9338 73.2632 38.305 72.6045 38.6875C69.9034 41.143 69.8579 43.0083 69.542 46.5625C68.882 46.2325 68.222 45.9025 67.542 45.5625C66.9092 43.2773 66.9092 43.2773 66.417 40.5C66.2494 39.5809 66.0818 38.6618 65.9092 37.7148C65.788 37.0046 65.6668 36.2943 65.542 35.5625Z" fill="#060903"/>
<path d="M58.542 128.562C57.552 129.057 57.552 129.057 56.542 129.562C56.542 130.222 56.542 130.882 56.542 131.562C55.222 131.562 53.902 131.562 52.542 131.562C52.872 133.542 53.202 135.522 53.542 137.562C52.552 137.562 51.562 137.562 50.542 137.562C50.872 135.582 51.202 133.602 51.542 131.562C50.552 131.232 49.562 130.902 48.542 130.562C48.542 130.232 48.542 129.902 48.542 129.562C51.9476 128.784 55.0496 128.463 58.542 128.562Z" fill="#26201A"/>
<path d="M81.542 47.5625C81.872 47.5625 82.202 47.5625 82.542 47.5625C82.872 51.8525 83.202 56.1425 83.542 60.5625C81.562 60.5625 79.582 60.5625 77.542 60.5625C77.8488 60.0005 78.1556 59.4384 78.4717 58.8594C79.5716 56.499 80.143 54.3578 80.667 51.8125C80.8346 51.0133 81.0021 50.2141 81.1748 49.3906C81.296 48.7873 81.4171 48.1841 81.542 47.5625Z" fill="#0C0C09"/>
<path d="M113.542 117.562C115.542 119.562 115.542 119.562 115.542 122.562C112.542 124.562 112.542 124.562 109.854 124.188C109.091 123.981 108.328 123.775 107.542 123.562C107.542 122.902 107.542 122.243 107.542 121.562C109.503 120.173 111.504 118.836 113.542 117.562Z" fill="#7BA8C7"/>
<path d="M111.542 100.562C111.872 100.562 112.202 100.562 112.542 100.562C113.667 108.312 113.667 108.312 112.542 110.562C111.882 110.562 111.222 110.562 110.542 110.562C110.542 109.902 110.542 109.243 110.542 108.562C109.882 108.562 109.222 108.562 108.542 108.562C108.542 106.913 108.542 105.263 108.542 103.562C109.532 103.893 110.522 104.222 111.542 104.562C111.542 103.242 111.542 101.923 111.542 100.562Z" fill="#D5C07A"/>
<path d="M42.542 105.562C43.532 105.562 44.522 105.562 45.542 105.562C46.202 107.872 46.862 110.182 47.542 112.562C46.222 112.893 44.902 113.222 43.542 113.562C41.542 110.562 41.542 110.562 41.917 107.875C42.1232 107.112 42.3295 106.349 42.542 105.562Z" fill="#1F1E16"/>
<path d="M94.542 6.5625C95.202 6.5625 95.862 6.5625 96.542 6.5625C95.9274 10.5571 93.8355 13.3072 91.542 16.5625C90.552 15.9025 89.562 15.2425 88.542 14.5625C89.4924 13.2235 90.4526 11.8914 91.417 10.5625C91.9507 9.82 92.4843 9.0775 93.0342 8.3125C93.5318 7.735 94.0293 7.1575 94.542 6.5625Z" fill="#18161B"/>
<path d="M115.542 114.562C114.154 117.917 112.656 119.675 109.542 121.562C108.552 121.562 107.562 121.562 106.542 121.562C107.857 117.619 111.157 114.562 115.542 114.562Z" fill="#100D0A"/>
<path d="M34.5421 83.5625C34.8721 83.5625 35.2021 83.5625 35.5421 83.5625C35.5421 86.8625 35.5421 90.1625 35.5421 93.5625C36.5321 93.8925 37.5221 94.2225 38.5421 94.5625C38.5421 95.8825 38.5421 97.2025 38.5421 98.5625C37.5521 98.8925 36.5621 99.2225 35.5421 99.5625C34.6892 95.8886 34.4342 92.5178 34.4796 88.75C34.4887 87.7742 34.4977 86.7984 34.507 85.793C34.5186 85.0569 34.5302 84.3209 34.5421 83.5625Z" fill="#38444C"/>
<path d="M37.542 106.562C38.862 106.562 40.182 106.562 41.542 106.562C41.872 108.543 42.202 110.523 42.542 112.562C41.222 112.893 39.902 113.222 38.542 113.562C38.212 111.253 37.882 108.943 37.542 106.562Z" fill="#ECCD4D"/>
<path d="M102.542 70.5625C105.542 71.5625 105.542 71.5625 107.292 74.5C107.704 75.5106 108.117 76.5213 108.542 77.5625C108.212 78.2225 107.882 78.8825 107.542 79.5625C106.882 79.5625 106.222 79.5625 105.542 79.5625C102.542 73.9375 102.542 73.9375 102.542 70.5625Z" fill="#141718"/>
<path d="M56.542 6.5625C61.417 11.1875 61.417 11.1875 62.542 14.5625C61.552 14.8925 60.562 15.2225 59.542 15.5625C56.3193 10.2891 56.3193 10.2891 55.542 8.5625C55.872 7.9025 56.202 7.2425 56.542 6.5625Z" fill="#1C1A1E"/>
<path d="M72.542 128.562C74.852 128.562 77.162 128.562 79.542 128.562C78.882 129.883 78.222 131.202 77.542 132.562C76.552 132.562 75.562 132.562 74.542 132.562C73.882 131.242 73.222 129.923 72.542 128.562Z" fill="#D78A54"/>
<path d="M113.542 83.5625C113.872 83.5625 114.202 83.5625 114.542 83.5625C114.872 89.1725 115.202 94.7825 115.542 100.562C114.552 100.562 113.562 100.562 112.542 100.562C112.872 94.9525 113.202 89.3425 113.542 83.5625Z" fill="#313231"/>
<path d="M85.542 78.5625C85.872 79.2225 86.202 79.8825 86.542 80.5625C87.202 80.8925 87.862 81.2225 88.542 81.5625C88.212 83.2125 87.882 84.8625 87.542 86.5625C86.882 86.5625 86.222 86.5625 85.542 86.5625C84.882 87.5525 84.222 88.5425 83.542 89.5625C84.417 81.9375 84.417 81.9375 85.542 78.5625Z" fill="#383A3B"/>
<path d="M47.542 120.562C46.9734 123.861 46.0418 125.363 43.542 127.562C42.882 128.223 42.222 128.882 41.542 129.562C41.292 127.312 41.292 127.312 41.542 124.562C44.7852 120.562 44.7852 120.562 47.542 120.562Z" fill="#0D090B"/>
<path d="M46.542 7.5625C47.202 7.5625 47.862 7.5625 48.542 7.5625C49.532 10.8625 50.522 14.1625 51.542 17.5625C48.542 16.5625 48.542 16.5625 47.3545 14.25C46.542 11.5625 46.542 11.5625 46.542 7.5625Z" fill="#150F0E"/>
<path d="M92.542 139.563C90.1469 142.462 88.2295 143.064 84.542 143.563C84.542 142.573 84.542 141.583 84.542 140.563C89.167 138.438 89.167 138.438 92.542 139.563Z" fill="#231E16"/>
<path d="M93.542 131.562C94.202 131.562 94.862 131.562 95.542 131.562C94.882 133.872 94.222 136.182 93.542 138.562C92.552 138.562 91.562 138.562 90.542 138.562C92.417 132.688 92.417 132.688 93.542 131.562Z" fill="#161112"/>
<path d="M62.542 126.562C65.5037 127.175 66.9226 127.816 69.542 129.562C66.242 129.893 62.942 130.222 59.542 130.562C60.202 130.232 60.862 129.903 61.542 129.562C61.872 128.572 62.202 127.582 62.542 126.562Z" fill="#4A3A1D"/>
<path d="M70.542 35.5625C73.512 35.8925 76.482 36.2225 79.542 36.5625C78.552 37.8825 77.562 39.2025 76.542 40.5625C74.542 39.5625 72.542 38.5625 70.542 37.5625C70.542 36.9025 70.542 36.2425 70.542 35.5625Z" fill="#2B2B30"/>
<path d="M94.542 138.562C94.872 139.883 95.202 141.202 95.542 142.562C93.067 144.048 93.067 144.048 90.542 145.562C90.212 144.902 89.882 144.243 89.542 143.562C89.872 142.902 90.202 142.243 90.542 141.562C91.532 141.562 92.522 141.562 93.542 141.562C93.872 140.572 94.202 139.582 94.542 138.562Z" fill="#EFC844"/>
<path d="M105.542 119.562C105.975 120.522 105.975 120.522 106.417 121.5C107.37 123.715 107.37 123.715 109.542 124.562C108.882 125.223 108.222 125.882 107.542 126.562C105.542 125.25 105.542 125.25 103.542 123.562C103.542 122.572 103.542 121.582 103.542 120.562C104.202 120.232 104.862 119.903 105.542 119.562Z" fill="#211E15"/>
<path d="M90.542 72.5625C90.872 73.2225 91.202 73.8825 91.542 74.5625C90.6075 76.5939 89.6097 78.5978 88.542 80.5625C87.882 80.5625 87.222 80.5625 86.542 80.5625C86.8545 77.6875 86.8545 77.6875 87.542 74.5625C88.532 73.9025 89.522 73.2425 90.542 72.5625Z" fill="#0D0E0E"/>
<path d="M53.542 109.562C54.202 109.893 54.862 110.222 55.542 110.562C56.167 113.125 56.167 113.125 56.542 115.562C53.572 115.067 53.572 115.067 50.542 114.562C51.202 114.232 51.862 113.903 52.542 113.562C53.1941 111.538 53.1941 111.538 53.542 109.562Z" fill="#89BBC9"/>
<path d="M57.542 134.562C57.542 136.543 57.542 138.523 57.542 140.562C56.552 140.562 55.562 140.562 54.542 140.562C54.212 139.572 53.882 138.582 53.542 137.562C56.417 134.562 56.417 134.562 57.542 134.562Z" fill="#ECBF41"/>
<path d="M84.542 111.562C84.542 112.553 84.542 113.543 84.542 114.562C80.582 114.232 76.622 113.903 72.542 113.562C72.542 113.232 72.542 112.903 72.542 112.562C73.9793 112.394 75.4168 112.228 76.8545 112.062C77.655 111.97 78.4555 111.877 79.2803 111.781C81.542 111.562 81.542 111.562 84.542 111.562Z" fill="#211E19"/>
<path d="M112.542 100.562C113.202 100.562 113.862 100.562 114.542 100.562C115.202 102.872 115.862 105.182 116.542 107.562C115.552 107.562 114.562 107.562 113.542 107.562C113.212 105.253 112.882 102.943 112.542 100.562Z" fill="#121210"/>
<path d="M92.542 68.5625C93.202 68.5625 93.862 68.5625 94.542 68.5625C94.3545 70.4375 94.3545 70.4375 93.542 72.5625C90.9795 73.8125 90.9795 73.8125 88.542 74.5625C89.6937 72.0945 90.5898 70.5147 92.542 68.5625Z" fill="#202222"/>
<path d="M56.542 68.5625C58.522 69.5525 58.522 69.5525 60.542 70.5625C60.542 71.8825 60.542 73.2025 60.542 74.5625C58.542 73.25 58.542 73.25 56.542 71.5625C56.542 70.5725 56.542 69.5825 56.542 68.5625Z" fill="#25292A"/>
<path d="M81.542 28.5625C82.667 30.25 82.667 30.25 83.542 32.5625C82.667 35.3125 82.667 35.3125 81.542 37.5625C80.417 35.875 80.417 35.875 79.542 33.5625C80.417 30.8125 80.417 30.8125 81.542 28.5625Z" fill="#1A1B1F"/>
</svg>
