<svg width="153" height="154" viewBox="0 0 153 154" fill="none" xmlns="http://www.w3.org/2000/svg">
<path d="M102.892 5.46009C101.902 6.12009 100.912 6.78009 99.8921 7.46009C98.731 8.37869 97.5859 9.31764 96.4546 10.2726C95.8783 10.7534 95.3021 11.2342 94.7085 11.7296C92.7842 13.4549 92.7842 13.4549 91.1967 15.8273C88.0777 19.3904 84.5572 21.4677 80.4546 23.7726C79.6585 24.2226 78.8624 24.6727 78.0422 25.1364C71.826 28.4308 67.4369 29.3742 60.396 28.421C57.7914 28.1877 57.7914 28.1877 56.0561 30.1085C54.6889 32.8705 54.5836 34.6462 54.7046 37.7101C54.7316 38.6021 54.7587 39.4941 54.7866 40.4132C54.8388 41.4264 54.8388 41.4264 54.8921 42.4601C55.5521 42.4601 56.2121 42.4601 56.8921 42.4601C56.8805 41.6776 56.8688 40.8952 56.8569 40.089C56.8479 39.0771 56.8388 38.0652 56.8296 37.0226C56.818 36.0133 56.8063 35.0039 56.7944 33.964C56.8921 31.4601 56.8921 31.4601 57.8921 30.4601C65.4158 29.6426 72.0245 31.2455 79.1421 33.5226C80.1412 33.8333 81.1403 34.1441 82.1696 34.4642C90.1957 37.0458 97.5691 40.2846 104.892 44.4601C104.142 50.2101 104.142 50.2101 101.892 52.4601C102.882 52.4601 103.872 52.4601 104.892 52.4601C106.417 49.4102 106.128 46.8177 105.892 43.4601C104.538 41.5164 104.538 41.5164 102.892 40.4601C104.079 35.5917 106.069 32.7981 109.455 29.2687C112.516 25.4174 113.169 21.4576 113.517 16.6476C113.592 15.6718 113.667 14.6959 113.744 13.6906C113.817 12.5865 113.817 12.5865 113.892 11.4601C127.559 15.9819 138.618 30.6656 144.92 43.0526C153.239 60.4929 155.453 82.101 149.013 100.573C148.458 102.002 148.458 102.002 147.892 103.46C147.615 104.32 147.338 105.18 147.052 106.066C141.598 121.874 127.801 137.181 112.892 144.46C109.829 144.229 109.096 143.664 106.892 141.46C107.387 143.935 107.387 143.935 107.892 146.46C102.942 148.44 102.942 148.44 97.8921 150.46C97.8921 148.81 97.8921 147.16 97.8921 145.46C97.2321 145.46 96.5721 145.46 95.8921 145.46C95.3971 148.43 95.3971 148.43 94.8921 151.46C90.355 152.912 86.7114 153.695 81.8921 153.46C82.5243 152.429 82.5243 152.429 83.1694 151.378C83.9912 150.026 83.9912 150.026 84.8296 148.648C85.3748 147.754 85.9201 146.861 86.4819 145.941C88.7053 142.03 89.1212 138.702 89.4546 134.273C89.5802 132.643 89.5802 132.643 89.7085 130.98C89.769 130.148 89.8296 129.317 89.8921 128.46C89.3584 128.893 88.8247 129.326 88.2749 129.773C82.3553 134.197 78.2069 135.463 70.8921 134.46C67.8524 133.919 64.8721 133.266 61.8921 132.46C62.137 140.177 64.281 144.369 68.8921 150.46C69.5521 151.45 70.2121 152.44 70.8921 153.46C65.6723 153.64 61.8194 153.431 56.8921 151.46C56.8921 149.81 56.8921 148.16 56.8921 146.46C56.2321 146.46 55.5721 146.46 54.8921 146.46C54.8921 147.78 54.8921 149.1 54.8921 150.46C53.4072 150.064 51.9292 149.643 50.4546 149.21C49.219 148.862 49.219 148.862 47.9585 148.507C45.8921 147.46 45.8921 147.46 45.1069 145.351C45.0005 144.415 45.0005 144.415 44.8921 143.46C44.1637 143.684 43.4354 143.909 42.685 144.14C38.1941 144.655 36.0437 142.216 32.5717 139.605C16.1491 126.462 3.82428 109.844 0.892054 88.4601C-0.919647 67.2095 2.79143 46.8153 16.6421 29.964C19.2528 26.9762 22.0318 24.209 24.8921 21.4601C25.5469 20.7975 26.2017 20.1349 26.8764 19.4523C36.1053 10.6572 47.6817 5.53697 59.8921 2.46009C60.6578 2.23579 61.4235 2.01149 62.2124 1.7804C75.1543 -1.70579 90.6588 0.141276 102.892 5.46009Z" fill="#0C0E0D"/>
<path d="M102.892 5.46009C101.902 6.12009 100.912 6.78009 99.892 7.46009C98.731 8.37869 97.5858 9.31764 96.4545 10.2726C95.8783 10.7534 95.3021 11.2342 94.7084 11.7296C92.7841 13.4549 92.7841 13.4549 91.1967 15.8273C88.0776 19.3904 84.5572 21.4677 80.4545 23.7726C79.6584 24.2226 78.8624 24.6727 78.0422 25.1364C71.8259 28.4308 67.4369 29.3742 60.3959 28.421C57.8252 28.2021 57.8252 28.2021 56.0795 29.9406C54.4589 33.379 54.401 36.6653 54.3295 40.3976C54.211 45.1845 53.7017 49.0026 51.892 53.4601C51.9109 56.2189 51.9109 56.2189 52.2045 59.0851C52.3029 65.3063 50.4964 68.4451 46.9662 73.4288C37.5406 87.2034 30.4664 104.546 32.892 121.46C33.8013 124.42 33.8013 124.42 35.892 126.46C38.202 126.46 40.512 126.46 42.892 126.46C43.552 121.84 44.212 117.22 44.892 112.46C45.882 112.955 45.882 112.955 46.892 113.46C46.892 114.12 46.892 114.78 46.892 115.46C47.5185 115.665 48.145 115.87 48.7904 116.081C49.6077 116.351 50.425 116.62 51.267 116.898C52.0791 117.164 52.8912 117.431 53.7279 117.706C55.892 118.46 55.892 118.46 57.892 119.46C58.642 121.835 58.642 121.835 58.892 124.46C58.232 125.45 57.572 126.44 56.892 127.46C56.892 128.739 56.892 130.018 56.892 131.335C56.6928 133.468 56.6928 133.468 55.892 135.46C53.4784 137.14 51.0553 138.22 48.349 139.362C45.5744 140.602 43.8085 142.108 41.892 144.46C25.8022 138.72 14.6948 124.066 7.31779 109.312C6.04228 106.393 4.93081 103.471 3.89201 100.46C3.41441 99.1704 3.41441 99.1704 2.92716 97.8546C-2.86967 79.3421 0.359083 58.7237 8.95451 41.7726C13.1915 33.8818 18.4627 27.6392 24.892 21.4601C25.5469 20.7975 26.2017 20.1349 26.8764 19.4523C36.1053 10.6572 47.6817 5.53697 59.892 2.46009C60.6577 2.23579 61.4234 2.01149 62.2123 1.7804C75.1542 -1.70579 90.6587 0.141276 102.892 5.46009Z" fill="#6CB450"/>
<path d="M113.892 11.4601C127.559 15.9819 138.618 30.6656 144.92 43.0526C153.239 60.4929 155.453 82.101 149.013 100.573C148.643 101.526 148.273 102.479 147.892 103.46C147.615 104.32 147.338 105.18 147.052 106.066C141.598 121.874 127.801 137.181 112.892 144.46C109.138 144.211 107.28 142.17 104.544 139.698C102.696 138.171 102.696 138.171 99.1421 137.273C95.8921 135.46 95.8921 135.46 95.0405 133.159C94.5434 130.596 94.2074 128.051 93.8921 125.46C93.5621 124.47 93.2321 123.48 92.8921 122.46C93.8921 119.46 93.8921 119.46 96.0366 118.214C96.9171 117.821 97.7975 117.428 98.7046 117.023C102.522 115.314 105.068 113.561 107.892 110.46C108.013 111.364 108.134 112.267 108.259 113.198C108.427 114.378 108.594 115.557 108.767 116.773C108.93 117.944 109.092 119.116 109.259 120.323C109.715 123.605 109.715 123.605 111.892 126.46C114.349 127.127 114.349 127.127 116.892 126.46C121.407 120.624 120.732 113.448 119.892 106.46C117.453 93.4444 111.287 80.1147 103.33 69.5851C100.489 65.5445 100.385 62.4876 101.193 57.6749C102.128 54.7113 103.913 52.8222 105.892 50.4601C106.529 45.6486 106.529 45.6486 104.392 41.5226C103.897 41.172 103.402 40.8213 102.892 40.4601C104.08 35.5917 106.069 32.7981 109.455 29.2687C112.516 25.4174 113.169 21.4576 113.517 16.6476C113.592 15.6718 113.667 14.6959 113.744 13.6906C113.793 12.9545 113.842 12.2184 113.892 11.4601Z" fill="#6DB451"/>
<path d="M75.8921 18.335C77.0542 18.3486 77.0542 18.3486 78.2397 18.3624C80.124 18.3856 82.0081 18.4215 83.8921 18.46C83.8921 19.45 83.8921 20.44 83.8921 21.46C75.8051 26.6484 70.4097 29.3378 60.5718 28.3155C57.8456 28.1988 57.8456 28.1988 56.06 29.9522C54.4606 33.3864 54.4008 36.6763 54.3296 40.3975C54.2111 45.1844 53.7017 49.0026 51.8921 53.46C51.911 56.2189 51.911 56.2189 52.2046 59.085C52.3031 65.3161 50.4812 68.4517 46.9624 73.4522C38.4782 85.7784 34.7784 98.9093 31.8921 113.46C23.0942 105.308 18.4051 92.5343 17.6538 80.71C17.1883 62.9002 22.605 48.1699 34.9741 35.1085C46.4967 24.6502 60.2181 17.9819 75.8921 18.335Z" fill="#88BD72"/>
<path d="M109.892 29.4601C120.766 35.3329 129.11 47.1454 132.705 58.8351C133.118 60.3722 133.515 61.9137 133.892 63.4601C134.062 64.0793 134.232 64.6985 134.407 65.3365C137.71 79.7878 134.271 93.801 127.228 106.448C124.605 110.603 124.605 110.603 122.892 112.46C122.232 112.46 121.572 112.46 120.892 112.46C120.685 111.419 120.477 110.377 120.263 109.304C117.375 95.5675 112.935 83.6324 104.892 72.0851C102.129 68.0703 100.245 64.9243 100.58 59.8976C101.432 55.8729 103.261 53.6002 105.892 50.4601C106.529 45.6486 106.529 45.6486 104.392 41.5226C103.897 41.172 103.402 40.8213 102.892 40.4601C104.169 35.4673 106.065 32.884 109.892 29.4601Z" fill="#88BC72"/>
<path d="M94.8921 83.4601C95.5521 83.7901 96.2121 84.1201 96.8921 84.4601C96.5621 86.1101 96.2321 87.7601 95.8921 89.4601C95.2321 89.4601 94.5721 89.4601 93.8921 89.4601C96.9148 92.7153 100.149 95.0783 103.892 97.4601C103.562 98.4501 103.232 99.4401 102.892 100.46C103.387 101.058 103.882 101.656 104.392 102.273C105.892 104.46 105.892 104.46 105.892 107.398C104.65 111.202 102.944 112.917 99.8921 115.46C94.6676 117.202 90.8558 117.378 85.8765 115.05C83.8049 113.93 81.7525 112.774 79.7241 111.577C76.9612 110.165 76.9612 110.165 74.2593 111.148C72.2282 112.274 70.2085 113.411 68.2046 114.585C63.4874 116.957 59.0827 117.337 53.8921 116.46C50.0366 114.464 48.294 113.063 45.8921 109.46C45.4857 106.29 45.4997 104.978 47.4546 102.398C47.929 101.758 48.4033 101.119 48.8921 100.46C48.5621 99.1401 48.2321 97.8201 47.8921 96.4601C50.8621 94.8101 53.8321 93.1601 56.8921 91.4601C56.5621 89.1501 56.2321 86.8401 55.8921 84.4601C57.2121 84.7901 58.5321 85.1201 59.8921 85.4601C59.8921 86.1201 59.8921 86.7801 59.8921 87.4601C60.4632 87.2435 61.0342 87.027 61.6226 86.8038C71.3473 83.4643 80.8989 83.9537 90.9663 85.4366C91.9196 85.4482 91.9196 85.4482 92.8921 85.4601C93.5521 84.8001 94.2121 84.1401 94.8921 83.4601Z" fill="#E8C1A0"/>
<path d="M77.4468 110.148C78.2537 110.581 79.0607 111.014 79.8921 111.46C80.6101 111.813 81.3281 112.167 82.0679 112.53C82.773 112.878 83.4781 113.227 84.2046 113.585C89.6832 116.028 94.0895 116.394 99.8921 114.46C100.552 114.13 101.212 113.8 101.892 113.46C102.387 114.945 102.387 114.945 102.892 116.46C99.9221 117.45 96.9521 118.44 93.8921 119.46C93.6912 123.176 93.7401 124.232 95.8921 127.46C95.9127 128.759 95.9333 130.059 95.9546 131.398C96.0509 133.552 96.0509 133.552 96.8921 135.46C99.1224 136.763 101.356 137.532 103.791 138.386C105.892 139.46 105.892 139.46 106.931 141.253C107.455 143.21 107.455 143.21 107.892 146.46C104.592 147.78 101.292 149.1 97.8921 150.46C97.8921 148.81 97.8921 147.16 97.8921 145.46C97.2321 145.46 96.5721 145.46 95.8921 145.46C95.5621 147.44 95.2321 149.42 94.8921 151.46C90.3551 152.912 86.7115 153.695 81.8921 153.46C82.3136 152.773 82.7351 152.086 83.1694 151.378C83.7173 150.477 84.2651 149.576 84.8296 148.648C85.3749 147.754 85.9201 146.861 86.4819 145.941C88.7054 142.03 89.1212 138.702 89.4546 134.273C89.5384 133.186 89.6222 132.099 89.7085 130.98C89.7691 130.148 89.8297 129.317 89.8921 128.46C89.3584 128.893 88.8247 129.326 88.2749 129.773C82.3553 134.197 78.2069 135.463 70.8921 134.46C67.8524 133.919 64.8722 133.266 61.8921 132.46C62.1371 140.177 64.281 144.369 68.8921 150.46C69.5521 151.45 70.2121 152.44 70.8921 153.46C65.6723 153.64 61.8195 153.431 56.8921 151.46C56.8921 149.81 56.8921 148.16 56.8921 146.46C56.2321 146.46 55.5721 146.46 54.8921 146.46C54.8921 147.78 54.8921 149.1 54.8921 150.46C53.4072 150.064 51.9292 149.643 50.4546 149.21C49.6309 148.978 48.8072 148.746 47.9585 148.507C47.2766 148.162 46.5947 147.816 45.8921 147.46C45.2319 145.413 45.2319 145.413 44.8921 143.46C44.2321 143.13 43.5721 142.8 42.8921 142.46C51.099 135.46 51.099 135.46 55.8921 135.46C55.8508 134.243 55.8096 133.026 55.7671 131.773C55.7545 128.208 56.3997 125.725 57.8921 122.46C57.8921 121.47 57.8921 120.48 57.8921 119.46C54.9221 118.965 54.9221 118.965 51.8921 118.46C51.5621 117.14 51.2321 115.82 50.8921 114.46C51.8821 114.79 52.8721 115.12 53.8921 115.46C61.4325 116.571 66.0721 114.75 72.3491 110.577C74.8921 109.46 74.8921 109.46 77.4468 110.148Z" fill="#151511"/>
<path d="M70.8921 48.4601C73.2046 50.3976 73.2046 50.3976 74.8921 52.4601C74.8921 53.1201 74.8921 53.7801 74.8921 54.4601C75.5521 54.4601 76.2121 54.4601 76.8921 54.4601C77.1808 53.8413 77.4696 53.2226 77.7671 52.5851C78.8921 50.4601 78.8921 50.4601 80.8921 48.4601C84.2671 48.0226 84.2671 48.0226 87.8921 48.4601C90.7047 51.1481 91.7954 52.799 92.3621 56.6739C92.3475 57.8563 92.3329 59.0387 92.3179 60.2569C92.3053 62.1886 92.3053 62.1886 92.2925 64.1593C92.2781 64.8236 92.2636 65.488 92.2488 66.1725C92.2044 68.2178 92.1873 70.262 92.1753 72.3077C92.0599 82.2923 92.0599 82.2923 90.8921 83.4601C85.3627 83.6954 85.3627 83.6954 82.8921 82.4601C82.478 79.7374 82.478 79.7374 82.2671 76.3976C82.1923 75.2928 82.1176 74.1881 82.0405 73.0499C81.9915 72.1953 81.9426 71.3406 81.8921 70.4601C78.1393 69.6481 74.7375 69.3706 70.8921 69.4601C69.6076 72.029 69.5623 74.2258 69.3296 77.0851C69.2458 78.088 69.162 79.0908 69.0757 80.1241C69.0151 80.895 68.9545 81.6658 68.8921 82.4601C66.5821 83.1201 64.2721 83.7801 61.8921 84.4601C58.6741 79.1436 59.5234 73.0426 59.5171 67.0226C59.4926 65.7947 59.4681 64.5669 59.4429 63.3019C59.439 62.1179 59.4351 60.9339 59.4312 59.714C59.4229 58.6345 59.4147 57.555 59.4062 56.4427C60.0052 52.7656 61.3307 51.1136 63.8921 48.4601C66.6583 47.077 67.9662 47.5544 70.8921 48.4601Z" fill="#F8F8F8"/>
<path d="M107.892 8.46005C110.267 9.96005 110.267 9.96005 111.892 12.4601C112.742 18.8325 111.347 23.105 107.892 28.4601C106.295 30.5294 104.602 32.4798 102.892 34.4601C101.614 36.6759 101.614 36.6759 100.892 38.4601C95.1314 37.7806 89.9409 35.8512 84.5171 33.8976C83.5903 33.5682 82.6634 33.2388 81.7085 32.8995C79.4347 32.0908 77.1627 31.2775 74.8921 30.4601C74.8921 29.8001 74.8921 29.1401 74.8921 28.4601C75.9775 27.9032 77.0629 27.3463 78.1812 26.7726C88.3482 21.5536 88.3482 21.5536 95.8101 13.1241C98.715 8.65664 102.859 7.71047 107.892 8.46005Z" fill="#68B151"/>
<path d="M55.8921 84.46C57.2121 84.79 58.5321 85.12 59.8921 85.46C59.8921 86.12 59.8921 86.78 59.8921 87.46C60.4632 87.2435 61.0343 87.0269 61.6226 86.8038C68.8071 84.3366 75.3424 84.1405 82.8921 84.46C79.3615 86.8138 76.3062 87.1178 72.2046 87.585C71.5028 87.6714 70.8009 87.7578 70.0777 87.8467C68.35 88.0583 66.6212 88.2601 64.8921 88.46C64.8921 89.12 64.8921 89.78 64.8921 90.46C66.2121 90.79 67.5321 91.12 68.8921 91.46C67.2421 92.12 65.5921 92.78 63.8921 93.46C64.2221 95.77 64.5521 98.08 64.8921 100.46C65.5676 100.726 66.2431 100.991 66.939 101.265C67.8311 101.618 68.7231 101.971 69.6421 102.335C70.5239 102.683 71.4056 103.031 72.314 103.39C74.5662 104.325 76.7286 105.338 78.8921 106.46C76.8921 108.46 76.8921 108.46 74.8296 108.898C74.1903 109.083 73.5509 109.269 72.8921 109.46C72.5621 110.45 72.2321 111.44 71.8921 112.46C67.2013 116.122 62.0623 117.097 56.2281 116.855C52.7202 116.262 50.5387 114.776 47.8921 112.46C45.7204 109.202 45.4317 108.236 45.8921 104.46C46.6656 103.439 46.6656 103.439 47.4546 102.398C47.929 101.758 48.4034 101.119 48.8921 100.46C48.5621 99.14 48.2321 97.82 47.8921 96.46C50.8621 94.81 53.8321 93.16 56.8921 91.46C56.5621 89.15 56.2321 86.84 55.8921 84.46Z" fill="#EEC5A4"/>
<path d="M60.8921 118.46C62.5421 118.46 64.1921 118.46 65.8921 118.46C66.1576 119.087 66.4232 119.713 66.6968 120.359C67.05 121.176 67.4032 121.993 67.7671 122.835C68.1151 123.647 68.4632 124.459 68.8218 125.296C69.8166 127.598 69.8166 127.598 71.8921 129.46C77.2033 129.893 77.2033 129.893 82.2046 128.46C84.7076 125.494 85.7413 122.13 86.8921 118.46C88.2121 118.46 89.5321 118.46 90.8921 118.46C90.3746 124.929 88.6738 129.006 83.7671 133.335C76.6753 136.11 69.025 134.39 61.8921 132.46C62.1371 140.177 64.281 144.369 68.8921 150.46C69.5521 151.45 70.2121 152.44 70.8921 153.46C65.6723 153.64 61.8195 153.431 56.8921 151.46C56.8921 149.81 56.8921 148.16 56.8921 146.46C56.2321 146.46 55.5721 146.46 54.8921 146.46C54.8921 147.78 54.8921 149.1 54.8921 150.46C53.4072 150.064 51.9292 149.643 50.4546 149.21C49.6309 148.978 48.8072 148.746 47.9585 148.507C47.2766 148.161 46.5947 147.816 45.8921 147.46C45.2319 145.413 45.2319 145.413 44.8921 143.46C44.2321 143.13 43.5721 142.8 42.8921 142.46C51.099 135.46 51.099 135.46 55.8921 135.46C55.8302 134.264 55.7683 133.068 55.7046 131.835C55.6827 127.725 56.7608 125.012 58.8921 121.46C59.5521 121.46 60.2121 121.46 60.8921 121.46C60.8921 120.47 60.8921 119.48 60.8921 118.46Z" fill="#1B1612"/>
<path d="M101.892 6.46008C101.892 7.45008 101.892 8.44008 101.892 9.46008C100.84 10.0479 100.84 10.0479 99.7671 10.6476C96.8809 12.4671 96.2013 13.3788 94.4546 16.1476C90.2055 22.1905 83.4077 25.3192 76.8921 28.4601C76.2321 28.4601 75.5721 28.4601 74.8921 28.4601C74.8921 29.1201 74.8921 29.7801 74.8921 30.4601C76.0265 30.6663 77.1608 30.8726 78.3296 31.0851C86.0656 32.7766 93.4679 35.7495 100.892 38.4601C101.16 37.4907 101.428 36.5213 101.705 35.5226C102.096 34.512 102.488 33.5013 102.892 32.4601C103.882 32.1301 104.872 31.8001 105.892 31.4601C107.012 29.6377 107.012 29.6377 107.892 27.4601C109.225 24.7934 110.559 22.1267 111.892 19.4601C112.552 19.4601 113.212 19.4601 113.892 19.4601C113.298 25.6967 110.644 29.3573 106.705 34.0851C104.481 36.9834 104.481 36.9834 103.892 40.4601C104.366 40.8932 104.841 41.3263 105.33 41.7726C106.892 43.4601 106.892 43.4601 107.33 46.8976C106.834 50.9301 106.029 52.0096 102.892 54.4601C101.902 53.8001 100.912 53.1401 99.8921 52.4601C100.552 51.8826 101.212 51.3051 101.892 50.7101C104.335 48.4635 104.335 48.4635 103.892 44.4601C95.28 40.3946 86.6226 36.8382 77.5171 34.0226C76.7104 33.764 75.9038 33.5053 75.0727 33.2389C69.1932 31.4875 64.0224 31.2369 57.8921 31.4601C57.5621 35.0901 57.2321 38.7201 56.8921 42.4601C56.2321 42.4601 55.5721 42.4601 54.8921 42.4601C54.8921 44.1101 54.8921 45.7601 54.8921 47.4601C54.5621 47.4601 54.2321 47.4601 53.8921 47.4601C53.7835 45.063 53.7045 42.6709 53.6421 40.2726C53.6086 39.599 53.575 38.9255 53.5405 38.2316C53.4716 34.6985 53.8365 32.5605 55.5561 29.4523C57.8921 27.4601 57.8921 27.4601 60.4936 27.3234C61.4914 27.4716 62.4891 27.6198 63.5171 27.7726C73.5499 28.1689 83.1048 22.518 90.5386 16.0211C92.6478 13.9342 94.5278 11.725 96.3608 9.39368C98.1489 7.13577 99.0004 6.46008 101.892 6.46008Z" fill="#101710"/>
<path d="M92.8921 126.46C93.8821 126.79 94.8721 127.12 95.8921 127.46C95.8715 128.698 95.8508 129.935 95.8296 131.21C95.9804 133.454 95.9804 133.454 96.8921 135.46C99.1227 136.771 101.352 137.531 103.791 138.386C105.892 139.46 105.892 139.46 106.931 141.253C107.455 143.21 107.455 143.21 107.892 146.46C104.592 147.78 101.292 149.1 97.8921 150.46C97.8921 148.81 97.8921 147.16 97.8921 145.46C97.2321 145.46 96.5721 145.46 95.8921 145.46C95.5621 147.44 95.2321 149.42 94.8921 151.46C90.3551 152.912 86.7115 153.695 81.8921 153.46C82.3136 152.773 82.7351 152.086 83.1694 151.378C83.7173 150.477 84.2651 149.576 84.8296 148.648C85.3749 147.754 85.9201 146.861 86.4819 145.941C89.0912 141.351 89.152 137.214 89.4155 132.054C89.9456 129.169 90.6303 128.25 92.8921 126.46Z" fill="#D8612D"/>
<path d="M85.017 91.585C87.892 93.46 87.892 93.46 88.8295 96.6475C88.8501 97.5757 88.8708 98.5038 88.892 99.46C83.684 103.824 80.1514 104.819 73.474 104.741C69.3331 104.29 67.1688 103.04 63.892 100.46C62.7045 97.96 62.7045 97.96 62.892 95.46C68.0155 88.8727 77.5603 88.9551 85.017 91.585Z" fill="#0E0E0D"/>
<path d="M62.2515 30.2062C68.2359 30.2732 73.4729 31.7089 79.1421 33.5226C80.1412 33.8333 81.1403 34.1441 82.1697 34.4642C90.1958 37.0458 97.5691 40.2846 104.892 44.4601C104.642 47.3351 104.642 47.3351 103.892 50.4601C101.83 51.8351 101.83 51.8351 99.8921 52.4601C99.5892 51.773 99.2862 51.0859 98.9741 50.3781C96.4608 44.9043 96.4608 44.9043 92.6421 40.3351C88.7417 39.094 84.9479 38.8753 80.8921 39.4601C79.9021 40.1201 78.9121 40.7801 77.8921 41.4601C75.6081 41.114 73.958 40.493 71.8921 39.4601C66.2123 38.9373 61.535 38.7457 56.8921 42.4601C56.8652 40.6477 56.8458 38.8351 56.8296 37.0226C56.818 36.0132 56.8064 35.0039 56.7944 33.964C56.9563 29.8135 58.5078 30.2798 62.2515 30.2062Z" fill="#61AC4C"/>
<path d="M106.892 110.46C107.222 110.46 107.552 110.46 107.892 110.46C108.552 115.41 109.212 120.36 109.892 125.46C104.668 128.943 102.507 130.113 96.8922 131.46C92.8696 125.243 92.8696 125.243 92.9664 121.882C93.8922 119.46 93.8922 119.46 96.0719 118.019C96.9613 117.649 97.8508 117.279 98.7672 116.898C102.634 115.269 104.547 113.949 106.892 110.46Z" fill="#79B95E"/>
<path d="M60.8921 118.46C62.5421 118.46 64.1921 118.46 65.8921 118.46C66.1576 119.087 66.4232 119.713 66.6968 120.359C67.05 121.176 67.4032 121.993 67.7671 122.835C68.1151 123.647 68.4632 124.459 68.8218 125.296C69.8166 127.598 69.8166 127.598 71.8921 129.46C77.2033 129.893 77.2033 129.893 82.2046 128.46C84.7076 125.494 85.7413 122.13 86.8921 118.46C88.2121 118.46 89.5321 118.46 90.8921 118.46C90.3746 124.929 88.6738 129.006 83.7671 133.335C79.3849 135.05 75.5151 135.449 70.8921 134.46C66.7222 131.991 63.7495 128.996 61.3921 124.773C60.8921 122.46 60.8921 122.46 60.8921 118.46Z" fill="#E6C5A6"/>
<path d="M77.5171 113.085C78.3008 113.539 79.0846 113.993 79.8921 114.46C80.6552 114.831 81.4183 115.203 82.2046 115.585C82.7615 115.874 83.3183 116.163 83.8921 116.46C83.4079 123.723 83.4079 123.723 81.1421 126.96C78.8921 128.46 78.8921 128.46 76.3921 128.96C72.9547 128.273 71.9046 127.335 69.8921 124.46C69.2731 121.757 69.0777 119.245 68.8921 116.46C74.1687 112.288 74.1687 112.288 77.5171 113.085Z" fill="#DE6760"/>
<path d="M58.8922 127.46C59.8822 127.79 60.8722 128.12 61.8922 128.46C61.8947 129.294 61.8973 130.128 61.9 130.987C62.1839 139.25 63.6888 144.084 68.8922 150.46C69.5522 151.45 70.2122 152.44 70.8922 153.46C65.6724 153.64 61.8195 153.431 56.8922 151.46C55.9089 147.404 55.6562 143.629 55.8922 139.46C56.5522 138.8 57.2122 138.14 57.8922 137.46C58.3538 135.028 58.3538 135.028 58.5172 132.335C58.5919 131.425 58.6667 130.515 58.7437 129.577C58.7927 128.879 58.8417 128.18 58.8922 127.46Z" fill="#CD592B"/>
<path d="M44.8919 112.46C45.8819 112.955 45.8819 112.955 46.8919 113.46C46.8919 114.12 46.8919 114.78 46.8919 115.46C47.8317 115.768 47.8317 115.768 48.7904 116.081C49.6076 116.351 50.4249 116.62 51.2669 116.898C52.0791 117.164 52.8912 117.431 53.7279 117.706C55.8919 118.46 55.8919 118.46 57.8919 119.46C58.6419 121.835 58.6419 121.835 58.8919 124.46C57.9019 125.945 57.9019 125.945 56.8919 127.46C56.4981 129.784 56.1571 132.118 55.8919 134.46C53.8919 132.46 53.8919 132.46 52.8919 129.46C51.5621 128.766 50.2031 128.126 48.8294 127.523C46.638 126.265 46.638 126.265 44.8919 124.46C44.1736 120.384 44.4215 116.557 44.8919 112.46Z" fill="#80C066"/>
<path d="M92.8921 126.46C93.8821 126.79 94.8721 127.12 95.8921 127.46C95.8715 128.698 95.8508 129.935 95.8296 131.21C95.9804 133.454 95.9804 133.454 96.8921 135.46C99.1227 136.771 101.352 137.531 103.791 138.386C105.892 139.46 105.892 139.46 106.931 141.253C107.455 143.21 107.455 143.21 107.892 146.46C104.592 147.78 101.292 149.1 97.8921 150.46C97.8921 148.81 97.8921 147.16 97.8921 145.46C97.2321 145.46 96.5721 145.46 95.8921 145.46C95.8921 143.48 95.8921 141.5 95.8921 139.46C95.2321 139.13 94.5721 138.8 93.8921 138.46C93.478 135.737 93.478 135.737 93.2671 132.398C93.1923 131.293 93.1176 130.188 93.0405 129.05C92.9915 128.195 92.9426 127.341 92.8921 126.46Z" fill="#15130D"/>
<path d="M86.8921 118.46C88.2121 118.46 89.5321 118.46 90.8921 118.46C90.4573 123.896 89.3598 127.222 85.8921 131.46C81.6921 134.46 81.6921 134.46 78.8921 134.46C78.8921 133.47 78.8921 132.48 78.8921 131.46C77.2421 131.46 75.5921 131.46 73.8921 131.46C73.8921 131.13 73.8921 130.8 73.8921 130.46C75.1502 130.233 76.4083 130.006 77.7046 129.773C80.8383 128.988 81.6648 128.74 83.7671 126.148C84.1383 125.261 84.5096 124.374 84.8921 123.46C85.284 122.532 85.6758 121.604 86.0796 120.648C86.3477 119.926 86.6158 119.204 86.8921 118.46Z" fill="#E4BCA1"/>
<path d="M98.8921 72.4601C101.112 75.7898 102.276 79.1352 103.517 82.8976C103.747 83.566 103.976 84.2343 104.212 84.923C105.343 88.3166 105.892 90.8412 105.892 94.4601C102.955 93.7101 102.955 93.7101 99.8921 92.4601C98.4227 88.5255 98.782 84.3524 98.8296 80.2101C98.8341 79.465 98.8386 78.7199 98.8433 77.9523C98.855 76.1215 98.873 74.2908 98.8921 72.4601Z" fill="#7AB966"/>
<path d="M72.8921 110.46C73.5521 111.45 74.2121 112.44 74.8921 113.46C74.129 113.852 73.3658 114.244 72.5796 114.648C69.6449 116.627 68.4908 118.347 66.8921 121.46C66.5621 120.47 66.2321 119.48 65.8921 118.46C64.2421 118.46 62.5921 118.46 60.8921 118.46C60.8921 119.45 60.8921 120.44 60.8921 121.46C59.9021 121.79 58.9121 122.12 57.8921 122.46C57.8921 121.47 57.8921 120.48 57.8921 119.46C54.9221 118.965 54.9221 118.965 51.8921 118.46C51.5621 117.14 51.2321 115.82 50.8921 114.46C51.8821 114.79 52.8721 115.12 53.8921 115.46C61.5605 116.429 66.5519 114.748 72.8921 110.46Z" fill="#1B1B17"/>
<path d="M52.8921 73.4601C53.2221 73.4601 53.5521 73.4601 53.8921 73.4601C53.8921 79.4001 53.8921 85.3401 53.8921 91.4601C51.5821 92.4501 49.2721 93.4401 46.8921 94.4601C47.9737 86.9739 49.8051 80.3683 52.8921 73.4601Z" fill="#7FB669"/>
<path d="M98.8921 139.46C102.706 140.986 104.858 141.988 107.892 144.46C107.562 145.45 107.232 146.44 106.892 147.46C103.978 148.799 100.977 149.548 97.8921 150.46C98.2221 146.83 98.5521 143.2 98.8921 139.46Z" fill="#E08335"/>
<path d="M75.8921 86.2101C77.408 86.2023 77.408 86.2023 78.9546 86.1945C81.9625 86.4664 84.1652 87.1969 86.8921 88.4601C86.8921 89.1201 86.8921 89.7801 86.8921 90.4601C79.6321 90.4601 72.3721 90.4601 64.8921 90.4601C64.8921 89.8001 64.8921 89.1401 64.8921 88.4601C68.6974 86.6973 71.7081 86.1887 75.8921 86.2101Z" fill="#1F1C17"/>
<path d="M52.8921 139.46C53.2221 142.76 53.5521 146.06 53.8921 149.46C50.1572 148.962 48.0797 148.585 44.8921 146.46C46.4155 142.779 48.5726 139.46 52.8921 139.46Z" fill="#E38B3A"/>
<path d="M98.8921 82.4601C99.2221 82.4601 99.5521 82.4601 99.8921 82.4601C99.8921 85.4301 99.8921 88.4001 99.8921 91.4601C100.861 91.7488 101.831 92.0376 102.83 92.3351C105.892 93.4601 105.892 93.4601 106.892 95.4601C104.912 96.4501 104.912 96.4501 102.892 97.4601C101.387 96.5102 99.8879 95.55 98.3921 94.5851C97.5568 94.0514 96.7215 93.5177 95.8608 92.9679C95.2112 92.4703 94.5615 91.9727 93.8921 91.4601C93.8921 90.8001 93.8921 90.1401 93.8921 89.4601C94.5521 89.4601 95.2121 89.4601 95.8921 89.4601C95.8921 88.8001 95.8921 88.1401 95.8921 87.4601C96.8821 87.4601 97.8721 87.4601 98.8921 87.4601C98.8921 85.8101 98.8921 84.1601 98.8921 82.4601Z" fill="#1F251C"/>
<path d="M54.8921 85.4601C55.8821 86.7801 56.8721 88.1001 57.8921 89.4601C56.626 93.3989 54.1994 94.693 50.646 96.5773C49.7778 97.0143 49.7778 97.0143 48.8921 97.4601C48.0877 97.8726 47.2833 98.2851 46.4546 98.7101C45.939 98.9576 45.4233 99.2051 44.8921 99.4601C45.2221 97.4801 45.5521 95.5001 45.8921 93.4601C48.2021 92.8001 50.5121 92.1401 52.8921 91.4601C52.8921 90.4701 52.8921 89.4801 52.8921 88.4601C53.5521 88.4601 54.2121 88.4601 54.8921 88.4601C54.8921 87.4701 54.8921 86.4801 54.8921 85.4601Z" fill="#292922"/>
<path d="M58.8921 127.46C59.5521 127.46 60.2121 127.46 60.8921 127.46C60.9734 129.543 61.0314 131.626 61.0796 133.71C61.1144 134.87 61.1492 136.03 61.1851 137.226C60.8714 140.689 60.3534 142.052 57.8921 144.46C57.2321 144.46 56.5721 144.46 55.8921 144.46C55.7671 142.085 55.7671 142.085 55.8921 139.46C56.5521 138.8 57.2121 138.14 57.8921 137.46C58.3537 135.028 58.3537 135.028 58.5171 132.335C58.5919 131.425 58.6666 130.515 58.7437 129.577C58.7926 128.879 58.8416 128.18 58.8921 127.46Z" fill="#E76533"/>
<path d="M72.8921 110.46C73.5521 111.45 74.2121 112.44 74.8921 113.46C73.7474 114.048 73.7474 114.048 72.5796 114.648C69.6449 116.627 68.4908 118.347 66.8921 121.46C66.5621 120.47 66.2321 119.48 65.8921 118.46C65.2321 118.46 64.5721 118.46 63.8921 118.46C63.8921 117.47 63.8921 116.48 63.8921 115.46C66.8621 113.81 69.8321 112.16 72.8921 110.46Z" fill="#2A231C"/>
<path d="M52.8921 136.46C54.3704 139.417 53.9524 142.202 53.8921 145.46C53.5621 145.46 53.2321 145.46 52.8921 145.46C52.8921 143.48 52.8921 141.5 52.8921 139.46C48.9321 141.935 48.9321 141.935 44.8921 144.46C44.2321 143.8 43.5721 143.14 42.8921 142.46C50.2921 136.46 50.2921 136.46 52.8921 136.46Z" fill="#2A2313"/>
<path d="M94.8921 82.4601C94.2321 83.7801 93.5721 85.1001 92.8921 86.4601C89.5921 86.1301 86.2921 85.8001 82.8921 85.4601C82.8921 84.8001 82.8921 84.1401 82.8921 83.4601C86.9771 82.9154 90.7646 82.4601 94.8921 82.4601Z" fill="#252420"/>
<path d="M100.892 42.4601C102.212 43.1201 103.532 43.7801 104.892 44.4601C104.642 47.3351 104.642 47.3351 103.892 50.4601C101.912 51.4501 101.912 51.4501 99.8921 52.4601C100.222 49.1601 100.552 45.8601 100.892 42.4601Z" fill="#61AA4D"/>
<path d="M53.8921 32.4601C54.8821 32.7901 55.8721 33.1201 56.8921 33.4601C56.8921 36.4301 56.8921 39.4001 56.8921 42.4601C56.2321 42.4601 55.5721 42.4601 54.8921 42.4601C54.8921 44.1101 54.8921 45.7601 54.8921 47.4601C54.5621 47.4601 54.2321 47.4601 53.8921 47.4601C53.8921 42.5101 53.8921 37.5601 53.8921 32.4601Z" fill="#1C2919"/>
<path d="M65.892 27.46C66.222 28.12 66.552 28.78 66.892 29.46C66.2771 29.558 65.6622 29.656 65.0287 29.7569C59.8979 30.593 59.8979 30.593 55.8295 33.585C55.5201 34.2038 55.2107 34.8225 54.892 35.46C54.6758 32.7936 54.583 31.02 55.892 28.6475C59.1318 26.7239 62.1745 27.2772 65.892 27.46Z" fill="#050606"/>
<path d="M52.8921 136.46C54.5421 136.46 56.1921 136.46 57.8921 136.46C56.9021 141.08 55.9121 145.7 54.8921 150.46C54.2321 150.13 53.5721 149.8 52.8921 149.46C52.8921 145.17 52.8921 140.88 52.8921 136.46Z" fill="#17130E"/>
<path d="M69.8921 130.46C72.8621 130.79 75.8321 131.12 78.8921 131.46C78.8921 132.45 78.8921 133.44 78.8921 134.46C76.2521 134.46 73.6121 134.46 70.8921 134.46C70.5621 133.14 70.2321 131.82 69.8921 130.46Z" fill="#F5CFA8"/>
<path d="M55.8921 127.46C56.5521 127.46 57.2121 127.46 57.8921 127.46C59.4993 130.675 58.9496 133.896 58.8921 137.46C57.2421 137.46 55.5921 137.46 53.8921 137.46C53.8921 136.8 53.8921 136.14 53.8921 135.46C54.5521 135.46 55.2121 135.46 55.8921 135.46C55.8921 132.82 55.8921 130.18 55.8921 127.46Z" fill="#29251A"/>
<path d="M76.8921 31.4601C81.2098 31.9681 84.9251 32.6569 88.8921 34.4601C88.8921 35.1201 88.8921 35.7801 88.8921 36.4601C84.5743 35.9521 80.8591 35.2633 76.8921 33.4601C76.8921 32.8001 76.8921 32.1401 76.8921 31.4601Z" fill="#08090A"/>
<path d="M58.8921 93.46C57.9021 93.79 56.9121 94.12 55.8921 94.46C55.5621 95.45 55.2321 96.44 54.8921 97.46C52.9121 97.79 50.9321 98.12 48.8921 98.46C48.5621 97.8 48.2321 97.14 47.8921 96.46C49.1563 95.7604 50.4287 95.0757 51.7046 94.3975C52.4123 94.0147 53.12 93.6318 53.8491 93.2374C55.8921 92.46 55.8921 92.46 58.8921 93.46Z" fill="#ECCCAF"/>
<path d="M84.8921 130.46C84.8921 131.12 84.8921 131.78 84.8921 132.46C82.9121 133.12 80.9321 133.78 78.8921 134.46C78.8921 133.47 78.8921 132.48 78.8921 131.46C77.2421 131.46 75.5921 131.46 73.8921 131.46C73.8921 131.13 73.8921 130.8 73.8921 130.46C77.9101 129.619 80.9101 129.406 84.8921 130.46Z" fill="#D8B798"/>
<path d="M96.8921 136.46C100.627 136.958 102.704 137.335 105.892 139.46C105.892 140.45 105.892 141.44 105.892 142.46C101.955 141.148 99.6649 139.541 96.8921 136.46Z" fill="#100F0E"/>
<path d="M89.8921 122.46C91.5421 123.45 93.1921 124.44 94.8921 125.46C93.9021 125.955 93.9021 125.955 92.8921 126.46C92.5621 127.12 92.2321 127.78 91.8921 128.46C90.9021 128.955 90.9021 128.955 89.8921 129.46C89.2321 128.8 88.5721 128.14 87.8921 127.46C88.5521 125.81 89.2121 124.16 89.8921 122.46Z" fill="#241E17"/>
<path d="M73.5171 87.8975C74.7056 87.9994 75.8941 88.1012 77.1187 88.2061C78.0339 88.2899 78.9491 88.3737 79.8921 88.46C79.8921 88.79 79.8921 89.12 79.8921 89.46C74.9421 89.79 69.9921 90.12 64.8921 90.46C64.8921 89.8 64.8921 89.14 64.8921 88.46C67.836 86.9881 70.266 87.6107 73.5171 87.8975Z" fill="#34312B"/>
<path d="M60.8921 82.4601C61.2221 83.1201 61.5521 83.7801 61.8921 84.4601C62.4696 84.2538 63.0471 84.0476 63.6421 83.8351C65.8921 83.4601 65.8921 83.4601 69.8921 85.4601C66.5921 86.1201 63.2921 86.7801 59.8921 87.4601C60.2221 85.8101 60.5521 84.1601 60.8921 82.4601Z" fill="#332D28"/>
<path d="M49.8921 140.46C50.2221 141.45 50.5521 142.44 50.8921 143.46C49.5796 144.96 49.5796 144.96 47.8921 146.46C46.9021 146.46 45.9121 146.46 44.8921 146.46C46.2619 143.299 46.8812 142.467 49.8921 140.46Z" fill="#E8983D"/>
<path d="M44.8921 112.46C45.8821 112.955 45.8821 112.955 46.8921 113.46C46.8921 114.12 46.8921 114.78 46.8921 115.46C47.8821 115.79 48.8721 116.12 49.8921 116.46C47.8921 118.46 47.8921 118.46 44.8921 119.46C44.8921 117.15 44.8921 114.84 44.8921 112.46Z" fill="#74AC60"/>
<path d="M96.8921 94.4601C99.2671 94.7726 99.2671 94.7726 101.892 95.4601C102.552 96.4501 103.212 97.4401 103.892 98.4601C102.902 99.1201 101.912 99.7801 100.892 100.46C100.603 99.6557 100.315 98.8513 100.017 98.0226C99.1595 95.3274 99.1595 95.3274 96.8921 94.4601Z" fill="#EBCCAB"/>
</svg>
