<svg width="152" height="152" viewBox="0 0 152 152" fill="none" xmlns="http://www.w3.org/2000/svg">
<path d="M122.348 15.2891C137.115 27.51 148.552 45.1054 151.348 64.2891C153.074 87.8204 147.078 107.994 132.161 126.414C118.805 140.893 98.7135 150.678 79.036 151.527C57.077 152.048 38.8814 144.711 22.3485 130.289C8.17121 116.655 0.426602 98.8806 0.00498191 79.3289C-0.209869 56.0333 6.51115 37.884 22.7743 20.7305C49.8148 -5.58902 92.1457 -6.2242 122.348 15.2891Z" fill="#1C1812"/>
<path d="M122.348 15.2891C137.115 27.51 148.552 45.1054 151.348 64.2891C153.074 87.8204 147.078 107.994 132.161 126.414C118.805 140.893 98.7135 150.678 79.036 151.527C57.077 152.048 38.8814 144.711 22.3485 130.289C8.17121 116.655 0.426602 98.8806 0.00498191 79.3289C-0.209869 56.0333 6.51115 37.884 22.7743 20.7305C49.8148 -5.58902 92.1457 -6.2242 122.348 15.2891ZM68.3485 26.2891C67.1747 27.5533 66.0087 28.8248 64.8485 30.1016C59.7072 35.4023 53.2598 38.7782 46.3485 41.2891C42.5679 41.1175 39.7734 38.7405 36.661 36.7266C32.1971 34.1068 28.6901 32.1284 23.4422 32.6133C17.6605 34.4794 13.6868 39.3504 10.3485 44.2266C6.67715 51.4452 7.0037 62.1433 9.41099 69.7891C12.7442 76.8624 18.3005 82.0975 25.3485 85.2891C26.6685 85.2891 27.9885 85.2891 29.3485 85.2891C29.3485 87.9291 29.3485 90.5691 29.3485 93.2891C30.3385 93.2891 31.3285 93.2891 32.3485 93.2891C32.5754 94.1553 32.8022 95.0216 33.036 95.9141C34.6074 99.9548 36.3694 102.161 39.3485 105.289C40.0085 105.289 40.6685 105.289 41.3485 105.289C41.3485 105.949 41.3485 106.609 41.3485 107.289C43.0701 108.992 43.0701 108.992 45.2235 110.727C49.133 113.97 51.286 116.706 52.7235 121.602C54.7947 127.836 57.0297 131.831 62.8485 135.164C69.926 138.4 77.4232 138.535 84.786 136.039C90.7684 133.1 93.7904 130.502 96.3485 124.289C96.596 123.175 96.8435 122.062 97.0985 120.914C99.8334 112.983 107.156 107.425 113.114 101.781C115.5 99.1205 116.806 96.4917 118.348 93.2891C119.008 92.9591 119.668 92.6291 120.348 92.2891C120.348 89.9791 120.348 87.6691 120.348 85.2891C121.173 85.2478 121.998 85.2066 122.848 85.1641C129.152 83.5883 133.669 79.7414 137.223 74.3516C141.541 66.6461 142.913 58.1737 140.626 49.5703C138.223 43.1117 135.366 38.3008 129.536 34.4141C125.523 32.9976 122.471 32.1884 118.348 33.2891C115.462 34.9558 112.698 36.6599 110.004 38.6184C108.399 39.7344 108.399 39.7344 105.348 41.2891C102.653 40.6211 102.653 40.6211 100.348 39.2891C99.2966 38.8147 98.2447 38.3403 97.161 37.8516C94.3485 36.2891 94.3485 36.2891 92.3485 33.2891C91.3585 32.6291 90.3685 31.9691 89.3485 31.2891C90.3385 30.2991 91.3285 29.3091 92.3485 28.2891C88.9275 26.0084 87.6666 26.0698 83.661 26.1641C82.6671 26.1821 81.6733 26.2002 80.6493 26.2187C79.5104 26.2536 79.5104 26.2536 78.3485 26.2891C78.3485 24.9691 78.3485 23.6491 78.3485 22.2891C73.7681 22.2891 71.7372 23.4625 68.3485 26.2891Z" fill="#F0A134"/>
<path d="M73.3484 25.2891C73.8434 26.2791 73.8434 26.2791 74.3484 27.2891C72.9109 29.9141 72.9109 29.9141 71.3484 32.2891C72.1528 31.7941 72.9571 31.2991 73.7859 30.7891C78.1684 28.9438 81.6715 29.0085 86.3484 29.2891C84.6984 30.9391 83.0484 32.5891 81.3484 34.2891C83.9884 34.6191 86.6284 34.9491 89.3484 35.2891C88.3584 36.2791 87.3684 37.2691 86.3484 38.2891C89.34 39.4107 89.34 39.4107 92.5984 39.6016C95.9792 40.2214 97.242 40.6994 99.9734 42.4766C103.091 44.6531 103.091 44.6531 105.692 43.6328C108.667 42.1281 111.416 40.3987 114.223 38.6016C117.979 36.3942 119.892 35.3181 124.286 35.0391C127.887 36.5091 129.851 38.3372 132.348 41.2891C131.317 41.4334 130.286 41.5778 129.223 41.7266C123.869 43.2487 121.978 47.7249 119.348 52.2891C118.416 53.7922 117.479 55.2924 116.536 56.7891C116.138 57.4388 115.739 58.0884 115.329 58.7578C114.348 60.2891 114.348 60.2891 113.348 61.2891C113.41 68.4076 115.144 75.3858 116.727 82.2852C117.348 85.2891 117.348 85.2891 117.348 88.2891C116.688 88.2891 116.028 88.2891 115.348 88.2891C115.307 89.2791 115.266 90.2691 115.223 91.2891C114.243 98.2066 108.391 103.807 103.348 108.289C102.688 108.289 102.028 108.289 101.348 108.289C101.122 107.113 100.895 105.938 100.661 104.727C99.2595 99.111 96.269 95.1548 92.1609 91.1641C90.0823 89.0138 89.382 87.0667 88.3484 84.2891C89.1102 84.2027 89.8721 84.1163 90.657 84.0273C97.8644 83.0466 103.277 81.3062 109.348 77.2891C109.753 70.1109 109.753 62.3686 104.911 56.5664C103.326 55.0622 103.326 55.0622 100.661 54.7891C96.0207 55.4895 92.7799 57.0702 89.3484 60.2891C85.3931 66.6826 84.9546 75.9864 85.3484 83.2891C86.7584 86.5323 86.7584 86.5323 88.3484 89.2891C88.3484 89.9491 88.3484 90.6091 88.3484 91.2891C81.3274 92.877 75.441 93.4755 68.3484 92.2891C66.8283 92.0959 65.3074 91.9081 63.7859 91.7266C62.6515 91.5822 61.5171 91.4378 60.3484 91.2891C61.029 90.2991 61.7096 89.3091 62.4109 88.2891C66.015 81.0936 64.4965 71.9186 62.6218 64.3594C61.0557 60.2058 59.8398 58.6043 56.0359 56.1641C51.9427 55.1928 49.3883 55.1237 45.3484 56.2891C41.6988 59.687 40.4367 64.2236 40.2273 69.1211C40.2238 71.8469 40.2611 74.5648 40.3484 77.2891C46.835 81.4853 52.699 83.3311 60.3484 84.2891C59.1602 89.5698 56.627 92.5374 53.0046 96.3594C49.8138 100.077 49.0046 103.477 48.3484 108.289C44.7874 106.804 42.7482 104.804 40.2234 101.914C39.5402 101.143 38.857 100.372 38.1531 99.5781C35.1179 95.7283 34.075 93.2098 34.3484 88.2891C33.6884 88.2891 33.0284 88.2891 32.3484 88.2891C32.802 81.3594 34.0609 74.8881 35.825 68.1719C36.8366 62.6002 34.4686 59.5581 31.5359 54.8516C30.8488 53.7391 30.1617 52.6266 29.4539 51.4805C25.7691 45.2998 25.7691 45.2998 19.5984 42.4766C18.5259 42.4147 17.4534 42.3528 16.3484 42.2891C16.3484 42.9491 16.3484 43.6091 16.3484 44.2891C15.6884 43.9591 15.0284 43.6291 14.3484 43.2891C15.9921 41.5997 17.6627 39.9365 19.3484 38.2891C19.9465 37.6703 20.5446 37.0516 21.1609 36.4141C23.8837 35.0137 26.0012 35.0195 29.0007 35.4961C32.9973 36.846 36.2497 39.3242 39.6375 41.793C42.8806 43.5828 44.6933 43.7393 48.3484 43.2891C50.7535 42.3236 50.7535 42.3236 52.9109 40.9141C55.2358 39.4967 57.2918 38.3089 59.8679 37.4062C62.9136 36.0345 64.3527 34.3506 66.4734 31.7891C68.7281 29.0869 70.3959 27.2574 73.3484 25.2891Z" fill="#ED9B34"/>
<path d="M78.3483 22.2891C78.3483 23.6091 78.3483 24.9291 78.3483 26.2891C79.1076 26.2543 79.8668 26.2195 80.6491 26.1836C82.1399 26.143 82.1399 26.143 83.6608 26.1016C84.647 26.0668 85.6331 26.032 86.6491 25.9961C89.3483 26.2891 89.3483 26.2891 91.2038 27.8008C91.5815 28.2919 91.9592 28.783 92.3483 29.2891C91.3583 30.2791 90.3683 31.2691 89.3483 32.2891C89.9465 32.5572 90.5446 32.8253 91.1608 33.1016C93.3483 34.2891 93.3483 34.2891 94.6608 35.6641C97.3523 38.2559 99.936 39.7006 103.348 41.2891C107.059 40.2195 109.972 38.2965 113.161 36.1641C118.024 33.2201 120.717 32.3659 126.348 33.2891C133.153 35.919 136.666 40.457 139.598 46.9141C142.848 55.5597 142.127 63.9458 138.348 72.2891C135.503 77.6627 131.61 81.3114 126.348 84.2891C123.903 84.9937 121.913 85.1822 119.348 85.2891C119.348 86.9391 119.348 88.5891 119.348 90.2891C118.358 90.7841 118.358 90.7841 117.348 91.2891C117.226 90.4847 117.103 89.6803 116.977 88.8516C116.091 83.829 114.904 78.8821 113.721 73.9219C112.739 69.6469 111.966 65.707 112.348 61.2891C113.621 59.5757 114.971 57.9198 116.348 56.2891C117.891 53.5258 119.347 50.7287 120.786 47.9102C122.989 44.2148 124.878 41.6901 129.098 40.5391C129.841 40.4566 130.583 40.3741 131.348 40.2891C130.317 39.6084 129.286 38.9278 128.223 38.2266C127.643 37.8437 127.063 37.4609 126.466 37.0664C123.369 35.9293 121.513 36.4071 118.348 37.2891C115.493 38.9723 112.809 40.7457 110.116 42.6699C108.469 43.7695 108.469 43.7695 105.348 45.2891C102.63 44.6289 102.63 44.6289 100.348 43.2891C96.0103 40.8649 96.0103 40.8649 91.1608 40.2891C88.3483 40.2891 88.3483 40.2891 86.4733 38.9141C85.3483 37.2891 85.3483 37.2891 85.3483 35.2891C84.0283 34.9591 82.7083 34.6291 81.3483 34.2891C81.6783 33.2991 82.0083 32.3091 82.3483 31.2891C83.0083 30.9591 83.6683 30.6291 84.3483 30.2891C79.0266 29.9934 79.0266 29.9934 74.3483 32.2891C73.3583 32.2891 72.3683 32.2891 71.3483 32.2891C72.0083 30.3091 72.6683 28.3291 73.3483 26.2891C67.9637 30.7096 67.9637 30.7096 63.4733 35.9766C60.6353 39.065 57.5944 40.0141 53.6882 41.3945C51.1344 42.2721 51.1344 42.2721 48.3483 44.2891C43.3541 44.8843 40.9752 43.7679 36.9733 40.8516C32.1384 37.6349 29.1988 35.899 23.3483 36.2891C20.5865 37.6911 18.7146 39.2185 16.3483 41.2891C16.3483 41.6191 16.3483 41.9491 16.3483 42.2891C17.4002 42.1653 18.4521 42.0416 19.5358 41.9141C23.3483 42.2891 23.3483 42.2891 25.7858 44.4766C26.6781 45.7209 27.5242 46.9986 28.3483 48.2891C29.0251 49.3293 29.7018 50.3696 30.3991 51.4414C37.6747 62.8653 37.6747 62.8653 37.0029 67.8545C36.7882 68.7971 36.5735 69.7397 36.3522 70.7109C36.1234 71.7357 35.8946 72.7605 35.6589 73.8164C35.412 74.8799 35.1652 75.9434 34.9108 77.0391C34.6678 78.118 34.4249 79.197 34.1745 80.3086C33.5738 82.9707 32.9648 85.6306 32.3483 88.2891C33.0083 88.2891 33.6683 88.2891 34.3483 88.2891C34.8124 90.2072 34.8124 90.2072 35.2858 92.1641C37.9873 100.346 44.691 106.149 51.3483 111.289C51.0183 111.949 50.6883 112.609 50.3483 113.289C47.2069 111.457 44.1223 109.652 41.3483 107.289C41.3483 106.629 41.3483 105.969 41.3483 105.289C40.6883 105.289 40.0283 105.289 39.3483 105.289C37.8757 103.68 37.8757 103.68 36.2858 101.539C35.495 100.495 35.495 100.495 34.6882 99.4297C33.379 97.3381 32.788 95.6991 32.3483 93.2891C31.3583 93.2891 30.3683 93.2891 29.3483 93.2891C29.3483 90.6491 29.3483 88.0091 29.3483 85.2891C28.5233 85.2478 27.6983 85.2066 26.8483 85.1641C19.1332 83.2353 14.6558 77.9274 10.4772 71.4375C6.842 64.5192 6.97002 53.9135 9.18427 46.4844C12.2066 40.6223 17.0262 34.7817 23.4069 32.5781C30.16 31.8594 35.1584 35.952 40.4304 39.6367C43.0754 41.4697 43.0754 41.4697 45.3171 41.2227C46.3226 40.7605 46.3226 40.7605 47.3483 40.2891C48.3834 39.8559 49.4186 39.4228 50.4851 38.9766C57.6977 35.5488 63.1008 32.2887 68.4811 26.207C71.7396 22.8599 73.6466 22.2891 78.3483 22.2891Z" fill="#1C160D"/>
<path d="M55.3483 55.2891C59.3812 57.1914 60.9861 58.6397 63.1608 62.5391C65.2953 69.3671 66.7471 78.9553 64.5123 85.8789C63.4108 87.7891 63.4108 87.7891 61.3483 90.2891C70.5504 92.6481 79.0091 92.1562 88.3483 91.2891C87.6676 90.2578 86.987 89.2266 86.2858 88.1641C82.6015 80.8086 84.4129 71.8065 86.5983 64.1641C88.0363 60.383 89.8451 58.4252 93.3483 56.2891C94.3073 55.6703 94.3073 55.6703 95.2858 55.0391C98.1745 53.9886 100.298 53.9079 103.348 54.2891C107.933 57.3021 109.191 62.1748 110.348 67.2891C111.085 70.8654 111.502 73.7794 110.348 77.2891C105.358 81.8042 99.3842 84.449 92.6608 84.3516C91.4484 84.338 91.4484 84.338 90.2115 84.3242C89.5967 84.3126 88.9818 84.301 88.3483 84.2891C90.8874 89.1793 92.9428 91.9003 97.3483 95.2891C100.994 99.6885 100.668 103.85 100.348 109.289C99.3583 109.784 99.3583 109.784 98.3483 110.289C98.2387 109.614 98.1291 108.938 98.0162 108.242C97.7784 106.904 97.7784 106.904 97.5358 105.539C97.3849 104.657 97.2341 103.776 97.0787 102.867C96.2791 100.045 95.3817 98.3963 93.3483 96.2891C92.3583 96.2891 91.3683 96.2891 90.3483 96.2891C90.3483 95.6291 90.3483 94.9691 90.3483 94.2891C89.5026 94.4451 88.657 94.601 87.7858 94.7617C81.2383 95.8852 75.8721 96.4851 69.3483 95.2891C67.6829 95.0901 66.0162 94.9027 64.3483 94.7266C63.5851 94.6428 62.822 94.559 62.0358 94.4727C61.2004 94.3818 61.2004 94.3818 60.3483 94.2891C62.493 98.9807 65.3468 100.766 69.7037 103.176C70.2464 103.543 70.7891 103.911 71.3483 104.289C71.3483 104.949 71.3483 105.609 71.3483 106.289C66.042 105.665 62.5085 103.089 58.4733 99.7266C57.3483 98.2891 57.3483 98.2891 57.3483 95.2891C56.6883 95.2891 56.0283 95.2891 55.3483 95.2891C55.0389 96.0935 54.7295 96.8978 54.4108 97.7266C53.3483 100.289 53.3483 100.289 52.3483 101.289C52.1175 102.637 51.9367 103.993 51.7858 105.352C51.6414 106.651 51.497 107.95 51.3483 109.289C50.6883 109.289 50.0283 109.289 49.3483 109.289C48.6961 101.136 50.7576 97.3703 55.9733 91.1641C57.8738 88.8634 59.1991 87.0054 60.3483 84.2891C58.6467 84.4128 58.6467 84.4128 56.9108 84.5391C50.5532 84.5504 43.9526 81.6795 39.3483 77.2891C37.7665 70.1943 39.5962 63.3601 43.3483 57.2891C46.6762 53.248 50.6618 53.9888 55.3483 55.2891Z" fill="#18130F"/>
<path d="M110.348 28.2891C112.428 29.8837 114.378 31.5569 116.348 33.2891C115.107 37.0128 113.882 37.5667 110.598 39.6016C109.737 40.1546 108.876 40.7076 107.989 41.2774C105.348 42.2891 105.348 42.2891 102.755 41.5821C101.961 41.1554 101.167 40.7287 100.348 40.2891C99.6935 39.9591 99.0387 39.6291 98.364 39.2891C93.4595 36.5113 93.4595 36.5113 92.3484 34.2891C90.3317 33.1556 90.3317 33.1556 88.3484 32.2891C89.3384 30.9691 90.3284 29.6491 91.3484 28.2891C88.5839 26.9068 86.3023 27.1939 83.2234 27.2266C82.1277 27.2356 81.032 27.2447 79.9031 27.254C78.6385 27.2714 78.6385 27.2714 77.3484 27.2891C77.6784 25.6391 78.0084 23.9891 78.3484 22.2891C72.6447 23.7678 69.72 25.6852 65.7234 30.0391C60.1757 35.9055 53.9786 39.6272 46.3484 42.2891C42.8419 42.0691 40.4442 40.1936 37.5984 38.2266C36.7992 37.6788 36 37.1309 35.1765 36.5665C34.5732 36.1449 33.97 35.7234 33.3484 35.2891C41.9799 26.2979 51.2995 21.2511 63.3484 18.2891C63.9787 18.0983 64.6091 17.9075 65.2585 17.711C81.3228 14.4681 96.6622 20.2315 110.348 28.2891Z" fill="#F1BA44"/>
<path d="M15.3483 45.2891C16.0083 45.2891 16.6683 45.2891 17.3483 45.2891C17.0183 46.0316 16.6883 46.7741 16.3483 47.5391C14.945 52.8012 15.1906 57.8748 15.3483 63.2891C15.4463 62.4086 15.5442 61.5282 15.6452 60.6211C15.7947 59.4596 15.9442 58.2982 16.0983 57.1016C16.3071 55.3787 16.3071 55.3787 16.5202 53.6211C17.4597 49.8406 18.4973 47.9357 21.3483 45.2891C23.7702 44.4922 23.7702 44.4922 26.3483 45.2891C28.4831 47.6452 30.0121 50.2942 31.5983 53.0391C32.0443 53.7687 32.4903 54.4983 32.9499 55.25C36.3094 60.8492 37.8461 64.1524 36.3522 70.7109C36.1234 71.7357 35.8946 72.7605 35.6588 73.8164C35.412 74.8799 35.1651 75.9434 34.9108 77.0391C34.6678 78.118 34.4248 79.197 34.1745 80.3086C33.5737 82.9707 32.9647 85.6306 32.3483 88.2891C33.0083 88.2891 33.6683 88.2891 34.3483 88.2891C34.6577 89.5678 34.967 90.8466 35.2858 92.1641C37.9873 100.346 44.691 106.149 51.3483 111.289C51.0183 111.949 50.6883 112.609 50.3483 113.289C47.2068 111.457 44.1223 109.652 41.3483 107.289C41.3483 106.629 41.3483 105.969 41.3483 105.289C40.6883 105.289 40.0283 105.289 39.3483 105.289C37.8756 103.68 37.8756 103.68 36.2858 101.539C35.7586 100.843 35.2313 100.147 34.6881 99.4297C33.379 97.3381 32.7879 95.6991 32.3483 93.2891C31.3583 93.2891 30.3683 93.2891 29.3483 93.2891C29.3483 90.6491 29.3483 88.0091 29.3483 85.2891C28.5233 85.2478 27.6983 85.2066 26.8483 85.1641C19.1332 83.2353 14.6558 77.9274 10.4772 71.4375C8.0355 66.7907 8.22668 62.1857 8.28579 57.0391C8.2903 56.294 8.29481 55.5489 8.29946 54.7812C8.31119 52.9505 8.32913 51.1198 8.34829 49.2891C8.67829 49.9491 9.00829 50.6091 9.34829 51.2891C10.0083 51.2891 10.6683 51.2891 11.3483 51.2891C11.637 50.6703 11.9258 50.0516 12.2233 49.4141C13.3483 47.2891 13.3483 47.2891 15.3483 45.2891Z" fill="#18130E"/>
<path d="M134.348 79.2891C131.881 96.0759 125.348 110.409 111.895 121.27C99.3564 130.289 99.3564 130.289 94.3484 130.289C95.9287 119.49 99.1962 114.254 106.927 106.805C113.543 100.449 113.543 100.449 117.348 92.2891C118.008 92.2891 118.668 92.2891 119.348 92.2891C119.328 91.2166 119.307 90.1441 119.286 89.0391C120.348 85.2891 120.348 85.2891 122.313 84.0039C123.898 83.3286 125.501 82.6966 127.122 82.1133C129.796 81.1235 131.456 79.2891 134.348 79.2891Z" fill="#F3BB48"/>
<path d="M19.3484 82.2891C22.6484 83.2791 25.9484 84.2691 29.3484 85.2891C29.3484 87.9291 29.3484 90.5691 29.3484 93.2891C30.3384 93.2891 31.3284 93.2891 32.3484 93.2891C33.6648 94.8984 33.6648 94.8984 34.9109 97.0391C35.3247 97.7352 35.7385 98.4312 36.1648 99.1484C37.283 101.171 38.3337 103.213 39.3484 105.289C40.0084 105.289 40.6684 105.289 41.3484 105.289C41.3484 105.949 41.3484 106.609 41.3484 107.289C41.9349 107.546 42.5214 107.802 43.1257 108.066C48.5582 111.055 52.2755 116.234 54.2234 122.039C54.624 123.449 55.0005 124.865 55.3484 126.289C55.5366 127.037 55.7248 127.784 55.9187 128.555C56.0605 129.127 56.2023 129.699 56.3484 130.289C40.6795 124.413 28.5147 114.182 21.3875 98.8125C17.8529 90.2287 17.8529 90.2287 17.3484 86.2891C18.0084 84.9691 18.6684 83.6491 19.3484 82.2891Z" fill="#F2BD45"/>
<path d="M81.0984 118.289C85.1584 119.538 89.1292 119.933 93.3484 120.289C93.2791 123.754 93.1501 126.357 90.8289 129.055C84.644 134.419 79.1629 134.8 71.1023 134.641C64.9467 134.064 61.5938 131.607 57.4109 127.289C56.1798 124.972 55.7081 122.879 55.3484 120.289C56.2765 120.372 57.2046 120.454 58.1609 120.539C62.749 120.586 66.5325 118.84 70.7 117.066C74.6569 115.905 77.3171 116.914 81.0984 118.289Z" fill="#F4D077"/>
<path d="M103.348 57.2891C106.229 61.0261 106.929 64.4831 107.536 69.1016C107.694 70.263 107.853 71.4244 108.016 72.6211C108.181 73.9417 108.181 73.9417 108.348 75.2891C101.663 80.5815 96.0861 82.7259 87.3484 82.2891C86.8345 66.3577 86.8345 66.3577 90.7468 61.582C94.8831 58.0814 97.9406 56.6269 103.348 57.2891Z" fill="#CB8942"/>
<path d="M125.348 45.2891C127.161 45.4766 127.161 45.4766 129.348 46.2891C133.691 52.0717 133.273 58.37 132.348 65.2891C130.352 70.6133 127.903 74.2529 123.161 77.4141C120.348 78.2891 120.348 78.2891 117.348 78.2891C117.009 76.561 116.677 74.8315 116.348 73.1016C116.163 72.1386 115.977 71.1757 115.786 70.1836C114.976 64.8255 115.118 62.0323 118.098 57.4141C118.642 56.553 119.186 55.6919 119.747 54.8047C120.275 53.9745 120.804 53.1444 121.348 52.2891C122.15 50.9196 122.943 49.5454 123.723 48.1641C124.26 47.2153 124.796 46.2666 125.348 45.2891Z" fill="#A26C46"/>
<path d="M21.3484 45.2891C25.783 46.7835 26.9332 49.6956 28.9734 53.7266C30.6671 57.0364 32.2854 60.1946 34.3484 63.2891C34.1209 66.019 33.8001 68.5986 33.3484 71.2891C33.158 72.622 32.9702 73.9553 32.7859 75.2891C32.5693 76.7741 32.5693 76.7741 32.3484 78.2891C27.8834 78.0185 25.2027 76.1416 21.9968 73.2227C18.1321 68.6894 16.1832 62.9623 15.9109 57.0391C16.4831 52.1345 17.8495 48.788 21.3484 45.2891Z" fill="#9D6943"/>
<path d="M129.911 40.8516C133.348 41.2891 133.348 41.2891 135.223 42.4766C136.614 44.7169 136.95 46.6975 137.348 49.2891C137.678 49.9491 138.008 50.6091 138.348 51.2891C139.056 61.7746 138.692 68.4375 131.911 76.6016C129.594 79.2401 127.628 80.981 124.348 82.2891C121.598 82.4141 121.598 82.4141 119.348 82.2891C121.251 80.1752 123.068 78.814 125.473 77.2266C128.399 75.5976 128.399 75.5976 129.348 73.2891C128.688 72.9591 128.028 72.6291 127.348 72.2891C128.008 71.4228 128.668 70.5566 129.348 69.6641C132.544 64.1139 132.16 57.4755 131.348 51.2891C130.142 48.43 130.142 48.43 128.348 46.2891C127.358 45.9591 126.368 45.6291 125.348 45.2891C125.082 45.9955 124.815 46.7019 124.54 47.4297C123.294 50.4206 121.847 53.2006 120.286 56.0391C119.759 57.0033 119.231 57.9675 118.688 58.9609C117.348 61.2891 117.348 61.2891 116.348 62.2891C116.439 65.1559 116.586 67.9921 116.786 70.8516C116.838 71.6579 116.89 72.4642 116.944 73.2949C117.074 75.2933 117.211 77.2912 117.348 79.2891C116.688 79.2891 116.028 79.2891 115.348 79.2891C114.839 77.4165 114.342 75.5409 113.848 73.6641C113.57 72.6199 113.292 71.5758 113.005 70.5C112.35 67.2991 112.116 64.5447 112.348 61.2891C113.621 59.5757 114.971 57.9198 116.348 56.2891C117.891 53.5258 119.347 50.7287 120.786 47.9102C123.309 43.6778 124.912 41.4655 129.911 40.8516Z" fill="#1C150F"/>
<path d="M55.3484 95.2891C56.0084 95.2891 56.6684 95.2891 57.3484 95.2891C57.9052 96.3719 57.9052 96.3719 58.4734 97.4766C61.8835 102.592 67.6156 105.318 73.3484 107.289C73.3484 109.599 73.3484 111.909 73.3484 114.289C68.3745 116.385 63.831 118.195 58.4109 118.539C55.111 117.192 54.5961 116.693 52.9109 113.727C51.0881 109.316 50.7367 106.029 51.3484 101.289C53.2234 97.7891 53.2234 97.7891 55.3484 95.2891Z" fill="#F3D076"/>
<path d="M92.3484 95.2891C97.2234 100.039 97.2234 100.039 98.3484 102.289C98.3057 108.317 97.8058 113.832 93.3484 118.289C86.6305 119.147 82.1194 116.54 76.3484 113.289C76.3484 111.639 76.3484 109.989 76.3484 108.289C77.252 107.853 78.1557 107.418 79.0867 106.969C80.2785 106.368 81.4699 105.767 82.6609 105.164C83.8326 104.584 85.0044 104.004 86.2117 103.406C89.7247 101.035 90.8201 99.1843 92.3484 95.2891Z" fill="#F4D076"/>
<path d="M47.3484 57.2891C51.9354 57.3643 54.3744 57.6538 58.2234 60.1641C62.6293 66.6433 62.6363 74.6597 62.3484 82.2891C59.4734 82.4141 59.4734 82.4141 56.3484 82.2891C55.6884 81.6291 55.0284 80.9691 54.3484 80.2891C55.3384 79.6291 56.3284 78.9691 57.3484 78.2891C57.7867 76.3845 57.7867 76.3845 57.6609 74.2891C57.6551 73.2372 57.6551 73.2372 57.6492 72.1641C57.4975 70.0474 57.4975 70.0474 55.3484 68.2891C52.773 68.4541 52.773 68.4541 50.3484 69.2891C48.5294 72.927 49.0958 76.5314 50.3484 80.2891C46.9453 79.2303 44.3349 78.28 41.3484 76.2891C42.1539 62.4835 42.1539 62.4835 47.3484 57.2891Z" fill="#CA883E"/>
<path d="M60.3484 94.2891C64.8619 94.1951 69.2483 94.2028 73.7234 94.8516C77.2943 95.5447 77.2943 95.5447 80.3484 94.2891C81.9096 94.2217 83.4734 94.204 85.0359 94.2266C86.2483 94.2401 86.2483 94.2401 87.4851 94.254C88.4074 94.2714 88.4074 94.2714 89.3484 94.2891C89.0547 97.5417 88.7858 98.9093 86.2742 101.09C77.0033 106.453 77.0033 106.453 72.3484 105.289C68.012 103.067 63.8087 100.749 60.3484 97.2891C60.3484 96.2991 60.3484 95.3091 60.3484 94.2891Z" fill="#CD647B"/>
<path d="M30.3484 33.289C32.8174 34.3819 34.2743 35.4808 36.3484 37.289C36.3484 37.949 36.3484 38.609 36.3484 39.289C35.6884 38.9797 35.0284 38.6703 34.3484 38.3515C30.6812 37.0528 27.2501 35.9578 23.3484 36.289C20.5628 37.6608 18.72 39.2139 16.3484 41.289C16.3484 41.619 16.3484 41.949 16.3484 42.289C17.4621 42.2272 18.5759 42.1653 19.7234 42.1015C21.5178 42.1944 21.5178 42.1944 23.3484 42.289C24.3384 43.774 24.3384 43.774 25.3484 45.289C24.5853 45.4953 23.8221 45.7015 23.0359 45.914C19.308 47.8213 18.7343 49.3392 17.3484 53.289C16.8298 56.9494 16.5388 60.5981 16.3484 64.289C15.6884 63.959 15.0284 63.629 14.3484 63.289C13.7949 50.6193 13.7949 50.6193 17.3484 45.289C13.8246 47.8351 13.8246 47.8351 11.3484 51.289C10.6884 51.289 10.0284 51.289 9.34839 51.289C9.97924 44.6651 12.8937 40.5023 17.5359 35.914C21.5828 32.614 25.3017 32.1919 30.3484 33.289Z" fill="#17110C"/>
<path d="M15.3484 45.2891C16.0084 45.2891 16.6684 45.2891 17.3484 45.2891C17.0184 46.0316 16.6884 46.7741 16.3484 47.5391C14.2257 55.4993 14.2898 63.9737 18.3484 71.2891C22.006 76.8278 25.2124 78.4171 31.3484 80.2891C31.3484 80.9491 31.3484 81.6091 31.3484 82.2891C26.1244 82.8221 23.0578 82.2511 19.0515 79.0117C12.5264 72.4118 10.608 65.463 9.67261 56.3906C9.41288 53.906 9.03745 51.6802 8.34839 49.2891C8.67839 49.9491 9.00839 50.6091 9.34839 51.2891C10.0084 51.2891 10.6684 51.2891 11.3484 51.2891C11.6371 50.6703 11.9259 50.0516 12.2234 49.4141C13.3484 47.2891 13.3484 47.2891 15.3484 45.2891Z" fill="#5F3B24"/>
<path d="M126.348 41.2891C132.774 40.9253 132.774 40.9253 135.223 42.4766C136.614 44.7169 136.95 46.6975 137.348 49.2891C137.678 49.9491 138.008 50.6091 138.348 51.2891C139.056 61.7746 138.692 68.4375 131.911 76.6016C129.594 79.2401 127.628 80.981 124.348 82.2891C121.598 82.4141 121.598 82.4141 119.348 82.2891C121.192 80.2408 122.816 79.0148 125.223 77.6016C130.015 74.0558 133.283 69.2224 134.348 63.2891C134.884 56.0826 134.865 49.7154 131.348 43.2891C128.778 42.1547 128.778 42.1547 126.348 42.2891C126.348 41.9591 126.348 41.6291 126.348 41.2891Z" fill="#623720"/>
<path d="M48.3483 102.289C48.6783 102.289 49.0083 102.289 49.3483 102.289C49.3483 104.599 49.3483 106.909 49.3483 109.289C50.3383 109.289 51.3283 109.289 52.3483 109.289C52.9361 110.96 52.9361 110.96 53.5358 112.664C54.7731 115.609 55.0844 116.148 58.0358 117.727C58.7989 117.912 59.562 118.098 60.3483 118.289C60.3483 118.949 60.3483 119.609 60.3483 120.289C61.0083 120.619 61.6683 120.949 62.3483 121.289C60.0383 120.959 57.7283 120.629 55.3483 120.289C57.6383 125.919 59.6396 129.372 64.985 132.402C68.6179 133.765 72.1732 133.899 76.028 133.953C76.7937 134.064 77.5594 134.175 78.3483 134.289C79.0083 135.279 79.6683 136.269 80.3483 137.289C71.9591 137.938 65.2308 137.502 58.3483 132.289C54.4635 127.993 52.6331 122.856 51.0241 117.367C50.3228 115.211 49.4078 113.291 48.3483 111.289C49.0083 111.289 49.6683 111.289 50.3483 111.289C49.8327 110.918 49.317 110.547 48.7858 110.164C47.3483 108.289 47.3483 108.289 47.6608 105.102C47.8877 104.173 48.1145 103.245 48.3483 102.289Z" fill="#17120F"/>
<path d="M134.348 29.2891C138.679 33.178 141.211 37.1588 143.786 42.3516C144.162 43.0586 144.537 43.7657 144.925 44.4941C147.521 49.6624 147.521 49.6624 146.696 52.6602C145.348 54.2891 145.348 54.2891 143.348 56.2891C142.701 58.8597 142.701 58.8597 142.348 61.2891C142.018 61.2891 141.688 61.2891 141.348 61.2891C141.239 60.4202 141.129 59.5514 141.016 58.6562C140.173 52.5295 139.178 47.8129 136.348 42.2891C136.661 38.9141 136.661 38.9141 137.348 36.2891C136.688 35.9591 136.028 35.6291 135.348 35.2891C135.348 34.2991 135.348 33.3091 135.348 32.2891C135.018 31.2991 134.688 30.3091 134.348 29.2891Z" fill="#E89A2E"/>
<path d="M15.3484 32.2891C16.3384 33.6091 17.3284 34.9291 18.3484 36.2891C17.9501 36.7248 17.5517 37.1605 17.1414 37.6094C16.6116 38.2049 16.0817 38.8005 15.5359 39.4141C14.7528 40.2842 14.7528 40.2842 13.9539 41.1719C10.1582 46.1773 8.9553 50.4225 8.66089 56.6641C8.59515 57.9093 8.5294 59.1545 8.46167 60.4375C8.42429 61.3785 8.3869 62.3195 8.34839 63.2891C8.01839 63.2891 7.68839 63.2891 7.34839 63.2891C7.01839 60.6491 6.68839 58.0091 6.34839 55.2891C4.36839 56.2791 4.36839 56.2791 2.34839 57.2891C2.90122 51.8798 4.82707 47.7913 7.28589 43.0391C7.64618 42.3198 8.00647 41.6005 8.37769 40.8594C9.82569 38.0114 11.0747 35.5627 13.3484 33.2891C13.6784 33.6191 14.0084 33.9491 14.3484 34.2891C14.6784 33.6291 15.0084 32.9691 15.3484 32.2891Z" fill="#E0982C"/>
<path d="M129.348 72.2891C129.348 73.2791 129.348 74.2691 129.348 75.2891C126.571 77.8354 123.79 79.7596 120.348 81.2891C126.734 81.1294 130.008 77.5078 134.348 73.2891C134.678 74.6091 135.008 75.9291 135.348 77.2891C130.236 81.9743 126.578 85.2891 119.348 85.2891C119.348 86.9391 119.348 88.5891 119.348 90.2891C118.688 90.6191 118.028 90.9491 117.348 91.2891C117.018 87.3291 116.688 83.3691 116.348 79.2891C118.855 78.0521 121.361 76.8151 123.868 75.5781C126.494 74.2704 126.494 74.2704 129.348 72.2891Z" fill="#0F0C0C"/>
<path d="M51.3484 67.2891C56.0984 68.0391 56.0984 68.0391 58.3484 70.2891C58.6141 72.1641 58.6141 72.1641 58.5984 74.2891C58.6036 74.9903 58.6088 75.6916 58.6141 76.4141C58.3484 78.2891 58.3484 78.2891 56.3484 80.2891C53.5386 80.6493 51.966 80.6724 49.5359 79.1641C47.7889 76.4055 47.9564 74.4907 48.3484 71.2891C49.8484 68.9141 49.8484 68.9141 51.3484 67.2891Z" fill="#110E0D"/>
<path d="M97.4733 67.3516C99.3483 68.2891 99.3483 68.2891 101.348 71.2891C100.895 77.7419 100.895 77.7419 98.3483 80.2891C95.0511 79.9594 93.7256 79.6664 91.3483 77.2891C90.8664 73.5951 90.9001 71.9133 93.0983 68.8516C95.3483 67.2891 95.3483 67.2891 97.4733 67.3516Z" fill="#181611"/>
<path d="M80.3484 28.2891C82.9884 28.2891 85.6284 28.2891 88.3484 28.2891C88.4721 29.2172 88.4721 29.2172 88.5984 30.1641C89.1412 32.4426 89.1412 32.4426 91.2234 33.3516C92.2753 33.8156 92.2753 33.8156 93.3484 34.2891C94.3694 35.2676 95.369 36.2689 96.3484 37.2891C97.668 38.3071 98.9985 39.3115 100.348 40.2891C99.6884 40.9491 99.0284 41.6091 98.3484 42.2891C97.8121 41.9591 97.2759 41.6291 96.7234 41.2891C94.3073 40.0822 94.3073 40.0822 91.2859 40.3516C88.3484 40.2891 88.3484 40.2891 86.4734 38.9141C85.3484 37.2891 85.3484 37.2891 85.3484 35.2891C84.0284 34.9591 82.7084 34.6291 81.3484 34.2891C81.6784 33.2991 82.0084 32.3091 82.3484 31.2891C83.0084 30.9591 83.6684 30.6291 84.3484 30.2891C83.0284 29.6291 81.7084 28.9691 80.3484 28.2891Z" fill="#221A11"/>
<path d="M15.3484 45.2891C16.0084 45.2891 16.6684 45.2891 17.3484 45.2891C17.039 46.0728 16.7296 46.8566 16.4109 47.6641C15.2674 51.5653 15.0222 55.0739 14.8875 59.1172C14.3484 61.2891 14.3484 61.2891 12.3093 62.5859C11.6622 62.818 11.0151 63.05 10.3484 63.2891C10.2878 62.6136 10.2272 61.9381 10.1648 61.2422C10.081 60.3502 9.99722 59.4581 9.91089 58.5391C9.82968 57.6573 9.74847 56.7756 9.66479 55.8672C9.386 53.5956 8.96048 51.4905 8.34839 49.2891C8.67839 49.9491 9.00839 50.6091 9.34839 51.2891C10.0084 51.2891 10.6684 51.2891 11.3484 51.2891C11.6371 50.6703 11.9259 50.0516 12.2234 49.4141C13.3484 47.2891 13.3484 47.2891 15.3484 45.2891Z" fill="#513521"/>
<path d="M94.3484 119.289C94.6784 119.289 95.0084 119.289 95.3484 119.289C95.6713 123.325 95.5847 125.807 93.7859 129.477C90.9242 132.778 88.5485 135.073 84.3484 136.289C79.661 136.607 75.0382 136.523 70.3484 136.289C70.3484 135.959 70.3484 135.629 70.3484 135.289C71.145 135.179 71.9417 135.07 72.7625 134.957C83.1453 133.44 83.1453 133.44 91.3484 127.289C92.3347 125.258 92.3347 125.258 93.0359 123.102C93.2873 122.386 93.5386 121.671 93.7976 120.934C93.9794 120.391 94.1611 119.848 94.3484 119.289Z" fill="#17120C"/>
<path d="M48.3483 102.289C48.6783 102.289 49.0083 102.289 49.3483 102.289C49.3483 104.599 49.3483 106.909 49.3483 109.289C50.3383 109.289 51.3283 109.289 52.3483 109.289C52.9361 110.96 52.9361 110.96 53.5358 112.664C54.7731 115.609 55.0844 116.148 58.0358 117.727C58.7989 117.912 59.562 118.098 60.3483 118.289C60.3483 118.949 60.3483 119.609 60.3483 120.289C61.0083 120.619 61.6683 120.949 62.3483 121.289C59.3783 120.959 56.4083 120.629 53.3483 120.289C53.0183 120.949 52.6883 121.609 52.3483 122.289C52.0595 121.217 51.7708 120.144 51.4733 119.039C50.6201 116.195 49.7846 113.854 48.3483 111.289C49.0083 111.289 49.6683 111.289 50.3483 111.289C49.8327 110.918 49.317 110.547 48.7858 110.164C47.3483 108.289 47.3483 108.289 47.6608 105.102C47.8877 104.173 48.1145 103.245 48.3483 102.289Z" fill="#251F18"/>
<path d="M75.3484 23.2891C75.73 23.7841 76.1115 24.2791 76.5046 24.7891C79.0466 26.8571 80.6268 26.4969 83.8484 26.2891C88.9443 25.9603 88.9443 25.9603 91.1921 27.7891C91.5737 28.2841 91.9553 28.7791 92.3484 29.2891C91.0284 29.6191 89.7084 29.9491 88.3484 30.2891C88.3484 29.6291 88.3484 28.9691 88.3484 28.2891C86.5761 28.5719 84.8056 28.8657 83.0359 29.1641C82.0498 29.3265 81.0636 29.4889 80.0476 29.6562C77.1478 30.1699 77.1478 30.1699 74.3484 32.2891C73.3584 32.2891 72.3684 32.2891 71.3484 32.2891C72.5474 29.2059 73.8254 26.2263 75.3484 23.2891Z" fill="#1C160F"/>
<path d="M96.3484 94.289C99.6552 97.8502 100.576 100.42 100.598 105.164C100.535 106.54 100.458 107.916 100.348 109.289C99.6884 109.619 99.0284 109.949 98.3484 110.289C98.2388 109.614 98.1292 108.938 98.0164 108.242C97.8578 107.35 97.6992 106.458 97.5359 105.539C97.3851 104.657 97.2342 103.776 97.0789 102.867C96.2793 100.045 95.3818 98.3963 93.3484 96.289C92.3584 96.289 91.3684 96.289 90.3484 96.289C90.3484 95.629 90.3484 94.969 90.3484 94.289C88.0384 93.959 85.7284 93.629 83.3484 93.289C83.3484 92.959 83.3484 92.629 83.3484 92.289C88.6278 90.8726 91.6218 91.5756 96.3484 94.289Z" fill="#100C0C"/>
<path d="M62.3484 72.2891C63.0084 72.2891 63.6684 72.2891 64.3484 72.2891C65.5395 76.0114 65.6834 79.4028 65.3484 83.2891C63.3484 86.7266 63.3484 86.7266 61.3484 89.2891C60.3584 88.9591 59.3684 88.6291 58.3484 88.2891C59.0084 86.9691 59.6684 85.6491 60.3484 84.2891C58.0384 83.9591 55.7284 83.6291 53.3484 83.2891C53.3484 82.9591 53.3484 82.6291 53.3484 82.2891C56.3184 82.2891 59.2884 82.2891 62.3484 82.2891C62.3484 78.9891 62.3484 75.6891 62.3484 72.2891Z" fill="#100D0C"/>
<path d="M17.3484 42.2891C20.2234 42.1016 20.2234 42.1016 23.3484 42.2891C24.0084 43.2791 24.6684 44.2691 25.3484 45.2891C24.5853 45.4953 23.8222 45.7016 23.0359 45.9141C19.308 47.8214 18.7343 49.3393 17.3484 53.2891C16.8298 56.9494 16.5389 60.5981 16.3484 64.2891C15.6884 63.9591 15.0284 63.6291 14.3484 63.2891C13.8934 55.592 14.0107 50.7256 18.3484 44.2891C18.0184 43.6291 17.6884 42.9691 17.3484 42.2891Z" fill="#0B0908"/>
<path d="M53.3484 55.2891C58.8029 56.7436 58.8029 56.7436 61.0984 59.0391C63.5186 63.3954 64.6418 67.3019 64.3484 72.2891C63.6884 72.2891 63.0284 72.2891 62.3484 72.2891C62.0184 72.9491 61.6884 73.6091 61.3484 74.2891C61.2504 73.5414 61.1525 72.7937 61.0515 72.0234C60.2398 65.981 60.2398 65.981 57.4109 60.7266C55.7375 59.5602 54.0456 58.4205 52.3484 57.2891C52.6784 56.6291 53.0084 55.9691 53.3484 55.2891Z" fill="#1E1510"/>
<path d="M100.348 102.289C100.678 102.289 101.008 102.289 101.348 102.289C102.274 107.008 102.665 110.003 100.348 114.289C99.8328 114.928 99.3171 115.568 98.7859 116.227C96.9557 118.852 96.7057 121.144 96.3484 124.289C95.0284 122.969 93.7084 121.649 92.3484 120.289C92.6165 119.794 92.8846 119.299 93.1609 118.789C94.7871 115.365 96.0435 111.848 97.3484 108.289C98.0084 108.619 98.6684 108.949 99.3484 109.289C99.6784 106.979 100.008 104.669 100.348 102.289Z" fill="#292218"/>
<path d="M88.3484 90.2891C88.3484 91.6224 88.3484 92.9557 88.3484 94.2891C81.6619 95.7763 76.1095 96.5647 69.3484 95.2891C69.6784 94.2991 70.0084 93.3091 70.3484 92.2891C71.7406 92.3509 71.7406 92.3509 73.1609 92.4141C78.3216 92.4353 83.31 91.3095 88.3484 90.2891Z" fill="#261C14"/>
<path d="M126.348 41.2891C132.774 40.9253 132.774 40.9253 135.223 42.4766C136.628 44.7394 136.964 46.6626 137.348 49.2891C137.636 50.2269 137.636 50.2269 137.93 51.1836C138.646 54.7884 137.338 57.7966 136.348 61.2891C136.018 61.2891 135.688 61.2891 135.348 61.2891C135.311 60.66 135.274 60.0309 135.235 59.3828C134.784 53.5119 134.037 48.5697 131.348 43.2891C128.778 42.1547 128.778 42.1547 126.348 42.2891C126.348 41.9591 126.348 41.6291 126.348 41.2891Z" fill="#6B4421"/>
<path d="M87.3484 73.2891C88.0084 73.9491 88.6684 74.6091 89.3484 75.2891C90.0084 74.6291 90.6684 73.9691 91.3484 73.2891C91.5753 74.0728 91.8021 74.8566 92.0359 75.6641C93.1296 78.5078 93.1296 78.5078 95.9734 79.6016C97.149 79.9419 97.149 79.9419 98.3484 80.2891C98.3484 80.6191 98.3484 80.9491 98.3484 81.2891C94.7184 81.6191 91.0884 81.9491 87.3484 82.2891C87.3484 79.3191 87.3484 76.3491 87.3484 73.2891Z" fill="#C7853C"/>
<path d="M76.3484 113.289C77.3268 113.705 77.3268 113.705 78.325 114.129C82.9914 116.063 87.2786 117.755 92.3484 118.289C92.3484 118.949 92.3484 119.609 92.3484 120.289C85.4449 120.8 80.6001 119.159 74.3484 116.289C75.0084 115.959 75.6684 115.629 76.3484 115.289C76.3484 114.629 76.3484 113.969 76.3484 113.289Z" fill="#171514"/>
<path d="M80.3484 28.2891C82.9884 28.2891 85.6284 28.2891 88.3484 28.2891C88.4515 28.9078 88.5546 29.5266 88.6609 30.1641C89.2236 32.6543 89.2236 32.6543 92.3484 34.2891C84.9198 35.5748 84.9198 35.5748 81.3484 34.2891C81.6784 33.2991 82.0084 32.3091 82.3484 31.2891C83.0084 30.9591 83.6684 30.6291 84.3484 30.2891C83.0284 29.6291 81.7084 28.9691 80.3484 28.2891Z" fill="#4D361B"/>
<path d="M36.3484 99.2891C39.743 100.747 41.8709 102.627 44.4109 105.289C46.6849 107.663 48.5936 109.453 51.3484 111.289C51.0184 111.949 50.6884 112.609 50.3484 113.289C47.2069 111.457 44.1224 109.652 41.3484 107.289C41.3484 106.629 41.3484 105.969 41.3484 105.289C40.6884 105.289 40.0284 105.289 39.3484 105.289C36.3484 101.828 36.3484 101.828 36.3484 99.2891Z" fill="#16110F"/>
<path d="M132.348 53.2891C132.678 53.2891 133.008 53.2891 133.348 53.2891C133.348 55.9291 133.348 58.5691 133.348 61.2891C134.008 61.2891 134.668 61.2891 135.348 61.2891C133.491 69.8605 133.491 69.8605 130.348 73.2891C129.358 72.9591 128.368 72.6291 127.348 72.2891C128.307 70.9278 128.307 70.9278 129.286 69.5391C132.232 64.4903 132.161 59.0064 132.348 53.2891Z" fill="#1C1712"/>
<path d="M63.3484 132.289C65.8094 132.544 68.2658 132.817 70.7234 133.102C71.4221 133.172 72.1207 133.242 72.8406 133.314C74.6917 133.537 76.5238 133.906 78.3484 134.289C79.3384 135.774 79.3384 135.774 80.3484 137.289C78.4529 137.343 76.5569 137.382 74.6609 137.414C73.6051 137.437 72.5494 137.46 71.4617 137.484C68.3259 137.288 66.1719 136.62 63.3484 135.289C63.3484 134.299 63.3484 133.309 63.3484 132.289Z" fill="#362815"/>
<path d="M112.348 99.2891C112.348 102.289 112.348 102.289 110.231 104.77C109.321 105.663 108.411 106.556 107.473 107.477C106.568 108.378 105.664 109.279 104.731 110.207C102.348 112.289 102.348 112.289 100.348 112.289C101.814 108.892 103.715 106.682 106.348 104.102C107.4 103.059 107.4 103.059 108.473 101.996C110.348 100.289 110.348 100.289 112.348 99.2891Z" fill="#06060C"/>
<path d="M102.348 55.2891C100.398 57.2395 98.9145 58.1402 96.4734 59.3516C95.7953 59.6932 95.1173 60.0348 94.4187 60.3867C92.4065 61.2637 90.4893 61.8234 88.3484 62.2891C89.3591 59.6245 90.2883 58.3371 92.5359 56.5391C95.9725 55.0117 98.6274 55.0702 102.348 55.2891Z" fill="#100E0D"/>
<path d="M37.3483 64.2891C39.3483 66.2891 39.3483 66.2891 39.5436 68.8906C39.5204 69.8884 39.4972 70.8861 39.4733 71.9141C39.4552 72.917 39.4372 73.9198 39.4186 74.9531C39.3838 76.1094 39.3838 76.1094 39.3483 77.2891C37.2858 75.7891 37.2858 75.7891 35.3483 73.2891C35.2369 70.4208 35.7411 68.1381 36.3483 65.2891C36.6783 64.9591 37.0083 64.6291 37.3483 64.2891Z" fill="#C68332"/>
<path d="M9.34841 52.2891C9.67841 52.2891 10.0084 52.2891 10.3484 52.2891C10.6784 57.2391 11.0084 62.1891 11.3484 67.2891C10.6884 67.2891 10.0284 67.2891 9.34841 67.2891C7.97588 64.544 8.21612 62.2858 8.22341 59.2266C8.22083 58.1425 8.21825 57.0584 8.2156 55.9414C8.34841 53.2891 8.34841 53.2891 9.34841 52.2891Z" fill="#080707"/>
<path d="M128.348 75.2891C129.008 75.6191 129.668 75.9491 130.348 76.2891C129.385 78.6983 128.696 80.0491 126.536 81.5391C124.025 82.3999 121.985 82.4355 119.348 82.2891C121.972 79.3742 125.067 77.404 128.348 75.2891Z" fill="#55301C"/>
<path d="M87.3484 61.2891C88.3384 61.9491 89.3284 62.6091 90.3484 63.2891C89.6884 66.5891 89.0284 69.8891 88.3484 73.2891C87.3584 73.2891 86.3684 73.2891 85.3484 73.2891C85.4901 71.8511 85.6369 70.4137 85.7859 68.9766C85.8671 68.1761 85.9483 67.3755 86.032 66.5508C86.3484 64.2891 86.3484 64.2891 87.3484 61.2891Z" fill="#291F14"/>
<path d="M15.3484 45.2891C16.0084 45.2891 16.6684 45.2891 17.3484 45.2891C16.5359 48.2266 16.5359 48.2266 15.3484 51.2891C14.3584 51.6191 13.3684 51.9491 12.3484 52.2891C11.3584 53.7741 11.3584 53.7741 10.3484 55.2891C9.68839 54.6291 9.02839 53.9691 8.34839 53.2891C8.72339 51.1641 8.72339 51.1641 9.34839 49.2891C9.34839 49.9491 9.34839 50.6091 9.34839 51.2891C10.0084 51.2891 10.6684 51.2891 11.3484 51.2891C11.6371 50.6703 11.9259 50.0516 12.2234 49.4141C13.3484 47.2891 13.3484 47.2891 15.3484 45.2891Z" fill="#402C1C"/>
<path d="M52.3484 54.2891C52.6784 55.2791 53.0084 56.2691 53.3484 57.2891C51.6778 57.7532 51.6778 57.7532 49.9734 58.2266C46.5539 59.1124 46.5539 59.1124 44.3484 60.2891C44.0184 59.2991 43.6884 58.3091 43.3484 57.2891C46.4203 54.5585 48.2525 53.9478 52.3484 54.2891Z" fill="#110F0C"/>
<path d="M48.3483 102.289C48.6783 102.289 49.0083 102.289 49.3483 102.289C49.3483 104.599 49.3483 106.909 49.3483 109.289C50.3383 109.289 51.3283 109.289 52.3483 109.289C52.6783 111.269 53.0083 113.249 53.3483 115.289C52.3583 115.289 51.3683 115.289 50.3483 115.289C49.6883 113.969 49.0283 112.649 48.3483 111.289C49.0083 111.289 49.6683 111.289 50.3483 111.289C49.8327 110.918 49.317 110.547 48.7858 110.164C47.3483 108.289 47.3483 108.289 47.6608 105.102C47.8877 104.173 48.1145 103.245 48.3483 102.289Z" fill="#372717"/>
<path d="M80.3484 26.2891C81.7849 26.2077 83.2228 26.1497 84.6609 26.1016C85.8617 26.0494 85.8617 26.0494 87.0867 25.9961C89.8269 26.351 90.6401 27.1827 92.3484 29.2891C91.0284 29.6191 89.7084 29.9491 88.3484 30.2891C88.3484 29.6291 88.3484 28.9691 88.3484 28.2891C85.3784 28.2891 82.4084 28.2891 79.3484 28.2891C79.6784 27.6291 80.0084 26.9691 80.3484 26.2891Z" fill="#0F0C0B"/>
<path d="M3.34839 51.2891C3.67839 51.9491 4.00839 52.6091 4.34839 53.2891C5.66839 52.9591 6.98839 52.6291 8.34839 52.2891C8.34839 55.9191 8.34839 59.5491 8.34839 63.2891C8.01839 63.2891 7.68839 63.2891 7.34839 63.2891C7.01839 60.6491 6.68839 58.0091 6.34839 55.2891C4.36839 56.2791 4.36839 56.2791 2.34839 57.2891C2.67839 55.3091 3.00839 53.3291 3.34839 51.2891Z" fill="#BA7F2C"/>
<path d="M70.3484 117.289C70.0184 117.949 69.6884 118.609 69.3484 119.289C67.282 119.703 67.282 119.703 64.7859 119.914C63.9596 119.989 63.1333 120.064 62.282 120.141C61.3249 120.214 61.3249 120.214 60.3484 120.289C60.3484 119.629 60.3484 118.969 60.3484 118.289C66.6341 115.861 66.6341 115.861 70.3484 117.289Z" fill="#1A1612"/>
<path d="M137.348 65.2891C138.338 65.2891 139.328 65.2891 140.348 65.2891C139.741 69.4166 138.31 72.6212 136.348 76.2891C135.161 74.7266 135.161 74.7266 134.348 72.2891C135.723 68.5391 135.723 68.5391 137.348 65.2891Z" fill="#201910"/>
<path d="M111.348 62.2891C111.678 62.2891 112.008 62.2891 112.348 62.2891C113.469 67.7785 113.141 71.1234 111.348 76.2891C111.018 76.2891 110.688 76.2891 110.348 76.2891C110.018 72.3291 109.688 68.3691 109.348 64.2891C110.008 64.2891 110.668 64.2891 111.348 64.2891C111.348 63.6291 111.348 62.9691 111.348 62.2891Z" fill="#CB8230"/>
<path d="M100.348 102.289C100.678 102.289 101.008 102.289 101.348 102.289C102.263 106.954 102.714 110.055 100.348 114.289C99.3584 114.784 99.3584 114.784 98.3484 115.289C98.0184 112.979 97.6884 110.669 97.3484 108.289C98.3384 108.784 98.3384 108.784 99.3484 109.289C99.6784 106.979 100.008 104.669 100.348 102.289Z" fill="#3E2B18"/>
<path d="M11.3484 73.2891C14.3484 76.2891 17.3484 79.2891 20.3484 82.2891C19.3584 82.9491 18.3684 83.6091 17.3484 84.2891C16.3397 83.0251 15.3417 81.7527 14.3484 80.4766C13.7915 79.7689 13.2346 79.0612 12.6609 78.332C11.3484 76.2891 11.3484 76.2891 11.3484 73.2891Z" fill="#E4A53A"/>
<path d="M89.3484 66.2891C90.3384 66.2891 91.3284 66.2891 92.3484 66.2891C92.0671 67.7702 91.7731 69.249 91.4734 70.7266C91.311 71.5503 91.1485 72.374 90.9812 73.2227C90.7724 73.9046 90.5635 74.5865 90.3484 75.2891C89.3584 75.7841 89.3584 75.7841 88.3484 76.2891C88.2234 68.5391 88.2234 68.5391 89.3484 66.2891Z" fill="#DE9A4A"/>
<path d="M92.3484 95.2891C93.6684 96.6091 94.9884 97.9291 96.3484 99.2891C90.7234 103.164 90.7234 103.164 87.3484 104.289C87.3484 103.629 87.3484 102.969 87.3484 102.289C88.6817 100.956 90.0151 99.6224 91.3484 98.2891C91.6784 97.2991 92.0084 96.3091 92.3484 95.2891Z" fill="#E5C371"/>
<path d="M115.348 79.2891C115.678 79.2891 116.008 79.2891 116.348 79.2891C116.678 82.2591 117.008 85.2291 117.348 88.2891C116.688 88.2891 116.028 88.2891 115.348 88.2891C115.348 89.9391 115.348 91.5891 115.348 93.2891C115.018 93.2891 114.688 93.2891 114.348 93.2891C113.228 87.7996 113.556 84.4548 115.348 79.2891Z" fill="#C48735"/>
<path d="M59.3483 65.2891C60.0083 65.6191 60.6683 65.9491 61.3483 66.2891C61.5983 72.9141 61.5983 72.9141 59.3483 76.2891C57.1329 69.8891 57.1329 69.8891 58.2233 66.8516C58.5946 66.3359 58.9658 65.8203 59.3483 65.2891Z" fill="#D79147"/>
<path d="M92.3484 60.2891C92.6817 61.6224 93.0151 62.9557 93.3484 64.2891C93.5959 64.9697 93.8434 65.6503 94.0984 66.3516C94.1809 66.9909 94.2634 67.6303 94.3484 68.2891C92.9109 70.0391 92.9109 70.0391 91.3484 71.2891C91.0151 69.9557 90.6817 68.6224 90.3484 67.2891C90.1009 66.6084 89.8534 65.9278 89.5984 65.2266C89.5159 64.5872 89.4334 63.9478 89.3484 63.2891C90.7859 61.5391 90.7859 61.5391 92.3484 60.2891Z" fill="#D39045"/>
<path d="M132.348 50.2891C133.338 50.6191 134.328 50.9491 135.348 51.2891C135.348 54.5891 135.348 57.8891 135.348 61.2891C134.688 61.2891 134.028 61.2891 133.348 61.2891C133.018 57.6591 132.688 54.0291 132.348 50.2891Z" fill="#080807"/>
<path d="M50.3484 98.2891C51.0084 98.2891 51.6684 98.2891 52.3484 98.2891C52.0184 101.919 51.6884 105.549 51.3484 109.289C50.6884 109.289 50.0284 109.289 49.3484 109.289C49.3214 107.831 49.302 106.372 49.2859 104.914C49.2743 104.102 49.2627 103.29 49.2507 102.453C49.3484 100.289 49.3484 100.289 50.3484 98.2891Z" fill="#0A0807"/>
<path d="M15.3484 32.2891C16.3384 33.6091 17.3284 34.9291 18.3484 36.2891C17.0284 37.2791 15.7084 38.2691 14.3484 39.2891C13.3584 37.9691 12.3684 36.6491 11.3484 35.2891C12.0084 34.6291 12.6684 33.9691 13.3484 33.2891C13.6784 33.6191 14.0084 33.9491 14.3484 34.2891C14.6784 33.6291 15.0084 32.9691 15.3484 32.2891Z" fill="#DA9430"/>
<path d="M94.3484 93.2891C94.3484 93.9491 94.3484 94.6091 94.3484 95.2891C93.6884 95.2891 93.0284 95.2891 92.3484 95.2891C92.0184 95.9491 91.6884 96.6091 91.3484 97.2891C91.0184 96.2991 90.6884 95.3091 90.3484 94.2891C88.0384 93.9591 85.7284 93.6291 83.3484 93.2891C83.3484 92.9591 83.3484 92.6291 83.3484 92.2891C87.759 91.2633 90.2747 91.2522 94.3484 93.2891Z" fill="#030404"/>
<path d="M16.3483 61.2891C17.8713 64.2263 19.1493 67.2059 20.3483 70.2891C19.3583 70.6191 18.3683 70.9491 17.3483 71.2891C15.5442 68.5298 15.3356 67.3993 15.7233 64.0391C15.9296 63.1316 16.1358 62.2241 16.3483 61.2891Z" fill="#211912"/>
<path d="M11.3484 44.2891C12.6684 44.9491 13.9884 45.6091 15.3484 46.2891C14.0678 47.9966 12.7307 49.6628 11.3484 51.2891C10.6884 51.2891 10.0284 51.2891 9.34839 51.2891C10.2234 45.4141 10.2234 45.4141 11.3484 44.2891Z" fill="#080607"/>
<path d="M42.3484 106.289C46.2197 106.863 48.4301 108.776 51.3484 111.289C51.0184 111.949 50.6884 112.609 50.3484 113.289C46.8124 111.378 44.5587 109.663 42.3484 106.289Z" fill="#0A0809"/>
<path d="M7.34839 45.2891C7.67839 45.2891 8.00839 45.2891 8.34839 45.2891C8.34839 47.5991 8.34839 49.9091 8.34839 52.2891C7.02839 52.6191 5.70839 52.9491 4.34839 53.2891C4.67839 51.6391 5.00839 49.9891 5.34839 48.2891C6.00839 48.2891 6.66839 48.2891 7.34839 48.2891C7.34839 47.2991 7.34839 46.3091 7.34839 45.2891Z" fill="#F0A735"/>
<path d="M87.3484 30.2891C87.3484 31.6091 87.3484 32.9291 87.3484 34.2891C85.3684 34.2891 83.3884 34.2891 81.3484 34.2891C81.6784 33.2991 82.0084 32.3091 82.3484 31.2891C84.3484 30.2891 84.3484 30.2891 87.3484 30.2891Z" fill="#0D0B0A"/>
<path d="M50.3484 79.2891C52.3284 79.9491 54.3084 80.6091 56.3484 81.2891C56.3484 82.2791 56.3484 83.2691 56.3484 84.2891C54.0384 83.9591 51.7284 83.6291 49.3484 83.2891C49.6784 81.9691 50.0084 80.6491 50.3484 79.2891Z" fill="#4F351A"/>
<path d="M61.3484 66.2891C62.3384 66.6191 63.3284 66.9491 64.3484 67.2891C64.3484 68.9391 64.3484 70.5891 64.3484 72.2891C63.6884 72.2891 63.0284 72.2891 62.3484 72.2891C62.0184 72.9491 61.6884 73.6091 61.3484 74.2891C61.3484 71.6491 61.3484 69.0091 61.3484 66.2891Z" fill="#322315"/>
<path d="M68.3484 26.2891C69.3384 26.6191 70.3284 26.9491 71.3484 27.2891C67.8834 30.2591 67.8834 30.2591 64.3484 33.2891C64.3484 30.2891 64.3484 30.2891 66.3484 28.1016C67.0084 27.5034 67.6684 26.9053 68.3484 26.2891Z" fill="#121010"/>
<path d="M63.3484 102.289C65.6584 102.619 67.9684 102.949 70.3484 103.289C70.6784 104.279 71.0084 105.269 71.3484 106.289C67.6608 105.791 65.7435 105.188 63.3484 102.289Z" fill="#100E0C"/>
<path d="M55.3484 95.2891C56.0084 95.2891 56.6684 95.2891 57.3484 95.2891C58.3384 97.2691 59.3284 99.2491 60.3484 101.289C59.0284 101.619 57.7084 101.949 56.3484 102.289C56.0184 99.9791 55.6884 97.6691 55.3484 95.2891Z" fill="#E3C676"/>
<path d="M58.3484 89.2891C61.6484 89.9491 64.9484 90.6091 68.3484 91.2891C68.3484 91.6191 68.3484 91.9491 68.3484 92.2891C64.3884 92.2891 60.4284 92.2891 56.3484 92.2891C57.0084 91.2991 57.6684 90.3091 58.3484 89.2891Z" fill="#2D2217"/>
<path d="M100.348 80.2891C100.348 81.2791 100.348 82.2691 100.348 83.2891C98.0384 83.6191 95.7284 83.9491 93.3484 84.2891C93.3484 83.2991 93.3484 82.3091 93.3484 81.2891C98.0984 80.2891 98.0984 80.2891 100.348 80.2891Z" fill="#2C2116"/>
<path d="M132.348 53.2891C132.678 53.2891 133.008 53.2891 133.348 53.2891C133.348 55.9291 133.348 58.5691 133.348 61.2891C134.008 61.2891 134.668 61.2891 135.348 61.2891C135.018 62.6091 134.688 63.9291 134.348 65.2891C133.688 65.2891 133.028 65.2891 132.348 65.2891C132.348 61.3291 132.348 57.3691 132.348 53.2891Z" fill="#31251C"/>
<path d="M37.3484 60.2891C39.4109 60.7266 39.4109 60.7266 41.3484 61.2891C41.0184 62.9391 40.6884 64.5891 40.3484 66.2891C39.6884 66.2891 39.0284 66.2891 38.3484 66.2891C37.6884 64.6391 37.0284 62.9891 36.3484 61.2891C36.6784 60.9591 37.0084 60.6291 37.3484 60.2891Z" fill="#DE9132"/>
<path d="M76.3484 113.289C78.8234 114.279 78.8234 114.279 81.3484 115.289C81.0184 116.279 80.6884 117.269 80.3484 118.289C78.3684 117.629 76.3884 116.969 74.3484 116.289C75.0084 115.959 75.6684 115.629 76.3484 115.289C76.3484 114.629 76.3484 113.969 76.3484 113.289Z" fill="#2D251A"/>
<path d="M99.3484 40.2891C101.328 40.9491 103.308 41.6091 105.348 42.2891C105.348 43.2791 105.348 44.2691 105.348 45.2891C102.911 44.4766 102.911 44.4766 100.348 43.2891C100.018 42.2991 99.6884 41.3091 99.3484 40.2891Z" fill="#14100D"/>
<path d="M36.3484 37.2891C38.3284 38.2791 40.3084 39.2691 42.3484 40.2891C41.3584 41.7741 41.3584 41.7741 40.3484 43.2891C38.6984 41.9691 37.0484 40.6491 35.3484 39.2891C35.6784 38.6291 36.0084 37.9691 36.3484 37.2891Z" fill="#292010"/>
<path d="M120.348 33.2891C122.328 33.2891 124.308 33.2891 126.348 33.2891C126.678 34.2791 127.008 35.2691 127.348 36.2891C124.708 35.9591 122.068 35.6291 119.348 35.2891C119.678 34.6291 120.008 33.9691 120.348 33.2891Z" fill="#0A090A"/>
</svg>
