<svg width="153" height="152" viewBox="0 0 153 152" fill="none" xmlns="http://www.w3.org/2000/svg">
<path d="M122.073 15.212C122.992 15.8643 123.911 16.5166 124.858 17.1886C127.073 19.212 127.073 19.212 127.386 22.962C127.283 24.0345 127.179 25.107 127.073 26.212C127.733 24.562 128.393 22.912 129.073 21.212C133.065 21.0457 135.071 21.325 138.108 24.0128C149.097 36.9488 153.111 52.5682 152.073 69.212C151.439 73.684 150.501 77.9285 149.073 82.212C150.063 82.212 151.053 82.212 152.073 82.212C152 99.8 142.146 117.049 130.124 129.372C123.868 135.427 114.985 143.212 106.073 143.212C106.073 144.202 106.073 145.192 106.073 146.212C88.4376 150.756 67.0989 155.929 50.0732 146.212C50.3948 143.211 51.0548 142.23 53.2607 140.087C56.0732 138.212 56.0732 138.212 59.1982 137.275C62.2298 136.438 62.2298 136.438 63.9482 133.837C65.3359 131.075 65.3359 131.075 65.0732 127.212C63.9763 127.03 62.8793 126.849 61.749 126.661C60.2945 126.408 58.8401 126.154 57.3857 125.9C56.6645 125.782 55.9433 125.664 55.2002 125.542C50.9864 124.792 47.4533 124.019 44.0732 121.212C44.0732 119.892 44.0732 118.572 44.0732 117.212C42.0932 118.202 42.0932 118.202 40.0732 119.212C34.6644 111.535 34.7245 105.516 34.0732 96.212C33.7432 101.162 33.4132 106.112 33.0732 111.212C28.3521 110.268 26.99 109.741 23.4482 106.9C22.6929 106.305 21.9375 105.711 21.1592 105.099C19.1441 103.276 17.6173 101.44 16.0732 99.212C16.7539 99.5008 17.4345 99.7895 18.1357 100.087C21.4022 101.338 24.7017 102.287 28.0732 103.212C28.0732 102.552 28.0732 101.892 28.0732 101.212C26.9885 101.042 26.9885 101.042 25.8818 100.868C19.3621 99.3449 13.6228 95.5719 9.69824 90.1495C4.4262 81.1032 2.7247 72.1839 2.63574 61.837C2.62559 60.9929 2.61544 60.1488 2.60498 59.2792C2.6809 53.8798 3.47719 49.9746 6.07324 45.212C9.02313 43.5158 10.6721 43.212 14.0732 43.212C13.5576 42.3664 13.042 41.5208 12.5107 40.6495C10.7463 36.4302 10.7695 34.5835 12.0732 30.212C14.6072 26.4754 17.3177 23.7157 21.0732 21.212C23.6357 21.2745 23.6357 21.2745 26.0732 22.212C27.7778 25.603 28.3486 28.5269 28.4873 32.294C28.526 33.2254 28.5646 34.1567 28.6045 35.1163C28.6354 36.076 28.6664 37.0357 28.6982 38.0245C28.7369 39.0036 28.7756 39.9826 28.8154 40.9913C28.9094 43.398 28.995 45.8047 29.0732 48.212C29.1316 44.3371 29.167 40.4623 29.1982 36.587C29.215 35.4926 29.2318 34.3982 29.249 33.2706C29.2986 25.5572 29.2986 25.5572 27.0732 18.212C54.2194 -5.41516 93.1862 -5.66676 122.073 15.212Z" fill="#0F1C30"/>
<path d="M122.073 15.212C123.749 16.5334 125.419 17.8637 127.073 19.212C126.911 19.8626 126.749 20.5132 126.582 21.1835C125.938 25.0198 125.938 28.7918 125.933 32.669C125.914 34.3572 125.895 36.0454 125.874 37.7335C125.845 40.3616 125.823 42.9888 125.823 45.617C125.807 57.6955 124.4 67.9018 120.073 79.212C117.551 76.81 116.324 74.798 114.948 71.587C109.8 61.1077 101.621 55.6464 91.0732 51.212C90.0832 50.882 89.0932 50.552 88.0732 50.212C86.749 48.4698 86.749 48.4698 85.3857 46.337C82.1732 41.8216 79.3465 40.6667 74.0732 39.212C74.5682 41.687 74.5682 41.687 75.0732 44.212C74.4468 44.2984 73.8203 44.3848 73.1748 44.4737C72.3575 44.6142 71.5403 44.7548 70.6982 44.8995C69.4801 45.0909 69.4801 45.0909 68.2373 45.2862C67.5232 45.5917 66.809 45.8973 66.0732 46.212C65.7639 47.0048 65.4545 47.7976 65.1357 48.6144C63.6756 52.1843 61.9382 52.5939 58.4482 54.087C46.3073 59.8677 41.7563 67.468 36.0732 79.212C27.7164 70.8551 29.4718 54.6128 29.4482 43.7745C29.4318 41.0702 29.4097 38.3663 29.3766 35.6622C29.3572 33.9939 29.3476 32.3254 29.3497 30.657C29.3081 26.1196 28.7918 22.4872 27.0732 18.212C54.2194 -5.41516 93.1862 -5.66676 122.073 15.212Z" fill="#7682B9"/>
<path d="M77.0732 42.212C80.8713 43.1887 81.9319 43.9795 84.0107 47.3995C86.5172 51.255 89.8234 52.8349 93.8857 54.712C99.6968 57.3977 104.849 60.294 109.073 65.212C109.568 66.697 109.568 66.697 110.073 68.212C109.186 68.1089 108.299 68.0058 107.386 67.8995C104.018 68.2173 102.514 68.7196 100.241 71.2355C97.548 75.7933 96.4062 81.1259 95.0732 86.212C95.4032 85.222 95.7332 84.232 96.0732 83.212C96.6838 81.54 97.3103 79.8738 97.9482 78.212C98.2757 77.3458 98.6031 76.4795 98.9404 75.587C100.075 73.2079 101.01 71.8324 103.073 70.212C106.623 69.6719 108.511 69.9175 111.698 71.587C119.079 79.7451 119.292 90.7367 119.386 101.15C119.429 102.757 119.429 102.757 119.474 104.398C119.524 110.636 119.356 114.516 115.073 119.212C114.083 119.707 114.083 119.707 113.073 120.212C113.073 118.892 113.073 117.572 113.073 116.212C112.389 116.375 111.705 116.538 111 116.706C107.692 117.278 104.599 117.324 101.241 117.31C99.9489 117.306 98.6566 117.303 97.3252 117.3C95.9704 117.292 94.6156 117.283 93.2607 117.275C91.8864 117.27 90.512 117.265 89.1377 117.261C85.7828 117.249 82.4281 117.233 79.0732 117.212C79.0732 116.552 79.0732 115.892 79.0732 115.212C80.6826 114.064 80.6826 114.064 82.8232 112.837C88.5637 109.638 88.5637 109.638 91.6006 104.103C92.2254 99.8062 92.4802 96.9808 90.0732 93.212C84.847 89.1219 80.4689 88.5952 73.8897 88.8175C69.8651 89.3813 68.0481 90.4721 65.0732 93.212C62.5885 96.9392 62.3194 99.8955 63.0732 104.212C65.682 110.23 70.1733 112.855 76.0732 115.212C76.0732 115.872 76.0732 116.532 76.0732 117.212C71.2861 117.355 66.4989 117.497 61.7117 117.639C60.0831 117.688 58.4545 117.736 56.8259 117.785C54.4852 117.855 52.1445 117.924 49.8037 117.993C49.0755 118.015 48.3473 118.037 47.597 118.06C44.7543 118.143 41.9173 118.212 39.0732 118.212C33.2889 110.203 34.3516 99.7638 35.5693 90.3956C37.0927 82.4172 39.2712 76.0141 45.0732 70.212C47.8857 69.712 47.8857 69.712 51.0732 70.212C55.78 74.481 57.4226 79.173 59.0732 85.212C58.601 80.4897 57.1473 77.0491 54.9131 72.9464C54.0732 71.212 54.0732 71.212 54.0732 69.212C52.7945 69.0677 51.5157 68.9233 50.1982 68.7745C47.8163 68.5056 46.2287 68.2898 44.0732 67.212C51.9818 58.4438 59.1917 52.9407 71.2373 52.255C71.8432 52.2408 72.449 52.2266 73.0732 52.212C72.5782 51.222 72.5782 51.222 72.0732 50.212C70.0486 49.5599 70.0486 49.5599 68.0732 49.212C68.0732 48.552 68.0732 47.892 68.0732 47.212C69.5106 47.1849 70.9482 47.1656 72.3857 47.1495C73.5865 47.1321 73.5865 47.1321 74.8115 47.1144C77.0732 47.212 77.0732 47.212 80.0732 48.212C79.0832 46.232 78.0932 44.252 77.0732 42.212Z" fill="#246DB3"/>
<path d="M122.073 15.212C123.749 16.5334 125.419 17.8637 127.073 19.212C126.92 19.8449 126.766 20.4779 126.608 21.13C125.893 25.2523 125.712 29.3497 125.511 33.5245C125.468 34.3605 125.424 35.1964 125.38 36.0577C125.274 38.109 125.173 40.1605 125.073 42.212C124.376 41.4901 123.678 40.7683 122.96 40.0245C109.692 26.78 94.5612 19.0262 75.6357 18.7745C59.24 18.8793 46.1276 25.2097 33.9717 35.9659C31.8775 38.4436 31.3983 40.023 31.0732 43.212C30.7432 43.212 30.4132 43.212 30.0732 43.212C30.0243 41.9101 29.9753 40.6081 29.9248 39.2667C29.8497 37.5401 29.7742 35.8136 29.6982 34.087C29.6518 32.8031 29.6518 32.8031 29.6045 31.4933C29.3844 26.7244 28.8816 22.6963 27.0732 18.212C54.2194 -5.41516 93.1862 -5.66676 122.073 15.212Z" fill="#5F66AC"/>
<path d="M23.6357 21.2745C26.0732 22.212 26.0732 22.212 27.21 24.1886C28.3957 28.3414 28.3697 32.2265 28.3232 36.5245C28.3179 37.4081 28.3126 38.2917 28.3071 39.202C28.1647 49.2221 26.9699 58.9552 24.9482 68.7745C22.8988 79.6072 23.8375 90.4926 26.0732 101.212C18.6713 98.4233 11.9924 94.705 8.13574 87.5675C4.27067 78.999 2.70855 71.1948 2.63574 61.837C2.62567 60.993 2.6156 60.149 2.60522 59.2794C2.6806 53.88 3.47718 49.9746 6.07324 45.212C9.02313 43.5158 10.6721 43.212 14.0732 43.212C13.5576 42.3664 13.042 41.5208 12.5107 40.6495C10.7463 36.4302 10.7695 34.5835 12.0732 30.212C14.8297 26.1473 18.3528 21.1457 23.6357 21.2745Z" fill="#8D7299"/>
<path d="M129.073 21.2121C133.066 21.0457 135.071 21.325 138.108 24.0128C149.116 36.9715 153.074 52.5516 152.073 69.2121C150.75 80.155 150.75 80.155 147.073 84.2121C143.386 85.5246 143.386 85.5246 140.073 86.2121C140.589 86.9546 141.105 87.6971 141.636 88.4621C143.073 91.2121 143.073 91.2121 143.042 93.1808C141.534 96.343 139.126 97.0192 136.011 98.4621C134.354 99.2432 134.354 99.2432 132.663 100.04C131.808 100.427 130.954 100.814 130.073 101.212C128.983 97.9425 129.162 97.2713 130.011 94.0871C131.019 89.3565 131.334 84.7242 131.386 79.8996C131.412 78.9064 131.412 78.9064 131.438 77.8932C131.435 73.4557 130.706 69.5959 129.569 65.3058C127.696 57.6374 127.687 50.2309 127.792 42.3876C127.824 39.9897 127.833 37.5925 127.839 35.1945C127.848 33.6652 127.858 32.1359 127.87 30.6066C127.874 29.8921 127.879 29.1776 127.883 28.4415C127.956 23.4468 127.956 23.4468 129.073 21.2121Z" fill="#8E749A"/>
<path d="M44.0732 119.212C66.5132 119.212 88.9532 119.212 112.073 119.212C111.743 120.202 111.413 121.192 111.073 122.212C108.448 123.31 108.448 123.31 105.073 124.275C103.904 124.611 102.735 124.947 101.53 125.294C97.3948 126.392 93.2659 127.359 89.0732 128.212C89.388 131.267 89.5724 132.773 91.9287 134.837C92.6983 135.291 93.4679 135.745 94.2607 136.212C98.1789 138.628 101.606 141.19 105.073 144.212C104.743 144.872 104.413 145.532 104.073 146.212C101.653 146.994 99.2866 147.665 96.8232 148.275C96.1542 148.448 95.4852 148.621 94.7959 148.8C81.0075 152.335 63.0268 153.605 50.0732 146.212C50.3948 143.211 51.0548 142.23 53.2607 140.087C56.0732 138.212 56.0732 138.212 59.1982 137.275C62.2298 136.438 62.2298 136.438 63.9482 133.837C65.3359 131.075 65.3359 131.075 65.0732 127.212C63.9763 127.03 62.8793 126.849 61.749 126.661C60.2945 126.408 58.8401 126.154 57.3857 125.9C56.3039 125.723 56.3039 125.723 55.2002 125.542C50.9483 124.785 47.5814 123.904 44.0732 121.212C44.0732 120.552 44.0732 119.892 44.0732 119.212Z" fill="#3AB7D4"/>
<path d="M0.0733781 70.212C2.07338 72.212 2.07338 72.212 2.32338 75.587C3.63023 88.0246 13.4329 100.585 22.6632 108.47C25.8787 110.794 29.2474 112.406 32.9093 113.911C35.0734 115.212 35.0734 115.212 36.5265 117.661C39.9684 123.337 47.6309 125.517 53.7531 127.259C56.8514 127.978 59.9455 128.637 63.0734 129.212C61.098 134.875 58.3201 136.501 53.2179 139.04C50.875 140.178 50.875 140.178 48.8234 142.587C48.2459 143.123 47.6684 143.66 47.0734 144.212C35.5866 143.013 24.0123 131.983 16.8859 123.587C5.02018 107.913 -0.726387 89.8951 0.0733781 70.212Z" fill="#5F68AC"/>
<path d="M74.0732 39.212C79.5157 39.6008 82.2388 41.3776 86.0732 45.212C86.4239 46.1195 86.7745 47.027 87.1357 47.962C87.4451 48.7045 87.7545 49.447 88.0732 50.212C89.7299 50.5919 91.3992 50.9179 93.0732 51.212C101.011 54.0804 108.343 59.1425 113.073 66.212C112.843 69.5284 112.843 69.5284 112.073 72.212C109.103 71.882 106.133 71.552 103.073 71.212C99.2392 76.2094 97.7796 81.0053 96.3232 87.087C96.1028 87.9662 95.8824 88.8453 95.6553 89.7511C95.1175 91.9024 94.5905 94.0557 94.0732 96.212C93.7432 96.212 93.4132 96.212 93.0732 96.212C93.5121 86.492 95.0695 75.4375 102.073 68.212C105.823 67.3995 105.823 67.3995 109.073 67.212C104.099 60.2484 97.3887 56.6907 89.6982 53.212C85.8336 51.3651 84.298 48.867 82.0732 45.212C79.9728 43.8234 79.9728 43.8234 78.0732 43.212C78.7332 44.862 79.3932 46.512 80.0732 48.212C76.1132 47.882 72.1532 47.552 68.0732 47.212C68.0732 47.872 68.0732 48.532 68.0732 49.212C70.5482 49.707 70.5482 49.707 73.0732 50.212C73.0732 50.872 73.0732 51.532 73.0732 52.212C71.9305 52.4499 71.9305 52.4499 70.7646 52.6925C59.8966 55.1483 52.5309 58.8912 45.0732 67.212C45.9601 67.1089 46.847 67.0058 47.7607 66.8995C51.0732 67.212 51.0732 67.212 53.6982 69.087C57.9617 74.6969 60.8279 81.0428 60.0732 88.212C57.6534 84.5823 56.5387 80.9258 55.1709 76.8058C54.0836 74.2366 53.2731 72.8923 51.0732 71.212C48.116 70.5452 48.116 70.5452 45.0732 71.212C39.7052 75.7907 37.2678 84.4162 36.4482 91.2745C36.0732 94.212 36.0732 94.212 34.0732 96.212C33.7673 98.7812 33.5624 101.26 33.4482 103.837C33.4096 104.543 33.3709 105.25 33.3311 105.978C33.2368 107.722 33.1539 109.467 33.0732 111.212C28.9853 110.67 26.6513 109.47 23.4482 106.9C22.6929 106.305 21.9375 105.711 21.1592 105.099C19.1441 103.276 17.6173 101.44 16.0732 99.212C17.0942 99.6452 17.0942 99.6452 18.1357 100.087C21.4022 101.338 24.7017 102.287 28.0732 103.212C28.0732 102.552 28.0732 101.892 28.0732 101.212C27.4132 101.212 26.7532 101.212 26.0732 101.212C21.9526 88.0407 22.347 76.2 25.3389 62.8214C26.3917 57.6467 26.7889 52.478 27.0732 47.212C28.0632 47.542 29.0532 47.872 30.0732 48.212C30.1119 49.7183 30.1119 49.7183 30.1514 51.255C30.4995 60.5499 31.8378 68.4237 35.0732 77.212C37.2797 74.3974 39.0401 71.5303 40.7607 68.3995C45.9462 59.7655 52.3718 55.6868 61.5342 51.7667C64.5832 49.8998 64.995 48.534 66.0732 45.212C69.0299 43.7337 71.8155 44.1517 75.0732 44.212C74.5782 41.737 74.5782 41.737 74.0732 39.212Z" fill="#10161B"/>
<path d="M151.073 82.212C151.403 82.212 151.733 82.212 152.073 82.212C152 99.8 142.146 117.049 130.124 129.372C125.308 134.033 119.777 137.722 114.073 141.212C113.371 141.643 112.668 142.073 111.944 142.517C109.481 143.432 108.51 143.18 106.073 142.212C104.206 141.166 102.375 140.055 100.573 138.9C99.6348 138.305 98.6964 137.711 97.7295 137.099C95.205 135.306 93.1098 133.542 91.0732 131.212C91.0732 130.552 91.0732 129.892 91.0732 129.212C92.1122 129.065 93.1512 128.918 94.2217 128.767C102.638 127.461 110.487 126.07 117.073 120.212C117.682 119.225 118.29 118.237 118.917 117.22C121.536 113.566 123.715 112.635 127.823 110.9C135.74 107.317 140.319 102.343 145.073 95.212C144.756 91.5726 144.756 91.5726 144.073 88.212C144.857 87.7789 145.641 87.3458 146.448 86.8995C149.29 85.3198 149.29 85.3198 151.073 82.212Z" fill="#5C64AB"/>
<path d="M106.011 69.6495C109.972 70.3772 111.354 71.2066 114.073 74.212C118.551 83.1217 119.297 91.3201 119.386 101.15C119.415 102.221 119.444 103.293 119.474 104.398C119.524 110.636 119.356 114.516 115.073 119.212C114.083 119.707 114.083 119.707 113.073 120.212C113.073 118.892 113.073 117.572 113.073 116.212C112.047 116.457 112.047 116.457 111 116.706C107.692 117.278 104.599 117.324 101.241 117.31C99.9489 117.306 98.6566 117.303 97.3252 117.3C95.9704 117.292 94.6156 117.283 93.2607 117.275C91.8864 117.27 90.512 117.265 89.1377 117.261C85.7828 117.249 82.4281 117.233 79.0732 117.212C79.0732 116.552 79.0732 115.892 79.0732 115.212C80.6826 114.064 80.6826 114.064 82.8232 112.837C88.0013 109.708 91.1149 107.087 93.0732 101.212C94.0632 101.212 95.0532 101.212 96.0732 101.212C96.0732 102.202 96.0732 103.192 96.0732 104.212C99.3533 106.104 102.274 107.054 106.073 107.212C108.423 105.371 109.743 103.872 111.073 101.212C111.143 99.505 111.158 97.7954 111.136 96.087C111.127 95.177 111.118 94.2669 111.108 93.3292C111.097 92.6306 111.085 91.9319 111.073 91.212C110.413 91.212 109.753 91.212 109.073 91.212C109.073 91.872 109.073 92.532 109.073 93.212C107.093 93.212 105.113 93.212 103.073 93.212C102.448 91.337 102.448 91.337 102.073 89.212C102.733 88.552 103.393 87.892 104.073 87.212C102.15 87.2516 102.15 87.2516 100.073 88.212C97.6254 92.1105 96.6145 95.6651 96.0732 100.212C95.7432 100.212 95.4132 100.212 95.0732 100.212C94.4383 90.4227 95.3285 80.6535 101.03 72.3683C103.073 70.212 103.073 70.212 106.011 69.6495Z" fill="#38B2CF"/>
<path d="M47.9483 69.6495C51.5162 70.2918 52.8608 71.4121 54.9795 74.3253C59.9719 82.9372 62.7451 96.3623 61.0733 106.212C58.9594 109.711 57.9559 110.918 54.0733 112.212C49.4875 112.823 45.4584 113.021 41.6358 110.15C35.7493 103.402 36.2899 93.7438 36.8174 85.2281C37.6127 78.9614 41.3033 70.9496 47.9483 69.6495Z" fill="#36AFCD"/>
<path d="M3.07314 72.212C5.42512 76.6247 6.97207 81.3242 8.65908 86.0206C11.0475 91.411 14.0021 94.5245 19.0731 97.462C19.9188 97.9622 20.7644 98.4623 21.6356 98.9777C23.8166 100.082 25.6858 100.748 28.0731 101.212C28.0731 101.872 28.0731 102.532 28.0731 103.212C24.6037 102.754 21.3992 102.321 18.0731 101.212C22.7442 105.591 27.2439 108.553 33.0731 111.212C33.0731 106.262 33.0731 101.312 33.0731 96.212C33.7331 95.882 34.3931 95.552 35.0731 95.212C35.1292 96.5888 35.1292 96.5888 35.1864 97.9933C35.5618 105 36.1323 110.819 39.0731 117.212C40.0631 117.212 41.0531 117.212 42.0731 117.212C42.7331 117.212 43.3931 117.212 44.0731 117.212C44.2974 118.001 44.5217 118.79 44.7528 119.603C45.8269 122.384 45.8269 122.384 48.3935 123.321C49.319 123.533 50.2445 123.744 51.1981 123.962C52.6657 124.304 52.6657 124.304 54.163 124.653C57.8011 125.352 61.3851 125.864 65.0731 126.212C65.8231 128.337 65.8231 128.337 66.0731 131.212C63.4744 136.626 60.6178 138.232 55.0731 140.212C52.2939 141.339 51.3554 141.732 49.8231 144.337C49.4519 145.265 49.4519 145.265 49.0731 146.212C47.7531 145.552 46.4331 144.892 45.0731 144.212C53.1362 137.672 53.1362 137.672 57.5106 135.525C60.3337 134.079 61.0555 133.163 62.0731 130.212C60.2269 128.366 57.1197 128.466 54.6356 128.025C47.9939 126.635 42.2909 124.661 37.0731 120.212C36.6052 119.379 36.1373 118.547 35.6552 117.689C33.6448 114.541 31.8635 113.892 28.4481 112.462C15.3087 106.209 7.0479 93.6175 2.07314 80.212C1.98559 77.3413 2.52297 75.0629 3.07314 72.212Z" fill="#0B0F12"/>
<path d="M115.073 78.212C119.733 85.2011 119.438 93.2133 119.448 101.337C119.473 102.395 119.497 103.454 119.522 104.544C119.546 110.729 119.296 114.55 115.073 119.212C114.083 119.707 114.083 119.707 113.073 120.212C113.073 118.892 113.073 117.572 113.073 116.212C112.047 116.457 112.047 116.457 111 116.706C107.692 117.278 104.599 117.324 101.241 117.31C99.9489 117.306 98.6566 117.303 97.3252 117.3C95.9704 117.292 94.6156 117.283 93.2607 117.275C91.8864 117.27 90.512 117.265 89.1377 117.261C85.7828 117.249 82.4281 117.233 79.0732 117.212C79.0732 116.552 79.0732 115.892 79.0732 115.212C80.6826 114.064 80.6826 114.064 82.8232 112.837C87.243 110.182 90.1979 107.525 93.0732 103.212C93.9704 104.635 93.9704 104.635 94.8857 106.087C96.8889 109.352 96.8889 109.352 100.073 111.212C104.545 111.932 108.06 111.794 112.011 109.525C117.116 103.8 116.374 97.4546 116.073 90.212C115.805 86.2047 115.47 82.2086 115.073 78.212Z" fill="#2369B0"/>
<path d="M36.0732 87.212C36.4032 87.212 36.7332 87.212 37.0732 87.212C37.1106 88.0577 37.148 88.9033 37.1865 89.7745C37.716 100.707 37.716 100.707 42.6982 110.212C47.4196 112.2 52.1766 111.777 57.0107 110.337C60.2996 106.949 60.4992 102.779 61.0732 98.212C61.4032 98.212 61.7332 98.212 62.0732 98.212C62.3207 99.4289 62.5682 100.646 62.8232 101.9C63.8452 105.868 65.0372 108.336 68.0732 111.212C70.6667 112.727 73.3195 114.016 76.0732 115.212C76.0732 115.872 76.0732 116.532 76.0732 117.212C71.2861 117.355 66.4989 117.497 61.7117 117.639C60.0831 117.688 58.4545 117.736 56.8259 117.785C54.4852 117.855 52.1445 117.924 49.8037 117.993C49.0755 118.015 48.3473 118.037 47.597 118.06C44.7543 118.143 41.9173 118.212 39.0732 118.212C35.1995 112.848 34.9352 108.406 34.9482 101.9C34.9457 100.625 34.9431 99.3498 34.9404 98.0363C35.0694 94.324 35.4769 90.8704 36.0732 87.212Z" fill="#2968B1"/>
<path d="M49.5731 84.5245C53.4179 85.5819 54.8296 88.0337 57.0731 91.212C58.7234 96.1628 58.9145 100.493 56.6356 105.15C55.0731 107.212 55.0731 107.212 54.0731 108.212C51.3231 108.587 51.3231 108.587 48.0731 108.212C44.3003 105.11 42.3832 102.825 41.7997 97.9073C41.6178 93.3044 41.5503 90.959 44.2606 87.087C47.0731 85.212 47.0731 85.212 49.5731 84.5245Z" fill="#0E1114"/>
<path d="M126.073 67.212C126.733 67.212 127.393 67.212 128.073 67.212C131.876 78.6185 129.582 93.3635 125.073 104.212C127.032 103.568 128.99 102.922 130.948 102.275C132.584 101.735 132.584 101.735 134.253 101.185C136.981 100.313 136.981 100.313 139.073 99.212C137.672 102.55 136.122 104.23 133.198 106.337C132.52 106.835 131.842 107.332 131.144 107.845C127.956 109.95 125.949 111.212 122.073 111.212C121.751 105.655 121.456 100.097 121.193 94.5363C121.098 92.6871 120.97 90.8397 120.831 88.9933C120.426 81.0747 123.119 74.44 126.073 67.212Z" fill="#1F6EB9"/>
<path d="M27.0732 64.212C27.7332 64.212 28.3932 64.212 29.0732 64.212C29.3504 65.2716 29.6275 66.3313 29.9131 67.423C30.2789 68.811 30.6447 70.199 31.0107 71.587C31.1931 72.2857 31.3755 72.9844 31.5635 73.7042C32.5584 77.5516 32.5584 77.5516 34.0732 81.212C34.0897 83.4649 34.0373 85.7185 33.9521 87.9698C33.9285 88.6329 33.9049 89.296 33.8806 89.9791C33.804 92.0986 33.7199 94.2178 33.6357 96.337C33.5825 97.7732 33.5298 99.2094 33.4775 100.646C33.3484 104.168 33.2125 107.69 33.0732 111.212C28.9875 110.505 26.7034 109.511 23.4482 106.9C22.6929 106.305 21.9375 105.711 21.1592 105.099C19.1441 103.276 17.6173 101.44 16.0732 99.212C20.8134 101.047 25.4374 103.131 30.0732 105.212C29.7845 104.613 29.4957 104.013 29.1982 103.396C24.3387 91.5337 24.4743 76.6786 27.0732 64.212Z" fill="#236CB5"/>
<path d="M103.823 85.837C104.937 86.0227 104.937 86.0227 106.073 86.212C105.578 86.6452 105.083 87.0783 104.573 87.5245C102.741 89.2094 102.741 89.2094 103.073 92.212C106.043 92.707 106.043 92.707 109.073 93.212C109.073 92.552 109.073 91.892 109.073 91.212C110.063 90.882 111.053 90.552 112.073 90.212C112.415 95.549 112.666 99.8903 110.448 104.837C108.073 107.212 108.073 107.212 105.136 108.4C102.073 108.212 102.073 108.212 99.1981 106.462C96.1213 101.756 96.2092 97.6839 97.0731 92.212C98.386 88.5528 99.7526 86.3921 103.823 85.837Z" fill="#0C1012"/>
<path d="M39.0732 85.212C39.4032 85.872 39.7332 86.532 40.0732 87.212C40.7332 87.212 41.3932 87.212 42.0732 87.212C43.078 90.2263 43.0906 91.9649 42.9482 95.087C42.8987 99.3328 43.3174 101.82 46.0732 105.212C47.957 107.493 47.957 107.493 51.0107 107.65C54.1729 107.524 54.1729 107.524 55.9482 105.212C58.3217 98.8828 57.1342 93.3951 55.0732 87.212C56.3932 87.542 57.7132 87.872 59.0732 88.212C60.6356 94.1126 62.0567 100.098 61.0732 106.212C58.9593 109.711 57.9559 110.918 54.0732 112.212C50.2759 112.718 46.6397 113.052 43.1865 111.2C40.5265 109.056 39.1599 107.472 38.0732 104.212C37.9768 101.534 37.934 98.8889 37.9482 96.212C37.9444 95.4876 37.9405 94.7631 37.9365 94.0167C37.9424 90.8192 38.0552 88.2662 39.0732 85.212Z" fill="#41B5D5"/>
<path d="M112.073 90.212C113.74 90.212 115.407 90.212 117.073 90.212C117.432 98.4318 117.667 104.196 111.948 110.587C107.946 112.849 104.571 113.028 100.073 112.212C96.571 110.126 94.445 108.078 93.0732 104.212C93.0732 103.222 93.0732 102.232 93.0732 101.212C94.0632 101.212 95.0532 101.212 96.0732 101.212C96.0732 102.202 96.0732 103.192 96.0732 104.212C99.3533 106.104 102.274 107.054 106.073 107.212C109.272 104.705 110.896 102.666 111.39 98.6105C111.471 97.6127 111.552 96.615 111.636 95.587C111.72 94.5841 111.803 93.5813 111.89 92.548C111.981 91.3917 111.981 91.3917 112.073 90.212Z" fill="#3EBCDA"/>
<path d="M125.073 24.212C126.063 24.872 127.053 25.532 128.073 26.212C128.474 29.2496 128.474 29.2496 128.515 33.1261C128.528 33.8146 128.541 34.503 128.555 35.2124C128.596 37.4206 128.617 39.6285 128.636 41.837C128.667 44.7253 128.709 47.6132 128.765 50.5011C128.777 51.1909 128.79 51.8808 128.803 52.5915C128.938 57.437 129.765 61.5758 131.073 66.212C130.63 68.4137 130.63 68.4137 130.073 70.212C129.413 70.212 128.753 70.212 128.073 70.212C128.073 69.222 128.073 68.232 128.073 67.212C127.413 67.212 126.753 67.212 126.073 67.212C125.952 67.8037 125.831 68.3954 125.706 69.005C124.806 73.2501 123.869 77.2364 122.073 81.212C120.753 80.882 119.433 80.552 118.073 80.212C118.36 79.6651 118.648 79.1181 118.943 78.5546C124.56 66.9108 124.724 55.5555 124.823 42.8995C124.851 41.0798 124.881 39.2602 124.913 37.4406C124.986 33.0311 125.036 28.6219 125.073 24.212Z" fill="#1F222C"/>
<path d="M115.073 78.212C119.733 85.2011 119.438 93.2133 119.448 101.337C119.473 102.395 119.497 103.454 119.522 104.544C119.546 110.729 119.296 114.55 115.073 119.212C114.083 119.707 114.083 119.707 113.073 120.212C113.073 118.892 113.073 117.572 113.073 116.212C110.433 116.212 107.793 116.212 105.073 116.212C107.053 115.717 107.053 115.717 109.073 115.212C109.073 113.892 109.073 112.572 109.073 111.212C110.727 109.863 112.395 108.531 114.073 107.212C118.386 98.6743 115.985 87.3964 115.073 78.212Z" fill="#2870B8"/>
<path d="M108.073 124.212C107.743 125.202 107.413 126.192 107.073 127.212C105.345 127.551 103.616 127.883 101.886 128.212C100.441 128.49 100.441 128.49 98.9678 128.775C96.2798 129.181 93.7855 129.291 91.0732 129.212C92.5735 133.478 95.1982 134.693 99.0732 136.775C104.865 139.9 104.865 139.9 107.073 143.212C106.743 144.202 106.413 145.192 106.073 146.212C104.073 145.212 104.073 145.212 102.011 143.025C99.0667 139.983 95.6412 137.868 92.0615 135.642C90.0732 134.212 90.0732 134.212 88.0732 131.212C88.4482 129.025 88.4482 129.025 89.0732 127.212C89.9086 127.03 89.9086 127.03 90.7607 126.845C91.5239 126.677 92.287 126.51 93.0732 126.337C93.8892 126.158 94.7052 125.979 95.5459 125.794C97.8846 125.255 100.194 124.649 102.511 124.025C106.073 123.212 106.073 123.212 108.073 124.212Z" fill="#13171A"/>
<path d="M66.0732 127.212C66.4032 127.212 66.7332 127.212 67.0732 127.212C67.9828 132.972 65.4537 136.159 62.4756 140.798C60.8563 143.585 60.2425 145.996 60.0732 149.212C58.5912 148.958 57.1126 148.683 55.6357 148.4C54.812 148.249 53.9883 148.098 53.1396 147.943C52.4577 147.701 51.7758 147.46 51.0732 147.212C50.7432 146.222 50.4132 145.232 50.0732 144.212C52.8346 141.116 54.8269 139.314 58.6982 137.712C62.5029 136.021 63.429 134.957 65.0732 131.212C65.769 129.021 65.769 129.021 66.0732 127.212Z" fill="#2372B0"/>
<path d="M77.3232 88.0871C78.4008 88.1051 79.4785 88.1232 80.5888 88.1418C81.8186 88.1766 81.8186 88.1766 83.0732 88.2121C83.4032 89.2021 83.7332 90.1921 84.0732 91.2121C83.3487 91.1773 82.6243 91.1425 81.8778 91.1066C76.1923 90.9474 71.9246 90.8534 67.0732 94.2121C64.8894 97.4878 64.5304 98.4128 65.0732 102.212C66.8515 104.831 66.8515 104.831 69.0732 107.212C72.0732 110.962 72.0732 110.962 72.0732 113.212C67.6142 112.065 65.476 109.943 63.0302 106.208C61.2744 102.546 61.4315 100.254 62.0732 96.2121C65.7127 89.7211 70.1844 87.9319 77.3232 88.0871Z" fill="#0B0E11"/>
<path d="M52.0732 125.212C55.1123 125.235 55.1123 125.235 58.6982 125.587C59.8868 125.698 61.0753 125.809 62.2998 125.923C63.215 126.018 64.1303 126.114 65.0732 126.212C66.0078 129.839 66.2596 130.824 64.5732 134.337C61.6436 137.706 59.241 138.724 55.0732 140.212C52.294 141.339 51.3555 141.732 49.8232 144.337C49.5757 144.956 49.3282 145.575 49.0732 146.212C47.7532 145.552 46.4332 144.892 45.0732 144.212C53.1363 137.672 53.1363 137.672 57.5107 135.525C60.3338 134.079 61.0556 133.163 62.0732 130.212C60.3372 128.476 57.8677 128.556 55.5107 128.15C53.9929 127.885 53.9929 127.885 52.4443 127.614C51.6619 127.482 50.8794 127.349 50.0732 127.212C50.7332 126.552 51.3932 125.892 52.0732 125.212Z" fill="#111114"/>
<path d="M112.073 67.212C116.032 70.3514 117.055 73.5891 118.362 78.2863C118.896 80.4086 118.896 80.4086 121.073 81.212C121.073 90.122 121.073 99.032 121.073 108.212C120.743 108.212 120.413 108.212 120.073 108.212C119.975 106.991 119.877 105.771 119.776 104.513C118.762 92.9754 117.017 82.693 112.261 72.0245C111.673 70.6323 111.673 70.6323 111.073 69.212C111.403 68.552 111.733 67.892 112.073 67.212Z" fill="#0B0E11"/>
<path d="M90.0732 134.212C92.0167 135.285 93.9528 136.371 95.8857 137.462C96.9647 138.065 98.0436 138.669 99.1553 139.29C101.875 141.081 103.357 142.49 105.073 145.212C103.807 145.744 102.535 146.262 101.261 146.775C100.553 147.065 99.8454 147.355 99.1162 147.653C97.0732 148.212 97.0732 148.212 94.0732 147.212C93.0107 144.025 93.0107 144.025 92.0732 140.212C91.4182 138.208 90.7534 136.207 90.0732 134.212Z" fill="#2571B7"/>
<path d="M138.073 99.212C138.073 100.202 138.073 101.192 138.073 102.212C136.245 103.966 136.245 103.966 133.823 105.775C133.034 106.374 132.245 106.973 131.433 107.591C128.143 109.851 126.112 111.212 122.073 111.212C122.073 108.242 122.073 105.272 122.073 102.212C122.857 102.46 123.641 102.707 124.448 102.962C129.615 103.318 133.441 101.345 138.073 99.212Z" fill="#2166AD"/>
<path d="M109.073 65.212C110.393 65.542 111.713 65.872 113.073 66.212C112.743 68.192 112.413 70.172 112.073 72.212C109.103 71.882 106.133 71.552 103.073 71.212C99.2392 76.2094 97.7796 81.0053 96.3232 87.087C96.1028 87.9662 95.8824 88.8453 95.6553 89.7511C95.1175 91.9024 94.5905 94.0557 94.0732 96.212C93.7432 96.212 93.4132 96.212 93.0732 96.212C93.5121 86.492 95.0695 75.4375 102.073 68.212C105.823 67.3995 105.823 67.3995 109.073 67.212C109.073 66.552 109.073 65.892 109.073 65.212Z" fill="#15212A"/>
<path d="M85.0732 90.212C88.0931 91.1098 89.8119 91.9246 91.9482 94.2745C93.5414 98.4344 93.2825 101.948 92.0732 106.212C90.0107 108.775 90.0107 108.775 88.0732 110.212C87.0832 109.882 86.0932 109.552 85.0732 109.212C85.3857 107.337 85.3857 107.337 86.0732 105.212C87.0632 104.552 88.0532 103.892 89.0732 103.212C89.6569 99.7967 89.6569 99.7967 89.0732 96.212C87.1774 93.8983 87.1774 93.8983 85.0732 92.212C85.0732 91.552 85.0732 90.892 85.0732 90.212Z" fill="#090A0C"/>
<path d="M151.073 82.212C151.403 82.212 151.733 82.212 152.073 82.212C151.294 93.7337 151.294 93.7337 149.073 99.212C148.413 98.552 147.753 97.892 147.073 97.212C146.083 96.882 145.093 96.552 144.073 96.212C144.238 95.4695 144.403 94.727 144.573 93.962C145.192 91.022 145.192 91.022 145.073 87.212C145.692 86.9439 146.311 86.6758 146.948 86.3995C149.373 85.2565 149.373 85.2565 151.073 82.212Z" fill="#515A9A"/>
<path d="M129.073 68.212C132.073 71.212 132.073 71.212 132.401 75.0128C132.391 76.5169 132.364 78.021 132.323 79.5245C132.318 80.2715 132.313 81.0186 132.308 81.7882C132.248 86.0238 131.895 90.0427 131.073 94.212C130.083 93.882 129.093 93.552 128.073 93.212C128.403 84.962 128.733 76.712 129.073 68.212Z" fill="#16191F"/>
<path d="M44.0732 119.212C51.3332 119.212 58.5932 119.212 66.0732 119.212C66.0732 119.542 66.0732 119.872 66.0732 120.212C63.0947 120.505 63.0947 120.505 60.1162 120.798C57.7734 121.139 57.7734 121.139 55.0732 123.212C55.0732 123.872 55.0732 124.532 55.0732 125.212C53.6114 124.983 52.1537 124.728 50.6982 124.462C49.4801 124.253 49.4801 124.253 48.2373 124.04C46.0732 123.212 46.0732 123.212 44.0732 119.212Z" fill="#2E99AE"/>
<path d="M121.073 92.212C121.403 92.212 121.733 92.212 122.073 92.212C122.073 98.482 122.073 104.752 122.073 111.212C123.063 111.212 124.053 111.212 125.073 111.212C125.073 111.872 125.073 112.532 125.073 113.212C124.454 113.501 123.836 113.79 123.198 114.087C120.94 115.149 120.94 115.149 119.073 117.212C118.413 117.212 117.753 117.212 117.073 117.212C117.233 116.639 117.393 116.066 117.558 115.476C118.063 113.257 118.243 111.26 118.319 108.989C118.352 108.204 118.385 107.418 118.419 106.609C118.48 104.965 118.538 103.322 118.591 101.679C118.625 100.894 118.659 100.11 118.694 99.3019C118.719 98.5889 118.744 97.876 118.77 97.1415C119.073 95.212 119.073 95.212 121.073 92.212Z" fill="#121F30"/>
<path d="M93.0732 101.212C94.0632 101.212 95.0532 101.212 96.0732 101.212C96.0732 102.202 96.0732 103.192 96.0732 104.212C96.692 104.521 97.3107 104.831 97.9482 105.15C99.3232 105.837 100.698 106.525 102.073 107.212C102.073 107.872 102.073 108.532 102.073 109.212C102.671 109.336 103.269 109.46 103.886 109.587C106.073 110.212 106.073 110.212 109.073 112.212C101.12 112.836 101.12 112.836 97.1357 110.462C94.2548 107.319 93.0732 105.503 93.0732 101.212Z" fill="#36B3D2"/>
<path d="M27.0731 64.212C27.7331 64.212 28.3931 64.212 29.0731 64.212C29.6022 66.5018 30.1212 68.7939 30.6356 71.087C30.9257 72.3632 31.2157 73.6394 31.5146 74.9542C32.0731 78.212 32.0731 78.212 31.0731 80.212C29.7531 80.212 28.4331 80.212 27.0731 80.212C25.8909 76.6653 26.1798 74.2368 26.5106 70.5245C26.6125 69.345 26.7143 68.1656 26.8192 66.9503C26.903 66.0467 26.9868 65.1431 27.0731 64.212Z" fill="#2366A4"/>
<path d="M113.073 116.212C113.403 117.202 113.733 118.192 114.073 119.212C115.723 118.222 117.373 117.232 119.073 116.212C118.403 119.146 117.577 120.831 115.159 122.657C113.156 123.896 111.14 125.083 109.073 126.212C108.413 125.552 107.753 124.892 107.073 124.212C108.723 122.562 110.373 120.912 112.073 119.212C110.093 119.212 108.113 119.212 106.073 119.212C106.073 118.552 106.073 117.892 106.073 117.212C108.536 115.981 110.353 116.14 113.073 116.212Z" fill="#0C0E12"/>
<path d="M36.0732 87.212C36.4032 87.212 36.7332 87.212 37.0732 87.212C37.1338 88.0577 37.1944 88.9033 37.2568 89.7745C37.7931 97.2674 37.7931 97.2674 38.7607 104.712C39.08 108.289 38.7383 110.078 37.0732 113.212C34.6936 109.497 34.8378 106.235 34.8857 101.9C34.8921 100.625 34.8986 99.3498 34.9052 98.0363C35.0677 94.3375 35.4832 90.8604 36.0732 87.212Z" fill="#1F67A2"/>
<path d="M91.0732 110.212C91.0732 112.522 91.0732 114.832 91.0732 117.212C87.1132 117.212 83.1532 117.212 79.0732 117.212C79.0732 116.552 79.0732 115.892 79.0732 115.212C87.4603 110.212 87.4603 110.212 91.0732 110.212Z" fill="#226CBD"/>
<path d="M102.073 85.212C107.552 84.8468 107.552 84.8468 109.948 86.5245C111.073 88.212 111.073 88.212 111.073 91.212C110.413 91.212 109.753 91.212 109.073 91.212C109.073 91.872 109.073 92.532 109.073 93.212C107.093 93.212 105.113 93.212 103.073 93.212C102.448 91.337 102.448 91.337 102.073 89.212C102.733 88.552 103.393 87.892 104.073 87.212C103.413 86.552 102.753 85.892 102.073 85.212Z" fill="#0F1514"/>
<path d="M56.0732 105.212C57.3932 105.212 58.7132 105.212 60.0732 105.212C59.7781 108.065 59.2609 109.048 57.0732 110.962C53.0105 112.655 49.414 112.467 45.0732 112.212C46.9528 108.895 47.9727 108.245 51.6982 107.025C52.812 106.756 53.9257 106.488 55.0732 106.212C55.4032 105.882 55.7332 105.552 56.0732 105.212Z" fill="#33B8DA"/>
<path d="M16.0732 99.212C21.0732 101.212 26.0732 103.212 31.0732 105.212C30.7432 106.862 30.4132 108.512 30.0732 110.212C26.0373 108.843 23.398 107.016 20.2607 104.15C19.4705 103.437 18.6804 102.724 17.8662 101.989C17.2745 101.403 16.6829 100.816 16.0732 100.212C16.0732 99.882 16.0732 99.552 16.0732 99.212Z" fill="#236BB5"/>
<path d="M61.0732 132.212C61.7332 133.532 62.3932 134.852 63.0732 136.212C55.0732 140.212 55.0732 140.212 52.8857 141.212C50.5806 142.484 50.0335 143.811 49.0732 146.212C47.7532 145.552 46.4332 144.892 45.0732 144.212C49.8979 140.299 54.4356 136.89 60.0732 134.212C60.4032 133.552 60.7332 132.892 61.0732 132.212Z" fill="#18222E"/>
<path d="M46.0732 67.212C49.5158 66.7202 50.7894 67.0044 53.6357 69.087C57.9769 74.6527 60.8287 81.0347 60.0732 88.212C57.6534 84.5823 56.5387 80.9257 55.1709 76.8058C53.7253 73.3898 52.24 71.7954 48.9482 70.1495C47.0732 69.212 47.0732 69.212 46.0732 67.212Z" fill="#14293A"/>
<path d="M112.073 119.212C111.743 120.202 111.413 121.192 111.073 122.212C108.788 123.161 108.788 123.161 106.011 123.9C104.632 124.277 104.632 124.277 103.226 124.661C102.515 124.843 101.805 125.025 101.073 125.212C100.413 124.552 99.7532 123.892 99.0732 123.212C103.587 119.689 106.357 118.755 112.073 119.212Z" fill="#32AAC5"/>
<path d="M108.073 124.212C107.743 125.202 107.413 126.192 107.073 127.212C104.973 127.628 102.868 128.02 100.761 128.4C99.0031 128.73 99.0031 128.73 97.21 129.068C94.0732 129.212 94.0732 129.212 92.1553 127.763C91.7982 127.251 91.4411 126.739 91.0732 126.212C93.5301 125.683 95.9883 125.164 98.4482 124.65C99.1469 124.498 99.8456 124.347 100.565 124.191C105.847 123.099 105.847 123.099 108.073 124.212Z" fill="#142229"/>
<path d="M151.073 83.212C148.248 86.1417 145.285 88.7138 142.073 91.212C141.413 90.552 140.753 89.892 140.073 89.212C140.073 88.222 140.073 87.232 140.073 86.212C141.337 85.5124 142.61 84.8277 143.886 84.1495C144.593 83.7667 145.301 83.3838 146.03 82.9894C148.073 82.212 148.073 82.212 151.073 83.212Z" fill="#121316"/>
<path d="M34.0732 95.212C34.4032 95.212 34.7332 95.212 35.0732 95.212C35.4032 101.812 35.7332 108.412 36.0732 115.212C33.1033 110.757 32.9373 108.526 32.9482 103.15C32.9457 101.88 32.9431 100.61 32.9404 99.3019C33.0732 96.212 33.0732 96.212 34.0732 95.212Z" fill="#070909"/>
<path d="M0.0731579 70.212C2.60256 72.7414 2.44215 74.6567 2.788 78.1027C3.17278 80.949 4.06758 83.5305 5.07316 86.212C3.73982 86.212 2.40649 86.212 1.07316 86.212C-0.0554638 80.8511 -0.0237243 75.659 0.0731579 70.212Z" fill="#4B4F85"/>
<path d="M3.07335 72.212C4.6906 75.2215 5.74917 78.1831 6.69835 81.462C6.95874 82.3541 7.21913 83.2461 7.48741 84.1652C7.77745 85.1784 7.77745 85.1784 8.07335 86.212C7.08335 86.542 6.09335 86.872 5.07335 87.212C2.14173 81.5833 1.87139 78.4404 3.07335 72.212Z" fill="#1A191E"/>
<path d="M10.0732 33.212C11.8099 36.4372 12.9638 39.7253 14.0732 43.212C11.1032 42.717 11.1032 42.717 8.07324 42.212C8.94824 35.462 8.94824 35.462 10.0732 33.212Z" fill="#1E1F23"/>
<path d="M135.073 104.212C135.733 104.872 136.393 105.532 137.073 106.212C135.639 107.195 134.2 108.174 132.761 109.15C131.96 109.695 131.16 110.24 130.335 110.802C128.073 112.212 128.073 112.212 125.073 113.212C125.073 112.222 125.073 111.232 125.073 110.212C127.261 108.607 127.261 108.607 130.073 107.025C131.001 106.495 131.929 105.965 132.886 105.419C133.608 105.021 134.329 104.622 135.073 104.212Z" fill="#10131A"/>
<path d="M66.0733 127.212C66.4033 127.212 66.7333 127.212 67.0733 127.212C67.8562 133.318 65.1816 137.217 62.0733 142.212C61.7433 142.212 61.4133 142.212 61.0733 142.212C60.5013 137.35 62.3379 135.108 65.0733 131.212C65.8427 128.986 65.8427 128.986 66.0733 127.212Z" fill="#2484B3"/>
<path d="M72.0732 83.212C73.6982 83.1851 75.3232 83.1656 76.9482 83.1495C77.8532 83.1379 78.7581 83.1263 79.6904 83.1144C82.0732 83.212 82.0732 83.212 84.0732 84.212C84.0732 84.872 84.0732 85.532 84.0732 86.212C79.7832 86.212 75.4932 86.212 71.0732 86.212C71.4032 85.222 71.7332 84.232 72.0732 83.212Z" fill="#0C1418"/>
<path d="M47.0732 85.2121C49.9165 84.9815 51.5347 84.853 53.9482 86.4621C55.0732 88.2121 55.0732 88.2121 54.7607 90.3996C54.4204 91.2968 54.4204 91.2968 54.0732 92.2121C53.4132 91.2221 52.7532 90.2321 52.0732 89.2121C49.0077 88.4786 49.0077 88.4786 46.0732 88.2121C46.4032 87.2221 46.7332 86.2321 47.0732 85.2121Z" fill="#070707"/>
<path d="M76.0732 41.212C78.0732 42.212 78.0732 42.212 79.1982 45.2745C79.487 46.2439 79.7757 47.2133 80.0732 48.212C78.4232 47.882 76.7732 47.552 75.0732 47.212C75.0732 46.882 75.0732 46.552 75.0732 46.212C72.7632 45.882 70.4532 45.552 68.0732 45.212C68.0732 44.882 68.0732 44.552 68.0732 44.212C69.2076 44.0883 70.342 43.9645 71.5107 43.837C72.6864 43.6308 73.862 43.4245 75.0732 43.212C75.4032 42.552 75.7332 41.892 76.0732 41.212Z" fill="#17222E"/>
<path d="M58.6982 125.65C59.8868 125.751 61.0753 125.853 62.2998 125.958C63.215 126.042 64.1303 126.126 65.0732 126.212C65.0732 126.542 65.0732 126.872 65.0732 127.212C63.3251 127.435 61.5745 127.64 59.8232 127.837C58.8487 127.953 57.8742 128.069 56.8701 128.189C53.9389 128.213 52.528 127.743 50.0732 126.212C53.0171 124.74 55.4471 125.363 58.6982 125.65Z" fill="#172327"/>
<path d="M55.0732 87.212C56.3932 87.542 57.7132 87.872 59.0732 88.212C59.0732 93.162 59.0732 98.112 59.0732 103.212C58.7432 103.212 58.4132 103.212 58.0732 103.212C57.9405 102.392 57.8077 101.572 57.6709 100.728C57.4943 99.65 57.3177 98.5723 57.1357 97.462C56.9617 96.3947 56.7877 95.3273 56.6084 94.2277C56.1862 91.8486 55.7012 89.5429 55.0732 87.212Z" fill="#41C0DA"/>
<path d="M103.073 88.212C104.723 88.542 106.373 88.872 108.073 89.212C107.743 90.532 107.413 91.852 107.073 93.212C105.423 92.882 103.773 92.552 102.073 92.212C102.403 90.892 102.733 89.572 103.073 88.212Z" fill="#D4D7D5"/>
<path d="M35.0732 84.212C35.4032 84.212 35.7332 84.212 36.0732 84.212C36.1542 85.8362 36.2124 87.4616 36.2607 89.087C36.2955 89.992 36.3304 90.8969 36.3662 91.8292C36.2695 92.6156 36.1729 93.4019 36.0732 94.212C34.5882 95.202 34.5882 95.202 33.0732 96.212C33.2142 94.5866 33.3612 92.9617 33.5107 91.337C33.592 90.4321 33.6732 89.5272 33.7568 88.5948C34.0732 86.212 34.0732 86.212 35.0732 84.212Z" fill="#0A1318"/>
<path d="M140.073 95.212C140.733 95.542 141.393 95.872 142.073 96.212C139.719 100.135 137.429 101.051 133.073 102.212C132.743 101.222 132.413 100.232 132.073 99.212C133.36 98.5149 134.653 97.8296 135.948 97.1495C136.668 96.7667 137.387 96.3838 138.128 95.9894C138.77 95.7329 139.412 95.4763 140.073 95.212Z" fill="#0F1319"/>
<path d="M85.0732 90.212C89.6532 91.6583 89.6532 91.6583 91.4482 94.0245C92.2241 96.7401 91.821 98.52 91.0732 101.212C90.7432 101.212 90.4132 101.212 90.0732 101.212C89.8051 100.284 89.537 99.3558 89.2607 98.3995C88.1361 95.3809 87.3662 94.2965 85.0732 92.212C85.0732 91.552 85.0732 90.892 85.0732 90.212Z" fill="#0B1015"/>
<path d="M43.0732 120.212C47.5282 122.192 47.5282 122.192 52.0732 124.212C52.0732 124.872 52.0732 125.532 52.0732 126.212C45.3232 125.462 45.3232 125.462 43.0732 123.212C43.0732 122.222 43.0732 121.232 43.0732 120.212Z" fill="#0D161B"/>
<path d="M31.0733 97.212C31.4033 97.212 31.7333 97.212 32.0733 97.212C32.4033 101.832 32.7333 106.452 33.0733 111.212C32.0833 111.212 31.0933 111.212 30.0733 111.212C29.8888 101.802 29.8888 101.802 31.0733 97.212Z" fill="#1F6FC1"/>
<path d="M126.073 63.212C127.393 63.212 128.713 63.212 130.073 63.212C130.403 65.522 130.733 67.832 131.073 70.212C130.083 70.212 129.093 70.212 128.073 70.212C128.073 69.222 128.073 68.232 128.073 67.212C127.413 67.212 126.753 67.212 126.073 67.212C126.073 65.892 126.073 64.572 126.073 63.212Z" fill="#1D2F42"/>
<path d="M103.073 60.212C108.948 64.837 108.948 64.837 110.073 68.212C108.093 67.552 106.113 66.892 104.073 66.212C103.743 64.232 103.413 62.252 103.073 60.212Z" fill="#2064AA"/>
<path d="M37.0732 114.212C37.9008 114.442 37.9008 114.442 38.7451 114.677C41.2764 115.259 43.7377 115.536 46.3232 115.775C47.2153 115.858 48.1073 115.942 49.0264 116.028C49.7018 116.089 50.3773 116.15 51.0732 116.212C51.0732 116.542 51.0732 116.872 51.0732 117.212C49.636 117.381 48.1984 117.547 46.7607 117.712C45.9602 117.805 45.1597 117.898 44.335 117.993C42.0732 118.212 42.0732 118.212 39.0732 118.212C38.4132 116.892 37.7532 115.572 37.0732 114.212Z" fill="#225593"/>
<path d="M49.0732 88.212C51.0532 88.707 51.0532 88.707 53.0732 89.212C52.7432 90.532 52.4132 91.852 52.0732 93.212C50.7532 92.882 49.4332 92.552 48.0732 92.212C48.4032 90.892 48.7332 89.572 49.0732 88.212Z" fill="#E7E9E6"/>
<path d="M16.0732 99.212C19.5325 100.461 22.2202 101.887 25.0732 104.212C24.0832 104.872 23.0932 105.532 22.0732 106.212C20.0932 103.902 18.1132 101.592 16.0732 99.212Z" fill="#205E9C"/>
<path d="M72.0732 112.212C73.6053 112.464 75.1258 112.788 76.6357 113.15C77.462 113.344 78.2883 113.539 79.1396 113.739C80.0968 113.973 80.0968 113.973 81.0732 114.212C81.0732 114.542 81.0732 114.872 81.0732 115.212C75.0186 115.407 75.0186 115.407 73.0732 115.212C72.4132 114.552 71.7532 113.892 71.0732 113.212C71.4032 112.882 71.7332 112.552 72.0732 112.212Z" fill="#0C161C"/>
<path d="M110.073 104.212C110.073 107.318 109.534 108.565 108.073 111.212C106.093 110.552 104.113 109.892 102.073 109.212C102.651 108.944 103.228 108.676 103.823 108.4C106.106 107.195 108.047 105.804 110.073 104.212Z" fill="#3BC1E3"/>
<path d="M92.0732 103.212C92.7332 103.542 93.3932 103.872 94.0732 104.212C93.6752 107.098 93.2832 108.034 91.0107 109.962C90.3714 110.375 89.732 110.787 89.0732 111.212C88.4132 110.882 87.7532 110.552 87.0732 110.212C88.0323 109.315 88.0323 109.315 89.0107 108.4C91.2763 106.304 91.2763 106.304 92.0732 103.212Z" fill="#1D5C9E"/>
<path d="M103.073 59.212C106.329 59.5608 107.092 60.2334 109.323 62.7745C109.901 63.5789 110.478 64.3833 111.073 65.212C107.818 64.8632 107.055 64.1907 104.823 61.6495C104.246 60.8452 103.668 60.0408 103.073 59.212Z" fill="#0C0C09"/>
<path d="M36.0732 113.212C37.3932 114.862 38.7132 116.512 40.0732 118.212C39.0832 119.697 39.0832 119.697 38.0732 121.212C36.5107 119.462 36.5107 119.462 35.0732 117.212C35.3857 114.962 35.3857 114.962 36.0732 113.212Z" fill="#10161E"/>
</svg>
