<svg width="153" height="151" viewBox="0 0 153 151" fill="none" xmlns="http://www.w3.org/2000/svg">
<path d="M114.137 9.55028C114.632 10.0453 114.632 10.0453 115.137 10.5503C115.797 8.90028 116.457 7.25028 117.137 5.55028C123.769 6.35171 127.058 10.5693 131.137 15.5503C140.806 29.6761 144.057 43.6383 145.137 60.5503C145.467 56.5903 145.797 52.6303 146.137 48.5503C153.75 59.9707 153.245 76.2371 150.949 89.1128C146.135 110.742 135.528 127.212 117.137 139.55C107.309 145.55 107.309 145.55 103.137 145.55C102.642 143.075 102.642 143.075 102.137 140.55C101.807 142.86 101.477 145.17 101.137 147.55C96.8467 148.54 92.5567 149.53 88.1367 150.55C88.4667 147.25 88.7967 143.95 89.1367 140.55C89.7967 140.55 90.4567 140.55 91.1367 140.55C90.4264 138.147 89.6946 135.755 88.9492 133.363C88.7526 132.689 88.556 132.016 88.3535 131.322C86.8254 126.503 84.9637 123.863 81.1367 120.55C81.5904 121.231 82.0442 121.912 82.5117 122.613C84.3132 125.869 85.1757 128.963 86.1367 132.55C86.7787 134.227 87.4356 135.898 88.1367 137.55C87.1467 137.55 86.1567 137.55 85.1367 137.55C85.4873 138.087 85.8379 138.623 86.1992 139.175C87.7762 143.17 86.452 146.604 85.1367 150.55C78.5367 150.55 71.9367 150.55 65.1367 150.55C63.7974 140.372 63.7974 140.372 66.1367 136.55C65.4767 136.55 64.8167 136.55 64.1367 136.55C65.6772 131.535 67.166 126.936 70.1367 122.55C67.0554 123.507 66.1545 124.521 64.4492 127.3C61.9414 133.782 60.9547 142.889 63.1367 149.55C60.8267 149.22 58.5167 148.89 56.1367 148.55C55.8067 143.93 55.4767 139.31 55.1367 134.55C53.3255 136.361 53.7547 139.163 53.5742 141.613C53.4904 142.718 53.4066 143.822 53.3203 144.96C53.2294 146.242 53.2294 146.242 53.1367 147.55C50.1667 146.56 50.1667 146.56 47.1367 145.55C46.4024 138.795 48.8607 134.365 52.1367 128.55C48.7643 131.526 47.3033 134.05 45.8867 138.3C45.5515 139.285 45.2163 140.27 44.871 141.285C44.6287 142.032 44.3863 142.78 44.1367 143.55C26.7466 137.127 14.2035 123.098 6.41791 106.64C2.01405 96.0198 -0.0377279 86.1051 0.0741605 74.6753C0.0786722 73.7961 0.0831839 72.917 0.0878324 72.0112C0.0995371 69.8575 0.11747 67.7039 0.13666 65.5503C1.12666 65.0553 1.12666 65.0553 2.13666 64.5503C2.35709 65.5499 2.35709 65.5499 2.58197 66.5698C4.33672 73.7804 6.67403 80.5359 11.1367 86.5503C14.2813 88.3605 14.2813 88.3605 17.1367 88.5503C17.1367 87.8903 17.1367 87.2303 17.1367 86.5503C16.3761 86.3337 15.6156 86.1172 14.832 85.894C8.75979 82.8667 6.44826 73.8747 4.26166 67.7378C0.629266 54.2676 3.2887 39.6538 9.74213 27.4878C11.1367 25.5503 11.1367 25.5503 14.2617 23.9253C17.1367 23.5503 17.1367 23.5503 20.1367 23.5503C20.0065 22.8864 19.8763 22.2225 19.7421 21.5386C18.6092 14.2856 18.6092 14.2856 21.1992 10.6753C22.1685 9.97403 23.1379 9.27278 24.1367 8.55028C25.1267 7.76653 26.1167 6.98278 27.1367 6.17528C30.1367 4.55028 30.1367 4.55028 33.0117 4.80028C33.7129 5.04778 34.4142 5.29528 35.1367 5.55028C35.7967 7.53028 36.4567 9.51028 37.1367 11.5503C38.1885 10.8078 39.2404 10.0653 40.3242 9.30028C45.8549 5.83252 51.8742 4.22564 58.1367 2.55028C58.7672 2.37078 59.3977 2.19128 60.0473 2.00633C77.9125 -2.86163 97.6741 2.05715 114.137 9.55028Z" fill="#0D0F10"/>
<path d="M99.0844 3.96583C100.995 4.5101 102.931 4.96559 104.867 5.41358C108.664 6.66099 110.543 7.48016 113.137 10.5503C114.952 16.5988 114.971 22.9444 115.061 29.2129C115.153 32.0518 115.645 34.7557 116.137 37.5503C116.684 47.42 116.154 56.0681 113.137 65.5503C111.656 63.5912 110.191 61.6281 108.777 59.6206C103.756 52.5971 99.226 48.2164 91.0741 45.1128C86.0913 43.2016 83.5632 41.3292 80.4491 37.0659C78.4289 34.733 76.0768 34.1803 73.1366 33.5503C73.6316 35.5303 73.6316 35.5303 74.1366 37.5503C71.1666 37.5503 68.1966 37.5503 65.1366 37.5503C65.7966 39.2003 66.4566 40.8503 67.1366 42.5503C66.5076 42.7089 65.8785 42.8674 65.2304 43.0308C54.3783 45.9889 45.0162 51.5952 39.1718 61.48C37.6882 64.4472 36.8768 67.3207 36.1366 70.5503C35.4766 70.5503 34.8166 70.5503 34.1366 70.5503C28.3396 53.7543 29.4374 38.9628 35.2616 22.3394C36.0471 19.8358 36.2722 18.0703 36.2616 15.4878C36.5519 13.0302 36.8178 11.8916 38.5194 10.0698C44.3833 6.08289 51.3606 4.36305 58.1366 2.5503C58.7671 2.3708 59.3977 2.1913 60.0473 2.00636C72.9417 -1.50715 86.4239 0.294673 99.0844 3.96583Z" fill="#9B9B9B"/>
<path d="M77.1367 37.5503C79.0117 38.2378 79.0117 38.2378 81.1367 39.5503C81.4255 40.3959 81.7142 41.2415 82.0117 42.1128C82.383 42.9172 82.7542 43.7215 83.1367 44.5503C85.1322 44.91 87.1332 45.2391 89.1367 45.5503C96.5617 48.6027 102.673 52.786 107.137 59.5503C107.137 60.2103 107.137 60.8703 107.137 61.5503C106.085 61.4265 105.033 61.3028 103.949 61.1753C99.9382 61.1739 99.9382 61.1739 97.2617 64.3003C95.019 67.7121 95.019 67.7121 94.1367 71.5503C94.7555 70.6015 95.3742 69.6528 96.0117 68.6753C99.3864 63.7125 99.3864 63.7125 102.449 63.0503C105.718 63.6584 107.048 64.9571 109 67.605C113.624 75.5181 114.115 84.5954 113.137 93.5503C111.769 98.0157 110.104 100.905 106.137 103.55C104.652 102.56 104.652 102.56 103.137 101.55C100.23 101.181 100.23 101.181 96.9375 101.136C95.729 101.098 94.5205 101.059 93.2754 101.019C92.0128 100.988 90.7501 100.957 89.4492 100.925C88.175 100.887 86.9007 100.848 85.5879 100.808C82.4377 100.714 79.2874 100.628 76.1367 100.55C77.3196 99.6176 77.3196 99.6176 78.5264 98.666C80.761 96.8548 82.5499 95.1199 84.3867 92.9253C84.8869 92.3349 85.387 91.7445 85.9024 91.1362C88.6056 87.663 88.5781 84.89 88.1367 80.5503C85.964 77.9201 84.19 76.0769 81.1367 74.5503C72.4091 73.646 72.4091 73.646 64.3867 76.4253C61.3395 79.3032 61.1801 80.0297 60.8242 84.3003C60.9217 88.7907 62.0556 91.1685 65.1367 94.5503C68.0357 96.4414 71.0215 98.046 74.1367 99.5503C74.1367 99.8803 74.1367 100.21 74.1367 100.55C73.3095 100.57 72.4822 100.59 71.6299 100.61C67.8818 100.706 64.1344 100.815 60.3867 100.925C59.0848 100.956 57.7828 100.987 56.4414 101.019C55.191 101.058 53.9406 101.096 52.6524 101.136C51.5003 101.168 50.3482 101.199 49.1611 101.231C46.2884 101.534 44.5749 102.059 42.1367 103.55C36.1049 96.9153 35.7391 90.5655 35.8789 81.9175C36.2996 76.4237 37.0307 70.2226 40.5313 65.7808C42.1367 64.5503 42.1367 64.5503 45.5117 63.9878C49.3392 64.5817 49.766 64.7686 52.0742 67.5503C52.7549 68.5403 53.4355 69.5303 54.1367 70.5503C52.8673 65.7259 52.8673 65.7259 49.1367 62.5503C47.0796 62.3097 47.0796 62.3097 44.9492 62.4253C43.6911 62.4665 42.433 62.5078 41.1367 62.5503C46.1612 53.9667 53.8959 47.4522 63.6055 44.9019C65.1822 44.5576 66.7642 44.2362 68.3516 43.9448C70.1514 43.7149 70.1514 43.7149 71.1367 42.5503C70.1467 41.5603 69.1567 40.5703 68.1367 39.5503C72.084 39.3709 74.7348 39.4568 78.1367 41.5503C77.6417 39.5703 77.6417 39.5703 77.1367 37.5503Z" fill="#226AB1"/>
<path d="M146.137 48.5503C153.75 59.9707 153.245 76.2371 150.949 89.1128C146.135 110.742 135.528 127.212 117.137 139.55C107.31 145.55 107.31 145.55 103.137 145.55C102.934 144.425 102.934 144.425 102.727 143.277C101.044 135.278 98.2046 129.898 93.1367 123.55C91.9638 122.076 90.7967 120.597 89.6367 119.113C89.1314 118.495 88.6261 117.878 88.1055 117.242C87.7858 116.684 87.4661 116.125 87.1367 115.55C87.4667 114.56 87.7967 113.57 88.1367 112.55C91.0156 111.558 91.0156 111.558 94.6992 110.675C104.346 108.115 104.346 108.115 111.492 101.535C113.64 98.9425 115.599 98.3956 118.762 97.3003C127.58 93.8243 134.457 87.8185 139.137 79.5503C139.16 76.826 139.16 76.826 138.137 74.5503C137.642 73.0653 137.642 73.0653 137.137 71.5503C138.56 71.0553 138.56 71.0553 140.012 70.5503C143.433 68.7974 143.433 68.7974 144.449 65.1128C145.459 59.6556 145.786 54.0825 146.137 48.5503Z" fill="#7B7C7B"/>
<path d="M51.3591 103.405C52.4738 103.399 53.5884 103.392 54.7368 103.386C56.557 103.384 56.557 103.384 58.4141 103.382C60.2693 103.377 60.2693 103.377 62.162 103.372C64.784 103.367 67.4061 103.365 70.0281 103.365C72.7238 103.365 75.4193 103.358 78.115 103.344C81.9856 103.326 85.8559 103.321 89.7266 103.32C90.938 103.313 92.1495 103.305 93.3977 103.298C94.5155 103.301 95.6333 103.304 96.7849 103.307C97.7723 103.306 98.7597 103.305 99.777 103.303C102.137 103.55 102.137 103.55 104.137 105.55C98.1976 108.057 92.4339 110.151 86.1367 111.55C85.7028 115.467 85.8243 117.112 88.1484 120.374C89.0314 121.319 89.9145 122.264 90.8242 123.238C96.2738 129.361 101.363 136.187 101.449 144.738C101.346 145.666 101.243 146.594 101.137 147.55C96.8467 148.54 92.5567 149.53 88.1367 150.55C88.6317 145.6 88.6317 145.6 89.1367 140.55C89.7967 140.55 90.4567 140.55 91.1367 140.55C90.4264 138.147 89.6946 135.755 88.9492 133.363C88.7526 132.689 88.5561 132.016 88.3535 131.322C86.8255 126.503 84.9638 123.863 81.1367 120.55C81.8173 121.571 81.8173 121.571 82.5117 122.613C84.3133 125.869 85.1758 128.963 86.1367 132.55C86.7787 134.227 87.4357 135.898 88.1367 137.55C87.1467 137.55 86.1567 137.55 85.1367 137.55C85.4873 138.087 85.838 138.623 86.1992 139.175C87.7763 143.17 86.452 146.604 85.1367 150.55C78.5367 150.55 71.9367 150.55 65.1367 150.55C63.7974 140.372 63.7974 140.372 66.1367 136.55C65.4767 136.55 64.8167 136.55 64.1367 136.55C65.6773 131.535 67.166 126.936 70.1367 122.55C67.0555 123.507 66.1545 124.521 64.4492 127.3C61.9415 133.782 60.9547 142.889 63.1367 149.55C60.8267 149.22 58.5167 148.89 56.1367 148.55C55.8067 143.93 55.4767 139.31 55.1367 134.55C53.3256 136.361 53.7547 139.163 53.5742 141.613C53.4904 142.718 53.4066 143.822 53.3203 144.96C53.2597 145.815 53.1991 146.67 53.1367 147.55C51.1567 146.89 49.1767 146.23 47.1367 145.55C46.442 139.02 48.2516 134.802 52.1367 129.55C53.815 127.853 55.5253 126.188 57.2617 124.55C61.9345 120.114 63.7256 116.799 65.1367 110.55C64.023 110.447 62.9092 110.344 61.7617 110.238C56.1392 109.535 49.2423 108.656 45.1367 104.55C46.8397 102.847 49.0303 103.414 51.3591 103.405Z" fill="#3BB6CE"/>
<path d="M1.13672 64.5503C1.46672 64.5503 1.79672 64.5503 2.13672 64.5503C2.28367 65.2167 2.43063 65.8832 2.58203 66.5698C6.10941 81.0645 12.8376 91.25 25.4531 99.0698C29.8647 101.504 34.0668 102.845 38.9766 103.792C41.1367 104.55 41.1367 104.55 43.8984 106.48C47.5733 108.829 50.8157 109.808 55.0117 110.8C55.7001 110.973 56.3884 111.146 57.0977 111.324C58.7748 111.743 60.4554 112.148 62.1367 112.55C61.6589 117.039 60.2755 118.768 56.9492 121.738C50.4717 127.937 46.0503 134.748 44.1367 143.55C26.7466 137.127 14.2036 123.098 6.41797 106.64C2.03235 96.0638 -0.039997 86.1239 0.0117188 74.7378C0.00785156 73.867 0.00398438 72.9963 0 72.0991C0.00128906 71.2722 0.00257813 70.4453 0.00390625 69.5933C0.00503418 68.8407 0.00616211 68.0881 0.00732422 67.3127C0.136719 65.5503 0.136719 65.5503 1.13672 64.5503Z" fill="#7C7B7B"/>
<path d="M113.137 10.5503C113.467 17.1503 113.797 23.7503 114.137 30.5503C110.046 28.9141 106.386 27.114 102.512 25.0503C89.2392 18.3122 73.1739 17.394 58.7617 21.1128C49.0687 24.295 41.054 29.0869 34.1367 36.5503C33.4767 36.5503 32.8167 36.5503 32.1367 36.5503C31.8067 37.5403 31.4767 38.5303 31.1367 39.5503C31.6079 33.4245 33.1773 28.2292 35.2461 22.4526C36.0471 19.8422 36.3254 17.814 36.3867 15.1128C37.1929 11.2835 37.3615 10.8864 40.3867 8.80027C45.9627 5.82175 52.0565 4.17687 58.1367 2.55027C58.7672 2.37077 59.3977 2.19127 60.0474 2.00633C77.9817 -2.88047 97.3011 1.61739 113.137 10.5503Z" fill="#7B7B7B"/>
<path d="M35.1367 5.55027C35.7825 14.7944 34.1291 21.895 30.8242 30.4878C26.4053 42.2644 22.5553 53.6563 22.8242 66.3628C22.821 67.1433 22.8178 67.9238 22.8145 68.728C22.8752 75.3435 23.9817 81.4848 26.7617 87.5503C27.2155 88.5403 27.6692 89.5303 28.1367 90.5503C16.2079 88.4945 16.2079 88.4945 12.1367 84.5503C9.6748 80.727 7.86274 76.7502 6.13673 72.5503C5.79384 71.7317 5.45095 70.9132 5.09767 70.0698C0.376851 56.9 2.91507 42.4039 8.44923 29.9253C10.2186 26.5897 10.8116 25.7193 14.2617 23.9253C17.1367 23.5503 17.1367 23.5503 20.1367 23.5503C20.0065 22.8864 19.8763 22.2225 19.7422 21.5386C18.6093 14.2855 18.6093 14.2855 21.1992 10.6753C22.1686 9.97402 23.138 9.27277 24.1367 8.55027C25.1267 7.76652 26.1167 6.98277 27.1367 6.17527C30.5925 4.30339 31.4867 4.60077 35.1367 5.55027Z" fill="#8D7296"/>
<path d="M117.137 5.55029C122.642 6.04741 125.104 8.83239 128.789 12.6831C138.877 25.0041 143.299 38.3731 143.387 54.1753C143.407 55.1163 143.428 56.0573 143.449 57.0269C143.454 57.9344 143.459 58.8419 143.465 59.7769C143.479 61.0078 143.479 61.0078 143.493 62.2637C143.045 65.138 142.142 66.4628 140.137 68.5503C136.449 69.8003 136.449 69.8003 133.137 70.5503C133.817 71.4578 134.498 72.3653 135.199 73.3003C137.137 76.5503 137.137 76.5503 137.168 78.5815C135.503 81.7597 132.868 82.1489 129.574 83.3003C128.377 83.7283 127.179 84.1562 125.945 84.5972C125.018 84.9117 124.092 85.2262 123.137 85.5503C123.353 84.4855 123.57 83.4208 123.793 82.3237C127.569 63.0414 126.813 44.1438 118.324 26.0503C115.378 19.7232 115.451 13.4176 116.137 6.55029C116.467 6.22029 116.797 5.89029 117.137 5.55029Z" fill="#8C7093"/>
<path d="M35.1367 6.55029C35.4667 6.55029 35.7967 6.55029 36.1367 6.55029C37.7802 16.0529 36.5385 23.05 33.3633 31.9214C29.8611 42.283 29.6457 54.2203 33.4805 64.4995C34.1367 66.5503 34.1367 66.5503 34.1367 70.5503C34.7967 70.5503 35.4567 70.5503 36.1367 70.5503C36.2605 69.4365 36.3842 68.3228 36.5117 67.1753C37.1367 63.5503 37.1367 63.5503 39.1367 61.5503C40.4567 61.5503 41.7767 61.5503 43.1367 61.5503C44.5908 61.3956 44.5908 61.3956 46.0742 61.2378C49.1367 61.5503 49.1367 61.5503 51.9492 63.7378C54.125 66.5352 54.8387 68.0734 55.1367 71.5503C53.1367 69.5503 51.1367 67.5503 49.1367 65.5503C45.721 65.05 45.721 65.05 42.1367 65.5503C36.6848 71.5662 36.7594 80.7551 36.875 88.4175C37.333 93.8994 39.0771 97.9608 42.1367 102.55C43.4627 102.912 44.7961 103.248 46.1367 103.55C46.4667 104.21 46.7967 104.87 47.1367 105.55C49.2082 106.395 49.2082 106.395 51.6992 107.05C52.5951 107.304 53.491 107.558 54.4141 107.82C57.9786 108.776 61.5486 109.686 65.1367 110.55C65.011 116.585 63.0744 119.36 59.0234 123.753C53.9867 128.55 53.9867 128.55 51.1367 128.55C52.5184 125.393 54.1067 123.434 56.6367 121.113C59.3971 118.45 61.1047 116.334 62.1367 112.55C60.8373 112.468 59.538 112.385 58.1992 112.3C51.9976 111.617 46.8109 109.246 41.5742 105.925C38.9021 104.418 36.3382 103.882 33.3711 103.191C25.0288 100.799 17.9653 95.928 12.1367 89.5503C12.1367 88.8903 12.1367 88.2303 12.1367 87.5503C17.5553 87.3245 21.9116 88.0836 27.1367 89.5503C26.8596 89.0424 26.5824 88.5345 26.2969 88.0112C25.9346 87.3229 25.5724 86.6345 25.1992 85.9253C24.8396 85.2524 24.4799 84.5795 24.1094 83.8862C16.2528 65.0177 25.311 42.2949 31.8149 24.5125C33.9406 18.5525 35.2391 12.9287 35.1367 6.55029Z" fill="#0F1215"/>
<path d="M83.25 74.3433C85.9124 76.0676 87.3758 77.9089 89.1367 80.5503C89.5971 84.617 89.4452 86.9457 87.5742 90.6128C85.6093 92.9808 83.8135 94.7744 81.4844 96.7339C80.8567 97.2643 80.229 97.7946 79.5823 98.3411C79.1052 98.7401 78.6282 99.1392 78.1367 99.5503C79.2413 99.58 79.2413 99.58 80.3682 99.6104C83.708 99.7057 87.0473 99.8153 90.3867 99.9253C91.5456 99.9562 92.7045 99.9872 93.8984 100.019C95.571 100.077 95.571 100.077 97.2773 100.136C98.3038 100.168 99.3302 100.199 100.388 100.231C103.105 100.547 104.806 101.161 107.137 102.55C107.797 101.89 108.457 101.23 109.137 100.55C110.127 100.55 111.117 100.55 112.137 100.55C110.011 105.469 106.899 107.317 102.137 109.55C97.5131 111.083 92.8619 112.362 88.1367 113.55C89.5003 117.508 91.298 120.193 94.0117 123.363C97.4837 127.614 100.185 131.404 102.137 136.55C101.223 138.777 101.223 138.777 100.137 140.55C99.6437 139.442 99.6437 139.442 99.1406 138.312C95.8577 131.31 92.1541 125.797 86.8945 120.121C84.7768 117.024 84.7831 115.226 85.1367 111.55C85.6936 111.369 86.2505 111.187 86.8242 111C91.9787 109.302 97.0668 107.486 102.137 105.55C102.137 105.22 102.137 104.89 102.137 104.55C83.3267 104.22 64.5167 103.89 45.1367 103.55C45.4667 102.56 45.7967 101.57 46.1367 100.55C54.7167 100.22 63.2967 99.8903 72.1367 99.5503C67.6817 96.5803 67.6817 96.5803 63.1367 93.5503C60.1162 90.0721 59.6033 86.9704 59.7812 82.48C60.358 79.3491 61.8647 77.6961 64.1367 75.5503C69.3818 72.2104 77.5149 72.1913 83.25 74.3433Z" fill="#101519"/>
<path d="M132.137 91.5503C131.202 103.387 123.054 112.238 114.613 119.816C109.728 123.875 104.938 126.972 99.1367 129.55C95.9228 126.531 93.047 123.347 90.2617 119.925C89.3375 118.792 89.3375 118.792 88.3945 117.636C87.9795 116.948 87.5644 116.26 87.1367 115.55C87.4667 114.56 87.7967 113.57 88.1367 112.55C91.0156 111.558 91.0156 111.558 94.6992 110.675C104.335 108.124 104.335 108.124 111.473 101.554C113.684 98.8917 115.853 98.1944 119.074 96.9878C123.423 95.3508 123.423 95.3508 127.328 92.8979C129.137 91.5503 129.137 91.5503 132.137 91.5503Z" fill="#9C9C9C"/>
<path d="M45.3866 63.9878C49.9338 64.6699 51.0964 65.796 53.7812 69.3589C57.7668 75.8025 60.0371 81.961 59.1367 89.5503C57.4539 93.4206 55.983 94.9633 52.1366 96.5503C49.0629 97.0727 46.2089 97.0979 43.1366 96.5503C39.8549 94.0206 38.4442 92.473 37.1366 88.5503C36.1921 73.074 36.1921 73.074 40.1366 66.5503C42.1366 64.5503 42.1366 64.5503 45.3866 63.9878Z" fill="#3CB9DA"/>
<path d="M102.512 62.9878C106.404 63.8219 108.056 66.3767 110.137 69.5503C113.03 74.6474 112.897 80.441 111.531 86.0269C110.382 89.6073 109.237 92.3994 107.137 95.5503C103.531 96.7522 100.926 96.877 97.1367 96.5503C94.3834 94.7547 92.6104 93.4977 91.1367 90.5503C89.9383 81.2367 92.0957 74.3877 97.1367 66.5503C99.0233 64.3548 99.6684 63.6612 102.512 62.9878Z" fill="#44BFD8"/>
<path d="M23.1367 98.5503C23.7658 98.8158 24.3948 99.0814 25.043 99.355C29.1234 101.039 33.0615 102.628 37.3867 103.55C41.1367 104.55 41.1367 104.55 43.8789 106.472C47.5635 108.823 50.8077 109.806 55.0117 110.8C55.7001 110.973 56.3884 111.146 57.0977 111.324C58.7748 111.743 60.4554 112.148 62.1367 112.55C61.7194 117.478 59.5869 119.528 56.0742 122.863C55.1551 123.746 54.236 124.629 53.2891 125.539C52.2237 126.534 52.2237 126.534 51.1367 127.55C39.7698 124.35 30.9938 114.509 24.9805 104.656C23.8749 102.552 23.1367 100.95 23.1367 98.5503Z" fill="#9E9D9D"/>
<path d="M116.137 26.5503C123.975 34.3887 124.321 50.5614 124.387 61.0503C124.332 71.1987 123.044 80.1372 119.137 89.5503C123.427 87.9003 127.717 86.2503 132.137 84.5503C130.297 88.2299 129.605 89.3024 126.512 91.6128C125.88 92.0988 125.248 92.5847 124.598 93.0854C121.25 95.0783 117.81 96.2527 114.137 97.5503C114.061 93.6401 114.008 89.7301 113.972 85.8193C113.95 83.8506 113.912 81.8821 113.873 79.9136C113.818 72.6338 114.475 66.4189 116.458 59.4268C117.61 54.5436 117.493 49.7288 117.387 44.7378C117.382 43.7536 117.376 42.7694 117.371 41.7554C117.316 36.5935 117.017 31.6375 116.137 26.5503Z" fill="#2262A6"/>
<path d="M79.1367 75.5503C82.9922 77.5469 84.7348 78.9474 87.1367 82.5503C86.8785 86.4242 84.5811 88.6869 82.1367 91.5503C81.5386 92.4784 80.9405 93.4066 80.3242 94.3628C78.1367 96.5503 78.1367 96.5503 74.9492 97.4878C68.9738 96.0184 65.415 91.6424 62.1367 86.5503C61.6482 83.5929 61.6712 82.261 63.3164 79.7495C68.2939 75.3111 72.556 74.2602 79.1367 75.5503Z" fill="#102241"/>
<path d="M27.1367 46.5503C27.4667 46.5503 27.7967 46.5503 28.1367 46.5503C28.1509 47.3263 28.1651 48.1023 28.1797 48.9019C28.4557 55.1541 29.2256 60.2552 31.6367 66.0503C34.3999 73.0889 34.7611 79.6567 34.8594 87.1792C34.9376 92.3591 35.4589 96.6373 37.1367 101.55C29.8031 99.2585 23.983 96.5758 18.1367 91.5503C21.0377 90.0998 22.6964 91.0967 25.7617 91.9878C26.7646 92.2753 27.7675 92.5627 28.8008 92.8589C29.5716 93.0871 30.3425 93.3152 31.1367 93.5503C30.799 92.7885 30.4613 92.0266 30.1133 91.2417C23.8277 76.6904 22.6521 64.1674 26.1367 48.5503C26.4667 47.8903 26.7967 47.2303 27.1367 46.5503Z" fill="#2467B2"/>
<path d="M64.1367 115.55C66.1367 117.55 66.1367 117.55 67.1367 120.55C68.1267 120.88 69.1167 121.21 70.1367 121.55C69.3529 122.272 68.5692 122.994 67.7617 123.738C63.4632 128.343 62.8532 132.419 62.4492 138.613C62.3628 139.821 62.2764 141.028 62.1875 142.273C62.1451 145.008 62.2854 146.984 63.1367 149.55C60.8267 149.22 58.5167 148.89 56.1367 148.55C55.8067 143.93 55.4767 139.31 55.1367 134.55C53.3255 136.361 53.7547 139.163 53.5742 141.613C53.4904 142.718 53.4066 143.822 53.3203 144.96C53.2597 145.815 53.1991 146.67 53.1367 147.55C51.1567 146.89 49.1767 146.23 47.1367 145.55C46.4408 139.009 48.2634 134.817 52.1367 129.55C54.6508 126.866 57.2383 124.318 59.9296 121.812C61.9336 119.758 63.0603 118.178 64.1367 115.55Z" fill="#1D72B3"/>
<path d="M85.1368 117.55C92.1672 124.155 100.251 132.662 101.375 142.671C101.387 144.613 101.387 144.613 101.137 147.55C94.7018 149.035 94.7018 149.035 88.1368 150.55C88.4668 147.25 88.7968 143.95 89.1368 140.55C89.7968 140.55 90.4568 140.55 91.1368 140.55C90.3489 138.132 89.5566 135.716 88.7618 133.3C88.5401 132.618 88.3184 131.936 88.0899 131.234C87.1777 128.47 86.2663 125.806 84.9493 123.207C84.1368 121.55 84.1368 121.55 84.5118 119.3C84.7181 118.723 84.9243 118.145 85.1368 117.55Z" fill="#1E68AC"/>
<path d="M104.137 72.5503C106.574 74.4878 106.574 74.4878 108.137 77.5503C108.569 82.2518 107.749 86.2768 104.949 90.1128C102.137 92.5503 102.137 92.5503 99.0116 93.1128C96.1366 92.5503 96.1366 92.5503 94.3241 91.5503C92.4467 88.3883 92.0134 85.1637 92.1366 81.5503C94.543 75.1732 96.891 71.3673 104.137 72.5503Z" fill="#0E1215"/>
<path d="M51.1366 72.5503C54.679 76.1885 56.2866 78.9048 56.3866 83.9253C56.3402 86.8089 56.1841 88.4421 55.0116 91.1128C53.1366 92.5503 53.1366 92.5503 50.2616 93.1128C46.1709 92.3765 44.7564 90.694 42.1366 87.5503C40.4069 84.0908 40.6596 80.333 41.1366 76.5503C43.765 72.4056 46.3612 71.6549 51.1366 72.5503Z" fill="#0F1417"/>
<path d="M36.1367 78.5503C36.4667 78.5503 36.7967 78.5503 37.1367 78.5503C37.2346 79.4423 37.3326 80.3344 37.4335 81.2534C37.5831 82.4239 37.7326 83.5944 37.8867 84.8003C38.0259 85.9604 38.1651 87.1206 38.3085 88.3159C39.2436 91.9678 40.1067 93.3477 43.1367 95.5503C45.3505 96.1028 45.3505 96.1028 47.6367 95.9253C48.3895 95.9124 49.1423 95.8995 49.9179 95.8862C52.413 95.5085 54.0276 94.9383 56.1367 93.5503C57.2416 91.8508 57.2416 91.8508 57.8867 89.9253C58.2992 88.8115 58.7117 87.6978 59.1367 86.5503C59.5285 87.1072 59.9204 87.664 60.3242 88.2378C64.3491 93.3731 68.4379 96.5333 74.1367 99.5503C74.1367 99.8803 74.1367 100.21 74.1367 100.55C73.3094 100.57 72.4821 100.59 71.6298 100.61C67.8818 100.706 64.1343 100.815 60.3867 100.925C59.0847 100.956 57.7828 100.987 56.4413 101.019C55.191 101.058 53.9406 101.096 52.6523 101.136C50.9241 101.183 50.9241 101.183 49.1611 101.231C46.2883 101.534 44.5749 102.059 42.1367 103.55C35.2372 95.9609 35.8723 88.3173 36.1367 78.5503Z" fill="#2670B6"/>
<path d="M83.2499 74.3433C85.9123 76.0676 87.3757 77.9089 89.1366 80.5503C89.6258 84.8716 89.3985 87.0627 87.3241 90.9253C85.1366 93.5503 85.1366 93.5503 82.1366 94.5503C81.8866 92.3003 81.8866 92.3003 82.1366 89.5503C82.8173 88.8903 83.4979 88.2303 84.1991 87.5503C86.4037 85.7142 86.4037 85.7142 86.2616 83.0503C84.5807 79.3148 82.8324 78.3009 79.1366 76.5503C74.9505 75.8176 71.0548 75.6253 67.1601 77.5034C64.6848 79.357 63.2907 81.004 62.4491 83.9878C63.455 87.7367 65.5022 89.7183 68.1366 92.5503C67.1466 93.5403 66.1566 94.5303 65.1366 95.5503C61.4018 90.9721 59.7744 88.6567 59.8515 82.5855C60.3034 79.36 61.8168 77.7413 64.1366 75.5503C69.3817 72.2104 77.5148 72.1913 83.2499 74.3433Z" fill="#0C1116"/>
<path d="M45.3242 64.0503C49.27 64.5678 49.8079 64.6907 52.3242 67.4253C57.4268 74.1968 59.7611 81.1206 59.1367 89.5503C56.4196 87.2393 55.7021 85.6053 55.1367 82.1128C54.2212 77.2616 54.2212 77.2616 51.1367 73.5503C48.1367 72.967 48.1367 72.967 45.1367 73.5503C43.3856 74.967 43.3856 74.967 42.1367 76.5503C41.4767 76.5503 40.8167 76.5503 40.1367 76.5503C38.9492 73.8628 38.9492 73.8628 38.1367 70.5503C40.0352 66.4821 40.8917 64.7456 45.3242 64.0503Z" fill="#40B7D4"/>
<path d="M112.137 79.5503C112.467 79.5503 112.797 79.5503 113.137 79.5503C113.892 94.4855 113.892 94.4855 109.137 101.55C108.147 102.21 107.157 102.87 106.137 103.55C105.147 102.89 104.157 102.23 103.137 101.55C100.398 101.093 100.398 101.093 97.4492 100.925C95.9584 100.813 95.9584 100.813 94.4375 100.699C93.6782 100.65 92.919 100.601 92.1367 100.55C92.7967 100.22 93.4567 99.8903 94.1367 99.5503C93.8067 97.5703 93.4767 95.5903 93.1367 93.5503C93.9102 94.0453 93.9102 94.0453 94.6992 94.5503C98.9076 96.2768 102.879 95.9696 107.137 94.5503C110.079 89.8421 111.121 84.9288 112.137 79.5503Z" fill="#246EB6"/>
<path d="M81.1367 91.5503C81.7967 92.8703 82.4567 94.1903 83.1367 95.5503C81.4867 96.8703 79.8367 98.1903 78.1367 99.5503C86.3867 99.8803 94.6367 100.21 103.137 100.55C103.137 100.88 103.137 101.21 103.137 101.55C84.3267 101.55 65.5167 101.55 46.1367 101.55C46.1367 101.22 46.1367 100.89 46.1367 100.55C54.7167 100.22 63.2967 99.8903 72.1367 99.5503C70.1567 98.2303 68.1767 96.9103 66.1367 95.5503C66.4667 94.8903 66.7967 94.2303 67.1367 93.5503C67.9102 94.0453 67.9102 94.0453 68.6992 94.5503C72.0391 95.9205 74.5627 95.9402 78.1367 95.5503C80.1191 93.689 80.1191 93.689 81.1367 91.5503Z" fill="#111B26"/>
<path d="M33.1367 73.5503C33.4667 73.5503 33.7967 73.5503 34.1367 73.5503C34.1565 74.1498 34.1764 74.7493 34.1968 75.3669C34.2928 78.116 34.4021 80.8643 34.5117 83.6128C34.5427 84.5557 34.5736 85.4987 34.6055 86.4702C34.8294 91.826 35.4038 96.4713 37.1367 101.55C29.8031 99.2585 23.983 96.5758 18.1367 91.5503C21.0377 90.0998 22.6964 91.0967 25.7617 91.9878C26.7646 92.2753 27.7675 92.5627 28.8008 92.8589C29.5716 93.0871 30.3425 93.3152 31.1367 93.5503C30.8067 92.5603 30.4767 91.5703 30.1367 90.5503C30.7967 90.5503 31.4567 90.5503 32.1367 90.5503C32.4667 84.9403 32.7967 79.3303 33.1367 73.5503Z" fill="#215585"/>
<path d="M106.137 55.5503C109.472 58.5404 111.352 61.4453 113.137 65.5503C113.137 66.2103 113.137 66.8703 113.137 67.5503C110.824 67.7378 110.824 67.7378 108.137 67.5503C107.137 66.5503 106.137 65.5503 105.137 64.5503C102.68 63.8834 102.68 63.8834 100.137 64.5503C96.9149 67.772 95.0467 71.4438 93.1367 75.5503C92.2275 73.0721 91.9494 71.9782 93.0273 69.5151C93.4759 68.8461 93.9245 68.1771 94.3867 67.4878C95.0441 66.4804 95.0441 66.4804 95.7148 65.4526C97.1055 63.592 98.3132 61.9945 100.137 60.5503C103.824 60.8628 103.824 60.8628 107.137 61.5503C106.147 59.9003 105.157 58.2503 104.137 56.5503C104.797 56.2203 105.457 55.8903 106.137 55.5503Z" fill="#1A1C1E"/>
<path d="M110.137 85.5503C110.362 88.8554 110.482 90.9424 108.824 93.8628C106.324 96.3626 104.235 96.5412 100.762 96.8628C96.5137 96.4966 95.035 95.6191 92.1367 92.5503C91.3242 90.3003 91.3242 90.3003 91.1367 88.5503C95.0117 90.4253 95.0117 90.4253 96.1367 91.5503C99.0098 92.0512 99.0098 92.0512 102.137 91.5503C104.358 89.1691 104.358 89.1691 106.137 86.5503C109.137 85.5503 109.137 85.5503 110.137 85.5503Z" fill="#3FC0DF"/>
<path d="M116.137 79.5503C116.467 79.5503 116.797 79.5503 117.137 79.5503C117.467 82.8503 117.797 86.1503 118.137 89.5503C118.776 89.2822 119.415 89.014 120.074 88.7378C124.049 87.1967 128.086 85.8742 132.137 84.5503C130.761 87.7668 129.308 89.5241 126.512 91.6128C125.564 92.3418 125.564 92.3418 124.598 93.0854C122.137 94.5503 122.137 94.5503 114.137 97.5503C114.797 91.6103 115.457 85.6703 116.137 79.5503Z" fill="#2167B1"/>
<path d="M57.1367 133.55C58.4567 133.55 59.7767 133.55 61.1367 133.55C62.1219 137.614 62.1367 141.383 62.1367 145.55C62.5653 147.861 62.5653 147.861 63.1367 149.55C60.8267 149.22 58.5167 148.89 56.1367 148.55C56.1098 146.425 56.0904 144.3 56.0742 142.175C56.0626 140.992 56.051 139.809 56.0391 138.589C56.1367 135.55 56.1367 135.55 57.1367 133.55Z" fill="#227AC7"/>
<path d="M123.137 44.5503C123.797 44.5503 124.457 44.5503 125.137 44.5503C127.754 54.6905 128.099 65.2484 126.137 75.5503C125.147 75.2203 124.157 74.8903 123.137 74.5503C123.137 64.6503 123.137 54.7503 123.137 44.5503Z" fill="#171719"/>
<path d="M104.137 72.5503C107.112 75.2124 108.044 76.7605 108.512 80.7378C108.137 83.5503 108.137 83.5503 106.137 85.5503C106.137 82.5803 106.137 79.6103 106.137 76.5503C105.477 76.5503 104.817 76.5503 104.137 76.5503C103.807 77.5403 103.477 78.5303 103.137 79.5503C100.827 79.2203 98.5167 78.8903 96.1367 78.5503C95.8067 79.2103 95.4767 79.8703 95.1367 80.5503C94.4767 80.5503 93.8167 80.5503 93.1367 80.5503C95.293 74.4132 97.1517 71.4099 104.137 72.5503Z" fill="#181C1B"/>
<path d="M81.1367 120.55C85.0361 122.029 86.3209 123.84 88.1367 127.55C89.8822 132.034 91.1367 135.697 91.1367 140.55C90.4767 140.55 89.8167 140.55 89.1367 140.55C89.1367 142.86 89.1367 145.17 89.1367 147.55C88.8067 147.55 88.4767 147.55 88.1367 147.55C88.013 146.643 87.8892 145.735 87.7617 144.8C87.2156 141.961 86.5641 140.024 85.1367 137.55C86.1267 137.55 87.1167 137.55 88.1367 137.55C87.518 136.519 86.8992 135.488 86.2617 134.425C83.7428 130.019 82.2755 125.485 81.1367 120.55Z" fill="#0F1518"/>
<path d="M67.1367 122.55C68.1267 122.55 69.1167 122.55 70.1367 122.55C68.3018 127.29 66.2173 131.914 64.1367 136.55C64.7967 136.55 65.4567 136.55 66.1367 136.55C65.882 137.866 65.6074 139.178 65.3242 140.488C65.1734 141.219 65.0226 141.95 64.8672 142.703C64.6261 143.312 64.3851 143.922 64.1367 144.55C63.1467 144.88 62.1567 145.21 61.1367 145.55C61.628 128.059 61.628 128.059 67.1367 122.55Z" fill="#131D21"/>
<path d="M113.137 64.5503C113.797 64.8803 114.457 65.2103 115.137 65.5503C115.137 73.1403 115.137 80.7303 115.137 88.5503C114.477 88.8803 113.817 89.2103 113.137 89.5503C113.016 88.5487 112.894 87.5471 112.77 86.5151C112.601 85.1727 112.431 83.8302 112.262 82.4878C112.144 81.5026 112.144 81.5026 112.023 80.4976C111.45 76.0168 110.473 71.8668 109.137 67.5503C110.457 67.5503 111.777 67.5503 113.137 67.5503C113.137 66.5603 113.137 65.5703 113.137 64.5503Z" fill="#0A0908"/>
<path d="M50.1367 66.5503C55.5511 71.0622 58.6639 76.8901 59.3828 83.9761C59.3861 85.836 59.2741 87.6955 59.1367 89.5503C56.4196 87.2393 55.7021 85.6053 55.1367 82.1128C54.2424 77.2379 54.2424 77.2379 51.1367 73.5503C47.5111 73.2165 47.5111 73.2165 44.1367 73.5503C44.1367 72.8903 44.1367 72.2303 44.1367 71.5503C46.4467 71.5503 48.7567 71.5503 51.1367 71.5503C50.8067 69.9003 50.4767 68.2503 50.1367 66.5503Z" fill="#38B8D7"/>
<path d="M51.1367 134.55C53.3459 137.864 53.3615 138.895 53.2617 142.738C53.2437 143.639 53.2256 144.54 53.207 145.468C53.1722 146.499 53.1722 146.499 53.1367 147.55C51.1567 146.89 49.1767 146.23 47.1367 145.55C46.8867 138.925 46.8867 138.925 49.1367 135.55C49.7967 135.22 50.4567 134.89 51.1367 134.55Z" fill="#2166AC"/>
<path d="M34.1367 72.5503C36.548 76.1672 36.5388 79.0437 36.6992 83.2378C36.9694 88.7184 37.3446 94.1186 38.1367 99.5503C37.4767 99.5503 36.8167 99.5503 36.1367 99.5503C34.4996 95.9559 33.8953 93.1905 33.9414 89.2495C33.9478 88.273 33.9543 87.2966 33.9609 86.2905C33.9777 85.2831 33.9944 84.2757 34.0117 83.2378C34.0207 82.2111 34.0298 81.1843 34.0391 80.1265C34.0625 77.6008 34.0954 75.0757 34.1367 72.5503Z" fill="#0A0A0B"/>
<path d="M143.137 47.5503C143.467 47.5503 143.797 47.5503 144.137 47.5503C144.359 50.279 144.565 53.0072 144.762 55.7378C144.826 56.5067 144.891 57.2756 144.957 58.0679C145.253 62.3714 145.386 65.6976 143.137 69.5503C140.137 71.5503 140.137 71.5503 137.137 71.5503C136.807 72.2103 136.477 72.8703 136.137 73.5503C135.147 73.2203 134.157 72.8903 133.137 72.5503C133.137 71.8903 133.137 71.2303 133.137 70.5503C133.703 70.2847 134.269 70.0192 134.852 69.7456C135.585 69.3924 136.319 69.0392 137.074 68.6753C137.805 68.3272 138.536 67.9792 139.289 67.6206C141.3 66.6818 141.3 66.6818 142.137 64.5503C142.369 61.6712 142.556 58.8088 142.699 55.9253C142.742 55.1235 142.786 54.3217 142.83 53.4956C142.936 51.514 143.037 49.5322 143.137 47.5503Z" fill="#1A191B"/>
<path d="M87.1367 43.5503C94.274 43.9163 99.5092 48.2432 104.699 52.8003C106.137 54.5503 106.137 54.5503 106.137 56.5503C103.156 55.1442 100.524 53.4976 97.8242 51.6128C94.0398 49.0501 90.398 47.1823 86.1367 45.5503C86.4667 44.8903 86.7967 44.2303 87.1367 43.5503Z" fill="#101315"/>
<path d="M116.137 41.5503C116.467 41.5503 116.797 41.5503 117.137 41.5503C117.955 49.9478 118.578 57.3659 116.137 65.5503C115.147 65.2203 114.157 64.8903 113.137 64.5503C113.269 63.8954 113.402 63.2406 113.539 62.5659C114.892 55.5742 115.666 48.6536 116.137 41.5503Z" fill="#161B1C"/>
<path d="M57.1367 82.5503C57.4667 82.5503 57.7967 82.5503 58.1367 82.5503C58.7525 90.5556 58.7525 90.5556 56.5117 94.1753C54.1367 95.5503 54.1367 95.5503 50.8867 95.3003C49.5255 94.929 49.5255 94.929 48.1367 94.5503C48.1367 93.8903 48.1367 93.2303 48.1367 92.5503C49.0648 92.3853 49.993 92.2203 50.9492 92.0503C54.5283 90.366 54.7264 89.9396 56.0117 86.4253C56.4095 85.1405 56.792 83.8504 57.1367 82.5503Z" fill="#37C1E1"/>
<path d="M109.137 69.5503C111.416 71.8296 112.065 73.4263 112.27 76.6362C112.256 80.7354 112.169 84.5519 111.137 88.5503C108.609 84.7587 108.912 81.7416 109.012 77.3628C109.021 76.6132 109.03 75.8636 109.039 75.0913C109.063 73.2442 109.098 71.3972 109.137 69.5503ZM107.137 83.5503C108.127 85.0353 108.127 85.0353 109.137 86.5503C108.477 86.5503 107.817 86.5503 107.137 86.5503C107.137 85.5603 107.137 84.5703 107.137 83.5503Z" fill="#3CBDE0"/>
<path d="M95.1366 70.5503C95.7966 70.8803 96.4566 71.2103 97.1366 71.5503C99.1362 71.5903 101.137 71.5938 103.137 71.5503C103.137 71.8803 103.137 72.2103 103.137 72.5503C102.209 72.7978 101.28 73.0453 100.324 73.3003C96.82 74.6745 95.7978 75.228 94.1366 78.5503C93.4666 81.8612 93.1366 85.1673 93.1366 88.5503C92.4766 88.5503 91.8166 88.5503 91.1366 88.5503C90.6021 81.3049 91.4206 76.8212 95.1366 70.5503Z" fill="#3BA5D0"/>
<path d="M23.1368 57.5503C23.4668 57.5503 23.7968 57.5503 24.1368 57.5503C24.4668 65.1403 24.7968 72.7303 25.1368 80.5503C23.1368 79.5503 23.1368 79.5503 22.5196 77.8198C21.3929 71.1399 21.9573 64.1853 23.1368 57.5503Z" fill="#0D0F0E"/>
<path d="M25.1367 43.5503C25.4667 44.2103 25.7967 44.8703 26.1367 45.5503C26.7967 45.8803 27.4567 46.2103 28.1367 46.5503C27.8274 47.7465 27.518 48.9428 27.1992 50.1753C26.5457 52.7443 26.0542 55.1637 25.6992 57.8003C25.089 60.7835 24.1345 62.2919 22.1367 64.5503C21.7044 57.2011 23.319 50.6481 25.1367 43.5503Z" fill="#1E1C23"/>
<path d="M51.1367 72.5503C51.7967 73.2103 52.4567 73.8703 53.1367 74.5503C52.8067 75.5403 52.4767 76.5303 52.1367 77.5503C52.1367 76.8903 52.1367 76.2303 52.1367 75.5503C49.8483 75.1304 49.8483 75.1304 47.1367 75.5503C44.3234 77.9461 44.3234 77.9461 42.1367 80.5503C41.9145 77.8094 41.7889 76.1106 43.2617 73.7378C45.9712 72.0218 47.9997 72.2166 51.1367 72.5503Z" fill="#0F1011"/>
<path d="M18.1367 90.5503C19.9305 91.0002 21.7217 91.4605 23.5117 91.9253C24.5095 92.1805 25.5072 92.4358 26.5352 92.6987C29.1367 93.5503 29.1367 93.5503 31.1367 95.5503C30.4767 95.5503 29.8167 95.5503 29.1367 95.5503C29.1367 96.2103 29.1367 96.8703 29.1367 97.5503C24.0958 97.1055 21.7256 94.8888 18.1367 91.5503C18.1367 91.2203 18.1367 90.8903 18.1367 90.5503Z" fill="#2565A4"/>
<path d="M43.1367 61.5503C47.1756 61.0807 48.6779 61.1935 51.9492 63.7378C54.125 66.5352 54.8387 68.0734 55.1367 71.5503C52.8034 69.217 50.4701 66.8836 48.1367 64.5503C46.1485 64.1526 44.1473 63.8125 42.1367 63.5503C42.4667 62.8903 42.7967 62.2303 43.1367 61.5503Z" fill="#0C1116"/>
<path d="M81.1367 120.55C84.9496 121.997 86.4638 123.852 88.1367 127.55C87.8242 129.863 87.8242 129.863 87.1367 131.55C86.1467 131.22 85.1567 130.89 84.1367 130.55C82.8319 127.288 81.9261 123.971 81.1367 120.55Z" fill="#192B32"/>
<path d="M35.1367 6.55029C35.4667 6.55029 35.7967 6.55029 36.1367 6.55029C36.3607 8.5903 36.5652 10.6325 36.7617 12.6753C36.8777 13.8122 36.9937 14.9492 37.1133 16.1206C37.1378 19.7154 36.4584 22.231 35.1367 25.5503C34.4767 24.8903 33.8167 24.2303 33.1367 23.5503C33.318 20.6204 33.6024 17.8234 34.0117 14.9253C34.1161 14.1235 34.2205 13.3217 34.3281 12.4956C34.5878 10.5125 34.861 8.53121 35.1367 6.55029Z" fill="#29252A"/>
<path d="M109.137 100.55C110.127 100.55 111.117 100.55 112.137 100.55C110.684 104.38 108.708 105.671 105.137 107.55C104.147 106.89 103.157 106.23 102.137 105.55C102.137 104.89 102.137 104.23 102.137 103.55C103.591 103.086 103.591 103.086 105.074 102.613C107.977 101.855 107.977 101.855 109.137 100.55Z" fill="#141D25"/>
<path d="M99.1368 61.5503C100.127 61.5503 101.117 61.5503 102.137 61.5503C102.137 62.2103 102.137 62.8703 102.137 63.5503C101.394 64.0865 100.652 64.6228 99.8868 65.1753C96.4073 68.1803 94.9436 71.3916 93.1368 75.5503C92.208 73.0398 91.9493 71.9697 93.0626 69.48C93.5202 68.8019 93.9778 68.1239 94.4493 67.4253C94.8992 66.7421 95.3491 66.0589 95.8126 65.355C97.1368 63.5503 97.1368 63.5503 99.1368 61.5503Z" fill="#11161A"/>
<path d="M68.1367 68.5503C71.7667 68.5503 75.3967 68.5503 79.1367 68.5503C79.4667 69.5403 79.7967 70.5303 80.1367 71.5503C75.8467 71.5503 71.5567 71.5503 67.1367 71.5503C67.4667 70.5603 67.7967 69.5703 68.1367 68.5503Z" fill="#10171E"/>
<path d="M85.1367 117.55C87.8034 120.217 90.4701 122.884 93.1367 125.55C92.8067 126.21 92.4767 126.87 92.1367 127.55C91.4767 126.89 90.8167 126.23 90.1367 125.55C89.2911 125.22 88.4455 124.89 87.5742 124.55C85.1367 123.55 85.1367 123.55 84.1367 121.55C84.5742 119.425 84.5742 119.425 85.1367 117.55Z" fill="#247AC1"/>
<path d="M55.1367 108.55C58.4367 109.21 61.7367 109.87 65.1367 110.55C64.1467 111.87 63.1567 113.19 62.1367 114.55C62.1367 113.89 62.1367 113.23 62.1367 112.55C59.1667 112.22 56.1967 111.89 53.1367 111.55C53.7967 111.22 54.4567 110.89 55.1367 110.55C55.1367 109.89 55.1367 109.23 55.1367 108.55Z" fill="#1B2123"/>
<path d="M87.1367 86.5503C87.4667 87.5403 87.7967 88.5303 88.1367 89.5503C86.3242 92.2378 86.3242 92.2378 84.1367 94.5503C83.4767 94.5503 82.8167 94.5503 82.1367 94.5503C81.8242 92.2378 81.8242 92.2378 82.1367 89.5503C84.6367 87.7378 84.6367 87.7378 87.1367 86.5503Z" fill="#050707"/>
<path d="M78.1367 70.5503C78.1367 71.5403 78.1367 72.5303 78.1367 73.5503C74.5067 73.5503 70.8767 73.5503 67.1367 73.5503C67.1367 72.8903 67.1367 72.2303 67.1367 71.5503C70.8108 70.3746 74.306 70.4766 78.1367 70.5503Z" fill="#236098"/>
<path d="M88.1367 118.55C91.9239 120.038 93.9108 122.17 96.1367 125.55C95.8067 126.54 95.4767 127.53 95.1367 128.55C92.8034 126.217 90.4701 123.884 88.1367 121.55C88.1367 120.56 88.1367 119.57 88.1367 118.55Z" fill="#171E24"/>
<path d="M50.1367 66.5503C51.8456 68.1737 53.5112 69.8435 55.1367 71.5503C55.1367 72.2103 55.1367 72.8703 55.1367 73.5503C54.1467 73.8803 53.1567 74.2103 52.1367 74.5503C51.8067 74.2203 51.4767 73.8903 51.1367 73.5503C48.8037 73.5094 46.4697 73.5079 44.1367 73.5503C44.1367 72.8903 44.1367 72.2303 44.1367 71.5503C46.4467 71.5503 48.7567 71.5503 51.1367 71.5503C50.8067 69.9003 50.4767 68.2503 50.1367 66.5503Z" fill="#38A9C4"/>
<path d="M38.1367 61.5503C41.4367 62.2103 44.7367 62.8703 48.1367 63.5503C48.1367 63.8803 48.1367 64.2103 48.1367 64.5503C46.497 64.9215 46.497 64.9215 44.8242 65.3003C41.0776 66.5703 40.0308 67.2079 38.1367 70.5503C37.0117 63.8003 37.0117 63.8003 38.1367 61.5503Z" fill="#162B35"/>
<path d="M52.1367 127.55C52.1367 130.634 51.7946 131.587 50.3242 134.175C49.8196 135.092 49.8196 135.092 49.3047 136.027C48.1367 137.55 48.1367 137.55 45.1367 138.55C46.4139 133.558 48.31 130.974 52.1367 127.55Z" fill="#0D0E11"/>
<path d="M100.137 60.5503C102.777 60.8803 105.417 61.2103 108.137 61.5503C108.467 62.8703 108.797 64.1903 109.137 65.5503C106.031 65.5503 104.784 65.0109 102.137 63.5503C102.137 62.8903 102.137 62.2303 102.137 61.5503C101.477 61.2203 100.817 60.8903 100.137 60.5503Z" fill="#142835"/>
<path d="M105.137 106.55C103.722 108.585 102.587 109.454 100.156 109.972C98.1549 110.213 96.1457 110.386 94.1367 110.55C94.1367 109.89 94.1367 109.23 94.1367 108.55C97.9599 107.128 101.05 106.31 105.137 106.55Z" fill="#0E1012"/>
<path d="M25.1367 77.5503C27.5275 81.3755 27.6964 85.1469 28.1367 89.5503C26.1367 88.5503 26.1367 88.5503 25.2852 86.4839C25.0299 85.6602 24.7747 84.8365 24.5117 83.9878C24.2513 83.1615 23.9909 82.3352 23.7227 81.4839C23.5293 80.8458 23.3359 80.2077 23.1367 79.5503C23.7967 78.8903 24.4567 78.2303 25.1367 77.5503Z" fill="#151B20"/>
<path d="M37.1367 65.5503C37.4667 65.5503 37.7967 65.5503 38.1367 65.5503C38.2133 70.0665 38.239 74.1411 37.1367 78.5503C35.3904 75.9309 34.7495 74.512 34.1367 71.5503C34.7967 71.5503 35.4567 71.5503 36.1367 71.5503C36.1058 70.3437 36.1058 70.3437 36.0742 69.1128C36.1367 66.5503 36.1367 66.5503 37.1367 65.5503Z" fill="#0F1416"/>
<path d="M72.1367 63.5503C75.8242 63.8628 75.8242 63.8628 79.1367 64.5503C79.1367 65.2103 79.1367 65.8703 79.1367 66.5503C75.8367 66.5503 72.5367 66.5503 69.1367 66.5503C70.1267 65.5603 71.1167 64.5703 72.1367 63.5503Z" fill="#0E1A23"/>
<path d="M27.1367 46.5503C27.4667 46.5503 27.7967 46.5503 28.1367 46.5503C28.1367 50.1803 28.1367 53.8103 28.1367 57.5503C27.1467 57.8803 26.1567 58.2103 25.1367 58.5503C25.2777 56.9249 25.4246 55.3 25.5742 53.6753C25.6554 52.7704 25.7366 51.8654 25.8203 50.9331C26.1367 48.5503 26.1367 48.5503 27.1367 46.5503Z" fill="#285E96"/>
<path d="M32.1367 23.5503C32.7967 23.5503 33.4567 23.5503 34.1367 23.5503C33.7461 29.605 33.7461 29.605 33.1367 31.5503C31.1567 32.5403 31.1567 32.5403 29.1367 33.5503C30.1267 30.2503 31.1167 26.9503 32.1367 23.5503Z" fill="#151318"/>
<path d="M55.1367 70.5503C61.2023 79.6487 61.2023 79.6487 60.8867 83.9878C60.6392 84.8334 60.3917 85.679 60.1367 86.5503C59.8067 86.5503 59.4767 86.5503 59.1367 86.5503C57.4712 81.2499 55.864 76.0774 55.1367 70.5503Z" fill="#235685"/>
<path d="M55.1367 133.55C55.4667 133.55 55.7967 133.55 56.1367 133.55C56.1367 138.17 56.1367 142.79 56.1367 147.55C55.8067 147.55 55.4767 147.55 55.1367 147.55C54.9923 146.313 54.848 145.075 54.6992 143.8C54.4212 141.486 54.0987 139.419 53.4492 137.175C53.3461 136.639 53.243 136.103 53.1367 135.55C53.7967 134.89 54.4567 134.23 55.1367 133.55Z" fill="#0E202F"/>
<path d="M99.1367 74.5503C101.117 75.0453 101.117 75.0453 103.137 75.5503C103.137 76.8703 103.137 78.1903 103.137 79.5503C101.487 79.2203 99.8367 78.8903 98.1367 78.5503C98.4667 77.2303 98.7967 75.9103 99.1367 74.5503Z" fill="#E6E6E3"/>
<path d="M68.1367 39.5503C70.1167 39.5503 72.0967 39.5503 74.1367 39.5503C74.4667 40.2103 74.7967 40.8703 75.1367 41.5503C73.7617 43.5503 73.7617 43.5503 72.1367 45.5503C71.4767 45.5503 70.8167 45.5503 70.1367 45.5503C70.4667 44.5603 70.7967 43.5703 71.1367 42.5503C70.1467 41.5603 69.1567 40.5703 68.1367 39.5503Z" fill="#1D5B98"/>
<path d="M28.1367 87.5503C31.1367 91.3003 31.1367 91.3003 31.1367 93.5503C28.7617 93.7378 28.7617 93.7378 26.1367 93.5503C25.4767 92.5603 24.8167 91.5703 24.1367 90.5503C25.4567 90.5503 26.7767 90.5503 28.1367 90.5503C28.1367 89.5603 28.1367 88.5703 28.1367 87.5503Z" fill="#0E1013"/>
<path d="M47.1367 74.5503C49.1167 75.0453 49.1167 75.0453 51.1367 75.5503C50.8067 76.8703 50.4767 78.1903 50.1367 79.5503C48.8167 79.2203 47.4967 78.8903 46.1367 78.5503C46.4667 77.2303 46.7967 75.9103 47.1367 74.5503Z" fill="#DBDFDA"/>
<path d="M45.1367 54.5503C45.1367 58.94 43.0087 60.3194 40.1367 63.5503C39.8067 62.5603 39.4767 61.5703 39.1367 60.5503C41.1367 58.5503 43.1367 56.5503 45.1367 54.5503Z" fill="#0A0C0C"/>
<path d="M109.137 69.5503C111.945 72.3589 111.864 74.6616 112.137 78.5503C111.477 79.5403 110.817 80.5303 110.137 81.5503C109.592 77.4653 109.137 73.6777 109.137 69.5503Z" fill="#34ACCC"/>
<path d="M95.1367 70.5503C95.7967 70.8803 96.4567 71.2103 97.1367 71.5503C99.1363 71.5903 101.137 71.5938 103.137 71.5503C103.137 71.8803 103.137 72.2103 103.137 72.5503C99.8256 73.6791 96.5469 74.7633 93.1367 75.5503C93.7967 73.9003 94.4567 72.2503 95.1367 70.5503Z" fill="#40AAC2"/>
<path d="M62.1367 145.55C62.4667 146.87 62.7967 148.19 63.1367 149.55C60.8267 149.22 58.5167 148.89 56.1367 148.55C58.7617 145.55 58.7617 145.55 62.1367 145.55Z" fill="#1A66B0"/>
<path d="M30.1367 56.5503C32.0818 59.4679 32.5895 61.1757 33.1367 64.5503C32.1467 64.8803 31.1567 65.2103 30.1367 65.5503C29.0117 59.9253 29.0117 59.9253 30.1367 56.5503Z" fill="#1C2225"/>
<path d="M38.1367 98.5503C39.1267 99.5403 40.1167 100.53 41.1367 101.55C40.1467 103.035 40.1467 103.035 39.1367 104.55C36.1667 104.055 36.1667 104.055 33.1367 103.55C33.7761 103.282 34.4155 103.014 35.0742 102.738C37.468 101.664 37.468 101.664 38.1367 98.5503Z" fill="#1C2325"/>
<path d="M85.1367 129.55C86.7867 131.2 88.4367 132.85 90.1367 134.55C89.8067 135.54 89.4767 136.53 89.1367 137.55C85.1367 132.925 85.1367 132.925 85.1367 129.55Z" fill="#0E0D0D"/>
<path d="M71.1367 97.5503C73.4467 97.5503 75.7567 97.5503 78.1367 97.5503C78.1367 98.2103 78.1367 98.8703 78.1367 99.5503C77.4767 99.5503 76.8167 99.5503 76.1367 99.5503C76.1367 100.21 76.1367 100.87 76.1367 101.55C75.4767 101.55 74.8167 101.55 74.1367 101.55C74.1367 100.89 74.1367 100.23 74.1367 99.5503C73.1467 99.2203 72.1567 98.8903 71.1367 98.5503C71.1367 98.2203 71.1367 97.8903 71.1367 97.5503Z" fill="#0E1720"/>
<path d="M25.1367 85.5503C26.1267 86.8703 27.1167 88.1903 28.1367 89.5503C25.1367 90.5503 25.1367 90.5503 22.9492 89.6128C22.3511 89.2622 21.753 88.9115 21.1367 88.5503C22.4567 87.5603 23.7767 86.5703 25.1367 85.5503Z" fill="#746081"/>
<path d="M109.137 67.5503C110.457 67.8803 111.777 68.2103 113.137 68.5503C112.807 70.5303 112.477 72.5103 112.137 74.5503C110.39 71.9309 109.749 70.512 109.137 67.5503Z" fill="#0C0D10"/>
<path d="M66.1367 43.5503C66.1367 44.2103 66.1367 44.8703 66.1367 45.5503C64.1567 45.8803 62.1767 46.2103 60.1367 46.5503C59.8067 45.5603 59.4767 44.5703 59.1367 43.5503C62.2702 42.5058 63.1264 42.616 66.1367 43.5503Z" fill="#151A1C"/>
</svg>
