<svg width="153" height="153" viewBox="0 0 153 153" fill="none" xmlns="http://www.w3.org/2000/svg">
<path d="M101.011 4.61168C101.88 4.79602 102.748 4.98036 103.644 5.17028C106.126 5.90753 107.21 6.76353 109.011 8.61168C109.822 10.5104 109.822 10.5104 110.37 12.6468C110.568 13.4117 110.765 14.1765 110.969 14.9645C111.768 18.4988 112.418 22.037 113.011 25.6117C113.111 19.5896 113.111 19.5896 112.511 13.6117C112.346 12.6217 112.181 11.6317 112.011 10.6117C118.362 12.5524 120.844 17.0701 124.011 22.6117C124.011 21.6217 124.011 20.6317 124.011 19.6117C124.341 18.9517 124.671 18.2917 125.011 17.6117C140.974 32.0086 150.492 50.8941 152.323 72.2562C153.003 92.2088 146.472 111.212 133.276 126.225C123.421 136.607 111.655 144.114 98.0108 148.612C97.16 148.909 96.3092 149.207 95.4327 149.514C76.683 155.197 56.406 151.735 39.3975 142.659C20.8882 131.472 7.86362 115.701 2.0108 94.6117C-2.609 73.8589 0.74105 53.4989 11.9639 35.475C16.2077 29.4853 21.02 23.9874 26.0108 18.6117C26.6708 18.9417 27.3308 19.2717 28.0108 19.6117C27.3508 20.9317 26.6908 22.2517 26.0108 23.6117C27.0008 23.6117 27.9908 23.6117 29.0108 23.6117C29.2583 22.7248 29.5058 21.8379 29.7608 20.9242C31.4845 16.3565 33.288 13.4339 37.7608 11.2992C38.5033 11.0723 39.2458 10.8454 40.0108 10.6117C40.0108 11.6017 40.0108 12.5917 40.0108 13.6117C40.6708 13.6117 41.3308 13.6117 42.0108 13.6117C42.0108 11.9617 42.0108 10.3117 42.0108 8.61168C61.883 -0.44719 80.2813 -1.9456 101.011 4.61168Z" fill="#1FB2C9"/>
<path d="M124.011 17.6117C139.753 30.0743 149.648 48.7249 152.011 68.6117C153.45 88.7417 148.094 107.698 135.573 123.612C125.285 135.318 112.867 143.715 98.0108 148.612C97.16 148.909 96.3092 149.207 95.4327 149.514C76.683 155.197 56.406 151.735 39.3975 142.659C20.8882 131.472 7.86362 115.701 2.0108 94.6117C-2.609 73.8589 0.74105 53.4989 11.9639 35.475C16.2077 29.4853 21.02 23.9874 26.0108 18.6117C26.6708 18.9417 27.3308 19.2717 28.0108 19.6117C27.5313 20.4528 27.5313 20.4528 27.0421 21.3109C25.2323 25.3486 25.2583 29.2899 26.0108 33.6117C28.9037 39.0577 33.6397 41.9261 39.0108 44.6117C38.6084 51.1071 37.7557 57.4604 36.6006 63.8578C36.468 64.5936 36.3354 65.3295 36.1988 66.0876C36.0631 66.8399 35.9274 67.5921 35.7877 68.3671C32.5621 85.8146 32.5621 85.8146 31.3858 103.487C31.3754 104.25 31.365 105.014 31.3543 105.801C31.4845 110.815 32.8159 113.789 36.0108 117.612C47.2232 126.606 60.2825 128.792 74.1358 128.799C75.3217 128.811 76.5077 128.824 77.7296 128.836C91.9973 128.86 105.852 126.108 117.011 116.612C120.331 112.351 120.497 108.379 120.417 103.162C120.41 102.334 120.403 101.506 120.396 100.653C120.161 90.5463 118.338 80.7165 116.511 70.7992C116.007 67.9936 115.507 65.1872 115.013 62.3798C114.708 60.6546 114.397 58.9305 114.078 57.2077C113.317 52.9749 112.653 48.9303 113.011 44.6117C114.839 42.9242 114.839 42.9242 117.261 41.6117C121.4 39.0891 123.959 37.1607 126.011 32.6117C126.756 27.2399 126.076 22.6453 124.011 17.6117Z" fill="#17B6CE"/>
<path d="M101.011 4.61168C101.879 4.79602 102.748 4.98036 103.643 5.17028C106.125 5.90753 107.21 6.76353 109.011 8.61168C109.822 10.5104 109.822 10.5104 110.37 12.6468C110.568 13.4117 110.765 14.1765 110.969 14.9645C111.768 18.4988 112.417 22.037 113.011 25.6117C113.11 19.5896 113.11 19.5896 112.511 13.6117C112.346 12.6217 112.181 11.6317 112.011 10.6117C117.545 12.3026 119.781 15.448 122.573 20.3617C123.872 22.9151 123.872 22.9151 127.011 23.6117C127.386 28.2989 127.495 31.6604 125.323 35.9242C121.971 39.8202 118.61 42.3901 114.011 44.6117C114.48 54.0832 115.909 63.1735 117.653 72.468C124.161 107.597 124.161 107.597 118.886 116.362C108.61 126.932 92.4335 129.684 78.4535 129.904C61.8486 129.998 46.728 128.581 34.0106 116.612C30.5091 112.107 30.5278 108.18 30.6083 102.705C30.6156 101.832 30.6228 100.958 30.6303 100.058C30.8603 89.5899 32.6303 79.3995 34.4481 69.1117C34.7784 67.1653 35.1072 65.2187 35.4345 63.2718C36.0325 59.7449 36.6346 56.2188 37.2545 52.6957C37.3767 52.001 37.4988 51.3063 37.6246 50.5906C38.0175 48.5763 38.4953 46.5978 39.0106 44.6117C38.0206 44.3332 38.0206 44.3332 37.0106 44.0492C32.4455 41.8617 27.3214 38.2332 25.0106 33.6117C24.9407 31.9047 24.9262 30.195 24.9481 28.4867C24.9572 27.5766 24.9662 26.6665 24.9755 25.7289C24.9871 25.0302 24.9987 24.3315 25.0106 23.6117C26.3306 23.6117 27.6506 23.6117 29.0106 23.6117C29.2581 22.7248 29.5056 21.8379 29.7606 20.9242C31.4843 16.3565 33.2878 13.4339 37.7606 11.2992C38.5031 11.0723 39.2456 10.8454 40.0106 10.6117C40.0106 11.6017 40.0106 12.5917 40.0106 13.6117C40.6706 13.6117 41.3306 13.6117 42.0106 13.6117C42.0106 11.9617 42.0106 10.3117 42.0106 8.61168C61.8829 -0.44719 80.2812 -1.9456 101.011 4.61168ZM47.9948 27.8028C40.1895 38.8524 39.2263 55.465 37.2155 68.4669C36.697 71.8065 36.1549 75.1416 35.6103 78.4769C31.9704 95.9493 31.9704 95.9493 34.5106 113.049C45.7783 124.598 60.4184 127.665 76.0732 127.987C90.2845 127.68 104.62 125.128 115.417 115.393C119.889 110.395 119.508 105.148 119.177 98.7211C118.639 91.9033 117.432 85.1511 116.295 78.413C115.829 75.6466 115.382 72.8777 114.938 70.1078C113.408 60.7352 111.644 51.4318 109.522 42.1742C109.237 40.8874 109.237 40.8874 108.946 39.5746C107.468 33.3634 105.724 27.555 100.327 23.6898C96.0824 22.3099 92.3776 22.2454 87.9482 22.3617C87.1586 22.3668 86.369 22.372 85.5556 22.3773C81.5588 22.4309 77.9331 22.8109 74.0107 23.6117C73.3507 23.2817 72.6907 22.9517 72.0107 22.6117C69.4128 22.4602 66.8596 22.3803 64.2607 22.3617C63.2049 22.3307 63.2049 22.3307 62.1278 22.2992C56.2905 22.2558 52.0991 23.3416 47.9948 27.8028Z" fill="#101B1C"/>
<path d="M109.011 8.61169C111.484 13.7649 111.715 19.9475 111.011 25.6117C110.351 26.2717 109.691 26.9317 109.011 27.6117C106.011 27.6117 106.011 27.6117 103.573 25.2367C102.305 23.9373 102.305 23.9373 101.011 22.6117C97.1107 19.8056 92.6698 20.354 88.0732 20.4242C87.2747 20.4248 86.4761 20.4255 85.6533 20.4261C81.6153 20.4562 77.9735 20.7921 74.0107 21.6117C73.3507 21.2817 72.6907 20.9517 72.0107 20.6117C69.266 20.4334 66.57 20.334 63.8232 20.2992C63.0801 20.2702 62.337 20.2412 61.5713 20.2113C55.9014 20.1467 52.6579 21.3344 48.0107 24.6117C47.3507 25.6017 46.6907 26.5917 46.0107 27.6117C43.5357 26.6217 43.5357 26.6217 41.0107 25.6117C40.9665 23.1665 40.9532 20.7291 40.9912 18.2836C41.007 16.1208 40.9023 13.9574 40.7607 11.7992C42.327 7.80514 43.4188 7.5653 47.2607 5.86169C49.4948 5.06533 51.746 4.31588 54.0107 3.61169C55.0188 3.29071 56.0268 2.96973 57.0654 2.63903C73.1059 -1.74864 94.9258 -1.24777 109.011 8.61169Z" fill="#18B5CD"/>
<path d="M63.8857 22.4867C64.5933 22.4828 65.301 22.4789 66.0302 22.475C69.8361 22.4821 73.2942 22.8574 77.0107 23.6117C77.6707 23.2817 78.3307 22.9517 79.0107 22.6117C81.9402 22.46 84.8301 22.3802 87.7607 22.3617C88.5599 22.3411 89.3591 22.3204 90.1825 22.2992C95.2018 22.2662 98.7016 22.7542 103.011 25.6117C104.926 27.8577 105.766 29.8742 107.011 32.6117C106.681 33.2717 106.351 33.9317 106.011 34.6117C102.347 35.551 98.9431 35.6034 95.1982 35.4867C90.0098 35.408 85.7847 36.6744 81.0107 38.6117C80.8092 42.237 81.1529 44.4767 83.0107 47.6117C82.3507 48.6017 81.6907 49.5917 81.0107 50.6117C80.7328 52.5655 80.7328 52.5655 80.8232 54.6117C80.8328 55.6326 80.8328 55.6326 80.8427 56.6742C80.9537 58.8293 80.9537 58.8293 82.0107 61.6117C80.0107 64.6117 80.0107 64.6117 77.9521 65.2718C77.167 65.4046 76.382 65.5374 75.5732 65.6742C72.2679 66.2459 70.9056 66.6817 68.0107 68.6117C67.2607 66.3617 67.2607 66.3617 67.0107 63.6117C67.9697 62.7454 67.9697 62.7454 68.9482 61.8617C71.7206 58.8371 71.5148 56.79 71.3505 52.807C70.9017 49.9078 69.795 47.9165 68.0107 45.6117C69.0007 45.2817 69.9907 44.9517 71.0107 44.6117C71.3407 42.3017 71.6707 39.9917 72.0107 37.6117C69.801 37.1059 67.5903 36.6108 65.3739 36.1351C63.5949 35.7411 61.8294 35.285 60.0732 34.7992C55.47 34.5174 51.203 35.7116 47.0107 37.6117C46.3507 38.6017 45.6907 39.5917 45.0107 40.6117C44.0538 38.0602 43.8012 36.2488 44.6591 33.639C46.7205 29.2275 48.8275 26.2932 53.0107 23.6117C56.6794 22.3888 60.0676 22.466 63.8857 22.4867Z" fill="#1EB0C8"/>
<path d="M122.054 41.2015C129.434 46.5192 133.146 58.3694 134.655 66.9632C136.517 80.8304 133.053 94.6056 126.011 106.612C124.691 106.612 123.371 106.612 122.011 106.612C121.845 105.519 121.679 104.427 121.508 103.301C120.878 99.1616 120.245 95.0222 119.612 90.8829C119.341 89.1076 119.07 87.3323 118.801 85.5568C118.408 82.9719 118.013 80.3874 117.616 77.8031C117.42 76.523 117.42 76.523 117.22 75.2171C116.229 68.8365 115.133 62.4788 113.915 56.1375C113.193 52.242 112.883 48.5716 113.011 44.6117C119.399 40.435 119.399 40.435 122.054 41.2015Z" fill="#6DC4DD"/>
<path d="M30.0108 40.6117C33.0959 41.8115 36.0612 43.1117 39.0108 44.6117C38.6111 51.0795 37.7611 57.4146 36.6006 63.7875C36.4682 64.5181 36.3358 65.2488 36.1993 66.0016C35.996 67.123 35.996 67.123 35.7886 68.267C33.0261 83.5089 31.0862 98.0649 32.0108 113.612C28.3697 110.371 26.1386 106.686 23.8858 102.424C23.3656 101.491 23.3656 101.491 22.835 100.539C16.6531 88.9692 15.7078 72.8052 19.0733 60.1742C21.5117 53.621 25.0479 45.5746 30.0108 40.6117Z" fill="#6EC4DD"/>
<path d="M106.011 36.6117C107.72 39.9088 107.081 43.9684 107.011 47.6117C102.136 48.6117 102.136 48.6117 101.011 48.6117C101.341 49.2717 101.671 49.9317 102.011 50.6117C102.555 55.1509 102.634 58.5661 100.261 62.5492C97.1576 65.3937 95.321 66.4408 91.1357 66.9867C86.5757 66.4395 83.4762 64.4767 80.6357 60.8617C79.1384 55.4711 79.527 50.5791 82.0107 45.6117C81.3507 44.9517 80.6907 44.2917 80.0107 43.6117C79.5732 41.1742 79.5732 41.1742 80.0107 38.6117C86.675 33.2803 98.4928 32.7563 106.011 36.6117Z" fill="#0E1414"/>
<path d="M72.0107 37.6117C72.1982 40.9867 72.1982 40.9867 72.0107 44.6117C71.0207 45.2717 70.0307 45.9317 69.0107 46.6117C69.5057 47.086 70.0007 47.5604 70.5107 48.0492C72.7229 51.8284 72.8564 55.3373 72.0107 59.6117C69.5732 62.6117 69.5732 62.6117 67.0107 64.6117C66.6807 64.9417 66.3507 65.2717 66.0107 65.6117C62.6288 66.0501 59.388 66.0934 56.0107 65.6117C53.1864 63.4214 51.5956 61.7815 50.0107 58.6117C49.9407 56.9046 49.9263 55.195 49.9482 53.4867C49.9572 52.5766 49.9662 51.6665 49.9755 50.7289C49.9871 50.0302 49.9987 49.3315 50.0107 48.6117C48.3607 48.2817 46.7107 47.9517 45.0107 47.6117C44.7194 40.038 44.7194 40.038 47.0107 36.6117C54.7591 31.9752 64.2504 33.7315 72.0107 37.6117Z" fill="#0C1011"/>
<path d="M81.0107 64.6117C85.71 67.9995 88.7793 73.3036 91.0107 78.6117C91.0107 79.9317 91.0107 81.2517 91.0107 82.6117C90.3727 82.6723 89.7346 82.7329 89.0771 82.7953C87.8377 82.921 87.8377 82.921 86.5732 83.0492C85.3377 83.171 85.3377 83.171 84.0771 83.2953C82.0241 83.401 82.0241 83.401 81.0107 84.6117C79.5343 84.7099 78.053 84.7414 76.5732 84.7367C75.7702 84.7393 74.9671 84.7418 74.1396 84.7445C72.0107 84.6117 72.0107 84.6117 70.0107 83.6117C68.4741 83.387 66.9311 83.2037 65.3857 83.0492C64.5685 82.9654 63.7512 82.8816 62.9092 82.7953C61.9695 82.7044 61.9695 82.7044 61.0107 82.6117C61.1744 76.2279 64.8619 72.1213 69.0107 67.6117C72.7432 64.3421 76.1359 63.6075 81.0107 64.6117Z" fill="#817699"/>
<path d="M32.0107 94.6117C32.3407 94.6117 32.6707 94.6117 33.0107 94.6117C33.0365 95.6249 33.0623 96.6381 33.0888 97.682C33.1451 99.0336 33.2025 100.385 33.2607 101.737C33.2749 102.402 33.2891 103.067 33.3037 103.752C33.5511 108.8 34.8342 111.722 38.0107 115.612C43.559 120.566 49.8561 122.975 57.0107 124.612C57.8409 124.817 58.671 125.022 59.5263 125.233C75.4568 128.691 94.5173 127.462 109.011 119.612C112.974 116.869 116.302 114.221 118.011 109.612C118.305 107.003 118.517 104.476 118.636 101.862C118.674 101.164 118.713 100.467 118.753 99.7484C118.847 98.0366 118.93 96.3242 119.011 94.6117C121.9 97.5011 121.415 99.7064 121.511 103.737C121.48 109.32 121.126 113.657 117.253 117.901C100.699 130.532 78.664 131.96 58.6318 129.295C49.317 127.388 38.2743 122.173 32.3935 114.502C30.603 110.76 30.644 107.416 30.7607 103.362C30.7659 102.63 30.771 101.897 30.7763 101.143C30.856 95.7664 30.856 95.7664 32.0107 94.6117Z" fill="#081112"/>
<path d="M40.0108 10.6117C39.8458 11.6017 39.6808 12.5917 39.5108 13.6117C38.2534 20.8998 38.2534 20.8998 40.3858 27.5492C42.0333 28.6709 42.0333 28.6709 44.0108 29.6117C43.5588 31.2177 43.099 32.8214 42.6358 34.4242C42.3806 35.3175 42.1253 36.2108 41.8624 37.1312C41.0108 39.6117 41.0108 39.6117 39.0108 42.6117C37.5478 41.6815 36.0905 40.7423 34.6358 39.7992C33.8237 39.2771 33.0116 38.7551 32.1749 38.2172C29.5905 36.2999 28.1926 34.6717 27.6397 31.4476C27.4569 24.6717 28.9342 20.0509 33.0108 14.6117C37.2059 10.6117 37.2059 10.6117 40.0108 10.6117Z" fill="#D4BEA7"/>
<path d="M112.011 10.6117C117.619 12.3252 119.66 15.5368 122.761 20.2992C124.465 24.8168 124.729 28.8392 124.011 33.6117C121.764 37.5221 119.072 39.6827 115.011 41.6117C113.691 41.6117 112.371 41.6117 111.011 41.6117C109.873 37.3455 109.011 34.0468 109.011 29.6117C109.671 29.0342 110.331 28.4567 111.011 27.8617C113.457 25.1101 113.4 23.3195 113.218 19.7172C112.917 16.6575 112.516 13.6449 112.011 10.6117Z" fill="#D9C1A4"/>
<path d="M63.0732 45.0609C66.7576 46.1083 68.1338 48.4444 70.0107 51.6117C70.7456 55.6128 70.3989 57.0295 68.1357 60.4242C65.6293 63.0044 64.7561 63.5289 61.1982 63.9242C57.28 63.54 55.7978 62.3191 53.0107 59.6117C51.4414 56.473 51.6587 54.0731 52.0107 50.6117C55.0384 46.1649 57.8276 44.7132 63.0732 45.0609Z" fill="#EFEFF0"/>
<path d="M90.5107 44.9867C94.4832 45.6961 96.1831 46.784 99.0107 49.6117C100.437 52.4649 100.321 54.4462 100.011 57.6117C98.2108 60.3116 96.927 62.1536 94.0107 63.6117C90.1386 64.0419 88.4858 63.9284 85.1982 61.7367C82.6574 59.2685 82.1111 58.348 81.6357 54.8617C82.2865 49.2219 84.8838 45.9915 90.5107 44.9867Z" fill="#F3F4F4"/>
<path d="M113.011 119.612C114.001 120.107 114.001 120.107 115.011 120.612C112.912 122.905 111.027 124.267 108.202 125.549C107.461 125.886 106.72 126.222 105.957 126.569C105.17 126.913 104.384 127.257 103.573 127.612C102.764 127.966 101.954 128.321 101.12 128.686C85.3029 135.451 70.5262 136.834 54.1904 130.522C52.1003 129.601 50.0458 128.648 48.0107 127.612C48.0107 126.952 48.0107 126.292 48.0107 125.612C48.7904 125.825 49.57 126.038 50.3733 126.257C58.6143 128.354 66.2154 129.045 74.6982 128.924C75.8436 128.927 76.9889 128.931 78.1689 128.934C87.4852 128.875 95.8519 127.856 104.448 124.112C105.437 123.689 106.426 123.266 107.444 122.83C110.16 121.617 110.16 121.617 113.011 119.612Z" fill="#63C5DC"/>
<path d="M81.0107 64.6117C85.71 67.9995 88.7793 73.3036 91.0107 78.6117C91.0107 79.9317 91.0107 81.2517 91.0107 82.6117C90.3727 82.6723 89.7346 82.7329 89.0771 82.7953C87.8377 82.921 87.8377 82.921 86.5732 83.0492C85.3377 83.171 85.3377 83.171 84.0771 83.2953C82.0241 83.401 82.0241 83.401 81.0107 84.6117C79.5343 84.7099 78.053 84.7414 76.5732 84.7367C75.7702 84.7393 74.9671 84.7418 74.1396 84.7445C72.0107 84.6117 72.0107 84.6117 70.0107 83.6117C68.4741 83.387 66.9311 83.2037 65.3857 83.0492C64.5685 82.9654 63.7512 82.8816 62.9092 82.7953C61.9695 82.7044 61.9695 82.7044 61.0107 82.6117C61.1744 76.2279 64.8619 72.1213 69.0107 67.6117C72.7432 64.3421 76.1359 63.6075 81.0107 64.6117ZM65.6982 75.7992C63.8392 78.3509 63.8392 78.3509 64.0107 80.6117C64.9389 80.3848 65.867 80.1579 66.8232 79.9242C67.8751 79.8211 68.927 79.7179 70.0107 79.6117C71.0318 80.5902 72.0314 81.5915 73.0107 82.6117C76.0107 83.1117 76.0107 83.1117 79.0107 82.6117C79.5057 82.1167 80.0007 81.6217 80.5107 81.1117C82.0107 79.6117 82.0107 79.6117 85.1982 79.4242C86.1264 79.4861 87.0545 79.5479 88.0107 79.6117C87.2241 77.9843 86.4312 76.3598 85.6357 74.7367C85.1949 73.8318 84.754 72.9268 84.2998 71.9945C83.1057 69.5163 83.1057 69.5163 81.0107 67.6117C72.7789 66.6671 70.5132 69.1623 65.6982 75.7992Z" fill="#111214"/>
<path d="M39.0108 12.6117C40.0008 12.9417 40.9908 13.2717 42.0108 13.6117C42.0108 17.5717 42.0108 21.5317 42.0108 25.6117C43.3308 26.2717 44.6508 26.9317 46.0108 27.6117C46.1965 27.0342 46.3821 26.4567 46.5733 25.8617C48.7196 22.5023 51.3054 20.849 55.0108 19.6117C60.6637 19.0058 66.0025 18.6234 71.0108 21.6117C70.1652 21.6375 69.3196 21.6633 68.4483 21.6898C60.5432 22.0851 54.1449 22.7628 48.1983 28.2992C46.3434 31.9114 45.18 35.7311 44.0108 39.6117C43.3508 39.2817 42.6908 38.9517 42.0108 38.6117C42.8858 31.8617 42.8858 31.8617 44.0108 29.6117C43.2065 29.3229 42.4021 29.0342 41.5733 28.7367C39.0108 27.6117 39.0108 27.6117 38.0108 25.6117C37.8623 21.0806 37.9055 17.0329 39.0108 12.6117Z" fill="#0B1514"/>
<path d="M52.0107 89.6117C53.0007 89.6117 53.9907 89.6117 55.0107 89.6117C55.3407 90.6017 55.6707 91.5917 56.0107 92.6117C57.924 94.0392 57.924 94.0392 60.2607 95.2367C61.029 95.6621 61.7973 96.0875 62.5889 96.5258C70.986 100.291 81.3393 99.4475 89.8896 96.6156C92.8665 95.2067 94.7716 92.9826 97.0107 90.6117C99.3232 90.7992 99.3232 90.7992 101.011 91.6117C95.7325 97.5497 89.1766 101.356 81.1318 101.85C69.1017 102.135 60.0786 101.202 51.0107 92.6117C51.3407 91.6217 51.6707 90.6317 52.0107 89.6117Z" fill="#0B1213"/>
<path d="M103.011 37.6117C104.011 38.6117 104.011 38.6117 104.108 40.4594C104.076 42.5101 104.043 44.5609 104.011 46.6117C103.416 46.3951 102.822 46.1786 102.21 45.9554C95.6555 43.7536 89.8973 43.2582 83.0107 43.6117C82.6807 42.2917 82.3507 40.9717 82.0107 39.6117C89.2552 36.8302 95.3486 36.1099 103.011 37.6117Z" fill="#354E6A"/>
<path d="M70.0107 39.6117C70.0107 40.6017 70.0107 41.5917 70.0107 42.6117C69.1767 42.6491 68.3427 42.6865 67.4834 42.725C60.4561 43.1355 54.5717 44.054 48.0107 46.6117C47.8857 43.2367 47.8857 43.2367 48.0107 39.6117C53.6385 33.9839 63.3715 37.3986 70.0107 39.6117Z" fill="#3C566F"/>
<path d="M106.011 36.6117C107.186 40.2858 107.084 43.781 107.011 47.6117C102.136 48.6117 102.136 48.6117 101.011 48.6117C101.341 49.2717 101.671 49.9317 102.011 50.6117C102.555 55.1509 102.634 58.5661 100.261 62.5492C96.9685 65.5671 95.2726 66.5632 90.7607 66.7367C89.8532 66.6954 88.9457 66.6542 88.0107 66.6117C90.5281 62.8356 92.9088 62.3696 97.0107 60.6117C99.3498 57.103 99.4237 55.7408 99.0107 51.6117C97.6219 48.7939 97.6219 48.7939 96.0107 46.6117C97.7607 45.4867 97.7607 45.4867 100.011 44.6117C102.261 45.4867 102.261 45.4867 104.011 46.6117C103.681 43.9717 103.351 41.3317 103.011 38.6117C101.361 38.2817 99.7107 37.9517 98.0107 37.6117C101.078 35.7493 102.608 35.3965 106.011 36.6117Z" fill="#0F1E1F"/>
<path d="M25.0106 23.6117C26.0006 23.6117 26.9906 23.6117 28.0106 23.6117C28.0248 24.2756 28.039 24.9394 28.0536 25.6234C28.3658 31.5142 28.3658 31.5142 31.2606 36.5492C33.7718 38.4326 36.2526 40.1145 39.0106 41.6117C39.6706 39.9617 40.3306 38.3117 41.0106 36.6117C41.6706 37.2717 42.3306 37.9317 43.0106 38.6117C42.7832 41.3408 42.4688 43.9228 42.0106 46.6117C41.825 47.7667 41.6394 48.9217 41.4481 50.1117C41.2316 51.3492 41.2316 51.3492 41.0106 52.6117C40.0206 52.6117 39.0306 52.6117 38.0106 52.6117C38.3406 49.9717 38.6706 47.3317 39.0106 44.6117C38.3506 44.4261 37.6906 44.2404 37.0106 44.0492C32.4455 41.8617 27.3214 38.2332 25.0106 33.6117C24.9407 31.9047 24.9262 30.195 24.9481 28.4867C24.9572 27.5766 24.9662 26.6665 24.9755 25.7289C24.9871 25.0302 24.9987 24.3315 25.0106 23.6117Z" fill="#1B2626"/>
<path d="M72.0107 37.6117C72.0107 39.9217 72.0107 42.2317 72.0107 44.6117C70.5754 44.8344 69.1373 45.0393 67.6982 45.2367C66.8977 45.3527 66.0972 45.4687 65.2725 45.5883C63.0107 45.6117 63.0107 45.6117 60.0107 43.6117C63.3107 43.6117 66.6107 43.6117 70.0107 43.6117C70.0107 42.2917 70.0107 40.9717 70.0107 39.6117C58.4564 36.9896 58.4564 36.9896 47.5732 40.1742C47.0576 40.6486 46.542 41.1229 46.0107 41.6117C46.3407 39.9617 46.6707 38.3117 47.0107 36.6117C55.5428 32.856 63.6113 33.412 72.0107 37.6117Z" fill="#090C0D"/>
<path d="M113.011 119.612C113.671 119.942 114.331 120.272 115.011 120.612C111.696 124.241 107.815 125.771 103.386 127.737C102.616 128.096 101.847 128.456 101.054 128.827C95.6349 131.25 90.9354 132.221 85.0107 132.612C85.0107 132.282 85.0107 131.952 85.0107 131.612C79.0707 131.282 73.1307 130.952 67.0107 130.612C67.0107 130.282 67.0107 129.952 67.0107 129.612C67.5945 129.592 68.1783 129.572 68.7798 129.552C71.4821 129.455 74.1839 129.346 76.8857 129.237C77.8036 129.206 78.7214 129.175 79.667 129.143C88.3574 128.776 96.4219 127.608 104.448 124.112C105.437 123.689 106.426 123.266 107.444 122.83C110.16 121.617 110.16 121.617 113.011 119.612Z" fill="#54BED0"/>
<path d="M86.0107 70.6117C89.2582 74.7448 91.0107 77.251 91.0107 82.6117C90.3959 82.6723 89.781 82.7329 89.1475 82.7953C87.9351 82.921 87.9351 82.921 86.6982 83.0492C85.8977 83.1304 85.0972 83.2116 84.2725 83.2953C81.8499 83.5644 81.8499 83.5644 79.0107 84.6117C76.8232 83.6742 76.8232 83.6742 75.0107 82.6117C75.7945 82.3229 76.5782 82.0342 77.3857 81.7367C80.1075 80.7626 80.1075 80.7626 82.0107 78.6117C84.6357 78.4867 84.6357 78.4867 87.0107 78.6117C86.0207 76.3017 85.0307 73.9917 84.0107 71.6117C84.6707 71.2817 85.3307 70.9517 86.0107 70.6117Z" fill="#14181A"/>
<path d="M45.0107 40.6117C46.0007 40.6117 46.9907 40.6117 48.0107 40.6117C48.0107 42.5917 48.0107 44.5717 48.0107 46.6117C48.5096 46.3229 49.0085 46.0342 49.5225 45.7367C56.362 42.2003 62.4219 42.1894 70.0107 42.6117C70.0107 42.9417 70.0107 43.2717 70.0107 43.6117C67.7007 43.9417 65.3907 44.2717 63.0107 44.6117C63.0107 44.9417 63.0107 45.2717 63.0107 45.6117C60.3463 46.2891 57.6801 46.9543 55.0107 47.6117C53.6804 47.952 53.6804 47.952 52.3232 48.2992C49.6575 48.6594 47.6019 48.278 45.0107 47.6117C45.0107 45.3017 45.0107 42.9917 45.0107 40.6117Z" fill="#171F21"/>
<path d="M124.011 22.6117C125.001 22.9417 125.991 23.2717 127.011 23.6117C127.386 28.2989 127.495 31.6605 125.323 35.9242C122.059 39.7175 119.122 42.8545 114.011 43.6117C115.349 39.5976 117.535 38.8816 121.011 36.6117C123.201 33.3268 123.364 31.7807 123.636 27.9242C123.711 26.9303 123.785 25.9365 123.862 24.9125C123.911 24.1532 123.96 23.394 124.011 22.6117Z" fill="#121411"/>
<path d="M67.0107 19.6117C67.9891 19.7374 67.9891 19.7374 68.9873 19.8656C73.8932 20.4372 78.142 20.7648 83.0107 19.6117C83.0107 19.9417 83.0107 20.2717 83.0107 20.6117C88.4557 21.1067 88.4557 21.1067 94.0107 21.6117C94.0107 21.9417 94.0107 22.2717 94.0107 22.6117C92.4735 22.7026 92.4735 22.7026 90.9053 22.7953C89.5446 22.8797 88.1839 22.9644 86.8232 23.0492C86.1497 23.0885 85.4762 23.1278 84.7822 23.1683C81.847 23.3545 79.0292 23.6078 76.1475 24.2094C74.0107 24.6117 74.0107 24.6117 72.0107 23.6117C69.6395 23.3814 67.2633 23.2005 64.8857 23.0492C63.6044 22.9654 62.3231 22.8816 61.0029 22.7953C59.5218 22.7044 59.5218 22.7044 58.0107 22.6117C58.0107 22.2817 58.0107 21.9517 58.0107 21.6117C62.4657 21.1167 62.4657 21.1167 67.0107 20.6117C67.0107 20.2817 67.0107 19.9517 67.0107 19.6117Z" fill="#113B41"/>
<path d="M52.0107 89.6117C53.0007 89.6117 53.9907 89.6117 55.0107 89.6117C55.3407 90.6017 55.6707 91.5917 56.0107 92.6117C57.924 94.0392 57.924 94.0392 60.2607 95.2367C61.029 95.6621 61.7973 96.0875 62.5889 96.5258C65.0695 97.638 67.3339 98.1845 70.0107 98.6117C70.3407 99.6017 70.6707 100.592 71.0107 101.612C63.0221 100.946 57.0491 97.8952 51.0107 92.6117C51.3407 91.6217 51.6707 90.6317 52.0107 89.6117Z" fill="#0C1F21"/>
<path d="M89.6357 19.1742C95.963 19.2457 100.365 20.1932 105.011 24.6117C105.341 25.2717 105.671 25.9317 106.011 26.6117C105.021 26.9417 104.031 27.2717 103.011 27.6117C103.011 26.9517 103.011 26.2917 103.011 25.6117C95.6614 22.7467 88.8695 21.9639 81.0107 21.6117C83.8173 18.8052 85.7166 19.2455 89.6357 19.1742Z" fill="#081111"/>
<path d="M117.011 73.6117C117.341 73.6117 117.671 73.6117 118.011 73.6117C118.545 76.6929 119.061 79.7769 119.573 82.8617C119.725 83.7344 119.876 84.6071 120.032 85.5062C120.171 86.3506 120.309 87.1949 120.452 88.0648C120.583 88.8399 120.714 89.6149 120.849 90.4135C121.019 92.7234 120.696 94.4125 120.011 96.6117C119.351 96.6117 118.691 96.6117 118.011 96.6117C117.48 93.8633 116.961 91.1136 116.448 88.3617C116.297 87.5844 116.145 86.8071 115.989 86.0062C115.781 84.8751 115.781 84.8751 115.569 83.7211C115.438 83.0298 115.307 82.3385 115.173 81.6263C114.928 78.5795 115.657 76.3193 117.011 73.6117Z" fill="#14252A"/>
<path d="M89.4482 51.3617C90.7167 51.4854 90.7167 51.4854 92.0107 51.6117C94.0107 54.6117 94.0107 54.6117 93.6357 56.7992C93.4295 57.3973 93.2232 57.9954 93.0107 58.6117C90.6357 59.2367 90.6357 59.2367 88.0107 59.6117C86.0107 57.6117 86.0107 57.6117 85.8232 55.0492C86.0754 51.7711 86.181 51.6968 89.4482 51.3617Z" fill="#232421"/>
<path d="M32.0108 94.6117C32.3408 94.6117 32.6708 94.6117 33.0108 94.6117C33.0598 95.6249 33.1088 96.6381 33.1593 97.682C33.2344 99.0336 33.3099 100.385 33.3858 101.737C33.4168 102.402 33.4477 103.067 33.4796 103.752C33.73 108.01 34.4861 111.633 36.0108 115.612C35.3508 115.942 34.6908 116.272 34.0108 116.612C30.791 112.307 30.6115 108.552 30.7608 103.362C30.766 102.63 30.7711 101.897 30.7765 101.143C30.8561 95.7664 30.8561 95.7664 32.0108 94.6117Z" fill="#07090A"/>
<path d="M60.0108 51.6117C61.6862 51.8977 63.3546 52.2295 65.0108 52.6117C65.6358 54.9867 65.6358 54.9867 66.0108 57.6117C65.3508 58.2717 64.6908 58.9317 64.0108 59.6117C61.3858 59.2367 61.3858 59.2367 59.0108 58.6117C58.9682 56.6121 58.9699 54.6113 59.0108 52.6117C59.3408 52.2817 59.6708 51.9517 60.0108 51.6117Z" fill="#1E1D1C"/>
<path d="M39.0107 12.6117C40.0007 12.9417 40.9907 13.2717 42.0107 13.6117C42.0107 17.5717 42.0107 21.5317 42.0107 25.6117C42.6707 25.9417 43.3307 26.2717 44.0107 26.6117C43.6807 27.2717 43.3507 27.9317 43.0107 28.6117C41.0732 28.2367 41.0732 28.2367 39.0107 27.6117C36.8185 23.2273 37.853 17.2427 39.0107 12.6117Z" fill="#151412"/>
<path d="M96.0107 128.612C95.3714 128.9 94.732 129.189 94.0732 129.487C91.8587 130.44 91.8587 130.44 91.0107 132.612C89.0307 132.612 87.0507 132.612 85.0107 132.612C85.0107 132.282 85.0107 131.952 85.0107 131.612C79.0707 131.282 73.1307 130.952 67.0107 130.612C67.0107 130.282 67.0107 129.952 67.0107 129.612C70.3439 129.442 73.6773 129.276 77.0107 129.112C77.9453 129.064 78.8799 129.016 79.8428 128.967C85.2403 128.703 90.6068 128.561 96.0107 128.612Z" fill="#5DA4B7"/>
<path d="M66.0107 130.612C69.3022 130.525 72.5935 130.471 75.8857 130.424C76.8229 130.399 77.76 130.374 78.7256 130.348C80.0694 130.334 80.0694 130.334 81.4404 130.319C82.2678 130.303 83.0953 130.287 83.9478 130.271C84.6285 130.384 85.3093 130.496 86.0107 130.612C86.6707 131.602 87.3307 132.592 88.0107 133.612C83.0607 133.612 78.1107 133.612 73.0107 133.612C73.0107 133.282 73.0107 132.952 73.0107 132.612C70.7007 132.282 68.3907 131.952 66.0107 131.612C66.0107 131.282 66.0107 130.952 66.0107 130.612Z" fill="#6FCDE4"/>
<path d="M55.0107 124.612C59.3007 125.272 63.5907 125.932 68.0107 126.612C68.0107 127.272 68.0107 127.932 68.0107 128.612C62.3175 129.798 58.5851 129.274 53.0107 127.612C53.6707 127.282 54.3307 126.952 55.0107 126.612C55.0107 125.952 55.0107 125.292 55.0107 124.612Z" fill="#0F2124"/>
<path d="M73.0107 64.6117C80.2372 63.9993 80.2372 63.9993 84.0107 66.9867C86.0107 69.6117 86.0107 69.6117 86.0107 71.6117C82.1357 69.7367 82.1357 69.7367 81.0107 68.6117C78.6826 68.2441 76.3489 67.9093 74.0107 67.6117C73.6807 66.6217 73.3507 65.6317 73.0107 64.6117Z" fill="#111717"/>
<path d="M25.0106 23.6117C26.0006 23.6117 26.9906 23.6117 28.0106 23.6117C28.0712 24.3104 28.1318 25.009 28.1942 25.7289C28.278 26.639 28.3618 27.549 28.4481 28.4867C28.5699 29.8441 28.5699 29.8441 28.6942 31.2289C28.8805 33.6228 28.8805 33.6228 30.0106 35.6117C28.6906 35.6117 27.3706 35.6117 26.0106 35.6117C24.7483 33.0869 24.9121 31.2997 24.9481 28.4867C24.9572 27.5766 24.9662 26.6665 24.9755 25.7289C24.9871 25.0302 24.9987 24.3315 25.0106 23.6117Z" fill="#202524"/>
<path d="M71.2529 17.3461C72.5562 17.3538 72.5562 17.3538 73.8857 17.3617C74.7494 17.3565 75.6131 17.3514 76.5029 17.3461C79.1155 17.6228 80.7608 18.2931 83.0107 19.6117C76.9327 21.4034 72.9783 21.8972 67.0107 19.6117C69.0107 17.6117 69.0107 17.6117 71.2529 17.3461Z" fill="#6DC4CD"/>
<path d="M124.011 17.6117C125.16 18.5659 126.305 19.5252 127.448 20.4867C128.405 21.2872 128.405 21.2872 129.382 22.1039C131.011 23.6117 131.011 23.6117 132.011 25.6117C131.681 26.2717 131.351 26.9317 131.011 27.6117C130.021 27.6117 129.031 27.6117 128.011 27.6117C127.681 28.6017 127.351 29.5917 127.011 30.6117C126.878 30.0084 126.745 29.4051 126.608 28.7836C126.432 27.9844 126.255 27.1851 126.073 26.3617C125.899 25.5728 125.725 24.7839 125.546 23.9711C125.063 21.8429 124.549 19.7264 124.011 17.6117Z" fill="#1DAAC0"/>
<path d="M82.0107 78.6117C85.1357 78.9867 85.1357 78.9867 88.0107 79.6117C87.6807 80.6017 87.3507 81.5917 87.0107 82.6117C83.5316 84.2438 80.1562 85.0126 76.5107 83.7367C76.0157 83.3654 75.5207 82.9942 75.0107 82.6117C76.1864 82.1786 76.1864 82.1786 77.3857 81.7367C80.1075 80.7626 80.1075 80.7626 82.0107 78.6117Z" fill="#1F292E"/>
<path d="M82.0106 51.6117C83.3306 51.9417 84.6506 52.2717 86.0106 52.6117C86.6706 54.9217 87.3306 57.2317 88.0106 59.6117C86.6906 59.9417 85.3706 60.2717 84.0106 60.6117C81.7205 57.1765 81.8322 55.6264 82.0106 51.6117Z" fill="#CFD1D1"/>
<path d="M112.011 10.6117C116.434 11.9632 118.415 13.8106 121.011 17.6117C121.341 18.6017 121.671 19.5917 122.011 20.6117C121.351 20.6117 120.691 20.6117 120.011 20.6117C119.351 19.2917 118.691 17.9717 118.011 16.6117C116.361 16.9417 114.711 17.2717 113.011 17.6117C112.681 15.3017 112.351 12.9917 112.011 10.6117Z" fill="#CAB59B"/>
<path d="M103.011 33.6117C104.886 33.7367 104.886 33.7367 107.011 34.6117C108.898 38.6687 109.222 42.1771 109.011 46.6117C108.021 47.1067 108.021 47.1067 107.011 47.6117C106.681 43.9817 106.351 40.3517 106.011 36.6117C105.351 36.6117 104.691 36.6117 104.011 36.6117C103.681 35.6217 103.351 34.6317 103.011 33.6117Z" fill="#25BFD2"/>
<path d="M114.011 63.6117C115.001 64.1067 115.001 64.1067 116.011 64.6117C117.061 67.761 117.112 69.9998 117.073 73.2992C117.064 74.2931 117.055 75.2869 117.046 76.3109C117.034 77.0702 117.023 77.8294 117.011 78.6117C113.661 73.5875 113.912 69.5122 114.011 63.6117Z" fill="#080D0E"/>
<path d="M43.0108 39.6117C43.3408 39.6117 43.6708 39.6117 44.0108 39.6117C44.4145 46.0706 43.6023 50.6728 41.0108 56.6117C39.5636 52.7398 40.4666 49.7885 41.4483 45.8617C41.7357 44.6912 42.0232 43.5208 42.3194 42.3148C42.5475 41.4228 42.7757 40.5308 43.0108 39.6117Z" fill="#1DA7B9"/>
<path d="M44.0108 38.6117C44.3408 38.6117 44.6708 38.6117 45.0108 38.6117C45.3408 41.5817 45.6708 44.5517 46.0108 47.6117C47.6608 47.6117 49.3108 47.6117 51.0108 47.6117C50.3508 50.5817 49.6908 53.5517 49.0108 56.6117C48.6808 56.6117 48.3508 56.6117 48.0108 56.6117C47.9077 55.6629 47.8046 54.7142 47.6983 53.7367C47.3254 50.3206 47.3254 50.3206 44.0108 48.6117C43.7178 46.2289 43.7178 46.2289 43.8233 43.4867C43.8504 42.5766 43.8774 41.6665 43.9053 40.7289C43.9401 40.0302 43.9749 39.3315 44.0108 38.6117Z" fill="#1BBDD7"/>
<path d="M39.0107 49.6117C39.3407 49.6117 39.6707 49.6117 40.0107 49.6117C40.0378 51.2158 40.0571 52.82 40.0732 54.4242C40.0848 55.3175 40.0964 56.2108 40.1084 57.1312C40.0107 59.6117 40.0107 59.6117 39.0107 62.6117C38.3507 62.6117 37.6907 62.6117 37.0107 62.6117C36.8178 57.7881 37.2532 54.1152 39.0107 49.6117Z" fill="#0A1213"/>
<path d="M45.0107 40.6117C46.0007 40.6117 46.9907 40.6117 48.0107 40.6117C48.0107 42.5917 48.0107 44.5717 48.0107 46.6117C49.0007 46.9417 49.9907 47.2717 51.0107 47.6117C49.3546 47.9939 47.6862 48.3256 46.0107 48.6117C45.0107 47.6117 45.0107 47.6117 44.9482 44.0492C44.9689 42.9148 44.9895 41.7804 45.0107 40.6117Z" fill="#0F2526"/>
<path d="M52.0107 34.6117C52.3407 35.2717 52.6707 35.9317 53.0107 36.6117C55.0354 37.2638 55.0354 37.2638 57.0107 37.6117C55.9382 37.7148 54.8657 37.8179 53.7607 37.9242C50.1525 38.5857 48.6468 39.1865 46.0107 41.6117C46.1982 39.2367 46.1982 39.2367 47.0107 36.6117C49.5732 35.2992 49.5732 35.2992 52.0107 34.6117Z" fill="#0E1416"/>
<path d="M118.011 109.612C119.001 109.612 119.991 109.612 121.011 109.612C119.698 113.548 118.092 115.839 115.011 118.612C115.568 115.268 116.362 112.579 118.011 109.612Z" fill="#0A1314"/>
<path d="M36.0107 59.6117C36.3407 60.6017 36.6707 61.5917 37.0107 62.6117C37.6707 62.6117 38.3307 62.6117 39.0107 62.6117C38.6807 65.2517 38.3507 67.8917 38.0107 70.6117C37.0207 70.2817 36.0307 69.9517 35.0107 69.6117C35.3407 66.3117 35.6707 63.0117 36.0107 59.6117Z" fill="#192B30"/>
<path d="M27.0107 35.6117C30.8801 36.1849 33.163 38.0012 36.0107 40.6117C36.0107 41.2717 36.0107 41.9317 36.0107 42.6117C31.5918 41.2615 29.6673 39.3505 27.0107 35.6117Z" fill="#0E0F0E"/>
<path d="M93.0107 125.612C93.0107 126.272 93.0107 126.932 93.0107 127.612C93.6707 127.942 94.3307 128.272 95.0107 128.612C90.5557 129.107 90.5557 129.107 86.0107 129.612C86.0107 128.952 86.0107 128.292 86.0107 127.612C85.3507 127.282 84.6907 126.952 84.0107 126.612C90.7607 125.612 90.7607 125.612 93.0107 125.612Z" fill="#102225"/>
<path d="M96.0107 61.6117C96.6707 62.6017 97.3307 63.5917 98.0107 64.6117C94.6088 66.7052 91.958 66.7911 88.0107 66.6117C90.4151 63.0052 91.9575 62.7572 96.0107 61.6117Z" fill="#173436"/>
<path d="M68.5732 44.5492C69.7798 44.5801 69.7798 44.5801 71.0107 44.6117C70.3507 45.2717 69.6907 45.9317 69.0107 46.6117C70.0007 48.2617 70.9907 49.9117 72.0107 51.6117C71.0207 51.6117 70.0307 51.6117 69.0107 51.6117C66.8232 48.6117 66.8232 48.6117 65.0107 45.6117C66.0107 44.6117 66.0107 44.6117 68.5732 44.5492Z" fill="#122020"/>
<path d="M124.011 22.6117C125.001 22.9417 125.991 23.2717 127.011 23.6117C127.011 26.5817 127.011 29.5517 127.011 32.6117C126.021 32.2817 125.031 31.9517 124.011 31.6117C124.011 28.6417 124.011 25.6717 124.011 22.6117Z" fill="#212F2D"/>
<path d="M121.011 99.6117C121.341 99.6117 121.671 99.6117 122.011 99.6117C122.011 101.922 122.011 104.232 122.011 106.612C123.001 106.942 123.991 107.272 125.011 107.612C123.691 109.262 122.371 110.912 121.011 112.612C121.011 108.322 121.011 104.032 121.011 99.6117Z" fill="#4E98A8"/>
<path d="M97.0107 90.6117C98.3307 90.9417 99.6507 91.2717 101.011 91.6117C99.3873 93.3205 97.7176 94.9862 96.0107 96.6117C95.3507 96.6117 94.6907 96.6117 94.0107 96.6117C95.0107 94.6117 96.0107 92.6117 97.0107 90.6117Z" fill="#070E0F"/>
<path d="M60.0108 51.6117C61.6862 51.8977 63.3546 52.2295 65.0108 52.6117C64.6808 53.2717 64.3508 53.9317 64.0108 54.6117C63.0208 54.6117 62.0308 54.6117 61.0108 54.6117C60.6808 55.6017 60.3508 56.5917 60.0108 57.6117C59.6808 57.6117 59.3508 57.6117 59.0108 57.6117C58.968 55.9456 58.9701 54.2779 59.0108 52.6117C59.3408 52.2817 59.6708 51.9517 60.0108 51.6117Z" fill="#151413"/>
<path d="M98.0107 36.6117C98.0107 36.9417 98.0107 37.2717 98.0107 37.6117C96.3607 37.6117 94.7107 37.6117 93.0107 37.6117C93.0107 39.2617 93.0107 40.9117 93.0107 42.6117C91.6907 42.2817 90.3707 41.9517 89.0107 41.6117C89.6707 40.9517 90.3307 40.2917 91.0107 39.6117C90.3507 38.9517 89.6907 38.2917 89.0107 37.6117C92.2072 36.5463 94.6682 36.5374 98.0107 36.6117Z" fill="#2E4764"/>
<path d="M48.0107 125.612C52.4657 126.602 52.4657 126.602 57.0107 127.612C56.6807 128.272 56.3507 128.932 56.0107 129.612C50.2607 128.737 50.2607 128.737 48.0107 127.612C48.0107 126.952 48.0107 126.292 48.0107 125.612Z" fill="#5DC1D6"/>
<path d="M64.0107 74.6117C64.6707 74.6117 65.3307 74.6117 66.0107 74.6117C65.3507 76.5917 64.6907 78.5717 64.0107 80.6117C64.6707 80.9417 65.3307 81.2717 66.0107 81.6117C64.6907 81.2817 63.3707 80.9517 62.0107 80.6117C62.8857 75.7367 62.8857 75.7367 64.0107 74.6117Z" fill="#060809"/>
<path d="M99.0107 44.6117C100.425 47.2507 101.383 49.6829 102.011 52.6117C98.2743 51.3662 97.8232 49.9776 96.0107 46.6117C97.0007 45.9517 97.9907 45.2917 99.0107 44.6117Z" fill="#1A292A"/>
<path d="M102.011 38.6117C102.671 38.6117 103.331 38.6117 104.011 38.6117C104.011 41.2517 104.011 43.8917 104.011 46.6117C102.691 46.2817 101.371 45.9517 100.011 45.6117C100.011 44.9517 100.011 44.2917 100.011 43.6117C100.671 43.6117 101.331 43.6117 102.011 43.6117C102.011 41.9617 102.011 40.3117 102.011 38.6117Z" fill="#3A5A75"/>
<path d="M62.0107 35.6117C62.0107 35.9417 62.0107 36.2717 62.0107 36.6117C59.0407 36.6117 56.0707 36.6117 53.0107 36.6117C53.0107 35.9517 53.0107 35.2917 53.0107 34.6117C56.6302 33.2712 58.5844 33.9937 62.0107 35.6117Z" fill="#060605"/>
<path d="M73.0107 67.6117C73.0107 71.1289 72.1863 71.9829 70.0107 74.6117C69.0207 74.2817 68.0307 73.9517 67.0107 73.6117C70.7607 68.7367 70.7607 68.7367 73.0107 67.6117Z" fill="#776C8F"/>
<path d="M52.0107 60.6117C54.1795 61.1177 56.0104 61.6115 58.0107 62.6117C58.0107 63.6017 58.0107 64.5917 58.0107 65.6117C55.5732 64.7992 55.5732 64.7992 53.0107 63.6117C52.6807 62.6217 52.3507 61.6317 52.0107 60.6117Z" fill="#101B1F"/>
<path d="M86.0107 54.6117C88.4857 55.1067 88.4857 55.1067 91.0107 55.6117C90.6807 56.6017 90.3507 57.5917 90.0107 58.6117C88.6907 58.2817 87.3707 57.9517 86.0107 57.6117C86.0107 56.6217 86.0107 55.6317 86.0107 54.6117Z" fill="#050505"/>
<path d="M45.0107 33.6117C46.0007 33.6117 46.9907 33.6117 48.0107 33.6117C48.3407 34.6017 48.6707 35.5917 49.0107 36.6117C48.0207 37.1067 48.0207 37.1067 47.0107 37.6117C46.3507 38.6017 45.6907 39.5917 45.0107 40.6117C43.8857 35.8617 43.8857 35.8617 45.0107 33.6117Z" fill="#23A0B4"/>
<path d="M39.0107 12.6117C40.0007 12.9417 40.9907 13.2717 42.0107 13.6117C41.6807 17.2417 41.3507 20.8717 41.0107 24.6117C40.6807 24.6117 40.3507 24.6117 40.0107 24.6117C39.6807 20.6517 39.3507 16.6917 39.0107 12.6117Z" fill="#13373A"/>
</svg>
