<svg width="153" height="166" viewBox="0 0 153 166" fill="none" xmlns="http://www.w3.org/2000/svg">
<path d="M32.8797 0C34.1904 3.93222 33.1839 5.15474 31.5047 8.875C29.8342 12.5986 28.5205 15.9611 27.8797 20C29.8597 19.34 31.8397 18.68 33.8797 18C33.5909 18.5569 33.3022 19.1137 33.0047 19.6875C31.8384 22.0849 30.8457 24.516 29.8797 27C33.8845 27 35.6733 25.4254 39.0672 23.3125C55.6685 13.5765 74.4426 10.9064 93.3797 15.2461C102.996 18.146 113.623 21.743 120.88 29C121.005 32.625 121.005 32.625 120.88 36C121.54 36 122.2 36 122.88 36C122.719 28.723 121.614 24.5843 116.88 19C117.21 18.34 117.54 17.68 117.88 17C119.86 18.32 121.84 19.64 123.88 21C123.076 15.8368 122.186 11.1964 119.692 6.5625C119.094 5.38688 118.496 4.21125 117.88 3C118.21 2.01 118.54 1.02 118.88 0C123.999 4.40864 127.455 9.16513 128.063 16.0903C128.356 23.0515 128.553 30.1968 126.88 37C129.19 35.68 131.5 34.36 133.88 33C133.663 33.7412 133.447 34.4824 133.223 35.2461C132.802 38.6222 133.366 39.396 135.38 42.0625C148.5 60.5406 155.124 80.6861 151.481 103.495C147.356 122.258 137.207 137.249 122.833 149.785C122.188 150.186 121.544 150.587 120.88 151C119.89 150.67 118.9 150.34 117.88 150C117.694 150.577 117.508 151.155 117.317 151.75C115.148 155.145 112.47 156.205 108.88 158C108.22 158 107.56 158 106.88 158C107.045 157.072 107.21 156.144 107.38 155.188C108.709 146.386 108.709 146.386 106.88 138C106.932 138.909 106.932 138.909 106.985 139.836C107.233 147.514 106.203 154.515 101.88 161C86.493 167.563 68.8255 166.263 52.9344 162.461C48.4957 160.338 47.7745 157.529 46.2039 153.09C45.7103 149.908 45.7081 146.78 45.6922 143.562C45.678 142.264 45.6638 140.966 45.6492 139.629C45.8641 136.245 46.408 134.019 47.8797 131C48.6016 131.743 49.3234 132.485 50.0672 133.25C52.7493 135.964 52.7493 135.964 55.3797 138C57.8797 140 57.8797 140 60.2547 142.562C65.7592 147.674 70.7923 148.492 78.0906 148.301C82.2897 147.848 85.9818 146.567 89.8797 145C90.8697 144.67 91.8597 144.34 92.8797 144C94.6198 140.906 95.0185 138.036 95.3172 134.562C95.5964 131.419 95.9202 129.924 97.4422 127.062C99.4997 122.679 99.5742 118.763 98.8797 114C97.2914 109.897 94.6155 106.42 91.8797 103C92.8697 102.381 93.8597 101.762 94.8797 101.125C97.0425 99.3278 97.7946 98.3378 98.4891 95.582C98.6338 92.8599 98.5432 90.6452 97.8797 88C95.4722 85.0894 95.4722 85.0894 91.8797 84C88.1603 83.8162 88.1603 83.8162 84.8797 85C83.3667 86.936 83.3667 86.936 82.8797 89C83.2303 88.505 83.5809 88.01 83.9422 87.5C85.8797 86 85.8797 86 89.3172 85.5C92.8797 86 92.8797 86 95.3172 88.1875C97.0364 91.2821 97.6557 92.5508 96.8797 96C94.3185 99.0458 92.6745 100.735 88.8797 102C88.3847 103.485 88.3847 103.485 87.8797 105C88.6222 105.206 89.3647 105.412 90.1297 105.625C93.9744 107.547 95.055 109.08 96.8797 113C97.6627 118.292 98.1818 124.035 95.0047 128.625C87.9983 133.95 78.3631 133.408 69.8797 134C74.8297 134.33 79.7797 134.66 84.8797 135C82.8797 138 82.8797 138 80.2781 138.73C79.2804 138.881 78.2827 139.032 77.2547 139.188C76.2518 139.346 75.2489 139.505 74.2156 139.668C73.4448 139.778 72.6739 139.887 71.8797 140C79.9408 140.606 79.9408 140.606 86.8797 137C87.2097 136.01 87.5397 135.02 87.8797 134C89.5297 133.67 91.1797 133.34 92.8797 133C92.6407 139.095 92.6407 139.095 90.5828 141.543C84.8163 146.41 79.6899 146.386 72.4187 146.363C67.1601 145.823 63.5752 143.696 59.8797 140C59.8797 138 59.8797 136 59.8797 134C59.5497 133.67 59.2197 133.34 58.8797 133C58.5497 134.32 58.2197 135.64 57.8797 137C52.8394 133.249 49.95 129.444 46.8797 124C46.2816 123.113 45.6834 122.226 45.0672 121.312C42.9178 115.317 42.6952 108.441 44.782 102.379C45.8797 100.188 45.8797 100.188 47.8797 97C44.5844 99.9573 42.8685 102.693 41.1297 106.75C40.7017 107.735 40.2737 108.72 39.8328 109.734C39.5183 110.482 39.2037 111.23 38.8797 112C39.8697 112 40.8597 112 41.8797 112C41.9171 112.592 41.9545 113.183 41.993 113.793C42.3997 118.987 42.3997 118.987 44.5047 123.688C45.8797 126 45.8797 126 46.0672 128.75C44.5255 132.969 41.9515 135.379 38.8914 138.609C35.9892 142.058 34.3931 145.788 32.8797 150C22.943 147.205 16.1971 137.193 10.8797 129C1.39093 111.508 -3.1011 89.8565 2.36528 70.2808C5.83716 59.5934 10.6902 49.6682 17.8797 41C19.3647 41.495 19.3647 41.495 20.8797 42C20.8797 42.66 20.8797 43.32 20.8797 44C21.5397 44 22.1997 44 22.8797 44C22.6141 43.4689 22.3486 42.9378 22.075 42.3906C20.3432 38.9271 18.6115 35.4635 16.8797 32C19.5463 33.3333 22.213 34.6667 24.8797 36C24.7224 35.1698 24.5652 34.3397 24.4031 33.4844C22.8178 22.9317 22.4513 12.9961 28.8797 4C31.1922 1.375 31.1922 1.375 32.8797 0Z" fill="#151411"/>
<path d="M118.88 27C120.88 29 120.88 29 121.255 32.4375C120.958 42.0506 116.596 49.4158 109.88 56C109.22 55.67 108.56 55.34 107.88 55C107.903 54.3851 107.926 53.7702 107.95 53.1367C107.968 52.3285 107.986 51.5202 108.005 50.6875C108.028 49.887 108.051 49.0865 108.075 48.2617C108.038 45.7161 108.038 45.7161 105.88 43C104.56 43 103.24 43 101.88 43C101.805 43.6175 101.73 44.2349 101.653 44.8711C100.431 52.7398 97.5974 58.8541 91.442 64.0625C88.1561 65.2647 85.3484 65.2041 81.8795 65C82.2095 63.35 82.5395 61.7 82.8795 60C81.4409 60.0875 80.0036 60.1957 78.567 60.3125C77.7665 60.3705 76.966 60.4285 76.1413 60.4883C73.4679 61.0931 72.6452 61.9604 70.8795 64C68.442 65.8125 68.442 65.8125 65.8795 67C63.942 66.5 63.942 66.5 61.8795 65C60.9102 64.34 59.9408 63.68 58.942 63C53.9892 58.7511 51.0041 52.2784 50.067 45.875C50.0052 44.9262 49.9433 43.9775 49.8795 43C46.2444 43.3485 46.2444 43.3485 43.5045 45.5625C42.5636 49.232 43.2586 52.2743 43.8795 56C43.2195 56 42.5595 56 41.8795 56C35.8785 49.0689 29.7381 40.5635 30.153 30.9453C32.4088 24.9056 40.8859 21.8717 46.317 19.25C48.1613 18.476 50.0154 17.7249 51.8795 17C52.6607 16.679 53.4419 16.358 54.2467 16.0273C75.1635 8.84348 101.184 14.7601 118.88 27Z" fill="#D1BE99"/>
<path d="M132.88 41C144.643 51.7258 151.42 68.2901 152.251 84.0938C152.764 106.787 146.458 125.508 130.731 142.293C127.625 145.463 124.569 148.507 120.88 151C120.22 151 119.56 151 118.88 151C118.226 149.606 118.226 149.606 117.559 148.184C113.808 140.078 113.808 140.078 108.38 133.062C105.88 130 105.88 130 106.005 126.062C106.293 125.052 106.582 124.041 106.88 123C108.365 122.505 108.365 122.505 109.88 122C109.88 118.7 109.88 115.4 109.88 112C110.54 112 111.2 112 111.88 112C111.614 111.348 111.349 110.695 111.075 110.023C109.201 105.387 107.386 100.772 105.88 96C106.437 96.0464 106.993 96.0928 107.567 96.1406C115.243 96.5037 120.059 94.4604 125.817 89.4375C128.052 87.1025 128.052 87.1025 128.88 84C128.213 83.9742 127.547 83.9484 126.86 83.9219C116.119 83.2609 106.155 80.1517 97.8796 73C97.8796 72.34 97.8796 71.68 97.8796 71C102.5 71 107.12 71 111.88 71C111.55 69.02 111.22 67.04 110.88 65C111.437 64.6107 111.993 64.2214 112.567 63.8203C121.091 57.5711 126.895 49.6024 132.88 41Z" fill="#CFBD97"/>
<path d="M17.8797 41C21.7419 42.2874 22.1979 43.7394 24.2547 47.1875C28.9209 54.7276 33.5856 59.896 40.8797 65C40.2197 67.31 39.5597 69.62 38.8797 72C39.4984 71.835 40.1172 71.67 40.7547 71.5C45.1344 70.7992 49.454 70.9227 53.8797 71C52.3031 75.7297 48.497 76.9758 44.2898 79.3477C37.3683 82.7014 30.551 84.1923 22.8797 84C26.057 90.0201 30.5438 93.5631 36.8797 96C39.8991 96.2326 42.8587 96.1813 45.8797 96C44.448 99.6594 42.8903 103.24 41.2547 106.812C40.8087 107.788 40.3627 108.764 39.9031 109.77C39.5654 110.506 39.2277 111.242 38.8797 112C39.8697 112 40.8597 112 41.8797 112C41.9171 112.592 41.9545 113.183 41.993 113.793C42.3997 118.987 42.3997 118.987 44.5047 123.688C45.8797 126 45.8797 126 46.0672 128.75C44.5255 132.969 41.9515 135.379 38.8914 138.609C35.9892 142.058 34.3931 145.788 32.8797 150C22.943 147.205 16.1971 137.193 10.8797 129C1.39093 111.508 -3.1011 89.8565 2.36528 70.2808C5.83716 59.5934 10.6902 49.6682 17.8797 41Z" fill="#D0BD98"/>
<path d="M89.5046 77.9375C90.7305 77.951 90.7305 77.951 91.9812 77.9648C92.6077 77.9764 93.2341 77.988 93.8796 78C93.8796 78.99 93.8796 79.98 93.8796 81C95.003 82.0963 95.003 82.0963 96.1491 83.2148C99.3133 86.4424 100.799 89.4672 102.567 93.5625C103.154 94.8764 103.741 96.1902 104.329 97.5039C105.096 99.2344 105.096 99.2344 105.88 101C106.279 101.677 106.679 102.353 107.091 103.051C109.344 108.617 107.764 116.378 105.903 121.895C103.322 127.314 99.9652 131.629 95.8796 136C95.5496 135.34 95.2196 134.68 94.8796 134C95.4633 132.475 96.1225 130.978 96.8171 129.5C99.2159 123.708 100.44 117.98 98.0788 111.957C96.3227 108.777 94.1475 105.835 91.8796 103C92.8696 102.381 93.8596 101.762 94.8796 101.125C97.0424 99.3278 97.7945 98.3377 98.489 95.582C98.6337 92.8599 98.5431 90.6452 97.8796 88C95.4721 85.0894 95.4721 85.0894 91.8796 84C88.1602 83.8162 88.1602 83.8162 84.8796 85C83.3667 86.9359 83.3667 86.9359 82.8796 89C83.2302 88.505 83.5809 88.01 83.9421 87.5C85.8796 86 85.8796 86 89.3171 85.5C92.8796 86 92.8796 86 95.3171 88.1875C97.0363 91.282 97.6557 92.5508 96.8796 96C94.3184 99.0457 92.6744 100.735 88.8796 102C88.3846 103.485 88.3846 103.485 87.8796 105C88.9934 105.309 88.9934 105.309 90.1296 105.625C93.9743 107.547 95.0549 109.08 96.8796 113C97.6626 118.292 98.1817 124.035 95.0046 128.625C87.9982 133.95 78.363 133.408 69.8796 134C74.8296 134.33 79.7796 134.66 84.8796 135C82.8796 138 82.8796 138 80.278 138.73C79.2803 138.881 78.2826 139.032 77.2546 139.187C76.2517 139.346 75.2488 139.505 74.2155 139.668C73.4447 139.778 72.6738 139.887 71.8796 140C79.9407 140.606 79.9407 140.606 86.8796 137C87.2096 136.01 87.5396 135.02 87.8796 134C90.3546 133.505 90.3546 133.505 92.8796 133C92.6406 139.095 92.6406 139.095 90.5827 141.543C84.8163 146.41 79.6898 146.386 72.4187 146.363C67.1601 145.823 63.5751 143.696 59.8796 140C59.8796 138 59.8796 136 59.8796 134C59.5496 133.67 59.2196 133.34 58.8796 133C58.5496 134.32 58.2196 135.64 57.8796 137C52.8394 133.249 49.9499 129.444 46.8796 124C46.2815 123.113 45.6834 122.226 45.0671 121.312C42.6929 114.69 42.4436 107.724 45.4499 101.266C47.0998 98.0777 48.9412 95.0214 50.8796 92C51.5396 92 52.1996 92 52.8796 92C53.1477 91.0512 53.4159 90.1025 53.6921 89.125C54.8796 86 54.8796 86 57.8796 84C60.0359 83.6992 60.0359 83.6992 62.3796 83.6875C63.153 83.6707 63.9265 83.654 64.7234 83.6367C68.0443 84.1962 69.2482 86.1161 71.1296 88.75C72.2158 92.0086 71.5181 94.6797 70.8796 98C74.5096 98.33 78.1396 98.66 81.8796 99C81.3846 98.1956 80.8896 97.3912 80.3796 96.5625C78.5457 92.2069 78.0808 88.6638 78.8796 84C81.9059 79.158 83.9369 77.8579 89.5046 77.9375Z" fill="#7E6A63"/>
<path d="M105.274 38.0078C109.111 40.7331 112.616 43.6096 115.88 47C114.567 50.9368 112.961 53.2272 109.88 56C109.22 55.67 108.56 55.34 107.88 55C107.903 54.3851 107.926 53.7703 107.95 53.1368C107.968 52.3285 107.986 51.5203 108.005 50.6875C108.028 49.887 108.051 49.0865 108.075 48.2618C108.038 45.7161 108.038 45.7161 105.88 43C104.56 43 103.24 43 101.88 43C101.805 43.6175 101.73 44.235 101.653 44.8711C100.431 52.7399 97.5975 58.8542 91.4421 64.0625C88.1562 65.2647 85.3485 65.2041 81.8796 65C82.2096 63.35 82.5396 61.7 82.8796 60C81.441 60.0875 80.0037 60.1957 78.5671 60.3125C77.7666 60.3705 76.9661 60.4285 76.1414 60.4883C73.4681 61.0932 72.6453 61.9604 70.8796 64C68.4421 65.8125 68.4421 65.8125 65.8796 67C63.9421 66.5 63.9421 66.5 61.8796 65C60.9103 64.34 59.9409 63.68 58.9421 63C53.9893 58.7512 51.0042 52.2784 50.0671 45.875C50.0053 44.9263 49.9434 43.9775 49.8796 43C46.2445 43.3485 46.2445 43.3485 43.5046 45.5625C42.5638 49.232 43.2587 52.2744 43.8796 56C43.2196 56 42.5596 56 41.8796 56C40.3367 54.3555 40.3367 54.3555 38.6921 52.1875C38.1417 51.4798 37.5913 50.7721 37.0242 50.043C36.4576 49.0317 36.4576 49.0317 35.8796 48C37.1951 44.0535 39.4931 43.0623 42.8796 41C43.9683 40.2827 43.9683 40.2827 45.0789 39.5508C63.0528 28.0602 86.6276 26.9787 105.274 38.0078Z" fill="#DFCFAF"/>
<path d="M122.88 55C125.917 57.5855 127.245 60.5243 128.88 64.125C129.375 65.2001 129.87 66.2752 130.38 67.3828C133.574 75.0867 135.398 81.4809 135.255 89.875C135.242 90.7556 135.23 91.6362 135.217 92.5435C134.841 107.168 129.271 118.765 119.005 129.25C117.022 131.108 115.167 132.475 112.88 134C110.317 133.812 110.317 133.812 107.88 133C105.313 129.15 106.047 127.414 106.88 123C108.365 122.505 108.365 122.505 109.88 122C109.88 118.7 109.88 115.4 109.88 112C110.54 112 111.2 112 111.88 112C111.614 111.348 111.349 110.695 111.075 110.023C109.201 105.387 107.386 100.772 105.88 96C106.437 96.0464 106.993 96.0928 107.567 96.1406C115.243 96.5037 120.059 94.4604 125.817 89.4375C128.052 87.1025 128.052 87.1025 128.88 84C128.213 83.9742 127.547 83.9484 126.86 83.9219C116.119 83.2609 106.155 80.1517 97.8796 73C97.8796 72.34 97.8796 71.68 97.8796 71C102.5 71 107.12 71 111.88 71C111.55 69.02 111.22 67.04 110.88 65C111.802 64.2942 111.802 64.2942 112.743 63.5742C113.551 62.9516 114.359 62.329 115.192 61.6875C115.993 61.0726 116.793 60.4577 117.618 59.8242C119.507 58.3008 121.21 56.7557 122.88 55Z" fill="#DFCEAF"/>
<path d="M28.8795 56C30.8795 56 30.8795 56 33.192 58.1875C34.0789 59.1156 34.9658 60.0437 35.8795 61C36.8077 61.9281 37.7358 62.8562 38.692 63.8125C39.7749 64.8953 39.7749 64.8953 40.8795 66C40.2195 67.98 39.5595 69.96 38.8795 72C39.4983 71.835 40.117 71.67 40.7545 71.5C45.1342 70.7992 49.4538 70.9227 53.8795 71C52.303 75.7297 48.4969 76.9758 44.2897 79.3477C37.3681 82.7014 30.5509 84.1923 22.8795 84C26.0568 90.0201 30.5436 93.5631 36.8795 96C39.8989 96.2326 42.8586 96.1813 45.8795 96C44.4479 99.6594 42.8902 103.24 41.2545 106.812C40.8085 107.788 40.3625 108.764 39.903 109.77C39.5652 110.506 39.2275 111.242 38.8795 112C39.8695 112 40.8595 112 41.8795 112C41.9169 112.592 41.9543 113.183 41.9928 113.793C42.3995 118.987 42.3995 118.987 44.5045 123.688C45.8795 126 45.8795 126 45.7545 129.125C44.8793 132.001 44.2093 133.177 41.8795 135C29.9248 129.393 23.7188 117.776 19.3795 105.812C15.0663 89.8419 17.8225 75.638 25.3209 61.2305C26.6295 59 26.6295 59 28.8795 56Z" fill="#DFCFAF"/>
<path d="M47.8796 131C48.6015 131.743 49.3234 132.485 50.0671 133.25C52.7492 135.964 52.7492 135.964 55.3796 138C57.8796 140 57.8796 140 60.2546 142.562C65.7592 147.674 70.7922 148.492 78.0906 148.301C82.2896 147.848 85.9817 146.567 89.8796 145C90.8696 144.67 91.8596 144.34 92.8796 144C93.5742 142.681 94.2356 141.344 94.8796 140C96.2137 138.382 97.5918 136.8 99.0046 135.25C99.7291 134.451 100.454 133.652 101.2 132.828C101.754 132.225 102.309 131.622 102.88 131C106.121 133.818 106.701 136.04 107.083 140.227C107.23 147.737 106.102 154.667 101.88 161C86.493 167.563 68.8255 166.263 52.9343 162.461C48.4956 160.338 47.7745 157.529 46.2039 153.09C45.7102 149.908 45.7081 146.78 45.6921 143.562C45.6709 141.615 45.6709 141.615 45.6492 139.629C45.8641 136.245 46.408 134.019 47.8796 131Z" fill="#C8C4BD"/>
<path d="M32.8796 0C34.1904 3.93222 33.1839 5.15474 31.5046 8.875C29.8342 12.5986 28.5205 15.9611 27.8796 20C29.8596 19.34 31.8396 18.68 33.8796 18C33.5909 18.5569 33.3021 19.1137 33.0046 19.6875C31.8383 22.0849 30.8457 24.516 29.8796 27C30.2096 27.33 30.5396 27.66 30.8796 28C30.9828 29.2994 31.0859 30.5987 31.1921 31.9375C32.1383 40.9548 35.6781 47.5165 41.8796 54C41.8796 53.34 41.8796 52.68 41.8796 52C42.3396 47.7679 43.0396 45.2105 45.8796 42C47.5296 42.33 49.1796 42.66 50.8796 43C50.9544 43.6175 51.0292 44.2349 51.1062 44.8711C52.3862 53.1158 55.6268 58.7472 61.5046 64.625C63.7604 66.2434 63.7604 66.2434 66.1921 65.75C66.749 65.5025 67.3059 65.255 67.8796 65C67.6531 66.8438 67.6531 66.8438 66.8796 69C64.9187 70.3438 64.9187 70.3438 62.5046 71.5C58.9996 73.1897 56.8962 74.6174 54.8796 78C54.8796 78.99 54.8796 79.98 54.8796 81C55.3746 80.505 55.8696 80.01 56.3796 79.5C59.8384 77.4248 63.0007 77.1842 66.8796 78C70.4081 80.5525 71.6527 82.0746 72.6921 86.3125C72.754 87.1994 72.8159 88.0863 72.8796 89C70.8796 88 70.8796 88 69.4421 85.5625C67.983 82.7644 67.983 82.7644 64.8796 81C60.243 81.2342 60.243 81.2342 56.1296 83.1875C54.422 85.6635 53.1497 88.2784 51.8796 91C51.2196 91 50.5596 91 49.8796 91C49.8796 89.68 49.8796 88.36 49.8796 87C49.355 87.3248 48.8303 87.6497 48.2898 87.9844C45.1883 89.2913 42.6746 89.2653 39.3171 89.25C38.1815 89.2552 37.0458 89.2603 35.8757 89.2656C32.8796 89 32.8796 89 29.8796 87C30.9044 86.9626 31.9292 86.9252 32.9851 86.8867C34.3458 86.821 35.7065 86.7546 37.0671 86.6875C37.7407 86.6649 38.4142 86.6424 39.1082 86.6191C43.4579 86.3857 46.4841 85.7944 49.8796 83C50.7579 80.9147 50.7579 80.9147 50.8796 79C49.6286 79.6323 49.6286 79.6323 48.3523 80.2773C41.7067 83.5126 36.2891 85.7488 28.8796 86C28.5496 87.65 28.2196 89.3 27.8796 91C25.3796 89.1875 25.3796 89.1875 22.8796 87C22.8796 86.01 22.8796 85.02 22.8796 84C24.0398 83.7925 25.2 83.5849 26.3953 83.3711C36.322 81.4622 44.6743 79.2268 52.8796 73C53.2096 72.34 53.5396 71.68 53.8796 71C48.9296 71.33 43.9796 71.66 38.8796 72C38.8796 67 38.8796 67 39.8796 65C39.3344 64.6339 38.7891 64.2678 38.2273 63.8906C30.9834 58.6899 22.821 51.5002 21.2585 42.3711C21.071 40.7024 21.071 40.7024 20.8796 39C19.9859 36.8148 19.9859 36.8148 18.8171 35.0625C18.1778 34.0519 17.5384 33.0412 16.8796 32C19.5463 33.3333 22.213 34.6667 24.8796 36C24.7224 35.1698 24.5651 34.3397 24.4031 33.4844C22.8178 22.9317 22.4513 12.9961 28.8796 4C31.1921 1.375 31.1921 1.375 32.8796 0Z" fill="#161513"/>
<path d="M73.8796 60C75.9421 60.4375 75.9421 60.4375 77.8796 61C77.8796 61.66 77.8796 62.32 77.8796 63C78.5396 63.33 79.1996 63.66 79.8796 64C79.2196 64.66 78.5596 65.32 77.8796 66C81.5427 66.7493 84.3032 67.238 87.8796 66C87.9003 66.7425 87.9209 67.485 87.9421 68.25C89.1463 71.7822 90.9384 72.3311 94.1531 73.9648C96.7091 75.4973 97.7647 77.2822 98.8796 80C98.3846 81.485 98.3846 81.485 97.8796 83C96.8896 82.01 95.8996 81.02 94.8796 80C94.5496 80.66 94.2196 81.32 93.8796 82C91.5696 81.67 89.2596 81.34 86.8796 81C86.8796 80.67 86.8796 80.34 86.8796 80C88.8596 79.67 90.8396 79.34 92.8796 79C87.0341 78.4678 87.0341 78.4678 81.8796 80.9375C79.1733 85.0817 79.2122 88.1843 79.8796 93C80.7642 96.4147 80.7642 96.4147 81.8796 99C77.9196 99 73.9596 99 69.8796 99C70.1271 97.8038 70.3746 96.6075 70.6296 95.375C71.0276 91.9864 70.8173 90.8414 69.5046 87.5C66.6468 84.7782 66.0643 84.5781 62.3171 84.4375C59.5674 84.5071 58.3189 84.6393 56.1765 86.3984C54.7476 88.1631 53.8065 89.9324 52.8796 92C52.2196 92 51.5596 92 50.8796 92C50.2196 93.98 49.5596 95.96 48.8796 98C48.0134 97.835 47.1471 97.67 46.2546 97.5C42.9805 96.8807 42.9805 96.8807 40.0671 97.25C35.3194 96.8776 31.8661 94.4805 27.8796 92C27.9209 91.2163 27.9621 90.4325 28.0046 89.625C28.1669 86.8388 28.1669 86.8388 25.8796 85C26.9702 84.9961 26.9702 84.9961 28.0828 84.9922C35.6596 84.7008 40.9006 82.9277 47.4812 79.1797C48.2727 78.7904 49.0642 78.4011 49.8796 78C50.5396 78.33 51.1996 78.66 51.8796 79C50.9625 82.0849 50.3102 83.6801 47.6921 85.625C44.5011 87.1851 42.0999 87.4934 38.5671 87.6875C37.4985 87.7532 36.4299 87.819 35.3289 87.8867C34.5206 87.9241 33.7124 87.9615 32.8796 88C34.9629 88.0271 37.0463 88.0464 39.1296 88.0625C40.8699 88.0799 40.8699 88.0799 42.6453 88.0977C45.2894 88.0178 47.3779 87.7864 49.8796 87C49.8796 88.32 49.8796 89.64 49.8796 91C50.5396 91 51.1996 91 51.8796 91C51.9828 90.4431 52.0859 89.8863 52.1921 89.3125C53.25 85.7544 54.6788 82.9435 57.6296 80.625C61.0208 79.683 63.4896 80.1525 66.8796 81C69.7491 83.2653 70.7187 84.5172 71.8796 88C71.357 85.2372 70.7709 82.6739 69.8796 80C65.6178 78.5794 61.1669 77.8973 57.0242 79.8945C55.5915 80.8576 54.2277 81.9216 52.8796 83C53.6916 79.1615 54.2548 76.6249 57.0671 73.8125C59.2332 72.4166 61.362 71.206 63.6296 70C67.0011 68.4204 67.0011 68.4204 67.5046 65.9375C67.6903 64.9784 67.6903 64.9784 67.8796 64C70.3796 62.3125 70.3796 62.3125 72.8796 61C73.2096 60.67 73.5396 60.34 73.8796 60Z" fill="#7C5331"/>
<path d="M93.8796 84C96.8171 85.4375 96.8171 85.4375 98.8796 88C99.6574 91.4882 99.7064 94.5185 98.8796 98C97.0675 100.355 95.4487 101.394 92.8796 103C93.3012 103.543 93.7227 104.085 94.157 104.645C94.7048 105.36 95.2527 106.075 95.8171 106.812C96.3624 107.52 96.9077 108.228 97.4695 108.957C100.638 113.548 100.464 118.633 99.8796 124C98.9842 126.671 97.9109 129.181 96.7507 131.746C95.673 134.112 95.673 134.112 95.9421 137.312C95.8796 140 95.8796 140 93.7546 142.687C87.2018 147.958 81.0658 149.425 72.8328 149.348C65.5273 148.488 59.5976 144.504 54.8796 139C54.0733 138.074 54.0733 138.074 53.2507 137.129C51.7786 135.431 50.3234 133.722 48.8796 132C46.486 135.728 46.6444 139.025 46.6921 143.375C46.6986 144.661 46.705 145.948 46.7117 147.273C46.8619 150.607 47.2466 153.729 47.8796 157C46.3946 157.99 46.3946 157.99 44.8796 159C41.5796 157.02 38.2796 155.04 34.8796 153C35.3298 147.147 37.918 142.918 40.8796 138C40.2196 137.67 39.5596 137.34 38.8796 137C39.5467 136.364 39.5467 136.364 40.2273 135.715C44.1642 131.685 44.1642 131.685 44.8796 126.187C44.1322 122.944 44.1322 122.944 41.8796 121C41.6843 118.836 41.6843 118.836 41.7546 116.375C41.7727 115.558 41.7907 114.74 41.8093 113.898C41.8325 113.272 41.8557 112.645 41.8796 112C40.8896 112 39.8996 112 38.8796 112C39.4645 107.993 40.7236 105.143 42.8171 101.687C43.3418 100.804 43.8664 99.9215 44.407 99.0117C44.893 98.3478 45.3789 97.684 45.8796 97C46.5396 97 47.1996 97 47.8796 97C46.0046 102.75 46.0046 102.75 44.8796 105C43.6399 115.655 46.113 122.451 52.321 130.98C54.0119 133.105 55.4286 134.774 57.8796 136C58.2096 135.01 58.5396 134.02 58.8796 133C59.5396 133.33 60.1996 133.66 60.8796 134C60.7146 134.887 60.5496 135.774 60.3796 136.687C60.9331 140.354 61.1696 140.77 64.0046 142.875C69.8281 146.099 76.4268 145.898 82.8796 145C87.5362 143.064 89.7384 141.621 91.8796 137C92.5754 134.809 92.5754 134.809 92.8796 133C90.4046 133.495 90.4046 133.495 87.8796 134C87.7868 134.897 87.7868 134.897 87.6921 135.812C86.8796 138 86.8796 138 84.9421 139.75C80.5823 141.529 76.5281 141.244 71.8796 141C71.5496 140.34 71.2196 139.68 70.8796 139C71.7343 138.867 72.5889 138.734 73.4695 138.598C74.5742 138.421 75.6789 138.244 76.8171 138.062C77.9193 137.888 79.0214 137.714 80.157 137.535C82.7839 137.282 82.7839 137.282 83.8796 136C82.8922 135.951 81.9048 135.902 80.8875 135.852C79.6061 135.777 78.3248 135.702 77.0046 135.625C75.7285 135.555 74.4523 135.486 73.1375 135.414C69.8796 135 69.8796 135 67.8796 133C68.4896 132.955 69.0996 132.91 69.728 132.864C72.5089 132.652 75.2878 132.42 78.0671 132.187C79.0268 132.117 79.9866 132.047 80.9753 131.975C87.9197 131.415 87.9197 131.415 93.8796 128C96.1618 124.577 96.1771 123.159 96.1921 119.125C96.2089 118.096 96.2257 117.068 96.2429 116.008C95.8299 112.588 94.915 110.754 92.8796 108C90.3135 106.192 90.3135 106.192 87.8796 105C88.0046 103.125 88.0046 103.125 88.8796 101C91.9421 99.75 91.9421 99.75 94.8796 99C95.9941 93.6515 95.9941 93.6515 94.8796 88.5C91.8019 86.1917 89.6129 86.476 85.8796 87C83.4387 88.8542 83.4387 88.8542 81.8796 91C82.1981 88.0544 82.5423 86.3892 84.5046 84.125C88.0061 82.4664 90.1798 83.0264 93.8796 84Z" fill="#1F1D1B"/>
<path d="M50.8796 92C51.5396 92 52.1996 92 52.8796 92C53.0859 93.0931 53.2921 94.1862 53.5046 95.3125C54.5362 99.2286 54.5362 99.2286 58.0046 100.938C59.4277 101.463 59.4277 101.463 60.8796 102C60.8796 102.66 60.8796 103.32 60.8796 104C59.8896 104.66 58.8996 105.32 57.8796 106C57.2161 108.484 57.2161 108.484 56.8796 111C56.5496 111.66 56.2196 112.32 55.8796 113C55.7567 114.935 55.7041 116.874 55.6921 118.812C55.6708 120.369 55.6708 120.369 55.6491 121.957C55.8865 125.091 56.3874 127.239 57.8796 130C60.7347 130.952 62.789 131.19 65.7663 131.316C67.173 131.379 67.173 131.379 68.6081 131.443C70.0728 131.502 70.0728 131.502 71.5671 131.562C72.5552 131.606 73.5432 131.649 74.5612 131.693C77.0006 131.799 79.44 131.901 81.8796 132C81.8796 132.33 81.8796 132.66 81.8796 133C75.9396 133.495 75.9396 133.495 69.8796 134C74.8296 134.33 79.7796 134.66 84.8796 135C82.8796 138 82.8796 138 80.278 138.73C79.2803 138.881 78.2826 139.032 77.2546 139.188C76.2517 139.346 75.2488 139.505 74.2155 139.668C73.4447 139.778 72.6738 139.887 71.8796 140C79.9407 140.606 79.9407 140.606 86.8796 137C87.2096 136.01 87.5396 135.02 87.8796 134C90.3546 133.505 90.3546 133.505 92.8796 133C92.6406 139.095 92.6406 139.095 90.5827 141.543C84.8163 146.41 79.6898 146.386 72.4187 146.363C67.1601 145.823 63.5751 143.696 59.8796 140C59.8796 138 59.8796 136 59.8796 134C59.5496 133.67 59.2196 133.34 58.8796 133C58.5496 134.32 58.2196 135.64 57.8796 137C52.8394 133.249 49.9499 129.444 46.8796 124C46.2815 123.113 45.6834 122.226 45.0671 121.312C42.6929 114.69 42.4436 107.724 45.4499 101.266C47.0998 98.0777 48.9412 95.0214 50.8796 92Z" fill="#161614"/>
<path d="M98.8796 77C102.579 78.4716 106.264 79.9749 109.942 81.5C110.964 81.9228 111.987 82.3456 113.04 82.7812C115.369 83.781 117.63 84.8346 119.88 86C117.109 86.9235 115.313 87.1633 112.442 87.1875C111.68 87.2017 110.918 87.2159 110.134 87.2305C107.646 86.9761 106.032 86.2402 103.88 85C105.022 86.6043 105.022 86.6043 106.88 88C109.612 88.4021 109.612 88.4021 112.63 88.25C113.692 88.2242 114.754 88.1984 115.848 88.1719C119.258 87.9786 122.522 87.6105 125.88 87C125.88 86.01 125.88 85.02 125.88 84C126.87 84 127.86 84 128.88 84C128.073 89.3829 124.007 91.8789 119.88 95C115.872 97.2481 112.438 97.258 107.88 97C107.22 96.67 106.56 96.34 105.88 96C106.313 96.8198 106.746 97.6397 107.192 98.4844C108.027 100.101 108.027 100.101 108.88 101.75C109.437 102.817 109.993 103.885 110.567 104.984C111.88 108 111.88 108 111.88 112C111.22 112 110.56 112 109.88 112C109.88 115.3 109.88 118.6 109.88 122C108.89 122.495 108.89 122.495 107.88 123C106.777 125.88 106.38 127.035 106.88 130C108.657 132.704 110.674 135.061 112.79 137.508C115.634 140.9 117.331 143.847 118.88 148C118.63 150.688 118.63 150.688 116.88 153C110.305 158 110.305 158 106.88 158C107.127 156.608 107.127 156.608 107.38 155.188C108.376 148.183 108.377 140.925 106.88 134C106.22 134 105.56 134 104.88 134C104.22 133.34 103.56 132.68 102.88 132C102.47 132.505 102.06 133.011 101.637 133.531C100.829 134.506 100.829 134.506 100.005 135.5C99.2041 136.475 99.2041 136.475 98.3875 137.469C97.8899 137.974 97.3923 138.479 96.8796 139C96.2196 139 95.5596 139 94.8796 139C95.9721 135.504 97.5844 132.973 99.8171 130.125C105.683 122.399 107.743 114.777 106.88 105C105.249 99.6817 102.502 94.8782 99.8796 90C99.1853 88.3447 98.5061 86.6822 97.8796 85C99.1996 84.67 100.52 84.34 101.88 84C100.89 81.69 99.8996 79.38 98.8796 77Z" fill="#1A1816"/>
<path d="M117.88 0C121.652 1.25751 122.054 2.49401 124.005 5.875C124.782 7.20145 124.782 7.20145 125.575 8.55469C127.324 11.8322 128.007 14.39 128.012 18.0547C128.014 19.2245 128.014 19.2245 128.016 20.418C128.012 21.2288 128.009 22.0396 128.005 22.875C128.01 24.0796 128.01 24.0796 128.016 25.3086C128.01 29.3369 127.882 33.0694 126.88 37C130.345 35.02 130.345 35.02 133.88 33C129.7 44.2124 121.278 56.6379 110.755 62.6875C109.806 63.1206 108.857 63.5538 107.88 64C107.88 64.99 107.88 65.98 107.88 67C108.54 67.66 109.2 68.32 109.88 69C109.071 68.9768 108.263 68.9536 107.43 68.9297C106.362 68.9116 105.293 68.8936 104.192 68.875C103.136 68.8518 102.081 68.8286 100.993 68.8047C97.8571 69.0014 95.7032 69.6694 92.8796 71C91.8896 70.01 90.8996 69.02 89.8796 68C90.4829 67.4663 91.0862 66.9327 91.7078 66.3828C97.4212 61.0564 100.616 56.4644 102.88 49C103.21 48.01 103.54 47.02 103.88 46C104.54 46 105.2 46 105.88 46C106.074 51.5268 105.628 55.7561 103.88 61C108.481 58.967 111.509 56.7258 114.88 53C115.581 52.2369 116.282 51.4737 117.005 50.6875C122.307 43.0871 123.085 35.0914 121.88 26C120.518 23.026 119.164 21.3981 116.88 19C117.21 18.34 117.54 17.68 117.88 17C119.86 18.32 121.84 19.64 123.88 21C122.949 15.0229 121.702 9.96609 118.684 4.69141C117.88 3 117.88 3 117.88 0Z" fill="#D6C7AD"/>
<path d="M32.8796 0C34.1904 3.93222 33.1839 5.15474 31.5046 8.875C29.8342 12.5986 28.5205 15.9611 27.8796 20C29.8596 19.34 31.8396 18.68 33.8796 18C32.7392 20.2809 31.6243 22.3783 30.1921 24.5C27.4084 31.9232 29.1769 39.2021 32.3796 46.25C35.4861 51.9803 39.4834 56.3306 44.8796 60C45.5396 60 46.1996 60 46.8796 60C46.529 58.8038 46.1784 57.6075 45.8171 56.375C44.8776 52.6234 44.7743 49.7765 45.8796 46C46.8696 45.505 46.8696 45.505 47.8796 45C47.9918 45.678 48.1039 46.3561 48.2195 47.0547C49.7912 54.4717 52.5886 58.554 58.0164 63.8086C59.8796 66 59.8796 66 59.8796 70C55.8796 70 55.8796 70 53.8796 69C51.8391 68.9293 49.7963 68.9158 47.7546 68.9375C46.6589 68.9465 45.5632 68.9555 44.4343 68.9648C43.1698 68.9822 43.1698 68.9822 41.8796 69C43.1996 67.02 44.5196 65.04 45.8796 63C45.141 62.8904 44.4024 62.7809 43.6414 62.668C33.4112 60.1936 27.1763 49.3282 21.8796 41C20.1094 38.0469 18.4259 35.0762 16.8796 32C19.5463 33.3333 22.213 34.6667 24.8796 36C24.7224 35.1698 24.5651 34.3397 24.4031 33.4844C22.8178 22.9317 22.4513 12.9961 28.8796 4C31.1921 1.375 31.1921 1.375 32.8796 0Z" fill="#DECFB4"/>
<path d="M93.8796 84C96.8171 85.4375 96.8171 85.4375 98.8796 88C99.6574 91.4882 99.7064 94.5185 98.8796 98C97.0675 100.355 95.4487 101.394 92.8796 103C93.3012 103.543 93.7227 104.085 94.157 104.645C94.7048 105.36 95.2527 106.075 95.8171 106.812C96.3624 107.52 96.9077 108.228 97.4695 108.957C100.638 113.548 100.464 118.633 99.8796 124C98.9842 126.671 97.9109 129.181 96.7507 131.746C95.673 134.112 95.673 134.112 95.9421 137.312C95.8796 140 95.8796 140 93.7546 142.687C87.1314 148.015 82.1454 148.397 73.8796 148C73.8796 147.67 73.8796 147.34 73.8796 147C74.6879 146.83 75.4961 146.66 76.3289 146.484C84.4772 144.883 84.4772 144.883 90.8796 140C92.238 136.375 92.238 136.375 92.8796 133C90.4046 133.495 90.4046 133.495 87.8796 134C87.7868 134.897 87.7868 134.897 87.6921 135.812C86.8796 138 86.8796 138 84.9421 139.75C80.5823 141.529 76.5281 141.244 71.8796 141C71.5496 140.34 71.2196 139.68 70.8796 139C72.1616 138.801 72.1616 138.801 73.4695 138.598C74.5742 138.421 75.6789 138.244 76.8171 138.062C77.9193 137.888 79.0214 137.714 80.157 137.535C82.7839 137.282 82.7839 137.282 83.8796 136C82.8922 135.951 81.9048 135.902 80.8875 135.852C79.6061 135.777 78.3248 135.702 77.0046 135.625C75.7285 135.555 74.4523 135.486 73.1375 135.414C69.8796 135 69.8796 135 67.8796 133C68.4896 132.955 69.0996 132.91 69.728 132.864C72.5089 132.652 75.2878 132.42 78.0671 132.187C79.0268 132.117 79.9866 132.047 80.9753 131.975C87.9197 131.415 87.9197 131.415 93.8796 128C96.1618 124.577 96.1771 123.159 96.1921 119.125C96.2089 118.096 96.2257 117.068 96.2429 116.008C95.8299 112.588 94.915 110.754 92.8796 108C90.3135 106.192 90.3135 106.192 87.8796 105C88.0046 103.125 88.0046 103.125 88.8796 101C91.9421 99.75 91.9421 99.75 94.8796 99C95.9941 93.6515 95.9941 93.6515 94.8796 88.5C91.8019 86.1917 89.6129 86.476 85.8796 87C83.4387 88.8542 83.4387 88.8542 81.8796 91C82.1981 88.0544 82.5423 86.3892 84.5046 84.125C88.0061 82.4664 90.1798 83.0264 93.8796 84Z" fill="#151514"/>
<path d="M89.1921 80.5625C89.9514 80.5225 90.7107 80.4826 91.4929 80.4414C95.1247 81.2914 96.525 83.1549 98.8796 86C100.3 88.4448 101.447 90.9684 102.567 93.5625C103.154 94.8764 103.741 96.1902 104.329 97.5039C105.096 99.2345 105.096 99.2345 105.88 101C106.279 101.677 106.679 102.354 107.091 103.051C109.344 108.617 107.764 116.378 105.903 121.895C103.322 127.314 99.9652 131.629 95.8796 136C95.5496 135.34 95.2196 134.68 94.8796 134C95.4633 132.475 96.1225 130.978 96.8171 129.5C99.2159 123.708 100.44 117.98 98.0789 111.957C96.3227 108.777 94.1475 105.835 91.8796 103C92.8696 102.381 93.8596 101.762 94.8796 101.125C97.0425 99.3278 97.7945 98.3378 98.489 95.582C98.6338 92.8599 98.5432 90.6452 97.8796 88C95.4721 85.0894 95.4721 85.0894 91.8796 84C87.2354 84.0801 84.3149 84.8395 80.8796 88C82.6867 83.0951 83.717 80.7189 89.1921 80.5625Z" fill="#C7C1BA"/>
<path d="M62.317 83.75C63.0995 83.7242 63.882 83.6984 64.6881 83.6719C67.3951 84.0772 68.1821 84.9077 69.8795 87C71.9334 89.8754 71.8751 91.0522 71.567 94.6875C70.8795 98 70.8795 98 69.8795 99C75.3245 99.495 75.3245 99.495 80.8795 100C80.5495 100.66 80.2195 101.32 79.8795 102C77.6569 102.273 77.6569 102.273 74.817 102.375C67.9728 102.865 63.4905 105.259 57.8795 109C57.8795 107.68 57.8795 106.36 57.8795 105C58.8695 104.67 59.8595 104.34 60.8795 104C60.8795 103.34 60.8795 102.68 60.8795 102C60.1164 101.917 59.3533 101.835 58.567 101.75C55.8795 101 55.8795 101 54.067 99.375C52.4035 96.0479 52.4925 93.6773 52.8795 90C55.253 85.0373 56.9255 83.8562 62.317 83.75Z" fill="#191817"/>
<path d="M50.8796 92C51.5396 92 52.1996 92 52.8796 92C53.0859 93.0931 53.2921 94.1862 53.5046 95.3125C54.5362 99.2286 54.5362 99.2286 58.0046 100.938C59.4277 101.463 59.4277 101.463 60.8796 102C60.8796 102.66 60.8796 103.32 60.8796 104C60.1165 104.598 59.3534 105.196 58.5671 105.812C54.9569 108.751 53.1146 111.267 52.4812 115.938C52.4889 116.948 52.4966 117.959 52.5046 119C52.4969 120.011 52.4891 121.021 52.4812 122.062C52.9322 125.388 54.0649 127.215 55.8796 130C56.5671 133.312 56.5671 133.312 56.8796 136C52.0952 132.719 49.6947 128.924 46.8796 124C46.2815 123.113 45.6834 122.226 45.0671 121.312C42.6929 114.69 42.4436 107.724 45.4499 101.266C47.0998 98.0777 48.9412 95.0214 50.8796 92Z" fill="#C1BDB7"/>
<path d="M89.5046 77.9375C90.7305 77.951 90.7305 77.951 91.9812 77.9648C92.9209 77.9822 92.9209 77.9822 93.8796 78C93.5496 78.66 93.2196 79.32 92.8796 80C90.9615 80.4331 90.9615 80.4331 89.0046 80.875C86.0977 81.5378 85.0473 81.8425 82.8171 83.9375C81.5421 86.1216 81.5421 86.1216 82.8796 89C83.2303 88.505 83.5809 88.01 83.9421 87.5C85.8796 86 85.8796 86 89.3171 85.5C92.8796 86 92.8796 86 95.3171 88.1875C97.0363 91.282 97.6557 92.5508 96.8796 96C94.3184 99.0457 92.6744 100.735 88.8796 102C88.5496 102.66 88.2196 103.32 87.8796 104C85.5365 103.744 83.2012 103.407 80.8796 103C80.5496 102.34 80.2196 101.68 79.8796 101C77.2936 100.532 77.2936 100.532 74.3171 100.375C73.3052 100.3 72.2933 100.225 71.2507 100.148C70.077 100.075 70.077 100.075 68.8796 100C68.8796 99.67 68.8796 99.34 68.8796 99C73.1696 99 77.4596 99 81.8796 99C81.1371 97.7934 81.1371 97.7934 80.3796 96.5625C78.5457 92.2069 78.0809 88.6638 78.8796 84C81.9059 79.158 83.937 77.8579 89.5046 77.9375Z" fill="#23221F"/>
<path d="M49.8796 78C50.5396 78.33 51.1996 78.66 51.8796 79C50.9625 82.0849 50.3102 83.6801 47.6921 85.625C44.5011 87.1851 42.0999 87.4934 38.5671 87.6875C37.4985 87.7532 36.4299 87.819 35.3289 87.8867C34.1165 87.9428 34.1165 87.9428 32.8796 88C34.9629 88.0271 37.0463 88.0464 39.1296 88.0625C40.8699 88.0799 40.8699 88.0799 42.6453 88.0977C45.2894 88.0178 47.3779 87.7864 49.8796 87C49.8796 88.32 49.8796 89.64 49.8796 91C50.5396 91 51.1996 91 51.8796 91C52.2096 90.01 52.5396 89.02 52.8796 88C53.2096 88.66 53.5396 89.32 53.8796 90C53.5496 90.66 53.2196 91.32 52.8796 92C52.2196 92 51.5596 92 50.8796 92C50.2196 93.98 49.5596 95.96 48.8796 98C48.0134 97.835 47.1471 97.67 46.2546 97.5C42.9805 96.8807 42.9805 96.8807 40.0671 97.25C35.3194 96.8776 31.8661 94.4805 27.8796 92C27.9209 91.2163 27.9621 90.4325 28.0046 89.625C28.1669 86.8388 28.1669 86.8388 25.8796 85C26.9702 84.9961 26.9702 84.9961 28.0828 84.9922C35.6596 84.7008 40.9006 82.9277 47.4812 79.1797C48.2727 78.7904 49.0642 78.4011 49.8796 78Z" fill="#1E1A16"/>
<path d="M103.88 46C104.54 46 105.2 46 105.88 46C106.074 51.5268 105.628 55.7561 103.88 61C110.957 57.8729 115.107 52.863 119.88 47C121.2 47.33 122.52 47.66 123.88 48C122.078 54.6063 116.709 59.1323 110.942 62.4375C109.426 63.2109 109.426 63.2109 107.88 64C107.88 64.99 107.88 65.98 107.88 67C108.54 67.66 109.2 68.32 109.88 69C109.071 68.9768 108.263 68.9536 107.43 68.9297C106.362 68.9116 105.293 68.8936 104.192 68.875C103.136 68.8518 102.081 68.8286 100.993 68.8047C97.8571 69.0014 95.7032 69.6694 92.8796 71C91.8896 70.01 90.8996 69.02 89.8796 68C90.4829 67.4663 91.0862 66.9327 91.7078 66.3828C97.4212 61.0564 100.616 56.4644 102.88 49C103.21 48.01 103.54 47.02 103.88 46Z" fill="#E1D2B9"/>
<path d="M106.88 112C107.21 112 107.54 112 107.88 112C108.108 114.018 108.335 116.036 108.563 118.055C108.793 120.074 108.793 120.074 109.88 122C108.89 122.495 108.89 122.495 107.88 123C106.777 125.88 106.38 127.035 106.88 130C108.657 132.704 110.674 135.061 112.79 137.508C115.634 140.9 117.331 143.847 118.88 148C118.63 150.688 118.63 150.688 116.88 153C110.305 158 110.305 158 106.88 158C107.045 157.072 107.21 156.144 107.38 155.188C108.376 148.183 108.377 140.925 106.88 134C106.22 134 105.56 134 104.88 134C104.22 133.34 103.56 132.68 102.88 132C102.47 132.505 102.06 133.011 101.637 133.531C101.099 134.181 100.56 134.831 100.005 135.5C99.471 136.15 98.9373 136.799 98.3875 137.469C97.8899 137.974 97.3923 138.479 96.8796 139C96.2196 139 95.5596 139 94.8796 139C95.9721 135.504 97.5844 132.973 99.8171 130.125C104.176 124.459 106.152 119.129 106.88 112Z" fill="#11100F"/>
<path d="M28.8796 27C29.5396 27.33 30.1996 27.66 30.8796 28C31.0826 30.1314 31.2852 32.2628 31.4851 34.3945C32.6984 42.4068 36.3687 48.2385 41.8796 54C41.8796 53.34 41.8796 52.68 41.8796 52C42.3396 47.7679 43.0396 45.2105 45.8796 42C48.3546 42.495 48.3546 42.495 50.8796 43C50.9544 43.6175 51.0292 44.2349 51.1062 44.8711C52.5543 54.1984 56.9825 60.7115 63.8796 67C63.2196 67 62.5596 67 61.8796 67C61.8796 67.99 61.8796 68.98 61.8796 70C59.8796 69 59.8796 69 59.0007 67.1953C57.6718 64.593 55.9957 62.9477 53.9421 60.875C49.7522 56.3049 48.086 52.0194 46.8796 46C45.5446 51.34 46.3671 54.8396 47.8796 60C42.7319 60 41.4914 58.4252 37.8445 55.0703C32.0802 48.9966 28.8193 42.0982 28.1921 33.75C28.0626 32.1645 28.0626 32.1645 27.9304 30.5469C27.9137 29.7064 27.8969 28.8659 27.8796 28C28.2096 27.67 28.5396 27.34 28.8796 27Z" fill="#191814"/>
<path d="M92.8797 133C92.6406 139.095 92.6406 139.095 90.5828 141.543C84.8163 146.41 79.6899 146.386 72.4187 146.363C67.1601 145.823 63.5752 143.696 59.8796 140C59.8388 138 59.8371 136 59.8796 134C61.1996 134 62.5196 134 63.8796 134C64.1271 134.619 64.3746 135.238 64.6296 135.875C66.1588 138.474 67.0886 138.921 69.8796 140C72.7569 140.353 72.7569 140.353 75.8171 140.312C76.8368 140.329 77.8564 140.346 78.907 140.363C82.3072 139.948 84.1687 139.071 86.8796 137C87.2096 136.01 87.5396 135.02 87.8796 134C90.8796 133 90.8797 133 92.8797 133Z" fill="#7D665B"/>
<path d="M120.88 36C121.54 36 122.2 36 122.88 36C122.039 44.1939 118.589 51.1545 112.88 57C107.616 61 107.616 61 103.88 61C104.024 60.01 104.168 59.02 104.317 58C104.889 54.0059 105.388 50.0047 105.88 46C105.22 46 104.56 46 103.88 46C103.55 46.99 103.22 47.98 102.88 49C102.22 48.67 101.56 48.34 100.88 48C100.88 46.35 100.88 44.7 100.88 43C102.53 42.67 104.18 42.34 105.88 42C107.928 43.9626 108.829 45.4277 109.079 48.2695C109.068 50.5195 109.009 52.7539 108.88 55C114.918 49.297 118.206 43.7529 120.88 36Z" fill="#22201C"/>
<path d="M59.8795 111C64.7621 112.395 67.1032 114.796 69.8795 119C70.2545 122.812 70.2545 122.812 69.8795 126C68.8795 127 68.8795 127 66.1295 127.375C62.8795 127 62.8795 127 60.0045 125.062C57.4642 121.401 57.3846 119.322 57.5084 114.988C57.8795 113 57.8795 113 59.8795 111Z" fill="#12100D"/>
<path d="M88.8797 111C90.8172 111.375 90.8172 111.375 92.8797 112C94.4119 115.064 94.1091 117.617 93.8797 121C92.8172 123.875 92.8172 123.875 90.8797 126C84.8444 127.482 84.8444 127.482 81.8797 126C81.3071 122.074 81.1302 120.08 83.4383 116.754C85.1963 114.77 86.9886 112.857 88.8797 111Z" fill="#100D0C"/>
<path d="M52.8796 77C53.2096 78.32 53.5396 79.64 53.8796 81C54.8696 80.34 55.8596 79.68 56.8796 79C60.106 77.3868 63.3911 77.4119 66.8796 78C70.4081 80.5525 71.6527 82.0746 72.6921 86.3125C72.754 87.1994 72.8159 88.0863 72.8796 89C70.8796 88 70.8796 88 69.4421 85.5625C67.983 82.7644 67.983 82.7644 64.8796 81C60.243 81.2342 60.243 81.2342 56.1296 83.1875C54.422 85.6635 53.1497 88.2784 51.8796 91C51.2196 91 50.5596 91 49.8796 91C49.8796 89.68 49.8796 88.36 49.8796 87C49.355 87.3248 48.8303 87.6497 48.2898 87.9844C45.1883 89.2913 42.6746 89.2653 39.3171 89.25C38.1815 89.2552 37.0458 89.2603 35.8757 89.2656C32.8796 89 32.8796 89 29.8796 87C30.9044 86.9626 31.9292 86.9252 32.9851 86.8867C34.3458 86.821 35.7065 86.7546 37.0671 86.6875C37.7407 86.6649 38.4142 86.6424 39.1082 86.6191C43.4768 86.3847 46.4054 85.695 49.8796 83C51.1622 80.4623 51.1622 80.4623 51.8796 78C52.2096 77.67 52.5396 77.34 52.8796 77Z" fill="#0E0C0A"/>
<path d="M101.88 45C102.21 45 102.54 45 102.88 45C103.493 51.8727 102.191 55.6325 97.8796 61C95.6388 63.44 93.3147 65.7544 90.8796 68C91.5396 68.99 92.1996 69.98 92.8796 71C92.2196 71 91.5596 71 90.8796 71C90.5496 71.66 90.2196 72.32 89.8796 73C87.6318 70.9477 86.8774 69.9933 85.8796 67C84.9515 67.2062 84.0234 67.4125 83.0671 67.625C79.8796 68 79.8796 68 76.8796 66C77.2096 65.34 77.5396 64.68 77.8796 64C77.8796 63.01 77.8796 62.02 77.8796 61C79.5296 60.67 81.1796 60.34 82.8796 60C82.5496 61.65 82.2196 63.3 81.8796 65C86.6382 64.5335 90.1322 64.0571 93.8796 61C97.6671 56.1079 99.9046 50.8212 101.88 45Z" fill="#191718"/>
<path d="M41.8796 138C42.2096 138 42.5396 138 42.8796 138C43.0123 139.097 43.1451 140.194 43.2819 141.324C43.4602 142.779 43.6386 144.233 43.8171 145.688C43.9041 146.409 43.9911 147.13 44.0807 147.873C44.5427 151.62 45.0712 155.308 45.8796 159C44.2258 158.268 42.5817 157.513 40.9421 156.75C40.0255 156.332 39.109 155.915 38.1647 155.484C35.8796 154 35.8796 154 34.9186 152.148C34.8652 149.212 35.8229 147.459 37.1921 144.875C37.642 144.006 38.0918 143.137 38.5553 142.242C39.8796 140 39.8796 140 41.8796 138Z" fill="#CDC8BD"/>
<path d="M108.88 138C113.465 142.585 113.465 142.585 115.192 146C115.539 146.66 115.886 147.32 116.243 148C117.031 150.475 116.91 151.624 115.88 154C113.297 156.097 110.265 158 106.88 158C107.54 151.4 108.2 144.8 108.88 138Z" fill="#C2BAAE"/>
<path d="M45.8796 97C46.5396 97 47.1996 97 47.8796 97C46.0046 102.75 46.0046 102.75 44.8796 105C43.7188 114.845 45.795 121.601 50.8796 130C48.411 129.62 47.1575 129.287 45.3953 127.469C42.0017 122.19 41.2308 118.229 41.8796 112C40.8896 112 39.8996 112 38.8796 112C39.4645 107.993 40.7236 105.143 42.8171 101.688C43.3418 100.804 43.8664 99.9215 44.407 99.0117C44.893 98.3479 45.3789 97.684 45.8796 97Z" fill="#100F0E"/>
<path d="M65.8796 86C67.8171 87.125 67.8171 87.125 68.8796 89C69.0671 92.1875 69.0671 92.1875 68.8796 95C68.4877 94.34 68.0958 93.68 67.6921 93C66.0254 90.7083 66.0254 90.7083 63.1921 90.75C62.0474 90.8738 62.0474 90.8738 60.8796 91C60.5456 93.8741 60.5456 93.8741 60.8796 97C62.7604 98.9126 62.7604 98.9126 64.8796 100C61.3428 100.322 59.4834 100.413 56.5046 98.375C54.3925 95.2882 54.2676 93.6717 54.8796 90C57.8263 85.5209 60.7439 85.3464 65.8796 86Z" fill="#E2E1E0"/>
<path d="M92.8797 86C95.5747 88.4186 96.686 90.0076 97.3797 93.5625C96.6973 96.8891 95.6371 98.0408 92.8797 100C89.6297 100.25 89.6297 100.25 86.8797 100C88.1997 99.34 89.5197 98.68 90.8797 98C90.8797 95.69 90.8797 93.38 90.8797 91C88.5059 90.6657 88.5059 90.6657 85.8797 91C84.0365 92.9004 84.0365 92.9004 82.8797 95C82.5218 89.6315 82.5218 89.6315 83.9422 87.125C87.0672 85.3104 89.3532 85.505 92.8797 86Z" fill="#E9E8E8"/>
<path d="M90.8796 107C93.8796 108 93.8796 108 95.5359 110.191C97.8374 115.002 97.646 119.79 96.8796 125C95.5117 127.836 94.3571 128.926 91.8796 131C90.8896 131 89.8996 131 88.8796 131C88.5496 129.35 88.2196 127.7 87.8796 126C88.8696 125.67 89.8596 125.34 90.8796 125C93.4046 121.545 93.1017 118.146 92.8796 114C92.6032 111.712 92.6032 111.712 91.8796 110C91.2196 109.67 90.5596 109.34 89.8796 109C90.2096 108.34 90.5396 107.68 90.8796 107Z" fill="#77645B"/>
<path d="M90.8796 132C90.8796 132.66 90.8796 133.32 90.8796 134C89.8896 134 88.8996 134 87.8796 134C87.7868 134.897 87.7868 134.897 87.6921 135.813C86.8796 138 86.8796 138 84.9421 139.75C80.5823 141.53 76.5281 141.244 71.8796 141C71.5496 140.34 71.2196 139.68 70.8796 139C71.7343 138.867 72.5889 138.734 73.4695 138.598C74.5742 138.421 75.6789 138.244 76.8171 138.063C77.9193 137.889 79.0214 137.714 80.157 137.535C82.7839 137.282 82.7839 137.282 83.8796 136C82.3985 135.927 82.3985 135.927 80.8875 135.852C78.9655 135.739 78.9655 135.739 77.0046 135.625C75.7285 135.555 74.4523 135.486 73.1375 135.414C69.8796 135 69.8796 135 67.8796 133C75.5631 132.388 83.1702 131.867 90.8796 132Z" fill="#0C0C0C"/>
<path d="M59.8796 134C61.1996 134 62.5196 134 63.8796 134C64.1271 134.619 64.3746 135.238 64.6296 135.875C66.1819 138.514 66.9895 139.011 69.8796 140C72.5462 140.444 75.1862 140.731 77.8796 141C77.8796 141.33 77.8796 141.66 77.8796 142C75.8996 142.66 73.9196 143.32 71.8796 144C75.5096 144.33 79.1396 144.66 82.8796 145C82.8796 145.33 82.8796 145.66 82.8796 146C74.2581 146.545 67.6097 146.915 60.8796 141C59.8796 140 59.8796 140 59.8171 136.938C59.8378 135.968 59.8584 134.999 59.8796 134Z" fill="#756054"/>
<path d="M56.8796 110C57.8696 110.33 58.8596 110.66 59.8796 111C59.5496 111.66 59.2196 112.32 58.8796 113C58.3715 117.315 58.039 120.829 60.6296 124.438C62.6651 125.851 64.6034 127.024 66.8796 128C65.8896 128 64.8996 128 63.8796 128C64.2096 129.32 64.5396 130.64 64.8796 132C60.564 131.52 58.6776 130.298 55.8796 127C54.5241 124.289 54.7105 122.087 54.6921 119.062C54.678 118.002 54.6638 116.941 54.6492 115.848C54.8796 113 54.8796 113 56.8796 110Z" fill="#776359"/>
<path d="M101.88 86C102.523 86.3274 103.166 86.6548 103.829 86.9922C107.861 88.3241 111.48 88.2168 115.692 88.125C116.48 88.116 117.269 88.107 118.081 88.0977C120.014 88.0742 121.947 88.0384 123.88 88C119.787 92.2305 116.752 94.0592 110.817 94.3125C105.362 93.8796 105.362 93.8796 102.88 91C102.13 88.3125 102.13 88.3125 101.88 86Z" fill="#B4A08C"/>
<path d="M49.8796 87C49.2196 88.98 48.5596 90.96 47.8796 93C41.2602 94.1055 36.7737 94.4382 30.8796 91C30.2196 90.01 29.5596 89.02 28.8796 88C30.0836 88.0116 31.2876 88.0232 32.5281 88.0352C34.1036 88.0445 35.6791 88.0536 37.2546 88.0625C38.4457 88.0751 38.4457 88.0751 39.6609 88.0879C43.2899 88.1033 46.4835 87 49.8796 87Z" fill="#AA9680"/>
<path d="M49.8796 43C50.2096 43 50.5396 43 50.8796 43C50.9544 43.6175 51.0292 44.2349 51.1062 44.8711C52.5543 54.1984 56.9825 60.7115 63.8796 67C63.2196 67 62.5596 67 61.8796 67C61.8796 67.99 61.8796 68.98 61.8796 70C59.8796 69 59.8796 69 59.0046 67.1992C57.6614 64.5734 55.9524 62.9044 53.8796 60.8125C49.7591 56.3187 48.6409 52.9947 47.8796 47C48.5396 47 49.1996 47 49.8796 47C49.8796 45.68 49.8796 44.36 49.8796 43Z" fill="#1D1B19"/>
<path d="M98.8796 77C102.579 78.4716 106.264 79.9749 109.942 81.5C110.964 81.9228 111.987 82.3456 113.04 82.7812C115.369 83.781 117.63 84.8346 119.88 86C114.665 87.7382 109.732 87.5831 104.505 85.9375C100.972 83.3301 100.278 81.117 98.8796 77Z" fill="#84532B"/>
<path d="M92.8796 131C93.5396 131 94.1996 131 94.8796 131C95.5457 134.027 95.9944 136.895 95.8796 140C92.9805 144.041 89.5481 146.357 84.8796 148C81.1977 148.234 77.563 148.177 73.8796 148C73.8796 147.67 73.8796 147.34 73.8796 147C75.092 146.745 75.092 146.745 76.3289 146.484C84.5274 144.92 84.5274 144.92 90.8796 140C91.8399 137.032 92.438 134.085 92.8796 131Z" fill="#12100F"/>
<path d="M63.2546 89.625C64.1209 89.7488 64.9871 89.8725 65.8796 90C67.6921 92.5 67.6921 92.5 68.8796 95C67.8896 96.65 66.8996 98.3 65.8796 100C61.0046 98.125 61.0046 98.125 59.8796 97C59.7546 94 59.7546 94 59.8796 91C60.8796 90 60.8796 90 63.2546 89.625Z" fill="#171717"/>
<path d="M49.8796 78C50.5396 78.33 51.1996 78.66 51.8796 79C50.9833 82.0149 50.2005 83.718 47.8171 85.8125C43.8478 87.4171 40.1144 87.6106 35.8796 87C34.8896 86.34 33.8996 85.68 32.8796 85C33.5203 84.8298 34.161 84.6597 34.821 84.4844C39.1274 83.2778 43.0433 82.0859 46.8796 79.75C47.8696 79.1725 48.8596 78.595 49.8796 78Z" fill="#83532B"/>
<path d="M40.8796 135C41.8696 135.33 42.8596 135.66 43.8796 136C43.8796 136.99 43.8796 137.98 43.8796 139C44.5396 139 45.1996 139 45.8796 139C46.5396 144.94 47.1996 150.88 47.8796 157C46.8896 157 45.8996 157 44.8796 157C43.1252 151.737 42.5581 146.9 42.321 141.355C42.1754 140.578 42.0297 139.801 41.8796 139C40.8896 138.34 39.8996 137.68 38.8796 137C39.5396 136.34 40.1996 135.68 40.8796 135Z" fill="#22211F"/>
<path d="M102.88 130C109.188 131.529 113.001 136.939 116.251 142.234C117.38 144.375 117.38 144.375 118.88 148C118.55 148.66 118.22 149.32 117.88 150C117.22 150 116.56 150 115.88 150C115.481 149.186 115.481 149.186 115.075 148.355C114.722 147.64 114.369 146.925 114.005 146.188C113.657 145.48 113.309 144.772 112.95 144.043C111.814 141.788 111.814 141.788 109.88 139C108.89 139.495 108.89 139.495 107.88 140C107.55 138.02 107.22 136.04 106.88 134C106.22 134 105.56 134 104.88 134C104.22 132.68 103.56 131.36 102.88 130Z" fill="#151513"/>
<path d="M104.88 99C107.88 100 107.88 100 109.048 101.707C109.384 102.402 109.72 103.097 110.067 103.812C110.411 104.5 110.755 105.187 111.11 105.895C111.88 108 111.88 108 111.88 112C111.22 112 110.56 112 109.88 112C109.88 114.97 109.88 117.94 109.88 121C109.22 120.67 108.56 120.34 107.88 120C107.617 117.579 107.458 115.241 107.38 112.812C107.183 107.807 106.687 103.686 104.88 99Z" fill="#0F0E0E"/>
<path d="M66.8796 81C69.3796 82.8125 69.3796 82.8125 70.8796 85C70.6296 87.25 70.6296 87.25 69.8796 89C69.4156 88.01 69.4156 88.01 68.9421 87C66.5248 84.656 65.7722 84.6305 62.5046 84.5C58.1851 84.6691 55.937 85.844 52.8796 89C53.7305 85.5191 54.3506 83.4686 57.0671 81.0625C60.8117 79.6479 63.0384 79.9524 66.8796 81Z" fill="#A19A97"/>
<path d="M66.8796 135C72.8196 135 78.7596 135 84.8796 135C82.8796 138 82.8796 138 81.2546 138.688C76.2243 139.349 71.2812 139.934 66.8796 137C66.8796 136.34 66.8796 135.68 66.8796 135Z" fill="#E1E1E3"/>
<path d="M69.8796 91C70.5396 91 71.1996 91 71.8796 91C71.0046 97.875 71.0046 97.875 69.8796 99C73.5096 99.33 77.1396 99.66 80.8796 100C80.5496 100.66 80.2196 101.32 79.8796 102C77.3302 102.312 74.876 102.513 72.3171 102.625C71.2508 102.683 71.2508 102.683 70.1628 102.742C68.4022 102.837 66.641 102.919 64.8796 103C65.5241 99.9878 66.5299 97.4834 67.9421 94.75C68.3044 94.0436 68.6666 93.3372 69.0398 92.6094C69.3169 92.0783 69.5941 91.5472 69.8796 91Z" fill="#070705"/>
<path d="M88.3796 89.875C90.8796 90 90.8796 90 91.8796 91C91.9206 93.333 91.9221 95.6671 91.8796 98C89.5046 98.625 89.5046 98.625 86.8796 99C84.8796 97 84.8796 97 84.6921 93.9375C84.9405 90.047 84.9405 90.047 88.3796 89.875Z" fill="#090A09"/>
<path d="M62.3172 83.75C63.0997 83.7242 63.8822 83.6984 64.6883 83.6719C67.3954 84.0772 68.2111 84.8782 69.8797 87C70.6922 89 70.6922 89 70.8797 91C69.8897 92.485 69.8897 92.485 68.8797 94C68.4157 92.5459 68.4157 92.5459 67.9422 91.0625C67.1845 88.1593 67.1845 88.1593 65.8797 87C61.2431 86.5619 61.2431 86.5619 57.0047 88.125C55.4754 90.6738 55.205 93.0724 54.8797 96C54.2197 96 53.5597 96 52.8797 96C52.555 91.3461 53.0818 88.7664 55.8797 85C58.2066 83.8366 59.727 83.801 62.3172 83.75Z" fill="#121311"/>
<path d="M89.1921 80.5625C93.0447 80.6245 93.7174 80.8682 96.8796 83.4375C97.5396 84.2831 98.1996 85.1288 98.8796 86C99.2096 86.33 99.5396 86.66 99.8796 87C99.9514 88.5193 99.9636 90.0417 99.9421 91.5625C99.9331 92.3888 99.9241 93.2151 99.9148 94.0664C99.9032 94.7045 99.8916 95.3426 99.8796 96C99.5496 96 99.2196 96 98.8796 96C98.8384 94.7625 98.7971 93.525 98.7546 92.25C98.2967 88.6692 98.001 88.1185 95.2546 85.4375C91.1658 83.696 89.1318 83.8188 84.8796 85C82.4994 86.4268 82.4994 86.4268 80.8796 88C82.6867 83.0951 83.717 80.7189 89.1921 80.5625Z" fill="#D2C6BF"/>
<path d="M121.88 84C123.2 84 124.52 84 125.88 84C125.88 84.99 125.88 85.98 125.88 87C119.656 89.2631 113.472 89.6554 106.88 89C105.89 88.34 104.9 87.68 103.88 87C103.88 86.34 103.88 85.68 103.88 85C104.645 85.2456 104.645 85.2456 105.427 85.4961C108.693 86.167 111.798 86.0933 115.13 86.0625C116.393 86.0535 117.656 86.0445 118.958 86.0352C120.404 86.0178 120.404 86.0178 121.88 86C121.88 85.34 121.88 84.68 121.88 84Z" fill="#0A0908"/>
<path d="M101.88 76C102.63 76.3377 103.38 76.6755 104.153 77.0234C110.681 79.868 116.831 81.9552 123.88 83C122.89 83.495 122.89 83.495 121.88 84C121.88 84.66 121.88 85.32 121.88 86C114.672 84.4143 108.339 82.6025 101.88 79C101.88 78.01 101.88 77.02 101.88 76Z" fill="#0E0C0A"/>
<path d="M63.8796 132C69.8196 132 75.7596 132 81.8796 132C81.8796 132.33 81.8796 132.66 81.8796 133C80.6325 133.091 80.6325 133.091 79.3601 133.184C77.7301 133.309 77.7301 133.309 76.0671 133.438C74.9882 133.519 73.9092 133.6 72.7976 133.684C69.8197 133.902 69.8197 133.902 66.8796 135C66.8796 135.66 66.8796 136.32 66.8796 137C67.519 137.103 68.1584 137.206 68.8171 137.312C69.4978 137.539 70.1784 137.766 70.8796 138C71.2096 138.99 71.5396 139.98 71.8796 141C68.179 140.095 66.3147 139.561 63.9421 136.5C63.5915 135.675 63.2409 134.85 62.8796 134C63.2096 133.34 63.5396 132.68 63.8796 132Z" fill="#1E1C19"/>
<path d="M120.88 36C121.54 36 122.2 36 122.88 36C122.242 42.2187 120.326 48.7576 115.63 53.0625C114.763 53.5266 114.763 53.5266 113.88 54C113.55 53.34 113.22 52.68 112.88 52C113.77 50.3359 113.77 50.3359 115.13 48.375C117.754 44.3835 119.347 40.5162 120.88 36Z" fill="#131110"/>
<path d="M96.8796 116C97.2096 116 97.5396 116 97.8796 116C97.8796 117.98 97.8796 119.96 97.8796 122C98.5396 122 99.1996 122 99.8796 122C98.7517 126.109 97.5445 130.076 95.8796 134C95.5496 133.01 95.2196 132.02 94.8796 131C94.2196 131 93.5596 131 92.8796 131C92.8796 131.66 92.8796 132.32 92.8796 133C91.5596 132.34 90.2396 131.68 88.8796 131C89.6634 130.567 90.4471 130.134 91.2546 129.688C94.0966 128.108 94.0966 128.108 95.8796 125C96.3336 122.721 96.3336 122.721 96.5046 120.312C96.5794 119.504 96.6542 118.696 96.7312 117.863C96.7802 117.248 96.8292 116.634 96.8796 116Z" fill="#1D1A19"/>
<path d="M60.8796 114C64.921 115.347 65.7825 117.384 67.8796 121C67.8796 121.99 67.8796 122.98 67.8796 124C64.9421 123.625 64.9421 123.625 61.8796 123C60.4013 120.043 60.8193 117.258 60.8796 114Z" fill="#523E34"/>
<path d="M34.8796 150C36.3028 150.495 36.3028 150.495 37.7546 151C40.6503 152.102 40.6503 152.102 42.8796 152C43.2096 151.34 43.5396 150.68 43.8796 150C44.5396 152.97 45.1996 155.94 45.8796 159C44.2259 158.268 42.5818 157.513 40.9421 156.75C40.0256 156.332 39.1091 155.915 38.1648 155.484C35.8796 154 35.8796 154 35.0632 151.828C35.0026 151.225 34.9421 150.622 34.8796 150Z" fill="#BDB9B2"/>
<path d="M88.8796 114C89.5396 114 90.1996 114 90.8796 114C91.2124 117.661 91.3413 119.395 89.0671 122.375C86.8796 124 86.8796 124 83.8796 124C84.3807 119.615 85.8626 117.2 88.8796 114Z" fill="#5A4841"/>
<path d="M91.8796 106C93.6296 106.062 93.6296 106.062 95.8796 107C99.7095 112.213 100.328 115.608 99.8796 122C99.2196 122 98.5596 122 97.8796 122C97.7817 121.432 97.6837 120.863 97.5828 120.277C96.5164 114.771 94.8968 110.727 91.8796 106Z" fill="#10100F"/>
<path d="M28.8797 27C29.5397 27.33 30.1997 27.66 30.8797 28C31.2586 29.8906 31.2586 29.8906 31.4422 32.25C31.7381 35.5629 32.1457 38.7495 32.8797 42C31.8897 42 30.8997 42 29.8797 42C28.5541 37.1948 27.5116 33.0307 27.8797 28C28.2097 27.67 28.5397 27.34 28.8797 27Z" fill="#22201C"/>
<path d="M93.8796 78C93.5496 78.66 93.2196 79.32 92.8796 80C91.6215 80.2475 90.3634 80.495 89.0671 80.75C85.3412 81.5646 84.9738 81.8793 82.4421 85.125C81.9265 86.0737 81.4109 87.0225 80.8796 88C80.5496 88 80.2196 88 79.8796 88C80.357 81.6751 80.357 81.6751 82.3796 79.0625C86.1628 77.4546 89.8268 77.7662 93.8796 78Z" fill="#0F0D09"/>
<path d="M92.8796 74C95.8796 75 95.8796 75 97.6296 77.375C98.8796 80 98.8796 80 97.8796 83C96.8896 82.01 95.8996 81.02 94.8796 80C94.5496 80.66 94.2196 81.32 93.8796 82C91.5696 81.67 89.2596 81.34 86.8796 81C86.8796 80.67 86.8796 80.34 86.8796 80C88.8596 79.67 90.8396 79.34 92.8796 79C89.9096 78.505 89.9096 78.505 86.8796 78C86.8796 77.67 86.8796 77.34 86.8796 77C88.8596 77 90.8396 77 92.8796 77C92.8796 76.01 92.8796 75.02 92.8796 74Z" fill="#63462E"/>
<path d="M49.8796 87C49.2196 88.98 48.5596 90.96 47.8796 93C45.8996 93 43.9196 93 41.8796 93C41.8796 92.67 41.8796 92.34 41.8796 92C38.9096 91.505 38.9096 91.505 35.8796 91C35.8796 90.67 35.8796 90.34 35.8796 90C36.5783 89.8672 37.277 89.7345 37.9968 89.5977C39.3619 89.3328 39.3619 89.3328 40.7546 89.0625C41.6596 88.8885 42.5645 88.7145 43.4968 88.5352C45.8468 88.0074 47.4816 87 49.8796 87Z" fill="#B4A18C"/>
<path d="M97.8796 68C103.072 67.7881 107.006 68.4087 111.88 70C112.21 69.34 112.54 68.68 112.88 68C112.55 69.32 112.22 70.64 111.88 72C107.59 71.67 103.3 71.34 98.8796 71C98.5496 70.01 98.2196 69.02 97.8796 68Z" fill="#1D1C19"/>
<path d="M96.8796 75C100.363 78.0189 101.671 80.5691 102.88 85C99.8796 86 99.8796 86 97.1921 84.75C96.429 84.1725 95.6659 83.595 94.8796 83C94.8796 82.01 94.8796 81.02 94.8796 80C95.8696 80 96.8596 80 97.8796 80C97.5496 78.35 97.2196 76.7 96.8796 75Z" fill="#0B0906"/>
<path d="M66.8796 65C67.2096 65.99 67.5396 66.98 67.8796 68C66.0915 69.1721 64.299 70.3376 62.5046 71.5C61.5069 72.1497 60.5092 72.7994 59.4812 73.4688C56.8796 75 56.8796 75 54.8796 75C55.2096 73.68 55.5396 72.36 55.8796 71C57.8596 70.67 59.8396 70.34 61.8796 70C61.8796 69.01 61.8796 68.02 61.8796 67C63.5296 66.34 65.1796 65.68 66.8796 65Z" fill="#0D0C0D"/>
<path d="M101.88 42C104.317 42.1875 104.317 42.1875 106.88 43C108.192 45.0625 108.192 45.0625 108.88 47C108.22 47 107.56 47 106.88 47C106.88 48.65 106.88 50.3 106.88 52C106.55 52 106.22 52 105.88 52C105.88 50.02 105.88 48.04 105.88 46C105.22 46 104.56 46 103.88 46C103.55 46.99 103.22 47.98 102.88 49C102.22 48.67 101.56 48.34 100.88 48C100.837 46.3339 100.839 44.6662 100.88 43C101.21 42.67 101.54 42.34 101.88 42Z" fill="#2D2B27"/>
<path d="M123.88 28C125.382 31.004 126.268 32.8388 126.817 36C126.95 36.66 127.083 37.32 127.219 38C126.88 40 126.88 40 121.88 44C122.54 38.72 123.2 33.44 123.88 28Z" fill="#E9D9B9"/>
<path d="M38.8796 138C39.5396 138 40.1996 138 40.8796 138C39.29 142.035 37.5973 146.018 35.8796 150C34.8896 149.67 33.8996 149.34 32.8796 149C34.1315 144.514 35.6735 141.407 38.8796 138Z" fill="#141312"/>
<path d="M106.88 112C107.21 112 107.54 112 107.88 112C108.108 114.018 108.335 116.036 108.563 118.055C108.793 120.074 108.793 120.074 109.88 122C108.89 122.495 108.89 122.495 107.88 123C107.153 124.979 106.481 126.98 105.88 129C105.55 128.34 105.22 127.68 104.88 127C104.22 126.67 103.56 126.34 102.88 126C103.354 124.989 103.828 123.979 104.317 122.938C105.873 119.341 106.481 115.907 106.88 112Z" fill="#2F2D2B"/>
<path d="M87.8796 143C88.8696 143.33 89.8596 143.66 90.8796 144C88.8273 146.248 87.873 147.002 84.8796 148C82.9849 148.069 81.088 148.085 79.1921 148.062C78.1983 148.053 77.2044 148.044 76.1804 148.035C75.0415 148.018 75.0415 148.018 73.8796 148C73.8796 147.67 73.8796 147.34 73.8796 147C74.7227 146.795 75.5657 146.59 76.4343 146.379C77.53 146.109 78.6257 145.84 79.7546 145.562C80.8452 145.296 81.9357 145.029 83.0593 144.754C85.8045 144.121 85.8045 144.121 87.8796 143Z" fill="#0A0908"/>
<path d="M49.8796 78C50.5396 78.33 51.1996 78.66 51.8796 79C50.6299 82.6532 50.2087 83.7807 46.8796 86C45.8896 86 44.8996 86 43.8796 86C44.0671 83.6875 44.0671 83.6875 44.8796 81C47.3171 79.125 47.3171 79.125 49.8796 78Z" fill="#895A30"/>
<path d="M32.8796 0C34.0935 3.64161 33.5471 4.33165 31.9421 7.6875C31.5619 8.49574 31.1816 9.30398 30.7898 10.1367C30.4894 10.7516 30.1891 11.3665 29.8796 12C28.8896 11.01 27.8996 10.02 26.8796 9C28.1919 5.06326 29.7987 2.77281 32.8796 0Z" fill="#D9CCAF"/>
<path d="M106.88 47C107.54 47 108.2 47 108.88 47C109.165 55.5714 109.165 55.5714 106.88 59C106.22 59 105.56 59 104.88 59C105.433 54.9701 106.035 50.9798 106.88 47Z" fill="#0D0C0C"/>
<path d="M61.8796 113C64.1125 113.385 65.7162 113.895 67.6296 115.125C69.5446 117.997 69.0696 120.645 68.8796 124C66.1142 120.543 64.0304 116.857 61.8796 113Z" fill="#0B0A08"/>
<path d="M56.8796 74C57.2096 74.66 57.5396 75.32 57.8796 76C60.2012 76.4073 62.5365 76.7444 64.8796 77C64.8796 77.33 64.8796 77.66 64.8796 78C63.6421 78.2681 62.4046 78.5362 61.1296 78.8125C57.7768 79.6388 55.4687 80.6267 52.8796 83C54.6296 76.25 54.6296 76.25 56.8796 74Z" fill="#6E4829"/>
<path d="M89.8796 64C90.5396 64.33 91.1996 64.66 91.8796 65C91.6734 65.6187 91.4671 66.2375 91.2546 66.875C91.1309 67.5763 91.0071 68.2775 90.8796 69C91.5396 69.66 92.1996 70.32 92.8796 71C92.2196 71 91.5596 71 90.8796 71C90.5496 71.66 90.2196 72.32 89.8796 73C88.3171 71.8125 88.3171 71.8125 86.8796 70C87.0671 67.375 87.0671 67.375 87.8796 65C88.5396 64.67 89.1996 64.34 89.8796 64Z" fill="#1B1916"/>
<path d="M132.88 33C133.21 33.66 133.54 34.32 133.88 35C131.9 37.97 129.92 40.94 127.88 44C127.22 43.67 126.56 43.34 125.88 43C126.192 41.0625 126.192 41.0625 126.88 39C127.87 38.67 128.86 38.34 129.88 38C131.03 36.0333 131.03 36.0333 131.88 34C132.21 33.67 132.54 33.34 132.88 33Z" fill="#DFD1B5"/>
<path d="M123.88 88C121.517 90.5259 120.215 91.8882 116.88 93C116.88 92.01 116.88 91.02 116.88 90C114.24 90 111.6 90 108.88 90C108.88 89.67 108.88 89.34 108.88 89C110.442 88.8301 112.004 88.6643 113.567 88.5C114.437 88.4072 115.307 88.3144 116.204 88.2188C118.777 88.0084 121.299 87.9628 123.88 88Z" fill="#897969"/>
<path d="M91.8796 83C92.2096 83.66 92.5396 84.32 92.8796 85C91.8071 85.2475 90.7346 85.495 89.6296 85.75C85.8831 86.9988 84.3589 88.0249 81.8796 91C82.2059 87.982 82.4905 86.4031 84.6296 84.1875C87.2512 82.8039 88.9564 82.7564 91.8796 83Z" fill="#121310"/>
<path d="M47.8796 69C49.1996 69.66 50.5196 70.32 51.8796 71C45.4446 71.495 45.4446 71.495 38.8796 72C41.5778 67.9528 43.4677 67.5294 47.8796 69Z" fill="#292622"/>
<path d="M16.8796 32C19.5463 33.3333 22.213 34.6667 24.8796 36C25.2096 35.34 25.5396 34.68 25.8796 34C26.2096 34.99 26.5396 35.98 26.8796 37C25.8896 37.495 25.8896 37.495 24.8796 38C24.2196 37.67 23.5596 37.34 22.8796 37C22.5496 38.32 22.2196 39.64 21.8796 41C20.2296 38.03 18.5796 35.06 16.8796 32Z" fill="#C7BBA6"/>
<path d="M95.6921 85.1875C96.414 85.7856 97.1359 86.3837 97.8796 87C97.8796 88.32 97.8796 89.64 97.8796 91C97.2196 91 96.5596 91 95.8796 91C95.4465 90.3606 95.0134 89.7212 94.5671 89.0625C92.4711 86.5007 91.0966 86.3478 87.8796 86C87.8796 85.67 87.8796 85.34 87.8796 85C91.1227 83.9807 92.5066 83.8425 95.6921 85.1875Z" fill="#222220"/>
<path d="M42.8796 79C43.5396 79.99 44.1996 80.98 44.8796 82C40.4246 83.485 40.4246 83.485 35.8796 85C35.8796 84.34 35.8796 83.68 35.8796 83C35.2196 82.67 34.5596 82.34 33.8796 82C36.8496 81.01 39.8196 80.02 42.8796 79Z" fill="#1C1915"/>
<path d="M54.8796 65C57.3546 65.495 57.3546 65.495 59.8796 66C59.8796 67.32 59.8796 68.64 59.8796 70C58.5596 70 57.2396 70 55.8796 70C55.5496 68.35 55.2196 66.7 54.8796 65Z" fill="#E2D3B9"/>
<path d="M49.8796 43C50.2096 43 50.5396 43 50.8796 43C51.5396 46.63 52.1996 50.26 52.8796 54C51.5596 54 50.2396 54 48.8796 54C48.5496 51.69 48.2196 49.38 47.8796 47C48.5396 47 49.1996 47 49.8796 47C49.8796 45.68 49.8796 44.36 49.8796 43Z" fill="#2C2B27"/>
<path d="M45.8796 42C47.1996 42 48.5196 42 49.8796 42C49.8796 43.65 49.8796 45.3 49.8796 47C48.8896 46.67 47.8996 46.34 46.8796 46C46.2196 46.66 45.5596 47.32 44.8796 48C44.2196 47.34 43.5596 46.68 42.8796 46C44.1296 44 44.1296 44 45.8796 42Z" fill="#0F0F0E"/>
<path d="M105.88 112C106.21 112 106.54 112 106.88 112C107.249 118.4 107.249 118.4 105.38 121.438C104.885 121.953 104.39 122.469 103.88 123C103.22 122.67 102.56 122.34 101.88 122C101.55 122.66 101.22 123.32 100.88 124C100.55 123.34 100.22 122.68 99.8796 122C101.169 120.624 102.507 119.292 103.88 118C104.54 118 105.2 118 105.88 118C105.88 116.02 105.88 114.04 105.88 112Z" fill="#CEC7BE"/>
<path d="M112.88 81C118.325 81.99 118.325 81.99 123.88 83C122.89 83.495 122.89 83.495 121.88 84C121.88 84.66 121.88 85.32 121.88 86C117.425 85.01 117.425 85.01 112.88 84C112.88 83.01 112.88 82.02 112.88 81Z" fill="#201B17"/>
<path d="M69.8796 146C71.3371 145.919 72.7958 145.861 74.2546 145.812C75.0667 145.778 75.8789 145.743 76.7156 145.707C77.4297 145.804 78.1439 145.9 78.8796 146C79.5396 146.99 80.1996 147.98 80.8796 149C77.2496 149 73.6196 149 69.8796 149C69.8796 148.01 69.8796 147.02 69.8796 146Z" fill="#302E2C"/>
<path d="M55.8796 94C56.8696 94 57.8596 94 58.8796 94C59.9208 95.3014 60.9185 96.6384 61.8796 98C62.8696 98.66 63.8596 99.32 64.8796 100C59.4014 100.365 59.4014 100.365 57.0046 98.6875C55.8796 97 55.8796 97 55.8796 94Z" fill="#EFEEEE"/>
<path d="M78.8795 84C79.2095 85.32 79.5395 86.64 79.8795 88C80.5395 88 81.1995 88 81.8795 88C82.2095 89.98 82.5395 91.96 82.8795 94C81.8895 94.33 80.8995 94.66 79.8795 95C78.6768 92.5945 78.7788 91.05 78.817 88.375C78.8261 87.5577 78.8351 86.7405 78.8444 85.8984C78.856 85.272 78.8676 84.6455 78.8795 84Z" fill="#2F261B"/>
<path d="M116.88 90C116.88 90.99 116.88 91.98 116.88 93C113.665 94.6073 110.444 94.0575 106.88 94C107.87 93.67 108.86 93.34 109.88 93C109.88 92.34 109.88 91.68 109.88 91C114.63 90 114.63 90 116.88 90Z" fill="#A5937F"/>
<path d="M87.8797 86C87.8797 86.66 87.8797 87.32 87.8797 88C88.5397 88.66 89.1997 89.32 89.8797 90C89.2816 90.0825 88.6834 90.165 88.0672 90.25C85.283 91.2046 84.4466 92.5713 82.8797 95C82.513 89.5 82.513 89.5 84.2547 87.125C85.8797 86 85.8797 86 87.8797 86Z" fill="#DBDCDD"/>
<path d="M105.88 148C106.21 148.66 106.54 149.32 106.88 150C107.54 150.33 108.2 150.66 108.88 151C108.22 153.64 107.56 156.28 106.88 159C106.55 158.34 106.22 157.68 105.88 157C105.22 156.67 104.56 156.34 103.88 156C104.54 153.36 105.2 150.72 105.88 148Z" fill="#232322"/>
<path d="M61.8796 142C65.8396 143.98 65.8396 143.98 69.8796 146C69.8796 146.66 69.8796 147.32 69.8796 148C66.505 147.453 64.7973 146.945 61.8796 145C61.8796 144.01 61.8796 143.02 61.8796 142Z" fill="#12100F"/>
<path d="M46.8796 131C46.5496 133.64 46.2196 136.28 45.8796 139C45.2196 139 44.5596 139 43.8796 139C43.2196 137.35 42.5596 135.7 41.8796 134C45.7546 131 45.7546 131 46.8796 131Z" fill="#0B0B0B"/>
<path d="M40.8796 105C41.8696 105.33 42.8596 105.66 43.8796 106C43.5496 107.65 43.2196 109.3 42.8796 111C41.5596 111.33 40.2396 111.66 38.8796 112C39.7546 107.25 39.7546 107.25 40.8796 105Z" fill="#201D1A"/>
<path d="M102.88 84C102.88 84.99 102.88 85.98 102.88 87C103.191 88.671 103.52 90.3387 103.88 92C102.89 92 101.9 92 100.88 92C99.8896 89.69 98.8996 87.38 97.8796 85C99.5296 84.67 101.18 84.34 102.88 84Z" fill="#1E1D19"/>
<path d="M44.8796 65C45.5396 65 46.1996 65 46.8796 65C46.8796 65.66 46.8796 66.32 46.8796 67C48.5296 67 50.1796 67 51.8796 67C51.8796 66.34 51.8796 65.68 51.8796 65C52.5396 65.33 53.1996 65.66 53.8796 66C53.8796 66.99 53.8796 67.98 53.8796 69C49.9196 69 45.9596 69 41.8796 69C42.8696 67.68 43.8596 66.36 44.8796 65Z" fill="#CEC1AB"/>
<path d="M121.88 8C123.2 8.33 124.52 8.66 125.88 9C126.505 10.875 126.505 10.875 126.88 13C126.22 13.66 125.56 14.32 124.88 15C124.22 14.67 123.56 14.34 122.88 14C122.255 10.9375 122.255 10.9375 121.88 8Z" fill="#E2D2B6"/>
<path d="M57.8796 130C59.8596 130.66 61.8396 131.32 63.8796 132C63.5496 132.66 63.2196 133.32 62.8796 134C61.5596 133.67 60.2396 133.34 58.8796 133C58.5496 134.32 58.2196 135.64 57.8796 137C56.8796 136 56.8796 136 56.7546 133.5C56.8796 131 56.8796 131 57.8796 130Z" fill="#080808"/>
<path d="M80.8796 63C81.2096 63.66 81.5396 64.32 81.8796 65C85.3446 64.505 85.3446 64.505 88.8796 64C86.4845 66.8993 84.5672 67.5017 80.8796 68C80.8796 66.35 80.8796 64.7 80.8796 63Z" fill="#0B0B0C"/>
<path d="M73.8796 60C74.5396 60 75.1996 60 75.8796 60C75.3159 63.2695 74.38 64.8258 71.8796 67C70.8896 66.67 69.8996 66.34 68.8796 66C70.4956 63.9588 72.1653 61.9593 73.8796 60Z" fill="#0F0F0E"/>
<path d="M42.8796 47C43.5396 47 44.1996 47 44.8796 47C45.2096 49.31 45.5396 51.62 45.8796 54C44.8896 54.33 43.8996 54.66 42.8796 55C42.499 52.6739 42.1669 50.3394 41.8796 48C42.2096 47.67 42.5396 47.34 42.8796 47Z" fill="#1D1C19"/>
<path d="M25.8796 9C26.5396 9 27.1996 9 27.8796 9C28.5046 11.875 28.5046 11.875 28.8796 15C28.2196 15.66 27.5596 16.32 26.8796 17C26.2196 16.67 25.5596 16.34 24.8796 16C25.2096 13.69 25.5396 11.38 25.8796 9Z" fill="#E3D7BA"/>
<path d="M41.8796 138C42.2096 138 42.5396 138 42.8796 138C42.8796 141.3 42.8796 144.6 42.8796 148C42.5496 148 42.2196 148 41.8796 148C41.5496 146.35 41.2196 144.7 40.8796 143C39.3946 143.99 39.3946 143.99 37.8796 145C38.9536 142.085 39.6577 140.222 41.8796 138Z" fill="#B2ADA6"/>
<path d="M30.8796 42C31.8696 42.33 32.8596 42.66 33.8796 43C35.0671 45.5625 35.0671 45.5625 35.8796 48C35.2196 48.66 34.5596 49.32 33.8796 50C30.8796 45.375 30.8796 45.375 30.8796 42Z" fill="#171512"/>
<path d="M27.8796 28C27.8796 30.64 27.8796 33.28 27.8796 36C27.2196 36 26.5596 36 25.8796 36C25.5496 33.69 25.2196 31.38 24.8796 29C26.8796 28 26.8796 28 27.8796 28Z" fill="#EFDFC0"/>
<path d="M66.8796 135C71.1696 135 75.4596 135 79.8796 135C79.8796 135.33 79.8796 135.66 79.8796 136C76.9096 136 73.9396 136 70.8796 136C70.8796 136.66 70.8796 137.32 70.8796 138C69.5596 137.67 68.2396 137.34 66.8796 137C66.8796 136.34 66.8796 135.68 66.8796 135Z" fill="#BEBFC2"/>
<path d="M50.8796 92C51.5396 92 52.1996 92 52.8796 92C53.2096 93.98 53.5396 95.96 53.8796 98C52.5596 98.33 51.2396 98.66 49.8796 99C48.8796 96 48.8796 96 49.8171 93.8125C50.343 92.9153 50.343 92.9153 50.8796 92Z" fill="#B9B5B1"/>
<path d="M28.8796 88C35.8096 88.495 35.8096 88.495 42.8796 89C42.8796 89.33 42.8796 89.66 42.8796 90C36.9396 90.495 36.9396 90.495 30.8796 91C30.2196 90.01 29.5596 89.02 28.8796 88Z" fill="#857361"/>
<path d="M95.8796 83C97.8796 84.4375 97.8796 84.4375 99.8796 87C100.234 90.0282 100.113 92.9649 99.8796 96C99.5496 96 99.2196 96 98.8796 96C98.7971 94.7625 98.7146 93.525 98.6296 92.25C98.2449 89.0112 97.9794 88.1209 95.8171 85.5C95.1778 85.005 94.5384 84.51 93.8796 84C94.5396 83.67 95.1996 83.34 95.8796 83Z" fill="#8C8481"/>
<path d="M27.8796 15C28.5396 15.66 29.1996 16.32 29.8796 17C30.8696 16.67 31.8596 16.34 32.8796 16C33.5396 16.33 34.1996 16.66 34.8796 17C34.5496 17.66 34.2196 18.32 33.8796 19C30.8171 19.625 30.8171 19.625 27.8796 20C27.8796 18.35 27.8796 16.7 27.8796 15Z" fill="#2E2C26"/>
<path d="M92.8796 65C93.8696 66.32 94.8596 67.64 95.8796 69C95.5496 69.66 95.2196 70.32 94.8796 71C92.4046 70.01 92.4046 70.01 89.8796 69C90.8696 67.68 91.8596 66.36 92.8796 65Z" fill="#D2C8B1"/>
<path d="M97.8796 59C96.4863 62.3672 94.9007 63.986 91.8796 66C91.8796 63 91.8796 63 93.7546 60.8125C95.8796 59 95.8796 59 97.8796 59Z" fill="#070707"/>
<path d="M120.88 36C121.54 36 122.2 36 122.88 36C122.55 37.98 122.22 39.96 121.88 42C120.89 42.33 119.9 42.66 118.88 43C119.755 37.125 119.755 37.125 120.88 36Z" fill="#1F1E1D"/>
<path d="M84.8796 81C85.5396 81 86.1996 81 86.8796 81C86.8796 81.99 86.8796 82.98 86.8796 84C83.8796 86.1875 83.8796 86.1875 80.8796 88C81.9536 85.0848 82.6577 83.2219 84.8796 81Z" fill="#ACA19D"/>
<path d="M50.8796 78C47.2546 81 47.2546 81 43.8796 81C44.2096 80.01 44.5396 79.02 44.8796 78C47.3706 76.7545 48.2904 77.2233 50.8796 78Z" fill="#0E0C0B"/>
<path d="M41.8796 64C42.5396 64.99 43.1996 65.98 43.8796 67C42.2296 68.32 40.5796 69.64 38.8796 71C39.6296 66.25 39.6296 66.25 41.8796 64Z" fill="#0C0D0C"/>
<path d="M42.8796 60C44.8596 60.66 46.8396 61.32 48.8796 62C47.8896 62.99 46.8996 63.98 45.8796 65C45.8796 64.34 45.8796 63.68 45.8796 63C44.5596 62.67 43.2396 62.34 41.8796 62C42.2096 61.34 42.5396 60.68 42.8796 60Z" fill="#E8DAC1"/>
</svg>
