<svg width="153" height="152" viewBox="0 0 153 152" fill="none" xmlns="http://www.w3.org/2000/svg">
<path d="M138.225 38.5198C138.783 46.3279 137.107 50.9377 132.202 57.0354C126.083 64.0104 120.214 70.5813 111.225 73.5198C109.74 73.0248 109.74 73.0248 108.225 72.5198C108.885 73.5098 109.545 74.4998 110.225 75.5198C111.197 82.8492 109.81 87.882 105.538 93.8948C105.105 94.431 104.672 94.9673 104.225 95.5198C108.101 94.0497 109.408 92.196 111.225 88.5198C111.438 86.4213 111.58 84.3149 111.663 82.2073C112.22 77.9466 112.598 76.106 115.772 73.1409C117.878 71.8023 120.017 70.5132 122.182 69.2737C130.65 64.3931 136.991 55.6716 140.225 46.5198C140.607 44.1938 140.95 41.8607 141.225 39.5198C144.111 42.0019 145.336 44.5912 146.788 48.0823C147.202 49.0529 147.615 50.0236 148.042 51.0237C154.333 69.6079 153.16 91.9396 144.725 109.582C137.375 123.97 125.29 137.112 110.225 143.52C109.235 143.52 108.245 143.52 107.225 143.52C107.225 144.18 107.225 144.84 107.225 145.52C98.4845 149.397 90.7987 151.347 81.2254 151.52C82.4629 150.344 82.4629 150.344 83.7254 149.145C86.4553 146.883 86.4553 146.883 86.2254 144.52C85.6479 145.015 85.0704 145.51 84.4754 146.02C82.2254 147.52 82.2254 147.52 78.2254 147.52C78.5554 148.84 78.8854 150.16 79.2254 151.52C76.9154 151.52 74.6054 151.52 72.2254 151.52C72.2254 150.53 72.2254 149.54 72.2254 148.52C71.2354 148.52 70.2454 148.52 69.2254 148.52C69.2254 149.51 69.2254 150.5 69.2254 151.52C63.1087 151.928 56.7877 151.223 51.2254 148.52C49.9012 145.907 49.9012 145.907 49.2254 143.52C51.2054 142.53 51.2054 142.53 53.2254 141.52C48.46 142.146 48.46 142.146 43.7801 143.203C38.8289 143.817 35.0909 140.305 31.2254 137.52C15.3928 124.744 3.32188 108.639 0.510558 88.0042C-0.923566 70.4803 0.269382 55.1194 9.2254 39.5198C9.5554 39.5198 9.8854 39.5198 10.2254 39.5198C10.3608 40.1862 10.4961 40.8527 10.6356 41.5393C13.4598 53.6313 19.5664 61.8758 29.2254 69.5198C30.2154 69.1898 31.2054 68.8598 32.2254 68.5198C33.9442 69.2971 33.9442 69.2971 35.7254 70.4573C38.3103 72.1296 39.0132 72.5198 42.2254 72.5198C42.5554 73.1798 42.8854 73.8398 43.2254 74.5198C44.5454 74.5198 45.8654 74.5198 47.2254 74.5198C49.3772 86.7775 49.3772 86.7775 49.2254 92.3948C49.0442 101.619 49.3971 112.026 55.2254 119.52C56.1123 120.139 56.9992 120.757 57.9129 121.395C61.0471 124.275 60.9367 126.574 61.1824 130.692C61.1966 131.295 61.2108 131.898 61.2254 132.52C61.5554 130.21 61.8854 127.9 62.2254 125.52C63.3701 125.984 63.3701 125.984 64.5379 126.457C68.4369 127.999 71.4204 128.679 75.6004 128.707C76.5363 128.721 77.4721 128.736 78.4363 128.75C81.3866 128.506 83.549 127.751 86.2254 126.52C85.8954 126.19 85.5654 125.86 85.2254 125.52C83.8893 125.842 82.5565 126.178 81.2254 126.52C71.7314 127.419 65.8372 125.489 58.4129 119.707C53.0539 114.861 51.497 108.519 51.1151 101.489C51.053 99.0812 51.0361 96.6779 51.0379 94.2698C51.0373 93.3775 51.0366 92.4852 51.0359 91.5659C51.1241 79.8488 52.1825 68.184 53.2254 56.5198C55.0994 55.9439 55.0994 55.9439 57.2254 55.5198C59.241 56.7346 59.241 56.7346 61.4754 58.4573C68.3717 62.8236 75.409 62.6082 83.2254 61.5198C87.1868 60.1624 91.2136 58.5316 94.2254 55.5198C95.8754 55.5198 97.5254 55.5198 99.2254 55.5198C100.215 63.4398 100.215 63.4398 101.225 71.5198C101.555 66.8998 101.885 62.2798 102.225 57.5198C102.885 57.8498 103.545 58.1798 104.225 58.5198C104.633 60.8413 104.97 63.1767 105.225 65.5198C106.656 62.6586 106.612 60.6797 106.225 57.5198C102.69 54.8846 99.2456 53.8334 94.9754 52.8948C93.8384 52.6447 92.7015 52.3946 91.5301 52.137C88.7034 51.6091 85.9626 51.2544 83.1004 51.0198C79.1183 50.506 78.6429 50.3427 76.2254 47.5198C77.0504 47.4196 77.8754 47.3193 78.7254 47.2161C94.7929 45.239 110.351 43.0948 125.897 38.4143C130.048 37.2987 134.263 36.5388 138.225 38.5198Z" fill="#8D6140"/>
<path d="M141.225 39.5198C144.111 42.0019 145.336 44.5912 146.788 48.0823C147.202 49.0529 147.615 50.0236 148.042 51.0237C154.333 69.6079 153.16 91.9396 144.725 109.582C138.72 121.338 130.088 130.996 119.225 138.52C118.464 139.069 117.702 139.618 116.917 140.184C112.989 142.73 110.342 143.965 105.663 143.02C104.174 142.55 102.694 142.049 101.225 141.52C100.475 141.319 99.7249 141.118 98.9519 140.91C95.3945 139.857 93.5622 139.123 91.7254 135.832C90.4606 127.453 90.4606 127.453 91.2254 124.52C92.8219 122.53 94.5797 120.919 96.4715 119.211C101.168 114.682 101.326 109.958 101.6 103.77C101.608 102.661 101.616 101.553 101.624 100.41C102.225 97.5198 102.225 97.5198 104.628 95.7776C105.485 95.3625 106.342 94.9474 107.225 94.5198C110.992 90.4306 111.349 87.6606 111.725 82.1448C112.252 77.8945 112.603 76.1011 115.768 73.1448C117.875 71.8046 120.015 70.5141 122.182 69.2737C130.65 64.3931 136.991 55.6716 140.225 46.5198C140.607 44.1938 140.95 41.8607 141.225 39.5198Z" fill="#8C6140"/>
<path d="M54.2254 55.5198C57.4172 56.004 59.3698 57.2531 61.9754 59.0823C68.6174 62.8479 75.8757 62.4679 83.2254 61.5198C87.1879 60.1685 91.2143 58.5309 94.2254 55.5198C95.8754 55.5198 97.5254 55.5198 99.2254 55.5198C99.2254 64.7598 99.2254 73.9998 99.2254 83.5198C99.8854 83.5198 100.545 83.5198 101.225 83.5198C101.114 86.9995 100.984 90.4783 100.85 93.9573C100.804 95.4181 100.804 95.4181 100.757 96.9084C100.072 113.971 100.072 113.971 93.2254 120.52C85.7816 125.981 79.4616 127.431 70.2254 126.52C63.146 124.369 56.8265 119.509 53.3504 113.02C51.3338 106.746 51.0323 100.8 51.0379 94.2698C51.038 93.3768 51.0381 92.4838 51.0382 91.5637C51.1014 83.7757 51.5727 76.034 52.1629 68.2698C52.2497 67.1209 52.3365 65.972 52.4259 64.7883C53.0936 56.6515 53.0936 56.6515 54.2254 55.5198Z" fill="#ECC6A7"/>
<path d="M138.225 38.5198C138.783 46.3279 137.107 50.9377 132.202 57.0354C126.083 64.0104 120.214 70.5813 111.225 73.5198C110.235 73.1898 109.245 72.8598 108.225 72.5198C108.885 73.5098 109.545 74.4998 110.225 75.5198C111.197 82.8492 109.81 87.882 105.538 93.8948C105.105 94.431 104.672 94.9673 104.225 95.5198C104.555 96.1798 104.885 96.8398 105.225 97.5198C104.235 97.5198 103.245 97.5198 102.225 97.5198C102.272 98.3654 102.318 99.211 102.366 100.082C102.59 107.137 102.615 112.76 98.2253 118.52C97.161 119.54 96.0774 120.54 94.9753 121.52C93.1769 123.187 92.3283 124.042 91.8074 126.457C91.7688 130.53 92.4276 134.531 93.2253 138.52C93.8647 138.623 94.5041 138.726 95.1628 138.832C99.2901 139.759 103.232 141.136 107.225 142.52C107.225 143.51 107.225 144.5 107.225 145.52C98.4844 149.397 90.7987 151.347 81.2253 151.52C82.0503 150.736 82.8753 149.952 83.7253 149.145C86.4552 146.883 86.4552 146.883 86.2253 144.52C85.6478 145.015 85.0703 145.51 84.4753 146.02C82.2253 147.52 82.2253 147.52 78.2253 147.52C78.5553 148.84 78.8853 150.16 79.2253 151.52C76.9153 151.52 74.6053 151.52 72.2253 151.52C72.2253 150.53 72.2253 149.54 72.2253 148.52C71.2353 148.52 70.2453 148.52 69.2253 148.52C69.2253 149.51 69.2253 150.5 69.2253 151.52C63.1086 151.928 56.7876 151.223 51.2253 148.52C49.9011 145.907 49.9011 145.907 49.2253 143.52C51.2053 142.53 51.2053 142.53 53.2253 141.52C52.8953 140.86 52.5653 140.2 52.2253 139.52C53.0091 139.293 53.7928 139.066 54.6003 138.832C57.4441 137.739 57.4441 137.739 58.5378 134.895C58.8782 133.719 58.8782 133.719 59.2253 132.52C59.8853 132.52 60.5453 132.52 61.2253 132.52C61.5553 130.21 61.8853 127.9 62.2253 125.52C63.37 125.984 63.37 125.984 64.5378 126.457C68.4368 127.999 71.4204 128.679 75.6003 128.707C76.5362 128.721 77.4721 128.736 78.4363 128.75C81.4183 128.504 83.5556 127.855 86.2253 126.52C86.5141 125.922 86.8028 125.324 87.1003 124.707C88.3758 122.227 89.3612 121.639 91.6628 120.145C95.9817 117.209 97.7219 114 98.7644 108.864C99.4134 104.156 99.6082 99.4531 99.8308 94.7092C100.028 90.8863 100.337 87.2599 101.225 83.5198C100.565 83.5198 99.9053 83.5198 99.2253 83.5198C99.2253 77.5798 99.2253 71.6398 99.2253 65.5198C99.5553 65.5198 99.8853 65.5198 100.225 65.5198C100.72 68.4898 100.72 68.4898 101.225 71.5198C101.555 66.8998 101.885 62.2798 102.225 57.5198C102.885 57.8498 103.545 58.1798 104.225 58.5198C104.633 60.8413 104.97 63.1767 105.225 65.5198C106.656 62.6586 106.612 60.6797 106.225 57.5198C102.69 54.8846 99.2455 53.8334 94.9753 52.8948C93.2699 52.5197 93.2699 52.5197 91.53 52.137C88.7034 51.6091 85.9625 51.2544 83.1003 51.0198C79.1183 50.506 78.6429 50.3427 76.2253 47.5198C77.4628 47.3694 77.4628 47.3694 78.7253 47.2161C94.7928 45.239 110.351 43.0948 125.897 38.4143C130.048 37.2987 134.263 36.5388 138.225 38.5198Z" fill="#1C1510"/>
<path d="M124.632 17.3596C130.564 22.3269 134.913 28.1278 139.225 34.5198C138.73 35.5098 138.73 35.5098 138.225 36.5198C137.565 36.1898 136.905 35.8598 136.225 35.5198C128.575 35.4489 121.537 37.4053 114.292 39.6799C111.225 40.5198 111.225 40.5198 107.225 40.5198C106.599 38.041 105.974 35.5618 105.35 33.0823C105.166 32.3511 104.982 31.6198 104.792 30.8665C103.827 27.0126 102.911 23.1597 102.1 19.2698C101.39 16.2259 100.772 14.1618 99.2253 11.5198C96.7652 10.2897 95.0936 10.3866 92.3503 10.3948C91.4867 10.3922 90.623 10.3896 89.7332 10.387C87.3051 10.4298 87.3051 10.4298 85.3386 11.0198C82.3076 11.7369 79.3975 11.6514 76.2878 11.6448C75.0826 11.6474 73.8773 11.6499 72.6355 11.6526C69.6735 11.5372 67.1065 11.15 64.2253 10.5198C62.544 10.3151 60.8544 10.1686 59.1628 10.0823C57.9079 9.99141 57.9079 9.99141 56.6277 9.89869C53.6631 10.6651 52.6115 11.961 51.0762 14.5654C49.3954 18.4262 48.7919 22.5132 48.1003 26.6448C47.7905 28.4192 47.4756 30.1926 47.155 31.9651C46.9576 33.1332 46.9576 33.1332 46.7561 34.325C46.2022 36.6154 45.3564 38.46 44.2253 40.5198C32.8627 38.8856 32.8627 38.8856 27.4753 36.8948C22.4765 35.1075 17.7961 34.4915 12.7253 36.5198C11.9828 37.0148 11.9828 37.0148 11.2253 37.5198C15.929 24.1287 29.5954 13.6735 41.8931 7.41749C69.4319 -5.62984 100.7 -0.938402 124.632 17.3596Z" fill="#8B6140"/>
<path d="M18.6356 37.2776C24.3374 37.3364 29.2627 38.6709 34.6629 40.3948C46.4881 44.0808 57.515 45.8107 69.9129 46.1448C71.6986 46.2028 71.6986 46.2028 73.5203 46.262C76.4219 46.3552 79.3234 46.441 82.2254 46.5198C82.2254 46.8498 82.2254 47.1798 82.2254 47.5198C80.5754 47.8498 78.9254 48.1798 77.2254 48.5198C79.3681 49.5911 80.9652 49.8446 83.3309 50.1682C84.1501 50.2868 84.9693 50.4054 85.8133 50.5276C87.5262 50.7695 89.2397 51.0066 90.9539 51.2385C96.9463 52.118 102.786 53.0801 107.225 57.5198C107.202 60.3401 107.202 60.3401 106.85 63.6448C106.74 64.7405 106.629 65.8362 106.514 66.9651C106.419 67.8081 106.324 68.6512 106.225 69.5198C104.246 65.8836 103.7 62.6355 103.225 58.5198C103.152 59.8926 103.152 59.8926 103.077 61.2932C103.002 62.4817 102.927 63.6703 102.85 64.8948C102.781 66.0781 102.711 67.2615 102.639 68.4807C102.225 71.5198 102.225 71.5198 100.225 73.5198C99.3294 67.4715 99.1127 61.6303 99.2254 55.5198C96.361 56.349 93.7235 57.2188 91.1629 58.7659C83.4883 63.3422 75.8818 63.8064 67.2254 62.5198C64.205 61.2178 61.7764 59.7901 59.1434 57.8323C57.2001 56.2374 57.2001 56.2374 54.2254 56.5198C53.1093 69.0031 52.0309 81.4796 51.9754 94.0198C51.9664 94.8354 51.9574 95.6509 51.9481 96.4912C51.9832 103.595 52.4567 110.763 56.3504 116.832C62.0965 122.204 67.6015 125.667 75.6004 125.645C76.5363 125.647 77.4721 125.65 78.4364 125.653C81.1327 125.524 83.5981 125.122 86.2254 124.52C86.5554 125.51 86.8854 126.5 87.2254 127.52C81.1309 130.155 74.0537 130.902 67.7371 128.621C65.8522 127.677 64.0301 126.609 62.2254 125.52C62.2254 128.16 62.2254 130.8 62.2254 133.52C61.2354 133.025 61.2354 133.025 60.2254 132.52C59.9871 130.594 59.9871 130.594 59.9129 128.207C59.6158 124.276 59.6158 124.276 56.9129 121.395C56.026 120.776 55.1392 120.157 54.2254 119.52C47.9193 111.412 48.0203 99.9855 48.2879 90.0823C48.1601 84.8411 47.1303 79.6743 46.2254 74.5198C44.2454 75.0148 44.2454 75.0148 42.2254 75.5198C41.8954 74.8598 41.5654 74.1998 41.2254 73.5198C39.8622 73.0751 39.8622 73.0751 38.4715 72.6214C28.5198 69.2442 20.1822 59.494 15.2879 50.4573C13.2861 46.2042 12.6311 43.1756 13.2254 38.5198C14.8148 36.9304 16.4341 37.316 18.6356 37.2776Z" fill="#773F22"/>
<path d="M60.1628 11.6447C61.5225 11.9096 62.8767 12.2033 64.2253 12.5197C71.4217 14.1758 79.4613 14.5249 86.6003 12.4572C90.715 11.3931 93.1801 11.1713 97.2253 12.5197C99.9292 17.6976 101.208 23.0201 102.413 28.7072C102.59 29.5006 102.767 30.294 102.95 31.1115C103.739 34.7406 104.225 37.7659 104.225 41.5197C98.1797 43.2723 92.78 43.815 86.5027 43.7853C85.5984 43.7872 84.6941 43.7892 83.7623 43.7911C81.8622 43.7925 79.9621 43.7888 78.062 43.7804C75.1677 43.7697 72.274 43.7804 69.3796 43.7931C67.5248 43.7918 65.67 43.7893 63.8152 43.7853C62.9577 43.7894 62.1002 43.7934 61.2168 43.7976C56.1744 43.7586 52.0066 43.1407 47.2253 41.5197C48.0637 36.3117 49.0173 31.1321 50.0378 25.9572C50.1906 25.12 50.3433 24.2827 50.5007 23.4201C52.9057 11.4143 52.9057 11.4143 60.1628 11.6447Z" fill="#784022"/>
<path d="M18.2254 60.5198C18.6727 60.9181 19.1201 61.3164 19.5809 61.7268C24.5584 66.1124 24.5584 66.1124 30.2254 69.5198C30.8854 69.1898 31.5454 68.8598 32.2254 68.5198C33.9934 69.5163 35.76 70.5191 37.4715 71.6096C39.3399 72.7501 39.3399 72.7501 42.2254 72.5198C42.5554 73.1798 42.8854 73.8398 43.2254 74.5198C44.5454 74.5198 45.8654 74.5198 47.2254 74.5198C49.3773 86.7775 49.3773 86.7775 49.2254 92.3948C49.0443 101.619 49.3972 112.026 55.2254 119.52C56.5867 120.479 56.5867 120.479 57.9754 121.457C60.2254 123.52 60.2254 123.52 60.5418 125.539C60.5384 127.536 60.3912 129.53 60.2254 131.52C46.8622 129.746 36.1094 121.132 28.0575 110.715C18.0364 95.63 14.808 78.3727 18.2254 60.5198Z" fill="#A07654"/>
<path d="M132.225 60.5198C132.555 60.5198 132.885 60.5198 133.225 60.5198C136.219 78.9844 133.964 95.9061 122.953 111.299C117.188 118.63 110.418 124.044 102.225 128.52C101.091 129.159 99.9567 129.799 98.7879 130.457C96.2254 131.52 96.2254 131.52 92.2254 131.52C91.3776 124.737 91.3776 124.737 93.7137 121.383C94.9413 120.049 96.2022 118.744 97.4989 117.477C101.936 112.447 101.494 106.868 101.589 100.481C102.225 97.5198 102.225 97.5198 104.632 95.7698C105.488 95.3573 106.344 94.9448 107.225 94.5198C110.992 90.4306 111.349 87.6606 111.725 82.1448C112.252 77.8945 112.603 76.1011 115.768 73.1448C117.866 71.8108 119.999 70.5314 122.163 69.3088C125.732 67.2239 128.246 64.7922 131.018 61.7698C131.417 61.3573 131.815 60.9448 132.225 60.5198Z" fill="#A17754"/>
<path d="M138.225 38.5198C138.783 46.3279 137.107 50.9377 132.202 57.0354C125.943 64.1699 120.223 70.2147 111.225 73.5198C109.253 72.426 109.253 72.426 107.225 70.5198C106.745 67.1614 106.788 63.9408 106.792 60.551C106.533 57.3915 106.533 57.3915 104.081 55.7151C101.052 54.4474 98.1822 53.5997 94.9753 52.8948C93.2699 52.5197 93.2699 52.5197 91.53 52.137C88.7034 51.6091 85.9625 51.2544 83.1003 51.0198C79.1183 50.506 78.6429 50.3427 76.2253 47.5198C77.4628 47.3694 77.4628 47.3694 78.7253 47.2161C94.7928 45.239 110.351 43.0948 125.897 38.4143C130.048 37.2987 134.263 36.5388 138.225 38.5198Z" fill="#784023"/>
<path d="M75.9128 50.1447C77.4707 50.1461 77.4707 50.1461 79.0601 50.1474C87.9636 50.283 98.4564 50.7979 106.163 55.7697C107.803 58.4717 107.278 60.6232 106.913 63.7072C106.793 64.7939 106.673 65.8806 106.55 67.0002C106.443 67.8316 106.336 68.6631 106.225 69.5197C104.246 65.8836 103.7 62.6355 103.225 58.5197C103.176 59.435 103.127 60.3502 103.077 61.2932C103.002 62.4817 102.927 63.6702 102.85 64.8947C102.781 66.0781 102.711 67.2615 102.639 68.4807C102.225 71.5197 102.225 71.5197 100.225 73.5197C99.3293 67.4714 99.1126 61.6303 99.2253 55.5197C96.361 56.3489 93.7235 57.2188 91.1628 58.7658C83.4882 63.3421 75.8817 63.8064 67.2253 62.5197C64.2049 61.2178 61.7763 59.79 59.1433 57.8322C57.2001 56.2374 57.2001 56.2374 54.2253 56.5197C53.1093 69.003 52.0308 81.4795 51.9753 94.0197C51.9663 94.8353 51.9573 95.6509 51.948 96.4912C51.9831 103.595 52.4566 110.763 56.3503 116.832C62.0964 122.204 67.6014 125.667 75.6003 125.645C76.5362 125.647 77.4721 125.65 78.4363 125.653C81.1326 125.524 83.5981 125.122 86.2253 124.52C86.5553 125.51 86.8853 126.5 87.2253 127.52C81.1308 130.155 74.0536 130.902 67.7371 128.621C65.8521 127.677 64.0301 126.609 62.2253 125.52C62.2253 128.16 62.2253 130.8 62.2253 133.52C61.5653 133.19 60.9053 132.86 60.2253 132.52C59.9871 130.594 59.9871 130.594 59.9128 128.207C59.6157 124.276 59.6157 124.276 56.9128 121.395C56.026 120.776 55.1391 120.157 54.2253 119.52C47.9192 111.412 48.0202 99.9854 48.2878 90.0822C48.16 84.841 47.1302 79.6743 46.2253 74.5197C44.9053 74.8497 43.5853 75.1797 42.2253 75.5197C42.2253 74.1997 42.2253 72.8797 42.2253 71.5197C42.8853 71.1897 43.5453 70.8597 44.2253 70.5197C44.3253 68.4384 44.355 66.3535 44.3503 64.2697C44.7533 58.1377 44.7533 58.1377 46.6785 55.6174C54.9514 50.0853 66.3194 50.1299 75.9128 50.1447Z" fill="#0D0B0A"/>
<path d="M59.1003 9.26975C60.3649 9.29296 60.3649 9.29296 61.655 9.31663C64.2253 9.51975 64.2253 9.51975 66.6042 10.0276C69.8675 10.6403 72.9691 10.6519 76.2878 10.6448C77.4957 10.6473 78.7035 10.6499 79.948 10.6526C82.6376 10.5436 84.6679 10.2163 87.2253 9.51975C95.9603 8.66585 95.9603 8.66585 99.7253 11.2073C103.109 16.4243 104.122 22.141 105.35 28.1448C105.532 29.0033 105.714 29.8618 105.901 30.7463C107.225 37.1185 107.225 37.1185 107.225 40.5198C107.891 40.338 108.556 40.1562 109.241 39.969C112.276 39.1448 115.313 38.3322 118.35 37.5198C119.397 37.2336 120.444 36.9474 121.522 36.6526C122.541 36.3819 123.559 36.1112 124.608 35.8323C125.54 35.5809 126.472 35.3295 127.433 35.0705C130.427 34.4799 133.181 34.4255 136.225 34.5198C135.73 36.0048 135.73 36.0048 135.225 37.5198C132.512 38.3226 129.932 38.93 127.163 39.4573C125.517 39.7937 123.871 40.1323 122.225 40.4729C121.39 40.6437 120.555 40.8145 119.694 40.9905C114.744 42.0517 109.863 43.3885 104.971 44.6877C95.0384 46.8939 84.9754 46.8008 74.8503 46.8323C74.0468 46.8349 73.2432 46.8375 72.4153 46.8402C60.2284 46.8444 48.9526 46.0789 37.2253 42.5198C35.993 42.1498 34.7607 41.7798 33.491 41.3987C31.3167 40.7272 29.1466 40.0416 26.9832 39.3362C23.382 38.2701 19.9626 37.8129 16.2253 37.5198C15.8953 36.5298 15.5653 35.5398 15.2253 34.5198C21.683 34.0133 26.7601 35.4039 32.8816 37.4494C36.6352 38.6509 40.3947 39.5954 44.2253 40.5198C44.3308 39.9558 44.4363 39.3918 44.5449 38.8108C45.0352 36.2123 45.5364 33.6161 46.0378 31.0198C46.2035 30.1329 46.3691 29.246 46.5398 28.3323C50.3063 9.00245 50.3063 9.00246 59.1003 9.26975ZM54.1121 13.4299C51.634 17.4882 50.8839 21.3199 50.0378 25.9573C49.7913 27.2073 49.7913 27.2073 49.5398 28.4826C48.6937 32.8161 47.9271 37.1604 47.2253 41.5198C52.8756 43.4353 57.8726 43.8134 63.8152 43.7854C65.1702 43.7882 65.1702 43.7882 66.5526 43.7912C68.4545 43.7925 70.3564 43.7889 72.2583 43.7805C75.1505 43.7698 78.0421 43.7804 80.9343 43.7932C82.7904 43.7919 84.6466 43.7893 86.5027 43.7854C87.3581 43.7894 88.2136 43.7935 89.095 43.7976C94.4587 43.7563 99.0695 43.0144 104.225 41.5198C103.567 35.6952 102.631 30.0027 101.413 24.2698C101.184 23.0864 101.184 23.0864 100.95 21.8791C99.9929 17.4001 99.2043 14.2387 95.2253 11.5198C91.5687 11.6939 88.4085 12.2499 84.8621 13.0588C77.3265 14.3762 69.487 13.9913 62.1277 11.9573C58.6225 11.1511 56.818 10.9841 54.1121 13.4299Z" fill="#19130E"/>
<path d="M102.225 57.5198C102.885 57.8498 103.545 58.1798 104.225 58.5198C104.633 60.8413 104.97 63.1767 105.225 65.5198C105.885 64.8598 106.545 64.1998 107.225 63.5198C107.349 64.6335 107.473 65.7473 107.6 66.8948C107.872 70.5508 107.872 70.5508 110.225 72.5198C109.565 72.5198 108.905 72.5198 108.225 72.5198C109.215 74.0048 109.215 74.0048 110.225 75.5198C111.197 82.8492 109.81 87.882 105.538 93.8948C105.105 94.431 104.672 94.9673 104.225 95.5198C104.555 96.1798 104.885 96.8398 105.225 97.5198C104.235 97.5198 103.245 97.5198 102.225 97.5198C102.26 98.377 102.295 99.2342 102.331 100.117C102.488 106.737 102.479 111.69 99.2253 117.52C98.2353 116.86 97.2453 116.2 96.2253 115.52C96.5347 114.984 96.8441 114.447 97.1628 113.895C99.8139 107.969 99.531 101.1 99.8308 94.7092C100.028 90.8863 100.337 87.2599 101.225 83.5198C100.565 83.5198 99.9053 83.5198 99.2253 83.5198C99.2253 77.5798 99.2253 71.6398 99.2253 65.5198C99.5553 65.5198 99.8853 65.5198 100.225 65.5198C100.555 67.4998 100.885 69.4798 101.225 71.5198C101.555 66.8998 101.885 62.2798 102.225 57.5198Z" fill="#1C1815"/>
<path d="M61.2253 135.52C73.6005 139.232 73.6005 139.232 76.6238 143.489C79.2253 148.581 79.2253 148.581 79.2253 151.52C76.9153 151.52 74.6053 151.52 72.2253 151.52C72.2253 150.53 72.2253 149.54 72.2253 148.52C71.2353 148.52 70.2453 148.52 69.2253 148.52C69.2253 149.51 69.2253 150.5 69.2253 151.52C66.1003 152.02 66.1003 152.02 62.2253 151.52C59.7372 149.156 57.8732 146.526 56.2253 143.52C56.2253 142.86 56.2253 142.2 56.2253 141.52C57.5453 141.19 58.8653 140.86 60.2253 140.52C60.5553 138.87 60.8853 137.22 61.2253 135.52Z" fill="#261710"/>
<path d="M31.2253 68.5198C31.768 68.8085 32.3107 69.0973 32.8699 69.3948C33.943 69.9517 33.943 69.9517 35.0378 70.5198C35.7455 70.891 36.4532 71.2623 37.1824 71.6448C39.3145 72.7166 39.3145 72.7166 42.2253 72.5198C42.5553 73.1798 42.8853 73.8398 43.2253 74.5198C44.5453 74.5198 45.8653 74.5198 47.2253 74.5198C49.7113 89.0805 49.7113 89.0805 49.2253 95.5198C48.5653 96.1798 47.9053 96.8398 47.2253 97.5198C42.5066 93.3112 39.4821 89.3375 39.0457 82.8479C39.0387 80.3969 39.0924 77.9668 39.2253 75.5198C37.8332 75.0867 37.8332 75.0867 36.4128 74.6448C33.2253 73.5198 33.2253 73.5198 30.2253 71.5198C30.5553 70.5298 30.8853 69.5398 31.2253 68.5198Z" fill="#0C0C0A"/>
<path d="M63.2253 126.52C64.1535 126.85 65.0816 127.18 66.0378 127.52C73.8203 129.725 81.5963 128.823 89.2253 126.52C89.6003 129.27 89.6003 129.27 89.2253 132.52C86.5378 134.77 86.5378 134.77 83.2253 136.52C82.0188 137.169 82.0188 137.169 80.7878 137.832C74.231 139.591 68.8169 136.642 63.2253 133.52C63.2253 131.21 63.2253 128.9 63.2253 126.52Z" fill="#EFCCAD"/>
<path d="M138.225 39.5198C138.72 41.4998 138.72 41.4998 139.225 43.5198C139.885 43.5198 140.545 43.5198 141.225 43.5198C139.949 53.7301 132.77 61.9832 125.225 68.5198C123.236 69.7202 121.216 70.8711 119.163 71.9573C115.727 73.9373 114.472 74.7098 113.303 78.551C113.045 80.8087 112.837 83.0729 112.682 85.3401C111.991 90.1471 109.52 93.0904 106.225 96.5198C105.235 96.1898 104.245 95.8598 103.225 95.5198C103.575 95.0493 103.924 94.5788 104.284 94.094C104.739 93.4714 105.194 92.8488 105.663 92.2073C106.342 91.285 106.342 91.285 107.034 90.344C109.162 87.0849 109.362 84.3064 109.35 80.5198C109.354 79.2204 109.354 79.2204 109.358 77.8948C109.321 75.3697 109.321 75.3697 108.225 72.5198C109.03 72.4785 109.834 72.4373 110.663 72.3948C120.385 70.0068 128.546 61.6997 134.1 53.6448C136.715 49.2259 137.534 44.5562 138.225 39.5198Z" fill="#181411"/>
<path d="M70.2058 53.4222C71.3692 53.4254 72.5326 53.4286 73.7312 53.4319C74.9461 53.4403 76.1611 53.4487 77.4128 53.4573C78.6394 53.4619 79.8659 53.4664 81.1296 53.471C84.1616 53.4828 87.1934 53.4993 90.2253 53.5198C90.2253 54.5098 90.2253 55.4998 90.2253 56.5198C81.7689 60.6963 74.3119 61.3905 65.2253 58.5198C62.8152 56.4261 62.8152 56.4261 61.2253 54.5198C64.4629 53.4407 66.8029 53.4056 70.2058 53.4222ZM78.2253 60.5198C80.7003 61.0148 80.7003 61.0148 83.2253 61.5198C83.2253 61.8498 83.2253 62.1798 83.2253 62.5198C81.5753 62.5198 79.9253 62.5198 78.2253 62.5198C78.2253 61.8598 78.2253 61.1998 78.2253 60.5198Z" fill="#332623"/>
<path d="M94.2253 139.52C98.7966 140.068 102.9 140.937 107.225 142.52C107.225 143.51 107.225 144.5 107.225 145.52C98.4844 149.397 90.7987 151.347 81.2253 151.52C84.7478 147.777 88.4743 144.75 92.6511 141.754C93.1706 141.347 93.6901 140.939 94.2253 140.52C94.2253 140.19 94.2253 139.86 94.2253 139.52Z" fill="#120D0B"/>
<path d="M51.2254 103.52C51.5554 103.52 51.8854 103.52 52.2254 103.52C52.3117 104.172 52.3981 104.824 52.4871 105.496C53.4556 111.521 54.6256 115.22 59.2254 119.52C64.5979 123.381 68.8689 125.663 75.6004 125.645C76.5362 125.647 77.4721 125.65 78.4363 125.653C81.1327 125.524 83.5981 125.122 86.2254 124.52C86.7204 126.005 86.7204 126.005 87.2254 127.52C81.1308 130.155 74.0536 130.902 67.7371 128.621C65.8522 127.677 64.0301 126.609 62.2254 125.52C62.2254 128.16 62.2254 130.8 62.2254 133.52C61.5654 133.19 60.9054 132.86 60.2254 132.52C59.9871 130.594 59.9871 130.594 59.9129 128.207C59.6157 124.276 59.6157 124.276 56.9129 121.395C56.026 120.776 55.1391 120.157 54.2254 119.52C51.0378 115.242 49.8881 112.918 50.4754 107.582C50.7021 106.224 50.9442 104.868 51.2254 103.52Z" fill="#0F0D0B"/>
<path d="M54.2253 55.5198C57.5307 56.039 60.095 57.4303 62.9753 59.0823C64.1742 59.7648 64.1742 59.7648 65.3972 60.4612C66.3021 60.9852 66.3021 60.9852 67.2253 61.5198C66.5653 63.1698 65.9053 64.8198 65.2253 66.5198C67.2053 67.1798 69.1853 67.8398 71.2253 68.5198C71.2253 69.1798 71.2253 69.8398 71.2253 70.5198C65.6153 69.8598 60.0053 69.1998 54.2253 68.5198C54.5553 66.8698 54.8853 65.2198 55.2253 63.5198C54.5653 63.5198 53.9053 63.5198 53.2253 63.5198C53.1829 61.1868 53.1844 58.8527 53.2253 56.5198C53.5553 56.1898 53.8853 55.8598 54.2253 55.5198Z" fill="#E6BF9E"/>
<path d="M47.2253 25.5198C47.1106 27.2705 46.9832 29.0204 46.8503 30.7698C46.7807 31.7443 46.7111 32.7188 46.6394 33.7229C46.2253 36.5198 46.2253 36.5198 44.2253 40.5198C38.2853 39.5298 38.2853 39.5298 32.2253 38.5198C34.1578 34.6549 35.542 33.0867 38.7253 30.3323C39.5194 29.6375 40.3135 28.9427 41.1316 28.2268C44.4519 25.5198 44.4519 25.5198 47.2253 25.5198Z" fill="#A07655"/>
<path d="M62.2253 125.52C62.8853 125.85 63.5453 126.18 64.2253 126.52C63.8953 128.83 63.5653 131.14 63.2253 133.52C65.2053 134.18 67.1853 134.84 69.2253 135.52C68.2353 137.005 68.2353 137.005 67.2253 138.52C65.2453 137.53 63.2653 136.54 61.2253 135.52C61.2253 137.5 61.2253 139.48 61.2253 141.52C59.5753 141.52 57.9253 141.52 56.2253 141.52C57.8753 144.49 59.5253 147.46 61.2253 150.52C53.0378 149.575 53.0378 149.575 50.2253 147.52C49.4753 145.395 49.4753 145.395 49.2253 143.52C50.5453 142.86 51.8653 142.2 53.2253 141.52C52.8953 140.86 52.5653 140.2 52.2253 139.52C53.0091 139.293 53.7928 139.066 54.6003 138.832C57.4441 137.739 57.4441 137.739 58.5378 134.895C58.7647 134.111 58.9916 133.327 59.2253 132.52C59.8853 132.52 60.5453 132.52 61.2253 132.52C61.5553 130.21 61.8853 127.9 62.2253 125.52Z" fill="#1A1411"/>
<path d="M104.225 25.5198C108.582 26.9693 111.543 29.1972 115.038 32.1448C116.014 32.962 116.989 33.7793 117.995 34.6213C118.731 35.2478 119.467 35.8743 120.225 36.5198C117.504 39.2414 114.93 39.6255 111.225 40.5198C109.905 40.5198 108.585 40.5198 107.225 40.5198C106.719 38.7716 106.22 37.0212 105.725 35.2698C105.447 34.2952 105.168 33.3207 104.882 32.3167C104.225 29.5198 104.225 29.5198 104.225 25.5198Z" fill="#A07755"/>
<path d="M74.2253 86.5198C77.2253 87.5198 77.2253 87.5198 78.3933 89.4456C78.7298 90.2332 79.0662 91.0208 79.4128 91.8323C79.757 92.6122 80.1012 93.392 80.4558 94.1956C81.2253 96.5198 81.2253 96.5198 81.2253 100.52C78.2354 102.015 75.5249 101.636 72.2253 101.52C71.2353 101.19 70.2453 100.86 69.2253 100.52C69.7602 95.1713 71.6922 91.1618 74.2253 86.5198Z" fill="#25211B"/>
<path d="M105.225 73.5198C109.1 74.3948 109.1 74.3948 110.225 75.5198C110.809 81.4781 110.694 86.4408 107.225 91.5198C105.916 92.5505 104.585 93.5561 103.225 94.5198C104.189 79.7385 104.189 79.7385 105.225 73.5198Z" fill="#ECC7A4"/>
<path d="M86.2255 72.5198C90.9755 73.2698 90.9755 73.2698 93.2255 75.5198C93.5704 79.5724 93.5271 81.0673 91.2255 84.5198C88.9155 84.1898 86.6055 83.8598 84.2255 83.5198C82.8716 77.1198 82.8716 77.1198 84.663 74.0823C85.1786 73.5667 85.6942 73.051 86.2255 72.5198Z" fill="#14130F"/>
<path d="M44.2253 73.5198C45.2153 73.8498 46.2053 74.1798 47.2253 74.5198C48.4637 81.1762 48.3167 87.767 48.2253 94.5198C42.3823 88.9764 42.3823 88.9764 42.0574 83.8909C42.0509 82.9228 42.0445 81.9547 42.0378 80.9573C42.0237 79.9866 42.0095 79.0159 41.9949 78.0159C42.2253 75.5198 42.2253 75.5198 44.2253 73.5198Z" fill="#ECC8AA"/>
<path d="M64.8502 72.7073C67.2252 73.5198 67.2252 73.5198 68.2252 75.5198C68.4127 79.0198 68.4127 79.0198 68.2252 82.5198C66.2252 84.5198 66.2252 84.5198 63.7252 84.7698C61.2252 84.5198 61.2252 84.5198 59.2252 82.5198C58.6733 76.4492 58.6733 76.4492 60.4127 73.5198C62.2252 72.5198 62.2252 72.5198 64.8502 72.7073Z" fill="#100E0C"/>
<path d="M12.2253 39.5198C12.5553 39.5198 12.8853 39.5198 13.2253 39.5198C13.411 40.7779 13.5966 42.036 13.7878 43.3323C16.1411 53.7257 23.0904 61.0819 31.2253 67.5198C30.8953 68.5098 30.5653 69.4998 30.2253 70.5198C22.3676 65.3788 14.1476 57.6761 11.2253 48.5198C11.2961 45.4627 11.6711 42.5246 12.2253 39.5198Z" fill="#14100D"/>
<path d="M90.2253 135.52C90.5553 137.17 90.8853 138.82 91.2253 140.52C89.7717 141.692 88.3123 142.858 86.8503 144.02C86.0382 144.669 85.2261 145.319 84.3894 145.989C82.2253 147.52 82.2253 147.52 80.2253 147.52C78.7647 144.872 78.2253 143.625 78.2253 140.52C79.8478 139.682 81.4734 138.849 83.1003 138.02C84.0053 137.556 84.9102 137.092 85.8425 136.614C88.2253 135.52 88.2253 135.52 90.2253 135.52Z" fill="#CE362A"/>
<path d="M87.2253 102.52C89.7003 103.015 89.7003 103.015 92.2253 103.52C88.2731 109.316 84.0206 111.776 77.2253 113.52C74.1306 113.803 71.3415 113.721 68.2253 113.52C68.5553 112.53 68.8853 111.54 69.2253 110.52C70.0336 110.41 70.8418 110.301 71.6746 110.188C72.7432 110.029 73.8118 109.871 74.9128 109.707C75.9686 109.556 77.0243 109.406 78.1121 109.25C81.3789 108.484 83.5396 107.518 86.2253 105.52C86.5553 104.53 86.8853 103.54 87.2253 102.52Z" fill="#26201C"/>
<path d="M61.2253 135.52C65.4596 136.83 69.2994 138.463 73.2253 140.52C72.5653 142.5 71.9053 144.48 71.2253 146.52C67.1158 145.069 63.7928 143.009 60.2253 140.52C60.5553 138.87 60.8853 137.22 61.2253 135.52Z" fill="#D7372C"/>
<path d="M56.2253 43.5198C72.5603 44.0148 72.5603 44.0148 89.2253 44.5198C87.2253 46.5198 87.2253 46.5198 84.1526 46.7468C82.8643 46.7364 81.5761 46.7259 80.2488 46.7151C79.2209 46.7108 79.2209 46.7108 78.1723 46.7065C75.9815 46.6953 73.791 46.6702 71.6003 46.6448C70.116 46.6347 68.6316 46.6256 67.1472 46.6174C63.5065 46.5954 59.8659 46.5608 56.2253 46.5198C56.2253 45.5298 56.2253 44.5398 56.2253 43.5198Z" fill="#0A0908"/>
<path d="M58.6003 9.20728C64.7179 9.30566 70.3762 10.8314 76.2253 12.5198C76.2253 12.8498 76.2253 13.1798 76.2253 13.5198C64.6832 13.6929 64.6832 13.6929 59.7253 12.8948C56.2927 12.527 54.9913 12.5606 52.2253 14.5198C52.2253 9.67474 54.272 9.22829 58.6003 9.20728Z" fill="#0F0C09"/>
<path d="M56.2253 141.52C59.8793 142.132 62.0858 143.686 64.9753 145.957C65.7746 146.575 66.5738 147.192 67.3972 147.828C68.3021 148.666 68.3021 148.666 69.2253 149.52C69.2253 150.18 69.2253 150.84 69.2253 151.52C66.1003 152.02 66.1003 152.02 62.2253 151.52C59.7372 149.156 57.8732 146.526 56.2253 143.52C56.2253 142.86 56.2253 142.2 56.2253 141.52Z" fill="#D38A52"/>
<path d="M49.2253 57.5198C49.5553 57.5198 49.8853 57.5198 50.2253 57.5198C50.3069 59.4149 50.3648 61.311 50.4128 63.2073C50.4476 64.263 50.4825 65.3188 50.5183 66.4065C50.1875 69.9215 49.364 71.7355 47.2253 74.5198C44.5378 75.3323 44.5378 75.3323 42.2253 75.5198C42.2253 74.1998 42.2253 72.8798 42.2253 71.5198C42.8441 70.9629 43.4628 70.406 44.1003 69.8323C46.8302 66.8616 47.1482 64.3433 47.8308 60.4456C48.2253 58.5198 48.2253 58.5198 49.2253 57.5198Z" fill="#161411"/>
<path d="M93.2253 141.52C93.8853 141.85 94.5453 142.18 95.2253 142.52C94.4398 143.836 93.6467 145.148 92.8503 146.457C92.1891 147.554 92.1891 147.554 91.5144 148.672C90.2253 150.52 90.2253 150.52 88.2253 151.52C85.8924 151.56 83.5583 151.563 81.2253 151.52C84.9262 147.595 88.7749 144.574 93.2253 141.52Z" fill="#D0882E"/>
<path d="M41.2253 76.5198C41.5553 76.5198 41.8853 76.5198 42.2253 76.5198C42.3897 77.8578 42.3897 77.8578 42.5574 79.2229C42.7159 80.3934 42.8745 81.5638 43.0378 82.7698C43.1887 83.9299 43.3395 85.0901 43.4949 86.2854C44.2217 89.5037 45.042 91.1031 47.2253 93.5198C47.5553 91.5398 47.8853 89.5598 48.2253 87.5198C48.5553 87.5198 48.8853 87.5198 49.2253 87.5198C49.4207 93.5745 49.4207 93.5745 49.2253 95.5198C48.5653 96.1798 47.9053 96.8398 47.2253 97.5198C41.5534 92.1463 41.5534 92.1463 40.2253 88.5198C40.2488 85.5042 40.2488 85.5042 40.6003 82.2698C40.7112 81.1921 40.8221 80.1145 40.9363 79.0042C41.0317 78.1843 41.1271 77.3645 41.2253 76.5198Z" fill="#322A25"/>
<path d="M98.2253 116.52C97.1435 119.044 96.2835 120.47 94.1628 122.27C91.338 125.55 91.5101 128.248 91.2253 132.52C90.5653 132.19 89.9053 131.86 89.2253 131.52C89.2253 129.87 89.2253 128.22 89.2253 126.52C88.2353 126.52 87.2453 126.52 86.2253 126.52C87.6411 123.128 89.2677 121.423 92.2253 119.27C92.9266 118.749 93.6278 118.228 94.3503 117.692C96.2253 116.52 96.2253 116.52 98.2253 116.52Z" fill="#0D0C0B"/>
<path d="M85.2253 124.52C85.8853 125.51 86.5453 126.5 87.2253 127.52C81.5813 129.96 76.2478 129.713 70.2253 129.52C70.2253 128.53 70.2253 127.54 70.2253 126.52C75.1753 125.86 80.1253 125.2 85.2253 124.52Z" fill="#27231E"/>
<path d="M62.2253 125.52C62.8853 125.85 63.5453 126.18 64.2253 126.52C63.8953 128.83 63.5653 131.14 63.2253 133.52C65.2053 134.18 67.1853 134.84 69.2253 135.52C68.2353 137.005 68.2353 137.005 67.2253 138.52C65.2453 137.53 63.2653 136.54 61.2253 135.52C60.8953 137.17 60.5653 138.82 60.2253 140.52C59.8953 139.86 59.5653 139.2 59.2253 138.52C58.5653 138.19 57.9053 137.86 57.2253 137.52C57.8853 135.87 58.5453 134.22 59.2253 132.52C59.8853 132.52 60.5453 132.52 61.2253 132.52C61.5553 130.21 61.8853 127.9 62.2253 125.52Z" fill="#2D221B"/>
<path d="M95.2253 65.5197C95.8853 66.5097 96.5453 67.4997 97.2253 68.5197C96.5731 68.5687 95.9208 68.6177 95.2488 68.6682C90.2925 69.0922 85.8951 69.6764 81.2253 71.5197C81.2253 70.5297 81.2253 69.5397 81.2253 68.5197C86.2146 65.5262 89.5489 64.9521 95.2253 65.5197Z" fill="#251F1A"/>
<path d="M59.5652 65.3752C60.4224 65.4848 61.2796 65.5944 62.1628 65.7073C63.0175 65.804 63.8721 65.9006 64.7527 66.0002C67.2034 66.5152 69.0531 67.2951 71.2253 68.5198C71.2253 69.1798 71.2253 69.8398 71.2253 70.5198C65.6153 69.8598 60.0053 69.1998 54.2253 68.5198C57.2253 65.5198 57.2253 65.5198 59.5652 65.3752Z" fill="#211C18"/>
<path d="M68.2253 136.52C71.5525 137.074 74.4396 137.57 77.2253 139.52C80.2253 144.663 80.2253 144.663 80.2253 147.52C78.3503 147.332 78.3503 147.332 76.2253 146.52C75.9366 145.736 75.6478 144.952 75.3503 144.145C73.8121 140.556 71.7356 139.97 68.2253 138.52C68.2253 137.86 68.2253 137.2 68.2253 136.52Z" fill="#16100C"/>
<path d="M51.2253 103.52C51.5553 103.52 51.8853 103.52 52.2253 103.52C52.3349 104.195 52.4445 104.871 52.5574 105.567C52.7159 106.459 52.8745 107.351 53.0378 108.27C53.1887 109.151 53.3395 110.033 53.4949 110.942C54.2816 113.718 55.4761 115.265 57.2253 117.52C56.9128 119.77 56.9128 119.77 56.2253 121.52C52.5502 117.562 50.4584 115.114 50.2253 109.52C50.6628 106.145 50.6628 106.145 51.2253 103.52Z" fill="#201C18"/>
<path d="M88.2253 137.52C88.8853 138.51 89.5453 139.5 90.2253 140.52C88.2511 143.042 87.2579 143.513 84.0378 144.207C82.6457 144.362 82.6457 144.362 81.2253 144.52C81.2253 143.2 81.2253 141.88 81.2253 140.52C83.5353 139.53 85.8453 138.54 88.2253 137.52Z" fill="#D63F33"/>
<path d="M74.2253 144.52C74.8853 144.52 75.5453 144.52 76.2253 144.52C79.2253 148.904 79.2253 148.904 79.2253 151.52C76.9153 151.52 74.6053 151.52 72.2253 151.52C72.8853 149.21 73.5453 146.9 74.2253 144.52Z" fill="#E6DBCF"/>
<path d="M98.2253 142.52C99.5453 143.18 100.865 143.84 102.225 144.52C101.225 147.52 101.225 147.52 98.8503 148.77C96.2253 149.52 96.2253 149.52 93.2253 148.52C94.8753 146.54 96.5253 144.56 98.2253 142.52Z" fill="#653F2A"/>
<path d="M85.2253 69.5198C86.2153 69.8498 87.2053 70.1798 88.2253 70.5198C87.2353 71.7882 87.2353 71.7882 86.2253 73.0823C83.9726 76.9541 83.8736 79.1226 84.2253 83.5198C83.5653 83.1898 82.9053 82.8598 82.2253 82.5198C81.8113 80.2346 81.8113 80.2346 81.6003 77.4573C81.5256 76.5382 81.4508 75.6191 81.3738 74.6721C81.3248 73.9618 81.2758 73.2516 81.2253 72.5198C81.8853 72.5198 82.5453 72.5198 83.2253 72.5198C83.2253 71.8598 83.2253 71.1998 83.2253 70.5198C83.8853 70.1898 84.5453 69.8598 85.2253 69.5198Z" fill="#F1CEB2"/>
<path d="M74.2253 90.5198C74.8853 90.5198 75.5453 90.5198 76.2253 90.5198C77.482 93.4258 78.2253 95.3158 78.2253 98.5198C76.2453 98.5198 74.2653 98.5198 72.2253 98.5198C72.8853 95.8798 73.5453 93.2398 74.2253 90.5198Z" fill="#EBCDB0"/>
<path d="M49.2253 143.52C51.5378 143.27 51.5378 143.27 54.2253 143.52C56.2014 145.564 57.2253 146.637 57.2253 149.52C54.3503 149.332 54.3503 149.332 51.2253 148.52C49.8503 145.957 49.8503 145.957 49.2253 143.52Z" fill="#77472B"/>
<path d="M69.2253 110.52C72.5253 110.52 75.8253 110.52 79.2253 110.52C79.2253 111.18 79.2253 111.84 79.2253 112.52C76.8199 113.723 75.2754 113.62 72.6003 113.582C71.3744 113.569 71.3744 113.569 70.1238 113.555C69.1841 113.538 69.1841 113.538 68.2253 113.52C68.5553 112.53 68.8853 111.54 69.2253 110.52Z" fill="#1E1A16"/>
<path d="M138.225 39.5198C138.555 40.8398 138.885 42.1598 139.225 43.5198C139.885 43.5198 140.545 43.5198 141.225 43.5198C140.615 47.0776 139.647 50.2026 138.225 53.5198C136.69 51.0864 136.194 49.8485 136.468 46.9417C136.676 46.0599 136.885 45.1782 137.1 44.2698C137.304 43.3777 137.508 42.4857 137.718 41.5667C137.885 40.8912 138.053 40.2157 138.225 39.5198Z" fill="#1F1711"/>
<path d="M76.2253 89.5198C76.8853 89.5198 77.5453 89.5198 78.2253 89.5198C81.3023 95.9198 81.3023 95.9198 80.9128 98.9573C80.686 99.4729 80.4591 99.9885 80.2253 100.52C76.2253 94.0198 76.2253 94.0198 76.2253 89.5198Z" fill="#1B1915"/>
<path d="M83.2253 135.52C83.8853 136.51 84.5453 137.5 85.2253 138.52C83.5238 138.953 83.5238 138.953 81.7878 139.395C80.6122 139.766 79.4366 140.137 78.2253 140.52C77.8953 141.18 77.5653 141.84 77.2253 142.52C77.2253 141.53 77.2253 140.54 77.2253 139.52C76.5653 139.19 75.9053 138.86 75.2253 138.52C77.8653 137.53 80.5053 136.54 83.2253 135.52Z" fill="#291610"/>
<path d="M15.2253 34.5198C16.4835 34.4785 17.7416 34.4373 19.0378 34.3948C19.7455 34.3716 20.4532 34.3484 21.1824 34.3245C23.2253 34.5198 23.2253 34.5198 26.2253 36.5198C25.5653 37.1798 24.9053 37.8398 24.2253 38.5198C21.4966 38.4869 18.9287 37.9558 16.2253 37.5198C15.8953 36.5298 15.5653 35.5398 15.2253 34.5198Z" fill="#1F1612"/>
<path d="M102.225 57.5198C103.215 58.0148 103.215 58.0148 104.225 58.5198C105.398 64.1147 105.398 64.1147 105.225 66.5198C104.235 67.5098 103.245 68.4998 102.225 69.5198C102.225 65.5598 102.225 61.5998 102.225 57.5198Z" fill="#141312"/>
<path d="M57.2253 68.5198C59.5353 68.5198 61.8453 68.5198 64.2253 68.5198C64.5553 69.8398 64.8853 71.1598 65.2253 72.5198C63.5753 72.1898 61.9253 71.8598 60.2253 71.5198C60.2253 70.8598 60.2253 70.1998 60.2253 69.5198C59.2353 69.1898 58.2453 68.8598 57.2253 68.5198ZM55.2253 69.5198C57.2253 70.5198 57.2253 70.5198 57.2253 70.5198L55.2253 69.5198Z" fill="#F2D0B2"/>
<path d="M88.2253 56.5198C88.5553 57.1798 88.8853 57.8398 89.2253 58.5198C86.6747 60.8743 85.5152 61.5031 81.9753 61.7073C81.0678 61.6454 80.1603 61.5835 79.2253 61.5198C81.7549 58.4281 84.4499 57.6105 88.2253 56.5198Z" fill="#0D0B08"/>
<path d="M102.225 141.52C104.7 142.015 104.7 142.015 107.225 142.52C107.225 143.51 107.225 144.5 107.225 145.52C105.575 145.85 103.925 146.18 102.225 146.52C102.225 144.87 102.225 143.22 102.225 141.52Z" fill="#261C16"/>
<path d="M65.2253 69.5198C67.2326 69.8065 69.2339 70.1384 71.2253 70.5198C70.2353 71.0148 70.2353 71.0148 69.2253 71.5198C68.0918 73.5365 68.0918 73.5365 67.2253 75.5198C67.2253 74.8598 67.2253 74.1998 67.2253 73.5198C66.5653 73.5198 65.9053 73.5198 65.2253 73.5198C64.8953 72.5298 64.5653 71.5398 64.2253 70.5198C64.5553 70.1898 64.8853 69.8598 65.2253 69.5198Z" fill="#DFBCA0"/>
<path d="M47.2253 42.5198C53.9753 42.3948 53.9753 42.3948 56.2253 43.5198C56.2253 44.1798 56.2253 44.8398 56.2253 45.5198C49.4753 44.7698 49.4753 44.7698 47.2253 42.5198Z" fill="#140F0A"/>
<path d="M52.2253 13.5198C53.3219 16.8095 53.0249 18.2328 52.2253 21.5198C51.2353 21.1898 50.2453 20.8598 49.2253 20.5198C49.6003 17.5823 49.6003 17.5823 50.2253 14.5198C50.8853 14.1898 51.5453 13.8598 52.2253 13.5198Z" fill="#1D1713"/>
<path d="M88.2253 126.52C88.5553 126.52 88.8853 126.52 89.2253 126.52C89.5378 129.332 89.5378 129.332 89.2253 132.52C86.7253 134.395 86.7253 134.395 84.2253 135.52C84.6003 133.582 84.6003 133.582 85.2253 131.52C85.8853 131.19 86.5453 130.86 87.2253 130.52C87.8775 128.495 87.8775 128.495 88.2253 126.52Z" fill="#D5B393"/>
<path d="M100.225 16.5198C101.71 17.5098 101.71 17.5098 103.225 18.5198C103.225 19.8398 103.225 21.1598 103.225 22.5198C102.565 22.5198 101.905 22.5198 101.225 22.5198C100.895 23.5098 100.565 24.4998 100.225 25.5198C100.225 22.5498 100.225 19.5798 100.225 16.5198Z" fill="#1D1611"/>
<path d="M86.2253 143.52C86.8853 144.18 87.5453 144.84 88.2253 145.52C86.5753 146.84 84.9253 148.16 83.2253 149.52C83.2253 148.2 83.2253 146.88 83.2253 145.52C84.2153 144.86 85.2053 144.2 86.2253 143.52Z" fill="#160F0A"/>
<path d="M41.2253 76.5198C41.5553 76.5198 41.8853 76.5198 42.2253 76.5198C42.5553 80.4798 42.8853 84.4398 43.2253 88.5198C42.2353 88.5198 41.2453 88.5198 40.2253 88.5198C40.5553 84.5598 40.8853 80.5998 41.2253 76.5198Z" fill="#4D4239"/>
<path d="M141.225 39.5198C143.726 41.694 144.662 43.2502 145.225 46.5198C143.905 46.1898 142.585 45.8598 141.225 45.5198C141.225 43.5398 141.225 41.5598 141.225 39.5198Z" fill="#7C5A3E"/>
<path d="M44.2253 38.5198C44.5553 39.5098 44.8853 40.4998 45.2253 41.5198C44.5653 41.5198 43.9053 41.5198 43.2253 41.5198C43.2253 42.1798 43.2253 42.8398 43.2253 43.5198C40.2553 43.0248 40.2553 43.0248 37.2253 42.5198C37.8853 41.5298 38.5453 40.5398 39.2253 39.5198C40.8753 39.8498 42.5253 40.1798 44.2253 40.5198C44.2253 39.8598 44.2253 39.1998 44.2253 38.5198Z" fill="#2D2117"/>
</svg>
