<svg width="152" height="153" viewBox="0 0 152 153" fill="none" xmlns="http://www.w3.org/2000/svg">
<path d="M121.181 15.1633C122.54 16.3029 123.895 17.4482 125.243 18.6008C125.821 19.0237 126.398 19.4465 126.993 19.8821C139.401 29.3029 148.807 47.3349 151.243 62.6008C152.892 84.0042 150.646 105.85 136.56 123.031C133.929 126.042 131.125 128.83 128.243 131.601C127.587 132.265 126.931 132.929 126.255 133.613C110.551 148.576 89.5928 153.463 68.5439 152.976C51.8322 152.135 36.5397 143.519 24.2431 132.601C23.2144 131.713 23.2144 131.713 22.165 130.808C9.55233 119.164 1.13865 101.5 0.105893 84.3181C-0.740098 62.6534 3.31842 43.1643 18.2431 26.6008C19.0449 25.7062 19.8467 24.8116 20.6728 23.8899C46.9017 -3.85956 90.484 -8.31361 121.181 15.1633Z" fill="#6EC4DD"/>
</svg>
